<svg width="61" height="61" viewBox="0 0 61 61" fill="none" xmlns="http://www.w3.org/2000/svg">
<g clip-path="url(#clip0_767_2875)">
<path d="M30.7686 60.5118C47.3895 60.5118 60.8634 47.0379 60.8634 30.4171C60.8634 13.7962 47.3895 0.322266 30.7686 0.322266C14.1477 0.322266 0.673828 13.7962 0.673828 30.4171C0.673828 47.0379 14.1477 60.5118 30.7686 60.5118Z" fill="#800639"/>
<g clip-path="url(#clip1_767_2875)">
<path d="M47.0765 19.7617C46.2323 18.9574 44.9525 19.6506 44.9525 19.6506C40.9578 21.9746 38.2916 19.0552 38.2916 19.0552C34.4168 15.6248 31.5996 17.14 31.5996 17.14V18.8063C33.7192 18.1842 35.2122 18.4109 36.9985 19.8017C38.7893 21.1925 40.229 21.588 40.229 21.588C42.7618 22.2101 45.0858 19.8417 45.9523 19.8506C46.8144 19.8595 47.0588 20.2238 46.8766 20.5749C46.6944 20.9259 46.1923 20.8282 46.1923 20.8282L46.2012 21.0237C47.0499 21.2281 47.6187 20.2861 47.0721 19.7662L47.0765 19.7617Z" fill="white"/>
<path d="M52.9992 38.5532L46.5827 21.2278L46.5471 21.2411V20.7656H46.2627V21.2455L46.2272 21.2322L40.104 38.5532H40.0195V38.8287C40.0195 40.3617 41.2637 41.6104 42.7968 41.6104H50.3064C51.8439 41.6104 53.0881 40.3617 53.0881 38.8287V38.5532H52.9992ZM40.3395 38.5532L46.2983 21.7077V38.5532H40.3395ZM46.5249 38.5532V21.7254L52.7592 38.5532H46.5249Z" fill="#9F2F5E"/>
<path d="M13.9628 19.7617C14.807 18.9574 16.0868 19.6506 16.0868 19.6506C20.0816 21.9746 22.7477 19.0552 22.7477 19.0552C26.6225 15.6248 29.4397 17.14 29.4397 17.14V18.8063C27.3201 18.1842 25.8271 18.4109 24.0408 19.8017C22.25 21.1925 20.8103 21.588 20.8103 21.588C18.2775 22.2101 15.9535 19.8417 15.087 19.8506C14.2249 19.8595 13.9805 20.2238 14.1627 20.5749C14.3449 20.9259 14.847 20.8282 14.847 20.8282L14.8381 21.0237C13.9894 21.2281 13.4206 20.2861 13.9672 19.7662L13.9628 19.7617Z" fill="#F2F2F2"/>
<path d="M20.9294 38.5532L14.8062 21.2322L14.7706 21.2455V20.7656H14.4862V21.2411L14.4551 21.2278L8.03418 38.5532H7.94531V38.8287C7.94531 40.3617 9.18951 41.6104 10.727 41.6104H18.2366C19.7696 41.6104 21.0138 40.3617 21.0138 38.8287V38.5532H20.9294ZM14.5085 38.5532H8.27414L14.5085 21.7254V38.5532ZM14.7351 38.5532V21.7077L20.6939 38.5532H14.7351Z" fill="#9F2F5E"/>
<path d="M38.5676 49.5204H30.498V11.6123C31.4712 11.6479 32.2533 12.4477 32.2533 13.4297C32.2533 14.2607 31.6934 14.9628 30.9246 15.176V15.9137H31.6089V20.2017H31.369V20.7261H31.7822V21.0504H31.5067V40.6599C32.4977 41.0465 33.1997 42.0063 33.1997 43.135V44.8991H35.0349V47.183H36.2302C37.5189 47.183 38.5676 48.2273 38.5676 49.5204Z" fill="white"/>
<path d="M30.4968 11.6119V49.5199H22.5117C22.5117 48.2268 23.556 47.1826 24.849 47.1826H26.0399V44.8986H27.8795V43.1345C27.8795 42.0458 28.5328 41.1083 29.4703 40.6994V21.05H29.1948V20.7256H29.6525V20.2013H29.3726V15.9132H30.0169V15.1978C29.2126 15.0067 28.6127 14.2869 28.6127 13.4293C28.6127 12.425 29.4259 11.6074 30.4302 11.6074C30.4524 11.6074 30.4746 11.6119 30.4968 11.6119Z" fill="#F2F2F2"/>
</g>
</g>
<defs>
<clipPath id="clip0_767_2875">
<rect width="60.1896" height="60.1896" fill="white" transform="translate(0.673828 0.322266)"/>
</clipPath>
<clipPath id="clip1_767_2875">
<rect width="45.1422" height="37.9125" fill="white" transform="translate(7.94531 11.6074)"/>
</clipPath>
</defs>
</svg>
