<svg width="61" height="61" viewBox="0 0 61 61" fill="none" xmlns="http://www.w3.org/2000/svg">
<g clip-path="url(#clip0_767_2888)">
<path d="M30.5323 60.2745C47.1532 60.2745 60.6271 46.8006 60.6271 30.1797C60.6271 13.5589 47.1532 0.0849609 30.5323 0.0849609C13.9114 0.0849609 0.4375 13.5589 0.4375 30.1797C0.4375 46.8006 13.9114 60.2745 30.5323 60.2745Z" fill="#38516B"/>
<g clip-path="url(#clip1_767_2888)">
<path d="M48.0888 21.0975L42.1328 13.377V21.0975H48.0888Z" fill="#F2F2F2"/>
<path d="M29.4677 39.6811H20.0731V39.241H29.4677V37.3119H20.0731V36.8676H29.4677V34.9385H20.0731V34.4984H29.4677V32.5693H20.0731V32.1251H29.4677V30.196H20.0731V29.7559H29.4677V27.8268H20.0731V27.3825H29.4677V25.4534H20.0731V25.0133H29.4677V23.0842H20.0731V22.64H29.4677V20.7109H20.0731V20.2707H29.4677V18.3416H20.0731V17.8974H29.4677V13.377H16.8359V40.2899H29.4677V39.6811Z" fill="white"/>
<path d="M29.4688 13.377V17.8974H38.2752V18.3416H29.4688V20.2707H37.6047H38.2752V20.7109H37.3127H29.4688V22.64H38.2752V23.0842H29.4688V25.0133H38.2752V25.4534H29.4688V27.3825H38.2752V27.8268H29.4688V29.7559H38.2752V30.196H29.4688V32.1251H38.2752V32.5693H29.4688V34.4984H38.2752V34.9385H29.4688V36.8676H38.2752V37.3119H29.4688V39.241H38.2752V39.6811H29.4688V40.2899H38.2793L42.1334 47.3482V21.0975V13.377H29.4688Z" fill="white"/>
<path d="M38.2781 40.29H25.4941L29.4675 47.3484H42.1322L38.2781 40.29Z" fill="#F2F2F2"/>
<path d="M16.8367 40.29H12.9785L16.8367 47.3484H29.4685L25.565 40.29H16.8367Z" fill="#F2F2F2"/>
<path d="M29.4689 17.8975H20.0742V18.3376H29.4689V17.8975Z" fill="#800639"/>
<path d="M29.4689 20.2705H20.0742V20.7106H29.4689V20.2705Z" fill="#800639"/>
<path d="M29.4689 22.6396H20.0742V23.0798H29.4689V22.6396Z" fill="#800639"/>
<path d="M29.4689 25.0127H20.0742V25.4528H29.4689V25.0127Z" fill="#800639"/>
<path d="M29.4689 27.3818H20.0742V27.822H29.4689V27.3818Z" fill="#800639"/>
<path d="M29.4689 29.7559H20.0742V30.196H29.4689V29.7559Z" fill="#800639"/>
<path d="M29.4689 32.125H20.0742V32.5651H29.4689V32.125Z" fill="#800639"/>
<path d="M29.4689 34.498H20.0742V34.9382H29.4689V34.498Z" fill="#800639"/>
<path d="M29.4689 36.8672H20.0742V37.3073H29.4689V36.8672Z" fill="#800639"/>
<path d="M38.6207 17.8975H29.4688V18.3376H38.6207V17.8975Z" fill="#800639"/>
<path d="M29.4688 20.2705V20.7106H37.6212H38.6166V20.2705H37.9215H29.4688Z" fill="#800639"/>
<path d="M38.6207 22.6396H29.4688V23.0798H38.6207V22.6396Z" fill="#800639"/>
<path d="M38.6207 25.0127H29.4688V25.4528H38.6207V25.0127Z" fill="#800639"/>
<path d="M38.6207 27.3818H29.4688V27.822H38.6207V27.3818Z" fill="#800639"/>
<path d="M38.6207 29.7559H29.4688V30.196H38.6207V29.7559Z" fill="#800639"/>
<path d="M38.6207 32.125H29.4688V32.5651H38.6207V32.125Z" fill="#800639"/>
<path d="M38.6207 34.498H29.4688V34.9382H38.6207V34.498Z" fill="#800639"/>
<path d="M38.6207 36.8672H29.4688V37.3073H38.6207V36.8672Z" fill="#800639"/>
<path d="M38.6207 39.2412H29.4688V39.6813H38.6207V39.2412Z" fill="#800639"/>
<path d="M29.4689 39.2412H20.0742V39.6813H29.4689V39.2412Z" fill="#800639"/>
</g>
</g>
<defs>
<clipPath id="clip0_767_2888">
<rect width="60.1896" height="60.1896" fill="white" transform="translate(0.4375 0.0849609)"/>
</clipPath>
<clipPath id="clip1_767_2888">
<rect width="35.1106" height="33.9712" fill="white" transform="translate(12.9785 13.377)"/>
</clipPath>
</defs>
</svg>
