<svg width="61" height="61" viewBox="0 0 61 61" fill="none" xmlns="http://www.w3.org/2000/svg">
<g clip-path="url(#clip0_767_2947)">
<path d="M30.3096 60.547C46.9305 60.547 60.4044 47.0731 60.4044 30.4522C60.4044 13.8313 46.9305 0.357422 30.3096 0.357422C13.6887 0.357422 0.214844 13.8313 0.214844 30.4522C0.214844 47.0731 13.6887 60.547 30.3096 60.547Z" fill="#38516B"/>
<g clip-path="url(#clip1_767_2947)">
<path d="M48.4554 35.3096H16.999C16.7709 35.3096 16.5859 35.4945 16.5859 35.7227V41.1146C16.5859 41.3427 16.7709 41.5277 16.999 41.5277H48.4554C48.6835 41.5277 48.8685 41.3427 48.8685 41.1146V35.7227C48.8685 35.4945 48.6835 35.3096 48.4554 35.3096Z" fill="#F2F2F2"/>
<path d="M15.6475 29.1045H47.1081C47.3362 29.1045 47.5212 29.2895 47.5212 29.5176V34.9138C47.5212 35.1419 47.3362 35.3269 47.1081 35.3269H15.6475C15.4194 35.3269 15.2344 35.1419 15.2344 34.9138V29.5176C15.2344 29.2895 15.4194 29.1045 15.6475 29.1045Z" fill="#800639"/>
<path d="M20.8025 29.1045H19.6191V35.314H20.8025V29.1045Z" fill="#FA7778"/>
<path d="M22.9763 29.1045H21.793V35.314H22.9763V29.1045Z" fill="#FA7778"/>
<path d="M40.8123 29.1045H39.6289V35.314H40.8123V29.1045Z" fill="#9F2F5E"/>
<path d="M42.9861 29.1045H41.8027V35.314H42.9861V29.1045Z" fill="#9F2F5E"/>
<path d="M21.8748 35.3096H20.6914V41.5191H21.8748V35.3096Z" fill="#EC8A23"/>
<path d="M24.0428 35.3096H22.8594V41.5191H24.0428V35.3096Z" fill="#EC8A23"/>
<path d="M41.8787 35.3096H40.6953V41.5191H41.8787V35.3096Z" fill="#445D78"/>
<path d="M44.0525 35.3096H42.8691V41.5191H44.0525V35.3096Z" fill="#445D78"/>
<path d="M11.25 17.197V40.8388C11.25 41.1228 11.4738 40.942 11.7492 40.942H14.2235V14.1504C12.5797 14.1504 11.25 15.5145 11.25 17.197Z" fill="#800639"/>
<path d="M11.25 21.8445V23.91C11.25 22.2275 12.5797 20.8634 14.2235 20.8634V18.7979C12.5797 18.7979 11.25 20.162 11.25 21.8445Z" fill="#F2F2F2"/>
<path d="M11.25 25.2273V27.2929C11.25 25.6103 12.5797 24.2462 14.2235 24.2462V22.1807C12.5797 22.1807 11.25 23.5448 11.25 25.2316V25.2273Z" fill="#F2F2F2"/>
<path d="M13.0956 41.192V40.5207C13.0956 39.2685 14.1111 38.2529 15.3634 38.2529H14.6447C13.3925 38.2529 12.377 39.2685 12.377 40.5207V41.192C12.377 42.4442 13.3925 43.4598 14.6447 43.4598H15.3634C14.1111 43.4598 13.0956 42.4442 13.0956 41.192Z" fill="#C6D2E5"/>
<path d="M24.3954 37.8524V26.4661H17.648V19.9855H24.3954V14.1504H14.2227V37.8524C14.2227 37.8524 14.2313 37.8524 14.2356 37.8524H24.3954Z" fill="#9F2F5E"/>
<path d="M30.4209 19.9898V26.4704H24.3965V37.8567H34.5391V14.6496C34.5391 14.3742 34.3153 14.1504 34.0399 14.1504H24.4008V19.9898H30.4253H30.4209Z" fill="#9F2F5E"/>
<path d="M34.5391 43.4636H24.3965V43.8251H34.5391V42.9688V43.4636Z" fill="#445D78"/>
<path d="M15.3678 43.4645C14.1155 43.4645 13.1 42.4489 13.1 41.1967V40.5254C13.1 39.6906 13.5518 38.959 14.2274 38.5674V37.8574C12.5836 37.8617 11.2539 39.1957 11.2539 40.8438C11.2539 42.492 12.5922 43.8302 14.2403 43.8302H24.4002V43.4688H15.3678V43.4645Z" fill="#445D78"/>
<path d="M24.3965 38.2527H34.5391V39.6685V37.8525H24.3965V38.2527Z" fill="#9F2F5E"/>
<path d="M15.3673 38.2527H24.3954V37.8525H14.2356C14.2356 37.8525 14.227 37.8525 14.2227 37.8525V38.5626C14.5583 38.3646 14.9499 38.2527 15.3673 38.2527Z" fill="#445D78"/>
<path d="M14.2231 39.6687H24.3959V38.2529H15.3678C14.9504 38.2529 14.5631 38.3648 14.2231 38.5628C13.5518 38.9544 13.0957 39.6859 13.0957 40.5207V41.192C13.0957 42.4442 14.1113 43.4598 15.3635 43.4598H24.3916V42.9649H14.576V42.9176H24.3959V41.3383H13.5346V41.291H13.8229L14.6104 41.1963H18.4532L19.2019 41.291H24.3959V39.7117H13.5346V39.6644H14.2231V39.6687Z" fill="white"/>
<path d="M34.5391 42.9688H24.3965V43.4636H34.5391V42.9688Z" fill="white"/>
<path d="M34.5391 41.3428H24.3965V42.922H34.5391V41.3428Z" fill="white"/>
<path d="M34.5391 38.2529H24.3965V39.6687H34.5391V38.2529Z" fill="white"/>
<path d="M24.3965 40.2838V41.2951H34.5391V39.789V39.7158H24.3965V40.2838Z" fill="white"/>
<path d="M34.5391 39.6689H24.3965V39.7163H34.5391V39.6689Z" fill="#C6D2E5"/>
<path d="M34.5391 41.2949H24.3965V41.3423H34.5391V41.2949Z" fill="#C6D2E5"/>
<path d="M14.2237 39.6689H13.5352V39.7163H14.2237H24.3964V39.6689H14.2237Z" fill="#B6C4D8"/>
<path d="M18.4537 41.2012H14.6153L13.8235 41.2958H13.5352V41.3432H24.3964V41.2958H19.2025L18.4537 41.2012Z" fill="#B6C4D8"/>
<path d="M24.3961 42.9258H14.5762V42.9731H24.3961V42.9258Z" fill="#B6C4D8"/>
<path d="M34.5391 42.9258H24.3965V42.9731H34.5391V42.9258Z" fill="white"/>
<path d="M30.4209 19.9902H24.3965V26.4708H30.4209V19.9902Z" fill="white"/>
<path d="M24.3958 19.9902H17.6484V26.4708H24.3958V19.9902Z" fill="white"/>
<path d="M18.4537 47.0019L16.4957 45.7841L14.6152 47.0019V41.2012H18.4537V47.0019Z" fill="#800639"/>
<path d="M20.6836 22.1328H20.9461V23.9402H21.811V24.1596H20.6836V22.1328Z" fill="#800639"/>
<path d="M23.0288 23.5227L22.818 24.1596H22.5469L23.2354 22.1328H23.5495L24.2423 24.1596H23.9626L23.7475 23.5227H23.0288ZM23.6915 23.3162L23.4936 22.7353C23.4505 22.6019 23.4161 22.4814 23.3903 22.3652H23.386C23.3559 22.4857 23.3214 22.6105 23.2827 22.731L23.0848 23.3162H23.6958H23.6915Z" fill="#800639"/>
<path d="M25.3168 24.1596L24.8047 22.1328H25.0801L25.3211 23.157C25.3813 23.4109 25.4373 23.6647 25.4717 23.8584H25.476C25.5104 23.6561 25.5707 23.4152 25.6395 23.157L25.9106 22.1328H26.1817L26.427 23.1613C26.4829 23.4023 26.5389 23.6432 26.569 23.8584H26.5733C26.6163 23.6346 26.6723 23.4109 26.7368 23.157L27.0036 22.1328H27.2704L26.6981 24.1596H26.4227L26.1688 23.1053C26.1043 22.8471 26.0655 22.6492 26.0354 22.4426H26.0311C25.9967 22.6449 25.9493 22.8428 25.8762 23.1053L25.5879 24.1596H25.3125H25.3168Z" fill="#800639"/>
</g>
</g>
<defs>
<clipPath id="clip0_767_2947">
<rect width="60.1896" height="60.1896" fill="white" transform="translate(0.214844 0.357422)"/>
</clipPath>
<clipPath id="clip1_767_2947">
<rect width="37.6185" height="32.8505" fill="white" transform="translate(11.25 14.1504)"/>
</clipPath>
</defs>
</svg>
