<svg width="243" height="51" viewBox="0 0 243 51" fill="none" xmlns="http://www.w3.org/2000/svg">
<g id="Logo">
<g id="Group">
<path id="Vector" d="M38.5648 0.473816L0.128906 20.951V50.5259H18.8838V20.2717H28.3976L18.8838 10.9592H38.5648V0.473816Z" fill="#633ADE"/>
<path id="Vector_2" d="M38.5646 20.2717H28.3975V33.2741H38.5646V20.2717Z" fill="#633ADE"/>
<path id="Vector_3" d="M38.5646 50.5256V42.5883L28.3975 33.2758V50.5256H38.5646Z" fill="#633ADE"/>
</g>
<g id="Group_2">
<path id="Vector_4" d="M100.23 14.9525H107.418L116.411 39.3529H109.754L108.443 35.4978H99.0598L97.7864 39.3529H91.2371L100.23 14.9525ZM106.568 29.9103L103.771 21.6694L100.974 29.9103H106.568Z" fill="#633ADE"/>
<path id="Vector_5" d="M184.32 20.6804C187.812 20.6804 190.652 23.6641 190.652 27.1516C190.652 30.6392 187.812 33.6229 184.32 33.6229H168.329C164.837 33.6229 161.997 30.6392 161.997 27.1516C161.997 23.6641 164.837 20.6804 168.329 20.6804H184.32ZM184.32 14.9525H168.329C161.592 14.9525 156.13 20.4223 156.13 27.1537C156.13 33.8831 161.592 39.3529 168.329 39.3529H184.32C191.057 39.3529 196.521 33.8831 196.521 27.1537C196.521 20.4243 191.059 14.9525 184.32 14.9525Z" fill="#633ADE"/>
<path id="Vector_6" d="M228.409 31.1492L219.203 14.9524H226.143L231.524 24.8183L234.321 19.7264C235.384 17.676 235.773 16.2244 235.737 14.9524H242.216C242.216 17.1102 241.545 18.6299 239.986 21.4237L234.462 31.1492V39.3528H228.407V31.1492H228.409Z" fill="#633ADE"/>
<path id="Vector_7" d="M73.9474 16.6126V14.9504L56.158 21.9606V23.7425L72.4527 30.1622V37.8827H56.158V39.3528H73.9474V29.1401L69.0747 27.2363V18.5164L73.9474 16.6126ZM67.6048 26.6581L57.8842 22.8774L67.6048 19.0966V26.6602V26.6581Z" fill="#633ADE"/>
<path id="Vector_8" d="M77.4841 14.9504H94.2564V20.6783H83.5745V26.0903H92.2614L90.3057 31.3949H83.5745V39.3508H77.4841V14.9504Z" fill="#633ADE"/>
<path id="Vector_9" d="M199.062 14.9525H210.216C215.208 14.9525 218.961 18.5247 218.961 23.3337C218.961 26.8357 216.835 29.6646 213.685 30.7961L214.321 31.715C215.241 33.0241 216.517 33.625 218.146 33.625H225.384V39.3529H217.472C213.259 39.3529 210.319 37.7609 208.585 34.5438L206.778 31.397H205.149V39.3529H199.058V14.9525H199.062ZM205.153 20.6804V26.0903H210.075C211.597 26.0903 212.73 24.9236 212.73 23.3667C212.73 21.8098 211.597 20.6783 210.075 20.6783H205.153V20.6804Z" fill="#633ADE"/>
<path id="Vector_10" d="M115.653 27.1516C115.653 33.8892 121.121 39.3528 127.869 39.3528H140.157V33.6229H127.869C124.373 33.6229 121.528 30.6433 121.528 27.1516C121.528 23.6599 124.373 20.6804 127.869 20.6804H133.994V14.9504H127.869C121.121 14.9504 115.653 20.4119 115.653 27.1516Z" fill="#633ADE"/>
<path id="Vector_11" d="M137.017 14.9525V20.6804H143.178V39.3529H149.268V20.6804H155.429V14.9525H137.017Z" fill="#633ADE"/>
</g>
</g>
</svg>
