<svg width="1440" height="34" viewBox="0 0 1440 34" fill="none" xmlns="http://www.w3.org/2000/svg">
<path d="M0 0.481996L34.4 2.69113C68.8 4.93836 137.6 9.35664 206.08 10.6897C274.72 12.0228 342.88 10.2708 411.52 10.5755C480 10.8802 548.8 13.3179 617.28 13.3179C685.92 13.3179 754.08 10.8802 822.72 8.55679C891.2 6.1953 960 3.90997 1028.48 2.31025C1097.12 0.748611 1165.28 -0.165516 1233.92 0.0249272C1302.4 0.21537 1371.2 1.51038 1405.6 2.1198L1440 2.76731V34L1405.6 34C1371.2 34 1302.4 34 1233.92 34C1165.28 34 1097.12 34 1028.48 34C960 34 891.2 34 822.72 34C754.08 34 685.92 34 617.28 34C548.8 34 480 34 411.52 34C342.88 34 274.72 34 206.08 34C137.6 34 68.8 34 34.4 34L0 34L0 0.481996Z" fill="#1B4539"/>
</svg>
