<svg fill="#ffffff" id="CasaBarbara" xmlns="http://www.w3.org/2000/svg" xmlns:xlink="http://www.w3.org/1999/xlink" width="139.529" height="22.963" viewBox="0 0 139.529 22.963">
  <defs>
    <clipPath id="clip-path">
      <rect id="Rectangle_10958" data-name="Rectangle 10958" width="139.529" height="22.963"/>
    </clipPath>
  </defs>
  <g id="Groupe_3524" data-name="Groupe 3524" transform="translate(0 0)" clip-path="url(#clip-path)">
    <path id="Tracé_36033" data-name="Tracé 36033" d="M107.611,20.32a1.012,1.012,0,0,1,.066.345q0,.363-.411.362-.214,0-.445-.312a4.77,4.77,0,0,0-3.917-2.337,3.54,3.54,0,0,0-2.88,1.413,5.585,5.585,0,0,0-1.135,3.615,5.343,5.343,0,0,0,1.235,3.648,4.061,4.061,0,0,0,3.209,1.413,4.594,4.594,0,0,0,1.975-.425,3.688,3.688,0,0,0,1.465-1.209,2.229,2.229,0,0,1,.313-.376.374.374,0,0,1,.247-.1.474.474,0,0,1,.461.458,1.664,1.664,0,0,1-.428.852,5.842,5.842,0,0,1-4.871,2.031,6.817,6.817,0,0,1-4.773-1.693,5.643,5.643,0,0,1-1.859-4.373,5.981,5.981,0,0,1,1.811-4.455,6.186,6.186,0,0,1,4.51-1.775,9.32,9.32,0,0,1,2.65.428l.461.1a.389.389,0,0,0,.246-.066.911.911,0,0,0,.19-.346.4.4,0,0,1,.4-.28.453.453,0,0,1,.3.082.864.864,0,0,1,.2.345Z" transform="translate(-67.217 -12.089)"/>
    <path id="Tracé_36034" data-name="Tracé 36034" d="M143.042,34.658l-.2-.954q-.264-1.383-1.481-1.383a2.1,2.1,0,0,0-1.465.593l-.28.264a.663.663,0,0,1-.395.2.383.383,0,0,1-.257-.09.28.28,0,0,1-.107-.222.769.769,0,0,1,.181-.428,3.211,3.211,0,0,1,.51-.526,4.26,4.26,0,0,1,2.716-.922,2.812,2.812,0,0,1,3.095,2.255l.807,3.473q.28,1.284.823,1.284a.356.356,0,0,0,.362-.181l.064-.115.115-.032q.181,0,.181.313a1.1,1.1,0,0,1-.535.93,2.3,2.3,0,0,1-1.341.37,2.034,2.034,0,0,1-1.6-.641,1.046,1.046,0,0,0-.165-.164.191.191,0,0,1-.049-.032l-.1.032-.214.164a3.869,3.869,0,0,1-2.321.641,3.68,3.68,0,0,1-2.354-.741,2.274,2.274,0,0,1-.938-1.859,2.162,2.162,0,0,1,.938-1.827,4.911,4.911,0,0,1,3.209-.641,6.23,6.23,0,0,1,.793.244m.609,2.452-.349-1.5a1.778,1.778,0,0,0-1.165-.428,1.5,1.5,0,0,0-1.547,1.45c0,.033,0,.065,0,.1a1.724,1.724,0,0,0,2.666,1.416.825.825,0,0,0,.395-.691Z" transform="translate(-96.838 -21.867)"/>
    <path id="Tracé_36035" data-name="Tracé 36035" d="M175.245,33.434l.925.28a5.515,5.515,0,0,1,2.08,1.086,2.046,2.046,0,0,1,.66,1.547,2.258,2.258,0,0,1-.889,1.827,3.426,3.426,0,0,1-2.239.724,8.377,8.377,0,0,1-1.07-.082q-.626-.083-1.186-.214a1.582,1.582,0,0,0-.411-.1q-.181,0-.353.3t-.387.3a.321.321,0,0,1-.23-.066,1.1,1.1,0,0,1-.164-.263l-1.432-2.239a.718.718,0,0,1-.115-.395.309.309,0,0,1,.306-.313h.007q.214,0,.51.362l.675.577.806.592a3.964,3.964,0,0,0,2.189.658,1.458,1.458,0,0,0,.913-.272.875.875,0,0,0,.353-.732.905.905,0,0,0-.338-.716,4.351,4.351,0,0,0-1.243-.617l-1.119-.411q-.741-.263-1.045-.4t-.683-.353a1.855,1.855,0,0,1-.255-3.234,3.421,3.421,0,0,1,2.1-.617,5.129,5.129,0,0,1,.84.064q.395.066,1.054.231l.3.049q.247,0,.37-.321t.37-.32a.34.34,0,0,1,.264.091,1.418,1.418,0,0,1,.181.271l1.137,1.895a.817.817,0,0,1,.131.329q0,.281-.3.28a.766.766,0,0,1-.462-.28,5.169,5.169,0,0,0-1.511-1.02,4.039,4.039,0,0,0-1.643-.378,1.269,1.269,0,0,0-.76.214.66.66,0,0,0-.3.56.564.564,0,0,0,.19.436,2.19,2.19,0,0,0,.735.353Z" transform="translate(-119.51 -21.285)"/>
    <path id="Tracé_36036" data-name="Tracé 36036" d="M205.951,34.658l-.2-.954q-.264-1.383-1.481-1.383a2.1,2.1,0,0,0-1.465.593l-.28.264a.663.663,0,0,1-.395.2.383.383,0,0,1-.257-.09.28.28,0,0,1-.107-.222.769.769,0,0,1,.181-.428,3.208,3.208,0,0,1,.51-.526,4.26,4.26,0,0,1,2.716-.922,2.812,2.812,0,0,1,3.094,2.255l.807,3.473q.28,1.284.823,1.284a.356.356,0,0,0,.362-.181l.064-.115.116-.032q.181,0,.181.313a1.1,1.1,0,0,1-.535.93,2.307,2.307,0,0,1-1.342.37,2.034,2.034,0,0,1-1.6-.641,1.031,1.031,0,0,0-.165-.164.192.192,0,0,1-.049-.032l-.1.032-.214.164a3.869,3.869,0,0,1-2.32.641,3.68,3.68,0,0,1-2.354-.741,2.277,2.277,0,0,1-.938-1.859,2.164,2.164,0,0,1,.938-1.827,4.911,4.911,0,0,1,3.209-.641,6.187,6.187,0,0,1,.793.244m.609,2.452-.35-1.5a1.778,1.778,0,0,0-1.164-.428,1.5,1.5,0,0,0-1.547,1.451c0,.032,0,.065,0,.1a1.724,1.724,0,0,0,2.666,1.416.826.826,0,0,0,.4-.691Z" transform="translate(-140.95 -21.867)"/>
    <path id="Tracé_36037" data-name="Tracé 36037" d="M255.124,23.465a5.355,5.355,0,0,1,2.732,1.35,3.207,3.207,0,0,1,.971,2.354,2.911,2.911,0,0,1-1.127,2.387,4.629,4.629,0,0,1-2.987.905h-6.551q-.593,0-.593-.445,0-.345.437-.42a.673.673,0,0,0,.568-.42,2.75,2.75,0,0,0,.049-.3q.017-.156.016-.617V20.815a3.339,3.339,0,0,0-.1-1.012.506.506,0,0,0-.445-.3,1,1,0,0,1-.419-.115q-.074-.064-.074-.329,0-.428.592-.428h4.46a6.19,6.19,0,0,1,3.3.765,2.337,2.337,0,0,1,1.226,2.066,1.8,1.8,0,0,1-.477,1.25,2.123,2.123,0,0,1-.592.42,6.388,6.388,0,0,1-.989.338M252.4,19.581a1.188,1.188,0,0,0-.72.156.753.753,0,0,0-.19.6v2.025a.54.54,0,0,0,.19.477,1.366,1.366,0,0,0,.72.132q2.035,0,2.036-1.547a1.721,1.721,0,0,0-.555-1.342,2.124,2.124,0,0,0-1.481-.5Zm.143,4.427a1.7,1.7,0,0,0-.839.14.633.633,0,0,0-.214.568v3.753a.8.8,0,0,0,.28.716,1.993,1.993,0,0,0,1.037.189q2.929,0,2.93-2.485a2.713,2.713,0,0,0-.839-2.123,3.391,3.391,0,0,0-2.353-.758Z" transform="translate(-173.598 -13.061)"/>
    <path id="Tracé_36038" data-name="Tracé 36038" d="M292.554,34.658l-.2-.954q-.264-1.383-1.481-1.383a2.1,2.1,0,0,0-1.465.593l-.28.264a.664.664,0,0,1-.395.2.383.383,0,0,1-.257-.09.28.28,0,0,1-.107-.222.772.772,0,0,1,.181-.428,3.209,3.209,0,0,1,.51-.526,4.26,4.26,0,0,1,2.716-.922,2.813,2.813,0,0,1,3.095,2.255l.806,3.473q.28,1.284.823,1.284a.356.356,0,0,0,.362-.181l.066-.115.115-.032q.181,0,.181.313a1.1,1.1,0,0,1-.535.93,2.3,2.3,0,0,1-1.341.37,2.035,2.035,0,0,1-1.6-.641,1.036,1.036,0,0,0-.164-.164.181.181,0,0,1-.05-.032l-.1.032-.214.164a3.871,3.871,0,0,1-2.321.641,3.681,3.681,0,0,1-2.354-.741,2.276,2.276,0,0,1-.938-1.859,2.162,2.162,0,0,1,.938-1.827,4.912,4.912,0,0,1,3.21-.641,6.2,6.2,0,0,1,.79.244m.609,2.452-.349-1.5a1.778,1.778,0,0,0-1.165-.428,1.5,1.5,0,0,0-1.547,1.45q0,.049,0,.1a1.724,1.724,0,0,0,2.666,1.416.826.826,0,0,0,.4-.691Z" transform="translate(-201.68 -21.867)"/>
    <path id="Tracé_36039" data-name="Tracé 36039" d="M325.316,31.473v1.211l.049.1c.023-.023.044-.048.065-.074a1.756,1.756,0,0,0,.115-.189,2.459,2.459,0,0,1,.884-.955,2.217,2.217,0,0,1,1.212-.378,2,2,0,0,1,.753.132q.328.131.328.3a.37.37,0,0,1-.017.115,2.743,2.743,0,0,0-.147.313l-.246.708-.262.839q-.064.428-.36.428a.285.285,0,0,1-.2-.058.54.54,0,0,1-.09-.272.81.81,0,0,0-.819-.724,1.1,1.1,0,0,0-.9.461,1.9,1.9,0,0,0-.36,1.2v2.732a1.687,1.687,0,0,0,.132.823.994.994,0,0,0,.6.313q.469.116.469.411,0,.363-.446.362h-4.063q-.446,0-.446-.38,0-.28.461-.388a.8.8,0,0,0,.593-.388,1.154,1.154,0,0,0,.074-.281,3.493,3.493,0,0,0,.025-.481V34a.775.775,0,0,0-.51-.843l-.148-.05a.346.346,0,0,1-.263-.363.328.328,0,0,1,.215-.314l2.943-1.189.133-.05q.183,0,.234.284" transform="translate(-225.482 -21.869)"/>
    <path id="Tracé_36040" data-name="Tracé 36040" d="M348.813,18.1v4.642a.576.576,0,0,0,.008.107.3.3,0,0,0,.025.074.393.393,0,0,0,.1-.049.489.489,0,0,0,.116-.132,2.033,2.033,0,0,1,.817-.577,2.9,2.9,0,0,1,1.114-.214,3.492,3.492,0,0,1,2.707,1.3,4.529,4.529,0,0,1,1.139,3.089,3.9,3.9,0,0,1-.971,2.727,3.248,3.248,0,0,1-2.518,1.068,3.565,3.565,0,0,1-2.156-.711.806.806,0,0,0-.428-.194.913.913,0,0,0-.379.113l-.79.323a4.553,4.553,0,0,0-.428.16q-.181.081-.313.145a.981.981,0,0,1-.444.16q-.28,0-.28-.329l.082-.478V20.686q0-.757-.494-.889l-.165-.049a.379.379,0,0,1-.246-.362.31.31,0,0,1,.229-.313l2.9-1.218h.147q.181,0,.23.247m1.811,4.823a1.608,1.608,0,0,0-1.276.648,2.43,2.43,0,0,0-.535,1.6l-.032,1.428v.115a2.319,2.319,0,0,0,.428,1.477,1.442,1.442,0,0,0,1.2.542,1.728,1.728,0,0,0,1.514-.854,4.247,4.247,0,0,0,.56-2.347,3.2,3.2,0,0,0-.51-1.887,1.577,1.577,0,0,0-1.351-.722" transform="translate(-242.134 -12.52)"/>
    <path id="Tracé_36041" data-name="Tracé 36041" d="M383.841,34.658l-.2-.954q-.264-1.383-1.481-1.383a2.1,2.1,0,0,0-1.465.593l-.28.264a.664.664,0,0,1-.395.2.38.38,0,0,1-.257-.09.279.279,0,0,1-.107-.222.771.771,0,0,1,.181-.428,3.21,3.21,0,0,1,.51-.526,4.26,4.26,0,0,1,2.716-.922,2.812,2.812,0,0,1,3.094,2.255l.807,3.473q.28,1.284.823,1.284a.356.356,0,0,0,.362-.181l.066-.115.115-.032q.181,0,.181.313a1.1,1.1,0,0,1-.535.93,2.3,2.3,0,0,1-1.342.37,2.034,2.034,0,0,1-1.6-.641,1.048,1.048,0,0,0-.165-.164.193.193,0,0,1-.049-.032l-.1.032-.214.164a3.869,3.869,0,0,1-2.32.641,3.68,3.68,0,0,1-2.354-.741,2.276,2.276,0,0,1-.938-1.859,2.162,2.162,0,0,1,.938-1.827,4.911,4.911,0,0,1,3.209-.641,6.2,6.2,0,0,1,.792.244m.609,2.452-.35-1.5a1.778,1.778,0,0,0-1.164-.428,1.5,1.5,0,0,0-1.548,1.45c0,.033,0,.065,0,.1a1.724,1.724,0,0,0,2.666,1.416.825.825,0,0,0,.4-.691Z" transform="translate(-265.69 -21.867)"/>
    <path id="Tracé_36042" data-name="Tracé 36042" d="M415.708,31.473v1.211l.049.1a.9.9,0,0,0,.064-.074,1.725,1.725,0,0,0,.115-.189,2.463,2.463,0,0,1,.884-.955,2.217,2.217,0,0,1,1.212-.378,2.006,2.006,0,0,1,.754.132q.327.131.327.3a.368.368,0,0,1-.017.115,2.743,2.743,0,0,0-.147.313l-.246.708-.262.839q-.064.428-.36.428a.284.284,0,0,1-.2-.058.537.537,0,0,1-.09-.272.81.81,0,0,0-.819-.724,1.1,1.1,0,0,0-.9.461,1.894,1.894,0,0,0-.36,1.2v2.732a1.687,1.687,0,0,0,.132.823.994.994,0,0,0,.6.313q.469.116.469.411,0,.363-.446.362H412.4q-.446,0-.446-.38,0-.28.461-.388a.8.8,0,0,0,.593-.388,1.153,1.153,0,0,0,.074-.281,3.441,3.441,0,0,0,.025-.481V34a.775.775,0,0,0-.51-.843l-.148-.05a.347.347,0,0,1-.264-.363.328.328,0,0,1,.215-.314l2.943-1.189.132-.05q.183,0,.233.284" transform="translate(-288.867 -21.869)"/>
    <path id="Tracé_36043" data-name="Tracé 36043" d="M439.754,34.658l-.2-.954q-.263-1.383-1.481-1.383a2.1,2.1,0,0,0-1.465.593l-.28.264a.664.664,0,0,1-.4.2.38.38,0,0,1-.256-.09.28.28,0,0,1-.107-.222.769.769,0,0,1,.181-.428,3.214,3.214,0,0,1,.51-.526,4.26,4.26,0,0,1,2.716-.922,2.812,2.812,0,0,1,3.094,2.255l.806,3.473q.28,1.284.823,1.284a.355.355,0,0,0,.362-.181l.066-.115.115-.032q.181,0,.181.313a1.1,1.1,0,0,1-.535.93,2.3,2.3,0,0,1-1.341.37,2.035,2.035,0,0,1-1.6-.641,1.042,1.042,0,0,0-.165-.164.194.194,0,0,1-.049-.032l-.1.032-.214.164a3.869,3.869,0,0,1-2.321.641,3.681,3.681,0,0,1-2.354-.741,2.276,2.276,0,0,1-.938-1.859,2.162,2.162,0,0,1,.938-1.827,4.912,4.912,0,0,1,3.209-.641,6.2,6.2,0,0,1,.792.244m.609,2.452-.349-1.5a1.779,1.779,0,0,0-1.165-.428,1.5,1.5,0,0,0-1.547,1.45q0,.049,0,.1a1.724,1.724,0,0,0,2.666,1.416.826.826,0,0,0,.395-.691Z" transform="translate(-304.897 -21.867)"/>
    <path id="Tracé_36044" data-name="Tracé 36044" d="M11.482,22.963h-.1A11.676,11.676,0,0,1,0,11.582,11.482,11.482,0,0,1,11.581,0,11.677,11.677,0,0,1,22.962,11.382a11.482,11.482,0,0,1-11.48,11.581m0-22.344A10.862,10.862,0,0,0,.619,11.576,11.046,11.046,0,0,0,11.387,22.343,10.862,10.862,0,0,0,22.343,11.387,11.046,11.046,0,0,0,11.576.62h-.1" transform="translate(0 0)"/>
    <path id="Tracé_36045" data-name="Tracé 36045" d="M25.2,49.215c-3.091,0-5.7-2.233-5.7-4.876h.619c0,2.268,2.375,4.257,5.083,4.257s5.084-1.989,5.084-4.257h.619c0,2.643-2.612,4.876-5.7,4.876" transform="translate(-13.675 -31.091)"/>
    <path id="Tracé_36046" data-name="Tracé 36046" d="M30.7,22.8H19.463v-.9c0-4.316,2.375-4.652,3.1-4.652a2.741,2.741,0,0,1,1.95.793,2.78,2.78,0,0,1,.567.862,2.781,2.781,0,0,1,.567-.862,2.74,2.74,0,0,1,1.95-.793c.728,0,3.1.336,3.1,4.652Zm-5.308-.619h4.689v-.278c0-2.524-.928-4.032-2.483-4.032a2.118,2.118,0,0,0-1.508.608,2.9,2.9,0,0,0-.7,2.066Zm-5.312,0h4.689V20.549a2.9,2.9,0,0,0-.7-2.066,2.119,2.119,0,0,0-1.508-.608c-1.555,0-2.483,1.508-2.483,4.032Z" transform="translate(-13.648 -12.099)"/>
  </g>
</svg>
