<svg fill="#ffffff" xmlns="http://www.w3.org/2000/svg" width="100.13" height="31.144" viewBox="0 0 100.13 31.144">
  <g id="Inicea" transform="translate(0)">
    <g id="LOGO" transform="translate(0 0)" style="isolation: isolate">
      <path id="Tracé_35211" data-name="Tracé 35211" d="M63.663,33.5c0,.026.006.053.01.078v3.455a3.787,3.787,0,0,1-.292,1.455,4.565,4.565,0,0,1-.352.656,4.771,4.771,0,0,1-.474.576,4.672,4.672,0,0,1-.578.474,3.768,3.768,0,0,1-1.369.568,4.672,4.672,0,0,1-.742.075h-.019a4.687,4.687,0,0,1-.742-.075,4.573,4.573,0,0,1-.711-.216,3.825,3.825,0,0,1-1.708-1.4,4.52,4.52,0,0,1-.353-.656,4.585,4.585,0,0,1-.216-.712,4.534,4.534,0,0,1-.074-.742V33.5Zm2.1-2.427V27.526a3.822,3.822,0,0,1,1.117-2.688,3.809,3.809,0,0,1,2.689-1.117h.019a3.82,3.82,0,0,1,2.689,1.116,3.853,3.853,0,0,1,.826,1.233,3.786,3.786,0,0,1,.292,1.454v.019a4.7,4.7,0,0,1-.08.779,4.394,4.394,0,0,1-.24.744A3.831,3.831,0,0,1,69.6,31.355H65.768ZM59.849,11.831a5.952,5.952,0,0,0-5.952,5.93V31.356H50.364a3.814,3.814,0,0,1-3.8-3.808v-.019a3.812,3.812,0,0,1,3.8-3.806h.021l3.468.019,0-.536c0-.179,0-.357,0-.536s0-.356,0-.536c0,0,0-.178,0-.535l-3.474-.019h-.027a5.957,5.957,0,0,0-5.943,5.943v.029A5.959,5.959,0,0,0,50.356,33.5H53.9v3.539a6.727,6.727,0,0,0,.117,1.158,6.467,6.467,0,0,0,.341,1.115,6.625,6.625,0,0,0,.549,1.026,6.916,6.916,0,0,0,.74.9,7,7,0,0,0,.9.738,6.841,6.841,0,0,0,1.026.55,6.645,6.645,0,0,0,1.116.339,6.738,6.738,0,0,0,1.156.117h.029a6.751,6.751,0,0,0,1.158-.117,5.926,5.926,0,0,0,2.141-.889,6.91,6.91,0,0,0,.9-.738,6.838,6.838,0,0,0,.738-.9,6.685,6.685,0,0,0,.551-1.026,5.919,5.919,0,0,0,.457-2.271V33.5h3.794a5.976,5.976,0,0,0,5.434-3.571,6.5,6.5,0,0,0,.375-1.165,6.786,6.786,0,0,0,.125-1.213v-.029A5.96,5.96,0,0,0,69.6,21.579h-.029a5.961,5.961,0,0,0-5.943,5.941v3.836H56.04V17.771a3.764,3.764,0,0,1,.292-1.454,3.813,3.813,0,0,1,3.518-2.345h.018a3.821,3.821,0,0,1,3.8,3.809V17.8a3.816,3.816,0,0,1-3.8,3.806h-.02L58.521,21.6c0,.357,0,.536,0,.536l0,.535c0,.179,0,.357,0,.536,0,0,0,.179,0,.536l1.332,0h.026a5.955,5.955,0,0,0,5.946-5.94v-.029a5.951,5.951,0,0,0-5.936-5.947Z" transform="translate(-44.419 -11.831)"/>
      <path id="Tracé_35213" data-name="Tracé 35213" d="M77.935,19.322a1.423,1.423,0,0,1-1.048-.414,1.4,1.4,0,0,1-.414-1.026,1.358,1.358,0,0,1,.414-1.014,1.439,1.439,0,0,1,1.048-.4,1.385,1.385,0,0,1,1,.4,1.355,1.355,0,0,1,.415,1.014,1.393,1.393,0,0,1-.415,1.026,1.37,1.37,0,0,1-1,.414M78.873,32.7H76.93V21.024h1.943Z" transform="translate(-38.218 -10.933)"/>
      <path id="Tracé_35214" data-name="Tracé 35214" d="M83.207,32.011H81.264V20.334h1.9v1.66a3.922,3.922,0,0,1,3.71-1.964,4.6,4.6,0,0,1,3.3,1.266A4.788,4.788,0,0,1,91.5,24.941v7.07H89.559v-6.5a4.01,4.01,0,0,0-.829-2.7,2.789,2.789,0,0,0-2.227-.961,3.041,3.041,0,0,0-2.379,1.024,3.815,3.815,0,0,0-.917,2.641Z" transform="translate(-37.292 -10.246)"/>
      <path id="Tracé_35215" data-name="Tracé 35215" d="M93.571,19.322a1.423,1.423,0,0,1-1.048-.414,1.4,1.4,0,0,1-.414-1.026,1.358,1.358,0,0,1,.414-1.014,1.439,1.439,0,0,1,1.048-.4,1.385,1.385,0,0,1,1,.4,1.355,1.355,0,0,1,.415,1.014,1.393,1.393,0,0,1-.415,1.026,1.37,1.37,0,0,1-1,.414M94.509,32.7H92.566V21.024h1.943Z" transform="translate(-35.194 -10.933)"/>
      <path id="Tracé_35216" data-name="Tracé 35216" d="M102.434,32.27A6.045,6.045,0,0,1,98,30.567a5.939,5.939,0,0,1-1.723-4.386,5.967,5.967,0,0,1,1.747-4.409,6.147,6.147,0,0,1,4.516-1.725,6.232,6.232,0,0,1,3.165.828,5.141,5.141,0,0,1,2.117,2.205l-1.615.938a4.669,4.669,0,0,0-1.583-1.593,3.954,3.954,0,0,0-2.085-.59,4.134,4.134,0,0,0-3.077,1.245,4.574,4.574,0,0,0-.044,6.176,4.1,4.1,0,0,0,3.013,1.222,4.144,4.144,0,0,0,2.159-.611,4,4,0,0,0,1.55-1.528l1.615.938a5.466,5.466,0,0,1-2.183,2.161,6.268,6.268,0,0,1-3.141.829" transform="translate(-34.386 -10.242)"/>
      <path id="Tracé_35217" data-name="Tracé 35217" d="M118.713,25.963c0,.161-.023.5-.066,1.026h-9.364a3.873,3.873,0,0,0,4.191,3.469,6.828,6.828,0,0,0,2.149-.371,7.7,7.7,0,0,0,1.975-.96l.829,1.506a7.766,7.766,0,0,1-2.248,1.167,8.344,8.344,0,0,1-2.75.469,6.447,6.447,0,0,1-3.536-.917,5.286,5.286,0,0,1-2.052-2.259,7.052,7.052,0,0,1-.611-2.956,6.09,6.09,0,0,1,1.637-4.366,5.576,5.576,0,0,1,4.234-1.725,5.427,5.427,0,0,1,4.037,1.593,5.89,5.89,0,0,1,1.572,4.321m-3.133-3.208a3.464,3.464,0,0,0-2.476-.938,3.64,3.64,0,0,0-2.533.949,4.083,4.083,0,0,0-1.288,2.478h7.378a3.554,3.554,0,0,0-1.081-2.488" transform="translate(-32.267 -10.242)"/>
      <path id="Tracé_35218" data-name="Tracé 35218" d="M128.369,22.055V20.331h1.877V32.007h-1.877v-1.68a5.111,5.111,0,0,1-4.169,1.964,5.5,5.5,0,0,1-4.19-1.767,6.275,6.275,0,0,1-1.659-4.431,5.9,5.9,0,0,1,1.659-4.321,5.571,5.571,0,0,1,4.19-1.723,5.1,5.1,0,0,1,4.169,2.007m.153,4.1a4.368,4.368,0,0,0-1.156-3.055,4.114,4.114,0,0,0-5.936,0,4.444,4.444,0,0,0-1.113,3.077,4.493,4.493,0,0,0,1.113,3.078,4.164,4.164,0,0,0,5.936,0,4.477,4.477,0,0,0,1.156-3.1" transform="translate(-30.116 -10.242)"/>
    </g>
  </g>
</svg>
