<svg fill="#ffffff" id="Korian" xmlns="http://www.w3.org/2000/svg" width="126.525" height="24.196" viewBox="0 0 126.525 24.196">
  <g id="Groupe_2" data-name="Groupe 2" transform="translate(0 0)">
    <g id="Groupe_1" data-name="Groupe 1">
      <path id="Tracé_1" data-name="Tracé 1" d="M72.7,67.59l3.6-3.7h0l-1.522-1.566h0c-2.516,2.589-4.712,4.846-5.1,5.244a.2.2,0,0,0,.013.29l4.96,4.388,1.653-1.46,0,0Z" transform="translate(-59.211 -54.19)"/>
      <path id="Tracé_2" data-name="Tracé 2" d="M108.56,43.315a7.607,7.607,0,0,0-5.034-7.149,7.012,7.012,0,0,0-2.55-.434,7.354,7.354,0,0,0-5.208,2.124c-1.236,1.279-2.769,2.863-4.3,4.437l0,0,1.524,1.565,4.1-4.214a5.237,5.237,0,0,1,3.888-1.72,4.9,4.9,0,0,1,1.731.3,5.4,5.4,0,0,1,3.606,5.082c0,3.457-2.573,5.27-5.431,6.1a.2.2,0,0,0-.154.2.206.206,0,0,0,.091.169,4.531,4.531,0,0,1,2.141,3.983,3.952,3.952,0,0,1-3.952,3.952,3.664,3.664,0,0,1-2.367-.81l-3.519-3.117h0L91.47,55.248h0l3.732,3.3a5.823,5.823,0,0,0,3.843,1.376,6.17,6.17,0,0,0,5.056-9.7,7.59,7.59,0,0,0,4.462-6.918" transform="translate(-74.376 -35.732)"/>
      <path id="Tracé_3" data-name="Tracé 3" d="M91.47,63.884h0l3.6,3.7-3.6,3.191,0,0,1.651,1.461,4.957-4.388a.2.2,0,0,0,.013-.291L93,62.318l0,0,0,0Z" transform="translate(-74.376 -54.188)"/>
      <path id="Tracé_4" data-name="Tracé 4" d="M51.007,53.784l0,0,0,0L47.483,56.9a3.663,3.663,0,0,1-2.367.811,3.952,3.952,0,0,1-3.952-3.952,4.531,4.531,0,0,1,2.14-3.982.208.208,0,0,0,.091-.17.2.2,0,0,0-.154-.2c-2.858-.831-5.432-2.644-5.432-6.1a5.4,5.4,0,0,1,3.607-5.082,4.908,4.908,0,0,1,1.731-.3,5.238,5.238,0,0,1,3.888,1.72l4.1,4.214,1.524-1.566,0,0c-1.528-1.574-3.065-3.158-4.3-4.437a7.354,7.354,0,0,0-5.208-2.124,7.028,7.028,0,0,0-2.55.434,7.594,7.594,0,0,0-.572,14.067,6.169,6.169,0,0,0,5.056,9.7,5.825,5.825,0,0,0,3.843-1.376l3.733-3.3h0Z" transform="translate(-35.564 -35.731)"/>
      <path id="Tracé_5" data-name="Tracé 5" d="M86.486,58.764l1.522,1.566h0l1.522-1.566,0,0L88.01,57.2l-1.525,1.566Z" transform="translate(-70.916 -50.634)"/>
      <path id="Tracé_6" data-name="Tracé 6" d="M89.371,91.458h0L87.72,90l-1.653,1.46,0,0,1.649,1.463h0Z" transform="translate(-70.626 -73.405)"/>
    </g>
    <path id="Tracé_7" data-name="Tracé 7" d="M208.848,54.33a4.29,4.29,0,0,1,4.384,4.384,4.386,4.386,0,0,1-2.569,3.992l-.051.023,3.1,4.653h-3.327l-.094-.131L207.439,63.1H201.9v4.284h-2.831V54.33h9.775ZM201.9,57.02v3.455h6.886a1.728,1.728,0,0,0,0-3.455Zm16.958,10.362h-2.836V54.33h2.836Zm9.741-9.917-2.378,4.642h4.739Zm5.043,9.916L232.3,64.73l-7.418.006-1.354,2.647H220.4l6.691-13.052h3l.088.168,6.6,12.883Zm18.941,0h-3.069l-.093-.1L241.144,58.1v9.28h-2.835V54.33h3.067l.091.105,8.285,9.181V54.33h2.834Zm-71.565,0h-3.686l-.092-.108-5.418-6.135-3.071,2.327v3.915h-2.838V54.33h2.838v5.858l7.675-5.858H180.7l-6.691,5.107Zm11.114-9.659a5.687,5.687,0,0,0-3.5-1.056,5.612,5.612,0,0,0-3.725,1.2,3.931,3.931,0,0,0-.036,5.977,5.685,5.685,0,0,0,3.76,1.167,5.6,5.6,0,0,0,3.733-1.174,3.919,3.919,0,0,0-.234-6.114m1.953,8.3a9.566,9.566,0,0,1-10.942-.02,6.474,6.474,0,0,1,.035-10.319,8.64,8.64,0,0,1,5.455-1.745,8.532,8.532,0,0,1,5.44,1.746,6.5,6.5,0,0,1,.013,10.338" transform="translate(-126.062 -48.375)" fill-rule="evenodd"/>
  </g>
</svg>
