<svg fill="#ffffff" xmlns="http://www.w3.org/2000/svg" width="40.434" height="40.434" viewBox="0 0 40.434 40.434">
  <g id="Linkedin" transform="translate(1 1)">
    <circle id="Ellipse_4" data-name="Ellipse 4" cx="19.217" cy="19.217" r="19.217" transform="translate(0 0)" fill="none" stroke="#ffffff" stroke-width="2"/>
    <g id="Groupe_740" data-name="Groupe 740" transform="translate(11.545 10.501)">
      <path id="Tracé_5" data-name="Tracé 5" d="M15.921,29.506V18.369h-3.7V29.506ZM14.07,16.848A1.93,1.93,0,1,0,14.094,13a1.929,1.929,0,1,0-.049,3.848h.024Z" transform="translate(-12 -13)" fill-rule="evenodd"/>
      <path id="Tracé_6" data-name="Tracé 6" d="M20.679,31.825h3.7V25.605a2.537,2.537,0,0,1,.122-.9,2.026,2.026,0,0,1,1.9-1.354c1.339,0,1.875,1.021,1.875,2.518v5.958h3.7V25.439c0-3.421-1.826-5.013-4.262-5.013A3.687,3.687,0,0,0,24.356,22.3h.025V20.688h-3.7c.049,1.045,0,11.137,0,11.137Z" transform="translate(-14.71 -15.319)" fill-rule="evenodd"/>
    </g>
  </g>
</svg>
