<svg fill="#ffffff" xmlns="http://www.w3.org/2000/svg" width="200" height="38.246" viewBox="0 0 200 38.246">
  <path id="Logo_footer" d="M236.8,194.252a2.607,2.607,0,0,1-3.012,1.945,8.057,8.057,0,0,0-1.524-.14,10.134,10.134,0,0,0-9.9,10.173v12.2a2.578,2.578,0,0,1-5.156,0v-24.4a2.578,2.578,0,0,1,5.156,0v1a14.359,14.359,0,0,1,9.9-3.848,15.044,15.044,0,0,1,2.376.189A2.451,2.451,0,0,1,236.8,194.252Zm-28.789.017c2.1,2.1,3.117,5.183,3.117,8.94v15.222a2.578,2.578,0,0,1-5.156,0v-.756a13.783,13.783,0,0,1-9.545,3.8,14.243,14.243,0,0,1-7.643-2.249,7.792,7.792,0,0,1-3.629-6.786c0-6.139,4.722-10.112,12.632-10.112a31.225,31.225,0,0,1,8.184,1.057,7.864,7.864,0,0,0-1.639-5.753c-1.188-1.264-3.191-1.909-5.955-1.917a19.641,19.641,0,0,0-6.921,1.554,2.441,2.441,0,0,1-1.783-4.544,22.664,22.664,0,0,1,8.821-1.735C202.575,190.989,205.865,192.123,208.011,194.269Zm-2.039,13.69a29.016,29.016,0,0,0-7.748-1.091c-3.654,0-8.009,1.183-8.009,5.352,0,2.925,2.3,4.657,7.03,4.657,4.812,0,8.728-3.65,8.728-7.717Zm-47.929-11.986a9.48,9.48,0,0,1,7.792,3.6,2.574,2.574,0,0,0,3.535.216,2.471,2.471,0,0,0,.192-3.538,14.133,14.133,0,0,0-11.519-5.266,15.242,15.242,0,1,0,11.519,25.217,2.555,2.555,0,0,0-3.862-3.347,10.117,10.117,0,0,1-17.66-6.628A10.144,10.144,0,0,1,158.043,195.972Zm19.664-12.746a2.551,2.551,0,0,0-2.578,2.578v32.626a2.578,2.578,0,0,0,5.156,0V185.8A2.55,2.55,0,0,0,177.707,183.227Zm118.607,7.762a13.219,13.219,0,0,0-9.023,3.529v-.488a2.578,2.578,0,1,0-5.156,0v24.4a2.578,2.578,0,0,0,5.156,0V206.042c0-5.5,3.588-10.174,9.023-10.174,6.5,0,8,5.351,8,10.174v12.389a2.578,2.578,0,0,0,5.156,0v-12.9C309.472,196.528,304.823,190.989,296.314,190.989Zm43.426,17.495H320.391c.786,5.2,5.191,7.7,9.37,7.7a10.7,10.7,0,0,0,7.042-2.591,2.4,2.4,0,0,1,1.655-.586,2.531,2.531,0,0,1,2.56,2.616,2.832,2.832,0,0,1-.858,1.981,15.064,15.064,0,0,1-10.509,3.868c-8.686,0-14.991-6.43-14.991-15.214,0-8.673,6.133-15.269,14.266-15.269,9.012,0,13.876,7.408,13.876,14.378A3.022,3.022,0,0,1,339.74,208.484Zm-2.493-4.228c-.564-5.5-4.666-8.387-8.377-8.387-3.873,0-7.841,3.233-8.533,8.387Zm-64.357-9.987c2.1,2.1,3.117,5.183,3.117,8.94v15.222a2.578,2.578,0,0,1-5.156,0v-.756a13.783,13.783,0,0,1-9.545,3.8,14.242,14.242,0,0,1-7.642-2.249,7.792,7.792,0,0,1-3.629-6.786c0-6.139,4.722-10.112,12.632-10.112a31.22,31.22,0,0,1,8.184,1.057,7.864,7.864,0,0,0-1.639-5.753c-1.188-1.264-3.191-1.909-5.955-1.917a19.637,19.637,0,0,0-6.921,1.554,2.441,2.441,0,0,1-1.783-4.544,22.662,22.662,0,0,1,8.821-1.735C267.453,190.989,270.744,192.123,272.89,194.269Zm-2.039,13.69a29.017,29.017,0,0,0-7.748-1.091c-3.654,0-8.009,1.183-8.009,5.352,0,2.925,2.3,4.657,7.029,4.657,4.812,0,8.728-3.65,8.728-7.717ZM242.5,191.452a2.551,2.551,0,0,0-2.578,2.578v24.4a2.578,2.578,0,0,0,5.156,0v-24.4A2.55,2.55,0,0,0,242.5,191.452Zm2.888-5.337a2.889,2.889,0,1,1-2.888-2.889A2.889,2.889,0,0,1,245.391,186.115Z" transform="translate(-142.801 -183.226)"/>
</svg>
