<svg fill="#ffffff" xmlns="http://www.w3.org/2000/svg" xmlns:xlink="http://www.w3.org/1999/xlink" width="132.79" height="24.2" viewBox="0 0 132.79 24.2">
  <defs>
    <clipPath id="clip-path">
      <path id="Tracé_36423" data-name="Tracé 36423" d="M0,0H132.79V24.2H0Z"/>
    </clipPath>
  </defs>
  <g id="logo" clip-path="url(#clip-path)">
    <path id="Tracé_36407" data-name="Tracé 36407" d="M1.806,0V12.326c0,2.021.377,2.662,2.346,2.391L4.26,14.7l.072,1.552-.09.018C1.186,16.819,0,15.637,0,12.326V0ZM13.67,15.574l-.054.027a7.454,7.454,0,0,1-3.442.8c-3.559.063-5.8-2.328-5.527-6.127A5.058,5.058,0,0,1,9.769,5.2c2.022,0,4.458.974,4.287,3.609-.108,2.274-2.22,3.095-3.936,3.158a6.826,6.826,0,0,1-3.766-.956c0,2.526,1.483,3.808,3.9,3.808a7.983,7.983,0,0,0,3.209-.758l.135-.063.072,1.579ZM9.823,10.422c1.114,0,2.382-.433,2.48-1.705.153-1.335-1.357-1.922-2.543-1.922A3.132,3.132,0,0,0,6.5,9.456,5.647,5.647,0,0,0,9.823,10.422Zm6.984,2.544.009.09c.1,1.245,1.384,1.76,2.7,1.76,1.348,0,2.6-.6,2.66-1.8,0-1.1-.818-1.353-2.651-1.642-1.905-.235-4.116-.677-4.188-2.96C15.279,6.145,17.454,5.2,19.494,5.2s4.224.993,4.161,3.113v.1H21.93v-.1c0-1.038-1.159-1.561-2.436-1.561-1.249,0-2.508.505-2.454,1.624.018.929.818,1.182,2.651,1.471a9.033,9.033,0,0,1,2.894.722,2.459,2.459,0,0,1,1.33,2.454c0,2.247-2.112,3.312-4.4,3.375-2.148,0-4.278-.839-4.44-3.33l-.009-.108h1.744v.009Z" fill-rule="evenodd"/>
    <path id="Tracé_36408" data-name="Tracé 36408" d="M28.509,12.973l.009.09c.1,1.245,1.384,1.76,2.7,1.76,1.348,0,2.6-.6,2.66-1.8,0-1.1-.818-1.353-2.651-1.642-1.905-.235-4.116-.677-4.188-2.96C26.981,6.152,29.156,5.2,31.2,5.2s4.224.993,4.161,3.113v.1H33.632v-.1c0-1.038-1.159-1.561-2.436-1.561-1.249,0-2.508.505-2.454,1.624.018.929.818,1.182,2.651,1.471a9.033,9.033,0,0,1,2.894.722,2.459,2.459,0,0,1,1.33,2.454c0,2.247-2.112,3.312-4.4,3.375-2.148,0-4.278-.839-4.44-3.33l-.009-.108h1.744v.009ZM50.888,15.59l-.054.027a7.454,7.454,0,0,1-3.442.8c-3.559.063-5.8-2.328-5.527-6.127a5.058,5.058,0,0,1,5.123-5.08c2.022,0,4.458.974,4.287,3.609-.108,2.274-2.22,3.095-3.936,3.158a6.826,6.826,0,0,1-3.766-.956c0,2.526,1.483,3.808,3.9,3.808a7.984,7.984,0,0,0,3.209-.758l.135-.063.072,1.579ZM47.05,10.438c1.114,0,2.382-.433,2.481-1.705.153-1.335-1.357-1.922-2.543-1.922a3.132,3.132,0,0,0-3.262,2.662A5.712,5.712,0,0,0,47.05,10.438Zm31.437,5.143-.054.027a7.453,7.453,0,0,1-3.442.8c-3.559.063-5.8-2.328-5.527-6.127A5.058,5.058,0,0,1,74.587,5.2c2.022,0,4.458.974,4.287,3.609-.108,2.274-2.22,3.095-3.937,3.158a6.825,6.825,0,0,1-3.766-.956c0,2.526,1.483,3.808,3.9,3.808a7.984,7.984,0,0,0,3.208-.758L78.415,14Zm-3.847-5.152c1.114,0,2.382-.433,2.481-1.705C77.274,7.388,75.764,6.8,74.578,6.8a3.132,3.132,0,0,0-3.262,2.662A5.649,5.649,0,0,0,74.641,10.429Zm5.088-5.008.081-.018c1.519-.4,2.66.117,2.831,1.543A3.588,3.588,0,0,1,85.993,5.24c2.651,0,4.044,1.985,4.044,4.584v4.042c.018.866.135,1.155,1.105,1.02l.117-.018v1.4l-.081.018c-1.834.379-2.948-.108-2.948-2.373V9.824a2.711,2.711,0,0,0-2.66-2.987,2.8,2.8,0,0,0-2.786,3.068v6.289H80.978V8.57c0-.4.009-.731-.009-1a1.557,1.557,0,0,0-.108-.6c-.107-.244-.342-.343-.988-.253l-.108.018Zm15.207.036H98.35V6.91H94.935v5.062c0,2.572,1.42,3.321,3.667,2.454l.2,1.579c-3.316,1.092-5.653.009-5.653-4V6.9l-2.085-.108V5.457h2.2l.162-3.284h1.519V5.457ZM101.02.918a1.083,1.083,0,0,1,1.1,1.173,1.108,1.108,0,1,1-2.211,0A1.1,1.1,0,0,1,101.02.918Zm.872,15.294H100.1V5.457h1.789V16.213Zm11.091-.632-.054.027a7.453,7.453,0,0,1-3.442.8c-3.559.063-5.8-2.328-5.527-6.127a5.058,5.058,0,0,1,5.123-5.08c2.022,0,4.458.974,4.287,3.609-.108,2.274-2.22,3.095-3.937,3.158a6.825,6.825,0,0,1-3.766-.956c0,2.526,1.483,3.808,3.9,3.808a7.984,7.984,0,0,0,3.208-.758l.135-.063.072,1.579Zm-3.847-5.152c1.114,0,2.382-.433,2.481-1.705.153-1.335-1.357-1.922-2.544-1.922a3.132,3.132,0,0,0-3.262,2.662A5.649,5.649,0,0,0,109.136,10.429ZM116.972.016V12.342c0,2.021.377,2.662,2.346,2.391l.107-.018.072,1.552-.09.018c-3.064.541-4.242-.641-4.242-3.952V.016Zm5.375,0V12.342c0,2.021.378,2.662,2.346,2.391l.108-.018.072,1.552-.09.018c-3.064.541-4.242-.641-4.242-3.952V.016Zm11.89,15.565-.054.027a7.454,7.454,0,0,1-3.443.8c-3.559.063-5.8-2.328-5.527-6.127a5.059,5.059,0,0,1,5.123-5.08c2.022,0,4.458.974,4.287,3.609-.107,2.274-2.22,3.095-3.936,3.158a6.828,6.828,0,0,1-3.766-.956c0,2.526,1.483,3.808,3.9,3.808a7.981,7.981,0,0,0,3.208-.758l.135-.063.072,1.579ZM130.4,10.429c1.114,0,2.382-.433,2.48-1.705.153-1.335-1.357-1.922-2.543-1.922a3.126,3.126,0,0,0-3.262,2.662A5.647,5.647,0,0,0,130.4,10.429Zm6.983,2.545.009.09c.1,1.245,1.384,1.76,2.7,1.76,1.348,0,2.6-.6,2.66-1.8,0-1.1-.818-1.354-2.651-1.642-1.905-.235-4.116-.677-4.188-2.96s2.121-3.23,4.161-3.23,4.224.993,4.161,3.113v.1h-1.717V8.317c0-1.038-1.159-1.561-2.436-1.561-1.249,0-2.507.505-2.453,1.624.018.929.818,1.182,2.651,1.471a9.034,9.034,0,0,1,2.894.722,2.459,2.459,0,0,1,1.33,2.454c0,2.247-2.112,3.311-4.4,3.375-2.148,0-4.278-.839-4.44-3.33l-.009-.108h1.735v.009Z" transform="translate(-11.702 -0.007)" fill-rule="evenodd"/>
    <path id="Tracé_36409" data-name="Tracé 36409" d="M92.806,23.151h1.752c-.108,2.481-2.211,3.393-4.359,3.465a5.221,5.221,0,0,1-3.676-1.209,2.872,2.872,0,0,0,.872-2.039c0-.054.009-.1.009-.153V23.3c.1,1.209,1.384,1.769,2.741,1.723C91.476,24.983,92.761,24.406,92.806,23.151Z" transform="translate(-37.829 -10.122)" fill-rule="evenodd"/>
    <path id="Tracé_36410" data-name="Tracé 36410" d="M86.523,14.954a2.811,2.811,0,0,1,.378-.262,8.953,8.953,0,0,1,2.894-.83c1.842-.361,2.669-.632,2.669-1.75,0-1.191-1.483-1.832-3.092-1.543a5.951,5.951,0,0,0-2.849,1.426V10.289a6.4,6.4,0,0,1,3.065-1.164c2.31-.262,4.5.848,4.521,3.14,0,2.166-1.977,2.8-4.089,3.131-1.762.343-2.588.623-2.615,1.624a2.448,2.448,0,0,0-.881-2.066Z" transform="translate(-37.829 -3.973)" fill-rule="evenodd"/>
    <path id="Tracé_36411" data-name="Tracé 36411" d="M74,23.151c.054,1.254,1.339,1.823,2.66,1.877,1.357.045,2.642-.514,2.741-1.723v-.081a.884.884,0,0,0,.009.153,2.926,2.926,0,0,0,.872,2.039,5.221,5.221,0,0,1-3.676,1.209c-2.148-.072-4.251-.984-4.359-3.465H74v-.009Z" transform="translate(-31.587 -10.122)" fill-rule="evenodd"/>
    <path id="Tracé_36412" data-name="Tracé 36412" d="M79.75,17.037c-.027-1-.854-1.281-2.615-1.624-2.112-.343-4.089-.975-4.089-3.131.018-2.3,2.211-3.4,4.521-3.14A6.179,6.179,0,0,1,80.63,10.3V12a5.955,5.955,0,0,0-2.849-1.426c-1.618-.289-3.092.352-3.092,1.543,0,1.119.827,1.4,2.669,1.75a9.184,9.184,0,0,1,2.894.83,2.806,2.806,0,0,1,.378.262,2.48,2.48,0,0,0-.881,2.075Z" transform="translate(-31.936 -3.98)" fill-rule="evenodd"/>
    <path id="Tracé_36413" data-name="Tracé 36413" d="M84.966,21.777c0-.054-.009-.1-.009-.153v-.045a2.473,2.473,0,0,1,.881-2.066,2.449,2.449,0,0,1,.881,2.066v.045a.877.877,0,0,1-.009.153,2.926,2.926,0,0,1-.872,2.039A2.888,2.888,0,0,1,84.966,21.777Z" transform="translate(-37.144 -8.531)"/>
    <path id="Tracé_36414" data-name="Tracé 36414" d="M33,34.485l.638-.848h-.908l-.386.848Zm1.052,3.609H31.866V37.2h2v-.713h-2V35.6h2.166v-.722H31.066v3.934h2.975v-.722h.009Zm-3.784.722-1.312-1.462a1.364,1.364,0,0,0,.818-.406,1.251,1.251,0,0,0-.081-1.723,1.488,1.488,0,0,0-1.016-.343H26.8v3.934h.791V37.372H28L29.3,38.816ZM27.588,36.65V35.6h1.078a.633.633,0,0,1,.44.144.506.506,0,0,1,0,.758.648.648,0,0,1-.44.144H27.588Zm8.933-1.859a1.634,1.634,0,0,0-1.087.334,1.055,1.055,0,0,0-.4.866,1.1,1.1,0,0,0,1.025,1.128l.827.162a.71.71,0,0,1,.351.153.357.357,0,0,1,.1.28.458.458,0,0,1-.18.361.844.844,0,0,1-.512.144.8.8,0,0,1-.881-.641l-.836.171a1.146,1.146,0,0,0,.53.866,1.985,1.985,0,0,0,1.105.3,1.781,1.781,0,0,0,1.132-.334,1.077,1.077,0,0,0,.422-.9,1.041,1.041,0,0,0-.27-.74,1.438,1.438,0,0,0-.755-.388l-.845-.171c-.261-.054-.4-.18-.4-.4a.424.424,0,0,1,.18-.343.732.732,0,0,1,.458-.144.782.782,0,0,1,.512.171.665.665,0,0,1,.261.442l.791-.162a1.331,1.331,0,0,0-.53-.83,1.526,1.526,0,0,0-1-.325Z" transform="translate(-11.716 -14.706)" fill-rule="evenodd"/>
    <path id="Tracé_36415" data-name="Tracé 36415" d="M49.433,35.849h-.791v3.934h.791Z" transform="translate(-21.267 -15.674)"/>
    <path id="Tracé_36416" data-name="Tracé 36416" d="M52.188,35.779v3.934h1.447a2.23,2.23,0,0,0,1.564-.541,2.01,2.01,0,0,0,0-2.851,2.23,2.23,0,0,0-1.564-.541Zm.791,3.212V36.5h.647a1.374,1.374,0,0,1,.98.334,1.172,1.172,0,0,1,.368.9,1.192,1.192,0,0,1-.368.911,1.389,1.389,0,0,1-.98.334h-.647Zm6.724,0H57.518V38.1h2v-.713h-2V36.5h2.175v-.722H56.727v3.934H59.7v-.722Zm4.7-3.212h-.791v2.6l-2.175-2.6h-.665v3.934h.8V37.187l2.166,2.526H64.4Zm3.047,3.275a1.187,1.187,0,0,1-.89-.379,1.29,1.29,0,0,1-.368-.929,1.268,1.268,0,0,1,.36-.929,1.184,1.184,0,0,1,.9-.37,1.151,1.151,0,0,1,.737.244,1.232,1.232,0,0,1,.422.731l.773-.217a1.851,1.851,0,0,0-.674-1.11,2.111,2.111,0,0,0-2.714.189,1.957,1.957,0,0,0-.593,1.462,2.072,2.072,0,0,0,3.316,1.642,1.91,1.91,0,0,0,.674-1.155l-.773-.162a1.121,1.121,0,0,1-1.168.984Zm5.886-.063H71.151V38.1h2v-.713h-2V36.5h2.175v-.722H70.361v3.934h2.975v-.722Zm2.507-3.3a1.634,1.634,0,0,0-1.087.334,1.055,1.055,0,0,0-.4.866,1.1,1.1,0,0,0,1.025,1.128l.827.162a.71.71,0,0,1,.351.153.357.357,0,0,1,.1.28.458.458,0,0,1-.18.361.844.844,0,0,1-.512.144.8.8,0,0,1-.881-.641l-.836.171a1.145,1.145,0,0,0,.53.866,1.985,1.985,0,0,0,1.105.3,1.781,1.781,0,0,0,1.132-.334,1.077,1.077,0,0,0,.422-.9,1.041,1.041,0,0,0-.27-.74,1.438,1.438,0,0,0-.755-.388l-.845-.171c-.261-.054-.4-.18-.4-.4a.425.425,0,0,1,.18-.343.732.732,0,0,1,.458-.144.782.782,0,0,1,.512.171.665.665,0,0,1,.261.442l.791-.162a1.331,1.331,0,0,0-.53-.83,1.526,1.526,0,0,0-1-.325Z" transform="translate(-22.817 -15.604)" fill-rule="evenodd"/>
    <path id="Tracé_36417" data-name="Tracé 36417" d="M189.309,39.062a1.232,1.232,0,0,0,.9-.37,1.356,1.356,0,0,0,0-1.859,1.192,1.192,0,0,0-.9-.379,1.206,1.206,0,0,0-.9.379,1.356,1.356,0,0,0,0,1.859A1.217,1.217,0,0,0,189.309,39.062Zm0-3.357a2.045,2.045,0,0,1,2.067,2.057,1.958,1.958,0,0,1-.6,1.453,2.067,2.067,0,0,1-3.532-1.453,1.966,1.966,0,0,1,.6-1.462A2,2,0,0,1,189.309,35.705Zm6.516,4.015h-.971l-1.294-1.444h-.414V39.72h-.791V35.786h1.878a1.472,1.472,0,0,1,1.016.343,1.251,1.251,0,0,1,.081,1.723,1.392,1.392,0,0,1-.818.406Zm-2.678-2.166h1.078a.634.634,0,0,0,.441-.144.506.506,0,0,0,0-.758.649.649,0,0,0-.441-.144h-1.078Z" transform="translate(-81.864 -15.611)"/>
    <path id="Tracé_36418" data-name="Tracé 36418" d="M177.719,35.7a2.045,2.045,0,0,0-2.067,2.057,1.96,1.96,0,0,0,.6,1.453,2.067,2.067,0,0,0,3.532-1.453,1.964,1.964,0,0,0-.6-1.462A2.01,2.01,0,0,0,177.719,35.7Zm0,3.357a1.232,1.232,0,0,1-.9-.37,1.356,1.356,0,0,1,0-1.859,1.192,1.192,0,0,1,.9-.379,1.206,1.206,0,0,1,.9.379,1.356,1.356,0,0,1,0,1.859A1.247,1.247,0,0,1,177.719,39.055Zm6.515.659-1.312-1.462a1.388,1.388,0,0,0,.818-.406,1.251,1.251,0,0,0-.081-1.723,1.488,1.488,0,0,0-1.015-.343h-1.879v3.934h.791V38.27h.414l1.294,1.444h.97Zm-2.678-2.166V36.5h1.079a.632.632,0,0,1,.44.144.505.505,0,0,1,0,.758.648.648,0,0,1-.44.144h-1.079Zm-19.224-1.859a1.634,1.634,0,0,0-1.087.334,1.055,1.055,0,0,0-.4.866,1.1,1.1,0,0,0,1.025,1.128l.827.162a.712.712,0,0,1,.351.153.358.358,0,0,1,.1.28.459.459,0,0,1-.18.361.826.826,0,0,1-.512.144.8.8,0,0,1-.881-.641l-.836.171a1.146,1.146,0,0,0,.531.866,1.984,1.984,0,0,0,1.105.3,1.737,1.737,0,0,0,1.123-.334,1.078,1.078,0,0,0,.423-.9,1.042,1.042,0,0,0-.27-.74,1.44,1.44,0,0,0-.755-.388l-.845-.171c-.261-.054-.4-.18-.4-.4a.424.424,0,0,1,.18-.343.731.731,0,0,1,.458-.144.781.781,0,0,1,.512.171.665.665,0,0,1,.261.442l.791-.162a1.332,1.332,0,0,0-.53-.83,1.485,1.485,0,0,0-.989-.325Zm5.545,3.3h-2.184V38.1h2v-.713h-2V36.5h2.175v-.722H164.9v3.934h2.974v-.722Z" transform="translate(-70.274 -15.604)" fill-rule="evenodd"/>
    <path id="Tracé_36419" data-name="Tracé 36419" d="M184.871,35.849h-.791v3.934h.791Z" transform="translate(-80.481 -15.674)"/>
    <path id="Tracé_36420" data-name="Tracé 36420" d="M146.8,35.779h-.791v2.59l-2.166-2.59h-.665v3.934h.791V37.187l2.166,2.526h.665Zm13.849-.09a1.634,1.634,0,0,0-1.087.334,1.055,1.055,0,0,0-.4.866,1.1,1.1,0,0,0,1.025,1.128l.827.162a.709.709,0,0,1,.351.153.356.356,0,0,1,.1.28.457.457,0,0,1-.18.361.825.825,0,0,1-.512.144.805.805,0,0,1-.881-.641l-.836.171a1.146,1.146,0,0,0,.53.866,1.986,1.986,0,0,0,1.105.3,1.736,1.736,0,0,0,1.123-.334,1.078,1.078,0,0,0,.423-.9,1.042,1.042,0,0,0-.27-.74,1.438,1.438,0,0,0-.755-.388l-.845-.171c-.261-.054-.4-.18-.4-.4a.424.424,0,0,1,.18-.343.733.733,0,0,1,.459-.144.782.782,0,0,1,.512.171.666.666,0,0,1,.261.442l.791-.162a1.332,1.332,0,0,0-.53-.83,1.484,1.484,0,0,0-.989-.325Zm-57.178,0a1.634,1.634,0,0,0-1.088.334,1.054,1.054,0,0,0-.4.866A1.1,1.1,0,0,0,103,38.017l.827.162a.709.709,0,0,1,.351.153.356.356,0,0,1,.1.28.459.459,0,0,1-.18.361.845.845,0,0,1-.513.144.805.805,0,0,1-.881-.641l-.836.171a1.146,1.146,0,0,0,.53.866,1.986,1.986,0,0,0,1.106.3,1.781,1.781,0,0,0,1.132-.334,1.077,1.077,0,0,0,.422-.9,1.039,1.039,0,0,0-.27-.74,1.436,1.436,0,0,0-.755-.388l-.845-.171c-.261-.054-.4-.18-.4-.4a.425.425,0,0,1,.18-.343.733.733,0,0,1,.459-.144.781.781,0,0,1,.512.171.664.664,0,0,1,.261.442l.791-.162a1.329,1.329,0,0,0-.53-.83,1.525,1.525,0,0,0-1-.325Zm5.545,3.3H106.84V38.1h2v-.713h-2V36.5h2.166v-.722h-2.966v3.934h2.975v-.722Zm4.5.722-1.312-1.462a1.363,1.363,0,0,0,.818-.406,1.251,1.251,0,0,0-.081-1.723,1.487,1.487,0,0,0-1.015-.343h-1.879v3.934h.791V38.27h.413l1.294,1.444Zm-2.678-2.166V36.5h1.078a.632.632,0,0,1,.44.144.505.505,0,0,1,0,.758.648.648,0,0,1-.44.144h-1.078Zm6.947-1.769h-.881l-1.2,2.869-1.2-2.869h-.881l1.69,3.934h.773Z" transform="translate(-44.538 -15.604)" fill-rule="evenodd"/>
    <path id="Tracé_36421" data-name="Tracé 36421" d="M132.123,35.849h-.791v3.934h.791Z" transform="translate(-57.42 -15.674)"/>
    <path id="Tracé_36422" data-name="Tracé 36422" d="M136.561,39.055a1.186,1.186,0,0,1-.89-.379,1.29,1.29,0,0,1-.369-.929,1.268,1.268,0,0,1,.36-.929,1.184,1.184,0,0,1,.9-.37,1.15,1.15,0,0,1,.737.244,1.231,1.231,0,0,1,.423.731l.773-.217a1.85,1.85,0,0,0-.674-1.11A2.069,2.069,0,1,0,136.57,39.8a1.973,1.973,0,0,0,1.258-.415,1.911,1.911,0,0,0,.674-1.155l-.782-.162a1.247,1.247,0,0,1-.414.74,1.175,1.175,0,0,1-.746.244Zm5.886-.063h-2.184V38.1h2v-.713h-2V36.5h2.175v-.722h-2.966v3.934h2.975v-.722Zm2.507-3.3a1.634,1.634,0,0,0-1.087.334,1.055,1.055,0,0,0-.4.866,1.1,1.1,0,0,0,1.025,1.128l.827.162a.712.712,0,0,1,.351.153.356.356,0,0,1,.1.28.457.457,0,0,1-.18.361.845.845,0,0,1-.512.144.8.8,0,0,1-.881-.641l-.836.171a1.144,1.144,0,0,0,.53.866,1.986,1.986,0,0,0,1.105.3,1.781,1.781,0,0,0,1.132-.334,1.078,1.078,0,0,0,.423-.9,1.042,1.042,0,0,0-.27-.74,1.44,1.44,0,0,0-.755-.388l-.845-.171c-.261-.054-.4-.18-.4-.4a.424.424,0,0,1,.18-.343.731.731,0,0,1,.458-.144.783.783,0,0,1,.513.171.666.666,0,0,1,.261.442l.791-.162a1.332,1.332,0,0,0-.53-.83,1.509,1.509,0,0,0-1-.325Z" transform="translate(-58.81 -15.604)" fill-rule="evenodd"/>
  </g>
</svg>
