<svg fill="#ffffff" id="Petits-fils" xmlns="http://www.w3.org/2000/svg" width="90.835" height="24.196" viewBox="0 0 90.835 24.196">
  <g id="image_4_" data-name="image (4)" transform="translate(0 0)">
    <path id="Tracé_35489" data-name="Tracé 35489" d="M2.254,45.5a1.918,1.918,0,0,0-.579-.114.537.537,0,0,0-.29.068.221.221,0,0,0-.106.2.272.272,0,0,0,.091.209.714.714,0,0,0,.227.136q.136.052.4.133a5.243,5.243,0,0,1,.655.227,1.142,1.142,0,0,1,.442.35.973.973,0,0,1,.185.617,1.053,1.053,0,0,1-.2.649,1.219,1.219,0,0,1-.551.4,2.144,2.144,0,0,1-.78.136,2.811,2.811,0,0,1-.942-.166,2.579,2.579,0,0,1-.812-.454l.386-.777a2.4,2.4,0,0,0,.681.419,1.866,1.866,0,0,0,.7.163.648.648,0,0,0,.351-.081.266.266,0,0,0,.128-.239.282.282,0,0,0-.1-.218.7.7,0,0,0-.239-.136q-.144-.052-.4-.123a4.888,4.888,0,0,1-.646-.22,1.138,1.138,0,0,1-.438-.337.928.928,0,0,1-.182-.6,1.048,1.048,0,0,1,.188-.619,1.191,1.191,0,0,1,.533-.409,2.072,2.072,0,0,1,.8-.144,2.905,2.905,0,0,1,.814.117A2.7,2.7,0,0,1,3.275,45l-.375.793a3.346,3.346,0,0,0-.647-.3ZM3.7,44.643h3v.794H4.693v.712H6.509v.787l-1.817.005v.718H6.759v.793H3.7Zm5.848,3.808L8.994,47.4H8.255v1.054H7.263V44.643H8.974a1.765,1.765,0,0,1,1.171.351,1.218,1.218,0,0,1,.416.986,1.5,1.5,0,0,1-.174.742,1.2,1.2,0,0,1-.505.486l.793,1.244ZM8.255,46.6h.722a.669.669,0,0,0,.47-.152.567.567,0,0,0,.166-.441.545.545,0,0,0-.166-.426.676.676,0,0,0-.47-.149H8.255Zm2.27-1.961h1.069l.951,2.754.956-2.754h1.021l-1.488,3.808H12Zm4.2,0h.995v3.808h-.995Zm3.882.921a1.054,1.054,0,0,0-.505-.139.987.987,0,0,0-.525.144,1.026,1.026,0,0,0-.372.4,1.232,1.232,0,0,0,0,1.124,1.026,1.026,0,0,0,.372.4.991.991,0,0,0,.525.144,1.151,1.151,0,0,0,.489-.119,1.549,1.549,0,0,0,.454-.326l.581.624a2.316,2.316,0,0,1-.736.519,2.044,2.044,0,0,1-1.867-.068,1.907,1.907,0,0,1-.717-.712,1.979,1.979,0,0,1-.261-1.01,1.9,1.9,0,0,1,1-1.7,2.164,2.164,0,0,1,1.877-.079,2.078,2.078,0,0,1,.7.48l-.576.7a1.42,1.42,0,0,0-.438-.372Zm1.286-.921h3v.794H20.883v.712H22.7v.787l-1.817.005v.718h2.064v.793H19.889Zm5.489.853a1.918,1.918,0,0,0-.579-.114.536.536,0,0,0-.29.068.221.221,0,0,0-.106.2.272.272,0,0,0,.091.209.71.71,0,0,0,.227.136q.136.052.4.133a5.211,5.211,0,0,1,.654.227,1.146,1.146,0,0,1,.443.35.973.973,0,0,1,.184.617,1.055,1.055,0,0,1-.2.649,1.22,1.22,0,0,1-.551.4,2.143,2.143,0,0,1-.779.136,2.81,2.81,0,0,1-.942-.166,2.58,2.58,0,0,1-.812-.454l.386-.777a2.393,2.393,0,0,0,.681.419,1.867,1.867,0,0,0,.7.163.648.648,0,0,0,.351-.081.266.266,0,0,0,.127-.239.282.282,0,0,0-.095-.218.7.7,0,0,0-.239-.136q-.144-.052-.4-.123a4.916,4.916,0,0,1-.647-.22,1.135,1.135,0,0,1-.437-.337.928.928,0,0,1-.182-.6,1.048,1.048,0,0,1,.188-.619,1.194,1.194,0,0,1,.533-.409,2.074,2.074,0,0,1,.8-.144,2.906,2.906,0,0,1,.815.117A2.707,2.707,0,0,1,26.4,45l-.375.793a3.346,3.346,0,0,0-.648-.3Zm5.359,2.955-.261-.673H28.831l-.266.673H27.544l1.635-3.808H30.2l1.6,3.808ZM29.13,47.017h1.054l-.521-1.358Zm3.831.441a.72.72,0,0,0,.538.218.674.674,0,0,0,.519-.214.817.817,0,0,0,.2-.579V44.644h.994v2.238a1.743,1.743,0,0,1-.209.866,1.416,1.416,0,0,1-.6.573,1.956,1.956,0,0,1-.908.2,1.989,1.989,0,0,1-.915-.2,1.437,1.437,0,0,1-.608-.573,1.7,1.7,0,0,1-.215-.867V44.644h.995v2.238A.79.79,0,0,0,32.961,47.457Zm2.466-2.814h1.157l.712,1.081.718-1.081h1.173l-1.255,1.82,1.362,1.988H38.1l-.81-1.181L36.5,48.451H35.339l1.352-1.939Zm7.816,1.863H44.1v1.516a2.546,2.546,0,0,1-.747.363,2.811,2.811,0,0,1-.839.139,2.1,2.1,0,0,1-1.04-.258,1.907,1.907,0,0,1-.731-.709,1.949,1.949,0,0,1-.267-1.01,1.881,1.881,0,0,1,.272-1,1.926,1.926,0,0,1,.755-.7,2.25,2.25,0,0,1,1.073-.256,2.459,2.459,0,0,1,.847.155,2.209,2.209,0,0,1,.718.416l-.565.7a1.59,1.59,0,0,0-.475-.31,1.349,1.349,0,0,0-.53-.114,1.045,1.045,0,0,0-.934.549,1.16,1.16,0,0,0-.141.57,1.186,1.186,0,0,0,.141.579,1.038,1.038,0,0,0,.391.4,1.074,1.074,0,0,0,.554.147,1.5,1.5,0,0,0,.658-.185Zm3.668,1.945L46.356,47.4h-.738v1.054h-.995V44.643h1.711a1.765,1.765,0,0,1,1.171.351,1.218,1.218,0,0,1,.416.986,1.5,1.5,0,0,1-.174.742,1.2,1.2,0,0,1-.505.486l.793,1.244ZM45.617,46.6h.723a.669.669,0,0,0,.47-.152.567.567,0,0,0,.166-.441.545.545,0,0,0-.166-.426.676.676,0,0,0-.47-.148h-.722ZM51.3,48.451l-.261-.673H49.4l-.267.673H48.108l1.635-3.808h1.023l1.6,3.808Zm-1.609-1.434h1.054l-.521-1.358Zm5.448-2.374h.923v3.808H55.2l-1.726-2.276v2.276h-.929V44.643h.874l1.733,2.292Zm4.226.239a1.751,1.751,0,0,1,.714.671,2.047,2.047,0,0,1,0,1.985,1.749,1.749,0,0,1-.727.673,2.346,2.346,0,0,1-1.078.239h-1.6V44.643h1.64a2.255,2.255,0,0,1,1.055.239Zm-.519,2.629a.924.924,0,0,0,.347-.386,1.261,1.261,0,0,0,.125-.57,1.206,1.206,0,0,0-.133-.576.973.973,0,0,0-.367-.388,1.028,1.028,0,0,0-.533-.136h-.624V47.65h.673a.962.962,0,0,0,.511-.139ZM62.622,45.5a1.921,1.921,0,0,0-.579-.114.538.538,0,0,0-.291.068.221.221,0,0,0-.106.2.273.273,0,0,0,.091.209.71.71,0,0,0,.227.136q.136.052.4.133a5.21,5.21,0,0,1,.654.227,1.146,1.146,0,0,1,.443.35.976.976,0,0,1,.184.617,1.055,1.055,0,0,1-.2.649,1.22,1.22,0,0,1-.551.4,2.144,2.144,0,0,1-.779.136,2.813,2.813,0,0,1-.943-.166,2.577,2.577,0,0,1-.812-.454l.386-.777a2.393,2.393,0,0,0,.681.419,1.867,1.867,0,0,0,.7.163.648.648,0,0,0,.351-.081.266.266,0,0,0,.128-.239.282.282,0,0,0-.095-.218.7.7,0,0,0-.239-.136q-.144-.052-.4-.123a4.908,4.908,0,0,1-.646-.22,1.135,1.135,0,0,1-.437-.337.926.926,0,0,1-.182-.6,1.048,1.048,0,0,1,.188-.619,1.194,1.194,0,0,1,.533-.409,2.074,2.074,0,0,1,.8-.144,2.905,2.905,0,0,1,.814.117,2.7,2.7,0,0,1,.707.313l-.375.793a3.356,3.356,0,0,0-.648-.3Zm1.354.978h1.44v.619h-1.44Zm4.79-1.48a1.239,1.239,0,0,1,.4.986,1.356,1.356,0,0,1-.4,1.045,1.6,1.6,0,0,1-1.13.372h-.679V48.45h-.995V44.642h1.673a1.666,1.666,0,0,1,1.131.352Zm-.709,1.459a.567.567,0,0,0,.166-.441.545.545,0,0,0-.166-.426.676.676,0,0,0-.471-.149h-.63V46.6h.63a.669.669,0,0,0,.47-.153Zm3.956,2-.261-.673H70.106l-.267.673H68.817l1.635-3.808h1.021l1.6,3.808Zm-1.606-1.434h1.054l-.521-1.358Zm5.08,1.434L74.932,47.4h-.739v1.054H73.2V44.643H74.91a1.764,1.764,0,0,1,1.171.351,1.218,1.218,0,0,1,.416.986,1.506,1.506,0,0,1-.173.742,1.207,1.207,0,0,1-.505.486l.793,1.244ZM74.193,46.6h.723a.671.671,0,0,0,.47-.152.568.568,0,0,0,.165-.441.545.545,0,0,0-.165-.426.678.678,0,0,0-.47-.149h-.723Zm2.787-1.961h3v.794h-2.01v.712H79.79v.787l-1.817.005v.718h2.064v.793H76.979Zm6.164,0h.923v3.808H83.2l-1.726-2.276v2.276h-.929V44.643h.874l1.733,2.292Zm1.147,0h3.265v.82H86.416v2.988h-1V45.463H84.29Zm5.476.853a1.92,1.92,0,0,0-.579-.114.538.538,0,0,0-.291.068.221.221,0,0,0-.106.2.273.273,0,0,0,.091.209.709.709,0,0,0,.227.136q.136.052.4.133a5.213,5.213,0,0,1,.654.227,1.146,1.146,0,0,1,.443.35.975.975,0,0,1,.184.617,1.055,1.055,0,0,1-.2.649,1.22,1.22,0,0,1-.551.4,2.144,2.144,0,0,1-.779.136,2.816,2.816,0,0,1-.943-.166,2.577,2.577,0,0,1-.812-.454l.386-.777a2.393,2.393,0,0,0,.681.419,1.867,1.867,0,0,0,.7.163.646.646,0,0,0,.351-.081.266.266,0,0,0,.128-.239.282.282,0,0,0-.095-.218.7.7,0,0,0-.239-.136q-.144-.052-.4-.123a4.908,4.908,0,0,1-.646-.22,1.135,1.135,0,0,1-.437-.337.926.926,0,0,1-.182-.6,1.048,1.048,0,0,1,.188-.619,1.193,1.193,0,0,1,.533-.409,2.074,2.074,0,0,1,.8-.144,2.905,2.905,0,0,1,.814.117A2.7,2.7,0,0,1,90.79,45l-.375.793a3.357,3.357,0,0,0-.648-.3Z" transform="translate(0.006 -24.329)"/>
    <g id="Groupe_1049" data-name="Groupe 1049" transform="translate(0.213 0)">
      <path id="Tracé_35490" data-name="Tracé 35490" d="M9.7,3.311A5.648,5.648,0,0,0,5.73,1.961H-.005V16.671H2.983V11.863H5.729a5.64,5.64,0,0,0,3.985-1.351A5.157,5.157,0,0,0,9.7,3.31ZM7.563,8.547a2.559,2.559,0,0,1-1.833.615H2.983v-4.5H5.729a2.56,2.56,0,0,1,1.833.615A2.138,2.138,0,0,1,8.21,6.9a2.164,2.164,0,0,1-.647,1.646Zm9.61-3.129a5.476,5.476,0,0,0-4.029,1.635,6.168,6.168,0,0,0-.011,8.356,5.432,5.432,0,0,0,4,1.625,6.009,6.009,0,0,0,3.228-.857,5.271,5.271,0,0,0,2.086-2.525L19.855,13.1a2.929,2.929,0,0,1-2.725,1.449,2.539,2.539,0,0,1-1.768-.692,3.24,3.24,0,0,1-.977-1.855h8.345v-.987a5.677,5.677,0,0,0-1.7-4.029,5.335,5.335,0,0,0-3.856-1.571Zm-2.7,4.545A2.452,2.452,0,0,1,15.495,8.47a2.943,2.943,0,0,1,1.68-.527,2.713,2.713,0,0,1,1.625.505,2.589,2.589,0,0,1,.966,1.515Zm39.908.308L51.768,9.7q-.989-.22-.988-.922a.988.988,0,0,1,.351-.758A1.678,1.678,0,0,1,52.274,7.7a2.344,2.344,0,0,1,1.438.417,1.833,1.833,0,0,1,.677,1.067l2.7-.631a3.588,3.588,0,0,0-1.533-2.237,5.435,5.435,0,0,0-3.2-.9,4.946,4.946,0,0,0-3.26,1.01,3.237,3.237,0,0,0-1.218,2.613,2.736,2.736,0,0,0,.8,2,4.374,4.374,0,0,0,2.295,1.119l2.239.461q1.208.263,1.208.988a.918.918,0,0,1-.461.79,2.232,2.232,0,0,1-1.252.307,2.267,2.267,0,0,1-2.444-1.613l-2.805.684a3.983,3.983,0,0,0,1.648,2.455,6.549,6.549,0,0,0,3.337.8,5.858,5.858,0,0,0,3.5-.945,3.153,3.153,0,0,0,1.306-2.725,2.849,2.849,0,0,0-.735-1.965,3.89,3.89,0,0,0-2.141-1.129Zm35.5,1.13a3.89,3.89,0,0,0-2.141-1.131L85.124,9.7q-.989-.22-.988-.922a.988.988,0,0,1,.351-.758A1.678,1.678,0,0,1,85.63,7.7a2.344,2.344,0,0,1,1.438.417,1.833,1.833,0,0,1,.677,1.067l2.7-.631a3.588,3.588,0,0,0-1.533-2.237,5.435,5.435,0,0,0-3.2-.9,4.947,4.947,0,0,0-3.26,1.01,3.237,3.237,0,0,0-1.218,2.613,2.736,2.736,0,0,0,.8,2,4.374,4.374,0,0,0,2.295,1.119l2.239.461q1.208.263,1.208.988a.919.919,0,0,1-.461.79,2.232,2.232,0,0,1-1.252.307,2.267,2.267,0,0,1-2.444-1.613l-2.805.684a3.983,3.983,0,0,0,1.648,2.455,6.548,6.548,0,0,0,3.337.8,5.858,5.858,0,0,0,3.5-.945,3.153,3.153,0,0,0,1.306-2.725,2.85,2.85,0,0,0-.735-1.963ZM76.653.874h2.9V16.683h-2.9ZM44.508,14.333q-1.6,0-1.6-1.888v-4.2h3.481V5.78H42.906V2.507h-2.9V5.78H36.333A3.045,3.045,0,0,0,33.29,8.823v7.854h2.882V9.208a.963.963,0,0,1,.963-.962H40.01v4.419a4.329,4.329,0,0,0,1.142,3.283,4.4,4.4,0,0,0,3.162,1.087,12.456,12.456,0,0,0,2.894-.578l-.76-2.432a7.852,7.852,0,0,1-1.94.31Zm-14.87,0q-1.6,0-1.6-1.888v-4.2h3.633V5.78H28.036V2.507h-2.9V5.78h-2.3V8.244h2.3v4.421a4.329,4.329,0,0,0,1.142,3.283,4.4,4.4,0,0,0,3.162,1.087,12.454,12.454,0,0,0,2.894-.578l-.759-2.432a7.852,7.852,0,0,1-1.937.309ZM71.84,5.78H66.909V4.939a1.482,1.482,0,0,1,.461-1.174A1.793,1.793,0,0,1,68.6,3.359H70V.852s-.908.034-1.6.034A4.441,4.441,0,0,0,65.208,1.91a3.951,3.951,0,0,0-1.2,3.03V5.78H58.376V8.246H64.01v8.44h2.9V8.245h4.133A.962.962,0,0,1,72,9.208v7.464h2.882V8.824A3.043,3.043,0,0,0,71.84,5.78Z" transform="translate(0.005 -0.465)"/>
      <circle id="Ellipse_82" data-name="Ellipse 82" cx="2.042" cy="2.042" r="2.042" transform="translate(32.717)"/>
      <circle id="Ellipse_83" data-name="Ellipse 83" cx="2.042" cy="2.042" r="2.042" transform="translate(71.403)"/>
    </g>
  </g>
</svg>
