<svg fill="#ffffff" xmlns="http://www.w3.org/2000/svg" width="30" height="30" viewBox="0 0 79.63 79.775">
  <path id="Tel" d="M49.881,15.942A18.052,18.052,0,0,1,64.142,30.2M49.881,1.5a32.494,32.494,0,0,1,28.7,28.667m-3.61,28.812V69.81A7.221,7.221,0,0,1,67.1,77.031,71.452,71.452,0,0,1,35.944,65.947,70.4,70.4,0,0,1,14.281,44.284,71.451,71.451,0,0,1,3.2,12.981,7.221,7.221,0,0,1,10.382,5.11H21.213a7.221,7.221,0,0,1,7.221,6.21,46.357,46.357,0,0,0,2.527,10.145,7.221,7.221,0,0,1-1.625,7.618l-4.585,4.585A57.768,57.768,0,0,0,46.415,55.332L51,50.747a7.221,7.221,0,0,1,7.618-1.625A46.358,46.358,0,0,0,68.763,51.65,7.221,7.221,0,0,1,74.974,58.979Z" transform="translate(-1.165 0.709)" fill="none" stroke="#ffffff" stroke-linecap="round" stroke-linejoin="round" stroke-width="4"/>
</svg>
