<svg fill="#ffffff" xmlns="http://www.w3.org/2000/svg" width="40.434" height="40.434" viewBox="0 0 40.434 40.434">
  <g id="Twitter" transform="translate(1 1)">
    <circle id="Ellipse_5" data-name="Ellipse 5" cx="19.217" cy="19.217" r="19.217" transform="translate(0 0)" fill="none" stroke="#ffffff" stroke-width="2"/>
    <g id="layer1" transform="translate(9.609 11.356)">
      <path id="path3611" d="M546.223,585.476a11.142,11.142,0,0,0,11.218-11.218q0-.256-.011-.51a8.02,8.02,0,0,0,1.967-2.042,7.863,7.863,0,0,1-2.264.621,3.956,3.956,0,0,0,1.734-2.181,7.9,7.9,0,0,1-2.5.957,3.946,3.946,0,0,0-6.719,3.6,11.2,11.2,0,0,1-8.127-4.119,3.946,3.946,0,0,0,1.221,5.264,3.915,3.915,0,0,1-1.786-.493c0,.017,0,.033,0,.05a3.944,3.944,0,0,0,3.163,3.865,3.938,3.938,0,0,1-1.781.068,3.947,3.947,0,0,0,3.683,2.739,7.91,7.91,0,0,1-4.9,1.688,8.006,8.006,0,0,1-.94-.055,11.16,11.16,0,0,0,6.044,1.771" transform="translate(-540.179 -569.858)"/>
    </g>
  </g>
</svg>
