<svg fill="#ffffff" xmlns="http://www.w3.org/2000/svg" width="40.434" height="40.434" viewBox="0 0 40.434 40.434">
  <g id="Youtube" transform="translate(1 1)">
    <circle id="Ellipse_4" data-name="Ellipse 4" cx="19.217" cy="19.217" r="19.217" transform="translate(0 0)" fill="none" stroke="#ffffff" stroke-width="2"/>
    <path id="noun-youtube-5288426" d="M62.513,216.233a2.633,2.633,0,0,0-2.413,2.532c-.054,1.1-.1,2.374-.1,3.25s.052,2.176.106,3.288a2.628,2.628,0,0,0,2.37,2.524c1.459.135,3.571.27,6.159.27s4.689-.135,6.147-.269a2.636,2.636,0,0,0,2.377-2.536c.056-1.171.111-2.511.111-3.277s-.054-2.077-.109-3.239a2.641,2.641,0,0,0-2.419-2.544c-1.437-.113-3.509-.223-6.107-.223s-4.681.111-6.118.224Zm4.391,3.219,4.452,2.563L66.9,224.578Z" transform="translate(-49.414 -202.836)" fill-rule="evenodd"/>
  </g>
</svg>
