<svg width="232" height="234" viewBox="0 0 232 234" fill="none" xmlns="http://www.w3.org/2000/svg">
<g id="Frame" clip-path="url(#clip0_942_445)">
<g id="Group">
<g id="Layer 1">
<path id="Vector" d="M232.004 188.928C232.004 101.121 160.94 94.3525 151.888 61.9236C142.836 29.4948 151.888 187.67 151.888 187.67L232.004 188.928Z" fill="#EADBF2"/>
<path id="Vector_2" d="M151.888 61.9236C151.874 61.8608 151.856 61.801 151.841 61.7372C144.78 30.8294 91.5 37.2136 91.5 37.2136C77.8198 38.4621 67.6598 41.5224 60.1275 45.2496C48.2316 51.1363 40.3926 61.9155 38.862 74.0293C37.9685 81.1229 34.305 91.737 22.5104 95.5726C-0.456323 103.046 7.60448 120.109 9.85698 126.087C11.8183 131.294 22.9001 137.453 6.76025 150.925C-9.37961 164.397 8.44871 187.465 8.44871 187.465L151.888 187.668V61.9236Z" fill="#EADBF2"/>
<path id="Vector_3" d="M150.752 111.762C150.604 111.288 152.68 110.913 152.792 110.435C152.905 109.957 150.174 109.908 150.077 109.486C149.899 108.71 153.071 109.334 153.01 108.972C152.949 108.609 149.707 107.785 150.059 107.165C150.411 106.545 153.34 108.407 153.43 107.986C153.521 107.564 150.566 106.524 150.622 105.598C150.652 105.104 155.468 108.085 156.029 107.818C156.589 107.552 155.436 105.22 155.882 104.88C156.328 104.539 157.591 109.615 157.899 109.785C158.206 109.956 164.712 114.112 167.026 114.778C167.31 113.917 169.349 109.351 169.6 108.536C170.898 109.57 172.407 109.8 173.748 110.742C172.766 113.447 169.401 120.1 168.722 120.438C166.654 121.465 158.693 114.082 157.103 112.817C155.513 111.553 154.598 111.957 153.521 111.555C152.444 111.152 150.899 112.237 150.752 111.762Z" fill="#FDBAA0"/>
<path id="Vector_4" d="M187.357 147.546L186.627 146.864C189.309 143.379 190.783 136.737 190.892 127.657C190.932 123.339 190.707 119.023 190.219 114.739L191.169 114.592C191.662 118.925 191.887 123.29 191.846 127.657C191.797 131.779 191.472 135.438 190.879 138.534C190.133 142.448 188.946 145.48 187.357 147.546Z" fill="#13375B"/>
<path id="Vector_5" d="M184.057 102.583C184.505 102.583 201.741 101.469 202.037 103.953C202.333 106.438 202.933 125.842 199.947 126.503C196.961 127.164 182.475 124.181 182.475 124.181L184.057 102.583Z" fill="#38516B"/>
<path id="Vector_6" d="M172.508 113.905C172.508 113.905 176.91 110.366 178.24 107.831C179.571 105.295 177.334 106.947 175.046 106.28C174.182 106.027 174.4 100.449 172.764 102.262C170.081 105.237 167.89 111.146 167.89 111.146L172.508 113.905Z" fill="#710FAA"/>
<path id="Vector_7" d="M179.09 99.7015C179.09 99.7015 183.731 98.6881 185.844 100.64C187.957 102.592 185.388 119.894 185.393 122.765C185.399 125.636 186.847 133.741 186.847 133.741C186.847 133.741 172.782 136.449 170.547 132.141C170.547 132.141 169.909 115.731 170.006 113.668C170.104 111.605 172.187 103.164 172.763 102.261C173.338 101.358 179.09 99.7015 179.09 99.7015Z" fill="#710FAA"/>
<path id="Vector_8" d="M175.775 96.5693C175.973 97.6657 176.166 98.7348 176.308 99.5192C176.383 99.9245 174.835 103.795 175.669 103.954C178.487 104.488 181.285 100.175 180.752 98.7338L179.729 95.9531L175.775 96.5693Z" fill="#FDBAA0"/>
<path id="Vector_9" d="M176.278 85.7762C176.278 85.7762 178.267 85.5228 179.515 87.2962C180.763 89.0696 182.106 94.5459 179.008 97.5242C175.911 100.502 173.466 97.207 173.012 93.6328C172.559 90.0587 171.766 85.6465 176.278 85.7762Z" fill="#FDBAA0"/>
<path id="Vector_10" d="M158.512 119.35L171.513 115.873C171.513 115.873 176.111 109.083 180.539 103.237C181.901 104.656 182.685 106.877 184.057 108.287L174.314 120.65C174.139 120.871 173.925 121.049 173.685 121.173C173.445 121.298 173.185 121.366 172.92 121.373L159.08 121.737L158.512 119.35Z" fill="#FDBAA0"/>
<path id="Vector_11" d="M179.068 115.408C179.068 115.408 185.249 109.81 186.58 107.275C187.911 104.741 186.924 100.495 184.64 99.8269C182.355 99.1591 174.899 110.634 174.899 110.634L179.068 115.408Z" fill="#710FAA"/>
<path id="Vector_12" d="M149.669 120.793C149.532 120.561 149.875 120.17 150.131 119.875C150.415 119.55 152.139 118.731 152.428 118.633C152.718 118.534 155.228 118.923 156.189 119.269C157.149 119.615 157.78 119.472 157.78 119.472C158.032 119.415 158.411 119.339 158.705 119.269L159.306 121.733C157.053 121.701 154.697 121.886 154.484 121.879C153.807 121.86 152.567 121.081 152.278 120.967C151.988 120.854 151.408 120.943 151.016 121.146C150.625 121.348 149.484 121.828 149.292 121.716C149.101 121.605 149.669 120.793 149.669 120.793Z" fill="#F7A491"/>
<path id="Vector_13" d="M179.974 91.9621C179.798 92.8823 180.131 93.7416 180.72 93.8804C181.308 94.0193 181.927 93.3859 182.103 92.4617C182.279 91.5375 181.946 90.6822 181.358 90.5434C180.771 90.4046 180.15 91.042 179.974 91.9621Z" fill="#FDBAA0"/>
<path id="Vector_14" d="M162.226 173.238C162.226 173.238 166.495 178.87 166.523 179.361C166.552 179.851 166.354 185.2 165.846 185.689C165.339 186.178 163.847 186.527 164.327 187.078C164.692 187.495 167.477 187.406 169.324 187.294C169.864 187.262 170.541 182.531 170.755 181.83C171.065 180.817 171.819 178.542 171.537 177.837C171.4 177.494 170.742 176.789 169.815 176.13C168.841 175.438 165.112 169.73 165.112 169.73L162.226 173.238Z" fill="#F48C7F"/>
<path id="Vector_15" d="M169.76 176.098C169.76 176.098 166.893 184.979 165.77 185.407C165.473 185.521 164.043 185.813 163.773 186.506C163.692 186.715 163.773 187.418 163.773 187.418H169.749C169.749 187.418 170.504 183.505 170.803 181.786C170.803 181.786 172.385 177.585 172.209 177.203C172.034 176.821 169.76 176.098 169.76 176.098Z" fill="#466EB6"/>
<path id="Vector_16" d="M136.653 175.943C136.653 175.943 133.167 181.344 133.473 183.053C133.638 183.965 134.369 185.165 133.949 186.026C133.529 186.887 133.05 187.102 133.05 187.102L122.174 187.295C121.582 187.305 121.973 186.889 122.448 186.5C123.23 185.869 123.861 185.452 126.359 184.125C126.521 184.039 127.115 183.625 127.328 183.481C127.87 183.118 128.415 182.545 128.88 181.973C129.66 181.018 133.094 173.238 133.094 173.238L136.653 175.943Z" fill="#F7A491"/>
<path id="Vector_17" d="M127.333 183.48C130.209 184.291 132.335 183.74 133.525 183.213C133.831 184.167 134.238 185.365 134.022 186.055C133.758 186.902 133.383 187.092 133.05 187.102C130.423 187.178 123.427 187.281 121.423 187.305C121.361 187.306 121.3 187.288 121.247 187.252C121.194 187.216 121.151 187.163 121.124 187.101C121.097 187.038 121.087 186.969 121.095 186.9C121.104 186.831 121.129 186.767 121.17 186.714C121.666 186.068 127.118 183.624 127.333 183.48Z" fill="#466EB6"/>
<path id="Vector_18" d="M149.264 142.625C149.264 142.625 153.581 148.046 154.682 148.908C155.784 149.769 166.35 171.176 166.35 171.176L162.586 174.2C162.586 174.2 153.142 161.244 148.706 154.313C144.957 148.454 146.337 148.825 144.132 145.258C143.543 144.31 143.286 143.156 143.407 142.013C143.529 140.87 144.022 139.815 144.794 139.046C144.993 138.848 145.21 138.641 145.445 138.425C148.71 135.432 171.085 132.062 171.085 132.062L185.398 133.605C185.398 133.605 173.704 142.624 173.267 142.867C172.83 143.11 157.12 145.628 156.792 145.628C156.465 145.628 149.264 142.625 149.264 142.625Z" fill="#EAB054"/>
<path id="Vector_19" d="M186.851 133.741C186.851 133.741 189.305 141.848 185.623 145.626C181.942 149.404 160.068 148.987 152.864 148.987C152.864 148.987 149.918 157.871 149.591 159.312C149.263 160.753 134.97 179.36 134.97 179.36L131.046 176.599C131.046 176.599 146.43 143.705 147.63 142.265C148.83 140.825 165.957 135.062 170.215 133.741C174.472 132.421 186.851 133.741 186.851 133.741Z" fill="#F7CC7F"/>
<path id="Vector_20" d="M119.934 102.801H141.479C141.757 102.8 142.028 102.891 142.26 103.062C142.491 103.233 142.671 103.476 142.778 103.76L149.413 121.563H161.29C161.449 121.563 161.601 121.632 161.714 121.756C161.827 121.879 161.891 122.048 161.892 122.224C161.891 122.311 161.876 122.398 161.845 122.478C161.815 122.559 161.77 122.632 161.714 122.693C161.659 122.755 161.592 122.803 161.52 122.836C161.447 122.869 161.369 122.886 161.29 122.886H127.485C127.032 122.887 126.588 122.743 126.206 122.471C125.824 122.199 125.521 121.811 125.332 121.353L118.653 104.98C118.557 104.743 118.517 104.484 118.536 104.226C118.554 103.968 118.631 103.719 118.758 103.502C118.886 103.285 119.06 103.108 119.265 102.985C119.471 102.862 119.701 102.799 119.934 102.801Z" fill="#38516B"/>
<path id="Vector_21" d="M131.535 113.166C131.68 113.966 132.315 114.501 132.951 114.361C133.587 114.221 133.985 113.459 133.84 112.659C133.695 111.86 133.06 111.325 132.423 111.465C131.786 111.604 131.389 112.369 131.535 113.166Z" fill="white"/>
<path id="Vector_22" d="M68.4066 187.691H66.7646L70.2639 153.919H71.9058L68.4066 187.691Z" fill="#38516B"/>
<path id="Vector_23" d="M86.9406 187.692H88.5825L85.0833 153.92H83.4414L86.9406 187.692Z" fill="#38516B"/>
<path id="Vector_24" d="M40.5921 187.691H38.9502L42.4503 153.919H44.0922L40.5921 187.691Z" fill="#38516B"/>
<path id="Vector_25" d="M59.1272 187.692H60.7691L57.2698 153.92H55.6279L59.1272 187.692Z" fill="#38516B"/>
<path id="Vector_26" d="M67.1649 157.589H44.7695C42.1456 157.589 39.8 155.227 39.5307 152.313L35.8298 112.176C35.5615 109.262 37.4726 106.899 40.0957 106.899H62.4911C65.115 106.899 67.4615 109.262 67.7299 112.176L71.4308 152.313C71.6991 155.227 69.7898 157.589 67.1649 157.589Z" fill="#710FAA"/>
<path id="Vector_27" d="M73.3792 157.589H50.9875C48.3626 157.589 46.017 155.227 45.7487 152.313L42.0477 112.176C41.7785 109.262 43.6906 106.899 46.3136 106.899H68.7081C71.333 106.899 73.6785 109.262 73.9478 112.176L77.6478 152.313C77.917 155.227 76.0068 157.589 73.3792 157.589Z" fill="#710FAA"/>
<path id="Vector_28" d="M76.3841 159.438H44.6419C42.1823 159.438 39.9873 157.225 39.7326 154.494C39.4807 151.758 41.2705 149.549 43.7302 149.549H75.4723C77.9366 149.549 80.127 151.763 80.3816 154.494C80.6335 157.225 78.8438 159.438 76.3841 159.438Z" fill="#710FAA"/>
<path id="Vector_29" d="M84.3072 159.438H52.5696C50.1054 159.438 47.9149 157.225 47.6594 154.494C47.4075 151.758 49.1973 149.549 51.6569 149.549H83.4C85.8642 149.549 88.0547 151.763 88.3093 154.494C88.5566 157.225 86.7669 159.438 84.3072 159.438Z" fill="#710FAA"/>
<path id="Vector_30" d="M90.3777 118.855C90.5246 118.381 88.4483 118.007 88.336 117.528C88.2238 117.049 90.9554 117.001 91.0513 116.579C91.2338 115.803 88.0577 116.428 88.1188 116.065C88.18 115.701 91.4227 114.879 91.0695 114.258C90.7163 113.636 87.7839 115.501 87.6981 115.079C87.6123 114.656 90.5621 113.617 90.5064 112.691C90.4763 112.196 85.66 115.179 85.0997 114.911C84.5393 114.644 85.6929 112.314 85.2466 111.973C84.8003 111.631 83.5371 116.707 83.2296 116.877C82.922 117.047 76.4164 121.204 74.1028 121.87C73.818 121.009 71.78 116.443 71.529 115.628C70.2302 116.661 68.7216 116.891 67.3809 117.835C68.3629 120.539 71.727 127.193 72.4061 127.531C74.4742 128.558 82.4355 121.175 84.0254 119.91C85.6153 118.646 86.5307 119.049 87.6077 118.647C88.6847 118.244 90.2298 119.327 90.3777 118.855Z" fill="#FDBAA0"/>
<path id="Vector_31" d="M70.1714 97.315C70.2681 94.7359 69.9258 92.1903 68.8872 89.7897C67.9928 87.7244 65.7841 86.5469 63.7643 86.5469C57.3591 86.5378 56.5441 95.9347 52.4672 99.5586C51.2213 100.668 49.8332 101.57 48.6467 102.765C44.2932 107.175 46.2545 115.339 50.2512 119.205C53.0275 121.887 57.3874 123.414 60.8063 121.315C62.5906 120.22 63.946 118.4 64.9134 116.406C66.2824 113.575 67.1659 110.31 68.1406 107.295C69.1747 104.084 70.0436 100.742 70.1714 97.315Z" fill="#38516B"/>
<path id="Vector_32" d="M67.775 121.047C67.775 121.047 62.9908 115.601 61.7605 113.235C60.5302 110.869 62.5983 112.41 64.7121 111.787C65.5125 111.552 65.3099 106.343 66.8231 108.038C69.3056 110.815 72.4261 115.671 72.4261 115.671L67.775 121.047Z" fill="#710FAA"/>
<path id="Vector_33" d="M60.9741 105.648C60.9741 105.648 56.6845 104.707 54.7222 106.524C52.7599 108.341 55.142 124.498 55.1393 127.177C55.1366 129.855 53.7949 137.423 53.7949 137.423C53.7949 137.423 66.8061 139.951 68.8724 135.931C68.8724 135.931 69.4611 120.612 69.3735 118.686C69.2859 116.759 67.3555 108.881 66.8235 108.037C66.2914 107.193 60.9741 105.648 60.9741 105.648Z" fill="#710FAA"/>
<path id="Vector_34" d="M60.9462 98.2754C60.9462 98.2754 60.9243 98.4173 60.8832 98.6595C60.6888 99.8238 59.9386 103.683 59.432 104.74C58.8205 106.022 61.5312 110.111 64.1342 109.612C64.9099 109.464 63.4779 105.854 63.5473 105.472C63.6787 104.741 63.8576 103.743 64.0402 102.719C64.1433 102.141 64.2473 101.556 64.3459 101.005C64.6243 99.4418 64.8515 98.168 64.8515 98.168L60.9462 98.2754Z" fill="#FDBAA0"/>
<path id="Vector_35" d="M63.5761 88.4394C63.5761 88.4394 61.7352 88.2033 60.5816 89.8581C59.4279 91.5129 58.1839 96.6254 61.0507 99.4061C63.9174 102.187 66.7485 99.0392 67.1656 95.7022C67.5827 92.3652 67.7516 88.3188 63.5761 88.4394Z" fill="#FDBAA0"/>
<path id="Vector_36" d="M68.0164 95.6493C67.6742 96.387 67.1038 96.7944 66.7332 96.5613C66.3627 96.3282 66.3517 95.5479 66.6894 94.8061C67.0271 94.0644 67.6021 93.661 67.9726 93.8941C68.3432 94.1272 68.3596 94.9146 68.0164 95.6493Z" fill="#FDBAA0"/>
<path id="Vector_37" d="M63.7822 87.8916C63.7822 87.8916 61.318 92.7557 59.5638 92.9787C57.8096 93.2016 57.5732 95.7878 57.5732 95.7878C57.5732 95.7878 58.2021 89.8332 59.9462 88.685C61.6903 87.5369 63.7822 87.8916 63.7822 87.8916Z" fill="#38516B"/>
<path id="Vector_38" d="M60.0251 94.2007C60.1684 95.0641 59.8809 95.8565 59.3862 95.969C58.8915 96.0815 58.3685 95.4745 58.2253 94.6111C58.082 93.7477 58.3704 92.9552 58.8641 92.8417C59.3579 92.7282 59.8827 93.3373 60.0251 94.2007Z" fill="#FDBAA0"/>
<path id="Vector_39" d="M76.5746 174.293C76.5746 174.293 72.6255 179.55 72.5999 180.008C72.5743 180.466 72.756 185.459 73.226 185.916C73.696 186.373 75.076 186.699 74.6324 187.213C74.2966 187.602 71.7173 187.517 70.0079 187.416C69.5086 187.386 68.8835 182.965 68.6854 182.316C68.3988 181.372 67.7006 179.246 67.9617 178.589C68.0885 178.268 68.6973 177.61 69.5543 176.995C70.456 176.348 73.9041 171.016 73.9041 171.016L76.5746 174.293Z" fill="#FDBAA0"/>
<path id="Vector_40" d="M69.6104 176.963C69.6104 176.963 72.2627 185.253 73.3004 185.654C73.5742 185.755 74.8985 186.03 75.1486 186.679C75.2234 186.875 75.1486 187.528 75.1486 187.528H69.6205C69.6205 187.528 68.9214 183.875 68.6448 182.27C68.6448 182.27 67.1845 178.348 67.3442 177.992C67.504 177.637 69.6104 176.963 69.6104 176.963Z" fill="#710FAA"/>
<path id="Vector_41" d="M100.231 176.82C100.231 176.82 103.457 181.862 103.173 183.456C103.022 184.31 102.345 185.428 102.733 186.231C103.121 187.035 103.565 187.237 103.565 187.237L113.626 187.416C114.174 187.426 113.809 187.035 113.37 186.675C112.647 186.085 112.063 185.696 109.753 184.458C109.602 184.377 109.053 183.991 108.855 183.857C108.353 183.518 107.851 182.983 107.416 182.447C106.693 181.557 103.517 174.295 103.517 174.295L100.231 176.82Z" fill="#F7A491"/>
<path id="Vector_42" d="M108.854 183.855C106.194 184.611 104.227 184.097 103.127 183.605C102.844 184.496 102.467 185.614 102.67 186.258C102.915 187.048 103.262 187.226 103.569 187.235C106 187.306 112.471 187.403 114.325 187.429C114.383 187.43 114.44 187.412 114.489 187.378C114.538 187.344 114.577 187.295 114.602 187.237C114.626 187.179 114.635 187.114 114.628 187.05C114.621 186.987 114.597 186.927 114.56 186.878C114.097 186.27 109.053 183.989 108.854 183.855Z" fill="#F7CC7F"/>
<path id="Vector_43" d="M88.5657 145.718C88.5657 145.718 84.5727 150.778 83.5542 151.58C82.5356 152.382 72.7599 172.368 72.7599 172.368L76.2427 175.19C76.2427 175.19 84.9789 163.096 89.0777 156.627C92.5459 151.154 91.2681 151.503 93.3098 148.173C93.8547 147.287 94.0927 146.212 93.98 145.146C93.8673 144.081 93.4114 143.096 92.6965 142.374C92.514 142.189 92.3135 141.996 92.095 141.795C89.075 139 68.3763 135.855 68.3763 135.855L55.1396 137.3C55.1396 137.3 65.9568 145.722 66.3656 145.946C66.7745 146.17 81.3035 148.523 81.6074 148.523C81.9113 148.523 88.5657 145.718 88.5657 145.718Z" fill="#38516B"/>
<path id="Vector_44" d="M53.7956 137.423C53.7956 137.423 51.5239 144.988 54.9309 148.517C58.338 152.047 78.5694 151.659 85.232 151.659C85.232 151.659 87.9572 159.951 88.2602 161.296C88.5633 162.641 101.784 180.012 101.784 180.012L105.419 177.434C105.419 177.434 91.1909 146.723 90.082 145.38C88.9731 144.037 73.1253 138.656 69.1889 137.423C65.2525 136.19 53.7956 137.423 53.7956 137.423Z" fill="#38516B"/>
<path id="Vector_45" d="M79.9631 121.154C80.1109 120.679 78.0337 120.305 77.9214 119.826C77.8091 119.346 80.5408 119.299 80.6375 118.878C80.8146 118.101 77.643 118.726 77.7051 118.363C77.7671 118 81.0081 117.177 80.6558 116.555C80.3035 115.934 77.3701 117.799 77.2789 117.376C77.1876 116.954 80.1429 115.915 80.0872 114.99C80.0571 114.494 75.2408 117.477 74.6805 117.21C74.1201 116.944 75.2746 114.612 74.8274 114.271C74.3802 113.931 73.1179 119.006 72.8113 119.177C72.5046 119.348 65.9981 123.503 63.6799 124.17C63.3961 123.307 61.3571 118.742 61.1061 117.927C59.8074 118.96 58.2987 119.191 56.958 120.134C57.9401 122.838 61.3051 129.492 61.9841 129.83C64.0514 130.857 72.0127 123.474 73.6026 122.209C75.1925 120.944 76.1079 121.349 77.1858 120.946C78.2636 120.544 79.8152 121.628 79.9631 121.154Z" fill="#FDBAA0"/>
<path id="Vector_46" d="M56.3409 120.857C56.3409 120.857 53.5235 113.923 53.0954 111.23C52.6674 108.538 54.7474 105.161 56.9287 105.379C59.11 105.597 62.3719 117.569 62.3719 117.569L56.3409 120.857Z" fill="#710FAA"/>
<path id="Vector_47" d="M100.356 187.475H166.089V123.803H100.356V187.475Z" fill="#F2F2F2"/>
<path id="Vector_48" d="M203.889 124.775H166.034V187.543H203.889V124.775Z" fill="white"/>
<g id="Vector_49" style="mix-blend-mode:multiply" opacity="0.5">
<path d="M162.394 187.541H166.034V124.774H162.394V187.541Z" fill="#38516B"/>
</g>
<path id="Vector_50" d="M95.7302 124.775L208.169 124.775V122.832L95.7302 122.832V124.775Z" fill="#710FAA"/>
<path id="Vector_51" d="M232 187.043H3.02441V188.928H232V187.043Z" fill="#38516B"/>
<path id="Vector_52" d="M180.406 91.089L180.266 91.1052C180.223 91.1105 180.181 91.1061 180.14 91.0924C180.099 91.0786 180.062 91.0557 180.029 91.0251C179.997 90.9945 179.971 90.9569 179.952 90.9145C179.933 90.8722 179.923 90.826 179.921 90.7789C179.889 90.0077 179.721 88.3022 178.858 88.4309C177.748 88.5981 173.771 90.0736 172.275 89.1646C170.837 88.291 170.586 86.1326 171.31 85.0097C171.333 84.9733 171.368 84.948 171.407 84.939C171.446 84.9299 171.487 84.9378 171.521 84.9611L171.692 85.0807C171.718 85.0989 171.748 85.108 171.779 85.1069C171.81 85.1058 171.84 85.0945 171.865 85.0745C171.89 85.0544 171.909 85.0265 171.919 84.9944C171.93 84.9623 171.931 84.9274 171.924 84.8942C171.916 84.8623 171.917 84.8287 171.927 84.7975C171.936 84.7662 171.954 84.7388 171.977 84.7184C172.001 84.6981 172.029 84.6858 172.058 84.683C172.088 84.6802 172.118 84.687 172.144 84.7027C172.6 84.9702 173.588 85.2418 175.473 84.5C178.153 83.4431 180.319 83.5049 181.324 85.3371C181.338 85.3642 181.359 85.3865 181.383 85.4017C181.408 85.4169 181.436 85.4244 181.464 85.4233C181.492 85.4223 181.52 85.4127 181.543 85.3958C181.567 85.3788 181.586 85.355 181.598 85.3269C181.714 85.0908 181.971 84.8507 182.538 84.9621C183.526 85.1567 184.09 86.9412 183.323 89.2C183.314 89.2248 183.311 89.2515 183.313 89.278C183.315 89.3046 183.322 89.3302 183.335 89.3529C183.348 89.3756 183.365 89.3946 183.385 89.4086C183.406 89.4225 183.429 89.4309 183.453 89.4331C183.818 89.4554 184.447 89.6571 183.741 90.9167C183.011 92.2209 182.196 92.6749 181.864 92.8137C181.844 92.8218 181.823 92.8253 181.802 92.8242C181.781 92.823 181.761 92.8171 181.742 92.8069C181.723 92.7966 181.707 92.7822 181.693 92.7646C181.679 92.747 181.669 92.7264 181.663 92.7043L181.138 90.864C181.132 90.8392 181.12 90.8164 181.105 90.7973C181.089 90.7782 181.07 90.7631 181.048 90.7534C181.027 90.7437 181.004 90.7394 180.981 90.741C180.957 90.7426 180.935 90.75 180.915 90.7627L180.406 91.089Z" fill="#38516B"/>
</g>
</g>
</g>
<defs>
<clipPath id="clip0_942_445">
<rect width="232" height="233" fill="white" transform="translate(0 0.5)"/>
</clipPath>
</defs>
</svg>
