<svg width="215" height="202" viewBox="0 0 215 202" fill="none" xmlns="http://www.w3.org/2000/svg">
<g id="Frame">
<g id="Clip path group">
<mask id="mask0_942_629" style="mask-type:luminance" maskUnits="userSpaceOnUse" x="0" y="14" width="215" height="169">
<g id="clip-path">
<path id="Vector" d="M1.10277 95.6285C5.07837 137.708 -21.7362 170.247 68.6822 180.152C84.6875 181.904 106.807 183.16 125.472 182.797C140.596 182.508 157.229 181.16 171.928 177.357C196.202 171.064 214.286 158.283 214.846 133.388C215.423 107.914 190.131 91.2878 194.17 80.8254C206.7 48.4455 186.381 24.878 146.251 16.5085C95.4679 5.91894 74.9773 40.9953 54.2694 36.436C20.7105 29.0368 -2.94495 52.7882 1.10277 95.6285Z" fill="white"/>
</g>
</mask>
<g mask="url(#mask0_942_629)">
<g id="Group">
<path id="Vector_2" d="M1.10277 95.6285C5.07837 137.708 -21.7362 170.247 68.6822 180.152C84.6875 181.904 106.807 183.16 125.472 182.797C140.596 182.508 157.229 181.16 171.928 177.357C196.202 171.064 214.286 158.283 214.846 133.388C215.423 107.914 190.131 91.2878 194.17 80.8254C206.7 48.4455 186.381 24.878 146.251 16.5085C95.4679 5.91894 74.9773 40.9953 54.2694 36.436C20.7105 29.0368 -2.94495 52.7882 1.10277 95.6285Z" fill="#EADBF2"/>
<path id="Vector_3" d="M190.177 57.0233L110.094 27.7656L71.8748 132.596L151.958 161.853L190.177 57.0233Z" fill="#710FAA"/>
<path id="Vector_4" d="M138.622 61.2249C137.352 64.7248 134.889 67.6636 131.666 69.5232C131.483 69.6291 131.298 69.7311 131.111 69.8313C128.013 71.4626 124.464 72.0231 121.016 71.4256C117.567 70.828 114.413 69.1059 112.043 66.5273C110.138 64.4525 108.819 61.9074 108.221 59.1534C107.623 56.3995 107.768 53.5358 108.642 50.8566C109.515 48.1774 111.085 45.7791 113.19 43.908C115.295 42.0369 117.86 40.7604 120.621 40.2096C123.382 39.6587 126.24 39.8535 128.901 40.7737C131.562 41.694 133.93 43.3066 135.763 45.446C137.595 47.5854 138.826 50.1746 139.329 52.9475C139.831 55.7205 139.587 58.5774 138.622 61.2249Z" fill="white"/>
<path id="Vector_5" d="M133.645 51.9948C131.942 44.4262 126.047 43.6695 126.047 43.6695C124.212 43.4992 122.429 44.0286 120.97 44.871C119.51 45.7133 118.331 46.8531 117.211 48.0132C115.946 49.325 114.737 50.6766 113.584 52.068C113.36 52.3385 113.131 52.6292 113.111 52.9729C113.093 53.2858 113.254 53.5977 113.432 53.8865C115.021 56.4675 118.144 58.1493 121.256 59.2843C125.482 60.8229 129.944 61.6116 134.441 61.6149C134.547 58.4256 134.362 55.1881 133.645 51.9948Z" fill="#38516B"/>
<path id="Vector_6" d="M131.11 69.8322C128.013 71.4636 124.463 72.0241 121.015 71.4265C117.566 70.829 114.412 69.1069 112.043 66.5283C111.082 65.4821 110.266 64.3104 109.619 63.0453C110.965 62.4677 112.584 62.1154 114.356 62.021C115.732 61.9522 117.111 62.026 118.471 62.2415C119.218 62.3556 119.959 62.5085 120.69 62.6997C121.949 63.0259 123.177 63.4627 124.359 64.0051C125.593 64.5681 126.761 65.2668 127.841 66.0884C129.315 67.2234 130.441 68.5076 131.11 69.8322Z" fill="#FFCFBF"/>
<path id="Vector_7" d="M123.813 68.4606C125.34 68.6531 124.092 64.6214 124.092 64.6214L126.633 58.8193C127.375 57.1259 126.669 55.1563 125.055 54.4208C123.441 53.6853 122.607 53.6083 121.865 55.3017L118.349 62.4958C117.608 64.1892 121.659 68.1881 123.813 68.4606Z" fill="#FFCFBF"/>
<path id="Vector_8" d="M130.666 49.3494C130.666 49.3494 132.508 59.8427 127.877 61.2116C125.032 62.0501 122.491 59.7579 119.712 55.9313C117.319 52.6331 126.054 40.8643 130.666 49.3494Z" fill="#FDBAA0"/>
<path id="Vector_9" d="M122.371 59.7542C123.456 60.7612 124.647 61.4129 126.111 61.5592C126.422 61.59 126.465 61.0846 126.153 61.0528C124.772 60.9152 123.673 60.2827 122.653 59.3373C122.419 59.1217 122.141 59.5405 122.371 59.7542Z" fill="#FF9F89"/>
<path id="Vector_10" d="M131.461 50.5047C131.624 49.9049 131.452 49.2532 131.134 48.7189C130.815 48.1846 130.364 47.7475 129.913 47.3172C129.511 46.9322 129.099 46.5365 128.592 46.3016C128.085 46.0667 127.512 46.0061 126.951 45.9839C125.23 45.9175 123.463 46.2005 121.957 47.038C121.924 47.047 121.893 47.0634 121.867 47.0859C121.84 47.1084 121.819 47.1365 121.805 47.1681C121.791 47.1997 121.784 47.2341 121.785 47.2687C121.786 47.3034 121.795 47.3374 121.81 47.3682C122.139 48.5235 122.574 49.7442 122.248 50.9032C122.997 50.807 123.729 50.6067 124.473 50.4777C126.842 50.0728 129.277 50.409 131.448 51.4404L131.461 50.5047Z" fill="#38516B"/>
<path id="Vector_11" d="M124.104 49.2713L123.666 48.2778C122.109 48.2557 120.588 49.0374 119.585 50.2282C118.582 51.419 118.07 52.9834 118.023 54.542C118 55.3121 118.1 56.1189 118.559 56.7311C118.907 57.1932 119.425 57.4936 119.925 57.7814C119.971 57.824 120.026 57.8557 120.086 57.8742C120.146 57.8926 120.209 57.8974 120.271 57.8882C120.333 57.879 120.392 57.8559 120.444 57.8208C120.496 57.7856 120.539 57.7393 120.571 57.6851C122.672 55.4065 123.87 52.3615 124.104 49.2713Z" fill="#38516B"/>
<path id="Vector_12" d="M124.773 45.422C123.083 45.8436 121.823 47.0008 120.638 48.2137C119.065 49.8253 117.491 51.4339 115.885 53.0118C115.8 53.0955 115.916 53.2418 116.001 53.1571C117.47 51.7137 118.92 50.2524 120.353 48.7731C121.634 47.4503 122.956 46.0631 124.804 45.602C124.919 45.5731 124.891 45.3892 124.775 45.4181L124.773 45.422Z" fill="#4D6371"/>
<path id="Vector_13" d="M123.113 48.468C121.357 50.5956 119.698 53.0668 117.456 54.711C117.36 54.7823 117.475 54.9267 117.572 54.8564C119.83 53.2006 121.496 50.7169 123.262 48.5787C123.339 48.4825 123.189 48.3756 123.113 48.468Z" fill="#4D6371"/>
<path id="Vector_14" d="M131.11 69.8307C128.013 71.4621 124.463 72.0226 121.015 71.425C117.566 70.8275 114.412 69.1054 112.043 66.5268C111.082 65.4806 110.266 64.3089 109.619 63.0438C110.965 62.4662 112.584 62.1139 114.356 62.0195C115.581 63.2277 118.024 65.4322 120.682 66.677C121.963 67.2777 123.291 67.6551 124.558 67.5906C125.738 67.5309 126.866 67.09 127.842 66.0878C129.315 67.2219 130.441 68.5061 131.11 69.8307Z" fill="#384955"/>
<path id="Vector_15" d="M104.038 75.3814L126.204 83.2686C126.974 83.5411 127.438 82.3647 126.671 82.0913L104.504 74.205C103.735 73.9316 103.27 75.108 104.038 75.3814Z" fill="#D3F0F4"/>
<path id="Vector_16" d="M102.174 80.3772L118.098 86.0436L138.361 93.2531L145.938 95.9486C146.707 96.2211 147.171 95.0447 146.404 94.7713L130.48 89.1068L110.217 81.8963L102.641 79.2008C101.871 78.9284 101.407 80.1048 102.174 80.3772Z" fill="#D3F0F4"/>
<path id="Vector_17" d="M130.002 84.886L158.881 95.1617L165.427 97.4904C166.196 97.7629 166.661 96.5874 165.893 96.314L137.015 86.0383L130.469 83.7096C129.7 83.4372 129.235 84.6126 130.002 84.886Z" fill="white"/>
<path id="Vector_18" d="M150.19 97.5576L164.073 102.475C164.843 102.746 165.308 101.57 164.541 101.299L150.657 96.3812C149.887 96.1097 149.422 97.2861 150.19 97.5576Z" fill="white"/>
<path id="Vector_19" d="M99.9574 84.9216C106.963 87.2571 113.893 89.8037 120.747 92.5615C121.504 92.8657 121.969 91.6883 121.214 91.3851C114.363 88.6254 107.433 86.0784 100.425 83.7443C99.6555 83.4882 99.1852 84.6636 99.9574 84.9216Z" fill="#D3F0F4"/>
<path id="Vector_20" d="M124.701 93.9536L162.033 107.61C162.797 107.89 163.265 106.714 162.499 106.434L125.168 92.7772C124.404 92.497 123.936 93.6734 124.701 93.9536Z" fill="white"/>
<path id="Vector_21" d="M95.1545 94.6838L111.078 100.349L131.342 107.559L138.918 110.254C139.687 110.527 140.153 109.35 139.385 109.077L123.462 103.412L103.198 96.201L95.6219 93.5055C94.8526 93.233 94.3871 94.4095 95.1545 94.6829V94.6838Z" fill="#D3F0F4"/>
<path id="Vector_22" d="M143.17 111.862L157.054 116.78C157.823 117.051 158.289 115.876 157.52 115.603L143.638 110.686C142.868 110.414 142.403 111.591 143.17 111.862Z" fill="white"/>
<path id="Vector_23" d="M92.9386 99.2266C99.9435 101.562 106.873 104.109 113.728 106.866C114.484 107.171 114.95 105.993 114.195 105.69C107.344 102.934 100.414 100.388 93.405 98.0502C92.6357 97.7931 92.1654 98.9686 92.9386 99.2266Z" fill="#D3F0F4"/>
<path id="Vector_24" d="M117.683 108.258L155.014 121.916C155.779 122.195 156.246 121.019 155.482 120.738L118.15 107.082C117.381 106.802 116.918 107.978 117.683 108.258Z" fill="white"/>
<path id="Vector_25" d="M151.729 55.0183L177.367 64.0434C178.136 64.313 178.602 63.1366 177.833 62.8661L152.196 53.8419C151.427 53.5714 150.961 54.7478 151.729 55.0183Z" fill="white"/>
<path id="Vector_26" d="M150.358 58.7339L175.995 67.759C176.764 68.0286 177.231 66.8531 176.462 66.5826L150.825 57.5575C150.055 57.2879 149.59 58.4633 150.358 58.7339Z" fill="white"/>
<path id="Vector_27" d="M149.01 63.4446L174.039 72.3234C174.808 72.5949 175.273 71.4195 174.505 71.147L149.473 62.2682C148.703 61.9957 148.239 63.1721 149.006 63.4446H149.01Z" fill="white"/>
<path id="Vector_28" d="M147.309 68.5179L160.398 72.9837C161.168 73.2456 161.636 72.0692 160.865 71.8064L147.775 67.3405C147.006 67.0786 146.538 68.255 147.309 68.5179Z" fill="#D3F0F4"/>
<path id="Vector_29" d="M163.831 74.4759L173.039 77.8886C173.803 78.1716 174.27 76.9942 173.506 76.7112L164.298 73.2995C163.535 73.0164 163.068 74.1928 163.831 74.4759Z" fill="white"/>
<path id="Vector_30" d="M145.624 73.1415C154.049 76.2862 162.551 79.2128 171.131 81.9211C171.9 82.1647 172.374 80.9893 171.597 80.7438C163.022 78.0367 154.519 75.1105 146.091 71.9651C145.328 71.6763 144.861 72.8565 145.624 73.1415Z" fill="white"/>
<path id="Vector_31" d="M-3.80859 137.146L26.9143 155.89C46.3153 144.27 53.0538 140.262 53.0644 140.243C53.9078 139.27 57.8795 134.348 60.1251 132.927C57.9324 128.499 56.7967 126.211 55.8715 124.34C55.8715 124.316 56.737 89.1258 56.7217 89.1143C55.0676 91.0772 34.0019 118.676 23.9629 123.991C23.6003 124.184 23.7157 124.097 23.6657 124.179C23.1272 125.064 11.3206 130.089 -3.1258 136.028L-3.80859 137.146Z" fill="#FDBAA0"/>
<path id="Vector_32" d="M51.9833 96.8349C52.392 97.0544 61.7328 98.7921 60.7509 99.9993C56.9196 104.716 55.8665 111.977 57.461 114.558C60.5143 119.501 66.3989 117.49 67.0355 117.233L51.7198 131.592C47.5537 132.241 24.6157 133.157 24.6426 131.758C24.7513 126.02 50.9398 96.2756 51.9833 96.8349Z" fill="#FDBAA0"/>
<path id="Vector_33" d="M18.875 127.56C18.875 127.56 29.5901 121.076 34.486 112.874C41.2918 101.473 47.5466 87.5462 49.1036 85.9761C51.7732 83.2805 60.489 77.9492 62.8614 77.7028C65.2339 77.4563 72.9322 76.1625 74.4911 76.7718C76.0499 77.3812 71.3906 82.7857 65.5676 85.8904C59.7446 88.995 53.486 94.3745 53.486 94.3745L44.1576 123.431L18.875 127.56Z" fill="#FDBAA0"/>
<path id="Vector_34" d="M42.8478 104.671C42.8478 104.671 53.234 84.8117 58.6358 82.3954C64.0376 79.979 70.2866 78.2635 73.9265 80.3025C77.5665 82.3415 84.2723 88.4921 84.104 89.6916C83.9357 90.8911 78.1128 91.0133 74.2141 89.4644C70.3154 87.9154 59.8215 92.5161 59.8215 92.5161L48.2967 105.268L42.8478 104.671Z" fill="#FDBAA0"/>
<path id="Vector_35" d="M43.8711 124.322C43.8711 124.322 54.0015 92.497 56.7201 89.119C59.4388 85.7409 71.6628 86.6564 75.473 87.363C79.2832 88.0697 86.7516 97.1372 86.7458 99.748C86.7391 102.95 80.1833 100.733 76.0384 97.7263C72.2311 94.9644 66.7159 96.4816 64.8262 96.4749C64.2751 96.4749 63.1913 97.2951 62.0373 98.5157C60.5303 100.107 58.8993 102.375 58.1636 104.373C55.6729 111.133 63.2884 117.85 63.2884 117.85L43.8711 124.322Z" fill="#FDBAA0"/>
<path id="Vector_36" d="M143.062 178.145L55.25 159.149L80.0633 44.2012L154.79 60.3666L165.572 73.8711L143.062 178.145Z" fill="white"/>
<path id="Vector_37" d="M114.66 75.0167C113.961 78.2512 112.32 81.2056 109.943 83.5063C107.567 85.8071 104.563 87.3508 101.31 87.9424C98.0578 88.5339 94.703 88.1467 91.6703 86.8297C88.6375 85.5127 86.063 83.3251 84.2722 80.5434C82.4815 77.7617 81.5549 74.5109 81.6097 71.2021C81.6645 67.8933 82.6982 64.675 84.5801 61.9543C86.462 59.2336 89.1076 57.1326 92.1823 55.9169C95.257 54.7013 98.6227 54.4256 101.854 55.1248C104.005 55.5796 106.044 56.4565 107.854 57.7049C109.664 58.9532 111.209 60.5483 112.4 62.3979C113.591 64.2476 114.403 66.3151 114.791 68.481C115.179 70.6469 115.134 72.8682 114.66 75.0167Z" fill="#E9F4F6"/>
<path id="Vector_38" d="M96.6946 60.1671C95.5195 60.0853 94.2635 60.3857 93.448 61.3224C93.0693 61.759 92.8342 62.3019 92.7748 62.8771C92.7104 63.4778 92.7921 64.0776 92.8287 64.6764C92.8671 65.2934 92.8546 65.9278 92.5536 66.4872C92.2651 67.0128 91.7997 67.4498 91.6881 68.0602C91.5718 68.6936 91.8939 69.3223 91.7112 69.9499C91.615 70.2734 91.4323 70.5583 91.265 70.8452C91.0938 71.1323 90.9597 71.4399 90.8659 71.7607C90.663 72.4828 90.6735 73.2664 90.7495 74.0038C90.8091 74.5583 90.9563 75.1455 91.4371 75.4632C91.5333 75.5239 91.6083 75.367 91.5169 75.3073C91.0717 75.0185 90.9601 74.4254 90.913 73.92C90.8515 73.2587 90.8409 72.5723 90.9996 71.9215C91.0823 71.5906 91.2118 71.2733 91.3842 70.979C91.5461 70.7226 91.6888 70.4546 91.8112 70.1771C92.0353 69.5995 91.8632 69.0662 91.8333 68.478C91.8006 67.8272 92.1843 67.369 92.5229 66.8607C92.8258 66.4086 92.9945 65.8799 93.0095 65.3358C93.0576 64.194 92.6575 62.9791 93.2412 61.9135C93.9308 60.6552 95.3935 60.247 96.7033 60.3385C96.812 60.3462 96.7995 60.171 96.6946 60.1633V60.1671Z" fill="#384955"/>
<path id="Vector_39" d="M100.207 68.7038C100.497 67.1474 100.872 65.6077 101.328 64.0916L97.0301 60.1494C96.13 60.2582 95.1933 60.4729 94.5114 61.0919C93.4824 62.0238 93.3122 63.5949 93.4084 64.9936C93.5046 66.3924 93.7931 67.822 93.3978 69.1698C92.9814 70.6051 91.8447 71.7584 91.5244 73.2188C91.1734 74.8226 91.9207 76.5247 93.1276 77.5836C94.3345 78.6426 95.9289 79.1364 97.5119 79.3232C97.5907 79.3384 97.672 79.3351 97.7494 79.3136C97.8918 79.2625 97.9658 79.1047 98.0235 78.9612C99.3208 75.7102 99.5612 72.1473 100.207 68.7038Z" fill="#384955"/>
<path id="Vector_40" d="M108.592 84.6791C106.974 85.9397 105.139 86.8931 103.178 87.492C100.745 87.3852 97.7378 86.9857 94.5229 86.2916C92.2014 85.7979 89.913 85.1597 87.6709 84.3806C85.6913 82.742 84.1151 80.669 83.0645 78.3225C84.1944 77.3309 85.7264 76.5781 87.518 76.1083C88.8932 75.7605 90.3051 75.5786 91.7235 75.5663C92.6191 75.5545 93.5145 75.5989 94.4046 75.6992C95.1844 75.7886 95.9592 75.9172 96.7261 76.0842C97.2281 76.1927 97.7202 76.3159 98.2023 76.4539C98.3946 76.5085 98.5851 76.5659 98.7735 76.6262C98.9043 76.6667 99.0342 76.7081 99.164 76.7523C99.4111 76.8342 99.6544 76.9208 99.8958 77.0103L100.056 77.0719C101.606 77.6554 103.074 78.4375 104.422 79.3988C104.633 79.5518 104.839 79.7078 105.037 79.8666C106.833 81.3029 108.082 82.9703 108.592 84.6791Z" fill="#FDBAA0"/>
<path id="Vector_41" d="M108.594 84.6802C106.596 86.2397 104.27 87.3239 101.791 87.8507C99.3125 88.3775 96.7467 88.3332 94.2877 87.7211C91.8288 87.109 89.5411 85.9451 87.5977 84.3176C85.6544 82.69 84.1062 80.6413 83.0703 78.3265C84.2003 77.3349 85.7322 76.5821 87.5239 76.1123C87.5239 76.1123 93.6315 85.6015 104.265 79.4923C104.32 79.4615 104.374 79.4307 104.428 79.396C104.639 79.5491 104.845 79.705 105.043 79.8639C106.835 81.3041 108.084 82.9714 108.594 84.6802Z" fill="#445D78"/>
<path id="Vector_42" d="M95.4671 78.2293C94.0967 77.748 94.2362 76.6592 94.5151 75.0727L95.622 68.7786C95.9326 67.0112 97.5232 65.7943 99.1744 66.0533C100.826 66.3122 100.928 66.6752 100.617 68.4417L99.4427 75.9689C99.1321 77.7403 96.9635 78.8733 95.4671 78.2293Z" fill="#FDBAA0"/>
<path id="Vector_43" d="M97.2002 60.9215C97.2002 60.9215 90.5761 67.6602 93.1611 71.0383C94.7508 73.111 97.7118 72.7365 101.617 71.3579C104.98 70.1709 104.763 57.0755 97.2002 60.9215Z" fill="#FDBAA0"/>
<path id="Vector_44" d="M105.491 69.181C105.699 68.2443 105.711 67.2777 105.722 66.3199C105.734 65.337 105.741 64.3271 105.405 63.4106C104.842 61.8771 103.425 60.8701 102.005 60.124L99.2578 60.8451C99.8348 61.0174 100.213 61.5546 100.151 62.0407C100.09 62.5269 99.9493 63.013 99.9935 63.5011C100.09 64.5196 100.931 65.2657 101.349 66.1909C101.63 66.8108 101.349 67.5386 101.217 68.2125C101.103 68.8094 101.2 69.3677 101.189 69.9742C101.189 70.2726 101.242 70.5749 101.174 70.8656C101.102 71.1718 100.9 71.4259 100.758 71.7051C100.526 72.1443 100.474 72.6566 100.612 73.1337C100.761 73.5987 101.148 73.9867 101.616 74.0772C102.424 74.2341 103.148 73.5429 103.658 72.8719C104.491 71.7677 105.191 70.5287 105.491 69.181Z" fill="#384955"/>
<path id="Vector_45" d="M109.409 78.3495C109.512 77.2838 109.237 76.2315 109.165 75.161C109.088 74.0174 109.246 72.8631 109.522 71.7474C109.828 70.518 110.074 69.2848 110.042 68.0199C109.99 65.9809 109.022 64.1306 107.167 61.412C104.823 57.9771 101.934 56.4657 98.8434 57.2426C95.7525 58.0195 96.4517 61.7412 96.5921 61.5795C99.0069 58.7993 102.257 62.8002 102.307 66.34L100.576 68.6966C100.66 69.5213 100.44 70.3481 99.9589 71.0225C99.6964 71.3864 99.354 71.7089 99.2194 72.1382C99.0348 72.7274 99.2858 73.3647 99.2079 73.9769C99.1059 74.7702 98.4731 75.3959 98.2673 76.1699C97.9904 77.2067 98.5703 78.335 99.4473 78.9049C100.324 79.4748 101.429 79.5701 102.466 79.4411C102.851 79.394 103.235 79.3179 103.62 79.3449C104.343 79.4026 104.977 79.8262 105.605 80.1949C106.233 80.5636 106.946 80.8967 107.66 80.7514C108.679 80.5463 109.307 79.4142 109.409 78.3495Z" fill="#384955"/>
<path id="Vector_46" d="M99.9752 68.4007C99.9752 68.4007 101.418 67.1425 101.995 67.7721C102.572 68.4017 101.887 70.0142 101.105 70.0825C100.323 70.1509 99.9108 68.8744 99.9454 68.6385L99.9752 68.4007Z" fill="#FCBFAF"/>
<path id="Vector_47" d="M100.484 69.8851C100.395 69.6993 100.414 69.8552 100.512 69.835C100.57 69.8372 100.627 69.8437 100.684 69.8542C100.886 69.8563 101.085 69.8059 101.261 69.7079C101.565 69.5394 101.761 69.2516 101.934 68.9378C102.031 68.7558 102.158 68.5739 102.127 68.3457C102.068 67.8952 101.646 67.8336 101.332 68.0059C101.088 68.1426 100.936 67.7229 101.179 67.5881C101.687 67.2993 102.309 67.5014 102.505 68.0945C102.697 68.6644 102.265 69.3517 101.897 69.7503C101.751 69.9142 101.573 70.0474 101.375 70.1421C101.177 70.2368 100.962 70.2911 100.743 70.3019C100.523 70.3086 100.205 70.2932 100.092 70.0574C99.9687 69.8003 100.364 69.6271 100.486 69.8822L100.484 69.8851Z" fill="#FDBAA0"/>
<path id="Vector_48" d="M99.0178 60.7376C99.6092 60.1599 100.576 60.1041 101.183 60.6644C101.47 60.9302 101.656 61.2869 101.71 61.6742C101.766 62.093 101.635 62.506 101.524 62.9055C101.419 63.2839 101.319 63.6805 101.398 64.0723C101.472 64.4391 101.703 64.7298 101.967 64.9743C102.246 65.2304 102.556 65.4489 102.811 65.732C103.083 66.0341 103.298 66.3831 103.445 66.762C103.602 67.1553 103.677 67.5764 103.665 67.9995C103.653 68.4226 103.555 68.8389 103.376 69.2226C103.196 69.6084 102.931 69.9479 102.6 70.2152C102.305 70.4501 101.956 70.6282 101.735 70.9449C101.213 71.6794 101.722 72.5603 101.958 73.2852C102.112 73.7569 102.124 74.219 101.894 74.6714C101.685 75.0835 101.356 75.4089 101.029 75.716C100.394 76.3032 99.5861 77.03 99.7294 78.0062C99.8506 78.8533 100.691 79.196 101.392 79.4319C101.496 79.4666 101.533 79.2942 101.429 79.2596C100.698 79.0122 99.7794 78.6059 99.8967 77.6461C100.011 76.7075 100.854 76.1569 101.457 75.5436C101.768 75.2479 102.009 74.886 102.162 74.4847C102.287 74.084 102.277 73.6537 102.135 73.2592C101.994 72.8173 101.767 72.4005 101.705 71.9336C101.665 71.7106 101.688 71.4808 101.772 71.2704C101.856 71.0601 101.997 70.8775 102.18 70.7437C102.5 70.4895 102.84 70.2874 103.108 69.9735C103.36 69.6719 103.553 69.3259 103.678 68.9531C103.931 68.1875 103.895 67.3554 103.576 66.6147C103.432 66.278 103.237 65.9651 102.999 65.6867C102.74 65.3806 102.422 65.1495 102.125 64.8838C101.806 64.595 101.548 64.2591 101.543 63.8027C101.535 63.3763 101.699 62.9652 101.801 62.557C101.908 62.1325 101.942 61.7031 101.794 61.2872C101.663 60.9174 101.419 60.5986 101.096 60.3765C100.423 59.9173 99.4803 60.0521 98.8966 60.6259C98.8168 60.7048 98.9428 60.8184 99.0216 60.7433L99.0178 60.7376Z" fill="#4D6371"/>
<path id="Vector_49" d="M99.4555 60.3613C100.753 59.2966 102.821 59.336 103.981 60.5683C104.294 60.9004 104.544 61.3326 104.589 61.8015C104.642 62.3444 104.346 62.7641 104.149 63.2455C103.78 64.1437 103.974 65.1555 104.391 65.9891C104.848 66.8998 105.558 67.6315 106.167 68.4315C106.744 69.1891 107.282 70.0738 107.301 71.0702C107.316 71.5345 107.205 71.9943 106.98 72.4006C106.742 72.8136 106.382 73.0687 105.96 73.2555C105.581 73.422 105.178 73.5568 104.858 73.8331C104.697 73.9753 104.567 74.1487 104.476 74.3428C104.384 74.5369 104.332 74.7477 104.325 74.9623C104.29 75.8229 104.986 76.3948 105.509 76.9541C105.842 77.2929 106.092 77.7041 106.24 78.1555C106.383 78.6234 106.478 79.3108 106.085 79.69C106.003 79.7783 105.896 79.8399 105.779 79.8668C105.661 79.8938 105.538 79.8848 105.426 79.8412C105.329 79.7959 105.245 79.9519 105.346 79.9971C105.704 80.1589 106.115 79.9875 106.333 79.6573C106.606 79.2337 106.557 78.6706 106.429 78.2085C106.305 77.7563 106.079 77.3387 105.768 76.9878C105.479 76.6489 105.13 76.3582 104.861 75.9991C104.573 75.614 104.411 75.1606 104.532 74.6745C104.667 74.1325 105.084 73.8225 105.56 73.6107C105.961 73.4326 106.383 73.2901 106.714 72.9898C107.038 72.6854 107.266 72.2929 107.37 71.8605C107.928 69.7244 106.014 68.1494 104.958 66.613C104.358 65.7388 103.889 64.6125 104.219 63.5256C104.374 63.0173 104.725 62.5899 104.756 62.0431C104.768 61.5988 104.635 61.1627 104.378 60.8003C103.417 59.3668 101.355 59.0674 99.8912 59.853C99.7012 59.9558 99.5218 60.077 99.3555 60.215C99.2699 60.2852 99.3555 60.4325 99.4517 60.3613H99.4555Z" fill="#4D6371"/>
<path id="Vector_50" d="M106.073 74.3789C105.698 74.3924 105.411 74.7303 105.382 75.1038C105.345 75.5736 105.637 75.9702 105.959 76.2677C106.333 76.6171 106.729 76.93 107.062 77.3266C107.419 77.7352 107.695 78.2088 107.873 78.7216C108.071 79.2971 108.091 79.9194 107.93 80.5064C107.898 80.6152 108.064 80.6508 108.096 80.543C108.434 79.3743 107.983 78.1767 107.254 77.2862C107.068 77.0616 106.867 76.8497 106.654 76.6518C106.422 76.4362 106.166 76.2456 105.947 76.0164C105.727 75.7873 105.562 75.5197 105.551 75.203C105.541 74.8862 105.757 74.5695 106.084 74.558C106.107 74.5568 106.129 74.5465 106.145 74.5292C106.16 74.512 106.169 74.4893 106.167 74.466C106.166 74.4428 106.156 74.421 106.139 74.4054C106.121 74.3897 106.099 74.3816 106.076 74.3828L106.073 74.3789Z" fill="#4D6371"/>
<path id="Vector_51" d="M102.434 71.9315C102.46 72.2232 102.538 72.508 102.663 72.7729C102.71 72.8739 102.855 72.7777 102.807 72.6766C102.696 72.4378 102.628 72.1814 102.605 71.919C102.603 71.8962 102.593 71.8751 102.576 71.8601C102.559 71.8451 102.536 71.8375 102.514 71.8391C102.491 71.8406 102.47 71.8511 102.455 71.8682C102.44 71.8854 102.432 71.9078 102.434 71.9305V71.9315Z" fill="#4D6371"/>
<path id="Vector_52" d="M106.416 67.0307C106.544 67.2386 106.674 67.4456 106.8 67.6535C106.859 67.7498 107.003 67.6535 106.944 67.5573L106.56 66.9334C106.501 66.8372 106.357 66.9334 106.417 67.0297L106.416 67.0307Z" fill="#4D6371"/>
<path id="Vector_53" d="M103.799 147.143C95.0124 145.243 89.4087 136.541 91.307 127.746C93.2054 118.951 101.899 113.341 110.686 115.241C119.473 117.141 125.076 125.844 123.177 134.643C121.279 143.442 112.585 149.045 103.799 147.143ZM110.156 117.695C102.721 116.086 95.3653 120.833 93.7584 128.277C92.1514 135.72 96.8934 143.082 104.328 144.69C111.763 146.299 119.119 141.552 120.726 134.11C122.333 126.667 117.591 119.304 110.156 117.7V117.695Z" fill="#38516B"/>
<path id="Vector_54" d="M96.6821 127.817L99.0402 133.497C99.4172 134.406 99.7945 135.314 100.172 136.222C100.411 136.8 100.637 137.385 100.971 137.91C101.35 138.486 101.87 138.956 102.48 139.276C103.091 139.596 103.773 139.756 104.462 139.739C106.311 139.685 107.583 138.383 108.863 137.22C109.566 136.582 110.261 135.934 110.954 135.284C114.681 131.786 118.343 128.221 122.05 124.703C123.631 123.202 125.208 121.69 126.859 120.262C127.488 119.717 127.8 118.538 127.756 117.749C127.71 116.924 127.291 115.949 126.647 115.408C125.958 114.831 125.06 114.419 124.136 114.511C123.191 114.607 122.512 115.002 121.799 115.62C115.4 121.167 109.616 127.397 103.299 133.036L102.908 133.383C102.696 133.575 102.459 133.622 103.252 133.094C102.954 133.295 103.053 133.265 103.551 133.003C105.317 132.778 106.429 133.291 106.888 134.544C106.901 134.483 106.708 134.109 106.695 134.089L106.317 133.18C106.098 132.651 105.878 132.121 105.658 131.591L103.205 125.688C102.856 124.849 102.36 124.147 101.534 123.711C100.779 123.316 99.6884 123.185 98.8767 123.491C97.2476 124.104 95.9445 126.05 96.6821 127.823V127.817Z" fill="#445D78"/>
<path id="Vector_55" d="M81.2985 91.59L105.573 96.6268C106.364 96.7914 106.631 95.5678 105.839 95.3994L81.5629 90.3597C80.7724 90.1961 80.5051 91.4235 81.2985 91.5881V91.59Z" fill="#38516B"/>
<path id="Vector_56" d="M80.0716 97.0764L97.5108 100.695L119.703 105.301L127.999 107.022C128.79 107.187 129.057 105.963 128.263 105.794L110.825 102.176L88.6325 97.5703L80.3361 95.848C79.5465 95.6844 79.2782 96.907 80.0716 97.0755V97.0764Z" fill="#38516B"/>
<path id="Vector_57" d="M109.771 97.7729L124.154 100.757L141.449 104.346L148.566 105.823C149.355 105.987 149.623 104.764 148.83 104.595L134.447 101.611L117.152 98.0222L110.036 96.5455C109.245 96.3808 108.978 97.6044 109.77 97.7729H109.771Z" fill="#38516B"/>
<path id="Vector_58" d="M132.672 108.087L147.872 111.218C148.662 111.381 148.93 110.159 148.137 109.99L132.936 106.859C132.145 106.696 131.878 107.923 132.672 108.087Z" fill="#38516B"/>
<path id="Vector_59" d="M78.4123 102.138C86.0616 103.566 93.6624 105.225 101.215 107.116C101.999 107.309 102.263 106.084 101.48 105.889C93.931 103.998 86.3299 102.339 78.6768 100.911C77.8844 100.763 77.619 101.99 78.4123 102.138Z" fill="#38516B"/>
<path id="Vector_60" d="M105.545 107.999L137.466 114.919L146.482 116.874C147.271 117.045 147.54 115.815 146.747 115.645L114.825 108.725L105.812 106.771C105.024 106.6 104.755 107.83 105.548 107.999H105.545Z" fill="#38516B"/>
<path id="Vector_61" d="M126.501 71.1259L154.563 76.851C155.349 77.0117 155.62 75.792 154.827 75.6293L126.764 69.9052C125.978 69.7444 125.712 70.9641 126.501 71.1259Z" fill="#38516B"/>
<path id="Vector_62" d="M125.604 75.203L153.667 80.9252C154.452 81.0859 154.719 79.8662 153.93 79.7045L125.867 73.9794C125.082 73.8186 124.815 75.0384 125.604 75.2001V75.203Z" fill="#38516B"/>
<path id="Vector_63" d="M124.874 80.3147L152.282 85.9753C153.068 86.137 153.334 84.9163 152.545 84.7536L125.141 79.0959C124.354 78.9332 124.089 80.1549 124.878 80.3166L124.874 80.3147Z" fill="#38516B"/>
<path id="Vector_64" d="M123.83 85.8589L138.137 88.6334C138.924 88.7865 139.194 87.5658 138.4 87.4127L124.093 84.6382C123.305 84.4852 123.035 85.7059 123.83 85.8589Z" fill="#38516B"/>
<path id="Vector_65" d="M141.934 89.6867L152.038 91.9211C152.822 92.0944 153.087 90.8737 152.301 90.6994L142.198 88.465C141.414 88.2918 141.148 89.5124 141.934 89.6867Z" fill="#38516B"/>
<path id="Vector_66" d="M122.738 90.9263C131.987 92.9961 141.283 94.8252 150.627 96.4136C151.417 96.5484 151.685 95.3277 150.891 95.1929C141.548 93.6045 132.251 91.7754 123.002 89.7056C122.218 89.5304 121.954 90.7511 122.738 90.9263Z" fill="#38516B"/>
<path id="Vector_67" d="M154.79 60.3669L152.486 71.0402L165.573 73.8715L154.79 60.3669Z" fill="#AFD0D3"/>
<path id="Vector_68" d="M58.1578 104.37C58.5511 103.303 59.2003 102.156 59.9485 101.082C58.0799 99.9493 55.3516 98.304 53.1869 97.0391C50.4403 104.298 47.0321 114.587 45.1934 120.229L54.6861 120.719L63.2826 117.853C63.2826 117.853 55.667 111.13 58.1578 104.37Z" fill="#FDBAA0"/>
<path id="Vector_69" d="M49.6141 142.766C60.4215 140.813 72.8272 128.241 75.7199 124.119C81.1236 116.412 89.0941 112.688 89.0585 111.188C89.0229 109.688 85.6666 106.46 78.5358 109.656C71.7607 112.691 66.8032 118.283 62.5718 117.659C60.8956 117.413 50.5585 116.847 50.5585 116.847C50.5585 116.847 45.4866 143.512 49.6141 142.766Z" fill="#FDBAA0"/>
<path id="Vector_70" d="M25.14 162.897C25.14 162.897 39.1026 152.893 38.5179 151.687C37.9332 150.481 25.4391 129.526 23.9004 122.938C23.9004 122.938 23.9244 121.671 22.0732 122.182C20.2219 122.692 4.71094 128.375 4.71094 128.375L8.25859 149.062L25.14 162.897Z" fill="white"/>
<path id="Vector_71" d="M-22.4724 131.003L-31.2285 167.843L11.2163 177.951C23.0835 169.065 29.7268 163.686 29.7653 161.58C29.7749 161.116 29.6066 160.528 29.2969 159.84C28.9344 159.034 28.3795 158.086 27.689 157.033C24.1644 151.642 17.1538 143.477 14.6678 136.972C13.282 133.342 12.1674 130.419 10.9923 128.298C10.6523 127.67 10.2629 127.071 9.82766 126.505C8.42553 124.717 6.80317 123.971 4.48743 124.4C3.03529 124.671 -14.5847 128.024 -22.4724 131.003Z" fill="#38516B"/>
<path id="Vector_72" d="M34.8814 152.305C34.9681 152.095 34.9906 151.864 34.9461 151.641C34.9015 151.418 34.7919 151.213 34.6311 151.053C34.4703 150.892 34.2656 150.783 34.0428 150.739C33.82 150.695 33.5891 150.718 33.3794 150.805C33.1697 150.892 32.9905 151.04 32.8646 151.229C32.7386 151.418 32.6716 151.64 32.6719 151.868C32.6722 152.095 32.7398 152.317 32.8662 152.506C32.9927 152.695 33.1722 152.842 33.3822 152.929C33.5215 152.986 33.6709 153.016 33.8217 153.016C33.9725 153.016 34.1217 152.986 34.261 152.928C34.4002 152.87 34.5267 152.785 34.6332 152.678C34.7396 152.571 34.824 152.445 34.8814 152.305Z" fill="#445D78"/>
</g>
</g>
</g>
</g>
</svg>
