<svg width="205" height="206" viewBox="0 0 205 206" fill="none" xmlns="http://www.w3.org/2000/svg">
<g id="Frame" clip-path="url(#clip0_942_505)">
<path id="Vector" d="M181.886 87.3551C173.467 79.8995 163.318 34.9327 128.548 58.3526C110.585 70.4529 80.2952 47.9655 55.224 55.732C32.2003 62.8651 29.9807 86.3672 32.2089 94.0256C36.709 109.494 22.7045 111.8 9.71336 118.442C-10.6676 128.868 4.43725 165.896 23.6886 166.075C42.94 166.253 159.419 166.075 159.419 166.075C159.419 166.075 187.419 165.41 199.049 149.384C211.565 132.133 203.629 106.615 181.886 87.3551Z" fill="#EADBF2"/>
<path id="Vector_2" d="M67.4131 161.92C67.4131 161.92 67.6565 166.003 68.417 166.062C68.5185 166.07 72.2763 166.07 72.2763 166.07L77.0732 166.041C77.0732 166.041 77.0422 164.841 75.64 164.587C74.2377 164.334 71.8909 163.31 71.0409 161.386C70.1479 159.361 67.4131 161.92 67.4131 161.92Z" fill="#710FAA"/>
<path id="Vector_3" d="M65.6844 114.268C65.6844 114.268 67.774 114.825 69.1023 114.409C70.4306 113.992 72.7155 114.677 73.0854 115.179C73.4553 115.681 73.3185 115.882 72.6613 116.056C72.004 116.23 69.677 117.26 68.1465 116.663C66.6161 116.066 64.6194 116.045 64.6194 116.045L65.6844 114.268Z" fill="#FDBAA0"/>
<path id="Vector_4" d="M47.6221 95.421C47.6221 95.421 49.9698 112.749 53.8574 114.296C55.775 115.063 64.2522 116.797 66.7616 116.976C66.7616 116.976 67.3759 116.458 67.2262 114.353C67.2262 114.353 58.3446 110.966 57.0834 109.126C55.2055 106.386 58.2491 97.9318 55.8928 95.3585C53.5365 92.7852 49.5663 91.6749 47.6221 95.421Z" fill="#445D78"/>
<path id="Vector_5" d="M47.9237 162.172V158.392H42.1959C42.1215 158.392 42.0503 158.361 41.9976 158.306C41.9449 158.252 41.9151 158.178 41.9146 158.101V157.499C41.9149 157.421 41.9446 157.347 41.9973 157.292C42.05 157.238 42.1214 157.207 42.1959 157.207H47.9237V135.704C47.9244 135.414 48.0359 135.135 48.2339 134.929C48.4318 134.724 48.7002 134.608 48.9801 134.607H50.1131C50.3931 134.608 50.6614 134.724 50.8594 134.929C51.0573 135.135 51.1689 135.414 51.1695 135.704V157.206H56.8973C56.9718 157.206 57.0433 157.237 57.096 157.291C57.1487 157.346 57.1784 157.42 57.1786 157.498V158.103C57.1782 158.181 57.1483 158.254 57.0957 158.309C57.043 158.364 56.9717 158.394 56.8973 158.394H51.1695V162.172C55.3135 162.497 58.6342 164.048 59.5659 166.047H39.5273C40.459 164.046 43.7797 162.501 47.9237 162.172Z" fill="#38516B"/>
<path id="Vector_6" d="M48.414 131.919C49.1022 133.108 49.8682 134.246 50.7066 135.326C53.2298 138.631 55.9767 141.361 56.455 143.938C56.5644 144.499 56.7127 145.05 56.899 145.588C57.0985 146.179 57.3454 146.799 57.631 147.441C58.7012 149.852 60.3031 152.561 61.9015 155.021C64.6656 159.273 67.2636 162.821 67.2636 162.821L72.0296 162.61C71.8386 162.114 69.7602 156.243 66.9797 149.069C65.8502 146.155 64.6501 143.059 63.4887 140.071C63.3347 139.671 63.1799 139.275 63.0276 138.881C62.6732 137.966 62.3247 137.066 61.9841 136.19L57.2947 124.093C57.2947 124.093 46.8586 119.984 45.7755 122.649C44.8834 124.837 45.6112 126.985 48.414 131.919Z" fill="#38516B"/>
<path id="Vector_7" d="M56.3762 150.256C56.3762 150.256 53.0616 152.467 53.3833 153.186C53.4263 153.281 55.2579 156.688 55.2579 156.688L57.6211 161.023C57.6211 161.023 58.6147 160.409 58.145 159.015C57.6753 157.62 57.3905 154.995 58.5949 153.285C59.8612 151.488 56.3762 150.256 56.3762 150.256Z" fill="#710FAA"/>
<path id="Vector_8" d="M60.8618 122.14C60.8618 122.14 73.9605 130.613 75.4229 136.304C76.8854 141.996 57.9979 154.142 57.9979 154.142C57.9979 154.142 55.9272 152.245 55.5616 150.854C55.5616 150.854 64.0982 140.234 65.9504 137.854C67.0877 136.392 49.1336 132.793 46.9381 129.25C44.7427 125.708 45.5299 122.73 45.5299 122.73L60.8618 122.14Z" fill="#38516B"/>
<path id="Vector_9" d="M62.9497 133.02H36.1407C35.6024 133.02 35.166 133.473 35.166 134.032V139.599C35.166 140.158 35.6024 140.611 36.1407 140.611H62.9497C63.488 140.611 63.9244 140.158 63.9244 139.599V134.032C63.9244 133.473 63.488 133.02 62.9497 133.02Z" fill="#710FAA"/>
<path id="Vector_10" d="M54.8049 92.4508C55.5753 92.9438 56.2518 93.5796 56.8008 94.3265C53.6625 95.1688 48.4561 92.1498 48.4561 92.1498C48.4561 92.1498 50.476 90.7412 51.2244 87.6444C51.2623 87.4884 51.2964 87.3282 51.3268 87.1639C51.4316 86.6045 51.4892 86.0366 51.4989 85.4668L52.9398 86.8066L55.3374 89.0396C55.3374 89.0396 55.2833 89.965 54.983 91.5558C54.9331 91.8354 54.8738 92.1337 54.8049 92.4508Z" fill="#FDBAA0"/>
<path id="Vector_11" d="M45.1524 107.821C45.6015 114.098 44.8453 123.64 45.3554 125.294C45.7959 126.723 50.9748 125.876 52.9758 125.4C53.7165 125.221 54.6104 124.972 55.5412 124.675C58.122 123.843 60.942 122.657 61.2448 121.775C61.2563 121.742 61.2655 121.709 61.2724 121.674C61.2978 121.552 61.2961 121.426 61.2672 121.305C61.1666 120.858 60.7777 120.37 60.7321 119.258C60.6814 118.017 60.6891 116.555 60.6461 114.983C60.6461 114.805 60.6409 114.613 60.6229 114.437V114.372V114.272C60.579 112.519 60.4912 110.675 60.3889 108.848C60.3235 107.699 60.2486 106.563 60.1618 105.473C59.9364 102.662 59.6327 100.161 59.2301 98.5805C58.5737 96.0036 57.1241 94.3226 55.8053 93.0908L54.8512 92.2414C53.7871 92.4826 52.5285 92.3227 51.3903 91.7626C50.1584 91.1552 49.7326 90.7202 49.5183 90.8846C46.6674 93.1632 44.6216 100.147 45.1524 107.821Z" fill="#445D78"/>
<path id="Vector_12" d="M55.5265 124.688C58.1074 123.856 60.9282 122.67 61.2302 121.789C61.2423 121.756 61.2518 121.722 61.2586 121.688L61.2534 121.318C61.1519 120.871 60.7639 120.384 60.7183 119.272C60.6675 118.03 60.6753 116.569 60.6323 114.997C60.6323 114.818 60.6323 114.626 60.6091 114.45V114.386C60.6091 114.352 60.6091 114.319 60.6091 114.285L50.8431 109.688C50.8431 109.688 50.2771 117.858 55.5265 124.688Z" fill="#445D78"/>
<path id="Vector_13" d="M55.3408 89.042C55.3408 89.042 55.2866 89.9673 54.9863 91.5581C52.6498 90.7766 51.5839 88.5784 51.2295 87.6503C51.1288 87.3877 51.085 87.2252 51.085 87.2252L51.3319 87.1698L52.9432 86.8125L55.3408 89.042Z" fill="#FDBAA0"/>
<path id="Vector_14" d="M56.2872 89.0166C56.2872 89.0166 51.1453 89.6195 50.833 86.2888C50.5207 82.958 49.6475 80.792 52.9175 80.2667C56.1874 79.7415 56.9453 80.9483 57.3101 82.0335C57.6748 83.1188 57.6172 88.7746 56.2872 89.0166Z" fill="#FDBAA0"/>
<path id="Vector_15" d="M50.856 86.5179C50.856 86.5179 51.182 82.0965 55.8628 81.6383C59.0691 81.3248 57.2814 78.4594 56.9399 78.0029C56.9399 78.0029 54.4838 78.3522 51.9658 78.7845C46.6802 79.6911 50.3373 85.8292 50.856 86.5179Z" fill="#38516B"/>
<path id="Vector_16" d="M75.7453 118.612L76.1953 118.764L80.025 106.526L79.575 106.374L75.7453 118.612Z" fill="#38516B"/>
<path id="Vector_17" d="M63.1885 118.478L76.1904 118.766L76.207 117.958L63.2051 117.671L63.1885 118.478Z" fill="#38516B"/>
<path id="Vector_18" d="M64.6074 116.933C64.6074 116.933 66.6248 117.726 67.9892 117.469C69.3536 117.211 71.5542 118.148 71.8665 118.69C72.1788 119.233 72.0239 119.415 71.3503 119.512C70.6767 119.61 68.2533 120.368 66.7985 119.602C65.3438 118.835 63.3574 118.583 63.3574 118.583L64.6074 116.933Z" fill="#FDBAA0"/>
<path id="Vector_19" d="M48.6581 96.1346C48.6581 96.1346 49.1519 113.623 52.8512 115.607C54.6767 116.589 62.9165 119.283 65.3915 119.743C65.3915 119.743 66.0565 119.296 66.1313 117.188C66.1313 117.188 57.6636 112.807 56.6054 110.833C55.0294 107.895 58.9523 99.8405 56.8842 97.0135C54.816 94.1865 50.9878 92.6305 48.6581 96.1346Z" fill="#445D78"/>
<path id="Vector_20" d="M95.7918 137.897H162.891C167.574 137.897 171.37 133.956 171.37 129.094V33.8386C171.37 28.9765 167.574 25.0351 162.891 25.0351L95.7918 25.0351C91.109 25.0351 87.3128 28.9765 87.3128 33.8386L87.3128 129.094C87.3128 133.956 91.109 137.897 95.7918 137.897Z" fill="#710FAA"/>
<path id="Vector_21" d="M95.5723 126.475L163.248 126.475V36.8652L95.5723 36.8652L95.5723 126.475Z" fill="white"/>
<path id="Vector_22" d="M153.651 122.541C152.704 122.541 151.796 122.151 151.126 121.455C150.456 120.76 150.08 119.817 150.08 118.834V67.576C150.08 66.5928 150.457 65.6499 151.126 64.9548C151.796 64.2596 152.704 63.8691 153.651 63.8691C154.598 63.8691 155.506 64.2596 156.176 64.9548C156.846 65.6499 157.222 66.5928 157.222 67.576V118.834C157.222 119.817 156.846 120.76 156.176 121.455C155.507 122.151 154.598 122.541 153.651 122.541Z" fill="#445D78"/>
<path id="Vector_23" d="M141.952 122.54C141.483 122.54 141.019 122.444 140.585 122.258C140.152 122.072 139.758 121.799 139.427 121.454C139.095 121.11 138.832 120.701 138.653 120.251C138.474 119.801 138.381 119.319 138.382 118.833V51.2166C138.382 50.2335 138.758 49.2906 139.427 48.5955C140.097 47.9003 141.005 47.5098 141.952 47.5098C142.421 47.5096 142.885 47.6054 143.318 47.7917C143.752 47.9779 144.145 48.2509 144.477 48.5952C144.808 48.9394 145.071 49.348 145.251 49.7978C145.43 50.2476 145.523 50.7297 145.523 51.2166V118.833C145.523 119.319 145.431 119.802 145.251 120.252C145.072 120.701 144.809 121.11 144.477 121.455C144.145 121.799 143.752 122.072 143.318 122.258C142.885 122.445 142.421 122.54 141.952 122.54Z" fill="#445D78"/>
<path id="Vector_24" d="M129.186 122.54C128.239 122.54 127.331 122.15 126.661 121.454C125.991 120.759 125.615 119.816 125.615 118.833V81.7644C125.615 80.7812 125.992 79.8384 126.661 79.1433C127.331 78.4481 128.239 78.0576 129.186 78.0576C130.133 78.0576 131.041 78.4482 131.711 79.1433C132.38 79.8385 132.756 80.7813 132.756 81.7644V118.833C132.757 119.319 132.664 119.802 132.485 120.251C132.306 120.701 132.043 121.11 131.711 121.454C131.38 121.799 130.986 122.072 130.553 122.258C130.119 122.444 129.655 122.54 129.186 122.54Z" fill="#445D78"/>
<path id="Vector_25" d="M116.763 122.541C115.816 122.541 114.908 122.15 114.238 121.455C113.569 120.759 113.192 119.816 113.192 118.833V61.238C113.192 60.2546 113.569 59.3116 114.238 58.6162C114.908 57.9209 115.816 57.5303 116.763 57.5303C117.711 57.5303 118.619 57.9209 119.289 58.6162C119.958 59.3116 120.334 60.2546 120.334 61.238V118.833C120.334 119.816 119.958 120.759 119.289 121.455C118.619 122.15 117.711 122.541 116.763 122.541Z" fill="#445D78"/>
<path id="Vector_26" d="M107.847 90.4704V118.832C107.847 119.319 107.755 119.802 107.576 120.251C107.396 120.701 107.133 121.11 106.802 121.454C106.47 121.799 106.076 122.072 105.643 122.258C105.21 122.444 104.745 122.54 104.276 122.54C103.807 122.54 103.343 122.444 102.91 122.258C102.477 122.072 102.083 121.798 101.751 121.454C101.42 121.11 101.157 120.701 100.978 120.251C100.798 119.801 100.706 119.319 100.706 118.832V90.4704C100.706 89.4872 101.082 88.5443 101.752 87.849C102.421 87.1537 103.329 86.7629 104.276 86.7627C105.223 86.7627 106.132 87.1533 106.801 87.8487C107.471 88.544 107.847 89.4871 107.847 90.4704Z" fill="#445D78"/>
<path id="Vector_27" d="M113.532 52.9377H119.579C119.664 52.9345 119.748 52.9489 119.826 52.9801C119.905 53.0113 119.977 53.0586 120.037 53.1193C120.098 53.1799 120.146 53.2527 120.179 53.3331C120.212 53.4136 120.229 53.5001 120.229 53.5875C120.229 53.6749 120.212 53.7615 120.179 53.8419C120.146 53.9224 120.098 53.9951 120.037 54.0558C119.977 54.1164 119.905 54.1638 119.826 54.195C119.748 54.2262 119.664 54.2406 119.579 54.2373H113.532C113.37 54.2311 113.216 54.1599 113.104 54.0387C112.991 53.9175 112.929 53.7558 112.929 53.5875C112.929 53.4192 112.991 53.2575 113.104 53.1363C113.216 53.0151 113.37 52.9439 113.532 52.9377Z" fill="#710FAA"/>
<path id="Vector_28" d="M118.203 55.3027H119.579C119.745 55.3027 119.904 55.3711 120.021 55.4929C120.139 55.6147 120.204 55.7799 120.204 55.9521C120.204 56.1243 120.139 56.2895 120.021 56.4113C119.904 56.533 119.745 56.6015 119.579 56.6015H118.203C118.037 56.6015 117.878 56.533 117.76 56.4113C117.643 56.2895 117.577 56.1243 117.577 55.9521C117.577 55.7799 117.643 55.6147 117.76 55.4929C117.878 55.3711 118.037 55.3027 118.203 55.3027Z" fill="#710FAA"/>
<path id="Vector_29" d="M138.453 42.9678H144.5C144.662 42.974 144.816 43.0452 144.928 43.1664C145.041 43.2876 145.104 43.4493 145.104 43.6176C145.104 43.7859 145.041 43.9476 144.928 44.0688C144.816 44.19 144.662 44.2612 144.5 44.2674H138.453C138.291 44.2612 138.137 44.19 138.025 44.0688C137.912 43.9476 137.85 43.7859 137.85 43.6176C137.85 43.4493 137.912 43.2876 138.025 43.1664C138.137 43.0452 138.291 42.974 138.453 42.9678Z" fill="#710FAA"/>
<path id="Vector_30" d="M143.124 45.333H144.5C144.666 45.3335 144.825 45.402 144.942 45.5237C145.059 45.6454 145.125 45.8103 145.126 45.9824C145.125 46.1544 145.059 46.3193 144.942 46.441C144.825 46.5627 144.666 46.6313 144.5 46.6317H143.124C142.958 46.6313 142.799 46.5627 142.682 46.441C142.565 46.3193 142.499 46.1544 142.498 45.9824C142.499 45.8103 142.565 45.6454 142.682 45.5237C142.799 45.402 142.958 45.3335 143.124 45.333Z" fill="#710FAA"/>
<path id="Vector_31" d="M150.549 59.3123H156.597C156.763 59.3123 156.922 59.3807 157.039 59.5024C157.157 59.6242 157.223 59.7894 157.223 59.9616C157.223 60.1338 157.157 60.299 157.039 60.4208C156.922 60.5426 156.763 60.611 156.597 60.611H150.549C150.384 60.611 150.224 60.5426 150.107 60.4208C149.99 60.299 149.924 60.1338 149.924 59.9616C149.924 59.7894 149.99 59.6242 150.107 59.5024C150.224 59.3807 150.384 59.3123 150.549 59.3123Z" fill="#710FAA"/>
<path id="Vector_32" d="M155.219 61.6748H156.595C156.761 61.6753 156.92 61.7438 157.037 61.8655C157.155 61.9871 157.221 62.152 157.222 62.3242C157.221 62.4964 157.155 62.6614 157.038 62.7832C156.92 62.905 156.761 62.9737 156.595 62.9744H155.219C155.053 62.9737 154.894 62.905 154.777 62.7831C154.66 62.6613 154.594 62.4963 154.594 62.3242C154.594 62.1521 154.66 61.9872 154.777 61.8655C154.894 61.7438 155.053 61.6753 155.219 61.6748Z" fill="#710FAA"/>
<path id="Vector_33" d="M126.163 73.5068H132.21C132.372 73.5131 132.526 73.5843 132.638 73.7054C132.751 73.8266 132.814 73.9884 132.814 74.1566C132.814 74.3249 132.751 74.4867 132.638 74.6078C132.526 74.729 132.372 74.8002 132.21 74.8065H126.163C126.001 74.8002 125.847 74.729 125.735 74.6078C125.622 74.4867 125.56 74.3249 125.56 74.1566C125.56 73.9884 125.622 73.8266 125.735 73.7054C125.847 73.5843 126.001 73.5131 126.163 73.5068Z" fill="#710FAA"/>
<path id="Vector_34" d="M130.832 75.8711H132.209C132.375 75.8716 132.533 75.9401 132.651 76.0618C132.768 76.1835 132.834 76.3484 132.834 76.5205C132.834 76.6925 132.768 76.8574 132.651 76.9791C132.533 77.1008 132.375 77.1693 132.209 77.1698H130.832C130.667 77.1693 130.508 77.1008 130.391 76.9791C130.274 76.8574 130.207 76.6925 130.207 76.5205C130.207 76.3484 130.274 76.1835 130.391 76.0618C130.508 75.9401 130.667 75.8716 130.832 75.8711Z" fill="#710FAA"/>
<path id="Vector_35" d="M101.256 82.187H107.303C107.388 82.1837 107.471 82.1981 107.55 82.2293C107.629 82.2605 107.701 82.3079 107.761 82.3685C107.822 82.4292 107.87 82.5019 107.903 82.5824C107.936 82.6628 107.953 82.7494 107.953 82.8368C107.953 82.9242 107.936 83.0107 107.903 83.0912C107.87 83.1716 107.822 83.2444 107.761 83.305C107.701 83.3657 107.629 83.413 107.55 83.4442C107.471 83.4754 107.388 83.4898 107.303 83.4866H101.256C101.094 83.4804 100.94 83.4092 100.828 83.288C100.715 83.1668 100.653 83.0051 100.653 82.8368C100.653 82.6685 100.715 82.5068 100.828 82.3856C100.94 82.2644 101.094 82.1932 101.256 82.187Z" fill="#710FAA"/>
<path id="Vector_36" d="M105.923 84.5508H107.3C107.466 84.5508 107.625 84.6192 107.742 84.741C107.859 84.8628 107.925 85.0279 107.925 85.2001C107.925 85.3724 107.859 85.5375 107.742 85.6593C107.625 85.7811 107.466 85.8495 107.3 85.8495H105.923C105.757 85.8495 105.598 85.7811 105.481 85.6593C105.364 85.5375 105.298 85.3724 105.298 85.2001C105.298 85.0279 105.364 84.8628 105.481 84.741C105.598 84.6192 105.757 84.5508 105.923 84.5508Z" fill="#710FAA"/>
<path id="Vector_37" d="M104.276 80.3389C103.837 80.338 103.408 80.202 103.043 79.9479C102.678 79.6939 102.394 79.3332 102.227 78.9116C102.059 78.4899 102.016 78.0262 102.102 77.5789C102.188 77.1317 102.4 76.721 102.711 76.3988C103.022 76.0766 103.418 75.8573 103.849 75.7686C104.28 75.68 104.726 75.7259 105.132 75.9007C105.538 76.0754 105.885 76.3711 106.129 76.7504C106.373 77.1298 106.503 77.5756 106.503 78.0318C106.502 78.6442 106.267 79.2313 105.85 79.664C105.432 80.0966 104.866 80.3394 104.276 80.3389ZM104.276 76.6178C104.007 76.6187 103.744 76.7024 103.521 76.8583C103.298 77.0142 103.124 77.2353 103.021 77.4938C102.919 77.7522 102.893 78.0364 102.946 78.3103C102.999 78.5843 103.129 78.8359 103.319 79.0331C103.51 79.2304 103.753 79.3647 104.017 79.4189C104.281 79.4731 104.554 79.4448 104.803 79.3377C105.051 79.2305 105.264 79.0493 105.413 78.8168C105.563 78.5844 105.643 78.3112 105.643 78.0318C105.642 77.8458 105.607 77.6616 105.538 77.4899C105.469 77.3182 105.369 77.1622 105.242 77.0309C105.115 76.8996 104.964 76.7955 104.799 76.7246C104.633 76.6538 104.456 76.6175 104.276 76.6178Z" fill="#38516B"/>
<path id="Vector_38" d="M103.33 76.6174C103.216 76.6172 103.107 76.5699 103.026 76.4861L96.3515 69.5521H42.0892C41.9751 69.5521 41.8657 69.5051 41.7851 69.4213C41.7044 69.3376 41.6591 69.224 41.6591 69.1055C41.6591 68.9871 41.7044 68.8735 41.7851 68.7897C41.8657 68.706 41.9751 68.6589 42.0892 68.6589H96.7042L103.635 75.8591C103.695 75.9216 103.736 76.0012 103.753 76.0879C103.769 76.1747 103.761 76.2646 103.728 76.3463C103.696 76.428 103.64 76.4978 103.569 76.5469C103.499 76.5959 103.415 76.6221 103.33 76.6219V76.6174Z" fill="#38516B"/>
<path id="Vector_39" d="M117.056 128.995C116.616 128.995 116.186 128.86 115.821 128.606C115.455 128.352 115.17 127.992 115.002 127.57C114.834 127.148 114.79 126.684 114.876 126.236C114.962 125.789 115.173 125.377 115.484 125.055C115.795 124.732 116.192 124.512 116.623 124.423C117.054 124.334 117.501 124.38 117.907 124.555C118.313 124.73 118.661 125.026 118.905 125.405C119.149 125.785 119.279 126.231 119.279 126.688C119.278 127.3 119.044 127.886 118.627 128.319C118.21 128.751 117.645 128.995 117.056 128.995ZM117.056 125.273C116.786 125.273 116.523 125.356 116.299 125.511C116.075 125.667 115.9 125.888 115.797 126.146C115.694 126.405 115.667 126.689 115.719 126.964C115.772 127.238 115.902 127.49 116.092 127.688C116.283 127.886 116.526 128.021 116.79 128.076C117.054 128.13 117.328 128.102 117.577 127.995C117.826 127.888 118.039 127.707 118.189 127.474C118.339 127.241 118.419 126.968 118.419 126.688C118.418 126.313 118.275 125.953 118.019 125.688C117.764 125.422 117.417 125.273 117.056 125.273Z" fill="#38516B"/>
<path id="Vector_40" d="M178.384 136.061H124.63L117.7 128.866C117.66 128.824 117.628 128.775 117.606 128.721C117.584 128.666 117.573 128.608 117.573 128.55C117.573 128.491 117.584 128.433 117.606 128.379C117.627 128.324 117.659 128.275 117.699 128.234C117.739 128.192 117.786 128.159 117.839 128.137C117.891 128.114 117.947 128.103 118.003 128.103C118.06 128.102 118.116 128.114 118.168 128.136C118.22 128.159 118.268 128.192 118.308 128.233L124.986 135.168H178.384C178.498 135.168 178.607 135.215 178.688 135.299C178.769 135.383 178.814 135.496 178.814 135.615C178.814 135.733 178.769 135.847 178.688 135.93C178.607 136.014 178.498 136.061 178.384 136.061Z" fill="#38516B"/>
<path id="Vector_41" d="M141.641 41.1817C141.202 41.1817 140.772 41.0464 140.407 40.7929C140.041 40.5394 139.756 40.179 139.588 39.7575C139.42 39.3359 139.376 38.872 139.462 38.4244C139.547 37.9769 139.759 37.5658 140.07 37.2431C140.381 36.9205 140.776 36.7007 141.208 36.6117C141.639 36.5227 142.085 36.5684 142.491 36.743C142.897 36.9176 143.245 37.2133 143.489 37.5928C143.733 37.9722 143.863 38.4182 143.863 38.8745C143.862 39.4862 143.628 40.0726 143.212 40.5052C142.795 40.9377 142.23 41.181 141.641 41.1817ZM141.641 37.4606C141.372 37.4606 141.108 37.5435 140.884 37.6989C140.661 37.8543 140.486 38.0751 140.383 38.3334C140.28 38.5918 140.253 38.8761 140.305 39.1504C140.358 39.4247 140.488 39.6766 140.678 39.8744C140.869 40.0721 141.111 40.2068 141.375 40.2613C141.64 40.3159 141.913 40.2879 142.162 40.1809C142.411 40.0738 142.624 39.8926 142.773 39.6601C142.923 39.4276 143.003 39.1542 143.003 38.8745C143.002 38.4997 142.859 38.1403 142.604 37.8753C142.348 37.6102 142.002 37.4611 141.641 37.4606Z" fill="#38516B"/>
<path id="Vector_42" d="M140.693 37.4604C140.579 37.4602 140.47 37.413 140.39 37.3291L133.711 30.3952H79.4526C79.3385 30.3952 79.2291 30.3481 79.1484 30.2644C79.0678 30.1806 79.0225 30.067 79.0225 29.9486C79.0225 29.8301 79.0678 29.7165 79.1484 29.6328C79.2291 29.549 79.3385 29.502 79.4526 29.502H134.067L141 36.6976C141.06 36.7601 141.101 36.8398 141.118 36.9265C141.134 37.0132 141.126 37.1032 141.093 37.1849C141.061 37.2666 141.005 37.3364 140.935 37.3854C140.864 37.4345 140.78 37.4606 140.695 37.4604H140.693Z" fill="#38516B"/>
<path id="Vector_43" d="M78.3511 67.6258H42.7062C42.4171 67.6258 42.1399 67.5065 41.9355 67.2943C41.731 67.0821 41.6162 66.7942 41.6162 66.4941C41.6162 66.3455 41.6444 66.1984 41.6992 66.0611C41.754 65.9239 41.8343 65.7992 41.9355 65.6942C42.0367 65.5892 42.1569 65.5059 42.2891 65.4491C42.4214 65.3923 42.5631 65.3632 42.7062 65.3633H78.3511C78.4942 65.3632 78.6359 65.3923 78.7682 65.4491C78.9004 65.5059 79.0206 65.5892 79.1218 65.6942C79.223 65.7992 79.3033 65.9239 79.3581 66.0611C79.4129 66.1984 79.4411 66.3455 79.4411 66.4941C79.4411 66.7942 79.3262 67.0821 79.1218 67.2943C78.9174 67.5065 78.6402 67.6258 78.3511 67.6258Z" fill="#710FAA"/>
<path id="Vector_44" d="M78.3503 64.0525H56.4699C56.1808 64.0525 55.9035 63.9333 55.6991 63.7211C55.4947 63.5088 55.3799 63.221 55.3799 62.9208C55.3799 62.7723 55.4081 62.6252 55.4629 62.4879C55.5177 62.3506 55.598 62.2259 55.6992 62.1209C55.8004 62.0159 55.9206 61.9326 56.0528 61.8759C56.185 61.8191 56.3268 61.7899 56.4699 61.79H78.3503C78.4934 61.7899 78.6351 61.8191 78.7673 61.8759C78.8996 61.9326 79.0197 62.0159 79.1209 62.1209C79.2222 62.2259 79.3025 62.3506 79.3573 62.4879C79.412 62.6252 79.4402 62.7723 79.4402 62.9208C79.4402 63.221 79.3254 63.5088 79.121 63.7211C78.9166 63.9333 78.6393 64.0525 78.3503 64.0525Z" fill="#710FAA"/>
<path id="Vector_45" d="M78.3503 60.4803H56.4699C56.1808 60.4803 55.9035 60.361 55.6991 60.1488C55.4947 59.9366 55.3799 59.6487 55.3799 59.3486C55.3799 59.2 55.4081 59.0529 55.4629 58.9156C55.5177 58.7784 55.598 58.6537 55.6992 58.5487C55.8004 58.4436 55.9206 58.3604 56.0528 58.3036C56.185 58.2468 56.3268 58.2177 56.4699 58.2178H78.3503C78.4934 58.2177 78.6351 58.2468 78.7673 58.3036C78.8996 58.3604 79.0197 58.4436 79.1209 58.5487C79.2222 58.6537 79.3025 58.7784 79.3573 58.9156C79.412 59.0529 79.4402 59.2 79.4402 59.3486C79.4402 59.6487 79.3254 59.9366 79.121 60.1488C78.9166 60.361 78.6393 60.4803 78.3503 60.4803Z" fill="#710FAA"/>
<path id="Vector_46" d="M115.466 28.2371H79.8206C79.5317 28.2371 79.2547 28.118 79.0504 27.9059C78.8462 27.6938 78.7314 27.4062 78.7314 27.1063C78.7313 26.9577 78.7594 26.8106 78.8141 26.6733C78.8688 26.536 78.949 26.4112 79.0501 26.3061C79.1513 26.201 79.2714 26.1177 79.4036 26.0608C79.5358 26.0039 79.6775 25.9746 79.8206 25.9746H115.466C115.609 25.9746 115.751 26.0039 115.883 26.0608C116.016 26.1177 116.136 26.201 116.237 26.3061C116.338 26.4112 116.418 26.536 116.473 26.6733C116.527 26.8106 116.556 26.9577 116.555 27.1063C116.555 27.2548 116.527 27.4018 116.473 27.539C116.418 27.6762 116.338 27.8009 116.236 27.9059C116.135 28.0109 116.015 28.0942 115.883 28.151C115.751 28.2079 115.609 28.2371 115.466 28.2371Z" fill="#710FAA"/>
<path id="Vector_47" d="M147.336 152.933C150.366 149.788 150.366 144.689 147.336 141.543C144.307 138.398 139.395 138.398 136.366 141.543C133.337 144.689 133.337 149.788 136.366 152.933C139.395 156.079 144.307 156.079 147.336 152.933Z" fill="#710FAA"/>
<path id="Vector_48" d="M141.851 140.432C143.143 140.431 144.407 140.828 145.483 141.571C146.559 142.314 147.4 143.371 147.899 144.609C148.399 145.847 148.535 147.21 148.29 148.528C148.045 149.845 147.431 151.059 146.524 152.015L141.851 147.24L135.723 149.667C135.345 148.636 135.214 147.525 135.341 146.43C135.468 145.335 135.849 144.288 136.452 143.379C137.055 142.471 137.861 141.728 138.801 141.215C139.742 140.701 140.788 140.432 141.851 140.432Z" fill="white"/>
<path id="Vector_49" d="M142.807 143.783H145.598C145.651 143.783 145.701 143.805 145.739 143.844C145.776 143.883 145.797 143.936 145.797 143.99C145.797 144.045 145.776 144.098 145.739 144.137C145.701 144.176 145.651 144.198 145.598 144.198H142.807C142.754 144.198 142.703 144.176 142.666 144.137C142.628 144.098 142.607 144.045 142.607 143.99C142.608 143.936 142.629 143.883 142.666 143.844C142.704 143.805 142.754 143.783 142.807 143.783Z" fill="#710FAA"/>
<path id="Vector_50" d="M142.807 144.438H145.598C145.651 144.438 145.701 144.459 145.739 144.498C145.776 144.537 145.797 144.59 145.797 144.645C145.797 144.7 145.776 144.752 145.739 144.791C145.701 144.83 145.651 144.852 145.598 144.852H142.807C142.754 144.852 142.703 144.83 142.666 144.791C142.628 144.752 142.607 144.7 142.607 144.645C142.607 144.59 142.628 144.537 142.666 144.498C142.703 144.459 142.754 144.438 142.807 144.438Z" fill="#710FAA"/>
<path id="Vector_51" d="M144.447 145.094H145.599C145.652 145.094 145.703 145.116 145.741 145.154C145.778 145.193 145.799 145.246 145.799 145.301C145.799 145.356 145.778 145.409 145.741 145.448C145.703 145.486 145.652 145.508 145.599 145.508H144.447C144.394 145.508 144.343 145.486 144.306 145.448C144.268 145.409 144.247 145.356 144.247 145.301C144.247 145.246 144.268 145.193 144.306 145.154C144.343 145.116 144.394 145.094 144.447 145.094Z" fill="#710FAA"/>
<path id="Vector_52" d="M135.058 143.459L138.126 140.272H135.058V143.459Z" fill="#710FAA"/>
<path id="Vector_53" d="M175.807 147.652C176.021 143.21 172.725 139.428 168.447 139.206C164.168 138.984 160.526 142.406 160.312 146.849C160.098 151.291 163.394 155.072 167.672 155.294C171.951 155.516 175.593 152.095 175.807 147.652Z" fill="#710FAA"/>
<path id="Vector_54" d="M161.489 147.24C161.489 145.704 161.989 144.213 162.908 143.01C163.828 141.806 165.112 140.961 166.552 140.611C167.993 140.261 169.505 140.427 170.843 141.082C172.181 141.737 173.266 142.843 173.923 144.219C174.579 145.596 174.768 147.162 174.458 148.664C174.149 150.166 173.359 151.516 172.217 152.493C171.076 153.47 169.65 154.017 168.171 154.047C166.692 154.076 165.246 153.585 164.07 152.653L168.046 147.24L161.919 149.668C161.634 148.893 161.489 148.07 161.489 147.24Z" fill="white"/>
<path id="Vector_55" d="M169.059 143.783H171.85C171.903 143.783 171.953 143.805 171.991 143.844C172.028 143.883 172.049 143.936 172.049 143.99C172.049 144.045 172.028 144.098 171.991 144.137C171.953 144.176 171.903 144.198 171.85 144.198H169.059C169.006 144.198 168.955 144.176 168.918 144.137C168.88 144.098 168.859 144.045 168.859 143.99C168.86 143.936 168.881 143.883 168.918 143.844C168.955 143.805 169.006 143.783 169.059 143.783Z" fill="#710FAA"/>
<path id="Vector_56" d="M169.059 144.438H171.85C171.903 144.438 171.953 144.459 171.991 144.498C172.028 144.537 172.049 144.59 172.049 144.645C172.049 144.7 172.028 144.752 171.991 144.791C171.953 144.83 171.903 144.852 171.85 144.852H169.059C169.006 144.852 168.955 144.83 168.918 144.791C168.88 144.752 168.859 144.7 168.859 144.645C168.859 144.59 168.88 144.537 168.918 144.498C168.955 144.459 169.006 144.438 169.059 144.438Z" fill="#710FAA"/>
<path id="Vector_57" d="M170.696 145.094H171.848C171.901 145.094 171.952 145.116 171.99 145.154C172.027 145.193 172.048 145.246 172.048 145.301C172.048 145.356 172.027 145.409 171.99 145.448C171.952 145.486 171.901 145.508 171.848 145.508H170.696C170.643 145.508 170.592 145.486 170.555 145.448C170.517 145.409 170.496 145.356 170.496 145.301C170.496 145.246 170.517 145.193 170.555 145.154C170.592 145.116 170.643 145.094 170.696 145.094Z" fill="#710FAA"/>
<path id="Vector_58" d="M161.297 143.459L164.365 140.272H161.297V143.459Z" fill="#710FAA"/>
<path id="Vector_59" d="M196.444 166.341H17.1075C17.0391 166.341 16.9734 166.313 16.925 166.262C16.8766 166.212 16.8494 166.144 16.8494 166.073C16.8494 166.002 16.8766 165.934 16.925 165.883C16.9734 165.833 17.0391 165.805 17.1075 165.805H196.444C196.512 165.805 196.578 165.833 196.626 165.883C196.674 165.934 196.702 166.002 196.702 166.073C196.702 166.144 196.674 166.212 196.626 166.262C196.578 166.313 196.512 166.341 196.444 166.341Z" fill="#202F4E"/>
</g>
<defs>
<clipPath id="clip0_942_505">
<rect width="205" height="205" fill="white" transform="translate(0 0.5)"/>
</clipPath>
</defs>
</svg>
