<svg width="205" height="206" viewBox="0 0 205 206" fill="none" xmlns="http://www.w3.org/2000/svg">
<g id="Frame" clip-path="url(#clip0_942_385)">
<path id="Vector" d="M189.752 140.675C170.537 185.896 119.352 211.23 74.9636 204.396C67.7404 203.284 47.9387 199.971 30.4074 184.343C-3.34213 154.262 -10.5596 94.695 16.6631 52.7162C36.4797 22.1635 71.9997 4.84403 105.751 5.70968C113.021 5.89595 140.882 7.04634 165.368 27.2261C168.968 30.1878 176.896 37.2343 184.045 48.4086C200.832 74.6479 202.275 111.202 189.752 140.675Z" fill="#EADBF2"/>
<path id="Vector_2" d="M162.409 93.4556C179.768 93.4556 193.84 79.2923 193.84 61.8211C193.84 44.3498 179.768 30.1865 162.409 30.1865C145.051 30.1865 130.979 44.3498 130.979 61.8211C130.979 79.2923 145.051 93.4556 162.409 93.4556Z" fill="#710FAA"/>
<g id="Clip path group">
<mask id="mask0_942_385" style="mask-type:luminance" maskUnits="userSpaceOnUse" x="132" y="31" width="61" height="61">
<g id="clip-path">
<path id="Vector_3" d="M162.387 91.965C178.915 91.965 192.314 78.4797 192.314 61.8448C192.314 45.2099 178.915 31.7246 162.387 31.7246C145.859 31.7246 132.461 45.2099 132.461 61.8448C132.461 78.4797 145.859 91.965 162.387 91.965Z" fill="white"/>
</g>
</mask>
<g mask="url(#mask0_942_385)">
<g id="Group">
<path id="Vector_4" d="M199.887 99.7573L127.422 102.138C127.211 102.144 127.006 102.067 126.853 101.922C126.699 101.777 126.608 101.576 126.601 101.364L123.993 20.8608C123.986 20.6488 124.063 20.4429 124.207 20.2881C124.352 20.1333 124.551 20.0424 124.761 20.0351L197.227 17.6537C197.437 17.6475 197.642 17.7254 197.796 17.8705C197.949 18.0156 198.04 18.2159 198.048 18.428L200.658 98.9316C200.664 99.1439 200.587 99.3501 200.442 99.5048C200.298 99.6596 200.098 99.7504 199.887 99.7573Z" fill="white"/>
<path id="Vector_5" d="M146.99 65.5471C146.99 65.5471 165.119 62.0502 179.631 65.4408L179.157 80.4352C179.157 80.4352 175.993 101.316 173.414 110.581C173.414 110.581 162.447 112.874 157.077 110.153C157.077 110.153 151.916 84.2304 149.393 80.448C149.397 80.4466 146.667 70.3899 146.99 65.5471Z" fill="#710FAA"/>
<path id="Vector_6" d="M159.221 51.9434L157.807 64.3608C157.807 64.3608 162.954 66.5396 166.427 63.9769L165.379 55.2818L159.221 51.9434Z" fill="#FDBAA0"/>
<path id="Vector_7" d="M166.776 43.6402C166.837 43.7423 168.133 49.9374 168.931 53.774C169.009 54.1477 169.007 54.5338 168.927 54.9068C168.846 55.2799 168.687 55.6315 168.462 55.9385C168.236 56.2456 167.949 56.5012 167.618 56.6885C167.288 56.8758 166.922 56.9906 166.544 57.0254L165.077 57.161C163.777 57.2815 162.479 56.9094 161.437 56.1174C160.396 55.3254 159.685 54.1706 159.445 52.8791L158.156 45.9275C158.156 45.9275 165.306 41.1517 166.776 43.6402Z" fill="#FDBAA0"/>
<path id="Vector_8" d="M156.572 45.9929C155.986 45.3057 155.458 44.1817 156.619 42.9435C157.794 41.6896 159.182 41.9444 160.07 42.3255C160.462 42.4925 160.936 42.3968 161.204 42.0607C161.27 41.9754 161.357 41.909 161.457 41.868C161.556 41.8271 161.665 41.8131 161.771 41.8273C161.891 41.8401 162.011 41.8289 162.126 41.7942C162.241 41.7595 162.348 41.7022 162.441 41.6254C162.534 41.5487 162.61 41.4542 162.666 41.3473C162.723 41.2404 162.757 41.1234 162.767 41.0031C162.843 40.1232 163.273 39.0762 164.802 38.7265C167.607 38.0843 169.109 40.8818 169.123 42.8821C169.137 44.8825 166.057 45.4041 164.291 45.1301C162.993 44.9289 161.914 46.1057 161.434 46.7451C161.348 46.8593 161.289 46.9917 161.261 47.1324C161.234 47.273 161.239 47.4181 161.276 47.5565L161.785 49.4726C161.495 50.0828 161.211 50.7058 160.792 51.2325C160.491 51.6114 160.154 51.8262 159.794 51.924C159.236 50.9556 157.759 50.8364 157.074 50.8371C156.945 50.8374 156.817 50.8108 156.698 50.759C156.58 50.7072 156.473 50.6312 156.385 50.536C155.85 49.9572 154.999 48.6548 156.503 47.2982C156.681 47.1324 156.788 46.9034 156.801 46.6597C156.814 46.416 156.732 46.1769 156.572 45.9929Z" fill="#38516B"/>
<path id="Vector_9" d="M160.369 53.9755C160.369 53.9755 160.195 50.4915 158.782 50.2103C157.37 49.9292 155.89 50.9989 157.157 53.0464C158.733 55.5941 160.369 53.9755 160.369 53.9755Z" fill="#FDBAA0"/>
<path id="Vector_10" d="M146.988 65.5488C146.988 65.5488 119.696 97.3689 153.41 108.099L153.331 105.686C153.331 105.686 140.518 95.477 149.64 80.6817C149.64 80.6817 147.995 66.9654 146.988 65.5488Z" fill="#710FAA"/>
<path id="Vector_11" d="M179.63 65.4414C179.63 65.4414 210.093 94.3976 177.148 107.318L177.07 104.905C177.07 104.905 189.195 93.8767 179.134 79.7129C179.133 79.7143 177.79 67.9178 179.63 65.4414Z" fill="#710FAA"/>
</g>
</g>
</g>
<path id="Vector_12" d="M93.0852 76.3013C110.444 76.3013 124.516 62.138 124.516 44.6668C124.516 27.1955 110.444 13.0322 93.0852 13.0322C75.7264 13.0322 61.6543 27.1955 61.6543 44.6668C61.6543 62.138 75.7264 76.3013 93.0852 76.3013Z" fill="#710FAA"/>
<g id="Clip path group_2">
<mask id="mask1_942_385" style="mask-type:luminance" maskUnits="userSpaceOnUse" x="63" y="14" width="60" height="61">
<g id="clip-path-2">
<path id="Vector_13" d="M93.065 74.8107C109.593 74.8107 122.991 61.3254 122.991 44.6905C122.991 28.0556 109.593 14.5703 93.065 14.5703C76.5371 14.5703 63.1387 28.0556 63.1387 44.6905C63.1387 61.3254 76.5371 74.8107 93.065 74.8107Z" fill="white"/>
</g>
</mask>
<g mask="url(#mask1_942_385)">
<g id="Group_2">
<path id="Vector_14" d="M130.565 82.603L58.0995 84.9837C57.8893 84.9893 57.6855 84.9112 57.5322 84.7663C57.379 84.6215 57.2888 84.4216 57.2812 84.2102L54.6683 3.70653C54.6618 3.49455 54.7391 3.28862 54.8832 3.13386C55.0272 2.97909 55.2264 2.88811 55.437 2.88084L127.901 0.499406C128.112 0.49286 128.317 0.570605 128.47 0.715606C128.624 0.860608 128.715 1.06104 128.722 1.273L131.333 81.7766C131.34 81.9886 131.262 82.1945 131.118 82.3494C130.974 82.5042 130.775 82.5954 130.565 82.603Z" fill="white"/>
<path id="Vector_15" d="M91.7722 31.1152C91.7722 31.1152 92.3536 32.1857 88.8813 34.0212C86.9449 35.0439 83.1628 36.5903 82.8026 40.7145C82.6169 42.8447 81.1172 44.6003 79.0298 44.9964C73.8296 45.9905 65.8697 49.0128 64.904 58.1953C64.1701 65.2097 67.7934 67.7253 71.5329 68.5103C74.2791 69.0812 76.1829 71.6853 75.7305 74.4714C75.2959 77.144 76.1928 80.1806 80.8463 82.445C91.2737 87.5119 100.847 68.8329 100.847 68.8329L101.807 36.7809L91.7722 31.1152Z" fill="#38516B"/>
<path id="Vector_16" d="M94.2253 77.0116C97.0006 62.9528 88.4395 55.3638 88.4395 55.3638C92.4945 51.1569 99.3851 48.6263 101.937 47.7942C102.245 47.6937 102.572 47.6694 102.891 47.7232C103.21 47.777 103.511 47.9073 103.77 48.1032C106.045 49.821 112.081 54.83 111.357 59.1191C110.832 62.2084 105.621 77.716 105.621 77.716C105.621 77.716 100.389 80.4428 94.2253 77.0116Z" fill="#445D78"/>
<path id="Vector_17" d="M96.6597 38.4889L94.4276 50.5974C94.2106 51.6678 95.1636 51.4573 96.2194 51.2168C97.9487 50.8243 100.169 50.0635 100.87 48.6727C100.938 48.5289 100.979 48.3738 100.991 48.2152L101.836 39.842C101.869 39.5187 101.796 39.1936 101.629 38.9156C101.462 38.6376 101.21 38.4217 100.91 38.3005L98.672 37.3963C98.4695 37.3148 98.2516 37.279 98.0339 37.2915C97.8161 37.304 97.6038 37.3645 97.4118 37.4687C97.2199 37.573 97.053 37.7184 96.923 37.8947C96.7931 38.0709 96.7032 38.2738 96.6597 38.4889Z" fill="#FDBAA0"/>
<path id="Vector_18" d="M101.362 27.3526C101.362 27.3526 104.26 29.1789 105.65 34.0445C107.039 38.9101 105.126 40.7421 103.097 40.7071C101.068 40.6721 98.1088 40.1469 95.4392 36.7164C92.7696 33.2859 97.5706 25.1303 101.362 27.3526Z" fill="#FDBAA0"/>
<path id="Vector_19" d="M97.9355 34.6438C97.9355 34.6438 96.6492 27.6465 102.49 28.5143L103.707 29.7011C103.707 29.7011 106.433 26.3798 103.204 24.059C99.974 21.7382 95.6346 22.5182 93.3784 27.0356C91.1222 31.553 90.3571 34.6973 92.4772 37.3778C94.5972 40.0582 96.0352 37.6425 96.0352 37.6425C96.0352 37.6425 95.0234 35.2925 95.7565 34.2427C96.4897 33.193 97.5405 34.7737 97.5405 34.7737L97.9355 34.6438Z" fill="#38516B"/>
<path id="Vector_20" d="M97.1636 35.2743C97.1636 35.2743 96.5255 31.6732 94.7238 32.7765C92.9221 33.8798 95.5037 36.1307 96.5354 36.8957L97.1636 35.2743Z" fill="#FDBAA0"/>
<path id="Vector_21" d="M88.4103 55.5703C88.4103 55.5703 83.0924 64.8577 82.204 71.7123C81.3155 78.5669 92.1364 81.0204 95.9447 76.9041L95.2796 74.0852C95.2796 74.0852 89.1109 75.4411 88.4295 72.057C87.7481 68.6729 93.1447 61.6542 93.1447 61.6542C93.1447 61.6542 91.2713 56.6051 88.4103 55.5703Z" fill="#445D78"/>
<path id="Vector_22" d="M72.6515 64.3925C72.4768 64.3852 72.3072 64.3313 72.1601 64.2362C69.7061 62.7489 68.3121 59.5504 68.7701 56.4574C69.0445 54.6019 69.8954 52.9834 71.1667 51.8901C72.0686 51.1172 73.1521 50.6269 74.1859 50.1909C75.9266 49.4558 77.7233 48.7993 79.5272 48.2383L79.971 48.1013C81.0247 47.7788 82.1145 47.4441 83.0909 46.9081C84.3402 46.2209 85.2336 45.256 85.6073 44.1913C85.8399 43.529 85.8909 42.8004 85.9342 42.0967C85.9916 41.2296 86.0512 40.3333 86.4546 39.5518C86.4584 39.5444 86.4637 39.5379 86.47 39.5325C86.4763 39.5271 86.4837 39.5231 86.4916 39.5205C86.4995 39.518 86.5078 39.5171 86.516 39.5178C86.5243 39.5185 86.5323 39.5209 86.5397 39.5247C86.5471 39.5286 86.5536 39.5338 86.5589 39.5402C86.5643 39.5466 86.5683 39.554 86.5708 39.5619C86.5733 39.5699 86.5742 39.5782 86.5735 39.5866C86.5728 39.5949 86.5705 39.603 86.5666 39.6104C86.1745 40.3683 86.1164 41.2517 86.0604 42.1081C86.0136 42.8218 85.9647 43.5575 85.7264 44.2369C85.3421 45.3302 84.4274 46.3201 83.1511 47.0201C82.1627 47.5632 81.0665 47.8994 80.0065 48.2248C79.859 48.2697 79.7108 48.3147 79.564 48.3611C77.7637 48.9206 75.9706 49.5743 74.2334 50.3093C73.2095 50.7375 72.1353 51.2271 71.2475 51.9878C69.9996 53.0583 69.1636 54.6519 68.8942 56.4745C68.4432 59.5182 69.816 62.6647 72.2268 64.1255C72.4005 64.2312 72.7288 64.3575 72.8578 64.1619C72.8625 64.155 72.8684 64.1491 72.8754 64.1445C72.8823 64.1398 72.8901 64.1366 72.8982 64.135C72.9064 64.1335 72.9148 64.1335 72.923 64.1352C72.9311 64.1369 72.9388 64.1401 72.9457 64.1448C72.9526 64.1495 72.9585 64.1555 72.9631 64.1625C72.9677 64.1695 72.9709 64.1773 72.9725 64.1855C72.974 64.1937 72.974 64.2022 72.9723 64.2104C72.9707 64.2186 72.9674 64.2264 72.9627 64.2333C72.9289 64.2846 72.8825 64.3262 72.8279 64.3541C72.7734 64.382 72.7126 64.3952 72.6515 64.3925Z" fill="#91B3FA"/>
<path id="Vector_23" d="M71.9413 61.5251C71.9312 61.5254 71.9212 61.5231 71.9121 61.5185C71.9031 61.5139 71.8953 61.5071 71.8896 61.4987C70.9153 60.1428 70.3821 58.6969 70.3474 57.3246C70.307 55.7139 70.9962 54.1902 72.1477 53.3481C72.1611 53.3382 72.1779 53.3341 72.1944 53.3367C72.2109 53.3392 72.2257 53.3482 72.2356 53.3617C72.2455 53.3754 72.2496 53.3924 72.247 53.4091C72.2445 53.4258 72.2356 53.4408 72.2221 53.4509C71.1039 54.2687 70.4339 55.7517 70.4736 57.321C70.5076 58.6684 71.0323 60.0871 71.9917 61.4252C71.9966 61.4318 72.0001 61.4394 72.002 61.4475C72.004 61.4555 72.0043 61.4639 72.003 61.4721C72.0017 61.4803 71.9987 61.4881 71.9944 61.4951C71.99 61.5021 71.9842 61.5082 71.9775 61.513C71.9672 61.5211 71.9544 61.5254 71.9413 61.5251Z" fill="#91B3FA"/>
</g>
</g>
</g>
<path id="Vector_24" d="M166.753 170.214C184.112 170.214 198.184 156.051 198.184 138.58C198.184 121.109 184.112 106.945 166.753 106.945C149.394 106.945 135.322 121.109 135.322 138.58C135.322 156.051 149.394 170.214 166.753 170.214Z" fill="#710FAA"/>
<g id="Clip path group_3">
<mask id="mask2_942_385" style="mask-type:luminance" maskUnits="userSpaceOnUse" x="136" y="108" width="61" height="61">
<g id="clip-path-3">
<path id="Vector_25" d="M166.731 168.725C183.259 168.725 196.657 155.239 196.657 138.605C196.657 121.97 183.259 108.484 166.731 108.484C150.203 108.484 136.805 121.97 136.805 138.605C136.805 155.239 150.203 168.725 166.731 168.725Z" fill="white"/>
</g>
</mask>
<g mask="url(#mask2_942_385)">
<g id="Group_3">
<path id="Vector_26" d="M204.23 176.517L131.765 178.898C131.554 178.904 131.35 178.826 131.196 178.681C131.042 178.536 130.952 178.336 130.944 178.124L128.338 97.6206C128.332 97.4087 128.409 97.203 128.553 97.0483C128.697 96.8936 128.896 96.8025 129.107 96.7949L201.572 94.4134C201.783 94.4071 201.987 94.485 202.141 94.6301C202.295 94.7752 202.386 94.9757 202.393 95.1878L205.004 175.691C205.01 175.904 204.932 176.11 204.787 176.265C204.642 176.42 204.442 176.511 204.23 176.517Z" fill="white"/>
<path id="Vector_27" d="M161.469 122.775C161.41 122.887 157.711 125.63 157.711 125.63C157.711 125.63 158.528 131.515 161.847 133.836C165.496 136.391 170.65 131.732 170.65 131.732C170.65 131.732 174.751 132.713 176.932 124.121C177.428 122.15 174.544 121.98 171.057 122.346C166.561 122.815 161.469 122.775 161.469 122.775Z" fill="#38516B"/>
<path id="Vector_28" d="M154.551 142.852C155.997 141.848 157.601 141.097 159.296 140.631C159.934 140.456 163.376 141.463 165.503 141.416C168.424 141.344 171.397 140.01 173.804 140.614C176.196 141.214 178.153 141.997 179.283 142.806C182.666 145.228 184.652 149.743 185.862 154.216C183.571 156.583 180.686 157.635 180.686 157.635L180.154 179.375L167.382 185.952L152.801 178.584L153.322 157.339C153.322 157.339 148.693 155.169 148.353 154.38C148.014 153.59 150.466 145.679 154.551 142.852Z" fill="#445D78"/>
<path id="Vector_29" d="M148.571 154.285C148.571 154.285 142.368 171.595 156.512 178.71C159.45 178.316 158.321 173.407 158.321 173.407C158.321 173.407 152.174 172.038 154.019 157.599C152.321 156.191 148.571 154.285 148.571 154.285Z" fill="#FDBAA0"/>
<path id="Vector_30" d="M185.564 154.285C185.564 154.285 189.832 172.355 177.622 178.71C174.686 178.316 175.815 173.407 175.815 173.407C175.815 173.407 180.769 170.952 180.115 157.599C181.814 156.191 185.564 154.285 185.564 154.285Z" fill="#FDBAA0"/>
<path id="Vector_31" d="M159.297 140.63C159.297 140.63 160.587 146.259 166.854 146.142C173.235 146.025 173.803 140.612 173.803 140.612L169.634 139.714L169.285 135.038L163.014 135.506L162.898 139.947L159.297 140.63Z" fill="#FDBAA0"/>
<path id="Vector_32" d="M163.896 121.792C163.896 121.792 156.71 135.803 165.234 139.205C171.248 141.602 175.019 129.899 173.893 126.73C172.155 121.83 171.01 122.411 171.01 122.411L163.896 121.792Z" fill="#FDBAA0"/>
<path id="Vector_33" d="M175.624 120.516C179.174 121.498 176.14 129.249 170.794 127.416C165.449 125.583 163.349 125.61 162.515 127.088C161.681 128.566 161.503 133.811 159.696 131.218C157.715 128.375 156.61 122.669 159.039 120.829C161.211 119.188 161.718 116.636 164.321 116.725C167.778 116.842 170.451 115.298 172.012 116.412C173.803 117.69 173.009 119.794 175.624 120.516Z" fill="#38516B"/>
<path id="Vector_34" d="M162.187 128.293C162.187 128.293 160.654 126.633 160.409 128.633C160.163 130.634 160.951 133.211 161.874 131.798C162.796 130.386 162.187 128.293 162.187 128.293Z" fill="#FDBAA0"/>
</g>
</g>
</g>
<path id="Vector_35" d="M162.7 75.9941C162.7 75.9941 148.984 79.0386 140.642 82.9165C138.99 83.6862 137.666 85.0256 136.911 86.6924C134.416 92.1925 126.951 105.987 112.475 112.569C114.559 115.352 117.917 121.147 119.379 130.884C128.073 124.371 135.58 113.493 139.183 95.6544C139.183 95.6544 141.927 97.153 145.352 95.4824C147.161 94.5982 149.252 93.3415 150.817 92.3581C152.382 91.3747 153.542 89.8474 153.994 88.0633C154.591 85.7083 154.239 83.6387 154.239 81.4143L161.289 79.2155C161.289 79.2155 163.407 78.4091 162.7 75.9941Z" fill="#FDBAA0"/>
<path id="Vector_36" d="M17.7767 186.893C19.468 182.654 21.5944 178.603 24.1213 174.808C19.8875 167.621 18.6339 157.803 26.147 145.019C31.6252 159.908 34.1955 181.629 34.7323 191.247C34.8329 193.05 34.2771 195.847 33.78 197.92C33.6945 198.275 33.6813 198.643 33.7411 199.003C33.801 199.363 33.9326 199.707 34.1281 200.014C34.3237 200.321 34.579 200.586 34.8788 200.791C35.1786 200.996 35.5166 201.138 35.8724 201.208C47.1506 203.406 58.0268 204.428 67.9698 202.714C68.6863 202.59 69.35 202.255 69.8773 201.751C70.4046 201.247 70.7717 200.597 70.9323 199.884C77.4321 171.003 77.3924 151.123 75.6886 138.4C82.4246 139.914 103.008 143.145 119.378 130.883C117.916 121.146 114.557 115.353 112.474 112.568C103.481 116.657 91.7834 117.964 76.8869 112.769C75.514 112.292 74.0825 112.008 72.6326 111.924C64.7025 111.456 38.5697 110.602 16.9464 117.792C14.7026 118.536 12.6399 119.748 10.8928 121.348C9.14572 122.948 7.75347 124.901 6.80691 127.08C0.956518 140.588 -8.51359 171.359 17.7767 186.893Z" fill="#710FAA"/>
<path id="Vector_37" d="M39.1929 94.1448C39.1929 94.1448 37.6954 110.078 36.3744 114.791C36.2772 115.139 36.2987 115.509 36.4353 115.843C36.572 116.176 36.8159 116.454 37.1281 116.632C39.3659 117.916 44.732 120.017 52.0729 116.396C52.6516 116.107 53.1344 115.655 53.4626 115.095C53.7907 114.535 53.9501 113.891 53.9214 113.242L53.2775 97.8415L39.1929 94.1448Z" fill="#FDBAA0"/>
<path id="Vector_38" d="M53.5999 73.7598C53.5999 73.7598 58.3888 84.832 58.7108 90.6439C59.0327 96.4559 60.2763 100.226 53.5999 101.396C46.9235 102.567 41.2993 99.2191 38.2524 93.43C38.2524 93.43 33.4784 84.5094 34.5491 80.857C35.6197 77.2045 53.5999 73.7598 53.5999 73.7598Z" fill="#FDBAA0"/>
<path id="Vector_39" d="M40.5335 89.2687L40.9136 89.1003C41.0283 89.0498 41.1316 88.9761 41.217 88.8839C41.3024 88.7917 41.3681 88.6829 41.4101 88.5641C41.4521 88.4454 41.4695 88.3192 41.4611 88.1934C41.4528 88.0676 41.419 87.9449 41.3617 87.8328C40.4201 86.0023 38.585 81.8068 40.9561 80.8284C44.0114 79.5667 56.115 77.0824 58.7264 72.7599C61.2365 68.6058 59.01 63.2427 55.6704 61.7176C55.564 61.6668 55.4422 61.6589 55.3302 61.6957C55.2182 61.7325 55.1245 61.8111 55.0684 61.9153L54.7897 62.4448C54.7477 62.5255 54.6826 62.5916 54.6028 62.6346C54.5231 62.6777 54.4324 62.6958 54.3424 62.6865C54.2524 62.6772 54.1672 62.641 54.0978 62.5825C54.0284 62.5241 53.978 62.446 53.9531 62.3585C53.9295 62.2737 53.8819 62.1977 53.8162 62.1397C53.7504 62.0817 53.6693 62.0442 53.5828 62.0317C53.4962 62.0192 53.4079 62.0323 53.3286 62.0694C53.2494 62.1066 53.1825 62.1661 53.1362 62.2407C52.3336 63.5339 50.166 65.6306 44.3709 66.7067C36.1346 68.2368 30.6862 71.5916 30.5536 77.3201C30.5522 77.4018 30.5292 77.4817 30.4868 77.5515C30.4444 77.6212 30.3842 77.6783 30.3125 77.7167C30.2408 77.7552 30.1602 77.7736 30.079 77.7701C29.9979 77.7666 29.9191 77.7414 29.8509 77.6969C29.2433 77.3237 28.2697 77.1488 26.9693 78.2493C24.7075 80.164 25.6328 85.1295 30.5912 89.2144C30.6471 89.2582 30.6921 89.3146 30.7223 89.3791C30.7525 89.4436 30.7672 89.5143 30.7651 89.5856C30.763 89.6569 30.7443 89.7267 30.7103 89.7893C30.6764 89.8519 30.6283 89.9056 30.5699 89.9459C29.6708 90.5347 28.3307 91.9363 31.8037 93.8046C35.395 95.7365 38.0774 95.578 39.1069 95.4068C39.1676 95.3965 39.2256 95.3739 39.2774 95.3404C39.3291 95.3068 39.3735 95.2629 39.4078 95.2115C39.4421 95.16 39.4657 95.1021 39.477 95.0412C39.4882 94.9803 39.4871 94.9177 39.4735 94.8572L38.3709 89.8232C38.3563 89.7564 38.3567 89.6873 38.3722 89.6207C38.3876 89.5541 38.4177 89.4919 38.4603 89.4387C38.5028 89.3854 38.5566 89.3424 38.6179 89.3128C38.6791 89.2833 38.7462 89.268 38.8141 89.268L40.5335 89.2687Z" fill="#38516B"/>
<path id="Vector_40" d="M40.7407 90.3311C40.7407 90.3311 38.9134 83.2582 35.7631 85.2414C32.6128 87.2246 37.3982 93.1629 39.9309 93.4305L40.7407 90.3311Z" fill="#FDBAA0"/>
<path id="Vector_41" d="M40.5096 194.552L61.6777 194.815L54.2695 187.796C52.4259 186.052 49.6174 185.769 47.4916 187.154C46.0679 188.072 44.7976 189.211 43.728 190.529C43.728 190.529 30.5233 185.672 24.122 174.806C21.5951 178.601 19.4687 182.652 17.7773 186.891C23.5157 190.285 30.9544 192.951 40.5096 194.552Z" fill="#FDBAA0"/>
<path id="Vector_42" d="M42.7907 197.299C42.8319 197.299 42.8723 197.299 42.9141 197.299L96.6469 197.24C96.9594 197.24 97.2687 197.178 97.5573 197.057C97.8459 196.936 98.108 196.76 98.3288 196.537C98.5495 196.314 98.7245 196.05 98.8438 195.759C98.9631 195.469 99.0243 195.157 99.024 194.843C99.0237 194.528 98.9618 194.217 98.8419 193.926C98.722 193.636 98.5465 193.372 98.3253 193.15C98.1041 192.928 97.8416 192.752 97.5527 192.632C97.2639 192.511 96.9544 192.45 96.6419 192.45L42.9084 192.509C42.2777 192.493 41.6666 192.73 41.2096 193.168C40.7526 193.606 40.487 194.208 40.4714 194.843C40.4558 195.478 40.6914 196.093 41.1264 196.553C41.5613 197.013 42.16 197.28 42.7907 197.296V197.299Z" fill="#38516B"/>
<path id="Vector_43" d="M144.949 148.715H100.2C98.5885 148.711 97.0089 149.167 95.6439 150.028C94.2788 150.89 93.1841 152.124 92.4862 153.586L71.7988 197.27H127.41C128.446 197.273 129.459 196.963 130.318 196.381C131.177 195.799 131.844 194.972 132.231 194.005L148.273 153.582C149.2 151.246 147.471 148.715 144.949 148.715Z" fill="#38516B"/>
<path id="Vector_44" d="M120.121 173.291C121.102 170.295 120.4 167.369 118.552 166.756C116.705 166.143 114.412 168.076 113.431 171.072C112.45 174.069 113.152 176.995 114.999 177.608C116.847 178.22 119.14 176.288 120.121 173.291Z" fill="#445D78"/>
</g>
<defs>
<clipPath id="clip0_942_385">
<rect width="205" height="205" fill="white" transform="translate(0 0.5)"/>
</clipPath>
</defs>
</svg>
