<svg width="346" height="387" viewBox="0 0 346 387" fill="none" xmlns="http://www.w3.org/2000/svg">
<g clip-path="url(#clip0_947_1094)">
<rect width="295.844" height="343.624" transform="translate(0.337402 46.6282) rotate(-8.90373)" fill="#710FAA"/>
<path d="M290.359 1.19258L2.59415 46.2746C1.34778 46.4699 0.495837 47.6395 0.691277 48.887L53.1678 383.852C53.3633 385.1 54.5321 385.953 55.7784 385.758L343.544 340.676C344.79 340.48 345.642 339.311 345.447 338.063L292.97 3.09786C292.775 1.85034 291.606 0.997319 290.359 1.19258Z" fill="#D8B2ED"/>
<path opacity="0.4" d="M95.7663 185.138C97.0368 193.248 91.499 200.851 83.3966 202.12L65.538 204.918C57.4356 206.187 49.8381 200.642 48.5676 192.533C47.2971 184.423 52.8349 176.82 60.9373 175.551L78.7958 172.753C86.8982 171.484 94.4958 177.028 95.7663 185.138Z" fill="#710FAA"/>
<path opacity="0.4" d="M162.094 174.747C163.364 182.857 157.826 190.46 149.724 191.729L131.866 194.527C123.763 195.796 116.166 190.251 114.895 182.142C113.625 174.032 119.162 166.429 127.265 165.16L145.123 162.362C153.226 161.093 160.823 166.637 162.094 174.747Z" fill="#710FAA"/>
<path opacity="0.4" d="M225.874 164.755C227.144 172.865 221.606 180.468 213.504 181.737L195.645 184.535C187.543 185.804 179.946 180.26 178.675 172.15C177.404 164.04 182.942 156.437 191.045 155.168L208.903 152.37C217.006 151.101 224.603 156.646 225.874 164.755Z" fill="#710FAA"/>
<path d="M290.861 156.783C292.152 165.024 286.524 172.749 278.293 174.038L261.032 176.742C252.799 178.032 245.08 172.397 243.789 164.158C242.498 155.917 248.126 148.192 256.358 146.903L273.618 144.199C281.851 142.909 289.571 148.545 290.861 156.783Z" fill="#710FAA"/>
<path opacity="0.6" d="M102.967 231.102C104.238 239.212 98.6994 246.812 90.597 248.082L72.7384 250.879C64.6361 252.149 57.0385 246.604 55.7684 238.496C54.4979 230.386 60.0357 222.784 68.1381 221.514L85.9967 218.717C94.099 217.447 101.697 222.992 102.967 231.102Z" fill="#710FAA"/>
<path opacity="0.6" d="M169.295 220.711C170.565 228.821 165.027 236.421 156.925 237.691L139.066 240.488C130.964 241.758 123.366 236.213 122.096 228.105C120.825 219.995 126.363 212.393 134.466 211.124L152.324 208.326C160.427 207.056 168.024 212.601 169.295 220.711Z" fill="#710FAA"/>
<path opacity="0.6" d="M233.075 210.719C234.345 218.829 228.807 226.429 220.704 227.699L202.846 230.496C194.743 231.766 187.146 226.221 185.876 218.113C184.605 210.004 190.143 202.401 198.245 201.132L216.104 198.334C224.206 197.064 231.804 202.609 233.075 210.719Z" fill="#710FAA"/>
<path d="M299.402 200.328C300.672 208.438 295.134 216.038 287.032 217.308L269.173 220.105C261.071 221.375 253.473 215.83 252.203 207.722C250.933 199.613 256.471 192.01 264.573 190.741L282.432 187.943C290.534 186.673 298.131 192.218 299.402 200.328Z" fill="#9A50C5"/>
<path opacity="0.8" d="M109.344 271.809C110.615 279.919 105.077 287.521 96.9747 288.791L79.1161 291.588C71.0138 292.858 63.4162 287.313 62.1457 279.203C60.8752 271.093 66.413 263.49 74.5154 262.221L92.374 259.423C100.476 258.154 108.074 263.699 109.344 271.809Z" fill="#710FAA"/>
<path opacity="0.8" d="M175.672 261.418C176.942 269.528 171.404 277.13 163.302 278.4L145.444 281.197C137.341 282.467 129.744 276.922 128.473 268.812C127.203 260.702 132.74 253.1 140.843 251.83L158.701 249.032C166.804 247.763 174.401 253.308 175.672 261.418Z" fill="#710FAA"/>
<path opacity="0.8" d="M239.452 251.426C240.722 259.536 235.184 267.138 227.082 268.408L209.223 271.205C201.121 272.475 193.524 266.93 192.253 258.82C190.983 250.71 196.52 243.108 204.623 241.838L222.481 239.04C230.584 237.771 238.181 243.316 239.452 251.426Z" fill="#710FAA"/>
<path d="M116.345 316.494C117.615 324.604 112.078 332.207 103.975 333.476L86.1166 336.274C78.0143 337.543 70.4167 331.998 69.1462 323.888C67.8757 315.778 73.4135 308.176 81.5159 306.906L99.3745 304.109C107.477 302.839 115.074 308.384 116.345 316.494Z" fill="#710FAA"/>
<path d="M182.672 306.103C183.943 314.213 178.405 321.816 170.303 323.085L152.444 325.883C144.342 327.152 136.744 321.607 135.474 313.497C134.203 305.387 139.741 297.785 147.843 296.515L165.702 293.718C173.804 292.448 181.402 297.993 182.672 306.103Z" fill="#710FAA"/>
<path d="M246.452 296.111C247.723 304.221 242.185 311.824 234.083 313.093L216.224 315.891C208.122 317.16 200.524 311.615 199.254 303.505C197.983 295.396 203.521 287.793 211.623 286.524L229.482 283.726C237.584 282.456 245.182 288.001 246.452 296.111Z" fill="#710FAA"/>
<path d="M279.156 234.238L278.027 234.415C267.772 236.021 260.762 245.645 262.37 255.91L267.947 291.512C269.555 301.777 279.172 308.795 289.428 307.189L290.557 307.012C300.812 305.405 307.822 295.782 306.214 285.517L300.637 249.915C299.029 239.65 289.412 232.631 279.156 234.238Z" fill="#710FAA"/>
<path d="M274.198 36.9381L28.9154 75.3647C27.053 75.6564 25.7801 77.404 26.0721 79.2681L37.1864 150.213C37.4785 152.077 39.2249 153.351 41.0872 153.059L286.37 114.633C288.232 114.341 289.505 112.593 289.213 110.729L278.099 39.7849C277.807 37.9209 276.06 36.6463 274.198 36.9381Z" fill="#710FAA"/>
<path d="M264.624 45.1755L40.5501 80.2794C38.7629 80.5594 37.5412 82.2366 37.8214 84.0255L46.9183 142.092C47.1985 143.881 48.8746 145.104 50.6619 144.824L274.735 109.72C276.523 109.44 277.744 107.763 277.464 105.974L268.367 47.9076C268.087 46.1187 266.411 44.8955 264.624 45.1755Z" fill="#F7E9FF"/>
<path d="M244.312 57.2211C244.588 58.9838 243.385 60.6362 241.624 60.9121L232.694 62.311C230.933 62.5869 229.282 61.3818 229.006 59.6191C228.73 57.8564 229.933 56.204 231.694 55.9281L240.624 54.5292C242.385 54.2533 244.036 55.4584 244.312 57.2211Z" fill="#360454"/>
<path d="M251.113 100.63C251.389 102.393 250.185 104.045 248.424 104.321L239.495 105.72C237.734 105.996 236.083 104.791 235.807 103.028C235.53 101.266 236.734 99.6132 238.495 99.3373L247.424 97.9384C249.185 97.6625 250.837 98.8676 251.113 100.63Z" fill="#360454"/>
<path d="M233.081 77.2944C233.357 79.0571 232.154 80.7095 230.393 80.9854C228.632 81.2613 226.98 80.0561 226.704 78.2934L225.304 69.3559C225.028 67.5932 226.231 65.9408 227.992 65.6649C229.754 65.389 231.405 66.5942 231.681 68.3568L233.081 77.2944Z" fill="#360454"/>
<path d="M235.882 95.1695C236.158 96.9322 234.954 98.5846 233.193 98.8605C231.432 99.1364 229.781 97.9312 229.504 96.1685L228.104 87.231C227.828 85.4683 229.032 83.8159 230.793 83.54C232.554 83.2641 234.205 84.4693 234.481 86.232L235.882 95.1695Z" fill="#360454"/>
<path d="M254.765 73.8974C255.041 75.6601 253.837 77.3125 252.076 77.5884C250.315 77.8643 248.664 76.6592 248.388 74.8965L246.987 65.9589C246.711 64.1962 247.915 62.5438 249.676 62.2679C251.437 61.992 253.088 63.1972 253.364 64.9599L254.765 73.8974Z" fill="#360454"/>
<path d="M257.565 91.7725C257.841 93.5352 256.637 95.1876 254.876 95.4635C253.115 95.7394 251.464 94.5343 251.188 92.7716L249.788 83.834C249.512 82.0713 250.715 80.419 252.476 80.1431C254.237 79.8672 255.889 81.0723 256.165 82.835L257.565 91.7725Z" fill="#360454"/>
</g>
<defs>
<clipPath id="clip0_947_1094">
<rect width="295.844" height="343.624" fill="white" transform="translate(0.337402 46.6282) rotate(-8.90373)"/>
</clipPath>
</defs>
</svg>
