<svg width="400" height="371" viewBox="0 0 400 371" fill="none" xmlns="http://www.w3.org/2000/svg">
<g filter="url(#filter0_d_722_605)">
<path d="M274.451 53.021L31.1133 75.2491C45.8147 84.3241 68.5674 102.514 82.2613 139.366C109.225 211.92 79.2681 279.498 111.673 328.3C120.294 341.285 138.887 364.8 167.608 370.564L400.001 338.904C323.904 316.859 303.263 275.177 299.294 239.641C295.311 203.978 306.645 161.322 293.068 103.924C287.516 80.4507 279.939 63.5615 274.451 53.0239V53.021Z" fill="#445D78"/>
<path d="M61.1943 13.4496C132.65 8.96691 204.106 4.48273 275.562 0C285.182 8.14576 298.694 22.6255 307.499 47.6721C327.761 105.318 304.159 162.331 310.979 218.362C315.328 254.094 333.268 298.858 397.531 328.781C320.799 338.814 244.069 348.848 167.338 358.88C151.484 352.812 130.351 340.198 118.126 310.848C105.163 279.732 114.239 258.683 109.773 160.873C106.631 92.0362 100.448 64.887 87.5704 43.1221C78.6551 28.0521 68.605 18.9245 61.1943 13.4482V13.4496Z" fill="#F2F2F2"/>
<path d="M295.434 213.093C295.479 213.657 295.527 214.221 295.578 214.787C295.627 215.318 295.242 215.79 294.711 215.849L127.101 234.244C126.517 234.309 126.009 233.853 126.014 233.265C126.02 232.697 126.025 232.124 126.029 231.546C126.033 231.049 126.408 230.629 126.902 230.575L294.353 212.197C294.903 212.138 295.391 212.542 295.435 213.093H295.434Z" fill="#445D78"/>
<path d="M294.764 195.067C294.763 195.637 294.763 196.207 294.764 196.778C294.766 197.281 294.39 197.703 293.89 197.755L127.153 215.499C126.575 215.561 126.072 215.114 126.069 214.534C126.066 213.965 126.065 213.394 126.06 212.817C126.057 212.314 126.436 211.887 126.936 211.835L293.681 194.09C294.261 194.028 294.766 194.484 294.763 195.067H294.764Z" fill="#445D78"/>
<path d="M297.829 230.936C297.935 231.495 298.044 232.051 298.156 232.606C298.268 233.169 297.878 233.708 297.307 233.772L126.875 253.029C126.288 253.094 125.777 252.634 125.784 252.044C125.791 251.477 125.799 250.904 125.806 250.324C125.812 249.83 126.185 249.417 126.676 249.361L296.758 230.144C297.268 230.087 297.733 230.432 297.828 230.936H297.829Z" fill="#445D78"/>
<path d="M269.954 325.135L347.242 315.243C347.574 315.201 347.908 315.331 348.125 315.598C348.54 316.109 349.053 316.513 349.632 316.827C350.521 317.31 350.238 318.557 349.317 318.674L273.468 328.381C272.297 327.3 271.124 326.217 269.954 325.135Z" fill="#445D78"/>
<path d="M163.53 338.754L250.825 327.582C251.955 328.677 253.095 329.762 254.24 330.842L166.452 342.078C166.259 342.103 166.061 342.071 165.887 341.985C164.969 341.533 164.065 341.067 163.179 340.585C162.347 340.133 162.592 338.875 163.532 338.755L163.53 338.754Z" fill="#445D78"/>
<path d="M295.391 176.911C295.356 177.487 295.321 178.063 295.288 178.64C295.26 179.119 294.89 179.506 294.413 179.556L126.937 196.806C126.367 196.864 125.868 196.426 125.857 195.853C125.846 195.286 125.835 194.715 125.823 194.141C125.813 193.631 126.194 193.197 126.702 193.144L294.315 175.881C294.916 175.82 295.428 176.311 295.39 176.913L295.391 176.911Z" fill="#445D78"/>
<path d="M318.545 282.868C318.893 283.396 319.244 283.922 319.6 284.446C320.013 285.053 319.641 285.88 318.912 285.969L134.189 308.545C133.766 308.596 133.355 308.371 133.178 307.984C132.928 307.441 132.684 306.893 132.443 306.339C132.181 305.736 132.567 305.05 133.221 304.97L317.613 282.435C317.982 282.39 318.343 282.558 318.546 282.868H318.545Z" fill="#445D78"/>
<path d="M309.037 265.882C309.292 266.422 309.548 266.96 309.808 267.498C310.102 268.104 309.716 268.819 309.046 268.899L128.442 290.43C127.927 290.492 127.451 290.144 127.36 289.634C127.259 289.067 127.165 288.494 127.075 287.917C126.99 287.371 127.38 286.864 127.929 286.798L308.036 265.325C308.454 265.276 308.856 265.501 309.036 265.882H309.037Z" fill="#445D78"/>
<path d="M302.261 248.55C302.435 249.1 302.613 249.649 302.793 250.195C302.988 250.786 302.596 251.404 301.979 251.475L126.864 271.814C126.291 271.881 125.783 271.442 125.77 270.866C125.759 270.299 125.747 269.725 125.738 269.142C125.731 268.639 126.107 268.211 126.605 268.153L301.215 247.872C301.682 247.818 302.118 248.103 302.26 248.55H302.261Z" fill="#445D78"/>
<path d="M296.852 158.697C296.798 159.274 296.744 159.851 296.691 160.43C296.649 160.896 296.28 161.268 295.814 161.314L126.447 178.163C125.883 178.219 125.39 177.789 125.371 177.224C125.352 176.657 125.333 176.088 125.313 175.516C125.295 175 125.681 174.556 126.194 174.505L295.78 157.635C296.393 157.573 296.909 158.086 296.852 158.698V158.697Z" fill="#445D78"/>
<path d="M291.799 50.3033C292.234 50.2697 292.641 50.5284 292.793 50.9375C293.001 51.4942 293.204 52.0538 293.403 52.6192C293.403 52.6236 293.406 52.628 293.407 52.6309C293.619 53.2344 293.192 53.8743 292.553 53.9225L114.507 67.4745C114.04 67.5095 113.615 67.2071 113.491 66.7571C113.334 66.1974 113.178 65.6422 113.017 65.0914C112.844 64.4938 113.261 63.8918 113.882 63.845L291.8 50.3033H291.799Z" fill="#445D78"/>
<path d="M297.82 68.5135C297.939 69.0804 298.053 69.6459 298.163 70.2128C298.274 70.7856 297.858 71.3291 297.276 71.3759L118.642 85.7212C118.141 85.7621 117.69 85.4114 117.601 84.9161C117.499 84.3521 117.393 83.791 117.288 83.2358C117.18 82.663 117.591 82.1268 118.171 82.0801L296.779 67.7377C297.272 67.6982 297.72 68.0313 297.82 68.5135Z" fill="#445D78"/>
<path d="M284.204 35.7625L108.065 49.142C107.65 49.1742 107.263 48.936 107.096 48.5561C105.094 43.9653 102.882 39.6652 100.432 35.5258C99.1983 33.4393 97.9129 31.4084 96.5838 29.43C96.1612 28.8017 96.5721 27.9528 97.328 27.9017L270.657 16.2302C270.944 16.2112 271.225 16.3164 271.426 16.521C276.591 21.7503 281.118 27.6883 284.982 34.2985C285.346 34.9209 284.923 35.7099 284.205 35.764L284.204 35.7625Z" fill="#445D78"/>
<path d="M298.636 140.474C298.581 141.051 298.524 141.628 298.468 142.207C298.423 142.673 298.053 143.044 297.585 143.088L125.698 159.565C125.14 159.619 124.651 159.192 124.626 158.633C124.599 158.061 124.572 157.492 124.545 156.926C124.52 156.404 124.909 155.956 125.43 155.906L297.566 139.404C298.18 139.346 298.696 139.859 298.636 140.472V140.474Z" fill="#445D78"/>
<path d="M300.198 122.302C300.158 122.878 300.116 123.453 300.074 124.029C300.038 124.507 299.661 124.891 299.183 124.935L124.688 141.013C124.139 141.064 123.655 140.648 123.621 140.097C123.586 139.526 123.549 138.959 123.513 138.393C123.479 137.864 123.872 137.407 124.4 137.357L299.126 121.257C299.729 121.202 300.239 121.698 300.198 122.3V122.302Z" fill="#445D78"/>
<path d="M300.97 104.222C300.964 104.796 300.955 105.372 300.945 105.946C300.936 106.447 300.549 106.861 300.05 106.904L123.32 122.512C122.78 122.56 122.303 122.157 122.257 121.618C122.207 121.048 122.157 120.483 122.107 119.92C122.059 119.381 122.457 118.908 122.997 118.859L299.901 103.237C300.479 103.186 300.976 103.643 300.97 104.222Z" fill="#445D78"/>
<path d="M300.369 86.2808C300.416 86.8521 300.46 87.4234 300.501 87.9947C300.539 88.5294 300.138 88.9955 299.603 89.0408L121.407 104.074C120.882 104.118 120.417 103.737 120.353 103.215C120.283 102.648 120.211 102.084 120.14 101.525C120.069 100.972 120.473 100.474 121.029 100.427L299.308 85.3866C299.847 85.3413 300.325 85.7416 300.369 86.2808Z" fill="#445D78"/>
<path d="M341.461 324.232L310.513 305.078C300.226 298.653 289.908 292.26 279.825 285.566C277.323 283.884 274.787 282.19 272.464 280.379C272.18 280.153 271.898 279.923 271.648 279.695C271.523 279.583 271.405 279.469 271.313 279.371C271.272 279.326 271.231 279.278 271.222 279.263C271.206 279.244 271.235 279.276 271.235 279.288C271.256 279.323 271.272 279.361 271.284 279.4C271.3 279.441 271.339 279.608 271.327 279.709C271.339 279.888 271.235 280.169 271.121 280.311C270.976 280.498 270.824 280.581 270.779 280.604C270.677 280.652 270.627 280.664 270.612 280.67C270.586 280.679 270.539 280.683 270.547 280.685C270.533 280.688 270.525 280.685 270.547 280.688C270.557 280.688 270.58 280.688 270.609 280.69C270.719 280.698 270.871 280.718 271.029 280.749C271.345 280.807 271.689 280.895 272.028 280.991C273.396 281.387 274.772 281.935 276.102 282.549C278.76 283.787 281.297 285.328 283.48 287.213C285.65 289.089 287.481 291.371 288.292 293.956C289.149 296.544 288.763 299.288 287.516 301.792C286.28 304.317 284.391 306.612 282.509 309.011C281.566 310.214 280.614 311.454 279.766 312.837C278.921 314.207 278.16 315.771 277.875 317.566C277.725 318.46 277.76 319.403 277.908 320.313C278.005 320.763 278.102 321.216 278.273 321.637C278.412 322.075 278.612 322.474 278.817 322.873C279.649 324.464 280.858 325.711 282.138 326.758C284.732 328.837 287.694 330.167 290.711 331.121C293.735 332.077 296.855 332.628 299.992 332.863C306.258 333.32 312.675 332.477 318.564 330.003C321.507 328.753 324.232 327.077 326.722 325.141C329.212 323.199 331.487 320.994 333.473 318.506C334.461 317.258 335.386 315.944 336.169 314.507C336.949 313.07 337.638 311.532 337.933 309.727C338.072 308.829 338.108 307.841 337.845 306.805C337.773 306.546 337.708 306.289 337.585 306.037L337.415 305.658C337.348 305.528 337.253 305.383 337.167 305.25C336.808 304.716 336.289 304.254 335.766 303.981C334.697 303.399 333.719 303.314 332.835 303.262C331.946 303.224 331.116 303.291 330.313 303.386C327.114 303.783 324.18 304.58 321.23 305.338C318.295 306.137 315.381 306.938 312.452 307.677C309.524 308.424 306.582 309.098 303.62 309.695C300.651 310.258 297.668 310.747 294.668 311.112C288.668 311.842 282.626 312.245 276.586 312.284C270.545 312.338 264.503 312.034 258.514 311.316H258.511C257.647 311.212 256.863 311.827 256.759 312.691C256.655 313.554 257.271 314.337 258.135 314.441C258.196 314.448 258.258 314.453 258.318 314.453C264.442 314.473 270.545 314.415 276.637 314.12C279.681 313.956 282.724 313.801 285.758 313.522C287.278 313.406 288.792 313.255 290.309 313.117C291.822 312.945 293.339 312.803 294.848 312.601C300.891 311.866 306.94 311.064 312.95 309.986C315.952 309.448 318.943 308.848 321.915 308.257C323.4 307.956 324.875 307.636 326.343 307.362C327.808 307.089 329.266 306.804 330.676 306.66C331.379 306.583 332.068 306.555 332.695 306.576C333.314 306.596 333.891 306.709 334.154 306.875C334.54 306.953 334.887 308.038 334.666 309.222C334.48 310.418 333.944 311.707 333.277 312.926C332.613 314.155 331.788 315.334 330.898 316.463C329.105 318.721 327.001 320.773 324.711 322.565C322.417 324.355 319.933 325.884 317.29 327.014C311.978 329.267 306.035 330.057 300.216 329.698C297.303 329.507 294.402 329.017 291.632 328.168C288.87 327.33 286.196 326.124 284.034 324.415C281.869 322.727 280.376 320.392 280.779 317.994C280.958 316.786 281.506 315.541 282.242 314.336C282.97 313.126 283.852 311.944 284.764 310.749C286.582 308.36 288.576 305.923 289.986 302.967C290.693 301.5 291.195 299.866 291.362 298.173C291.537 296.478 291.322 294.742 290.79 293.149C290.265 291.547 289.437 290.083 288.453 288.784C287.469 287.48 286.33 286.333 285.113 285.306C282.673 283.256 279.949 281.656 277.097 280.369C275.664 279.73 274.208 279.166 272.657 278.738C272.265 278.633 271.871 278.535 271.44 278.461C271.225 278.423 271.001 278.392 270.732 278.376C270.666 278.372 270.596 278.37 270.51 278.372C270.438 278.372 270.335 278.379 270.228 278.392C270.187 278.395 270.095 278.414 270.023 278.433C269.962 278.448 269.867 278.474 269.723 278.547C269.633 278.588 269.444 278.7 269.27 278.925C269.121 279.099 269.017 279.434 269.018 279.657C269.016 279.805 269.055 280.02 269.087 280.105C269.116 280.188 269.152 280.27 269.19 280.349C269.242 280.441 269.312 280.557 269.358 280.612C269.46 280.75 269.548 280.844 269.634 280.939C269.804 281.116 269.962 281.262 270.12 281.401C270.434 281.678 270.744 281.924 271.057 282.166C273.544 284.053 276.083 285.698 278.633 287.369C283.737 290.68 288.896 293.88 294.067 297.064C299.24 300.242 304.424 303.398 309.631 306.516C320.045 312.749 330.459 318.981 340.963 325.06C341.195 325.196 341.492 325.117 341.628 324.885C341.761 324.657 341.686 324.365 341.464 324.226L341.461 324.232Z" fill="#800639"/>
<path d="M11.7778 167.002L73.7626 208.32C75.5188 209.49 78.224 208.523 79.8032 206.157C81.3824 203.792 81.2376 200.925 79.4815 199.755L17.4967 158.437C15.7405 157.267 13.0354 158.234 11.4576 160.599C9.87838 162.965 10.0231 165.832 11.7793 167.002H11.7778Z" fill="#F2F2F2"/>
<path d="M0.242151 146.936L13.7607 155.947L20.7517 145.475L7.23317 136.465C6.98312 136.298 6.64681 136.365 6.48011 136.615L0.0915393 146.184C-0.0751573 146.434 -0.00789377 146.77 0.242151 146.936Z" fill="#F2F2F2"/>
<path d="M252.947 311.056L258.727 314.909C259.378 315.342 260.378 314.983 260.963 314.108C261.548 313.233 261.494 312.172 260.845 311.738L255.064 307.885L252.948 311.056H252.947Z" fill="#38516B"/>
<path d="M257.342 311.695C256.27 313.301 254.508 314.127 253.125 313.672L224.559 304.296L237.913 284.291L257.548 307.045C258.5 308.148 258.414 310.09 257.342 311.695Z" fill="#445D78"/>
<path d="M9.64317 160.507L225.141 304.683C229.244 307.419 242.599 287.413 238.497 284.678L22.9979 140.503C20.5501 138.871 16.7833 140.221 14.5826 143.516L9.19425 151.587C6.99357 154.882 7.19536 158.876 9.64317 160.507Z" fill="#9F2F5E"/>
<g style="mix-blend-mode:multiply">
<path d="M55.1464 190.956L57.1208 192.271L70.5271 172.185L68.5527 170.869L55.1464 190.956Z" fill="#800639"/>
</g>
</g>
<defs>
<filter id="filter0_d_722_605" x="-5" y="-5" width="418.001" height="388.564" filterUnits="userSpaceOnUse" color-interpolation-filters="sRGB">
<feFlood flood-opacity="0" result="BackgroundImageFix"/>
<feColorMatrix in="SourceAlpha" type="matrix" values="0 0 0 0 0 0 0 0 0 0 0 0 0 0 0 0 0 0 127 0" result="hardAlpha"/>
<feOffset dx="4" dy="4"/>
<feGaussianBlur stdDeviation="4.5"/>
<feComposite in2="hardAlpha" operator="out"/>
<feColorMatrix type="matrix" values="0 0 0 0 0 0 0 0 0 0 0 0 0 0 0 0 0 0 0.1 0"/>
<feBlend mode="normal" in2="BackgroundImageFix" result="effect1_dropShadow_722_605"/>
<feBlend mode="normal" in="SourceGraphic" in2="effect1_dropShadow_722_605" result="shape"/>
</filter>
</defs>
</svg>
