<svg width="358" height="492" viewBox="0 0 358 492" fill="none" xmlns="http://www.w3.org/2000/svg">
<g clip-path="url(#clip0_999_3630)">
<path d="M276.8 196.31H55.7955V203.164H276.8V196.31Z" fill="white"/>
<path d="M0 85.8201C0 69.3363 13.3778 55.9722 29.8824 55.9722H283.997C298.017 55.9722 309.577 66.9463 310.29 80.9319L313.583 448.928C314.14 459.872 306.628 474.394 295.661 474.593L18.7646 474.589C8.45768 474.776 0.00174782 466.482 0.00174782 456.185V85.8201H0Z" fill="#38516B"/>
<path d="M19.0127 76.5936C18.9813 71.3195 23.578 68.0618 28.8582 67.9466C65.5134 67.1418 182.635 68.7427 281.551 67.1662C286.063 67.0947 289.954 70.2266 290.193 74.7273L294.642 444.362C294.911 449.43 290.597 459.327 285.525 459.628C244.03 462.08 89.7923 460.214 27.8462 459.622C24.1164 459.587 21.3199 456.115 21.2989 452.39L19.0127 76.5936Z" fill="#2A9447"/>
<path d="M24.9064 86.1955C24.8767 81.1204 29.3004 77.786 34.3796 77.8733C73.9711 78.5646 182.091 82.4455 276.961 78.0374C281.299 77.8366 285.048 80.9825 285.279 85.3139L289.575 436.805C289.833 441.683 286.105 445.853 281.224 446.141C241.291 448.502 92.4805 451.548 33.406 451.49C29.816 451.487 27.1261 448.114 27.1052 444.53L24.9047 86.1955H24.9064Z" fill="#69D186"/>
<g opacity="0.6">
<path d="M101.429 413.799C101.954 415.785 103.761 417.164 105.818 417.147L273.484 415.719C275.381 415.703 276.898 414.141 276.858 412.247C276.817 410.405 275.316 408.931 273.472 408.923L105.802 408.158C102.843 408.144 100.676 410.939 101.431 413.799H101.429Z" fill="white"/>
</g>
<path d="M175.332 9.0153C175.332 -2.15434 155.54 -0.453933 149.922 1.20283C144.798 2.71295 141.475 7.65532 141.963 12.9713L144.385 39.387L173.217 41.9429C173.217 41.9429 175.332 25.6126 175.332 9.0153ZM160.021 27.1105C156.05 27.1105 152.833 23.8948 152.833 19.93C152.833 15.9653 156.052 12.7496 160.021 12.7496C163.991 12.7496 167.21 15.9653 167.21 19.93C167.21 23.8948 163.991 27.1105 160.021 27.1105Z" fill="#38516B"/>
<path d="M105.033 56.4592V43.1772C105.033 38.5927 108.838 34.9213 113.425 35.0766L205.017 35.0714C209.086 35.2111 212.381 38.4181 212.624 42.4771L213.471 58.3814L105.032 56.4575L105.033 56.4592Z" fill="#38516B"/>
<path d="M67.6807 59.8129C67.9027 55.2144 71.6989 51.5989 76.3096 51.5989L236.619 51.5936C242.384 51.5936 247.312 55.7364 248.295 61.4103L248.431 62.1924C249.508 68.4057 244.719 74.09 238.404 74.09H73.9344C70.1556 74.09 67.1441 70.9336 67.3259 67.1644L67.6789 59.8111L67.6807 59.8129Z" fill="#C3EDCF"/>
<path d="M134.76 167.142C151.002 150.919 151.002 124.615 134.76 108.392C118.517 92.1681 92.1835 92.1681 75.9412 108.392C59.6989 124.615 59.6989 150.919 75.9412 167.142C92.1835 183.366 118.517 183.366 134.76 167.142Z" fill="#38516B"/>
<path d="M129.162 126.288H115.342V114.397C115.342 111.606 113.077 109.343 110.282 109.343H100.153C97.3587 109.343 95.0935 111.606 95.0935 114.397V126.288H81.2735C78.4787 126.288 76.2136 128.55 76.2136 131.342V143.098C76.2136 145.89 78.4787 148.152 81.2735 148.152H95.0935V160.043C95.0935 162.834 97.3587 165.097 100.153 165.097H110.282C113.077 165.097 115.342 162.834 115.342 160.043V148.152H129.162C131.957 148.152 134.222 145.89 134.222 143.098V131.342C134.222 128.55 131.957 126.288 129.162 126.288Z" fill="white"/>
<path opacity="0.6" d="M269.136 195.249H48.0737V203.105H269.136V195.249Z" fill="white"/>
<path opacity="0.6" d="M269.136 217.749H48.0737V225.605H269.136V217.749Z" fill="white"/>
<path opacity="0.6" d="M47.9379 248.105H269L269.134 240.249H48.0737L47.9379 248.105Z" fill="white"/>
<path opacity="0.6" d="M270.738 126.544H173.581V134.401H270.738V126.544Z" fill="white"/>
<path opacity="0.6" d="M270.738 111.827H173.581V119.683H270.738V111.827Z" fill="white"/>
<path opacity="0.6" d="M270.738 97.6095H173.581V105.466H270.738V97.6095Z" fill="white"/>
<path opacity="0.6" d="M324.167 292.343H103.105V300.199H324.167V292.343Z" fill="white"/>
<path opacity="0.6" d="M324.167 329.974H103.105V337.83H324.167V329.974Z" fill="white"/>
<path opacity="0.6" d="M324.167 367.606H103.105V375.463H324.167V367.606Z" fill="white"/>
<path d="M88.7978 282.717H59.2912V307.502H88.7978V282.717Z" fill="white"/>
<path d="M88.7978 321.709H59.2912V346.494H88.7978V321.709Z" fill="white"/>
<path d="M88.7978 360.703H59.2912V385.489H88.7978V360.703Z" fill="white"/>
<path d="M237.523 301.79H324.718V278.86H237.523V301.79Z" fill="#2A9447"/>
<path d="M210.563 485.015H351.68C355.17 485.015 358 482.189 358 478.702V298.075C358 294.588 355.17 291.762 351.68 291.762H210.563C207.072 291.762 204.243 294.588 204.243 298.075L204.243 478.702C204.243 482.189 207.072 485.015 210.563 485.015Z" fill="#2A9447"/>
<path d="M223.703 454.849H338.538V331.948H223.703V454.849Z" fill="white"/>
<path d="M338.04 286.229H224.201C223.589 286.229 223.093 285.734 223.093 285.123V252.287C223.093 251.134 224.032 250.196 225.187 250.196H337.054C338.209 250.196 339.148 251.134 339.148 252.287V285.123C339.148 285.734 338.652 286.229 338.04 286.229Z" fill="white"/>
<path d="M326.186 281.497H330.353V255.339H326.186V281.497Z" fill="#38516B"/>
<path d="M317.613 281.497H321.78V255.339H317.613V281.497Z" fill="#38516B"/>
<path d="M309.042 281.497H313.209V255.339H309.042V281.497Z" fill="#38516B"/>
<path d="M300.467 281.497H304.634V255.339H300.467V281.497Z" fill="#38516B"/>
<path d="M291.896 281.497H296.063V255.339H291.896V281.497Z" fill="#38516B"/>
<path d="M283.325 281.497H287.491V255.339H283.325V281.497Z" fill="#38516B"/>
<path d="M274.75 281.497H278.917V255.339H274.75V281.497Z" fill="#38516B"/>
<path d="M266.178 281.497H270.345V255.339H266.178V281.497Z" fill="#38516B"/>
<path d="M257.605 281.497H261.772V255.339H257.605V281.497Z" fill="#38516B"/>
<path d="M249.034 281.497H253.201V255.339H249.034V281.497Z" fill="#38516B"/>
<path d="M240.461 281.497H244.628V255.339H240.461V281.497Z" fill="#38516B"/>
<path d="M231.888 281.497H236.055V255.339H231.888V281.497Z" fill="#38516B"/>
<path d="M172.427 476.207C189.348 479.973 220.44 479.631 238.29 475.361C244.151 473.959 248.274 468.715 248.274 462.695V281.27H161.794V462.917C161.794 469.285 166.205 474.821 172.427 476.207Z" fill="#C3EDCF"/>
<path d="M250.322 300.267H159.71C159.099 300.267 158.602 299.772 158.602 299.161V271.954C158.602 270.8 159.541 269.862 160.696 269.862H249.337C250.492 269.862 251.43 270.8 251.43 271.954V299.161C251.43 299.772 250.934 300.267 250.322 300.267Z" fill="#38516B"/>
<path d="M241.064 296.275H244.397V274.204H241.064V296.275Z" fill="white"/>
<path d="M234.207 296.275H237.541V274.204H234.207V296.275Z" fill="white"/>
<path d="M227.351 296.275H230.684V274.204H227.351V296.275Z" fill="white"/>
<path d="M220.494 296.275H223.827V274.204H220.494V296.275Z" fill="white"/>
<path d="M213.636 296.275H216.969V274.204H213.636V296.275Z" fill="white"/>
<path d="M206.779 296.275H210.112V274.204H206.779V296.275Z" fill="white"/>
<path d="M199.922 296.275H203.255V274.204H199.922V296.275Z" fill="white"/>
<path d="M193.066 296.275H196.399V274.204H193.066V296.275Z" fill="white"/>
<path d="M186.209 296.275H189.542V274.204H186.209V296.275Z" fill="white"/>
<path d="M179.352 296.275H182.685V274.204H179.352V296.275Z" fill="white"/>
<path d="M172.496 296.275H175.829V274.204H172.496V296.275Z" fill="white"/>
<path d="M165.639 296.275H168.972V274.204H165.639V296.275Z" fill="white"/>
<path d="M175.829 434.207H235.873V329.152H175.829V434.207Z" fill="#38516B"/>
<path d="M99.7933 417.91L149.707 423.683C139.352 442.966 134.879 464.35 135.255 486.145L92.456 481.193C75.032 479.179 62.4285 463.29 64.4455 445.886C66.4625 428.483 82.3693 415.894 99.7933 417.908V417.91Z" fill="white"/>
<path d="M149.707 423.683L191.374 428.503C208.798 430.518 221.401 446.407 219.384 463.811C217.367 481.214 201.46 493.803 184.036 491.789L135.255 486.146C134.877 464.352 139.352 442.967 149.707 423.685V423.683Z" fill="#2A9447"/>
</g>
<defs>
<clipPath id="clip0_999_3630">
<rect width="358" height="492" fill="white"/>
</clipPath>
</defs>
</svg>
