<svg width="409" height="358" viewBox="0 0 409 358" fill="none" xmlns="http://www.w3.org/2000/svg">
<g clip-path="url(#clip0_722_534)" filter="url(#filter0_d_722_534)">
<path d="M148.89 17.5426H93.4214V41.9791H148.89V17.5426Z" fill="#236FE0"/>
<g opacity="0.7">
<path d="M148.89 17.5426H93.4214V41.9791H148.89V17.5426Z" fill="#236FE0"/>
</g>
<path d="M168.756 17.5426H113.287V41.9791H168.756V17.5426Z" fill="#5596F8"/>
<path d="M150.763 40.8243H49.8198V344.505H150.763V40.8243Z" fill="#5596F8"/>
<g opacity="0.7">
<path d="M88.0313 40.8243H49.8198V344.505H88.0313V40.8243Z" fill="#236FE0"/>
</g>
<path d="M215.792 40.8243H114.849V344.505H215.792V40.8243Z" fill="#5596F8"/>
<path d="M140.336 61.9961H106.346V148.255H140.336V61.9961Z" fill="#FAFAFA"/>
<path d="M201.657 61.9961H167.667V148.255H201.657V61.9961Z" fill="#FAFAFA"/>
<path d="M140.336 167.02H106.346V253.278H140.336V167.02Z" fill="#FAFAFA"/>
<path d="M123.706 252.619C123.565 252.619 123.444 237.46 123.444 218.762C123.444 200.064 123.565 184.905 123.706 184.905C123.847 184.905 123.968 200.064 123.968 218.762C123.968 237.46 123.877 252.619 123.706 252.619Z" fill="#263238"/>
<path d="M201.657 167.02H167.667V253.278H201.657V167.02Z" fill="#FAFAFA"/>
<path d="M154.934 344.505C154.925 344.392 154.925 344.278 154.934 344.164C154.934 343.911 154.934 343.582 154.934 343.164C154.934 342.274 154.934 340.965 154.934 339.339C154.934 336.041 154.934 331.149 154.863 325.048C154.863 312.857 154.793 295.698 154.742 275.692L154.994 275.966H124.772C124.701 275.966 125.265 275.439 125.023 275.692V295.203C125.023 301.502 125.023 307.592 125.023 313.407C125.023 325.037 125.023 335.579 125.023 344.549L124.832 344.34L146.864 344.461H152.909H154.491H155.045C154.873 344.471 154.702 344.471 154.531 344.461H152.979L146.995 344.516L124.832 344.637H124.641V344.417C124.641 335.447 124.641 324.905 124.641 313.275C124.641 307.46 124.641 301.37 124.641 295.071C124.641 291.928 124.641 288.729 124.641 285.475V275.582C124.409 275.835 124.953 275.219 124.913 275.285H155.347V275.56C155.347 295.632 155.256 312.857 155.226 325.092C155.226 331.16 155.226 335.975 155.166 339.317C155.166 340.943 155.166 342.208 155.166 343.087C155.166 343.494 155.166 343.813 155.166 344.054C155.101 344.212 155.023 344.363 154.934 344.505Z" fill="#263238"/>
<path d="M185.126 344.505C185.126 344.505 185.126 344.384 185.126 344.165C185.126 343.945 185.126 343.582 185.126 343.164C185.126 342.274 185.126 340.966 185.126 339.339C185.126 336.041 185.126 331.149 185.056 325.049C185.056 312.858 184.985 295.698 184.935 275.692L185.186 275.967H154.964L155.226 275.692V285.585C155.226 288.839 155.226 292.038 155.226 295.182C155.226 301.48 155.226 307.57 155.226 313.385C155.226 325.016 155.226 335.557 155.226 344.527L155.034 344.319L177.057 344.439H183.101H184.683H185.237C185.066 344.449 184.894 344.449 184.723 344.439H183.182L177.188 344.494L155.024 344.615H154.833V344.395C154.833 335.426 154.833 324.884 154.772 313.254C154.772 307.438 154.772 301.349 154.772 295.05V275.714L155.034 275.417H185.479V275.692C185.428 295.764 185.388 312.99 185.358 325.224C185.358 331.292 185.307 336.107 185.287 339.449C185.287 341.076 185.287 342.34 185.287 343.219V344.187C185.246 344.3 185.192 344.407 185.126 344.505Z" fill="#263238"/>
<path d="M158.894 308.955C158.894 308.955 159.287 308.515 160.023 308.845C160.237 308.95 160.421 309.117 160.555 309.328C160.688 309.54 160.765 309.787 160.778 310.043C160.794 310.362 160.716 310.679 160.557 310.947C160.398 311.216 160.165 311.423 159.892 311.538C159.608 311.635 159.304 311.627 159.025 311.515C158.747 311.404 158.509 311.196 158.35 310.923C158.249 310.741 158.192 310.534 158.183 310.321C158.175 310.109 158.216 309.897 158.302 309.707C158.388 309.516 158.518 309.352 158.677 309.23C158.837 309.108 159.023 309.033 159.217 309.01C159.428 309.01 159.529 309.076 159.529 309.109C159.529 309.142 159.065 309.109 158.753 309.702C158.667 309.838 158.621 309.999 158.621 310.164C158.621 310.329 158.667 310.49 158.753 310.626C158.865 310.795 159.022 310.921 159.202 310.988C159.383 311.055 159.578 311.059 159.761 310.999C159.93 310.92 160.075 310.788 160.177 310.62C160.279 310.452 160.334 310.256 160.335 310.054C160.333 309.882 160.291 309.714 160.211 309.565C160.132 309.417 160.018 309.294 159.882 309.208C159.338 308.867 158.914 309.043 158.894 308.955Z" fill="#263238"/>
<path d="M148.235 308.955C148.175 308.955 148.628 308.515 149.353 308.845C149.571 308.945 149.757 309.111 149.891 309.324C150.025 309.536 150.101 309.786 150.109 310.043C150.126 310.363 150.049 310.68 149.89 310.949C149.73 311.218 149.496 311.424 149.222 311.538C148.941 311.634 148.638 311.625 148.361 311.514C148.084 311.403 147.848 311.195 147.691 310.923C147.561 310.7 147.499 310.438 147.515 310.175C147.532 309.912 147.625 309.661 147.782 309.461C147.877 309.333 147.995 309.228 148.128 309.15C148.261 309.073 148.407 309.025 148.557 309.01C148.769 309.01 148.87 309.076 148.86 309.109C148.85 309.142 148.406 309.109 148.084 309.702C147.995 309.837 147.948 309.998 147.948 310.164C147.948 310.33 147.995 310.491 148.084 310.626C148.192 310.799 148.349 310.928 148.53 310.996C148.712 311.063 148.909 311.065 149.091 310.999C149.263 310.923 149.409 310.791 149.511 310.623C149.614 310.454 149.667 310.256 149.666 310.054C149.668 309.883 149.628 309.714 149.55 309.565C149.472 309.416 149.359 309.292 149.222 309.208C148.678 308.867 148.255 309.043 148.235 308.955Z" fill="#263238"/>
<path d="M364.708 5H291.136V344.483H364.708V5Z" fill="#5596F8"/>
<path d="M327.214 28.7983H304.849V75.8135H327.214V28.7983Z" fill="#E0E0E0"/>
<path d="M396 5H342.396V344.483H396V5Z" fill="#5596F8"/>
<path d="M380.062 28.7983H357.697V75.8135H380.062V28.7983Z" fill="#E0E0E0"/>
<path d="M380.062 86.6423H357.697V133.658H380.062V86.6423Z" fill="#E0E0E0"/>
<path d="M380.171 119.796C380.171 119.95 375.134 120.082 368.898 120.082C362.662 120.082 357.625 119.95 357.625 119.796C357.625 119.642 362.662 119.51 368.898 119.51C375.134 119.51 380.171 119.642 380.171 119.796Z" fill="#5596F8"/>
<path d="M316.666 73.0549H279.765V131.25H316.666V73.0549Z" fill="#2D4257"/>
<path d="M349.859 73.0549H312.957V131.25H349.859V73.0549Z" fill="#38516B"/>
<path d="M387.84 119.498H234.833V344.527H387.84V119.498Z" fill="#38516B"/>
<path d="M296.114 119.498H214.05V344.527H296.114V119.498Z" fill="#2D4257"/>
<path d="M376.617 241.593H348.631V272.13H376.617V241.593Z" fill="#EBEBEB"/>
<path d="M336.703 241.593H308.717V272.13H336.703V241.593Z" fill="#EBEBEB"/>
<path d="M376.617 193.358H348.631V223.895H376.617V193.358Z" fill="#EBEBEB"/>
<path d="M336.703 193.358H308.717V223.895H336.703V193.358Z" fill="#EBEBEB"/>
<path d="M376.617 145.001H348.631V175.538H376.617V145.001Z" fill="#EBEBEB"/>
<path d="M336.703 145.001H308.717V175.539H336.703V145.001Z" fill="#EBEBEB"/>
<g opacity="0.7">
<path d="M267.996 145.001H240.01V175.538H267.996V145.001Z" fill="white"/>
</g>
<g opacity="0.7">
<path d="M267.996 193.83H240.01V224.368H267.996V193.83Z" fill="white"/>
</g>
<g opacity="0.7">
<path d="M267.996 242.659H240.01V273.197H267.996V242.659Z" fill="white"/>
</g>
<path d="M157.989 237.306H115.164V344.527H157.989V237.306Z" fill="#5596F8"/>
<path d="M105.149 236.866H210.807L230.543 206.285L251.235 237.734L275.554 237.317L249.341 198.799L137.618 199.304L105.149 236.866Z" fill="#236FE0"/>
<path d="M157.99 237.317V344.527H263.497V237.317H251.398L230.544 206.285L210.738 236.844L157.99 237.317Z" fill="#5596F8"/>
<path d="M251.237 244.143H212.36V270.415H251.237V244.143Z" fill="white"/>
<path d="M195.001 244.385H170.48V269.712H195.001V244.385Z" fill="white"/>
<path d="M235.701 226.752C235.703 227.877 235.4 228.976 234.829 229.912C234.257 230.849 233.445 231.579 232.493 232.01C231.542 232.442 230.494 232.556 229.483 232.338C228.472 232.12 227.543 231.58 226.814 230.786C226.084 229.991 225.587 228.979 225.385 227.876C225.184 226.773 225.286 225.63 225.68 224.591C226.074 223.552 226.742 222.663 227.598 222.039C228.455 221.414 229.462 221.08 230.493 221.08C231.873 221.08 233.196 221.677 234.172 222.741C235.149 223.804 235.699 225.247 235.701 226.752Z" fill="white"/>
<path d="M193.398 219.794L199.966 210.967V189.73H186.225V219.959L193.398 219.794Z" fill="#5596F8"/>
<path d="M200.895 186.597H184.695V189.719H200.895V186.597Z" fill="#5596F8"/>
<path d="M105.149 236.865V239.976H210.737V236.843L105.149 236.865Z" fill="#236FE0"/>
<path d="M210.737 239.977L230.483 209.726L230.543 206.285L210.808 236.866L210.737 239.977Z" fill="#236FE0"/>
<path d="M275.049 237.306H251.395V239.306H275.049V237.306Z" fill="#236FE0"/>
<path d="M251.237 296.83H212.36V323.102H251.237V296.83Z" fill="white"/>
<path d="M86.6809 69.1638H70.7939L13.9351 129.194V344.527H51.0787L86.6809 69.1638Z" fill="#2D4257"/>
<path d="M123.521 344.407V129.195L86.5892 75.7271L51.0776 129.195V344.528H123.521" fill="#38516B"/>
<path d="M85.541 214.233H63.1763V261.248H85.541V214.233Z" fill="#E0E0E0"/>
<path d="M114.475 214.233H92.1099V261.248H114.475V214.233Z" fill="#E0E0E0"/>
<path d="M85.541 147.288H63.1763V194.303H85.541V147.288Z" fill="#E0E0E0"/>
<path d="M114.475 147.288H92.1099V194.303H114.475V147.288Z" fill="#E0E0E0"/>
<path d="M97.0305 126.823C101.304 121.456 100.782 113.326 95.8638 108.663C90.9459 104 83.4948 104.57 79.2213 109.936C74.9478 115.302 75.4701 123.433 80.388 128.096C85.3058 132.759 92.7569 132.189 97.0305 126.823Z" fill="#E0E0E0"/>
<path d="M51.0788 129.194H45.397L86.6811 69.1638L127.955 129.194H123.522L86.5904 75.7264L51.0788 129.194Z" fill="#2D4257"/>
<path d="M33.4588 129.194H5.66406L48.4996 69.1638H86.6808L33.4588 129.194Z" fill="#2D4257"/>
<path d="M53.1327 129.217C53.1327 129.371 42.5648 129.437 29.5187 129.36C16.4726 129.283 5.90479 129.074 5.90479 128.92C5.90479 128.766 16.4827 128.689 29.5187 128.766C42.5547 128.843 53.1327 129.03 53.1327 129.217Z" fill="#455A64"/>
<path d="M72.4961 287.509H102.719V344.67H72.4961V287.509Z" fill="#D9D9D9"/>
<path d="M167.195 287.509H197.417V344.67H167.195V287.509Z" fill="white"/>
<path d="M327.375 287.509H357.598V344.67H327.375V287.509Z" fill="white"/>
</g>
<defs>
<filter id="filter0_d_722_534" x="0" y="0" width="409" height="358" filterUnits="userSpaceOnUse" color-interpolation-filters="sRGB">
<feFlood flood-opacity="0" result="BackgroundImageFix"/>
<feColorMatrix in="SourceAlpha" type="matrix" values="0 0 0 0 0 0 0 0 0 0 0 0 0 0 0 0 0 0 127 0" result="hardAlpha"/>
<feOffset dx="4" dy="4"/>
<feGaussianBlur stdDeviation="4.5"/>
<feComposite in2="hardAlpha" operator="out"/>
<feColorMatrix type="matrix" values="0 0 0 0 0 0 0 0 0 0 0 0 0 0 0 0 0 0 0.1 0"/>
<feBlend mode="normal" in2="BackgroundImageFix" result="effect1_dropShadow_722_534"/>
<feBlend mode="normal" in="SourceGraphic" in2="effect1_dropShadow_722_534" result="shape"/>
</filter>
<clipPath id="clip0_722_534">
<rect width="391" height="340" fill="white" transform="translate(5 5)"/>
</clipPath>
</defs>
</svg>
