<svg width="342" height="266" viewBox="0 0 342 266" fill="none" xmlns="http://www.w3.org/2000/svg">
<path d="M340.822 15.1545C341.66 11.2436 340.565 7.46033 338.266 4.65474C335.966 1.84914 332.443 0 328.403 0H209.324C206.337 0 203.544 1.04147 201.331 2.80559C199.118 4.56972 197.528 7.0565 196.905 9.94711L183.712 71.3939L170.519 132.841H315.554L328.167 74.0082L340.779 15.1757L340.822 15.1545Z" fill="white" fill-opacity="0.1"/>
<path d="M0.280272 250.485C-0.557709 254.395 0.538112 258.179 2.83719 260.984C5.13626 263.79 8.66007 265.639 12.6996 265.639H72.2391H131.779C134.765 265.639 137.559 264.597 139.772 262.833C141.985 261.069 143.575 258.582 144.198 255.692L157.391 194.245L170.584 132.798H98.0661H25.5486L12.9359 191.631L0.280272 250.485Z" fill="white" fill-opacity="0.1"/>
</svg>
