<svg width="35" height="35" viewBox="0 0 35 35" fill="none" xmlns="http://www.w3.org/2000/svg">
<g id="Group 22">
<circle id="Ellipse 2" cx="17.5" cy="17.5" r="17.5" fill="#F4F4F4"/>
<g id="Group">
<path id="Vector" d="M17.5 10.5316C19.7696 10.5316 20.0384 10.5402 20.9347 10.5811C21.7634 10.6189 22.2135 10.7574 22.5131 10.8738C22.9098 11.028 23.193 11.2122 23.4904 11.5096C23.7878 11.807 23.972 12.0902 24.1262 12.4869C24.2426 12.7865 24.3811 13.2366 24.4189 14.0653C24.4598 14.9616 24.4684 15.2304 24.4684 17.5C24.4684 19.7696 24.4598 20.0384 24.4189 20.9347C24.3811 21.7635 24.2426 22.2135 24.1262 22.5131C23.972 22.9098 23.7878 23.193 23.4904 23.4904C23.193 23.7879 22.9098 23.9721 22.5131 24.1262C22.2135 24.2426 21.7634 24.3811 20.9347 24.4189C20.0385 24.4598 19.7697 24.4685 17.5 24.4685C15.2302 24.4685 14.9614 24.4598 14.0653 24.4189C13.2365 24.3811 12.7865 24.2426 12.4869 24.1262C12.0902 23.9721 11.807 23.7879 11.5096 23.4904C11.2121 23.193 11.0279 22.9098 10.8738 22.5131C10.7574 22.2135 10.6189 21.7635 10.5811 20.9348C10.5402 20.0384 10.5315 19.7696 10.5315 17.5C10.5315 15.2304 10.5402 14.9616 10.5811 14.0653C10.6189 13.2366 10.7574 12.7865 10.8738 12.4869C11.0279 12.0902 11.2121 11.807 11.5096 11.5096C11.807 11.2122 12.0902 11.028 12.4869 10.8738C12.7865 10.7574 13.2365 10.6189 14.0652 10.5811C14.9616 10.5402 15.2304 10.5316 17.5 10.5316ZM17.5 9C15.1915 9 14.9021 9.00978 13.9955 9.05115C13.0907 9.09245 12.4728 9.23612 11.9321 9.44626C11.3732 9.66348 10.8992 9.95412 10.4266 10.4267C9.95409 10.8992 9.66345 11.3732 9.44622 11.9322C9.23608 12.4729 9.09242 13.0907 9.05112 13.9955C9.00975 14.9021 9 15.1915 9 17.5C9 19.8085 9.00975 20.098 9.05112 21.0045C9.09242 21.9093 9.23608 22.5272 9.44622 23.0679C9.66345 23.6268 9.95409 24.1008 10.4266 24.5734C10.8992 25.0459 11.3732 25.3366 11.9321 25.5538C12.4728 25.7639 13.0907 25.9076 13.9955 25.9489C14.9021 25.9902 15.1915 26 17.5 26C19.8085 26 20.0979 25.9902 21.0045 25.9489C21.9093 25.9076 22.5271 25.7639 23.0678 25.5538C23.6268 25.3366 24.1008 25.0459 24.5733 24.5734C25.0459 24.1008 25.3365 23.6268 25.5537 23.0679C25.7639 22.5272 25.9076 21.9093 25.9488 21.0045C25.9902 20.098 26 19.8085 26 17.5C26 15.1915 25.9902 14.9021 25.9488 13.9955C25.9076 13.0907 25.7639 12.4729 25.5537 11.9322C25.3365 11.3732 25.0459 10.8992 24.5733 10.4267C24.1008 9.95412 23.6268 9.66348 23.0678 9.44626C22.5271 9.23612 21.9093 9.09245 21.0045 9.05115C20.0979 9.00978 19.8085 9 17.5 9ZM17.5 13.1351C15.0893 13.1351 13.1351 15.0894 13.1351 17.5C13.1351 19.9107 15.0893 21.8649 17.5 21.8649C19.9106 21.8649 21.8649 19.9107 21.8649 17.5C21.8649 15.0894 19.9106 13.1351 17.5 13.1351ZM17.5 20.3334C15.9352 20.3334 14.6666 19.0648 14.6666 17.5C14.6666 15.9352 15.9352 14.6667 17.5 14.6667C19.0648 14.6667 20.3333 15.9352 20.3333 17.5C20.3333 19.0648 19.0648 20.3334 17.5 20.3334ZM23.0573 12.9627C23.0573 13.526 22.6006 13.9827 22.0373 13.9827C21.474 13.9827 21.0173 13.526 21.0173 12.9627C21.0173 12.3994 21.474 11.9427 22.0373 11.9427C22.6006 11.9427 23.0573 12.3994 23.0573 12.9627Z" fill="#909090"/>
</g>
</g>
</svg>
