<svg width="220" height="220" viewBox="0 0 220 220" fill="none" xmlns="http://www.w3.org/2000/svg">
<g filter="url(#filter0_d_248_3962)">
<path d="M169.995 106.001C169.995 139.137 143.136 166 110 166C76.8641 166 50 139.137 50 106.001C50 72.8653 76.8628 46 110 46C143.137 46 169.995 72.8641 169.995 106.001Z" fill="#236FE0"/>
<path d="M120.853 139.904H100.82V149.063H120.853V139.904Z" fill="white"/>
<path d="M92.9256 70.7578H92.9219V86.6654L92.9256 70.7578Z" fill="white"/>
<path d="M131.694 88.4271C130.865 88.4267 130.064 88.1261 129.439 87.5808C128.814 87.0355 128.408 86.2825 128.295 85.4609C128.119 86.2155 127.692 86.8881 127.085 87.3693C126.477 87.8505 125.725 88.112 124.95 88.1112H124.62C123.865 88.111 123.131 87.8616 122.532 87.4018C121.932 86.9419 121.502 86.2971 121.306 85.5675C121.256 86.442 120.874 87.2642 120.237 87.8657C119.6 88.4672 118.757 88.8024 117.882 88.8025H117.552C116.755 88.8013 115.984 88.523 115.37 88.0152C114.756 87.5075 114.339 86.802 114.188 86.0197C114.038 86.8035 113.62 87.5105 113.005 88.0191C112.39 88.5277 111.617 88.806 110.819 88.8062H110.49C109.66 88.8061 108.859 88.5056 108.234 87.9602C107.61 87.4149 107.203 86.6617 107.091 85.8401C106.915 86.5948 106.488 87.2677 105.881 87.7492C105.273 88.2306 104.521 88.4923 103.746 88.4915H103.416C102.618 88.4913 101.845 88.2128 101.23 87.704C100.614 87.1952 100.196 86.4879 100.046 85.7038C99.8967 86.4879 99.4785 87.1953 98.8636 87.7042C98.2486 88.2131 97.4754 88.4915 96.6772 88.4915H96.3476C95.5889 88.4916 94.8516 88.2401 94.251 87.7765C93.6504 87.3129 93.2204 86.6633 93.0284 85.9293C92.8933 87.6998 91.3545 89.0962 89.548 89.0962H89.2184C88.8959 89.0956 88.5751 89.0493 88.2656 88.9586V139.193H132.686V88.3602C132.468 88.4039 132.246 88.4263 132.024 88.4271H131.694Z" fill="white"/>
<path d="M92.9197 70.7577V70.7466H85.8574V87.2699C85.8574 87.3542 85.8574 87.4384 85.8698 87.5177C85.8698 87.5772 85.8797 87.6416 85.8872 87.6949C85.8946 87.7482 85.9057 87.8386 85.9181 87.9093C85.9095 87.9526 85.8971 87.9948 85.8872 88.0332C86.0251 88.6275 86.3189 89.1744 86.7383 89.6176C87.1577 90.0607 87.6876 90.3841 88.2735 90.5545V70.7577H92.9197Z" fill="#F2F2F2"/>
<path d="M132.34 70.7578H92.9245H88.2695V90.5633C88.5791 90.6535 88.8999 90.6994 89.2223 90.6996H89.5519C91.3584 90.6996 92.8972 89.3045 93.0323 87.5339C93.2245 88.2678 93.6546 88.9173 94.2551 89.3809C94.8557 89.8445 95.5929 90.096 96.3516 90.0962H96.6811C97.4798 90.0967 98.2535 89.8186 98.869 89.3096C99.4844 88.8007 99.903 88.0929 100.052 87.3084C100.202 88.0925 100.621 88.7998 101.236 89.3087C101.851 89.8175 102.624 90.096 103.423 90.0962H103.752C104.527 90.0969 105.28 89.8353 105.887 89.3538C106.495 88.8724 106.921 88.1995 107.097 87.4447C107.21 88.2664 107.616 89.0196 108.241 89.5649C108.866 90.1102 109.667 90.4107 110.496 90.4109H110.826C111.624 90.4106 112.397 90.1321 113.012 89.6233C113.627 89.1144 114.045 88.4071 114.194 87.6231C114.344 88.4071 114.762 89.1144 115.377 89.6233C115.992 90.1321 116.765 90.4106 117.563 90.4109H117.893C118.769 90.4107 119.611 90.0756 120.248 89.4741C120.885 88.8726 121.268 88.0503 121.317 87.1758C121.513 87.9055 121.944 88.5502 122.543 89.0101C123.142 89.47 123.876 89.7194 124.632 89.7195H124.956C125.732 89.7203 126.484 89.4586 127.091 88.9771C127.699 88.4957 128.125 87.8228 128.302 87.0681C128.414 87.8897 128.82 88.6429 129.445 89.1882C130.07 89.7335 130.871 90.0341 131.7 90.0342H132.019C132.241 90.0338 132.463 90.0118 132.682 89.9686V70.764L132.34 70.7578Z" fill="#F2F2F2"/>
<path d="M90.142 59.2129C88.5094 59.2178 86.945 59.8685 85.7906 61.023C84.6361 62.1774 83.9854 63.7418 83.9805 65.3745V144.267C83.9847 145.899 84.6354 147.464 85.7901 148.618C86.9448 149.772 88.5095 150.421 90.142 150.425H111.081V148.206C110.884 148.24 110.684 148.258 110.484 148.259C109.529 148.259 108.613 147.88 107.938 147.204C107.263 146.529 106.883 145.613 106.883 144.658C106.883 143.703 107.263 142.788 107.938 142.112C108.613 141.437 109.529 141.058 110.484 141.058C110.684 141.059 110.884 141.077 111.081 141.111V139.026H88.2711V68.9837H111.081V59.2129H90.142ZM104.19 143.217C104.474 143.218 104.752 143.302 104.989 143.46C105.225 143.619 105.409 143.843 105.518 144.106C105.627 144.369 105.655 144.658 105.599 144.937C105.544 145.216 105.407 145.472 105.205 145.673C105.004 145.874 104.748 146.011 104.469 146.067C104.19 146.122 103.901 146.094 103.638 145.985C103.375 145.876 103.15 145.691 102.992 145.455C102.834 145.218 102.75 144.94 102.75 144.656C102.75 144.467 102.788 144.28 102.861 144.105C102.934 143.93 103.04 143.772 103.174 143.639C103.308 143.505 103.467 143.4 103.642 143.328C103.817 143.256 104.004 143.219 104.194 143.22L104.19 143.217Z" fill="#38516B"/>
<path d="M130.809 59.2129H111.08L110.986 66.3347H111.08V68.9837H132.686V139.026H111.08V141.111C111.923 141.247 112.69 141.679 113.244 142.329C113.797 142.979 114.101 143.805 114.101 144.658C114.101 145.512 113.797 146.338 113.244 146.988C112.69 147.638 111.923 148.07 111.08 148.206V150.425H130.809C132.443 150.422 134.009 149.772 135.165 148.617C136.321 147.462 136.972 145.896 136.976 144.262V65.3745C136.971 63.7409 136.32 62.1756 135.164 61.0209C134.009 59.8662 132.443 59.2162 130.809 59.2129ZM122.748 64.5109C122.798 64.0648 122.808 63.8071 122.808 64.097C122.808 64.2371 122.788 64.3765 122.748 64.5109ZM116.764 146.097C116.479 146.097 116.201 146.012 115.965 145.854C115.728 145.696 115.544 145.472 115.435 145.209C115.326 144.946 115.297 144.657 115.353 144.378C115.408 144.099 115.545 143.842 115.747 143.641C115.948 143.44 116.204 143.303 116.483 143.247C116.762 143.192 117.051 143.22 117.314 143.329C117.577 143.438 117.802 143.623 117.96 143.859C118.118 144.096 118.202 144.374 118.202 144.658C118.202 145.04 118.051 145.406 117.781 145.675C117.511 145.945 117.145 146.097 116.764 146.097Z" fill="#38516B"/>
<path d="M85.0386 85.0287C85.0312 84.9692 85.025 84.9097 85.02 84.8503C85.0138 84.7672 85.0076 84.683 85.0076 84.6025V68.0791H77.9453V84.6012C77.9456 85.5109 78.3072 86.3832 78.9506 87.0264C79.594 87.6695 80.4664 88.0308 81.3761 88.0308H81.7057C82.4808 88.0307 83.233 87.7678 83.8394 87.2851C84.4459 86.8024 84.8708 86.1284 85.0448 85.3731C85.0349 85.331 85.0225 85.2876 85.0138 85.2492C85.0213 85.1736 85.0287 85.1018 85.0386 85.0287ZM84.3795 70.1272C84.3695 70.0838 84.3572 70.0404 84.3485 70.0033C84.3621 69.9327 84.3695 69.8608 84.3795 69.7902C84.3894 69.7195 84.3658 69.6663 84.3609 69.6118C84.3547 69.5287 84.3485 69.4445 84.3485 69.3639C84.3485 69.4482 84.3485 69.5325 84.3609 69.6118C84.3658 69.6712 84.372 69.7307 84.3795 69.7902C84.3881 69.8608 84.3968 69.9327 84.4092 70.0033C84.4018 70.0367 84.3894 70.0838 84.3795 70.1272Z" fill="#FFBDE0"/>
<path d="M85.008 67.971L89.4114 63.5205L85.2087 63.5279L77.9395 67.971V68.0788H85.008V67.971Z" fill="#FFBDE0"/>
<path d="M85.0078 68.0787H92.0763V67.9709L94.8938 63.5117L89.4112 63.5204L85.0078 67.9709V68.0787Z" fill="#F2F2F2"/>
<path d="M92.0763 68.0791H85.0078V84.6012C85.0078 84.6855 85.0078 84.7697 85.0202 84.849C85.0252 84.9085 85.0314 84.968 85.0388 85.0274C85.0475 85.0981 85.0561 85.1699 85.0685 85.2405C85.0611 85.2839 85.0487 85.3273 85.0388 85.3644C85.2126 86.1197 85.6372 86.7936 86.2435 87.2763C86.8497 87.759 87.6017 88.0219 88.3767 88.0221H88.7075C90.5127 88.0221 92.0528 86.627 92.1878 84.8564C92.1136 84.5733 92.0761 84.2818 92.0763 83.9891V68.0791Z" fill="white"/>
<path d="M85.0078 84.6011C85.0078 84.6853 85.014 84.7696 85.0202 84.8489C85.0128 84.7696 85.0078 84.6853 85.0078 84.6011Z" fill="white"/>
<path d="M84.362 69.6057C84.3546 69.5227 84.3496 69.4384 84.3496 69.3579C84.3496 69.4384 84.3558 69.5227 84.362 69.6057Z" fill="#38516B"/>
<path d="M84.3496 69.9968C84.3583 70.0402 84.3707 70.0835 84.3806 70.1207C84.3905 70.0773 84.4029 70.034 84.4103 69.9968C84.3979 69.9262 84.3893 69.8543 84.3806 69.7837C84.3707 69.8543 84.3632 69.9262 84.3496 69.9968Z" fill="#38516B"/>
<path d="M99.1463 68.0791H92.084V83.9966C92.0838 84.4471 92.1724 84.8932 92.3447 85.3094C92.517 85.7256 92.7696 86.1039 93.088 86.4225C93.4065 86.741 93.7846 86.9938 94.2008 87.1662C94.617 87.3386 95.0631 87.4274 95.5135 87.4274H95.8419C96.64 87.4271 97.4131 87.1486 98.028 86.6398C98.6429 86.1309 99.0611 85.4236 99.2107 84.6396C99.1704 84.4277 99.15 84.2124 99.15 83.9966L99.1463 68.0791Z" fill="#FFBDE0"/>
<path d="M92.0799 68.0786H99.1447V67.9708L100.741 63.5029L94.9036 63.5116L92.0762 67.9708L92.0799 67.9931V68.0786Z" fill="#FFBDE0"/>
<path d="M99.1445 68.0794H106.212V67.9716V63.4951L100.74 63.5038L99.1445 67.9716V68.0794Z" fill="#F2F2F2"/>
<path d="M106.213 68.0791H99.1504V83.9966C99.1504 84.9063 99.5117 85.7787 100.155 86.4221C100.798 87.0655 101.67 87.4271 102.58 87.4274H102.903C103.678 87.4286 104.43 87.1677 105.037 86.6872C105.645 86.2067 106.072 85.5348 106.249 84.7809C106.228 84.6269 106.217 84.4717 106.216 84.3162L106.213 68.0791Z" fill="white"/>
<path d="M113.279 68.0794V68.0447H113.261V67.9716V63.4839L106.212 63.495V67.9716H106.211V68.0794H113.279Z" fill="#FFBDE0"/>
<path d="M113.279 68.0791H106.211V84.3101C106.213 84.4676 106.225 84.6249 106.247 84.7809C106.36 85.601 106.766 86.3525 107.39 86.8967C108.014 87.441 108.814 87.7412 109.642 87.7421H109.971C110.77 87.7421 111.543 87.4636 112.158 86.9547C112.773 86.4459 113.191 85.7384 113.34 84.9543C113.3 84.7423 113.28 84.527 113.279 84.3113V68.0791Z" fill="#FFBDE0"/>
<path d="M113.28 67.9714V68.0445V68.0792H120.349V67.9714L118.594 63.4751L113.262 63.4838V67.9714H113.28Z" fill="#F2F2F2"/>
<path d="M120.349 68.0791H113.287V84.3101C113.288 84.5258 113.308 84.741 113.348 84.9531C113.498 85.7372 113.916 86.4445 114.531 86.9533C115.146 87.4622 115.92 87.7406 116.718 87.7409H117.047C117.923 87.741 118.766 87.4059 119.403 86.8043C120.039 86.2027 120.421 85.3803 120.471 84.5058C120.394 84.2163 120.356 83.9181 120.356 83.6187L120.349 68.0791Z" fill="white"/>
<path d="M127.416 68.0791H120.354V83.6199C120.354 83.9194 120.392 84.2175 120.469 84.5071C120.664 85.2366 121.095 85.8812 121.694 86.3411C122.294 86.8009 123.028 87.0504 123.783 87.0507H124.113C124.888 87.0517 125.64 86.7901 126.248 86.3086C126.855 85.8271 127.282 85.1541 127.458 84.3993C127.437 84.2457 127.426 84.0909 127.426 83.9359L127.416 68.0791Z" fill="#FFBDE0"/>
<path d="M120.35 68.0791H127.417V67.9812L125.828 65.6271L124.36 63.4663L118.596 63.475L120.35 67.9713V68.0791Z" fill="#FFBDE0"/>
<path d="M127.416 67.9811V68.079H134.484V68.0009L129.64 63.4575L124.365 63.4662L125.826 65.627L127.416 67.9712V67.9811Z" fill="#F2F2F2"/>
<path d="M134.484 68.0791H127.422V83.9384C127.423 84.0934 127.433 84.2481 127.454 84.4017C127.566 85.2234 127.973 85.9766 128.597 86.5219C129.222 87.0672 130.023 87.3678 130.853 87.3679H131.182C131.98 87.3679 132.753 87.0897 133.368 86.581C133.983 86.0724 134.401 85.3653 134.551 84.5814C134.511 84.3694 134.49 84.1541 134.49 83.9384L134.484 68.0791Z" fill="white"/>
<path d="M141.675 68.0789V67.9711L134.979 63.4487L129.67 63.4574L134.485 67.9711V68.0008V68.0789H141.675Z" fill="#FFBDE0"/>
<path d="M134.486 68.0791V83.9384C134.486 84.3889 134.575 84.835 134.747 85.2513C134.92 85.6675 135.172 86.0457 135.491 86.3642C135.81 86.6827 136.188 86.9353 136.604 87.1075C137.02 87.2798 137.467 87.3682 137.917 87.3679H138.247C139.156 87.3679 140.029 87.0066 140.672 86.3634C141.315 85.7202 141.676 84.8479 141.676 83.9384V68.0791H134.486Z" fill="#FFBDE0"/>
<path d="M119.407 97.7733C121.413 98.6877 122.962 100.022 124.056 101.776C125.15 103.53 125.698 105.65 125.699 108.135C125.715 109.74 125.346 111.326 124.621 112.756C123.96 114.092 122.97 115.236 121.745 116.079C120.62 116.869 119.283 117.295 117.91 117.301C116.725 117.301 115.748 117.037 114.979 116.508C114.21 115.978 113.742 115.168 113.575 114.077C113.096 115.036 112.385 115.859 111.508 116.47C110.681 117.024 109.666 117.301 108.463 117.301C107.505 117.318 106.562 117.06 105.744 116.559C104.938 116.054 104.293 115.329 103.883 114.468C103.425 113.497 103.198 112.432 103.22 111.357C103.22 111.14 103.235 110.813 103.269 110.377C103.364 108.999 103.809 107.668 104.56 106.512C105.288 105.392 106.289 104.478 107.466 103.855C108.682 103.211 110.039 102.882 111.413 102.898C113.234 102.898 114.7 103.372 115.811 104.321C116.922 105.269 117.477 106.591 117.477 108.286C117.477 108.623 117.452 108.96 117.403 109.294L117.076 111.634C117.043 111.937 117.027 112.144 117.027 112.24C117.027 112.71 117.122 113.042 117.315 113.234C117.508 113.426 117.804 113.525 118.205 113.525C118.767 113.517 119.307 113.307 119.727 112.931C120.204 112.537 120.593 111.946 120.893 111.157C121.216 110.235 121.369 109.263 121.344 108.286C121.344 106.608 120.973 105.139 120.23 103.879C119.486 102.619 118.385 101.647 116.926 100.965C115.472 100.278 113.709 99.9336 111.638 99.9336C109.15 99.9336 107.02 100.437 105.248 101.443C103.541 102.386 102.143 103.808 101.226 105.536C100.316 107.248 99.8606 109.181 99.8606 111.334C99.8606 114.22 100.725 116.473 102.454 118.093C104.183 119.714 106.777 120.515 110.235 120.498L109.434 124C106.477 123.966 103.975 123.437 101.928 122.412C99.8809 121.388 98.3314 119.936 97.2792 118.056C96.2259 116.181 95.6992 113.94 95.6992 111.334C95.6992 108.295 96.4469 105.646 97.9423 103.389C99.4378 101.13 101.529 99.334 103.983 98.2016C106.514 97.0016 109.291 96.401 112.314 96.3999C115.038 96.3999 117.402 96.8577 119.407 97.7733ZM112.567 107.329C112.041 106.867 111.36 106.624 110.662 106.649C110.098 106.649 109.544 106.801 109.058 107.089C108.527 107.415 108.101 107.887 107.83 108.449C107.491 109.159 107.327 109.941 107.353 110.729C107.353 111.651 107.604 112.348 108.106 112.819C108.609 113.291 109.278 113.545 109.966 113.525C110.535 113.524 111.092 113.372 111.582 113.083C112.123 112.757 112.559 112.28 112.835 111.711C113.163 111.091 113.325 110.319 113.324 109.394C113.323 108.47 113.071 107.781 112.567 107.329Z" fill="#1DD6C9"/>
</g>
<defs>
<filter id="filter0_d_248_3962" x="-0.498047" y="0" width="220.492" height="220" filterUnits="userSpaceOnUse" color-interpolation-filters="sRGB">
<feFlood flood-opacity="0" result="BackgroundImageFix"/>
<feColorMatrix in="SourceAlpha" type="matrix" values="0 0 0 0 0 0 0 0 0 0 0 0 0 0 0 0 0 0 127 0" result="hardAlpha"/>
<feOffset dy="4"/>
<feGaussianBlur stdDeviation="25"/>
<feComposite in2="hardAlpha" operator="out"/>
<feColorMatrix type="matrix" values="0 0 0 0 0.219608 0 0 0 0 0.317647 0 0 0 0 0.419608 0 0 0 0.15 0"/>
<feBlend mode="normal" in2="BackgroundImageFix" result="effect1_dropShadow_248_3962"/>
<feBlend mode="normal" in="SourceGraphic" in2="effect1_dropShadow_248_3962" result="shape"/>
</filter>
</defs>
</svg>
