<svg width="61" height="62" viewBox="0 0 61 62" fill="none" xmlns="http://www.w3.org/2000/svg">
<g id="shape, abstract, blob, stars, spark, sparks, sparkle, shine, night, pattern, magic, dust, fairy">
<path id="Vector" d="M19.2575 11.9473C19.737 12.7663 20.3037 13.5408 20.9706 14.2132C21.3028 14.55 21.6533 14.8666 22.0296 15.1498C22.4059 15.4319 22.8007 15.6853 23.2139 15.9041C23.5627 16.0907 23.9276 16.2402 24.2976 16.3729L24.3371 16.3867C24.7322 16.5295 24.9379 16.9655 24.7952 17.3606C24.7225 17.563 24.5712 17.7161 24.3895 17.7978C23.7671 18.0754 23.1392 18.3193 22.5376 18.5684C22.0135 18.7861 21.5099 19.0016 21.0419 19.249C20.5728 19.4939 20.144 19.7791 19.7435 20.1068C19.6437 20.1884 19.5439 20.2713 19.4499 20.3614L19.3061 20.4929C19.2598 20.5368 19.2279 20.5785 19.1888 20.6201C19.113 20.7044 19.0337 20.7803 18.9624 20.8864C18.89 20.9877 18.8129 21.0781 18.744 21.1878L18.5373 21.5146C18.4695 21.6256 18.4077 21.7451 18.3435 21.8597L18.2472 22.0328L18.158 22.2145L17.9797 22.5766C17.5254 23.5642 17.1461 24.6082 16.8256 25.6674C16.6714 26.1983 16.5207 26.7317 16.4013 27.2667C16.2819 27.7993 16.1733 28.3381 16.1168 28.8475C16.0616 29.3461 15.6126 29.7056 15.114 29.6505C14.7343 29.6079 14.4348 29.3377 14.3386 28.9898L14.3364 28.979C14.1567 28.3242 14.0462 27.703 13.9382 27.0866L13.6376 25.2641C13.4734 24.2762 13.2969 23.3015 13.0462 22.3906C12.9177 21.94 12.7662 21.5071 12.5873 21.1327L12.4453 20.8732C12.3888 20.7846 12.3263 20.6935 12.2674 20.6036C12.1399 20.4261 12.0076 20.2498 11.8584 20.0816C11.5659 19.743 11.2371 19.4219 10.8839 19.1197C10.5283 18.8211 10.1508 18.5402 9.75738 18.2784C8.9705 17.756 8.11877 17.3108 7.24531 16.9556C6.75474 16.7562 6.51832 16.1957 6.71894 15.7052C6.82116 15.4527 7.01869 15.2677 7.25345 15.1748L7.26192 15.1713C7.96009 14.8971 8.65708 14.6217 9.30786 14.2951C9.97048 13.9819 10.5809 13.6126 11.1439 13.2005L11.5563 12.8814L11.9354 12.5317C12.0681 12.4205 12.1759 12.2872 12.292 12.1613C12.4033 12.0317 12.5301 11.9143 12.626 11.7701L12.9338 11.3568C13.0309 11.2138 13.1161 11.061 13.2084 10.9154L13.345 10.6935C13.3871 10.6159 13.4243 10.5358 13.4639 10.4582L13.7003 9.98615C14.1065 9.08212 14.4643 8.11003 14.7717 7.12761C14.84 6.8903 14.9128 6.67472 14.9902 6.48087C15.0288 6.38394 15.0686 6.29184 15.1095 6.20457C15.1207 6.17825 15.1268 6.17232 15.1354 6.16041C15.1428 6.14968 15.1514 6.13897 15.1599 6.12947C15.1771 6.10925 15.1954 6.09025 15.2161 6.07129C15.2966 5.9954 15.4072 5.91754 15.5146 5.80834C15.6232 5.70036 15.725 5.56581 15.8064 5.42375C16.0434 5.00229 16.0782 4.74888 16.2239 4.91578C16.2594 4.95839 16.3017 5.02999 16.3483 5.14135C16.3948 5.2515 16.4444 5.40502 16.479 5.60045C16.5136 5.79467 16.5284 6.02833 16.5165 6.27244C16.5133 6.33256 16.5087 6.39748 16.5043 6.45397C16.5001 6.49483 16.4972 6.5369 16.4929 6.58017C16.4845 6.66669 16.4736 6.75558 16.4603 6.84805C16.4281 7.08225 16.3899 7.31998 16.348 7.56126C16.3037 7.80251 16.2377 8.04466 16.1778 8.2881C16.0662 8.77629 15.8826 9.25986 15.7172 9.72685C15.6312 9.93743 15.5368 10.1455 15.4472 10.3548L15.3117 10.6682L15.1533 10.974C15.0446 11.1771 14.9454 11.3839 14.8283 11.582L14.4579 12.17C13.9333 12.9376 13.3013 13.6399 12.589 14.234L12.0416 14.6583C11.8556 14.7929 11.6625 14.9129 11.4718 15.0414C11.2835 15.1735 11.0858 15.2803 10.8893 15.393C10.6928 15.5046 10.4986 15.6234 10.2975 15.7181L9.70001 16.0201L9.09688 16.2957L8.79534 16.4322L8.49272 16.5591L7.88627 16.8142L7.90001 15.3198C8.81327 15.6684 9.69063 16.0886 10.5332 16.5866C11.081 16.9107 11.6271 17.271 12.1375 17.6873C12.6479 18.1024 13.1214 18.5747 13.5062 19.1072C13.6312 19.2918 13.7623 19.4681 13.875 19.6635C13.9326 19.7617 13.994 19.848 14.0478 19.9571L14.2082 20.2746C14.2669 20.3813 14.2979 20.4841 14.3434 20.5894C14.384 20.6934 14.4307 20.7988 14.4653 20.9016C14.5299 21.107 14.6088 21.3151 14.6613 21.518C14.8953 22.3347 15.0501 23.1359 15.1918 23.9297C15.3311 24.7235 15.45 25.5109 15.5727 26.2852C15.6967 27.0571 15.8206 27.8277 15.9962 28.5245L14.4025 28.6418C14.4836 28.0099 14.6181 27.4246 14.7683 26.8419C14.9501 26.1465 15.1582 25.4659 15.3879 24.7893C15.6164 24.1126 15.8653 23.4422 16.1513 22.7808C16.4374 22.1193 16.7426 21.463 17.1318 20.8246C17.3276 20.5061 17.5366 20.1901 17.7876 19.8832C17.8182 19.8451 17.8465 19.8058 17.8807 19.7678L17.987 19.655L18.2019 19.4317C18.2739 19.357 18.3433 19.3038 18.4152 19.2398C18.487 19.1782 18.5553 19.1142 18.6295 19.0563C19.0179 18.7332 19.4419 18.4468 19.8798 18.1966C20.3177 17.9464 20.7683 17.7374 21.2138 17.5511C22.107 17.1809 22.968 16.8801 23.7891 16.5078L23.8672 17.7207C23.0767 17.4545 22.3286 17.0818 21.6394 16.6317C20.9539 16.1756 20.3284 15.6434 19.7626 15.0602C19.2004 14.4736 18.7004 13.8336 18.2586 13.1583C17.818 12.4843 17.448 11.7559 17.1382 11.0223C16.7435 10.0794 16.474 9.12978 16.304 8.20924C16.1316 7.28868 16.0599 6.39479 16.0706 5.54779C16.0763 5.22898 16.1476 5.03745 16.2482 4.98591L16.1348 5.26109C16.108 5.28478 16.068 5.30588 16.0281 5.31495C15.9883 5.32402 15.951 5.32349 15.9246 5.32072C15.8705 5.31394 15.8502 5.30644 15.8453 5.31359C15.8428 5.31957 15.8569 5.34263 15.9167 5.36633C15.9466 5.37758 15.9898 5.38782 16.0404 5.38371C16.091 5.38081 16.1466 5.36354 16.1879 5.33885L16.3398 4.96915C16.4696 4.98541 16.6195 5.19088 16.7439 5.58612C17.116 6.77061 17.5007 7.99619 17.9536 9.16377C18.3229 10.122 18.7088 11.0913 19.2274 11.9481C19.2359 11.9458 19.2443 11.9435 19.2552 11.9413L19.2575 11.9473Z" fill="#FFCC49"/>
<path id="Vector_2" d="M40.0799 24.4847C40.2358 24.9585 40.4024 25.429 40.5764 25.8923C40.6206 26.006 40.6646 26.127 40.7088 26.2335C40.7531 26.334 40.7914 26.438 40.8405 26.5374C40.9352 26.7361 41.0396 26.9313 41.1561 27.1182C41.6233 27.8696 42.2784 28.5166 43.0571 29.0257C43.7199 29.4694 44.4719 29.8169 45.2552 30.083C45.6504 30.2173 45.861 30.6462 45.7279 31.0403C45.6626 31.2331 45.527 31.3816 45.3609 31.4683L45.3403 31.4789C45.173 31.5656 45.0035 31.6438 44.842 31.7426C43.9115 32.2843 43.072 33.0222 42.3396 33.8531C41.6059 34.6851 40.9791 35.6185 40.4719 36.6054C39.9659 37.5922 39.577 38.6373 39.3647 39.6993C39.1537 40.7589 39.1193 41.8402 39.3485 42.8253L37.5544 43.166C37.3802 42.119 37.2106 41.0794 37.0011 40.062C36.813 39.146 36.597 38.2441 36.3228 37.3715C36.0475 36.5 35.7151 35.6566 35.3075 34.8615C35.2044 34.6651 35.0952 34.4686 34.9872 34.277C34.8767 34.0901 34.7626 33.9068 34.6399 33.7318C34.3957 33.3794 34.1284 33.052 33.8388 32.7639C33.2585 32.1854 32.5841 31.7945 31.8888 31.6921C31.3652 31.6149 31.0026 31.1273 31.0798 30.6037C31.1249 30.2999 31.3065 30.051 31.5528 29.91L31.56 29.9065C32.2017 29.5449 32.7962 29.1116 33.3125 28.5918C33.4466 28.4673 33.5641 28.3258 33.6899 28.1927C33.8063 28.05 33.9285 27.9133 34.0377 27.7644C34.2644 27.474 34.4673 27.1616 34.656 26.8393C35.4129 25.5479 35.8767 24.0526 36.1751 22.5142C36.3685 21.5073 36.5563 20.4726 36.6971 19.4433C36.763 18.9509 36.8565 18.5443 36.9707 18.2113C37.0272 18.0449 37.0906 17.8965 37.1586 17.7651C37.1926 17.6597 37.2376 17.5424 37.2905 17.4553C37.3436 17.3646 37.4023 17.298 37.4498 17.2566C37.7221 17.0546 37.5101 17.4139 37.8272 17.7119C37.9045 17.7792 38.0185 17.8037 38.0932 17.7939C38.1305 17.7932 38.1584 17.7804 38.1763 17.7902C38.1924 17.847 38.2084 17.9062 38.2219 17.9702C38.2809 18.2249 38.3174 18.5395 38.3255 18.9078C38.3449 19.8407 38.2559 20.8635 38.0885 21.8226C37.9275 22.7457 37.7245 23.6646 37.4506 24.5729C37.3131 25.0258 37.1612 25.4774 36.9829 25.9201C36.807 26.3641 36.6107 26.803 36.3857 27.2294C35.9417 28.0848 35.3852 28.8976 34.718 29.6187C34.3821 29.9774 34.0224 30.3141 33.6378 30.624C33.2508 30.929 32.8438 31.2073 32.4203 31.4589L32.1397 29.9351C33.0105 30.0448 33.8273 30.4112 34.4967 30.8995C35.0602 31.3082 35.5587 31.7977 35.9724 32.327C36.1829 32.591 36.3704 32.8656 36.5397 33.146L36.6631 33.3571C36.7007 33.4274 36.737 33.4977 36.7745 33.568C36.8459 33.7086 36.9198 33.848 36.9828 33.9897C37.6424 35.437 38.0943 36.9354 38.4451 38.4289C38.7948 39.9247 39.0409 41.4215 39.2657 42.8976L39.2679 42.912C39.3351 43.357 39.0296 43.7739 38.5834 43.841C38.1541 43.906 37.7513 43.6224 37.6622 43.2024C37.4907 42.3865 37.453 41.5605 37.5304 40.7614C37.6789 39.2641 38.1224 37.8431 38.7438 36.5222C39.3712 35.2037 40.1802 33.978 41.1616 32.8979C42.1614 31.8001 43.3445 30.8372 44.7375 30.1888L44.8127 31.4317C44.3769 31.274 43.9424 31.1115 43.5205 30.907C43.0972 30.7109 42.6853 30.4813 42.2882 30.2243C41.8898 29.9708 41.5137 29.6755 41.1608 29.3541C40.8079 29.0327 40.482 28.6755 40.1987 28.2865C39.9141 27.8986 39.6673 27.4824 39.4676 27.0452C39.421 26.9362 39.3672 26.8236 39.3254 26.7183L39.201 26.4049C39.1185 26.1955 39.0409 25.9863 38.9632 25.7758C38.6561 24.9352 38.3756 24.0889 38.1229 23.231C37.8415 22.274 37.6274 21.3216 37.5189 20.3899C37.414 19.4618 37.4029 18.5411 37.5986 17.7135C37.6593 17.5014 37.7335 17.3604 37.8102 17.2941L37.7947 17.1989C37.7881 17.1554 37.766 17.1034 37.7329 17.062C37.6998 17.0194 37.6617 16.99 37.6319 16.9691C37.5723 16.9274 37.5413 16.9053 37.5357 16.8811C37.5324 16.8594 37.5484 16.8296 37.6448 16.8237C37.6917 16.822 37.7662 16.8326 37.8486 16.8783C37.931 16.9216 38.0069 17.0009 38.0528 17.0749L38.095 17.3282C38.134 17.3781 38.1666 17.4508 38.193 17.5426C38.2206 17.6356 38.2299 17.7441 38.2532 17.8864C38.2741 18.0287 38.2829 18.1672 38.3122 18.3132C38.3378 18.4579 38.3635 18.6039 38.3903 18.7499C38.4559 19.0456 38.5156 19.3413 38.5944 19.642C38.7436 20.241 38.9156 20.8487 39.1032 21.453C39.407 22.4464 39.7005 23.4818 40.0595 24.4808C40.0692 24.4809 40.0776 24.481 40.0884 24.4812L40.0799 24.4847Z" fill="#FFCC49"/>
<path id="Vector_3" d="M52.6796 12.5126C52.7826 12.8895 52.9256 13.2513 53.0928 13.599C53.1373 13.6838 53.1745 13.7746 53.2251 13.8559L53.3697 14.1058C53.4757 14.2638 53.5793 14.4277 53.7 14.5738C53.8737 14.8024 54.0766 15.005 54.2906 15.1921L54.3001 15.2007C54.6211 15.4808 54.6552 15.9674 54.3751 16.2896C54.3311 16.3407 54.2775 16.3869 54.224 16.4234C54.128 16.4883 54.032 16.5543 53.9384 16.6216C53.3299 17.1136 52.8237 17.7684 52.4681 18.4962C52.2886 18.8583 52.1424 19.2377 52.0433 19.6154C52.0215 19.7089 51.9925 19.8036 51.9792 19.8961C51.9622 19.9885 51.9429 20.0821 51.9356 20.1698L51.9205 20.302L51.9188 20.4247L51.9144 20.486C51.9141 20.5052 51.9175 20.5221 51.9184 20.539C51.9215 20.5739 51.9235 20.6089 51.9242 20.6438L51.926 20.6859C51.9407 21.1831 51.5498 21.6 51.0526 21.6147C50.6517 21.6271 50.3027 21.3731 50.1753 21.0151C50.0526 20.6681 49.9492 20.3224 49.8623 19.9987C49.7741 19.6762 49.6955 19.361 49.6068 19.0806C49.5861 19.0093 49.5642 18.9404 49.5411 18.8763C49.5179 18.811 49.4972 18.7433 49.4728 18.6804C49.4216 18.5594 49.3752 18.4324 49.3165 18.3269C49.2652 18.2106 49.198 18.117 49.1392 18.0139C49.1062 17.9665 49.0695 17.9239 49.0365 17.8777L48.9857 17.8096L48.9263 17.7498C48.6253 17.4243 48.2112 17.1754 47.6986 17.0033C47.1991 16.8363 46.9299 16.2958 47.097 15.7964C47.1736 15.5664 47.3302 15.3857 47.5243 15.2729L47.5716 15.2459L47.8094 15.1084C47.8494 15.0849 47.8894 15.0638 47.9283 15.0403L48.0389 14.9612C48.1118 14.9081 48.1895 14.8599 48.2613 14.8043L48.4683 14.6303C48.7329 14.3849 48.9856 14.1226 49.1862 13.8101C49.3914 13.5037 49.5742 13.173 49.714 12.8139C49.7934 12.6405 49.8454 12.4499 49.9118 12.2668L49.9904 11.9815L50.0297 11.8388L50.0606 11.6924C50.1577 11.2907 50.2755 10.8748 50.3872 10.4576C50.4103 10.3568 50.4441 10.2659 50.4849 10.1822C50.5283 10.0913 50.5709 10.0583 50.6372 9.87627C50.7042 9.73402 50.79 9.62331 50.8739 9.5583C50.9579 9.49209 51.0353 9.46671 51.0978 9.46758C51.2794 9.47615 51.3192 9.7258 51.4957 9.93043C51.5785 10.0327 51.7073 10.1139 51.8227 10.1191C51.8792 10.1235 51.9251 10.1121 51.9529 10.1017L51.9578 10.0994C51.9578 10.0994 51.9614 10.0994 51.9613 10.1054L51.9681 10.1332C51.9715 10.1513 51.976 10.1706 51.9794 10.1899C51.9861 10.2285 51.9915 10.2683 51.9957 10.3105C52.0051 10.4153 52.0108 10.5237 52.0129 10.632C52.0113 10.7415 52.0038 10.8521 51.9938 10.9627C51.9787 11.1839 51.9322 11.4058 51.8847 11.6206C51.7635 12.1122 51.6315 12.6026 51.4454 13.0837C51.263 13.5637 51.0541 14.0397 50.7795 14.4895C50.2505 15.3954 49.4895 16.209 48.574 16.7918C48.5217 16.826 48.4707 16.8614 48.4173 16.8955L48.2983 15.2513C48.5595 15.3344 48.8282 15.3983 49.0874 15.5307C49.2177 15.5915 49.3456 15.6522 49.466 15.7394C49.5268 15.7799 49.5851 15.8217 49.6435 15.8658C49.7019 15.9075 49.7578 15.9528 49.8088 16.0065C50.1604 16.3291 50.4558 16.7183 50.6897 17.1151C50.926 17.5155 51.085 17.9305 51.2094 18.3233C51.3351 18.7162 51.4308 19.099 51.5185 19.4552C51.6073 19.8114 51.6941 20.1484 51.7871 20.465L50.2253 20.7956C50.2239 20.6392 50.2166 20.4718 50.2367 20.3313C50.2696 19.9563 50.3501 19.6229 50.4449 19.2957L50.5181 19.0537L50.6032 18.8178C50.6572 18.6585 50.7255 18.5091 50.789 18.3559C51.0538 17.7496 51.3963 17.1828 51.8151 16.67C52.2778 16.1097 52.8287 15.6072 53.4695 15.2251L53.4109 16.3121C52.7807 15.775 52.2602 15.13 51.8814 14.4267L51.7395 14.1624L51.6134 13.8923L51.5503 13.7578L51.4956 13.6199L51.3864 13.344C51.2556 12.9727 51.1381 12.598 51.0557 12.2166C50.8538 11.3402 50.913 10.4638 51.2659 9.75152C51.313 9.65592 51.3813 9.59069 51.4551 9.56044C51.4684 9.55461 51.4747 9.54026 51.4688 9.52694C51.4689 9.52453 51.4665 9.52209 51.4641 9.51965L51.3551 9.39659C51.3101 9.34541 51.2275 9.31778 51.1771 9.30745C51.1243 9.29588 51.0931 9.28702 51.0814 9.26639C51.0708 9.24699 51.0773 9.21339 51.138 9.17453C51.1684 9.1557 51.2156 9.13591 51.2783 9.12957C51.3397 9.12201 51.4142 9.13148 51.4801 9.15286L51.7294 9.56429C51.8155 9.60641 51.8877 9.69165 51.9208 9.81727C52.0546 10.3185 52.1811 10.8245 52.321 11.3138C52.4345 11.7149 52.5153 12.1312 52.6518 12.5242C52.6602 12.5219 52.6687 12.5208 52.6783 12.5186L52.6796 12.5126Z" fill="#FFCC49"/>
<path id="Vector_4" d="M49.6755 48.9219C49.6969 49.0209 49.7184 49.1235 49.7423 49.2177C49.7537 49.2672 49.7663 49.3119 49.7777 49.3529C49.7892 49.3952 49.8006 49.4387 49.8157 49.4798C49.8699 49.6478 49.9385 49.8149 50.0218 49.9689C50.1883 50.2793 50.4083 50.5543 50.6654 50.754C50.8083 50.8631 50.9623 50.9507 51.1263 51.0072L51.179 51.026C51.5706 51.1614 51.7788 51.5891 51.6421 51.9807C51.5782 52.1651 51.4474 52.3101 51.2886 52.3957C51.1188 52.4872 50.9585 52.592 50.8136 52.7152C50.5127 52.9721 50.2604 53.2862 50.0219 53.6523C49.9026 53.8347 49.7855 54.0304 49.6671 54.2345L49.4858 54.5473C49.4303 54.6452 49.3834 54.7287 49.3376 54.8232C49.1555 55.19 49.0214 55.5732 48.962 55.9502C48.9001 56.3272 48.9094 56.692 48.9914 57.024L47.2211 57.3819C47.0915 56.7567 46.952 56.1519 46.7674 55.5849C46.5471 54.9044 46.2634 54.2807 45.8761 53.7578C45.4899 53.2325 45.0097 52.8094 44.4776 52.5721C43.9957 52.356 43.7786 51.7898 43.9947 51.3079C44.0904 51.0938 44.2551 50.9325 44.4514 50.8377L44.4974 50.8155L44.7167 50.7091L44.8269 50.6577L44.9313 50.5954L45.14 50.4708L45.337 50.3267L45.4366 50.2559L45.5292 50.1742L45.7144 50.0131L45.8854 49.8338C45.9135 49.8041 45.944 49.7757 45.9709 49.7448L46.0493 49.6472C46.1019 49.5817 46.1558 49.5187 46.2072 49.4521L46.3521 49.2435C46.4024 49.1756 46.4456 49.1016 46.4887 49.0276C46.5319 48.9536 46.5774 48.8809 46.6182 48.8056C46.6926 48.649 46.7789 48.4998 46.8414 48.3346C46.8751 48.2533 46.9099 48.1743 46.9423 48.0918L47.0288 47.8415C47.1572 47.4426 47.3265 47.0418 47.449 46.6248C47.512 46.4283 47.595 46.2586 47.7122 46.1339C47.7576 46.1586 47.8483 46.2152 47.9663 46.2073C48.0843 46.2017 48.1938 46.1202 48.2494 46.0163C48.4078 45.702 48.2815 45.4403 48.4588 45.4115C48.5034 45.4074 48.5742 45.4228 48.6682 45.4927C48.7612 45.5602 48.8712 45.6953 48.9338 45.8634C48.9663 45.9469 48.988 46.0339 49.0024 46.1183C49.0079 46.1569 49.0134 46.1955 49.0188 46.2353C49.0234 46.2534 49.028 46.2715 49.0325 46.2908C49.0495 46.3669 49.0604 46.4488 49.0651 46.538C49.0824 46.7632 49.0551 46.9975 49.0253 47.2317C49.0056 47.3482 48.9787 47.4645 48.9518 47.5797C48.9378 47.6372 48.9238 47.6948 48.9085 47.7511C48.8897 47.8074 48.872 47.8637 48.8544 47.9188C48.5538 48.8472 48.1213 49.7388 47.5217 50.5379C47.2213 50.9368 46.8696 51.3013 46.4847 51.634C46.0938 51.963 45.6579 52.2373 45.1973 52.4751L45.2142 50.9267C45.4105 51.0064 45.6066 51.091 45.7917 51.1923C46.3675 51.4964 46.915 51.9216 47.2447 52.4389C48.2056 53.9397 48.6559 55.5488 48.9017 57.0709L48.9095 57.1167C48.9804 57.5558 48.6821 57.9703 48.2419 58.0412C47.8077 58.1109 47.3991 57.82 47.3197 57.3905C47.285 57.2035 47.2612 57.0142 47.2554 56.8276C47.2276 56.0607 47.3931 55.3302 47.6646 54.6745C47.8004 54.3467 47.9661 54.0302 48.1519 53.738C48.3155 53.4803 48.4842 53.2107 48.6745 52.9403C48.9115 52.603 49.1822 52.2603 49.5042 51.9519C49.8226 51.6411 50.1946 51.3768 50.5814 51.1656L50.7222 52.3673C50.2862 52.224 49.8924 51.9899 49.5679 51.7001C49.241 51.4115 48.9786 51.0733 48.7707 50.7154C48.6649 50.5359 48.5773 50.3493 48.4969 50.1593C48.4213 49.9705 48.3532 49.7674 48.3052 49.5838C48.2033 49.2105 48.1302 48.8461 48.0668 48.4794C47.9901 48.0295 47.9602 47.5874 47.9939 47.1583C48.0276 46.7304 48.1213 46.3129 48.3057 45.9449C48.3478 45.8648 48.4027 45.8067 48.4633 45.7738L48.4607 45.793C48.4725 45.8076 48.472 45.8425 48.4535 45.8736C48.435 45.9058 48.4034 45.9294 48.3803 45.9447C48.3318 45.9753 48.3062 45.993 48.3022 46.023C48.3018 46.0495 48.3132 46.0966 48.414 46.1173C48.4632 46.1264 48.5463 46.1191 48.6301 46.0662C48.7139 46.0156 48.7741 45.9262 48.7979 45.8603L48.806 45.7931C48.8776 45.8398 48.9307 45.9151 48.958 46.025C49.0881 46.5335 49.225 47.0661 49.3607 47.5962C49.4725 48.0346 49.5322 48.4975 49.6465 48.9251C49.655 48.924 49.6634 48.9229 49.6731 48.9219L49.6755 48.9219Z" fill="#FFCC49"/>
</g>
</svg>
