<svg width="1440" height="18" viewBox="0 0 1440 18" fill="none" xmlns="http://www.w3.org/2000/svg">
<path fill-rule="evenodd" clip-rule="evenodd" d="M1440 12.2521L1413.6 11.5714C1387.2 10.8908 1333.2 9.5294 1280.4 8.84873C1226.4 8.16805 1173.6 8.16804 1119.6 10.2101C1066.8 12.2521 1012.8 16.3361 960 14.9747C907.2 13.6134 853.2 6.80667 800.4 4.08398C746.4 1.36128 693.6 2.72262 639.6 5.44531C586.8 8.16799 532.8 12.252 480 14.9747C427.2 17.6974 373.2 19.0587 320.4 17.0167C266.4 14.9747 213.6 9.5293 159.6 6.80661C106.8 4.08392 52.7999 4.08391 26.3999 4.08391L-0.000120854 4.08391L-0.000120497 -0.000125889L26.3999 -0.000123581C52.7999 -0.000121273 106.8 -0.000116552 159.6 -0.000111936C213.6 -0.000107215 266.4 -0.000102599 320.4 -9.78785e-05C373.2 -9.32626e-05 427.2 -8.85418e-05 480 -8.39259e-05C532.8 -7.93099e-05 586.8 -7.45891e-05 639.6 -6.99732e-05C693.6 -6.52524e-05 746.4 -6.06364e-05 800.4 -5.59156e-05C853.2 -5.12997e-05 907.2 -4.65789e-05 960 -4.19629e-05C1012.8 -3.7347e-05 1066.8 -3.26262e-05 1119.6 -2.80103e-05C1173.6 -2.32894e-05 1226.4 -1.86735e-05 1280.4 -1.39527e-05C1333.2 -9.33675e-06 1387.2 -4.61592e-06 1413.6 -2.30796e-06L1440 0L1440 12.2521Z" fill="#FFF2E1"/>
</svg>
