<svg width="275" height="194" viewBox="0 0 275 194" fill="none" xmlns="http://www.w3.org/2000/svg">
<path d="M274.245 67.2583C275.173 70.0102 275.205 71.2181 273.417 72.267C264.571 77.4547 255.558 82.415 247.101 88.1847C241.848 91.769 238.024 91.3012 232.94 87.8549C224.476 82.1189 215.399 77.2884 206.003 71.7352C194.862 78.34 183.437 85.1149 171.808 92.0084C165.615 88.4022 159.689 85.0207 153.835 81.5204C149.142 78.7164 144.508 75.811 139.907 72.859C138.25 71.7955 136.845 71.7946 135.169 72.8389C127.05 77.896 118.899 82.9029 110.717 87.8559C108.519 89.1852 106.169 90.2606 103.589 91.6101C91.4556 86.3839 81.0471 77.7681 68.8753 71.7991C63.0288 75.2884 57.1869 78.7795 51.3395 82.2632C46.6415 85.0618 41.9086 87.8055 37.2481 90.6662C35.3833 91.8102 33.715 91.6064 31.9681 90.5392C22.4897 84.7466 12.9959 78.9778 3.5304 73.1632C2.25855 72.3821 1.11832 71.3843 0 70.5493C0.767475 67.9115 1.96891 67.5415 3.92231 68.7383C9.7469 72.309 15.6163 75.8074 21.461 79.3478C25.9799 82.0851 30.487 84.8435 35.0489 87.6229C44.0256 82.0642 52.5354 76.3254 61.4875 71.3889C69.7369 66.8398 68.118 66.0824 76.6443 71.399C85.3442 76.8243 94.1994 82.0029 103.426 87.5534C114.622 80.763 125.978 73.8759 137.529 66.8699C148.832 73.6804 160.214 80.5401 171.8 87.5214C183.229 80.6443 194.638 73.779 206.121 66.8699C217.405 73.7297 228.494 80.4698 239.922 87.4163C251.484 81.5114 262.139 73.4794 274.245 67.2583Z" fill="#FEF3E6"/>
<path d="M240.188 58.7C237.451 57.1541 234.459 55.5561 231.56 53.8055C224.103 49.3011 216.693 44.7192 209.252 40.1874C207.065 38.8553 205.185 38.6415 202.668 40.2505C193.888 45.8621 184.864 51.091 175.911 56.4305C174.595 57.2144 173.165 57.8073 171.59 58.5867C166.454 55.6337 161.246 52.7127 156.112 49.6676C150.675 46.4432 145.272 43.1595 139.93 39.7817C138.026 38.5775 136.613 38.9238 134.777 40.0421C124.998 45.9928 115.122 51.7863 105.275 57.6228C104.696 57.9654 104.059 58.2112 103.207 58.6177C97.347 55.2254 91.4227 51.8366 85.5396 48.3765C81.1248 45.779 76.7118 43.1705 72.3975 40.4122C69.9343 38.837 67.8175 38.8617 65.3113 40.4304C56.1911 46.1426 46.9767 51.7041 37.7725 57.2811C36.7748 57.8859 35.6137 58.2212 34.4881 58.6991C23.97 52.4049 13.5643 46.1956 3.18696 39.9388C2.18009 39.3313 1.13122 38.5666 0.521821 37.6081C0.113397 36.964 0.444084 35.8493 0.444084 34.1005C13.0782 39.9562 23.3368 48.3674 35.1696 54.3464C46.5228 47.4482 57.8767 40.5493 69.2563 33.6346C80.7063 40.5986 91.9281 47.4245 103.524 54.4771C114.741 47.5944 126.064 40.6461 137.593 33.5716C148.903 40.4843 160.111 47.335 171.794 54.4761C182.923 47.683 194.262 40.7629 206.019 33.5862C217.096 40.3729 228.295 47.2345 239.917 54.3555C251.372 48.3555 262.22 40.6726 273.94 34.181C274.88 37.6246 274.661 38.2678 272.33 39.7497C269.592 41.4911 266.866 43.2537 264.065 44.8891C256.254 49.451 248.407 53.9517 240.188 58.7Z" fill="#FEF3E6"/>
<path d="M103.419 21.2308C114.796 14.3134 126.028 7.48471 137.553 0.477893C148.932 7.41255 160.283 14.3299 171.78 21.3377C183.053 14.4496 194.267 7.59617 205.921 0.475098C217.194 7.29554 228.581 14.1846 240.146 21.1814C245.94 17.7451 251.597 14.2713 257.368 11.0014C262.93 7.84929 267.851 3.48927 274.157 1.39428C275.827 4.49344 273.818 5.66741 272.188 6.72093C269.177 8.66703 266.017 10.381 262.924 12.1992C256.291 16.1006 249.666 20.0165 243.023 23.9014C242.002 24.4989 240.907 24.9704 239.935 25.4546C229.47 19.2051 219.206 13.0708 208.937 6.94655C206.871 5.71492 205.112 5.65101 202.796 7.07995C192.615 13.3632 182.243 19.3385 171.709 25.5615C161.642 19.503 151.542 13.4518 141.476 7.34584C138.906 5.78714 136.876 5.62726 134.003 7.45458C124.632 13.4162 114.938 18.8717 105.361 24.509C104.779 24.8516 104.134 25.0855 103.377 25.4345C98.2259 22.4916 93.0061 19.588 87.8659 16.5501C82.4241 13.333 77.0024 10.0749 71.6877 6.65424C69.5104 5.25264 67.738 6.01004 65.9463 7.04984C62.8435 8.85156 59.8447 10.8305 56.7593 12.6643C49.7022 16.8589 42.6196 21.0087 35.1988 25.3824C33.8247 24.7218 32.0786 24.0347 30.4843 23.0919C21.5067 17.778 12.5492 12.4304 3.63001 7.01873C2.35454 6.24493 1.23891 5.1421 0.239364 4.02194C-0.0191924 3.73141 0.302403 2.71816 0.619461 2.19558C0.807666 1.88397 1.59988 1.64188 1.95895 1.78257C3.54778 2.40385 5.1695 3.02698 6.61491 3.91599C14.3344 8.66062 21.9974 13.4984 29.6968 18.2741C31.2957 19.2655 32.9704 20.1334 34.8352 21.186C39.9462 18.1316 45.0891 15.0873 50.2028 11.9946C55.4673 8.81135 60.7576 5.66563 65.9289 2.33622C68.4286 0.727272 70.392 0.990429 72.8717 2.57015C82.3829 8.63134 92.0458 14.455 101.659 20.3555C102.229 20.7045 102.858 20.9539 103.419 21.2308Z" fill="#FEF3E6"/>
<path d="M274.245 169.258C275.173 172.01 275.205 173.218 273.417 174.267C264.571 179.455 255.558 184.415 247.101 190.185C241.848 193.769 238.024 193.301 232.94 189.855C224.476 184.119 215.399 179.288 206.003 173.735C194.862 180.34 183.437 187.115 171.808 194.008C165.615 190.402 159.689 187.021 153.835 183.52C149.142 180.716 144.508 177.811 139.907 174.859C138.25 173.796 136.845 173.795 135.169 174.839C127.05 179.896 118.899 184.903 110.717 189.856C108.519 191.185 106.169 192.261 103.589 193.61C91.4556 188.384 81.0471 179.768 68.8753 173.799C63.0288 177.288 57.1869 180.779 51.3395 184.263C46.6415 187.062 41.9086 189.806 37.2481 192.666C35.3833 193.81 33.715 193.606 31.9681 192.539C22.4897 186.747 12.9959 180.978 3.5304 175.163C2.25855 174.382 1.11832 173.384 0 172.549C0.767475 169.912 1.96891 169.542 3.92231 170.738C9.7469 174.309 15.6163 177.807 21.461 181.348C25.9799 184.085 30.487 186.844 35.0489 189.623C44.0256 184.064 52.5354 178.325 61.4875 173.389C69.7369 168.84 68.118 168.082 76.6443 173.399C85.3442 178.824 94.1994 184.003 103.426 189.553C114.622 182.763 125.978 175.876 137.529 168.87C148.832 175.68 160.214 182.54 171.8 189.521C183.229 182.644 194.638 175.779 206.121 168.87C217.405 175.73 228.494 182.47 239.922 189.416C251.484 183.511 262.139 175.479 274.245 169.258Z" fill="#FEF3E6"/>
<path d="M240.188 160.7C237.451 159.154 234.459 157.556 231.56 155.805C224.103 151.301 216.693 146.719 209.252 142.187C207.065 140.855 205.185 140.642 202.668 142.25C193.888 147.862 184.864 153.091 175.911 158.43C174.595 159.214 173.165 159.807 171.59 160.587C166.454 157.634 161.246 154.713 156.112 151.668C150.675 148.443 145.272 145.16 139.93 141.782C138.026 140.578 136.613 140.924 134.777 142.042C124.998 147.993 115.122 153.786 105.275 159.623C104.696 159.965 104.059 160.211 103.207 160.618C97.347 157.225 91.4227 153.837 85.5396 150.377C81.1248 147.779 76.7118 145.171 72.3975 142.412C69.9343 140.837 67.8175 140.862 65.3113 142.43C56.1911 148.143 46.9767 153.704 37.7725 159.281C36.7748 159.886 35.6137 160.221 34.4881 160.699C23.97 154.405 13.5643 148.196 3.18696 141.939C2.18009 141.331 1.13122 140.567 0.521821 139.608C0.113397 138.964 0.444084 137.849 0.444084 136.101C13.0782 141.956 23.3368 150.367 35.1696 156.346C46.5228 149.448 57.8767 142.549 69.2563 135.635C80.7063 142.599 91.9281 149.424 103.524 156.477C114.741 149.594 126.064 142.646 137.593 135.572C148.903 142.484 160.111 149.335 171.794 156.476C182.923 149.683 194.262 142.763 206.019 135.586C217.096 142.373 228.295 149.234 239.917 156.356C251.372 150.356 262.22 142.673 273.94 136.181C274.88 139.625 274.661 140.268 272.33 141.75C269.592 143.491 266.866 145.254 264.065 146.889C256.254 151.451 248.407 155.952 240.188 160.7Z" fill="#FEF3E6"/>
<path d="M103.419 123.231C114.796 116.313 126.028 109.485 137.553 102.478C148.932 109.413 160.283 116.33 171.78 123.338C183.053 116.45 194.267 109.596 205.921 102.475C217.194 109.296 228.581 116.185 240.146 123.181C245.94 119.745 251.597 116.271 257.368 113.001C262.93 109.849 267.851 105.489 274.157 103.394C275.827 106.493 273.818 107.667 272.188 108.721C269.177 110.667 266.017 112.381 262.924 114.199C256.291 118.101 249.666 122.017 243.023 125.901C242.002 126.499 240.907 126.97 239.935 127.455C229.47 121.205 219.206 115.071 208.937 108.947C206.871 107.715 205.112 107.651 202.796 109.08C192.615 115.363 182.243 121.339 171.709 127.561C161.642 121.503 151.542 115.452 141.476 109.346C138.906 107.787 136.876 107.627 134.003 109.455C124.632 115.416 114.938 120.872 105.361 126.509C104.779 126.852 104.134 127.085 103.377 127.435C98.2259 124.492 93.0061 121.588 87.8659 118.55C82.4241 115.333 77.0024 112.075 71.6877 108.654C69.5104 107.253 67.738 108.01 65.9463 109.05C62.8435 110.852 59.8447 112.831 56.7593 114.664C49.7022 118.859 42.6196 123.009 35.1988 127.382C33.8247 126.722 32.0786 126.035 30.4843 125.092C21.5067 119.778 12.5492 114.43 3.63001 109.019C2.35454 108.245 1.23891 107.142 0.239364 106.022C-0.0191924 105.731 0.302403 104.718 0.619461 104.196C0.807666 103.884 1.59988 103.642 1.95895 103.783C3.54778 104.404 5.1695 105.027 6.61491 105.916C14.3344 110.661 21.9974 115.498 29.6968 120.274C31.2957 121.265 32.9704 122.133 34.8352 123.186C39.9462 120.132 45.0891 117.087 50.2028 113.995C55.4673 110.811 60.7576 107.666 65.9289 104.336C68.4286 102.727 70.392 102.99 72.8717 104.57C82.3829 110.631 92.0458 116.455 101.659 122.355C102.229 122.704 102.858 122.954 103.419 123.231Z" fill="#FEF3E6"/>
</svg>
