<svg width="49" height="48" viewBox="0 0 49 48" fill="none" xmlns="http://www.w3.org/2000/svg">
<g id="Highlight_03">
<g id="Group">
<path id="Vector" fill-rule="evenodd" clip-rule="evenodd" d="M41.4049 20.0232C40.9435 25.4881 41.8297 30.5404 42.5188 35.9005C42.6536 36.9472 43.6092 37.684 44.653 37.551C45.6975 37.418 46.4349 36.4584 46.3008 35.4115C45.6472 30.3289 44.7668 25.5331 45.204 20.3422C45.2927 19.2923 44.5125 18.367 43.4644 18.2818C42.4159 18.1904 41.493 18.9734 41.4049 20.0232Z" fill="#FFCC49"/>
<path id="Vector_2" fill-rule="evenodd" clip-rule="evenodd" d="M28.8007 11.5682C21.2933 20.979 14.6566 32.607 10.5253 43.9416C10.1652 44.9315 10.6753 46.0283 11.6637 46.3867C12.652 46.7451 13.7478 46.2371 14.1079 45.2471C18.103 34.288 24.5215 23.0419 31.7817 13.9469C32.4375 13.1225 32.3021 11.9214 31.4798 11.2665C30.6575 10.6116 29.4565 10.7438 28.8007 11.5682Z" fill="#FFCC49"/>
<path id="Vector_3" fill-rule="evenodd" clip-rule="evenodd" d="M25.1909 3.15702C16.9541 3.10262 9.03777 6.67147 2.24423 11.0214C1.35853 11.5926 1.09993 12.7724 1.66607 13.6544C2.23384 14.5426 3.41407 14.7998 4.30076 14.2349C10.4874 10.2705 17.6639 6.92161 25.1656 6.97007C26.2181 6.97726 27.0776 6.12707 27.0846 5.07718C27.0922 4.02719 26.2428 3.16431 25.1909 3.15702Z" fill="#FFCC49"/>
</g>
</g>
</svg>
