<svg width="1440" height="18" viewBox="0 0 1440 18" fill="none" xmlns="http://www.w3.org/2000/svg">
<path fill-rule="evenodd" clip-rule="evenodd" d="M0 5.7479L26.4 6.42857C52.8 7.10924 106.8 8.47059 159.6 9.15126C213.6 9.83193 266.4 9.83193 320.4 7.78992C373.2 5.7479 427.2 1.66387 480 3.02521C532.8 4.38655 586.8 11.1933 639.6 13.916C693.6 16.6387 746.4 15.2773 800.4 12.5546C853.2 9.83193 907.2 5.7479 960 3.02521C1012.8 0.302521 1066.8 -1.05882 1119.6 0.983193C1173.6 3.02521 1226.4 8.47059 1280.4 11.1933C1333.2 13.916 1387.2 13.916 1413.6 13.916H1440V18H1413.6C1387.2 18 1333.2 18 1280.4 18C1226.4 18 1173.6 18 1119.6 18C1066.8 18 1012.8 18 960 18C907.2 18 853.2 18 800.4 18C746.4 18 693.6 18 639.6 18C586.8 18 532.8 18 480 18C427.2 18 373.2 18 320.4 18C266.4 18 213.6 18 159.6 18C106.8 18 52.8 18 26.4 18H0V5.7479Z" fill="#FFF2E1"/>
</svg>
