<svg width="1440" height="35" viewBox="0 0 1440 35" fill="none" xmlns="http://www.w3.org/2000/svg">
<path d="M0 21.4854L34.4 19.7883C68.8 18.0754 137.6 14.681 206.08 12.261C274.72 9.85662 342.88 8.44231 411.52 6.44655C480 4.46651 548.8 1.88932 617.28 0.74215C685.92 -0.405017 754.08 -0.153585 822.72 1.02501C891.2 2.20361 960 4.30937 1028.48 6.79227C1097.12 9.27518 1165.28 12.1667 1233.92 12.8895C1302.4 13.6281 1371.2 12.2138 1405.6 11.5067L1440 10.7995V35H1405.6C1371.2 35 1302.4 35 1233.92 35C1165.28 35 1097.12 35 1028.48 35C960 35 891.2 35 822.72 35C754.08 35 685.92 35 617.28 35C548.8 35 480 35 411.52 35C342.88 35 274.72 35 206.08 35C137.6 35 68.8 35 34.4 35H0V21.4854Z" fill="#FFF2E1"/>
</svg>
