<svg width="143" height="144" viewBox="0 0 143 144" fill="none" xmlns="http://www.w3.org/2000/svg">
<g id="shape, abstract, blob, stars, spark, sparks, sparkle, shine, night, pattern, magic, dust, fairy">
<path id="Vector" d="M97.849 27.0762C96.7252 28.9957 95.397 30.8108 93.8341 32.3867C93.0555 33.1761 92.2339 33.918 91.352 34.5819C90.4701 35.2429 89.5449 35.8369 88.5763 36.3497C87.7589 36.787 86.9036 37.1374 86.0365 37.4485L85.9439 37.4809C85.0179 37.8154 84.5359 38.8374 84.8704 39.7634C85.0406 40.2377 85.3953 40.5965 85.8211 40.7879C87.2798 41.4387 88.7516 42.0103 90.1614 42.5941C91.3898 43.1042 92.5701 43.6094 93.6668 44.1891C94.7663 44.7631 95.7713 45.4315 96.7099 46.1996C96.9439 46.3909 97.1779 46.5851 97.398 46.7963L97.7351 47.1046C97.8437 47.2075 97.9184 47.3051 98.01 47.4025C98.1877 47.6003 98.3735 47.7782 98.5405 48.0268C98.7103 48.2642 98.8909 48.476 99.0525 48.7332L99.537 49.4991C99.6958 49.7592 99.8407 50.0392 99.9911 50.3078L100.217 50.7136L100.426 51.1394L100.844 51.988C101.909 54.3026 102.797 56.7495 103.549 59.2321C103.91 60.4764 104.263 61.7264 104.543 62.9803C104.823 64.2286 105.078 65.4914 105.21 66.6853C105.339 67.8539 106.392 68.6965 107.56 68.5673C108.45 68.4674 109.152 67.8343 109.377 67.0189L109.383 66.9934C109.804 65.4589 110.063 64.0028 110.316 62.5581L111.02 58.2868C111.405 55.9716 111.819 53.687 112.407 51.5523C112.708 50.4961 113.063 49.4814 113.482 48.6041L113.815 47.9959C113.947 47.7881 114.094 47.5746 114.232 47.3639C114.53 46.948 114.841 46.5347 115.19 46.1406C115.876 45.3469 116.647 44.5944 117.474 43.8862C118.308 43.1863 119.192 42.5281 120.115 41.9144C121.959 40.6899 123.955 39.6466 126.002 38.8141C127.152 38.3467 127.706 37.0332 127.236 35.8835C126.996 35.2917 126.533 34.8583 125.983 34.6404L125.963 34.6322C124.327 33.9896 122.693 33.3441 121.168 32.5786C119.615 31.8446 118.184 30.9791 116.865 30.0133L115.898 29.2654L115.01 28.4459C114.699 28.1851 114.446 27.8728 114.174 27.5777C113.913 27.2739 113.616 26.9989 113.391 26.6608L112.67 25.6923C112.442 25.357 112.243 24.9988 112.026 24.6578L111.706 24.1377C111.608 23.9558 111.52 23.768 111.428 23.586L110.873 22.4798C109.921 20.361 109.083 18.0827 108.362 15.7802C108.202 15.224 108.032 14.7188 107.85 14.2644C107.76 14.0372 107.667 13.8214 107.571 13.6169C107.544 13.5552 107.53 13.5413 107.51 13.5134C107.493 13.4882 107.473 13.4631 107.453 13.4408C107.412 13.3935 107.369 13.3489 107.321 13.3045C107.132 13.1266 106.873 12.9441 106.621 12.6882C106.367 12.4351 106.128 12.1198 105.937 11.7869C105.382 10.7991 105.3 10.2052 104.959 10.5963C104.876 10.6962 104.777 10.864 104.667 11.125C104.558 11.3832 104.442 11.743 104.361 12.201C104.28 12.6562 104.245 13.2038 104.273 13.7759C104.281 13.9168 104.291 14.069 104.302 14.2014C104.311 14.2971 104.318 14.3958 104.328 14.4971C104.348 14.6999 104.374 14.9083 104.405 15.125C104.48 15.6739 104.57 16.2311 104.668 16.7966C104.772 17.362 104.926 17.9295 105.067 18.5C105.328 19.6442 105.759 20.7776 106.147 21.872C106.348 22.3656 106.569 22.8532 106.779 23.3438L107.097 24.0783L107.468 24.7951C107.723 25.2709 107.955 25.7556 108.23 26.2199L109.098 27.5981C110.327 29.3971 111.809 31.0431 113.478 32.4355L114.761 33.43C115.197 33.7454 115.649 34.0267 116.096 34.3278C116.538 34.6375 117.001 34.8877 117.462 35.1519C117.922 35.4134 118.377 35.6919 118.849 35.9137L120.249 36.6217L121.663 37.2674L122.369 37.5875L123.079 37.885L124.5 38.4827L124.468 34.9803C122.327 35.7972 120.271 36.7821 118.296 37.9492C117.012 38.709 115.733 39.5533 114.536 40.5289C113.34 41.5018 112.23 42.6088 111.328 43.8567C111.036 44.2895 110.728 44.7028 110.464 45.1606C110.329 45.3909 110.185 45.5932 110.059 45.8488L109.683 46.5929C109.546 46.843 109.473 47.0838 109.366 47.3307C109.271 47.5745 109.162 47.8214 109.08 48.0623C108.929 48.5439 108.744 49.0315 108.621 49.5071C108.073 51.4213 107.71 53.299 107.378 55.1594C107.051 57.0198 106.773 58.8653 106.485 60.68C106.195 62.489 105.904 64.2952 105.493 65.9283L109.228 66.2031C109.038 64.7223 108.722 63.3504 108.37 61.9847C107.944 60.3549 107.457 58.7598 106.918 57.1739C106.383 55.588 105.799 54.0168 105.129 52.4666C104.459 50.9164 103.743 49.3781 102.831 47.882C102.372 47.1355 101.882 46.395 101.294 45.6756C101.222 45.5863 101.156 45.4942 101.076 45.4051L100.827 45.1406L100.323 44.6175C100.154 44.4422 99.9917 44.3176 99.8232 44.1676C99.6548 44.0233 99.4948 43.8733 99.3208 43.7375C98.4105 42.9804 97.4168 42.309 96.3905 41.7227C95.3641 41.1363 94.3081 40.6463 93.2641 40.2097C91.1706 39.3422 89.1527 38.6373 87.2283 37.7646L87.0453 40.6072C88.898 39.9833 90.6512 39.1098 92.2665 38.0549C93.8732 36.9861 95.3392 35.7387 96.6653 34.372C97.9828 32.9969 99.1547 31.497 100.19 29.9144C101.223 28.3347 102.09 26.6275 102.816 24.9083C103.741 22.6983 104.373 20.4727 104.771 18.3152C105.175 16.1577 105.343 14.0627 105.318 12.0776C105.305 11.3304 105.138 10.8815 104.902 10.7607L105.168 11.4056C105.231 11.4612 105.324 11.5106 105.418 11.5319C105.511 11.5531 105.598 11.5519 105.66 11.5454C105.787 11.5295 105.835 11.5119 105.846 11.5287C105.852 11.5427 105.819 11.5967 105.679 11.6523C105.609 11.6787 105.508 11.7026 105.389 11.693C105.27 11.6862 105.14 11.6457 105.043 11.5879L104.687 10.7214C104.383 10.7595 104.032 11.2411 103.74 12.1674C102.868 14.9435 101.966 17.8159 100.905 20.5524C100.04 22.7982 99.1351 25.0699 97.9195 27.0781C97.8997 27.0727 97.8799 27.0673 97.8544 27.0621L97.849 27.0762Z" fill="#FFCC49"/>
<path id="Vector_2" d="M49.0473 56.46C48.6822 57.5706 48.2915 58.6732 47.8837 59.7591C47.7803 60.0256 47.6771 60.3091 47.5734 60.5587C47.4696 60.7943 47.3799 61.0381 47.2647 61.271C47.0428 61.7366 46.7982 62.1941 46.5252 62.6323C45.4302 64.3934 43.8947 65.9097 42.0698 67.1029C40.5163 68.1428 38.7538 68.9572 36.9181 69.5808C35.9918 69.8956 35.4982 70.9009 35.8102 71.8244C35.9631 72.2763 36.2811 72.6244 36.6703 72.8276L36.7186 72.8523C37.1107 73.0555 37.5081 73.2389 37.8864 73.4705C40.0674 74.7401 42.0348 76.4695 43.7515 78.4168C45.471 80.3668 46.94 82.5545 48.1288 84.8674C49.3147 87.1803 50.2262 89.6296 50.7236 92.1186C51.2182 94.602 51.2989 97.1363 50.7616 99.4451L54.9665 100.244C55.3749 97.7898 55.7722 95.3531 56.2633 92.9687C56.7042 90.822 57.2104 88.7081 57.8529 86.6629C58.4983 84.6204 59.2772 82.6437 60.2325 80.7802C60.4742 80.32 60.73 79.8595 60.9832 79.4103C61.2422 78.9724 61.5097 78.5428 61.7973 78.1326C62.3695 77.3067 62.9961 76.5392 63.6748 75.8641C65.0349 74.5082 66.6155 73.592 68.245 73.352C69.4721 73.1712 70.3219 72.0284 70.1411 70.8013C70.0353 70.0892 69.6097 69.5058 69.0325 69.1754L69.0155 69.1672C67.5117 68.3197 66.1183 67.3042 64.9082 66.0858C64.5939 65.7941 64.3185 65.4624 64.0237 65.1506C63.751 64.816 63.4645 64.4957 63.2086 64.1468C62.6773 63.4661 62.2017 62.7338 61.7596 61.9786C59.9855 58.9519 58.8985 55.4475 58.1992 51.8417C57.7459 49.4818 57.3057 47.0569 56.9758 44.6446C56.8214 43.4904 56.6021 42.5374 56.3346 41.7571C56.2022 41.367 56.0535 41.0194 55.894 40.7114C55.8144 40.4643 55.709 40.1894 55.5849 39.9852C55.4606 39.7726 55.3231 39.6166 55.2117 39.5195C54.5733 39.0462 55.0702 39.8881 54.327 40.5867C54.1459 40.7443 53.8788 40.8017 53.7036 40.7788C53.6162 40.7772 53.5509 40.7471 53.5089 40.7702C53.4713 40.9033 53.4337 41.042 53.402 41.1919C53.2637 41.7889 53.1782 42.5262 53.1593 43.3895C53.1138 45.5759 53.3223 47.973 53.7148 50.2209C54.092 52.3844 54.5679 54.538 55.2097 56.6668C55.532 57.7284 55.8881 58.7866 56.306 59.8242C56.7182 60.8648 57.1783 61.8934 57.7056 62.8928C58.7462 64.8975 60.0505 66.8027 61.6141 68.4926C62.4014 69.3333 63.2445 70.1224 64.1459 70.8487C65.0528 71.5636 66.0067 72.2158 66.9993 72.8054L67.6571 69.2342C65.616 69.4913 63.7018 70.3501 62.1328 71.4946C60.8123 72.4523 59.6438 73.5996 58.6742 74.84C58.1808 75.4589 57.7414 76.1025 57.3445 76.7595L57.0553 77.2543C56.9674 77.4191 56.8823 77.5839 56.7943 77.7487C56.6269 78.0782 56.4538 78.405 56.3062 78.737C54.7603 82.1289 53.7012 85.6409 52.8789 89.1412C52.0594 92.647 51.4825 96.155 50.9557 99.6145L50.9505 99.6484C50.7931 100.691 51.5091 101.668 52.5548 101.826C53.561 101.978 54.5049 101.313 54.7139 100.329C55.1157 98.4167 55.2042 96.4807 55.0228 94.6078C54.6746 91.0986 53.6352 87.7684 52.1788 84.6724C50.7084 81.5822 48.8123 78.7096 46.5121 76.1782C44.1691 73.6052 41.3961 71.3484 38.1315 69.8289L37.9552 72.7419C38.9765 72.3722 39.995 71.9913 40.9838 71.5121C41.9757 71.0526 42.9412 70.5144 43.8719 69.912C44.8055 69.3179 45.687 68.6258 46.5141 67.8725C47.3411 67.1192 48.105 66.2821 48.769 65.3703C49.436 64.4613 50.0145 63.4858 50.4824 62.4611C50.5917 62.2058 50.7177 61.9417 50.8158 61.695L51.1072 60.9604C51.3006 60.4698 51.4827 59.9793 51.6647 59.4861C52.3844 57.5159 53.0419 55.5324 53.6342 53.5217C54.2937 51.2788 54.7954 49.0466 55.0496 46.863C55.2955 44.6879 55.3216 42.53 54.8629 40.5905C54.7206 40.0933 54.5467 39.7629 54.3669 39.6075L54.4032 39.3842C54.4187 39.2824 54.4706 39.1604 54.5482 39.0635C54.6258 38.9637 54.715 38.8947 54.7849 38.8458C54.9245 38.7479 54.9971 38.6962 55.0104 38.6396C55.0182 38.5887 54.9805 38.5187 54.7547 38.505C54.6446 38.5009 54.4701 38.5259 54.277 38.6329C54.0839 38.7344 53.906 38.9202 53.7984 39.0937L53.6996 39.6874C53.6081 39.8043 53.5316 39.9746 53.4697 40.1898C53.4051 40.4078 53.3833 40.662 53.3287 40.9955C53.2798 41.329 53.259 41.6536 53.1905 41.9958C53.1304 42.3351 53.0703 42.6772 53.0074 43.0194C52.8536 43.7125 52.7138 44.4054 52.5291 45.1103C52.1793 46.514 51.7763 47.9383 51.3364 49.3546C50.6245 51.6828 49.9366 54.1095 49.0951 56.4508C49.0726 56.4511 49.0529 56.4514 49.0275 56.4518L49.0473 56.46Z" fill="#FFCC49"/>
<path id="Vector_3" d="M19.5174 28.4006C19.2759 29.2839 18.9409 30.1319 18.5491 30.9468C18.4447 31.1457 18.3574 31.3584 18.2388 31.549L17.9002 32.1347C17.6515 32.5049 17.4087 32.889 17.1259 33.2314C16.7188 33.7673 16.2432 34.2422 15.7417 34.6807L15.7194 34.7008C14.9672 35.3572 14.8873 36.4977 15.5437 37.2528C15.6469 37.3726 15.7725 37.4808 15.8978 37.5665C16.1227 37.7185 16.3477 37.8732 16.5671 38.0309C17.9934 39.1841 19.1797 40.7186 20.0131 42.4245C20.4339 43.2731 20.7764 44.1624 21.0088 45.0475C21.0598 45.2668 21.1278 45.4886 21.159 45.7053C21.1987 45.9219 21.2441 46.1413 21.2611 46.3469L21.2964 46.6567L21.3005 46.9443L21.3109 47.088C21.3116 47.1331 21.3037 47.1727 21.3014 47.2122C21.2941 47.2941 21.2896 47.3759 21.2879 47.4577L21.2837 47.5565C21.2493 48.7218 22.1655 49.6988 23.3307 49.7332C24.2703 49.7624 25.0883 49.1671 25.3867 48.3281C25.6743 47.5146 25.9167 46.7046 26.1204 45.946C26.327 45.19 26.5112 44.4514 26.7192 43.7941C26.7676 43.6271 26.8189 43.4656 26.8732 43.3154C26.9275 43.1623 26.976 43.0037 27.0331 42.8562C27.1533 42.5725 27.2619 42.2749 27.3994 42.0276C27.5197 41.7551 27.6774 41.5358 27.815 41.2941C27.8924 41.183 27.9784 41.0831 28.0559 40.9749L28.1749 40.8153L28.314 40.6751C29.0196 39.9122 29.9901 39.3289 31.1915 38.9257C32.3621 38.5341 32.993 37.2674 32.6014 36.0969C32.4218 35.5579 32.0549 35.1344 31.6 34.87L31.4891 34.8067L30.9318 34.4845C30.8379 34.4295 30.7442 34.38 30.6532 34.3249L30.3939 34.1396C30.2229 34.015 30.0409 33.902 29.8726 33.7718L29.3875 33.364C28.7674 32.7889 28.175 32.1739 27.705 31.4416C27.2239 30.7235 26.7957 29.9483 26.468 29.1068C26.2818 28.7005 26.1599 28.2538 26.0044 27.8245L25.8202 27.1558L25.728 26.8215L25.6555 26.4785C25.428 25.5369 25.152 24.5621 24.8901 23.5843C24.836 23.3482 24.7569 23.1349 24.6611 22.9389C24.5594 22.726 24.4596 22.6484 24.3041 22.2219C24.1472 21.8885 23.9461 21.629 23.7494 21.4767C23.5526 21.3215 23.3713 21.262 23.2246 21.264C22.7991 21.2841 22.7057 21.8692 22.2922 22.3488C22.0982 22.5884 21.7963 22.7788 21.5257 22.7911C21.3933 22.8014 21.2857 22.7747 21.2205 22.7502L21.2092 22.7447C21.2092 22.7447 21.2007 22.7449 21.2009 22.759L21.1849 22.8241C21.177 22.8665 21.1664 22.9117 21.1586 22.957C21.1429 23.0474 21.1301 23.1407 21.1202 23.2395C21.0983 23.4852 21.0849 23.7392 21.08 23.9931C21.0836 24.2497 21.1014 24.5089 21.1247 24.7681C21.1602 25.2865 21.269 25.8067 21.3805 26.31C21.6645 27.4623 21.974 28.6115 22.41 29.7391C22.8376 30.864 23.327 31.9796 23.9707 33.0339C25.2104 35.1571 26.9942 37.0639 29.1398 38.4299C29.2622 38.5099 29.3819 38.5929 29.5071 38.6729L29.7858 34.8193C29.1737 35.014 28.5441 35.1639 27.9364 35.4742C27.631 35.6167 27.3312 35.7591 27.0493 35.9632C26.9068 36.0583 26.7699 36.1561 26.6332 36.2596C26.4964 36.3574 26.3653 36.4636 26.2458 36.5893C25.4216 37.3455 24.7293 38.2577 24.1811 39.1876C23.6274 40.126 23.2547 41.0986 22.963 42.0193C22.6685 42.94 22.4442 43.8372 22.2388 44.6721C22.0305 45.507 21.8272 46.2967 21.6092 47.0386L25.2695 47.8136C25.2728 47.447 25.2899 47.0547 25.243 46.7254C25.1658 45.8465 24.9771 45.0651 24.7549 44.2983L24.5833 43.731L24.3838 43.1782C24.2573 42.8049 24.0972 42.4546 23.9484 42.0957C23.3277 40.6746 22.525 39.3462 21.5437 38.1444C20.4592 36.8313 19.1679 35.6536 17.6662 34.7581L17.8035 37.3057C19.2806 36.0469 20.5003 34.535 21.3881 32.8868L21.7207 32.2673L22.0164 31.6342L22.1643 31.3191L22.2923 30.9958L22.5483 30.3492C22.8548 29.479 23.1301 28.6009 23.3235 27.707C23.7967 25.6528 23.6579 23.5988 22.8307 21.9295C22.7204 21.7054 22.5603 21.5526 22.3872 21.4817C22.356 21.468 22.3415 21.4344 22.3551 21.4031C22.355 21.3975 22.3606 21.3918 22.3662 21.3861L22.6216 21.0976C22.7271 20.9777 22.9208 20.9129 23.0389 20.8887C23.1626 20.8616 23.2356 20.8408 23.2631 20.7925C23.2879 20.747 23.2727 20.6683 23.1304 20.5772C23.0593 20.5331 22.9486 20.4867 22.8018 20.4718C22.6577 20.4541 22.4831 20.4763 22.3287 20.5264L21.7443 21.4907C21.5427 21.5894 21.3734 21.7892 21.2958 22.0836C20.9823 23.2584 20.6859 24.4443 20.3579 25.5911C20.0919 26.5311 19.9025 27.5068 19.5826 28.4279C19.5628 28.4225 19.543 28.42 19.5204 28.4146L19.5174 28.4006Z" fill="#FFCC49"/>
<path id="Vector_4" d="M26.5581 113.734C26.5078 113.966 26.4576 114.206 26.4014 114.427C26.3749 114.543 26.3453 114.648 26.3185 114.744C26.2916 114.843 26.2649 114.945 26.2295 115.041C26.1025 115.435 25.9416 115.827 25.7464 116.188C25.3562 116.915 24.8406 117.56 24.238 118.028C23.9032 118.283 23.5422 118.489 23.1577 118.621L23.0342 118.665C22.1165 118.983 21.6285 119.985 21.9488 120.903C22.0987 121.335 22.4052 121.675 22.7775 121.875C23.1754 122.09 23.5511 122.335 23.8908 122.624C24.5958 123.226 25.1871 123.962 25.7463 124.82C26.0258 125.248 26.3002 125.707 26.5777 126.185L27.0025 126.918C27.1327 127.147 27.2426 127.343 27.35 127.565C27.7767 128.424 28.091 129.322 28.2303 130.206C28.3753 131.09 28.3534 131.944 28.1613 132.723L32.3104 133.561C32.6142 132.096 32.9412 130.679 33.3738 129.35C33.8901 127.755 34.5549 126.293 35.4628 125.068C36.3677 123.837 37.4932 122.845 38.7404 122.289C39.8699 121.782 40.3787 120.455 39.8721 119.326C39.6479 118.824 39.2619 118.446 38.8019 118.224L38.694 118.172L38.18 117.922L37.9217 117.802L37.6771 117.656L37.1879 117.364L36.7263 117.026L36.4927 116.86L36.2756 116.669L35.8417 116.291L35.4409 115.871C35.3751 115.801 35.3037 115.735 35.2406 115.662L35.0569 115.434C34.9335 115.28 34.8073 115.133 34.6866 114.976L34.347 114.488C34.2291 114.328 34.128 114.155 34.0269 113.982C33.9257 113.808 33.819 113.638 33.7234 113.461C33.5491 113.094 33.3467 112.744 33.2003 112.357C33.1215 112.167 33.0399 111.982 32.9639 111.788L32.761 111.202C32.4602 110.267 32.0635 109.327 31.7762 108.35C31.6288 107.89 31.4342 107.492 31.1594 107.2C31.053 107.257 30.8405 107.39 30.5639 107.371C30.2873 107.358 30.0308 107.167 29.9005 106.924C29.5292 106.187 29.8251 105.574 29.4096 105.506C29.3051 105.497 29.1392 105.533 28.9187 105.697C28.701 105.855 28.4431 106.172 28.2964 106.566C28.2201 106.761 28.1694 106.965 28.1355 107.163C28.1227 107.253 28.1099 107.344 28.0971 107.437C28.0864 107.48 28.0757 107.522 28.065 107.567C28.0252 107.745 27.9997 107.938 27.9886 108.146C27.948 108.674 28.0121 109.223 28.0819 109.772C28.128 110.045 28.1911 110.318 28.2541 110.588C28.287 110.723 28.3199 110.858 28.3556 110.99C28.3998 111.122 28.4411 111.254 28.4824 111.383C29.187 113.559 30.2006 115.648 31.6059 117.521C32.31 118.456 33.1342 119.31 34.0364 120.09C34.9525 120.861 35.974 121.504 37.0535 122.061L37.0139 118.432C36.554 118.619 36.0943 118.817 35.6605 119.055C34.3111 119.768 33.0277 120.764 32.2551 121.976C30.0031 125.494 28.9476 129.265 28.3715 132.833L28.3533 132.94C28.1873 133.969 28.8862 134.941 29.9179 135.107C30.9355 135.27 31.8933 134.588 32.0794 133.582C32.1607 133.143 32.2165 132.7 32.2302 132.262C32.2952 130.465 31.9073 128.753 31.271 127.216C30.9528 126.448 30.5645 125.706 30.129 125.021C29.7454 124.417 29.3502 123.786 28.9041 123.152C28.3487 122.361 27.7142 121.558 26.9595 120.835C26.2132 120.107 25.3415 119.487 24.4349 118.992L24.1049 121.809C25.1268 121.473 26.0498 120.924 26.8102 120.245C27.5763 119.569 28.1913 118.776 28.6787 117.937C28.9266 117.516 29.132 117.079 29.3204 116.634C29.4975 116.191 29.6572 115.715 29.7696 115.285C30.0083 114.41 30.1797 113.556 30.3284 112.697C30.5082 111.642 30.5782 110.606 30.4993 109.6C30.4203 108.597 30.2007 107.619 29.7684 106.756C29.6699 106.569 29.5411 106.433 29.399 106.356L29.4052 106.401C29.3775 106.435 29.3787 106.517 29.422 106.589C29.4653 106.665 29.5394 106.72 29.5935 106.756C29.7074 106.828 29.7672 106.869 29.7766 106.94C29.7775 107.002 29.7508 107.112 29.5146 107.161C29.3993 107.182 29.2044 107.165 29.0081 107.041C28.8118 106.922 28.6707 106.713 28.615 106.558L28.5958 106.401C28.4281 106.51 28.3037 106.687 28.2396 106.944C27.9348 108.136 27.6139 109.384 27.2957 110.627C27.0338 111.654 26.8939 112.739 26.6259 113.741C26.6061 113.739 26.5863 113.736 26.5637 113.734L26.5581 113.734Z" fill="#FFCC49"/>
</g>
</svg>
