<svg width="1439" height="34" viewBox="0 0 1439 34" fill="none" xmlns="http://www.w3.org/2000/svg">
<path d="M1439 33.518L1404.62 31.3089C1370.25 29.0616 1301.5 24.6434 1233.06 23.3103C1164.47 21.9772 1096.36 23.7292 1027.77 23.4245C959.333 23.1198 890.581 20.6821 822.149 20.6821C753.556 20.6821 685.444 23.1198 616.851 25.4432C548.419 27.8046 479.667 30.09 411.234 31.6897C342.642 33.2513 274.529 34.1654 205.937 33.975C137.504 33.7845 68.7522 32.4895 34.3761 31.8801L2.41925e-07 31.2326L2.97236e-06 8.36343e-08L34.3761 3.08889e-06C68.7522 6.09414e-06 137.504 1.21047e-05 205.937 1.80872e-05C274.529 2.40837e-05 342.642 3.00383e-05 411.234 3.60349e-05C479.667 4.20174e-05 548.419 4.80279e-05 616.851 5.40105e-05C685.444 6.0007e-05 753.556 6.59616e-05 822.149 7.19582e-05C890.581 7.79407e-05 959.333 8.39512e-05 1027.77 8.99338e-05C1096.36 9.59303e-05 1164.47 0.000101885 1233.06 0.000107881C1301.5 0.000113864 1370.25 0.000119874 1404.62 0.00012288L1439 0.000125885L1439 33.518Z" fill="#FFF2E1"/>
</svg>
