<svg width="190" height="42" viewBox="0 0 190 42" fill="none" xmlns="http://www.w3.org/2000/svg">
<g id="line-2">
<g id="line-2_2">
<path d="M141.812 24.6179C125.696 21.8443 53.4347 24.3065 37.9379 30.851C37.9139 31.2104 38.0815 31.2431 38.2887 31.2354C40.0249 31.171 69.9757 27.7014 91.5241 27.2852C98.5059 27.1503 106.114 27.2041 113.315 26.8284C120.517 26.4526 141.812 24.6179 141.812 24.6179Z" fill="#FFCC49"/>
<path d="M189.419 17.0067C189.419 17.0067 189.564 17.0886 189.353 17.4354C189.249 17.4769 188.846 17.6903 187.843 18.0564C186.361 18.8237 129.724 13.096 96.6903 14.2027L1.55403 16.4357C0.674939 16.4476 1.36996 15.8098 1.36996 15.8098C13.7561 12.9395 26.4643 9.87061 59.6652 9.38225C82.4718 8.38083 124.766 8.78007 133.37 9.54323C146.226 10.4024 173.487 13.9801 189.419 17.0067Z" fill="#FFCC49"/>
</g>
</g>
</svg>
