<svg width="31" height="32" viewBox="0 0 31 32" fill="none" xmlns="http://www.w3.org/2000/svg">
<g id="Misc_01" clip-path="url(#clip0_82_19471)">
<g id="Group">
<g id="Group_2">
<path id="Vector" fill-rule="evenodd" clip-rule="evenodd" d="M12.2792 7.09668C12.1962 6.604 12.1336 6.11692 12.0932 5.62977C12.0323 4.89906 12.07 4.16276 12.0484 3.43204C12.039 3.12204 12.0019 2.31384 12.0168 2.19759C12.1524 1.18455 12.9701 1.02953 13.2092 1.00185C13.3249 0.985247 14.5129 0.852449 14.7692 2.16995C15.0836 3.78084 15.1843 5.40279 15.0731 6.99154C15.3327 8.34225 15.7767 9.6874 16.3629 10.9053C18.6957 15.749 23.1408 16.2196 27.9569 16.1753C28.6976 16.1642 29.3126 16.7454 29.3514 17.4817C29.3901 18.2235 28.8388 18.8656 28.1014 18.932C25.4094 19.1922 20.6331 21.3512 18.9818 23.5987C18.6364 24.0692 18.4355 25.2041 18.1698 26.3167C17.7989 27.8612 17.3577 29.389 16.8633 30.0312C16.7892 30.1308 15.8874 31.1494 15.6183 31.2989C14.9718 31.6532 14.4542 31.4483 14.1602 31.2601C13.8663 31.0719 13.5336 30.701 13.4007 30.0865C13.2618 29.4444 13.3791 28.1269 13.3576 27.8445C13.279 26.8204 13.0741 24.811 12.6562 23.0838C12.4309 22.1538 12.1906 21.2958 11.7932 20.8695C10.3218 19.2919 7.9691 19.5244 5.98787 19.7846C5.76035 19.8122 5.53283 19.8455 5.30587 19.8732C4.49932 20.1112 3.64292 20.2883 2.73783 20.3935C1.37106 20.554 1.14633 19.2974 1.13415 19.2144C1.10869 19.0317 1.01401 18.0906 2.04421 17.7142C2.15659 17.6755 2.98584 17.4928 3.30526 17.4208C3.75033 17.3212 4.20037 17.2437 4.65209 17.1717C9.31814 15.7214 11.8524 11.647 12.2792 7.09668ZM13.8807 12.1287C15.6422 15.7712 18.3153 17.5315 21.484 18.3287H21.4834C19.505 19.3639 17.7053 20.6592 16.7515 21.9601C16.3895 22.4528 16.0573 23.4437 15.7578 24.5564C15.5956 23.5212 15.3764 22.4195 15.0869 21.4785C14.7576 20.4045 14.3141 19.5133 13.8192 18.9819C12.8638 17.9578 11.6647 17.3876 10.3755 17.1053C11.9188 15.738 13.0891 14.033 13.8807 12.1287Z" fill="#1B4539"/>
</g>
</g>
</g>
<defs>
<clipPath id="clip0_82_19471">
<rect width="31" height="31" fill="white" transform="translate(0 0.987549)"/>
</clipPath>
</defs>
</svg>
