<svg width="400" height="400" viewBox="0 0 400 400" fill="none" xmlns="http://www.w3.org/2000/svg">
<g filter="url(#filter0_d_228_552)">
<circle cx="199.804" cy="199.804" r="181.804" fill="white"/>
</g>
<g clip-path="url(#clip0_228_552)">
<path style="mix-blend-mode:multiply" d="M236.148 276.754C236.148 279.265 191.474 281.305 136.371 281.305C81.2682 281.305 36.5938 279.255 36.5938 276.754C36.5938 274.252 81.2682 272.212 136.371 272.212C191.474 272.212 236.148 274.243 236.148 276.754Z" fill="url(#paint0_radial_228_552)"/>
<path d="M90.8301 113.959H309.337C311.38 113.959 313.34 114.768 314.784 116.209C316.229 117.65 317.04 119.604 317.04 121.642V267.491H83.1172V121.642C83.1172 120.632 83.3168 119.632 83.7045 118.7C84.0922 117.767 84.6605 116.919 85.3768 116.206C86.0931 115.492 86.9435 114.927 87.8792 114.541C88.8149 114.155 89.8177 113.958 90.8301 113.959Z" fill="#38516B"/>
<path d="M307.252 123.175H92.9127C92.2878 123.175 91.7812 123.68 91.7812 124.303V257.786C91.7812 258.409 92.2878 258.914 92.9127 258.914H307.252C307.877 258.914 308.384 258.409 308.384 257.786V124.303C308.384 123.68 307.877 123.175 307.252 123.175Z" fill="white" stroke="#666666" stroke-width="0.46" stroke-miterlimit="10"/>
<path d="M193.02 123.175H92.5639C92.1316 123.175 91.7812 123.524 91.7812 123.955V258.134C91.7812 258.565 92.1316 258.914 92.5639 258.914H193.02C193.452 258.914 193.803 258.565 193.803 258.134V123.955C193.803 123.524 193.452 123.175 193.02 123.175Z" fill="#236FE0"/>
<path d="M56.5365 267.491H343.63C343.714 267.491 343.797 267.507 343.875 267.539C343.953 267.572 344.024 267.619 344.083 267.678C344.143 267.737 344.19 267.808 344.222 267.886C344.254 267.963 344.271 268.046 344.271 268.13V272.672H55.8859V268.168C55.8807 268.08 55.8937 267.992 55.9242 267.909C55.9547 267.827 56.0019 267.751 56.063 267.688C56.1241 267.624 56.1977 267.574 56.2791 267.54C56.3606 267.506 56.4482 267.489 56.5365 267.491Z" fill="#E7E7E7"/>
<path d="M56.5354 267.491H343.629C343.713 267.491 343.796 267.507 343.874 267.539C343.952 267.572 344.022 267.619 344.082 267.678C344.142 267.737 344.189 267.808 344.221 267.885C344.253 267.963 344.27 268.046 344.27 268.13V272.202H55.8848V268.13C55.8848 268.045 55.9016 267.961 55.9345 267.883C55.9673 267.805 56.0153 267.734 56.0759 267.675C56.1364 267.615 56.2082 267.568 56.2871 267.537C56.366 267.505 56.4504 267.489 56.5354 267.491Z" fill="#38516B"/>
<path d="M329.721 277.788H70.2922C68.8205 277.789 67.3543 277.608 65.9266 277.252C62.353 276.368 55.8848 274.506 55.8848 272.635H344.27C344.27 274.337 337.915 276.246 334.332 277.196C332.827 277.59 331.277 277.789 329.721 277.788Z" fill="#38516B"/>
<path d="M172.89 161.704H115.562C111.682 161.704 108.537 164.84 108.537 168.71V241.611C108.537 245.48 111.682 248.617 115.562 248.617H172.89C176.769 248.617 179.914 245.48 179.914 241.611V168.71C179.914 164.84 176.769 161.704 172.89 161.704Z" fill="white"/>
<path d="M155.361 219.802H128.366C128.098 219.799 127.839 219.703 127.633 219.532C127.427 219.361 127.287 219.124 127.235 218.862L124.321 205.95C124.285 205.788 124.284 205.621 124.318 205.458C124.352 205.296 124.421 205.143 124.519 205.01C124.619 204.879 124.745 204.77 124.89 204.69C125.034 204.611 125.194 204.563 125.358 204.549L161.896 201.888C162.094 201.873 162.292 201.909 162.472 201.993C162.652 202.077 162.808 202.206 162.923 202.367C163.039 202.527 163.112 202.714 163.133 202.91C163.155 203.107 163.125 203.305 163.046 203.486L156.446 219.097C156.355 219.308 156.203 219.488 156.01 219.613C155.817 219.739 155.592 219.804 155.361 219.802ZM129.29 217.489H154.598L160.18 204.323L126.867 206.749L129.29 217.489Z" fill="#236FE0"/>
<path d="M136.012 227.909C136.014 228.367 135.879 228.816 135.625 229.198C135.371 229.579 135.009 229.877 134.585 230.054C134.16 230.23 133.693 230.276 133.242 230.188C132.792 230.099 132.377 229.878 132.052 229.554C131.727 229.23 131.506 228.817 131.417 228.367C131.328 227.917 131.375 227.452 131.551 227.028C131.728 226.605 132.027 226.244 132.41 225.991C132.793 225.737 133.242 225.603 133.702 225.605C134.315 225.605 134.902 225.847 135.335 226.28C135.769 226.712 136.012 227.298 136.012 227.909Z" fill="#236FE0"/>
<path d="M152.278 227.909C152.28 228.367 152.145 228.815 151.891 229.197C151.638 229.578 151.276 229.876 150.852 230.053C150.429 230.229 149.962 230.276 149.511 230.188C149.061 230.1 148.647 229.88 148.321 229.557C147.996 229.234 147.774 228.822 147.684 228.373C147.594 227.924 147.639 227.458 147.814 227.035C147.99 226.612 148.287 226.25 148.669 225.995C149.05 225.741 149.499 225.605 149.958 225.605C150.262 225.603 150.564 225.662 150.845 225.777C151.126 225.893 151.382 226.062 151.598 226.276C151.813 226.49 151.984 226.745 152.101 227.025C152.218 227.305 152.278 227.605 152.278 227.909Z" fill="#236FE0"/>
<path d="M151.448 224.241H130.629C130.321 224.241 130.026 224.119 129.808 223.902C129.591 223.685 129.469 223.391 129.469 223.084C129.469 222.778 129.591 222.483 129.808 222.266C130.026 222.05 130.321 221.928 130.629 221.928H151.448C151.758 221.928 152.061 221.84 152.322 221.673C152.583 221.507 152.79 221.268 152.919 220.987L161.942 200.411C162.389 199.398 163.122 198.536 164.051 197.93C164.98 197.324 166.065 197 167.175 196.997H168.571C168.878 196.997 169.173 197.119 169.391 197.336C169.608 197.553 169.73 197.847 169.73 198.154C169.73 198.461 169.608 198.755 169.391 198.972C169.173 199.189 168.878 199.311 168.571 199.311H167.175C166.514 199.309 165.868 199.501 165.315 199.862C164.762 200.223 164.327 200.737 164.064 201.342L155.002 221.89C154.7 222.582 154.204 223.172 153.573 223.59C152.943 224.007 152.204 224.233 151.448 224.241Z" fill="#236FE0"/>
<path d="M169.72 245.269C168.637 245.269 167.578 244.948 166.677 244.348C165.776 243.748 165.074 242.894 164.659 241.896C164.245 240.898 164.136 239.799 164.347 238.739C164.559 237.679 165.081 236.706 165.847 235.941C166.613 235.177 167.589 234.657 168.652 234.446C169.714 234.235 170.816 234.344 171.817 234.757C172.818 235.171 173.673 235.871 174.275 236.769C174.877 237.668 175.199 238.724 175.199 239.805C175.199 241.254 174.621 242.644 173.594 243.668C172.567 244.693 171.173 245.269 169.72 245.269ZM169.72 235.724C168.909 235.724 168.115 235.964 167.441 236.414C166.766 236.864 166.24 237.503 165.93 238.251C165.62 238.999 165.539 239.822 165.698 240.616C165.857 241.41 166.249 242.139 166.824 242.71C167.398 243.282 168.13 243.671 168.926 243.828C169.722 243.985 170.547 243.902 171.297 243.591C172.046 243.28 172.686 242.754 173.135 242.08C173.585 241.406 173.824 240.614 173.822 239.805C173.82 238.722 173.386 237.684 172.617 236.918C171.848 236.153 170.807 235.724 169.72 235.724Z" fill="#FFBDE0"/>
<path d="M168.882 242.024L167.119 240.266L168.1 239.288L168.882 240.068L171.343 237.614L172.324 238.582L168.882 242.024Z" fill="#FFBDE0"/>
<path d="M151.053 239.814H117.288C117.104 239.814 116.928 239.742 116.798 239.614C116.667 239.485 116.592 239.311 116.59 239.128C116.59 238.943 116.663 238.766 116.794 238.636C116.925 238.505 117.103 238.432 117.288 238.432H151.053C151.144 238.432 151.234 238.45 151.318 238.485C151.402 238.52 151.479 238.572 151.543 238.636C151.607 238.701 151.657 238.778 151.691 238.862C151.725 238.947 151.742 239.037 151.741 239.128C151.741 239.31 151.669 239.485 151.539 239.613C151.41 239.742 151.235 239.814 151.053 239.814Z" fill="#E6E7E8"/>
<path d="M135.684 243.397H117.288C117.196 243.399 117.106 243.382 117.021 243.348C116.937 243.314 116.86 243.263 116.795 243.2C116.73 243.136 116.678 243.06 116.643 242.976C116.608 242.892 116.59 242.802 116.59 242.711C116.592 242.528 116.667 242.353 116.798 242.225C116.928 242.096 117.104 242.024 117.288 242.024H135.684C135.774 242.024 135.863 242.042 135.947 242.077C136.03 242.111 136.106 242.162 136.17 242.225C136.234 242.289 136.285 242.365 136.319 242.448C136.354 242.531 136.372 242.621 136.372 242.711C136.372 242.801 136.354 242.89 136.319 242.974C136.285 243.057 136.234 243.132 136.17 243.196C136.106 243.26 136.03 243.311 135.947 243.345C135.863 243.38 135.774 243.397 135.684 243.397Z" fill="#E6E7E8"/>
<path d="M247.077 248.626H211.822C210.25 248.624 208.744 247.999 207.634 246.89C206.524 245.781 205.9 244.278 205.9 242.711C205.9 241.144 206.524 239.641 207.634 238.531C208.744 237.422 210.25 236.798 211.822 236.796H247.077C248.65 236.796 250.158 237.419 251.27 238.528C252.383 239.637 253.008 241.142 253.008 242.711C253.008 244.28 252.383 245.784 251.27 246.894C250.158 248.003 248.65 248.626 247.077 248.626Z" fill="#236FE0"/>
<path d="M283.181 202.414H207.165C206.841 202.409 206.531 202.281 206.299 202.055C206.068 201.83 205.932 201.524 205.92 201.201C205.919 201.035 205.95 200.87 206.013 200.716C206.076 200.562 206.169 200.422 206.287 200.304C206.404 200.186 206.544 200.092 206.698 200.028C206.852 199.964 207.017 199.931 207.183 199.931H283.2C283.533 199.936 283.851 200.073 284.084 200.31C284.317 200.548 284.447 200.868 284.444 201.201C284.432 201.527 284.294 201.836 284.058 202.062C283.822 202.288 283.508 202.414 283.181 202.414Z" fill="#E6E7E8"/>
<path d="M271.376 195.069H207.853C207.339 195.065 206.847 194.857 206.485 194.493C206.123 194.128 205.92 193.636 205.92 193.123C205.919 192.867 205.968 192.613 206.066 192.376C206.164 192.14 206.307 191.925 206.489 191.744C206.67 191.563 206.886 191.419 207.123 191.322C207.361 191.224 207.615 191.175 207.872 191.176H271.395C271.912 191.176 272.409 191.381 272.775 191.746C273.141 192.111 273.346 192.607 273.346 193.123C273.347 193.38 273.295 193.635 273.196 193.872C273.097 194.11 272.951 194.325 272.768 194.506C272.585 194.687 272.368 194.83 272.129 194.927C271.89 195.023 271.634 195.072 271.376 195.069Z" fill="#236FE0"/>
<path d="M283.18 209.486H207.164C206.829 209.486 206.507 209.353 206.271 209.117C206.034 208.881 205.9 208.56 205.9 208.226C205.899 208.06 205.931 207.895 205.994 207.741C206.057 207.587 206.15 207.447 206.267 207.329C206.385 207.211 206.524 207.117 206.678 207.053C206.832 206.989 206.997 206.956 207.164 206.956H283.18C283.347 206.956 283.512 206.989 283.666 207.053C283.82 207.117 283.96 207.211 284.077 207.329C284.194 207.447 284.287 207.587 284.35 207.741C284.413 207.895 284.445 208.06 284.444 208.226C284.444 208.56 284.311 208.881 284.074 209.117C283.837 209.353 283.515 209.486 283.18 209.486Z" fill="#E6E7E8"/>
<path d="M283.181 216.558H207.165C206.834 216.553 206.519 216.419 206.287 216.186C206.054 215.952 205.922 215.636 205.92 215.307C205.92 214.973 206.053 214.652 206.29 214.416C206.527 214.18 206.848 214.047 207.183 214.047H283.2C283.535 214.047 283.856 214.18 284.093 214.416C284.33 214.652 284.463 214.973 284.463 215.307C284.462 215.473 284.428 215.638 284.363 215.791C284.297 215.944 284.202 216.083 284.083 216.199C283.964 216.315 283.823 216.407 283.668 216.468C283.513 216.53 283.348 216.56 283.181 216.558Z" fill="#E6E7E8"/>
<path d="M257.185 223.63H207.165C206.832 223.622 206.515 223.485 206.283 223.248C206.05 223.011 205.92 222.692 205.92 222.36C205.92 222.026 206.053 221.706 206.29 221.469C206.527 221.233 206.848 221.1 207.183 221.1H257.204C257.371 221.099 257.536 221.131 257.69 221.193C257.845 221.256 257.985 221.349 258.104 221.466C258.222 221.583 258.316 221.722 258.38 221.876C258.444 222.029 258.477 222.194 258.477 222.36C258.477 222.529 258.443 222.695 258.378 222.851C258.313 223.006 258.218 223.147 258.098 223.265C257.977 223.383 257.835 223.476 257.678 223.539C257.522 223.601 257.354 223.632 257.185 223.63Z" fill="#E6E7E8"/>
<path d="M298.946 227.175C298.946 227.713 298.786 228.238 298.487 228.685C298.187 229.132 297.762 229.48 297.264 229.686C296.766 229.892 296.218 229.946 295.689 229.841C295.161 229.736 294.675 229.477 294.294 229.097C293.913 228.717 293.654 228.233 293.548 227.705C293.443 227.178 293.497 226.632 293.704 226.135C293.91 225.639 294.259 225.214 294.707 224.915C295.155 224.617 295.682 224.457 296.221 224.457C296.944 224.457 297.637 224.744 298.148 225.253C298.659 225.763 298.946 226.454 298.946 227.175Z" fill="white"/>
<path d="M298.946 236.937C298.946 237.474 298.786 238 298.487 238.447C298.187 238.894 297.762 239.242 297.264 239.448C296.766 239.653 296.218 239.707 295.689 239.602C295.161 239.497 294.675 239.239 294.294 238.858C293.913 238.478 293.654 237.994 293.548 237.467C293.443 236.94 293.497 236.393 293.704 235.897C293.91 235.4 294.259 234.976 294.707 234.677C295.155 234.378 295.682 234.219 296.221 234.219C296.579 234.218 296.934 234.287 297.265 234.423C297.597 234.559 297.897 234.76 298.151 235.012C298.404 235.265 298.605 235.565 298.741 235.895C298.878 236.225 298.947 236.579 298.946 236.937Z" fill="white"/>
<path d="M298.946 246.764C298.946 247.302 298.786 247.827 298.487 248.274C298.187 248.721 297.762 249.069 297.264 249.275C296.766 249.481 296.218 249.534 295.689 249.43C295.161 249.325 294.675 249.066 294.294 248.686C293.913 248.306 293.654 247.821 293.548 247.294C293.443 246.767 293.497 246.221 293.704 245.724C293.91 245.227 294.259 244.803 294.707 244.504C295.155 244.206 295.682 244.046 296.221 244.046C296.944 244.046 297.637 244.333 298.148 244.842C298.659 245.352 298.946 246.043 298.946 246.764Z" fill="#FFBDE0"/>
<path d="M91.9239 152.92H55.877L91.7825 122.451H118.853L91.9239 152.92Z" fill="#236FE0"/>
<path d="M127.98 152.92H91.9238L118.853 122.451H145.924L127.98 152.92Z" fill="#FFBDE0"/>
<path d="M164.025 152.92H127.979L145.922 122.451H173.002L164.025 152.92Z" fill="#236FE0"/>
<path d="M200.072 152.92H164.025L173.002 122.451H200.072V152.92Z" fill="#FFBDE0"/>
<path d="M236.119 152.92H200.072V122.451H227.152L236.119 152.92Z" fill="#236FE0"/>
<path d="M272.176 152.92H236.119L227.152 122.451H254.223L272.176 152.92Z" fill="#FFBDE0"/>
<path d="M308.224 152.92H272.177L254.225 122.451H281.295L308.224 152.92Z" fill="#236FE0"/>
<path d="M344.271 152.92H308.224L281.295 122.451H308.375L344.271 152.92Z" fill="#FFBDE0"/>
<path d="M73.7814 194.101C68.995 194.101 64.4047 192.204 61.0202 188.829C57.6358 185.453 55.7344 180.875 55.7344 176.101V152.92H91.8285V176.101C91.8285 178.465 91.3617 180.806 90.4547 182.989C89.5478 185.173 88.2184 187.158 86.5426 188.829C84.8668 190.5 82.8773 191.826 80.6877 192.731C78.4982 193.635 76.1514 194.101 73.7814 194.101Z" fill="#236FE0"/>
<path d="M109.866 194.101C105.081 194.098 100.493 192.201 97.1106 188.826C93.7282 185.45 91.8281 180.873 91.8281 176.101V152.92H127.903V176.101C127.905 178.465 127.439 180.805 126.533 182.989C125.627 185.172 124.299 187.157 122.624 188.828C120.949 190.5 118.96 191.826 116.771 192.731C114.582 193.635 112.235 194.101 109.866 194.101Z" fill="#FFBDE0"/>
<path d="M145.951 194.101C141.165 194.101 136.575 192.204 133.19 188.829C129.806 185.453 127.904 180.875 127.904 176.101V152.92H163.998V176.101C163.998 178.465 163.532 180.806 162.625 182.989C161.718 185.173 160.388 187.158 158.713 188.829C157.037 190.5 155.047 191.826 152.858 192.731C150.668 193.635 148.321 194.101 145.951 194.101Z" fill="#236FE0"/>
<path d="M182.036 194.101C179.666 194.101 177.32 193.635 175.131 192.731C172.942 191.826 170.953 190.5 169.278 188.828C167.603 187.157 166.274 185.172 165.368 182.989C164.462 180.805 163.997 178.465 163.998 176.101V152.92H200.083V176.101C200.083 178.465 199.616 180.806 198.709 182.989C197.802 185.173 196.473 187.158 194.797 188.829C193.121 190.5 191.132 191.826 188.942 192.731C186.752 193.635 184.406 194.101 182.036 194.101Z" fill="#FFBDE0"/>
<path d="M218.12 194.101C213.335 194.098 208.747 192.201 205.365 188.826C201.982 185.45 200.082 180.873 200.082 176.101V152.92H236.167V176.101C236.167 178.465 235.7 180.806 234.793 182.989C233.886 185.173 232.557 187.158 230.881 188.829C229.205 190.5 227.216 191.826 225.026 192.731C222.836 193.635 220.49 194.101 218.12 194.101Z" fill="#236FE0"/>
<path d="M236.168 152.92H272.252V176.101C272.252 178.465 271.785 180.806 270.879 182.989C269.972 185.173 268.642 187.158 266.966 188.829C265.291 190.5 263.301 191.826 261.112 192.731C258.922 193.635 256.575 194.101 254.205 194.101C249.419 194.101 244.829 192.204 241.444 188.829C238.06 185.453 236.158 180.875 236.158 176.101V152.92H236.168Z" fill="#FFBDE0"/>
<path d="M272.252 152.92H308.336V176.101C308.336 178.465 307.869 180.806 306.963 182.989C306.056 185.173 304.726 187.158 303.05 188.829C301.375 190.5 299.385 191.826 297.196 192.731C295.006 193.635 292.659 194.101 290.289 194.101C285.503 194.101 280.913 192.204 277.528 188.829C274.144 185.453 272.242 180.875 272.242 176.101V152.92H272.252Z" fill="#236FE0"/>
<path d="M308.336 152.92H344.43V176.101C344.43 178.465 343.963 180.806 343.056 182.989C342.149 185.173 340.82 187.158 339.144 188.829C337.468 190.5 335.479 191.826 333.289 192.731C331.1 193.635 328.753 194.101 326.383 194.101C321.597 194.101 317.006 192.204 313.622 188.829C310.237 185.453 308.336 180.875 308.336 176.101V152.92Z" fill="#FFBDE0"/>
</g>
<defs>
<filter id="filter0_d_228_552" x="0" y="0" width="399.609" height="399.609" filterUnits="userSpaceOnUse" color-interpolation-filters="sRGB">
<feFlood flood-opacity="0" result="BackgroundImageFix"/>
<feColorMatrix in="SourceAlpha" type="matrix" values="0 0 0 0 0 0 0 0 0 0 0 0 0 0 0 0 0 0 127 0" result="hardAlpha"/>
<feOffset/>
<feGaussianBlur stdDeviation="9"/>
<feComposite in2="hardAlpha" operator="out"/>
<feColorMatrix type="matrix" values="0 0 0 0 0 0 0 0 0 0 0 0 0 0 0 0 0 0 0.08 0"/>
<feBlend mode="normal" in2="BackgroundImageFix" result="effect1_dropShadow_228_552"/>
<feBlend mode="normal" in="SourceGraphic" in2="effect1_dropShadow_228_552" result="shape"/>
</filter>
<radialGradient id="paint0_radial_228_552" cx="0" cy="0" r="1" gradientUnits="userSpaceOnUse" gradientTransform="translate(136.377 276.421) scale(99.5481 4.63953)">
<stop stop-color="#A3777B"/>
<stop offset="0.02" stop-color="#A67B7F"/>
<stop offset="0.36" stop-color="#CCB4B6"/>
<stop offset="0.64" stop-color="#E8DDDE"/>
<stop offset="0.86" stop-color="#F9F6F6"/>
<stop offset="1" stop-color="white"/>
</radialGradient>
<clipPath id="clip0_228_552">
<rect width="330.476" height="173.309" fill="white" transform="translate(36.1973 113.743)"/>
</clipPath>
</defs>
</svg>
