<svg width="76" height="76" viewBox="0 0 76 76" fill="none" xmlns="http://www.w3.org/2000/svg">
<g clip-path="url(#clip0_241_480)">
<path d="M75.4394 3.60349L69.3758 53.3376C69.3489 53.5782 69.2618 53.8082 69.1226 54.0062C68.9834 54.2043 68.7966 54.3641 68.5793 54.4709C68.3621 54.5778 68.1214 54.6282 67.8796 54.6175C67.6377 54.6068 67.4025 54.5354 67.1955 54.4098C65.4598 53.3455 63.5149 52.6681 61.4935 52.424C59.4721 52.1799 57.4219 52.3747 55.4827 52.9952C55.2523 53.0665 55.0078 53.0788 54.7714 53.0311C54.535 52.9833 54.3144 52.877 54.1297 52.722C53.9451 52.5669 53.8022 52.3679 53.7144 52.1434C53.6265 51.9188 53.5963 51.6758 53.6267 51.4366L59.6543 1.70242C59.6805 1.45896 59.756 1.2234 59.8763 1.01011C59.9966 0.796821 60.159 0.610284 60.3538 0.461886C60.5486 0.313488 60.7716 0.206343 61.0091 0.146994C61.2467 0.0876437 61.4938 0.0773337 61.7355 0.116693L73.8808 1.58529C74.1157 1.61531 74.3424 1.69135 74.5479 1.80906C74.7534 1.92677 74.9337 2.08383 75.0785 2.27127C75.2232 2.45872 75.3296 2.67286 75.3916 2.90145C75.4535 3.13004 75.4698 3.3686 75.4394 3.60349Z" fill="#38516B"/>
<path d="M68.1191 67.4477C67.8646 69.5434 66.7881 71.4521 65.1263 72.754C63.4645 74.0558 61.3536 74.6443 59.2579 74.3898C57.1623 74.1353 55.2536 73.0587 53.9517 71.3969C52.6498 69.7352 52.0614 67.6243 52.3159 65.5286C52.3463 65.2591 52.3914 64.9914 52.451 64.7268C52.8955 62.813 54.0316 61.1311 55.641 60.0042C57.2504 58.8774 59.2195 58.3851 61.1698 58.6221C63.1201 58.859 64.914 59.8084 66.2068 61.2879C67.4995 62.7673 68.1999 64.6724 68.1732 66.6368C68.1732 66.9071 68.1461 67.1684 68.1191 67.4477Z" fill="#51BCBB"/>
<path d="M44.4995 16.7762H31.6966C30.8308 16.7762 30.1289 17.4781 30.1289 18.3439L30.1289 70.3395C30.1289 71.2053 30.8308 71.9072 31.6966 71.9072H44.4995C45.3654 71.9072 46.0673 71.2053 46.0673 70.3395V18.3439C46.0673 17.4781 45.3654 16.7762 44.4995 16.7762Z" fill="#38516B"/>
<path d="M10.3809 74.3004L22.6084 72.8228C23.6013 72.7029 24.309 71.8006 24.189 70.8077L15.8254 1.5933C15.7054 0.600351 14.8032 -0.107333 13.8102 0.012651L1.58279 1.49017C0.589841 1.61016 -0.117836 2.51237 0.0021473 3.50532L8.36575 72.7197C8.48574 73.7127 9.38795 74.4203 10.3809 74.3004Z" fill="#38516B"/>
</g>
<defs>
<clipPath id="clip0_241_480">
<rect width="75.6824" height="75.6824" fill="white"/>
</clipPath>
</defs>
</svg>
