<svg width="400" height="400" viewBox="0 0 400 400" fill="none" xmlns="http://www.w3.org/2000/svg">
<g filter="url(#filter0_d_228_598)">
<circle cx="199.804" cy="199.804" r="181.804" fill="white"/>
</g>
<g clip-path="url(#clip0_228_598)">
<path d="M156.504 88.1657H120.469V104.041H156.504V88.1657Z" fill="#E8505B"/>
<g opacity="0.7">
<path d="M156.504 88.1657H120.469V104.041H156.504V88.1657Z" fill="#FF9BD0"/>
</g>
<path d="M169.411 88.1657H133.375V104.041H169.411V88.1657Z" fill="#FFBDE0"/>
<path d="M157.721 103.291H92.1426V300.58H157.721V103.291Z" fill="#FFBDE0"/>
<g opacity="0.7">
<path d="M116.967 103.291H92.1426V300.58H116.967V103.291Z" fill="#FF9BD0"/>
</g>
<path d="M199.967 103.291H134.389V300.58H199.967V103.291Z" fill="#FFBDE0"/>
<path d="M150.947 117.046H128.865V173.084H150.947V117.046Z" fill="#FAFAFA"/>
<path d="M190.785 117.046H168.703V173.084H190.785V117.046Z" fill="#FAFAFA"/>
<path d="M150.947 185.275H128.865V241.313H150.947V185.275Z" fill="#FAFAFA"/>
<path d="M140.143 240.885C140.051 240.885 139.973 231.037 139.973 218.889C139.973 206.742 140.051 196.894 140.143 196.894C140.234 196.894 140.313 206.742 140.313 218.889C140.313 231.037 140.254 240.885 140.143 240.885Z" fill="#263238"/>
<path d="M190.785 185.275H168.703V241.313H190.785V185.275Z" fill="#FAFAFA"/>
<path d="M160.431 300.58C160.425 300.506 160.425 300.432 160.431 300.358C160.431 300.194 160.431 299.98 160.431 299.708C160.431 299.13 160.431 298.28 160.431 297.223C160.431 295.081 160.431 291.903 160.385 287.939C160.385 280.02 160.339 268.872 160.306 255.874L160.47 256.053H140.835C140.79 256.053 141.156 255.71 140.999 255.874V268.55C140.999 272.642 140.999 276.599 140.999 280.377C140.999 287.932 140.999 294.781 140.999 300.608L140.875 300.473L155.188 300.551H159.115H160.143H160.503C160.391 300.557 160.28 300.557 160.169 300.551H159.161L155.273 300.587L140.875 300.665H140.75V300.522C140.75 294.695 140.75 287.847 140.75 280.291C140.75 276.513 140.75 272.557 140.75 268.465C140.75 266.422 140.75 264.344 140.75 262.23V255.803C140.6 255.967 140.953 255.567 140.927 255.61H160.699V255.789C160.699 268.829 160.64 280.02 160.62 287.968C160.62 291.91 160.62 295.038 160.581 297.209C160.581 298.266 160.581 299.087 160.581 299.658C160.581 299.923 160.581 300.13 160.581 300.287C160.539 300.389 160.489 300.487 160.431 300.58Z" fill="#263238"/>
<path d="M180.046 300.58C180.046 300.58 180.046 300.501 180.046 300.358C180.046 300.215 180.046 299.98 180.046 299.708C180.046 299.13 180.046 298.28 180.046 297.223C180.046 295.081 180.046 291.903 180 287.939C180 280.02 179.954 268.872 179.921 255.874L180.085 256.053H160.451L160.621 255.874V262.302C160.621 264.416 160.621 266.494 160.621 268.536C160.621 272.628 160.621 276.585 160.621 280.362C160.621 287.918 160.621 294.767 160.621 300.594L160.496 300.458L174.803 300.537H178.73H179.758H180.118C180.006 300.543 179.895 300.543 179.784 300.537H178.782L174.888 300.573L160.49 300.651H160.365V300.508C160.365 294.681 160.365 287.832 160.326 280.277C160.326 276.499 160.326 272.542 160.326 268.45V255.889L160.496 255.696H180.275V255.874C180.242 268.915 180.216 280.105 180.196 288.054C180.196 291.996 180.163 295.124 180.15 297.295C180.15 298.352 180.15 299.173 180.15 299.744V300.373C180.124 300.446 180.088 300.516 180.046 300.58Z" fill="#263238"/>
<path d="M163.004 277.484C163.004 277.484 163.259 277.199 163.737 277.413C163.876 277.481 163.996 277.59 164.082 277.727C164.169 277.864 164.219 278.025 164.228 278.191C164.238 278.399 164.187 278.604 164.084 278.779C163.98 278.953 163.829 279.088 163.652 279.163C163.468 279.225 163.27 279.22 163.089 279.148C162.908 279.075 162.754 278.94 162.65 278.763C162.585 278.644 162.547 278.51 162.542 278.372C162.536 278.234 162.563 278.097 162.619 277.973C162.675 277.849 162.759 277.742 162.863 277.663C162.967 277.584 163.087 277.535 163.213 277.52C163.351 277.52 163.416 277.563 163.416 277.584C163.416 277.606 163.115 277.584 162.912 277.97C162.856 278.058 162.826 278.163 162.826 278.27C162.826 278.377 162.856 278.482 162.912 278.57C162.984 278.68 163.086 278.762 163.204 278.805C163.321 278.849 163.448 278.851 163.566 278.813C163.677 278.761 163.771 278.676 163.837 278.566C163.903 278.457 163.939 278.329 163.94 278.199C163.938 278.087 163.911 277.977 163.859 277.881C163.807 277.785 163.734 277.704 163.645 277.649C163.292 277.427 163.017 277.541 163.004 277.484Z" fill="#263238"/>
<path d="M156.079 277.484C156.039 277.484 156.334 277.199 156.805 277.413C156.946 277.478 157.068 277.586 157.155 277.724C157.242 277.862 157.291 278.024 157.296 278.191C157.307 278.399 157.257 278.605 157.154 278.78C157.05 278.954 156.898 279.089 156.72 279.163C156.537 279.225 156.34 279.219 156.16 279.147C155.98 279.075 155.828 278.94 155.725 278.763C155.64 278.618 155.6 278.448 155.611 278.277C155.622 278.106 155.682 277.943 155.784 277.813C155.846 277.73 155.923 277.662 156.009 277.611C156.096 277.561 156.19 277.53 156.288 277.52C156.425 277.52 156.491 277.563 156.484 277.584C156.478 277.606 156.19 277.584 155.98 277.97C155.923 278.057 155.892 278.162 155.892 278.27C155.892 278.378 155.923 278.482 155.98 278.57C156.051 278.682 156.153 278.767 156.271 278.81C156.389 278.854 156.516 278.855 156.635 278.813C156.746 278.763 156.841 278.677 156.908 278.568C156.974 278.459 157.009 278.33 157.008 278.199C157.01 278.087 156.984 277.977 156.933 277.881C156.882 277.784 156.809 277.704 156.72 277.649C156.367 277.427 156.092 277.541 156.079 277.484Z" fill="#263238"/>
<path d="M296.713 80.0173H248.916V300.565H296.713V80.0173Z" fill="#236FE0"/>
<path d="M272.354 95.4785H257.824V126.022H272.354V95.4785Z" fill="#E0E0E0"/>
<path d="M317.042 80.0173H282.217V300.565H317.042V80.0173Z" fill="#236FE0"/>
<path d="M306.688 95.4785H292.158V126.022H306.688V95.4785Z" fill="#E0E0E0"/>
<path d="M306.688 133.057H292.158V163.6H306.688V133.057Z" fill="#E0E0E0"/>
<path d="M306.759 154.595C306.759 154.695 303.486 154.781 299.435 154.781C295.384 154.781 292.111 154.695 292.111 154.595C292.111 154.495 295.384 154.409 299.435 154.409C303.486 154.409 306.759 154.495 306.759 154.595Z" fill="#E8505B"/>
<path d="M265.501 124.23H241.527V162.036H265.501V124.23Z" fill="#2D4257"/>
<path d="M287.065 124.23H263.092V162.036H287.065V124.23Z" fill="#38516B"/>
<path d="M311.74 154.402H212.338V300.594H311.74V154.402Z" fill="#38516B"/>
<path d="M252.15 154.402H198.836V300.594H252.15V154.402Z" fill="#2D4257"/>
<path d="M304.449 233.722H286.268V253.561H304.449V233.722Z" fill="#EBEBEB"/>
<path d="M278.519 233.722H260.338V253.561H278.519V233.722Z" fill="#EBEBEB"/>
<path d="M304.449 202.385H286.268V222.224H304.449V202.385Z" fill="#EBEBEB"/>
<path d="M278.519 202.385H260.338V222.224H278.519V202.385Z" fill="#EBEBEB"/>
<path d="M304.449 170.97H286.268V190.809H304.449V170.97Z" fill="#EBEBEB"/>
<path d="M278.519 170.97H260.338V190.809H278.519V170.97Z" fill="#EBEBEB"/>
<g opacity="0.7">
<path d="M233.883 170.97H215.701V190.809H233.883V170.97Z" fill="white"/>
</g>
<g opacity="0.7">
<path d="M233.883 202.692H215.701V222.531H233.883V202.692Z" fill="white"/>
</g>
<g opacity="0.7">
<path d="M233.883 234.415H215.701V254.253H233.883V234.415Z" fill="white"/>
</g>
<path d="M162.416 230.937H134.594V300.594H162.416V230.937Z" fill="#FFBDE0"/>
<path d="M128.088 230.651H196.73L209.551 210.784L222.994 231.215L238.793 230.944L221.763 205.92L149.182 206.249L128.088 230.651Z" fill="#236FE0"/>
<path d="M162.416 230.944V300.594H230.96V230.944H223.099L209.552 210.784L196.685 230.637L162.416 230.944Z" fill="#FFBDE0"/>
<path d="M222.995 235.379H197.738V252.447H222.995V235.379Z" fill="white"/>
<path d="M186.461 235.536H170.531V251.99H186.461V235.536Z" fill="white"/>
<path d="M212.902 224.081C212.903 224.811 212.706 225.526 212.335 226.134C211.964 226.742 211.436 227.217 210.818 227.497C210.2 227.778 209.519 227.852 208.862 227.71C208.206 227.568 207.602 227.217 207.128 226.701C206.654 226.185 206.331 225.527 206.2 224.811C206.069 224.095 206.136 223.352 206.392 222.677C206.648 222.002 207.081 221.425 207.638 221.019C208.194 220.613 208.849 220.396 209.518 220.396C210.415 220.396 211.274 220.784 211.909 221.475C212.543 222.166 212.9 223.103 212.902 224.081Z" fill="white"/>
<path d="M185.42 219.56L189.687 213.826V200.029H180.76V219.668L185.42 219.56Z" fill="#FFBDE0"/>
<path d="M190.29 197.993H179.766V200.021H190.29V197.993Z" fill="#FFBDE0"/>
<path d="M128.088 230.651V232.672H196.684V230.637L128.088 230.651Z" fill="#236FE0"/>
<path d="M196.684 232.672L209.511 213.019L209.551 210.784L196.729 230.651L196.684 232.672Z" fill="#236FE0"/>
<path d="M238.465 230.937H223.098V232.236H238.465V230.937Z" fill="#236FE0"/>
<path d="M222.995 269.607H197.738V286.675H222.995V269.607Z" fill="white"/>
<path d="M116.09 121.702H105.769L68.8301 160.701V300.594H92.9607L116.09 121.702Z" fill="#2D4257"/>
<path d="M140.024 300.515V160.701L116.031 125.965L92.9609 160.701V300.594H140.024" fill="#38516B"/>
<path d="M115.35 215.947H100.82V246.491H115.35V215.947Z" fill="#E0E0E0"/>
<path d="M134.147 215.947H119.617V246.491H134.147V215.947Z" fill="#E0E0E0"/>
<path d="M115.35 172.456H100.82V202.999H115.35V172.456Z" fill="#E0E0E0"/>
<path d="M134.147 172.456H119.617V202.999H134.147V172.456Z" fill="#E0E0E0"/>
<path d="M122.814 159.16C125.59 155.674 125.251 150.392 122.056 147.363C118.861 144.333 114.02 144.704 111.244 148.19C108.467 151.676 108.807 156.958 112.002 159.987C115.197 163.017 120.037 162.647 122.814 159.16Z" fill="#E0E0E0"/>
<path d="M92.9608 160.701H89.2695L116.09 121.702L142.904 160.701H140.024L116.031 125.965L92.9608 160.701Z" fill="#2D4257"/>
<path d="M81.5141 160.701H63.457L91.2855 121.702H116.09L81.5141 160.701Z" fill="#2D4257"/>
<path d="M94.2952 160.715C94.2952 160.815 87.4298 160.858 78.9543 160.808C70.4788 160.758 63.6133 160.622 63.6133 160.522C63.6133 160.422 70.4853 160.372 78.9543 160.422C87.4232 160.472 94.2952 160.594 94.2952 160.715Z" fill="#455A64"/>
<path d="M106.875 263.551H126.509V300.687H106.875V263.551Z" fill="#D9D9D9"/>
<path d="M168.396 263.551H188.031V300.687H168.396V263.551Z" fill="white"/>
<path d="M272.459 263.551H292.093V300.687H272.459V263.551Z" fill="white"/>
</g>
<defs>
<filter id="filter0_d_228_598" x="0" y="0" width="399.609" height="399.609" filterUnits="userSpaceOnUse" color-interpolation-filters="sRGB">
<feFlood flood-opacity="0" result="BackgroundImageFix"/>
<feColorMatrix in="SourceAlpha" type="matrix" values="0 0 0 0 0 0 0 0 0 0 0 0 0 0 0 0 0 0 127 0" result="hardAlpha"/>
<feOffset/>
<feGaussianBlur stdDeviation="9"/>
<feComposite in2="hardAlpha" operator="out"/>
<feColorMatrix type="matrix" values="0 0 0 0 0 0 0 0 0 0 0 0 0 0 0 0 0 0 0.08 0"/>
<feBlend mode="normal" in2="BackgroundImageFix" result="effect1_dropShadow_228_598"/>
<feBlend mode="normal" in="SourceGraphic" in2="effect1_dropShadow_228_598" result="shape"/>
</filter>
<clipPath id="clip0_228_598">
<rect width="254.016" height="220.884" fill="white" transform="translate(63.0254 80.0173)"/>
</clipPath>
</defs>
</svg>
