<svg width="157" height="38" viewBox="0 0 157 38" fill="none" xmlns="http://www.w3.org/2000/svg">
<g clip-path="url(#clip0_241_440)">
<path d="M58.9942 36.6852L57.9142 34.864H56.9146V36.6852H56.0762V31.6885H58.1226C58.3392 31.6867 58.5541 31.7269 58.7546 31.8068C58.9552 31.8867 59.1374 32.0047 59.2908 32.1539C59.4442 32.3032 59.5657 32.4807 59.6481 32.6761C59.7306 32.8716 59.7724 33.0811 59.7711 33.2925C59.7729 33.6056 59.6735 33.9113 59.4869 34.1661C59.3045 34.4294 59.0431 34.6313 58.7384 34.7438L59.9038 36.6852H58.9942ZM56.9146 32.4604V34.1291H58.1226C58.23 34.1301 58.3365 34.1093 58.4352 34.0679C58.5339 34.0265 58.6227 33.9655 58.6958 33.8887C58.8504 33.7274 58.9338 33.5132 58.9279 33.2925C58.9335 33.0731 58.8501 32.8604 58.6958 32.7008C58.6234 32.6231 58.5348 32.5615 58.4359 32.52C58.337 32.4785 58.2302 32.4582 58.1226 32.4604H56.9146Z" fill="#1DD6C9"/>
<path d="M60.9437 35.2276C60.9891 35.479 61.1336 35.703 61.3464 35.8516C61.5724 36.0009 61.8409 36.077 62.1138 36.0688C62.2992 36.0786 62.4841 36.0411 62.6502 35.9601C62.8163 35.879 62.9579 35.7572 63.0612 35.6066L63.7102 35.981C63.5354 36.235 63.2959 36.4402 63.0151 36.5763C62.7343 36.7125 62.4221 36.775 62.109 36.7575C61.8477 36.7663 61.5873 36.7238 61.3432 36.6325C61.0991 36.5412 60.8762 36.4029 60.6879 36.226C60.3364 35.863 60.1406 35.3826 60.1406 34.8832C60.1406 34.3839 60.3364 33.9034 60.6879 33.5405C60.8679 33.3677 61.0822 33.2326 61.3176 33.1436C61.553 33.0546 61.8046 33.0135 62.0569 33.0228C62.305 33.0151 62.5518 33.0603 62.78 33.1554C63.0083 33.2504 63.2126 33.3928 63.3786 33.5728C63.7201 33.935 63.9051 34.4119 63.8949 34.904C63.8908 35.0124 63.8797 35.1205 63.8618 35.2276H60.9437ZM60.9437 34.599H63.0944C63.0617 34.3421 62.9295 34.1073 62.7249 33.9426C62.5323 33.7941 62.2928 33.7157 62.0475 33.7207C61.7846 33.7075 61.5261 33.79 61.3222 33.9523C61.1182 34.1146 60.9833 34.3451 60.9437 34.599Z" fill="#1DD6C9"/>
<path d="M66.2808 36.7765C65.9871 36.7724 65.6983 36.7028 65.4365 36.573C65.1747 36.4431 64.9469 36.2565 64.7705 36.0274C64.594 35.7983 64.4737 35.5328 64.4188 35.2513C64.3638 34.9698 64.3756 34.6798 64.4533 34.4035C64.531 34.1271 64.6726 33.8718 64.8671 33.6571C65.0616 33.4424 65.3039 33.2741 65.5755 33.1649C65.847 33.0558 66.1406 33.0087 66.4336 33.0274C66.7267 33.0462 67.0115 33.1301 67.2661 33.2729C67.5487 33.4278 67.7778 33.661 67.9246 33.9431L67.2472 34.3267C67.1652 34.1585 67.0331 34.0183 66.8682 33.9246C66.687 33.8231 66.4801 33.7735 66.2713 33.7813C66.1215 33.7786 65.9728 33.8059 65.8342 33.8615C65.6957 33.9172 65.5704 34 65.466 34.1048C65.2557 34.3205 65.1385 34.6068 65.1385 34.9045C65.1385 35.2022 65.2557 35.4885 65.466 35.7041C65.5706 35.8084 65.6961 35.8905 65.8347 35.9454C65.9732 36.0002 66.1218 36.0267 66.2713 36.0231C66.4756 36.0258 66.6769 35.9747 66.854 35.8752C67.0212 35.7799 67.1575 35.6405 67.2472 35.473L67.9246 35.8521C67.7744 36.1329 67.5462 36.3667 67.2661 36.5269C66.9671 36.6962 66.6264 36.7826 66.2808 36.7765Z" fill="#1DD6C9"/>
<path d="M69.3067 33.7118C69.3995 33.4999 69.5584 33.322 69.7609 33.2033C69.9633 33.0847 70.1989 33.0313 70.4342 33.0508V33.8874C70.1534 33.8611 69.8723 33.935 69.6431 34.0954C69.5259 34.191 69.4341 34.3127 69.3755 34.4504C69.3169 34.588 69.2933 34.7374 69.3067 34.8858V36.6839H68.5156V33.1155H69.3067V33.7118Z" fill="#1DD6C9"/>
<path d="M73.485 33.1134H74.2761V36.6818H73.485V36.2195C73.3634 36.4011 73.1944 36.5478 72.9954 36.6445C72.7964 36.7412 72.5746 36.7844 72.3528 36.7696C72.1642 36.778 71.976 36.7474 71.8004 36.6797C71.6249 36.6119 71.466 36.5087 71.3343 36.3767C71.1997 36.2313 71.096 36.0611 71.0293 35.8763C70.9626 35.6914 70.9343 35.4954 70.9459 35.2997V33.1134H71.737V35.2258C71.7294 35.3372 71.7448 35.4491 71.7822 35.5547C71.8196 35.6602 71.8784 35.7574 71.9549 35.8405C72.0357 35.9131 72.1306 35.9692 72.2338 36.0057C72.3371 36.0423 72.4468 36.0584 72.5565 36.0531C72.6805 36.0583 72.8043 36.0384 72.9201 35.9947C73.0359 35.9509 73.1411 35.8843 73.2292 35.7989C73.322 35.6931 73.3924 35.5704 73.4363 35.4379C73.4802 35.3055 73.4967 35.1658 73.485 35.027V33.1134Z" fill="#1DD6C9"/>
<path d="M77.2377 33.8551H76.3329V35.57C76.3243 35.6847 76.3597 35.7984 76.4324 35.8889C76.5176 35.9578 76.6249 35.9954 76.7356 35.9952C76.873 35.9952 77.0387 35.9952 77.2377 35.9952V36.6886C76.8003 36.7876 76.3416 36.7404 75.935 36.5545C75.7927 36.4388 75.6821 36.2903 75.6135 36.1225C75.5448 35.9546 75.5202 35.7726 75.5418 35.5931V33.8551H74.8691V33.1156H75.5418V32.3437L76.3329 32.1172V33.1156H77.2377V33.8551Z" fill="#1DD6C9"/>
<path d="M78.4325 35.2276C78.4779 35.479 78.6224 35.703 78.8352 35.8516C79.0531 36.0054 79.3147 36.0894 79.5837 36.0919C79.7691 36.1017 79.9539 36.0642 80.1201 35.9832C80.2862 35.9021 80.4278 35.7803 80.5311 35.6297L81.1801 36.0041C81.0051 36.2565 80.7661 36.4604 80.4863 36.5957C80.2065 36.731 79.8955 36.7931 79.5837 36.776C79.3224 36.7848 79.0619 36.7423 78.8178 36.651C78.5737 36.5597 78.3508 36.4214 78.1625 36.2445C77.811 35.8815 77.6152 35.4011 77.6152 34.9017C77.6152 34.4024 77.811 33.9219 78.1625 33.559C78.3431 33.3805 78.5597 33.2407 78.7987 33.1484C79.0376 33.0561 79.2937 33.0133 79.5505 33.0228C79.7985 33.0151 80.0453 33.0603 80.2736 33.1553C80.5019 33.2504 80.7061 33.3928 80.8722 33.5728C81.2137 33.935 81.3987 34.4119 81.3885 34.904C81.3844 35.0124 81.3733 35.1205 81.3553 35.2276H78.4325ZM78.4325 34.599H80.5832C80.5505 34.3421 80.4183 34.1073 80.2137 33.9426C80.0212 33.7941 79.7816 33.7157 79.5363 33.7207C79.2734 33.7075 79.0149 33.79 78.811 33.9523C78.607 34.1146 78.4721 34.3451 78.4325 34.599Z" fill="#1DD6C9"/>
<path d="M86.0579 33.0239C86.2443 33.016 86.4302 33.0469 86.6034 33.1146C86.7766 33.1824 86.933 33.2854 87.0621 33.4168C87.3256 33.7057 87.4618 34.0844 87.4411 34.4707V36.6847H86.65V34.5215C86.6648 34.3138 86.5969 34.1085 86.4605 33.9484C86.3951 33.8795 86.3149 33.8255 86.2256 33.7903C86.1364 33.7552 86.0403 33.7397 85.9442 33.745C85.8352 33.7399 85.7265 33.7584 85.6258 33.7991C85.525 33.8399 85.4348 33.9019 85.3615 33.9807C85.2013 34.18 85.1236 34.4307 85.1436 34.6833V36.6847H84.3525V34.5215C84.3671 34.316 84.3048 34.1124 84.1772 33.9484C84.1134 33.8788 84.0341 33.8243 83.9455 33.789C83.8568 33.7538 83.7611 33.7387 83.6656 33.745C83.5569 33.7414 83.4486 33.7607 83.3481 33.8013C83.2476 33.842 83.1572 33.9031 83.0829 33.9807C82.919 34.1785 82.8377 34.4295 82.8556 34.6833V36.6847H82.0645V33.1163H82.8556V33.5416C82.9675 33.3726 83.1234 33.2357 83.3073 33.1448C83.4913 33.0538 83.6966 33.0121 83.9025 33.0239C84.1124 33.0122 84.3214 33.059 84.5051 33.1589C84.6888 33.2587 84.8396 33.4075 84.9399 33.5878C85.0563 33.4037 85.2218 33.254 85.4188 33.1547C85.6157 33.0553 85.8366 33.0101 86.0579 33.0239Z" fill="#1DD6C9"/>
<path d="M88.9086 35.2272C88.9577 35.4772 89.1014 35.7 89.3113 35.8512C89.5394 35.9998 89.8092 36.0757 90.0834 36.0684C90.2688 36.0777 90.4535 36.04 90.6195 35.959C90.7855 35.878 90.9272 35.7565 91.0309 35.6062L91.6798 35.9806C91.5047 36.2343 91.2651 36.4392 90.9844 36.5753C90.7037 36.7114 90.3916 36.7741 90.0787 36.7571C89.8173 36.7665 89.5567 36.7242 89.3125 36.6328C89.0683 36.5415 88.8455 36.403 88.6575 36.2256C88.4802 36.0512 88.3403 35.844 88.2459 35.6163C88.1516 35.3885 88.1047 35.1447 88.108 34.899C88.1016 34.6517 88.146 34.4056 88.2388 34.1754C88.3315 33.9451 88.4707 33.7354 88.6481 33.5586C88.825 33.3844 89.0362 33.2471 89.2691 33.1549C89.502 33.0627 89.7516 33.0176 90.0029 33.0224C90.2503 33.0144 90.4964 33.0596 90.724 33.1546C90.9515 33.2497 91.1549 33.3923 91.3198 33.5724C91.6631 33.9336 91.8484 34.4112 91.8362 34.9036C91.834 35.012 91.8245 35.1201 91.8077 35.2272H88.9086ZM88.9086 34.5986H91.0593C91.0266 34.3417 90.8944 34.1069 90.6898 33.9422C90.4971 33.7941 90.2577 33.7157 90.0124 33.7203C89.7481 33.7111 89.4892 33.7948 89.2828 33.9561C89.0796 34.1173 88.9446 34.3461 88.9039 34.5986H88.9086Z" fill="#1DD6C9"/>
<path d="M94.4721 33.0222C94.6606 33.0143 94.8487 33.0452 95.0242 33.1129C95.1996 33.1806 95.3586 33.2835 95.4906 33.4151C95.7612 33.7096 95.9009 34.097 95.879 34.492V36.683H95.0879V34.5706C95.0952 34.4588 95.0792 34.3467 95.0409 34.2411C95.0026 34.1354 94.9429 34.0384 94.8653 33.9559C94.7861 33.8823 94.6922 33.8255 94.5895 33.7889C94.4868 33.7523 94.3775 33.7368 94.2684 33.7432C94.1448 33.7377 94.0212 33.757 93.9055 33.8C93.7898 33.8429 93.6844 33.9085 93.5957 33.9928C93.409 34.2087 93.317 34.4877 93.3399 34.7694V36.683H92.5488V33.1146H93.321V33.5768C93.4424 33.3904 93.614 33.2401 93.817 33.1423C94.02 33.0445 94.2466 33.0029 94.4721 33.0222Z" fill="#1DD6C9"/>
<path d="M98.7631 33.8551H97.8583V35.57C97.8497 35.6847 97.8851 35.7984 97.9578 35.8889C98.0443 35.9589 98.1534 35.9965 98.2657 35.9952C98.3983 35.9952 98.5641 35.9952 98.7631 35.9952V36.6886C98.3252 36.7818 97.8678 36.7281 97.4651 36.536C97.3212 36.4214 97.2093 36.2732 97.1398 36.1051C97.0702 35.9371 97.0453 35.7546 97.0672 35.5746V33.8551H96.3945V33.1156H97.0672V32.3437L97.8583 32.1172V33.1156H98.7631V33.8551Z" fill="#1DD6C9"/>
<path d="M7.10384 26.6763L0.0218252 1.55914C-0.00741627 1.45602 -0.0118021 1.3477 0.00901099 1.24265C0.0298241 1.1376 0.0752713 1.03868 0.141795 0.953621C0.208319 0.868566 0.294115 0.799688 0.392467 0.752378C0.490818 0.705067 0.599057 0.680609 0.70871 0.680917H6.15642C6.31551 0.68052 6.47015 0.732232 6.59555 0.827771C6.72094 0.923311 6.80986 1.05715 6.84804 1.20785L11.6941 20.3993L17.1229 1.18936C17.1642 1.04363 17.2532 0.915066 17.3764 0.823274C17.4995 0.731482 17.6501 0.68149 17.805 0.680917H22.0685C22.221 0.68447 22.3683 0.735829 22.4886 0.827396C22.6089 0.918963 22.6958 1.04588 22.7364 1.18936L28.1699 20.4086L33.0539 1.20785C33.0911 1.05752 33.1791 0.923798 33.3037 0.828211C33.4283 0.732625 33.5823 0.680742 33.7408 0.680917H39.1837C39.2933 0.680377 39.4015 0.704739 39.4998 0.752072C39.598 0.799406 39.6836 0.868412 39.7498 0.953625C39.816 1.03884 39.861 1.13792 39.8811 1.24302C39.9012 1.34812 39.896 1.45635 39.8659 1.55914L32.7602 26.6763C32.5835 27.3 32.2028 27.8503 31.676 28.2433C31.1493 28.6363 30.5052 28.8506 29.8421 28.8534H26.9619C26.2968 28.8541 25.6498 28.6414 25.1208 28.248C24.5918 27.8546 24.21 27.3023 24.0344 26.6763L19.932 12.1487L15.8296 26.6763C15.6526 27.3015 15.2705 27.8529 14.7417 28.2461C14.213 28.6393 13.5669 28.8526 12.9021 28.8534H10.0598C9.38981 28.8603 8.73635 28.6503 8.20155 28.2565C7.66675 27.8626 7.28074 27.3069 7.10384 26.6763Z" fill="#F2F2F2"/>
<path d="M57.9753 26.3335C55.9025 28.3103 53.1191 29.4171 50.2206 29.4171C47.3221 29.4171 44.5387 28.3103 42.4659 26.3335C41.4339 25.3562 40.6192 24.1822 40.0723 22.8844C39.5255 21.5866 39.2583 20.1929 39.2873 18.79C39.2765 17.3879 39.5522 15.9977 40.0983 14.7007C40.6444 13.4037 41.45 12.2259 42.4679 11.2361C43.4858 10.2463 44.6957 9.4644 46.0268 8.93605C47.3579 8.40769 48.7836 8.1435 50.2206 8.15889C51.6575 8.14286 53.0833 8.40666 54.4145 8.93484C55.7456 9.46302 56.9554 10.245 57.9731 11.2349C58.9908 12.2249 59.7958 13.403 60.3412 14.7003C60.8866 15.9975 61.1612 17.3879 61.1492 18.79C61.1791 20.1926 60.9128 21.5862 60.3667 22.884C59.8207 24.1818 59.0066 25.356 57.9753 26.3335ZM46.8383 22.2243C47.7484 23.0752 48.9601 23.5503 50.2206 23.5503C51.4811 23.5503 52.6928 23.0752 53.6029 22.2243C54.0568 21.7749 54.4116 21.2396 54.6454 20.6514C54.8792 20.0631 54.9871 19.4344 54.9625 18.8039C54.9871 18.1734 54.8792 17.5447 54.6454 16.9564C54.4116 16.3682 54.0568 15.8328 53.6029 15.3834C52.6945 14.5293 51.4821 14.0521 50.2206 14.0521C48.9591 14.0521 47.7467 14.5293 46.8383 15.3834C46.3853 15.8308 46.0307 16.3637 45.7961 16.9495C45.5615 17.5352 45.4519 18.1615 45.474 18.79C45.448 19.4231 45.5557 20.0547 45.7904 20.6455C46.0251 21.2363 46.3818 21.7737 46.8383 22.2243Z" fill="#F2F2F2"/>
<path d="M70.8405 12.3105C71.1922 11.0656 72.0285 10.004 73.1711 9.35228C74.1125 8.79824 75.1699 8.45855 76.2645 8.3585C76.3632 8.34946 76.4628 8.3607 76.5568 8.39147C76.6508 8.42225 76.7372 8.47189 76.8104 8.53719C76.8835 8.6025 76.9419 8.68202 76.9817 8.77066C77.0215 8.85929 77.0418 8.95507 77.0414 9.05183V14.3997C77.0409 14.4944 77.0206 14.588 76.9817 14.6748C76.9428 14.7615 76.8861 14.8395 76.8151 14.9041C76.744 14.9686 76.6602 15.0182 76.5688 15.05C76.4774 15.0817 76.3802 15.0948 76.2834 15.0885C75.0697 15.0228 73.8631 15.309 72.8158 15.9112C71.5084 16.6508 70.8547 17.9327 70.8547 19.7569V27.8181C70.8553 27.9538 70.8284 28.0884 70.7756 28.214C70.7228 28.3395 70.6451 28.4537 70.5469 28.5499C70.4488 28.6461 70.3321 28.7225 70.2036 28.7746C70.0752 28.8267 69.9374 28.8535 69.7983 28.8535H65.7291C65.5897 28.8535 65.4518 28.8267 65.323 28.7746C65.1943 28.7226 65.0773 28.6464 64.9788 28.5502C64.8802 28.4541 64.8021 28.3399 64.7487 28.2143C64.6954 28.0887 64.668 27.9541 64.668 27.8181V9.43085C64.6679 9.24768 64.7412 9.07172 64.8721 8.94048C65.0031 8.80924 65.1814 8.73309 65.3691 8.72827H70.1062C70.2947 8.72827 70.4754 8.80132 70.6086 8.93135C70.7419 9.06137 70.8168 9.23772 70.8168 9.42161L70.8405 12.3105Z" fill="#F2F2F2"/>
<path d="M98.3 28.8532H93.0892C92.9772 28.8532 92.8668 28.8272 92.7671 28.7774C92.6674 28.7275 92.5814 28.6553 92.516 28.5666L86.1066 19.9739V28.1598C86.1066 28.3437 86.0318 28.5201 85.8985 28.6501C85.7652 28.7801 85.5845 28.8532 85.396 28.8532H80.6305C80.442 28.8532 80.2613 28.7801 80.128 28.6501C79.9948 28.5201 79.9199 28.3437 79.9199 28.1598V1.374C79.9199 1.19011 79.9948 1.01376 80.128 0.883737C80.2613 0.753712 80.442 0.680664 80.6305 0.680664H85.396C85.5845 0.680664 85.7652 0.753712 85.8985 0.883737C86.0318 1.01376 86.1066 1.19011 86.1066 1.374V17.5518L92.0801 9.03766C92.1462 8.9453 92.2341 8.8698 92.3363 8.81752C92.4385 8.76523 92.5521 8.73769 92.6675 8.73721H98.1153C98.246 8.73761 98.3741 8.77322 98.4855 8.84011C98.5969 8.907 98.6872 9.00258 98.7464 9.11633C98.8057 9.23007 98.8316 9.35756 98.8214 9.48477C98.8112 9.61198 98.7652 9.73397 98.6885 9.8373L92.6533 17.9262C92.464 18.1783 92.3619 18.4827 92.3619 18.7952C92.3619 19.1077 92.464 19.4121 92.6533 19.6642L98.8542 27.7531C98.9301 27.8551 98.976 27.9754 98.987 28.1011C98.998 28.2267 98.9737 28.3529 98.9167 28.466C98.8597 28.5791 98.7722 28.675 98.6635 28.7432C98.5548 28.8114 98.4292 28.8494 98.3 28.8532Z" fill="#F2F2F2"/>
<path d="M115.111 8.72587H120.185C120.298 8.72618 120.41 8.75302 120.511 8.80414C120.611 8.85526 120.698 8.92918 120.763 9.0197C120.829 9.11022 120.871 9.21471 120.886 9.32443C120.902 9.43415 120.89 9.54589 120.853 9.65031L114.112 28.2317C112.956 31.3964 111.437 33.6643 109.554 35.0356C107.827 36.2867 105.667 36.903 103.074 36.8845C102.885 36.8845 102.703 36.8118 102.568 36.682C102.433 36.5522 102.357 36.3759 102.354 36.1912V31.9295C102.355 31.7534 102.424 31.5842 102.548 31.4563C102.673 31.3284 102.842 31.2513 103.022 31.2408C103.94 31.2299 104.841 30.9896 105.637 30.5428C106.425 29.9759 107.023 29.192 107.352 28.2918C107.398 28.1827 107.423 28.0656 107.423 27.9474C107.423 27.8292 107.398 27.7121 107.352 27.6031L99.7154 9.68729C99.6702 9.58203 99.6523 9.46749 99.6633 9.35386C99.6743 9.24023 99.714 9.131 99.7786 9.03589C99.8433 8.94078 99.931 8.86272 100.034 8.80863C100.137 8.75455 100.252 8.72612 100.369 8.72587H105.608C105.755 8.72559 105.898 8.76996 106.018 8.85281C106.138 8.93565 106.228 9.05285 106.276 9.18809L110.687 21.0441L114.41 9.22045C114.455 9.07421 114.548 8.94647 114.675 8.85705C114.801 8.76763 114.955 8.72152 115.111 8.72587Z" fill="#F2F2F2"/>
<path d="M135.518 8.16241C136.543 8.13737 137.562 8.32136 138.51 8.7026C139.458 9.08385 140.313 9.65396 141.023 10.3765C142.497 11.8494 143.233 13.8894 143.23 16.4963V28.1582C143.23 28.3421 143.155 28.5184 143.022 28.6484C142.889 28.7785 142.708 28.8515 142.52 28.8515H137.754C137.565 28.8515 137.385 28.7785 137.252 28.6484C137.118 28.5184 137.043 28.3421 137.043 28.1582V17.3791C137.077 16.8827 137.004 16.3848 136.831 15.9171C136.657 15.4493 136.386 15.0217 136.034 14.6613C135.687 14.3492 135.281 14.1069 134.838 13.9483C134.395 13.7897 133.924 13.7178 133.453 13.7368C132.936 13.7106 132.42 13.7901 131.937 13.97C131.454 14.1498 131.015 14.4263 130.648 14.7814C129.96 15.4809 129.617 16.5148 129.62 17.883V28.1582C129.62 28.3421 129.545 28.5184 129.412 28.6484C129.279 28.7785 129.098 28.8515 128.91 28.8515H124.144C123.956 28.8515 123.775 28.7785 123.642 28.6484C123.508 28.5184 123.434 28.3421 123.434 28.1582V9.41965C123.434 9.23577 123.508 9.05942 123.642 8.92939C123.775 8.79937 123.956 8.72632 124.144 8.72632H128.91C129.098 8.72632 129.279 8.79937 129.412 8.92939C129.545 9.05942 129.62 9.23577 129.62 9.41965V10.6168C130.858 8.98054 132.824 8.16241 135.518 8.16241Z" fill="#F2F2F2"/>
<path d="M156.325 1.83478L153.957 20.7859C153.946 20.8775 153.912 20.965 153.857 21.0403C153.803 21.1156 153.729 21.1763 153.645 21.2168C153.56 21.2573 153.466 21.2763 153.371 21.2721C153.277 21.2679 153.185 21.2406 153.104 21.1927C152.427 20.7895 151.67 20.5326 150.882 20.4393C150.096 20.3431 149.297 20.4157 148.542 20.6519C148.452 20.6797 148.357 20.6849 148.264 20.6672C148.171 20.6495 148.085 20.6094 148.012 20.5505C147.939 20.4916 147.883 20.4158 147.848 20.3302C147.813 20.2445 147.801 20.1517 147.813 20.0602L150.181 1.10909C150.192 1.01689 150.221 0.927681 150.268 0.846742C150.314 0.765803 150.377 0.694784 150.452 0.63789C150.527 0.580996 150.613 0.539385 150.705 0.515521C150.797 0.491657 150.893 0.486026 150.987 0.49896L155.724 1.05825C155.909 1.08462 156.075 1.18087 156.188 1.32617C156.3 1.47148 156.35 1.65419 156.325 1.83478Z" fill="#F2F2F2"/>
<path d="M153.358 25.7991L153.32 26.1041L147.162 25.3784L147.2 25.0687C147.343 24.3093 147.778 23.6317 148.415 23.1742C149.053 22.7168 149.846 22.514 150.631 22.6071C151.417 22.7003 152.137 23.0824 152.643 23.6756C153.15 24.2687 153.406 25.0282 153.358 25.7991Z" fill="#38516B"/>
<path d="M153.334 26.1087C153.191 26.8682 152.756 27.5458 152.118 28.0033C151.481 28.4607 150.688 28.6635 149.903 28.5704C149.117 28.4772 148.397 28.0951 147.891 27.5019C147.384 26.9087 147.128 26.1493 147.176 25.3784C147.186 25.2742 147.203 25.1707 147.228 25.0687C147.371 24.3093 147.805 23.6317 148.443 23.1742C149.081 22.7168 149.873 22.514 150.659 22.6071C151.445 22.7003 152.164 23.0824 152.671 23.6756C153.178 24.2687 153.433 25.0282 153.386 25.7991C153.353 25.9239 153.348 26.0024 153.334 26.1087Z" fill="#EA5383"/>
<path d="M153.334 26.1087C153.191 26.8682 152.756 27.5458 152.118 28.0033C151.481 28.4607 150.688 28.6635 149.903 28.5704C149.117 28.4772 148.397 28.0951 147.891 27.5019C147.384 26.9087 147.128 26.1493 147.176 25.3784C147.186 25.2742 147.203 25.1707 147.228 25.0687C147.371 24.3093 147.805 23.6317 148.443 23.1742C149.081 22.7168 149.873 22.514 150.659 22.6071C151.445 22.7003 152.164 23.0824 152.671 23.6756C153.178 24.2687 153.433 25.0282 153.386 25.7991C153.353 25.9239 153.348 26.0024 153.334 26.1087Z" fill="#EA5383"/>
<path d="M153.334 26.1087C153.191 26.8682 152.756 27.5458 152.118 28.0033C151.481 28.4607 150.688 28.6635 149.903 28.5704C149.117 28.4772 148.397 28.0951 147.891 27.5019C147.384 26.9087 147.128 26.1493 147.176 25.3784C147.186 25.2742 147.203 25.1707 147.228 25.0687C147.371 24.3093 147.805 23.6317 148.443 23.1742C149.081 22.7168 149.873 22.514 150.659 22.6071C151.445 22.7003 152.164 23.0824 152.671 23.6756C153.178 24.2687 153.433 25.0282 153.386 25.7991C153.353 25.9239 153.348 26.0024 153.334 26.1087Z" fill="#1DD6C9"/>
</g>
<defs>
<clipPath id="clip0_241_440">
<rect width="157" height="37" fill="white" transform="translate(0 0.5)"/>
</clipPath>
</defs>
</svg>
