<svg width="76" height="76" viewBox="0 0 76 76" fill="none" xmlns="http://www.w3.org/2000/svg">
<g clip-path="url(#clip0_324_2888)">
<path d="M75.4394 3.60398L69.3758 53.3381C69.3489 53.5787 69.2618 53.8086 69.1226 54.0067C68.9834 54.2048 68.7966 54.3646 68.5793 54.4714C68.3621 54.5783 68.1214 54.6287 67.8796 54.618C67.6377 54.6073 67.4025 54.5359 67.1955 54.4103C65.4598 53.346 63.5149 52.6686 61.4935 52.4245C59.4721 52.1804 57.4219 52.3752 55.4827 52.9957C55.2523 53.067 55.0078 53.0793 54.7714 53.0316C54.535 52.9838 54.3144 52.8775 54.1297 52.7224C53.9451 52.5674 53.8022 52.3684 53.7144 52.1439C53.6265 51.9193 53.5963 51.6763 53.6267 51.437L59.6543 1.70291C59.6805 1.45945 59.756 1.22389 59.8763 1.0106C59.9966 0.797309 60.159 0.610772 60.3538 0.462374C60.5486 0.313976 60.7716 0.206832 61.0091 0.147482C61.2467 0.0881319 61.4938 0.077822 61.7355 0.117182L73.8808 1.58578C74.1157 1.6158 74.3424 1.69184 74.5479 1.80955C74.7534 1.92726 74.9337 2.08432 75.0785 2.27176C75.2232 2.4592 75.3296 2.67334 75.3916 2.90194C75.4535 3.13053 75.4698 3.36909 75.4394 3.60398Z" fill="#38516B"/>
<path d="M68.1191 67.4463C67.8646 69.542 66.7881 71.4507 65.1263 72.7525C63.4645 74.0544 61.3536 74.6429 59.2579 74.3884C57.1623 74.1339 55.2536 73.0573 53.9517 71.3955C52.6498 69.7338 52.0614 67.6229 52.3159 65.5272C52.3463 65.2577 52.3914 64.99 52.451 64.7254C52.8955 62.8116 54.0316 61.1297 55.641 60.0028C57.2504 58.876 59.2195 58.3837 61.1698 58.6207C63.1201 58.8576 64.914 59.807 66.2068 61.2865C67.4995 62.7659 68.1999 64.6709 68.1732 66.6354C68.1732 66.9057 68.1461 67.167 68.1191 67.4463Z" fill="#236FE0"/>
<path d="M44.4995 16.7754H31.6966C30.8308 16.7754 30.1289 17.4773 30.1289 18.3431L30.1289 70.3387C30.1289 71.2045 30.8308 71.9064 31.6966 71.9064H44.4995C45.3654 71.9064 46.0673 71.2045 46.0673 70.3387V18.3431C46.0673 17.4773 45.3654 16.7754 44.4995 16.7754Z" fill="#38516B"/>
<path d="M10.5957 74.5053L22.8232 73.0278C23.8161 72.9078 24.5238 72.0056 24.4038 71.0127L16.0402 1.79825C15.9203 0.805307 15.018 0.0976229 14.0251 0.217607L1.79763 1.69513C0.804684 1.81511 0.0970073 2.71733 0.216991 3.71027L8.5806 72.9247C8.70058 73.9176 9.60279 74.6253 10.5957 74.5053Z" fill="#38516B"/>
</g>
<defs>
<clipPath id="clip0_324_2888">
<rect width="75.6824" height="75.6824" fill="white"/>
</clipPath>
</defs>
</svg>
