<svg width="644" height="617" viewBox="0 0 644 617" fill="none" xmlns="http://www.w3.org/2000/svg">
<g clip-path="url(#clip0_241_128)">
<path d="M134.971 470.256L238.723 22.2222L589.607 114.021L473.538 530.418L134.971 470.256Z" fill="#1DD6C9"/>
<g filter="url(#filter0_d_241_128)">
<path d="M261.153 7.60571L617.536 92.6829L643.82 147.45L532.202 612.392L138.521 518.406L261.153 7.60571Z" fill="white"/>
</g>
<path d="M617.536 92.6827L643.82 147.45L617.681 256.357C570.612 152.885 473.619 82.44 381.382 36.3076L617.536 92.6827Z" fill="#F2F2F2"/>
<path d="M643.82 147.45L597.605 126.868L617.536 92.6829L643.82 147.45Z" fill="white"/>
<path d="M284.705 105.134L415.752 136.386L380.747 282.341L249.7 251.089L284.705 105.134Z" fill="#1DD6C9"/>
<path d="M303.289 219.953L310.932 219.873L320.301 222.558L321.946 229.713L326.574 224.021L336.168 225.742L342.989 229.199L365.371 248.768L358.84 276.666L331.186 270.218L295.662 261.953L268.007 255.505L274.538 227.623L303.289 219.953Z" fill="#3E3D5E"/>
<path d="M323.847 268.513L300.965 263.191L300.578 222.863L321.492 227.735L321.944 229.713L323.218 228.137L343.648 232.897L323.847 268.513Z" fill="#E8E7F7"/>
<path d="M326.533 246.297L323.682 241.722C322.709 240.16 321.154 239.049 319.359 238.631C317.564 238.213 315.676 238.523 314.11 239.493L309.522 242.337L316.042 252.798L326.533 246.297Z" fill="#3E3D5E"/>
<path d="M305.95 264.349L317.253 247.674L319.979 267.613L305.95 264.349Z" fill="#3E3D5E"/>
<path d="M304.642 226.465C303.465 231.53 310.109 237.431 319.51 239.618C328.911 241.805 337.473 239.457 338.666 234.376C339.86 229.295 333.2 223.41 323.799 221.223C314.398 219.036 305.835 221.384 304.642 226.465Z" fill="#EDB29A"/>
<path d="M338.652 213.859L335.685 226.545C335.306 228.2 334.601 229.763 333.613 231.145C332.625 232.526 331.372 233.699 329.927 234.596C328.482 235.493 326.873 236.096 325.194 236.37C323.514 236.644 321.797 236.584 320.141 236.193C318.483 235.814 316.917 235.113 315.533 234.128C314.149 233.144 312.973 231.896 312.074 230.457C311.175 229.018 310.57 227.416 310.294 225.743C310.018 224.07 310.076 222.359 310.465 220.708L313.4 208.006L338.652 213.859Z" fill="#EDB29A"/>
<path d="M337.411 219.165C326.575 224.889 317.415 226.159 310.304 225.597C310.055 223.965 310.121 222.3 310.498 220.692L313.4 208.006L338.652 213.859L337.411 219.165Z" fill="#D88D87"/>
<path d="M303.948 175.267C299.111 196.171 307.254 215.788 324.588 219.824C341.923 223.86 358.032 209.806 362.902 188.983C367.772 168.16 357.79 156.133 340.456 152.097C323.121 148.061 308.818 154.364 303.948 175.267Z" fill="#EDB29A"/>
<path d="M309.238 162.404C316.139 151.968 327.427 149.122 340.456 152.161C351.953 154.83 360.193 161.021 363.031 170.958C335.747 187.07 318.235 173.66 309.238 162.404Z" fill="#D88D87"/>
<path d="M366.015 187.327C366.015 187.327 369.143 171.746 362.193 163.899L349.083 167.485L360.693 175.075V188.951L366.015 187.327Z" fill="#3E3D5E"/>
<path d="M303.642 172.807C303.642 172.807 307.754 157.451 317.478 153.512L327.637 162.5L313.85 164.108L307.658 176.538L303.642 172.807Z" fill="#3E3D5E"/>
<path d="M340.149 186.523C339.978 187.257 340.029 188.025 340.295 188.73C340.561 189.435 341.031 190.046 341.645 190.485C342.259 190.924 342.99 191.171 343.745 191.196C344.501 191.221 345.246 191.022 345.888 190.625C346.53 190.227 347.039 189.649 347.351 188.963C347.664 188.277 347.765 187.514 347.643 186.77C347.521 186.027 347.18 185.336 346.664 184.786C346.149 184.235 345.481 183.849 344.745 183.677C344.256 183.563 343.749 183.546 343.253 183.627C342.757 183.708 342.282 183.886 341.855 184.15C341.429 184.414 341.058 184.76 340.765 185.167C340.473 185.575 340.263 186.035 340.149 186.523Z" fill="#34344F"/>
<path d="M317.866 181.41C317.695 182.144 317.746 182.912 318.012 183.617C318.278 184.322 318.748 184.932 319.362 185.371C319.976 185.81 320.707 186.058 321.462 186.083C322.217 186.107 322.963 185.909 323.605 185.511C324.247 185.114 324.756 184.535 325.068 183.849C325.381 183.163 325.482 182.4 325.36 181.657C325.237 180.913 324.897 180.223 324.381 179.672C323.865 179.122 323.198 178.736 322.462 178.564C321.973 178.449 321.466 178.432 320.97 178.513C320.474 178.594 319.999 178.772 319.572 179.036C319.145 179.301 318.775 179.646 318.482 180.054C318.19 180.461 317.98 180.922 317.866 181.41Z" fill="#34344F"/>
<path d="M331.572 179.883L332.233 189.997L338.184 190.945C338.184 190.945 336.861 196.589 331.508 196.589L335.136 192.505L329.782 192.103L331.572 179.883Z" fill="#D88D87"/>
<path d="M309.303 181.699C308.884 187.649 305.304 192.328 301.24 192.167C297.177 192.007 294.322 187.054 294.79 181.105C295.258 175.155 298.773 170.476 302.772 170.653C306.771 170.83 309.706 175.75 309.303 181.699Z" fill="#EDB29A"/>
<path d="M305.11 181.329C305.686 181.37 306.241 181.559 306.722 181.876C306.722 181.78 306.722 181.683 306.722 181.587C306.98 177.663 305.11 174.383 302.417 174.287C299.724 174.19 297.402 177.261 297.128 181.185C296.954 182.439 297.103 183.717 297.56 184.898C298.017 186.079 298.767 187.125 299.74 187.938C300.224 184.16 302.53 181.217 305.11 181.329Z" fill="#D88D87"/>
<path d="M356.098 192.585C353.824 198.101 354.953 203.841 358.613 205.449C362.274 207.057 367.095 203.841 369.369 198.406C371.642 192.971 370.514 187.15 366.853 185.542C363.193 183.934 358.371 187.086 356.098 192.585Z" fill="#EDB29A"/>
<path d="M360.017 194.113C359.46 193.867 358.847 193.778 358.243 193.856C358.243 193.856 358.243 193.679 358.356 193.582C359.855 189.948 363.032 187.858 365.451 188.935C367.87 190.013 368.676 193.759 367.063 197.457C366.661 198.646 365.961 199.713 365.03 200.557C364.099 201.401 362.967 201.995 361.742 202.281C363.145 198.808 362.387 195.158 360.017 194.113Z" fill="#D88D87"/>
<path d="M320.639 197.232C326.691 199.907 333.278 201.161 339.893 200.899C338.854 202.992 337.139 204.675 335.024 205.679C332.91 206.682 330.518 206.947 328.234 206.43C326.032 206.148 324.021 205.04 322.61 203.331C321.199 201.622 320.494 199.441 320.639 197.232Z" fill="#34344F"/>
<path d="M337.958 203.568L337.668 202.362L338.684 200.931C332.767 200.981 326.9 199.85 321.43 197.602L322.123 199.87L321.22 200.979C321.793 202.43 322.746 203.702 323.98 204.661C325.214 205.619 326.683 206.23 328.234 206.43C329.964 206.859 331.777 206.82 333.486 206.317C335.196 205.814 336.739 204.865 337.958 203.568Z" fill="#FBF2EB"/>
<path d="M321.751 200.32C323.831 201.685 326.178 202.595 328.637 202.989C333.99 204.13 336.699 203.294 337.764 202.78L337.667 202.362C330.669 204.114 322.122 199.869 322.122 199.869L321.751 200.32Z" fill="#DACEEA"/>
<path d="M350.679 181.523C347.59 179.336 344.015 177.929 340.262 177.422L342.1 173.177C342.1 173.177 348.55 175.509 351.969 179.32L350.679 181.523Z" fill="#3E3D5E"/>
<path d="M318.349 173.981C322.09 173.389 325.919 173.709 329.508 174.914L329.75 170.299C329.75 170.299 322.929 169.543 318.172 171.441L318.349 173.981Z" fill="#3E3D5E"/>
<path d="M311.897 157.355C311.897 157.355 327.507 169.817 347.583 170.862C367.658 171.907 371.851 164.269 371.77 161.954C371.69 159.638 368.545 158.014 365.998 158.931C365.998 158.931 372.964 150.601 368.69 145.054C364.417 139.507 355.565 141.935 351.823 147.739C351.823 147.739 354.855 142.996 351.985 141.131C349.114 139.265 345.212 140.729 343.583 145.456C343.616 145.456 316.413 137.706 311.897 157.355Z" fill="#4C4C72"/>
<path d="M312.656 154.814C333.426 162.372 340.827 152.467 343.439 145.408C340.177 144.585 336.837 144.106 333.474 143.977C330.701 149.058 325.153 154.621 314.688 151.02C313.84 152.186 313.156 153.463 312.656 154.814Z" fill="#60608C"/>
<path d="M300.578 222.863L307.867 218.474L310.882 219.519L319.735 238.026L335.892 225.34L339.053 225.742L343.648 232.897L328.7 251.903L319.203 240.294L305.545 246.5L300.578 222.863Z" fill="#F6F4FF"/>
<path d="M442.872 145.556L594.902 181.812L589.4 204.754L437.37 168.497L442.872 145.556Z" fill="#1DD6C9"/>
<path d="M432.151 187.476L584.182 223.732L582.486 230.801L430.456 194.545L432.151 187.476Z" fill="#236FE0"/>
<path d="M426.794 210.729L578.824 246.985L577.129 254.054L425.098 217.798L426.794 210.729Z" fill="#236FE0"/>
<path d="M421.452 233.982L573.482 270.239L571.787 277.307L419.757 241.051L421.452 233.982Z" fill="#236FE0"/>
<path d="M416.091 257.251L568.121 293.507L566.426 300.576L414.395 264.32L416.091 257.251Z" fill="#236FE0"/>
<path d="M410.733 280.504L562.764 316.76L561.068 323.829L409.038 287.572L410.733 280.504Z" fill="#236FE0"/>
<path d="M237.901 288.741L364.129 318.312L358.63 341.241L232.402 311.687L237.901 288.741Z" fill="#AEAED6"/>
<path d="M227.192 330.693L353.42 360.247L351.743 367.306L225.499 337.752L227.192 330.693Z" fill="#C4C4E8"/>
<path d="M221.84 353.944L348.084 383.498L346.391 390.573L220.147 361.003L221.84 353.944Z" fill="#C4C4E8"/>
<path d="M216.486 377.195L342.73 406.765L341.021 413.824L214.793 384.27L216.486 377.195Z" fill="#C4C4E8"/>
<path d="M211.131 400.462L337.375 430.017L335.682 437.076L209.438 407.521L211.131 400.462Z" fill="#C4C4E8"/>
<path d="M205.777 423.713L332.021 453.268L330.328 460.343L204.084 430.788L205.777 423.713Z" fill="#C4C4E8"/>
<path d="M512.138 343.043L547.84 352.064L538.793 387.665L503.091 378.643L512.138 343.043Z" fill="white"/>
<path d="M538.797 391.683C539.694 391.681 540.565 391.382 541.272 390.831C541.978 390.281 542.481 389.511 542.7 388.644L551.746 353.044C551.991 352.018 551.822 350.939 551.276 350.036C550.73 349.134 549.851 348.482 548.827 348.22L513.142 339.199C512.101 338.94 511 339.102 510.078 339.649C509.624 339.918 509.228 340.274 508.913 340.696C508.597 341.118 508.369 341.599 508.24 342.109L499.194 377.71C498.949 378.735 499.118 379.815 499.664 380.717C500.21 381.619 501.089 382.271 502.113 382.534L537.814 391.554C538.135 391.636 538.466 391.68 538.797 391.683ZM542.942 354.973L535.927 382.775L508.047 375.732L515.11 347.93L542.942 354.973Z" fill="#1DD6C9"/>
<path d="M496.822 354.121C497.812 354.13 498.771 353.776 499.515 353.125C500.26 352.475 500.739 351.574 500.86 350.595C500.982 349.615 500.738 348.625 500.174 347.814C499.611 347.002 498.768 346.426 497.806 346.194L406.924 323.296C406.402 323.136 405.853 323.084 405.31 323.141C404.767 323.199 404.241 323.367 403.765 323.634C403.288 323.9 402.871 324.261 402.539 324.693C402.207 325.125 401.966 325.621 401.832 326.148C401.697 326.676 401.672 327.226 401.756 327.764C401.841 328.302 402.035 328.817 402.326 329.278C402.617 329.74 402.999 330.137 403.448 330.446C403.897 330.756 404.405 330.971 404.941 331.079L495.758 353.992C496.106 354.08 496.463 354.123 496.822 354.121Z" fill="#236FE0"/>
<path d="M493.824 365.891C494.803 365.885 495.746 365.523 496.477 364.875C497.208 364.226 497.677 363.334 497.797 362.366C497.918 361.398 497.681 360.419 497.131 359.612C496.581 358.805 495.755 358.225 494.808 357.98L415.456 337.961C414.419 337.701 413.321 337.862 412.403 338.41C411.485 338.957 410.823 339.845 410.562 340.88C410.301 341.914 410.463 343.009 411.012 343.924C411.561 344.839 412.452 345.5 413.489 345.76L492.825 365.779C493.152 365.855 493.488 365.893 493.824 365.891Z" fill="#236FE0"/>
<path d="M520.171 375.201L531.056 367.162C531.396 366.909 531.682 366.593 531.899 366.23C532.117 365.867 532.26 365.465 532.321 365.047C532.383 364.629 532.361 364.203 532.257 363.793C532.154 363.384 531.97 362.998 531.717 362.659C531.464 362.32 531.146 362.035 530.782 361.818C530.419 361.601 530.016 361.458 529.596 361.397C529.177 361.336 528.75 361.358 528.339 361.461C527.928 361.565 527.542 361.748 527.202 362L522.364 365.65L499.176 323.2C498.964 322.829 498.682 322.504 498.344 322.243C498.006 321.981 497.62 321.788 497.207 321.676C496.795 321.563 496.364 321.532 495.939 321.585C495.515 321.639 495.105 321.775 494.734 321.986C494.362 322.197 494.036 322.479 493.773 322.816C493.511 323.153 493.318 323.538 493.205 323.95C493.092 324.361 493.061 324.79 493.115 325.214C493.168 325.637 493.304 326.045 493.516 326.416L520.171 375.201Z" fill="#FFBDE0"/>
<path d="M495.914 411.653L531.615 420.674L522.568 456.275L486.867 447.253L495.914 411.653Z" fill="white"/>
<path d="M522.559 460.278C523.454 460.278 524.323 459.98 525.029 459.433C525.736 458.886 526.24 458.12 526.461 457.256L535.508 421.655C535.752 420.63 535.583 419.55 535.038 418.648C534.492 417.746 533.612 417.094 532.589 416.831L496.888 407.811C495.852 407.553 494.756 407.714 493.84 408.261C492.924 408.809 492.259 409.691 491.986 410.721L482.94 446.321C482.695 447.346 482.864 448.426 483.41 449.328C483.955 450.231 484.835 450.883 485.858 451.145L521.559 460.166C521.887 460.243 522.223 460.281 522.559 460.278ZM526.703 423.569L519.641 451.386L491.744 444.327L498.839 416.462L526.703 423.569Z" fill="#1DD6C9"/>
<path d="M480.568 422.733C481.558 422.742 482.517 422.387 483.261 421.737C484.006 421.087 484.485 420.186 484.606 419.207C484.728 418.227 484.484 417.237 483.92 416.425C483.357 415.614 482.514 415.037 481.552 414.805L390.799 391.892C389.762 391.63 388.663 391.789 387.744 392.335C386.824 392.881 386.16 393.768 385.897 394.802C385.634 395.837 385.794 396.933 386.341 397.849C386.889 398.766 387.779 399.428 388.816 399.691L479.633 422.604C479.939 422.683 480.253 422.726 480.568 422.733Z" fill="#236FE0"/>
<path d="M477.586 434.503C478.565 434.496 479.507 434.135 480.238 433.486C480.969 432.838 481.439 431.946 481.559 430.978C481.68 430.009 481.443 429.031 480.893 428.224C480.343 427.417 479.517 426.837 478.57 426.592L399.218 406.573C398.696 406.413 398.146 406.36 397.603 406.418C397.06 406.476 396.534 406.643 396.058 406.91C395.582 407.177 395.165 407.537 394.833 407.969C394.5 408.402 394.26 408.897 394.125 409.425C393.991 409.953 393.965 410.502 394.05 411.04C394.135 411.578 394.329 412.094 394.619 412.555C394.91 413.016 395.292 413.413 395.741 413.723C396.191 414.032 396.699 414.247 397.234 414.355L476.586 434.374C476.912 434.465 477.248 434.508 477.586 434.503Z" fill="#236FE0"/>
<path d="M503.933 443.797L514.802 435.757C515.142 435.505 515.428 435.188 515.646 434.825C515.863 434.463 516.006 434.061 516.068 433.642C516.129 433.224 516.107 432.798 516.003 432.389C515.9 431.979 515.716 431.594 515.463 431.255C515.21 430.916 514.892 430.63 514.529 430.413C514.165 430.197 513.762 430.054 513.342 429.993C512.923 429.932 512.496 429.953 512.085 430.057C511.674 430.16 511.288 430.343 510.948 430.596L506.11 434.246L483.003 391.892C482.801 391.52 482.527 391.192 482.198 390.926C481.868 390.66 481.489 390.461 481.083 390.341C480.676 390.22 480.25 390.181 479.828 390.225C479.407 390.269 478.998 390.396 478.625 390.598C478.252 390.799 477.923 391.072 477.656 391.401C477.389 391.729 477.19 392.107 477.069 392.512C476.949 392.918 476.909 393.343 476.954 393.763C476.998 394.184 477.125 394.592 477.327 394.963L503.933 443.797Z" fill="#FFBDE0"/>
<path d="M479.67 480.263L515.371 489.284L506.324 524.885L470.622 515.863L479.67 480.263Z" fill="white"/>
<path d="M506.305 528.89C507.195 528.871 508.053 528.557 508.745 527.998C509.437 527.439 509.923 526.667 510.127 525.803L519.173 490.219C519.418 489.196 519.251 488.118 518.709 487.216C518.166 486.314 517.291 485.66 516.27 485.395L480.569 476.374C479.541 476.121 478.454 476.286 477.547 476.832C476.64 477.377 475.987 478.259 475.731 479.284L466.685 514.869C466.441 515.894 466.609 516.974 467.155 517.876C467.701 518.778 468.58 519.43 469.604 519.693L505.289 528.761C505.619 528.855 505.962 528.898 506.305 528.89ZM510.449 492.18L503.386 519.982L475.506 512.939L482.569 485.137L510.449 492.18Z" fill="#1DD6C9"/>
<path d="M464.332 491.328C465.311 491.321 466.253 490.96 466.984 490.311C467.715 489.663 468.185 488.771 468.305 487.803C468.426 486.835 468.189 485.856 467.639 485.049C467.089 484.242 466.263 483.662 465.316 483.417L374.499 460.504C373.985 460.375 373.451 460.348 372.927 460.425C372.404 460.502 371.9 460.681 371.446 460.952C370.991 461.223 370.595 461.581 370.279 462.004C369.963 462.428 369.734 462.91 369.605 463.422C369.476 463.934 369.449 464.466 369.526 464.989C369.603 465.511 369.783 466.013 370.054 466.466C370.326 466.92 370.685 467.315 371.11 467.63C371.535 467.945 372.018 468.173 372.531 468.302L463.365 491.216C463.682 491.289 464.007 491.327 464.332 491.328Z" fill="#236FE0"/>
<path d="M461.332 503.115C462.322 503.124 463.28 502.769 464.025 502.119C464.77 501.469 465.248 500.568 465.37 499.589C465.491 498.609 465.247 497.619 464.684 496.807C464.121 495.996 463.278 495.419 462.316 495.187L382.98 475.168C381.943 474.906 380.843 475.065 379.924 475.611C379.005 476.157 378.341 477.045 378.078 478.079C377.815 479.113 377.974 480.209 378.522 481.126C379.069 482.042 379.959 482.705 380.996 482.967L460.348 502.986C460.67 503.068 461 503.112 461.332 503.115Z" fill="#236FE0"/>
<path d="M487.68 512.409L498.564 504.369C498.93 504.127 499.241 503.813 499.481 503.447C499.72 503.081 499.882 502.67 499.957 502.239C500.031 501.808 500.017 501.367 499.915 500.942C499.813 500.516 499.625 500.117 499.363 499.766C499.1 499.416 498.769 499.123 498.389 498.905C498.01 498.686 497.589 498.547 497.154 498.497C496.718 498.446 496.277 498.484 495.857 498.609C495.437 498.734 495.047 498.943 494.711 499.223L489.873 502.873L466.766 460.52C466.336 459.811 465.65 459.294 464.848 459.077C464.047 458.861 463.192 458.961 462.463 459.356C461.733 459.752 461.185 460.413 460.932 461.202C460.68 461.991 460.742 462.847 461.106 463.591L487.68 512.409Z" fill="#FFBDE0"/>
<path d="M271.472 5.83687C272.94 3.63491 275.035 1.92016 277.486 0.912261C279.938 -0.0956422 282.636 -0.350822 285.234 0.179405C287.832 0.709631 290.212 2.00112 292.069 3.88848C293.927 5.77583 295.177 8.17312 295.66 10.7733L296.627 16.0796L293.193 15.2595L292.435 11.3843C291.926 8.76284 290.395 6.44971 288.178 4.95249C285.961 3.46107 283.242 2.90627 280.615 3.40955C277.989 3.91282 275.67 5.43317 274.165 7.63778C273.409 8.7291 272.878 9.95872 272.601 11.2558C272.324 12.5529 272.308 13.8917 272.552 15.1952L278.793 47.4669L282.421 66.2318C282.741 67.8751 283.702 69.3245 285.093 70.2621C286.483 71.1996 288.19 71.5487 289.839 71.2326C291.487 70.9134 292.94 69.9554 293.88 68.5686C294.821 67.1819 295.171 65.4798 294.854 63.836L288.291 29.8759L291.516 29.2648L298.079 63.241C298.556 65.7229 298.026 68.2922 296.605 70.3847C295.184 72.4771 292.988 73.9214 290.5 74.4003C289.904 74.5096 289.299 74.5634 288.694 74.5611C286.475 74.5575 284.326 73.786 282.615 72.3783C280.903 70.9707 279.735 69.0141 279.309 66.8429L275.358 46.3253L269.456 15.7741C269.116 14.0671 269.119 12.3098 269.465 10.604C269.811 8.89825 270.494 7.2779 271.472 5.83687Z" fill="#FFBDE0"/>
<g style="mix-blend-mode:multiply" opacity="0.14">
<path d="M430.758 448.749C408.343 464.573 382.191 474.322 354.863 477.042C327.535 479.762 299.967 475.359 274.858 464.265C249.749 453.17 227.959 435.765 211.621 413.751C195.284 391.738 184.958 365.872 181.655 338.685L207.327 231.82C220.263 212.553 237.29 196.36 257.202 184.387C277.115 172.415 299.424 164.956 322.549 162.541C345.675 160.125 369.05 162.811 391.018 170.408C412.986 178.006 433.009 190.328 449.669 206.503C466.328 222.678 479.216 242.309 487.419 264.004C495.621 285.7 498.938 308.929 497.133 332.045C495.328 355.161 488.447 377.598 476.976 397.766C465.506 417.935 449.727 435.34 430.758 448.749Z" fill="#7991A5"/>
</g>
<path d="M189.28 396.788L18.7318 489.32C10.7979 493.624 4.90053 500.901 2.33718 509.55C-0.226148 518.199 0.754448 527.511 5.0633 535.437C9.37215 543.364 16.6563 549.256 25.3132 551.817C33.9702 554.378 43.2909 553.398 51.2249 549.094C52.7258 548.261 54.1668 547.324 55.5372 546.291L210.087 428.992C213.97 426.07 216.601 421.786 217.452 417.004C218.302 412.222 217.308 407.295 214.67 403.215C212.032 399.135 207.946 396.204 203.233 395.011C198.52 393.819 193.53 394.453 189.266 396.787L189.28 396.788Z" fill="#9CAAB5"/>
<path d="M127.096 453.131L25.1973 513.764" stroke="#ECF0F2" stroke-width="10" stroke-miterlimit="10" stroke-linecap="round"/>
<path d="M251.946 419.516L209.181 449.553C206.749 451.252 203.742 451.926 200.814 451.429C197.887 450.933 195.273 449.305 193.54 446.9L168.094 411.107C166.393 408.679 165.719 405.68 166.22 402.76C166.721 399.84 168.357 397.235 170.771 395.51L213.535 365.457C215.97 363.76 218.978 363.088 221.906 363.588C224.834 364.088 227.446 365.718 229.177 368.126L254.622 403.919C256.324 406.347 256.998 409.346 256.496 412.266C255.995 415.186 254.36 417.791 251.946 419.516Z" fill="#FFBDE0"/>
<path d="M289.516 442.189C289.299 443.481 288.815 444.714 288.093 445.808C287.372 446.903 286.429 447.836 285.326 448.547C284.223 449.258 282.984 449.732 281.686 449.938C280.389 450.145 279.063 450.08 277.793 449.747C252.002 442.923 229.428 427.297 214 405.587C198.572 383.878 191.269 357.46 193.361 330.934C193.467 329.63 193.845 328.361 194.47 327.21C195.095 326.059 195.954 325.05 196.992 324.249C198.03 323.447 199.224 322.869 200.497 322.553C201.771 322.237 203.097 322.189 204.391 322.412L306.947 339.842L289.516 442.189Z" fill="#38516B"/>
<path d="M238.206 377.677C237.505 376.696 236.443 376.031 235.252 375.829C234.061 375.627 232.839 375.905 231.852 376.6L218.597 385.958C220.806 389.785 223.209 393.548 225.821 397.214C228.434 400.88 231.272 404.482 234.19 407.875L247.445 398.533C248.43 397.834 249.096 396.775 249.299 395.588C249.501 394.4 249.223 393.181 248.526 392.197L238.206 377.677Z" fill="#706E6E"/>
<path d="M241.798 416.072C184.499 358.935 184.499 266.298 241.798 209.161C299.097 152.024 391.997 152.024 449.296 209.161C506.595 266.298 506.595 358.935 449.296 416.072C391.997 473.209 299.097 473.209 241.798 416.072Z" fill="#CACBCC"/>
<path d="M247.636 410.251C193.561 356.329 193.561 268.904 247.636 214.982C301.711 161.06 389.383 161.06 443.458 214.982C497.533 268.904 497.533 356.329 443.458 410.251C389.383 464.172 301.711 464.172 247.636 410.251Z" fill="#9CAAB5"/>
<path d="M256.881 401.029C207.914 352.2 207.914 273.033 256.881 224.203C305.849 175.374 385.241 175.374 434.209 224.203C483.177 273.033 483.177 352.2 434.209 401.03C385.241 449.859 305.849 449.859 256.881 401.029Z" fill="#E8E7F7"/>
<path d="M263.041 394.889C217.473 349.451 217.473 275.781 263.041 230.343C308.608 184.905 382.487 184.905 428.054 230.343C473.621 275.781 473.621 349.451 428.054 394.889C382.487 440.328 308.608 440.328 263.041 394.889Z" fill="#F6F4FF"/>
<g style="mix-blend-mode:color-dodge" opacity="0.2">
<path d="M399.119 393.693C396.916 406.64 392.677 419.16 386.557 430.789C362.806 438.977 337.135 439.862 312.873 433.328C288.612 426.794 266.878 413.143 250.49 394.144C234.101 375.146 223.815 351.676 220.963 326.778C218.111 301.88 222.826 276.702 234.497 254.508C255.081 247.412 277.164 245.784 298.572 249.783C319.979 253.783 339.974 263.273 356.586 277.318C373.198 291.364 385.857 309.481 393.314 329.886C400.772 350.292 402.773 372.282 399.119 393.693Z" fill="#E0E5E8"/>
</g>
<path d="M191.781 400.655L179.365 409.435" stroke="white" stroke-width="10" stroke-linecap="round" stroke-linejoin="round"/>
<g style="mix-blend-mode:color-dodge" opacity="0.62">
<path d="M285.888 231.82C288.371 241.467 307.383 244.973 328.362 239.602C349.341 234.232 364.305 222.075 361.773 212.412C359.242 202.748 340.279 199.258 319.316 204.629C298.353 210 283.405 222.156 285.888 231.82Z" fill="#E0E5E8"/>
</g>
<mask id="mask0_241_128" style="mask-type:luminance" maskUnits="userSpaceOnUse" x="220" y="187" width="251" height="251">
<path d="M256.881 401.029C207.914 352.2 207.914 273.032 256.881 224.203C305.849 175.374 385.241 175.374 434.209 224.203C483.177 273.032 483.177 352.2 434.209 401.029C385.241 449.858 305.849 449.858 256.881 401.029Z" fill="white"/>
</mask>
<g mask="url(#mask0_241_128)">
<path d="M270.343 127.671L443.844 169.047L397.493 362.309L223.992 320.932L270.343 127.671Z" fill="#1DD6C9"/>
<path d="M294.949 279.672L305.059 279.56L317.476 283.129L319.637 292.584L325.78 285.059L338.487 287.342L347.517 291.909L377.123 317.829L368.48 354.764L331.876 346.226L284.838 335.276L248.218 326.753L256.877 289.835L294.949 279.672Z" fill="#38516B"/>
<path d="M322.169 343.975L291.87 336.916L291.338 283.531L319.041 289.979L319.637 292.584L321.331 290.51L348.389 296.813L322.169 343.975Z" fill="#F2F2F2"/>
<path d="M316.41 305.722C303.974 302.827 295.167 295.033 296.74 288.314C298.314 281.594 309.67 278.494 322.107 281.389C334.543 284.284 343.35 292.078 341.777 298.797C340.204 305.517 328.847 308.617 316.41 305.722Z" fill="#EDB29A"/>
<path d="M341.762 271.616L337.827 288.419C336.795 292.828 334.05 296.648 330.195 299.039C326.339 301.431 321.69 302.197 317.268 301.171C312.846 300.142 309.015 297.404 306.617 293.56C304.22 289.715 303.451 285.079 304.48 280.669L308.415 263.866L341.762 271.616Z" fill="#EDB29A"/>
<path d="M340.117 278.627C325.782 286.217 313.655 287.889 304.238 287.133C303.905 284.994 303.988 282.81 304.48 280.701L308.415 263.898L341.762 271.649L340.117 278.627Z" fill="#D88D87"/>
<path d="M295.821 220.483C289.371 248.044 300.191 274.141 323.234 279.495C346.277 284.85 367.498 266.23 373.948 238.653C380.398 211.077 367.191 195.238 344.229 189.803C321.267 184.369 302.271 192.955 295.821 220.483Z" fill="#EDB29A"/>
<path d="M377.898 236.483C377.898 236.483 382.059 215.853 372.851 205.465L355.484 210.192L370.948 220.29V238.669L377.898 236.483Z" fill="#38516B"/>
<path d="M295.417 217.252C295.417 217.252 300.851 196.911 313.719 191.669L327.184 203.584L308.93 205.819L300.738 222.285L295.417 217.252Z" fill="#38516B"/>
<path d="M343.744 235.502C343.515 236.474 343.58 237.492 343.932 238.428C344.283 239.363 344.905 240.174 345.719 240.756C346.532 241.339 347.501 241.668 348.502 241.702C349.503 241.736 350.492 241.473 351.343 240.946C352.194 240.419 352.87 239.652 353.284 238.743C353.698 237.833 353.832 236.821 353.669 235.836C353.506 234.85 353.054 233.935 352.369 233.205C351.685 232.476 350.799 231.966 349.823 231.739C348.517 231.435 347.143 231.661 346.003 232.366C344.863 233.072 344.051 234.199 343.744 235.502Z" fill="#34344F"/>
<path d="M314.234 228.636C314.005 229.608 314.07 230.627 314.422 231.562C314.773 232.497 315.395 233.308 316.209 233.891C317.023 234.474 317.991 234.803 318.992 234.836C319.994 234.87 320.982 234.607 321.833 234.08C322.685 233.553 323.36 232.787 323.774 231.877C324.188 230.967 324.322 229.956 324.159 228.97C323.997 227.984 323.544 227.069 322.86 226.34C322.175 225.61 321.289 225.1 320.313 224.873C319.007 224.569 317.633 224.795 316.493 225.5C315.353 226.206 314.541 227.334 314.234 228.636Z" fill="#34344F"/>
<path d="M302.898 229.006C302.35 236.885 297.625 243.075 292.32 242.866C287.015 242.657 283.145 236.081 283.677 228.218C284.209 220.355 288.95 214.148 294.255 214.373C299.56 214.598 303.43 221.143 302.898 229.006Z" fill="#EDB29A"/>
<path d="M364.869 243.445C361.853 250.729 363.337 258.383 368.191 260.538C373.044 262.692 379.478 258.512 382.445 251.211C385.412 243.911 383.961 236.273 379.107 234.135C374.254 231.996 367.868 236.145 364.869 243.445Z" fill="#EDB29A"/>
<path d="M357.692 228.78C353.598 225.888 348.861 224.028 343.888 223.362L346.323 217.734C346.323 217.734 354.87 220.837 359.385 225.87L357.692 228.78Z" fill="#38516B"/>
<path d="M314.881 218.811C319.833 218.024 324.902 218.449 329.652 220.049L329.975 213.939C329.975 213.939 320.944 212.926 314.64 215.45L314.881 218.811Z" fill="#38516B"/>
<path d="M306.334 196.798C306.334 196.798 327.006 213.296 353.58 214.678C380.155 216.061 385.734 205.947 385.653 202.876C385.573 199.805 381.461 197.666 378.01 198.872C378.01 198.872 387.234 187.858 381.574 180.509C375.914 173.161 364.207 176.361 359.24 184.063C359.24 184.063 363.272 177.776 359.466 175.316C355.661 172.855 350.484 174.785 348.34 181.04C348.34 181.04 312.316 170.765 306.334 196.798Z" fill="#4C4C72"/>
<path d="M307.351 193.421C334.845 203.439 344.649 190.334 348.1 180.976C343.783 179.878 339.361 179.242 334.909 179.078C331.233 185.8 323.896 193.164 310.028 188.405C308.914 189.949 308.014 191.637 307.351 193.421Z" fill="#60608C"/>
<path d="M291.338 283.531L301.013 277.727L305.012 279.093L316.719 303.599L338.101 286.812L342.293 287.342L348.389 296.813L328.571 321.962L316.009 306.606L297.933 314.822L291.338 283.531Z" fill="white"/>
<path d="M465.537 236.678L666.844 284.685L664.601 294.037L463.294 246.03L465.537 236.678Z" fill="#C4C4E8"/>
<path d="M458.469 267.476L659.775 315.483L657.532 324.835L456.226 276.828L458.469 267.476Z" fill="#236FE0"/>
<path d="M451.367 298.271L652.674 346.278L650.431 355.63L449.125 307.623L451.367 298.271Z" fill="#236FE0"/>
<path d="M444.283 329.053L645.59 377.061L643.347 386.412L442.041 338.405L444.283 329.053Z" fill="#236FE0"/>
<path d="M437.184 359.848L638.49 407.855L636.247 417.207L434.941 369.199L437.184 359.848Z" fill="#236FE0"/>
<path d="M208.374 370.763L375.512 409.901L372.511 421.915L205.373 382.777L208.374 370.763Z" fill="#236FE0"/>
<path d="M194.183 426.286L361.32 465.424L359.079 474.782L191.941 435.644L194.183 426.286Z" fill="#C4C4E8"/>
<path d="M551.178 457.32C552.48 457.321 553.738 456.847 554.714 455.987C555.691 455.128 556.318 453.942 556.479 452.653C556.639 451.365 556.322 450.062 555.586 448.99C554.85 447.919 553.747 447.153 552.484 446.836L432.255 416.461C431.575 416.289 430.868 416.252 430.174 416.353C429.48 416.453 428.812 416.689 428.21 417.046C427.607 417.404 427.081 417.877 426.661 418.437C426.242 418.997 425.937 419.635 425.764 420.312C425.592 420.99 425.555 421.695 425.655 422.387C425.756 423.08 425.992 423.745 426.351 424.346C426.71 424.947 427.183 425.472 427.745 425.89C428.307 426.308 428.946 426.612 429.626 426.784L549.856 457.159C550.288 457.267 550.732 457.321 551.178 457.32Z" fill="#C4C4E8"/>
<path d="M547.213 472.917C548.515 472.918 549.773 472.444 550.75 471.585C551.726 470.725 552.353 469.539 552.514 468.251C552.675 466.962 552.357 465.659 551.621 464.588C550.886 463.516 549.782 462.75 548.519 462.433L443.464 435.918C442.091 435.57 440.636 435.781 439.418 436.503C438.201 437.225 437.322 438.4 436.973 439.769C436.625 441.138 436.836 442.589 437.56 443.802C438.284 445.016 439.462 445.893 440.835 446.241L545.907 472.74C546.333 472.854 546.772 472.913 547.213 472.917Z" fill="#C4C4E8"/>
<path fill-rule="evenodd" clip-rule="evenodd" d="M317.03 252.8C321.564 253.606 326.077 254.444 330.569 255.314C335.08 256.181 339.58 257.045 344.085 257.996C342.701 264.842 335.204 265.973 328.7 264.724C322.147 263.444 315.646 259.646 317.03 252.8Z" fill="white"/>
<path fill-rule="evenodd" clip-rule="evenodd" d="M317.705 257.869C317.563 257.841 317.438 257.761 317.357 257.644C317.276 257.528 317.246 257.385 317.274 257.248C317.302 257.11 317.385 256.99 317.505 256.912C317.625 256.834 317.773 256.806 317.915 256.833L341.691 261.399C341.833 261.426 341.959 261.507 342.039 261.624C342.12 261.74 342.15 261.883 342.122 262.02C342.095 262.157 342.011 262.278 341.891 262.356C341.771 262.434 341.624 262.462 341.482 262.435L317.705 257.869Z" fill="#AFB0B0"/>
<path fill-rule="evenodd" clip-rule="evenodd" d="M327.063 250.258C326.851 250.246 326.652 250.149 326.511 249.991C326.37 249.832 326.298 249.623 326.31 249.411C326.323 249.199 326.419 249.001 326.578 248.86C326.737 248.719 326.946 248.647 327.158 248.659C329.139 248.826 331.131 248.837 333.114 248.692C334.584 248.539 335.664 248.202 335.703 247.546C335.839 245.26 334.362 230.938 334.365 230.89C334.355 230.787 334.366 230.684 334.396 230.585C334.426 230.486 334.476 230.394 334.542 230.315C334.608 230.235 334.689 230.17 334.78 230.121C334.871 230.073 334.971 230.043 335.074 230.034C335.284 230.014 335.493 230.077 335.657 230.21C335.82 230.343 335.924 230.534 335.947 230.744C335.947 230.744 337.428 245.274 337.287 247.64C337.192 249.239 335.539 250.024 333.292 250.275C331.219 250.431 329.136 250.426 327.063 250.258Z" fill="#D88D87"/>
<path fill-rule="evenodd" clip-rule="evenodd" d="M381.145 244.869C381.181 245.078 381.133 245.294 381.011 245.467C380.889 245.641 380.703 245.76 380.494 245.796C380.284 245.833 380.069 245.785 379.895 245.663C379.721 245.541 379.603 245.355 379.566 245.146C379.446 243.463 378.777 241.866 377.662 240.6C377.451 240.408 377.2 240.265 376.926 240.183C376.653 240.102 376.364 240.083 376.082 240.129C375.328 240.284 374.631 240.642 374.067 241.165C371.947 243.097 370.462 245.625 369.805 248.416C369.489 249.688 369.253 250.978 369.1 252.28C370.025 251.326 371.255 250.726 372.577 250.581C373.194 250.541 373.81 250.651 374.375 250.901C374.941 251.179 375.399 251.636 375.677 252.202C375.954 252.916 376.069 253.683 376.011 254.447C375.954 255.212 375.726 255.953 375.345 256.618C375.259 256.811 375.101 256.963 374.904 257.04C374.707 257.117 374.488 257.114 374.294 257.03C374.198 256.988 374.111 256.927 374.039 256.851C373.967 256.775 373.911 256.685 373.874 256.587C373.837 256.489 373.82 256.384 373.824 256.28C373.828 256.175 373.853 256.072 373.898 255.977C374.173 255.52 374.348 255.01 374.409 254.48C374.471 253.95 374.418 253.414 374.254 252.906C374.137 252.651 373.934 252.445 373.68 252.324C373.37 252.188 373.03 252.136 372.693 252.171C372.062 252.255 371.457 252.477 370.921 252.821C370.385 253.165 369.932 253.623 369.592 254.162C369.426 254.436 369.181 254.655 368.889 254.789C368.773 254.855 368.643 254.893 368.51 254.9C368.376 254.908 368.243 254.884 368.121 254.832C367.998 254.779 367.889 254.699 367.803 254.597C367.716 254.496 367.654 254.376 367.622 254.246C367.514 253.953 367.46 253.644 367.461 253.331C367.551 251.567 367.828 249.818 368.287 248.113C369.031 244.988 370.702 242.162 373.082 240.004C373.871 239.304 374.832 238.827 375.867 238.622C376.378 238.539 376.9 238.572 377.397 238.719C377.893 238.866 378.35 239.122 378.733 239.469C380.119 240.949 380.969 242.85 381.145 244.869Z" fill="#D88D87"/>
<path fill-rule="evenodd" clip-rule="evenodd" d="M290.305 222.409C290.142 222.547 289.932 222.614 289.721 222.597C289.509 222.579 289.312 222.479 289.175 222.317C289.037 222.155 288.97 221.945 288.987 221.733C289.005 221.521 289.106 221.325 289.268 221.188C290.702 219.744 292.58 218.826 294.6 218.58C295.114 218.567 295.623 218.67 296.092 218.879C296.561 219.089 296.977 219.4 297.31 219.791C297.974 220.61 298.407 221.591 298.566 222.633C299.013 225.801 298.493 229.03 297.076 231.899C296.328 233.503 295.414 235.024 294.348 236.436C294.144 236.672 293.905 236.874 293.639 237.037C293.533 237.118 293.41 237.172 293.28 237.196C293.149 237.22 293.015 237.214 292.888 237.177C292.76 237.14 292.643 237.074 292.546 236.983C292.449 236.893 292.374 236.781 292.328 236.657C292.183 236.365 292.131 236.035 292.178 235.713C292.258 235.086 292.198 234.449 292.004 233.848C291.81 233.247 291.486 232.696 291.054 232.234C290.82 231.989 290.525 231.811 290.198 231.72C289.923 231.654 289.634 231.678 289.374 231.789C288.928 232.081 288.548 232.464 288.258 232.912C287.969 233.359 287.776 233.863 287.693 234.389C287.632 234.59 287.496 234.759 287.314 234.863C287.132 234.966 286.918 234.996 286.714 234.946C286.512 234.886 286.341 234.748 286.239 234.563C286.137 234.378 286.112 234.161 286.17 233.957C286.305 233.203 286.605 232.488 287.047 231.863C287.49 231.237 288.065 230.717 288.731 230.338C289.312 230.085 289.96 230.031 290.575 230.183C291.172 230.346 291.721 230.652 292.173 231.075C293.095 232.026 293.653 233.271 293.749 234.592C294.468 233.498 295.117 232.359 295.69 231.182C296.966 228.615 297.441 225.725 297.055 222.884C296.929 222.134 296.602 221.431 296.108 220.852C295.92 220.637 295.687 220.466 295.424 220.354C295.161 220.242 294.877 220.191 294.592 220.204C292.964 220.463 291.461 221.235 290.305 222.409Z" fill="#D88D87"/>
</g>
</g>
<defs>
<filter id="filter0_d_241_128" x="110.521" y="-16.3943" width="561.299" height="660.786" filterUnits="userSpaceOnUse" color-interpolation-filters="sRGB">
<feFlood flood-opacity="0" result="BackgroundImageFix"/>
<feColorMatrix in="SourceAlpha" type="matrix" values="0 0 0 0 0 0 0 0 0 0 0 0 0 0 0 0 0 0 127 0" result="hardAlpha"/>
<feOffset dy="4"/>
<feGaussianBlur stdDeviation="14"/>
<feComposite in2="hardAlpha" operator="out"/>
<feColorMatrix type="matrix" values="0 0 0 0 0 0 0 0 0 0 0 0 0 0 0 0 0 0 0.04 0"/>
<feBlend mode="normal" in2="BackgroundImageFix" result="effect1_dropShadow_241_128"/>
<feBlend mode="normal" in="SourceGraphic" in2="effect1_dropShadow_241_128" result="shape"/>
</filter>
<clipPath id="clip0_241_128">
<rect width="644" height="617" fill="white" transform="matrix(-1 0 0 1 644 0)"/>
</clipPath>
</defs>
</svg>
