<svg width="221" height="220" viewBox="0 0 221 220" fill="none" xmlns="http://www.w3.org/2000/svg">
<g filter="url(#filter0_d_248_3995)">
<path d="M170.502 106.001C170.502 139.139 143.641 166 110.502 166C77.3641 166 50.498 139.139 50.498 106.001C50.498 72.8623 77.3641 46 110.502 46C143.641 46 170.502 72.8623 170.502 106.001Z" fill="#236FE0"/>
<path d="M90.2969 117.136C90.2969 117.136 106.125 109.855 122.605 117.136L121.662 118.623C121.19 119.368 120.536 119.982 119.763 120.407C118.99 120.833 118.122 121.056 117.24 121.056H107.303C107.303 121.056 102.283 122.887 108.194 122.887H124.303C124.303 122.887 136.337 114.288 142.355 118.39L123.391 132.048L90.2969 134.795V117.136Z" fill="#FFBDE0"/>
<path d="M146.937 108.284H75.6074V111.424H146.937V108.284Z" fill="#38516B"/>
<path d="M114.649 72.7064C114.649 73.3447 114.46 73.9687 114.105 74.4995C113.751 75.0303 113.246 75.444 112.657 75.6884C112.067 75.9327 111.418 75.9967 110.792 75.8723C110.166 75.7478 109.591 75.4405 109.139 74.9892C108.688 74.5379 108.38 73.9629 108.256 73.3368C108.131 72.7108 108.195 72.0618 108.439 71.472C108.683 70.8821 109.096 70.3779 109.627 70.0231C110.158 69.6683 110.782 69.4788 111.42 69.4785C112.276 69.4785 113.097 69.8186 113.703 70.4239C114.308 71.0292 114.649 71.8502 114.649 72.7064Z" fill="#38516B"/>
<path d="M111.27 75.8457C76.4759 75.8457 81.7074 108.284 81.7074 108.284H141.184C141.184 108.284 146.062 75.8457 111.27 75.8457Z" fill="#F2F2F2"/>
<path d="M90.4294 104.535H84.6738C84.6738 79.8138 104.425 77.4595 111.425 77.4595C92.7837 77.4595 90.4294 104.535 90.4294 104.535Z" fill="white"/>
<path d="M74.0645 142.521V116.09H90.8058V138.634L74.0645 142.521Z" fill="white"/>
<path d="M141.181 108.284C141.181 108.284 146.064 75.8457 111.271 75.8457V108.284H141.181Z" fill="white"/>
</g>
<defs>
<filter id="filter0_d_248_3995" x="0.498047" y="0" width="220.004" height="220" filterUnits="userSpaceOnUse" color-interpolation-filters="sRGB">
<feFlood flood-opacity="0" result="BackgroundImageFix"/>
<feColorMatrix in="SourceAlpha" type="matrix" values="0 0 0 0 0 0 0 0 0 0 0 0 0 0 0 0 0 0 127 0" result="hardAlpha"/>
<feOffset dy="4"/>
<feGaussianBlur stdDeviation="25"/>
<feComposite in2="hardAlpha" operator="out"/>
<feColorMatrix type="matrix" values="0 0 0 0 0.219608 0 0 0 0 0.317647 0 0 0 0 0.419608 0 0 0 0.15 0"/>
<feBlend mode="normal" in2="BackgroundImageFix" result="effect1_dropShadow_248_3995"/>
<feBlend mode="normal" in="SourceGraphic" in2="effect1_dropShadow_248_3995" result="shape"/>
</filter>
</defs>
</svg>
