<svg width="120" height="120" viewBox="0 0 120 120" fill="none" xmlns="http://www.w3.org/2000/svg">
<g clip-path="url(#clip0_302_903)">
<path d="M60 120C93.1371 120 120 93.1371 120 60C120 26.8629 93.1371 0 60 0C26.8629 0 0 26.8629 0 60C0 93.1371 26.8629 120 60 120Z" fill="#236FE0"/>
<path d="M98.0535 81.9451C98.0722 82.5744 97.9658 83.2012 97.7407 83.7892C97.5155 84.3772 97.176 84.9147 96.7418 85.3706C96.3076 85.8265 95.7872 86.1918 95.2109 86.4454C94.6346 86.699 94.0138 86.8357 93.3843 86.8478H29.5648C28.9246 86.8466 28.291 86.7193 27.7 86.4732C27.1091 86.227 26.5724 85.8669 26.1206 85.4134C25.6688 84.9599 25.3108 84.4218 25.0669 83.8299C24.8231 83.238 24.6982 82.6039 24.6994 81.9637L19.4512 34.7762C19.4486 33.4889 19.9544 32.2527 20.8585 31.3363C21.7626 30.4199 22.992 29.8976 24.2792 29.8828H93.3843C94.0138 29.8949 94.6346 30.0317 95.2109 30.2852C95.7872 30.5388 96.3076 30.9041 96.7418 31.36C97.176 31.8159 97.5155 32.3534 97.7407 32.9414C97.9658 33.5294 98.0722 34.1562 98.0535 34.7855V81.9451Z" fill="white"/>
<path d="M58.8328 86.8478H29.6592C26.9791 86.8478 19.611 84.4198 19.611 81.7303V35.0377C19.5778 33.7214 20.0618 32.4444 20.9591 31.4808C21.8564 30.5171 23.0956 29.9435 24.411 29.8828H58.8328" fill="white"/>
<path d="M88.3806 34.5527H29.2864C27.0378 34.5527 25.2148 36.3757 25.2148 38.6243V77.1737C25.2148 79.4224 27.0378 81.2453 29.2864 81.2453H88.3806C90.6293 81.2453 92.4522 79.4224 92.4522 77.1737V38.6243C92.4522 36.3757 90.6293 34.5527 88.3806 34.5527Z" fill="#1DD6C9"/>
<path d="M102.593 78.4434C102.593 84.9803 99.6886 86.848 96.0559 86.848H21.5625C17.9765 86.848 15.0723 84.9803 15.0723 78.4434H102.593Z" fill="white"/>
<path d="M58.8326 86.848H21.5625C17.9765 86.848 15.0723 84.9803 15.0723 78.4434H58.8326" fill="#F7F7F7"/>
<circle cx="60" cy="56" r="14" fill="white"/>
<path d="M57.2788 49C57.0586 49.0013 56.8423 49.0596 56.6502 49.1694C56.4536 49.2834 56.2899 49.4483 56.1757 49.6474C56.0615 49.8466 56.0009 50.0729 56 50.3035V61.7038C56 61.9336 56.0602 62.1593 56.1746 62.3574C56.2889 62.5555 56.4531 62.7189 56.6502 62.8305C56.8409 62.9439 57.0581 63.0024 57.2788 62.9999C57.507 62.9998 57.7311 62.9389 57.929 62.8232L62.6613 59.9657L67.3936 57.1304C67.5789 57.0145 67.7319 56.8521 67.8381 56.6587C67.9443 56.4653 68 56.2474 68 56.0257C68 55.8041 67.9443 55.5862 67.8381 55.3928C67.7319 55.1994 67.5789 55.037 67.3936 54.9211L62.6685 52.0636L57.9435 49.1841C57.7461 49.0661 57.522 49.0027 57.2932 49H57.2788Z" fill="#236FE0"/>
</g>
<defs>
<clipPath id="clip0_302_903">
<rect width="120" height="120" fill="white"/>
</clipPath>
</defs>
</svg>
