<svg width="121" height="120" viewBox="0 0 121 120" fill="none" xmlns="http://www.w3.org/2000/svg">
<g clip-path="url(#clip0_308_2324)">
<path d="M60.5 120C93.6371 120 120.5 93.1371 120.5 60C120.5 26.8629 93.6371 0 60.5 0C27.3629 0 0.5 26.8629 0.5 60C0.5 93.1371 27.3629 120 60.5 120Z" fill="#236FE0"/>
<g clip-path="url(#clip1_308_2324)">
<path d="M79.2593 54.3499H75.022C74.4426 54.3404 73.8761 54.1774 73.3803 53.8775C72.8844 53.5776 72.477 53.1516 72.1996 52.6428C72.1863 52.622 72.1731 52.5973 72.1617 52.5745C71.859 52.0789 71.6935 51.5118 71.6822 50.9312C71.6709 50.3506 71.8141 49.7774 72.0972 49.2704L74.2178 45.6002C74.4475 45.2006 74.5094 44.7262 74.3899 44.2811C74.2704 43.8359 73.9793 43.4563 73.5805 43.2254L67.5563 39.7562C67.1571 39.5259 66.6828 39.4634 66.2375 39.5825C65.7922 39.7017 65.4125 39.9927 65.1816 40.3917L63.0686 44.0524C62.7531 44.543 62.3194 44.9465 61.8074 45.226C61.2954 45.5054 60.7214 45.6518 60.1381 45.6518C59.5548 45.6518 58.9808 45.5054 58.4688 45.226C57.9568 44.9465 57.5232 44.543 57.2076 44.0524L55.0946 40.3917C54.8638 39.9927 54.484 39.7017 54.0388 39.5825C53.5935 39.4634 53.1191 39.5259 52.7199 39.7562L46.6996 43.2311C46.3006 43.462 46.0096 43.8417 45.8905 44.287C45.7713 44.7323 45.8338 45.2066 46.0642 45.6058L48.1829 49.2761C48.4658 49.7834 48.6091 50.3567 48.5981 50.9376C48.5871 51.5184 48.4222 52.0859 48.1203 52.5821L48.0804 52.6485C47.8023 53.1558 47.3948 53.5804 46.8994 53.8793C46.4041 54.1781 45.8384 54.3405 45.2599 54.3499H41.0226C40.5618 54.3499 40.1199 54.533 39.794 54.8588C39.4682 55.1846 39.2852 55.6265 39.2852 56.0873V63.0409C39.2852 63.5016 39.4682 63.9436 39.794 64.2694C40.1199 64.5952 40.5618 64.7783 41.0226 64.7783H45.2618C45.8394 64.7864 46.4046 64.9472 46.9 65.2443C47.3953 65.5415 47.8033 65.9644 48.0823 66.4702C48.0956 66.493 48.1089 66.5157 48.1241 66.5385C48.426 67.0344 48.591 67.6016 48.602 68.1821C48.613 68.7626 48.4696 69.3356 48.1866 69.8426L46.0661 73.5072C45.8359 73.9066 45.7737 74.3812 45.8932 74.8265C46.0127 75.2717 46.3041 75.6514 46.7034 75.8819L52.7237 79.3587C53.1229 79.589 53.5973 79.6515 54.0425 79.5324C54.4878 79.4132 54.8676 79.1222 55.0984 78.7233L57.2133 75.0587C57.5142 74.5594 57.9419 74.1486 58.4529 73.8681C58.964 73.5876 59.5402 73.4473 60.1229 73.4616C61.3558 73.4616 62.4749 74.0307 63.0724 75.0587L65.1873 78.7233C65.4184 79.1203 65.7973 79.4099 66.2412 79.5286C66.685 79.6472 67.1579 79.5855 67.5563 79.3568L73.5767 75.88C73.9764 75.6504 74.2686 75.2716 74.3892 74.8267C74.5098 74.3817 74.4488 73.9072 74.2197 73.5072L72.1086 69.835C71.8252 69.3282 71.6816 68.7551 71.6926 68.1745C71.7036 67.5939 71.8688 67.0267 72.1712 66.5309L72.211 66.4607C72.4906 65.9551 72.899 65.5325 73.3946 65.2357C73.8903 64.9389 74.4557 64.7785 75.0334 64.7707H79.2707C79.4991 64.7707 79.7251 64.7257 79.9361 64.6383C80.147 64.5508 80.3386 64.4227 80.4999 64.2611C80.6613 64.0996 80.7892 63.9078 80.8764 63.6968C80.9637 63.4858 81.0084 63.2597 81.0082 63.0314V56.0797C81.0047 55.6188 80.8187 55.1779 80.4909 54.8537C80.1632 54.5295 79.7203 54.3484 79.2593 54.3499ZM60.1419 66.5081C58.7671 66.5078 57.4233 66.0997 56.2803 65.3356C55.1374 64.5716 54.2467 63.4857 53.7208 62.2155C53.1949 60.9452 53.0576 59.5475 53.326 58.1991C53.5944 56.8508 54.2567 55.6123 55.2289 54.6403C56.2012 53.6683 57.4399 53.0064 58.7883 52.7383C60.1367 52.4702 61.5344 52.608 62.8045 53.1342C64.0747 53.6604 65.1602 54.5514 65.924 55.6946C66.6878 56.8377 67.0954 58.1817 67.0954 59.5565C67.0954 60.4696 66.9156 61.3737 66.5661 62.2172C66.2166 63.0607 65.7044 63.8272 65.0587 64.4727C64.413 65.1183 63.6464 65.6303 62.8028 65.9795C61.9591 66.3287 61.055 66.5084 60.1419 66.5081Z" fill="#1DD6C9"/>
<path d="M90.235 28.2555C91.5044 25.875 91.8002 23.0948 91.0601 20.5005C90.32 17.9062 88.6018 15.7005 86.2675 14.3481C83.9333 12.9957 81.1651 12.6021 78.5464 13.2504C75.9277 13.8987 73.6628 15.5381 72.229 17.8233C68.3031 16.6779 64.2344 16.0961 60.1448 16.0954C39.7717 16.103 22.6421 30.1997 17.9647 49.1502C15.2858 49.2702 12.7564 50.4188 10.9032 52.3569C9.04992 54.2951 8.01562 56.8733 8.01562 59.5549C8.01563 62.2365 9.04992 64.8147 10.9032 66.7528C12.7564 68.6909 15.2858 69.8396 17.9647 69.9595C22.6402 88.9101 39.7774 103.007 60.1448 103.007C64.2344 103.006 68.3031 102.424 72.229 101.279C73.6628 103.564 75.9277 105.203 78.5464 105.852C81.1651 106.5 83.9333 106.106 86.2675 104.754C88.6018 103.402 90.32 101.196 91.0601 98.6016C91.8002 96.0074 91.5044 93.2271 90.235 90.8466C94.4581 86.8012 97.8187 81.9429 100.115 76.5644C102.41 71.1858 103.594 65.3982 103.594 59.5501C103.594 53.7021 102.41 47.9145 100.115 42.5359C97.8187 37.1573 94.4581 32.2991 90.235 28.2536V28.2555ZM88.1163 88.0812C86.4863 86.555 84.4088 85.5933 82.1905 85.3379C79.9722 85.0824 77.7306 85.5468 75.7963 86.6625C73.8621 87.7782 72.3377 89.4861 71.4481 91.5342C70.5586 93.5823 70.3509 95.8621 70.8558 98.0373C67.3743 99.0223 63.7743 99.5258 60.1562 99.5338C41.5585 99.5338 25.895 86.7648 21.449 69.5385C23.5905 68.8886 25.4662 67.5674 26.7992 65.7698C28.1322 63.9723 28.8518 61.7937 28.8518 59.5558C28.8518 57.3179 28.1322 55.1394 26.7992 53.3418C25.4662 51.5443 23.5905 50.223 21.449 49.5732C25.8855 32.3468 41.549 19.5778 60.1467 19.5778C63.7648 19.5857 67.3648 20.0893 70.8463 21.0744C70.3364 23.2518 70.5411 25.5355 71.4302 27.5875C72.3192 29.6395 73.8454 31.3507 75.7827 32.4678C77.72 33.5849 79.9656 34.0485 82.1869 33.7899C84.4082 33.5314 86.4873 32.5645 88.1163 31.0324C91.9174 34.747 94.9378 39.1839 96.9999 44.0823C99.062 48.9808 100.124 54.242 100.124 59.5568C100.124 64.8716 99.062 70.1328 96.9999 75.0312C94.9378 79.9297 91.9174 84.3666 88.1163 88.0812Z" fill="#FFBDE0"/>
</g>
</g>
<defs>
<clipPath id="clip0_308_2324">
<rect width="120" height="120" fill="white" transform="translate(0.5)"/>
</clipPath>
<clipPath id="clip1_308_2324">
<rect width="95.5966" height="93.11" fill="white" transform="translate(8 13)"/>
</clipPath>
</defs>
</svg>
