<svg width="28" height="28" viewBox="0 0 28 28" fill="none" xmlns="http://www.w3.org/2000/svg">
<circle cx="14" cy="14" r="13.1515" stroke="#ffffff" stroke-width="1.69697"/>
<path d="M14.8485 7.63647C14.8485 7.16787 14.4686 6.78799 14 6.78799C13.5314 6.78799 13.1515 7.16787 13.1515 7.63647H14.8485ZM13.4 20.7516C13.7314 21.0829 14.2686 21.0829 14.6 20.7516L19.9997 15.3519C20.331 15.0205 20.331 14.4833 19.9997 14.1519C19.6683 13.8206 19.1311 13.8206 18.7998 14.1519L14 18.9517L9.20024 14.1519C8.86889 13.8206 8.33166 13.8206 8.00031 14.1519C7.66895 14.4833 7.66895 15.0205 8.00031 15.3519L13.4 20.7516ZM13.1515 7.63647V20.1516H14.8485V7.63647H13.1515Z" fill="#ffffff"/>
</svg>
