<svg width="76" height="76" viewBox="0 0 76 76" fill="none" xmlns="http://www.w3.org/2000/svg">
<g id="LOGO W" clip-path="url(#clip0_721_2391)">
<path id="Vector" d="M75.4394 3.60398L69.3758 53.3381C69.3489 53.5787 69.2618 53.8086 69.1226 54.0067C68.9834 54.2048 68.7966 54.3646 68.5793 54.4714C68.3621 54.5783 68.1214 54.6287 67.8796 54.618C67.6377 54.6073 67.4025 54.5359 67.1955 54.4103C65.4598 53.346 63.5149 52.6686 61.4935 52.4245C59.4721 52.1804 57.4219 52.3752 55.4827 52.9957C55.2523 53.067 55.0078 53.0793 54.7714 53.0316C54.535 52.9838 54.3144 52.8775 54.1297 52.7224C53.9451 52.5674 53.8022 52.3684 53.7144 52.1439C53.6265 51.9193 53.5963 51.6763 53.6267 51.437L59.6543 1.70291C59.6805 1.45945 59.756 1.22389 59.8763 1.0106C59.9966 0.797309 60.159 0.610772 60.3538 0.462374C60.5486 0.313976 60.7716 0.206832 61.0091 0.147482C61.2467 0.0881319 61.4938 0.077822 61.7355 0.117182L73.8808 1.58578C74.1157 1.6158 74.3424 1.69184 74.5479 1.80955C74.7534 1.92726 74.9337 2.08432 75.0785 2.27176C75.2232 2.4592 75.3296 2.67334 75.3916 2.90194C75.4535 3.13053 75.4698 3.36909 75.4394 3.60398Z" fill="#38516B"/>
<path id="Vector_2" d="M68.1191 67.4473C67.8646 69.5429 66.7881 71.4516 65.1263 72.7535C63.4645 74.0554 61.3536 74.6438 59.2579 74.3893C57.1623 74.1349 55.2536 73.0583 53.9517 71.3965C52.6498 69.7347 52.0614 67.6238 52.3159 65.5282C52.3463 65.2587 52.3914 64.991 52.451 64.7263C52.8955 62.8126 54.0316 61.1307 55.641 60.0038C57.2504 58.877 59.2195 58.3847 61.1698 58.6216C63.1201 58.8586 64.914 59.808 66.2068 61.2874C67.4995 62.7669 68.1999 64.6719 68.1732 66.6364C68.1732 66.9067 68.1461 67.168 68.1191 67.4473Z" fill="#800639"/>
<path id="Vector_3" d="M44.4995 16.7764H31.6966C30.8308 16.7764 30.1289 17.4783 30.1289 18.3441L30.1289 70.3397C30.1289 71.2055 30.8308 71.9074 31.6966 71.9074H44.4995C45.3654 71.9074 46.0673 71.2055 46.0673 70.3397V18.3441C46.0673 17.4783 45.3654 16.7764 44.4995 16.7764Z" fill="#38516B"/>
<path id="Vector_4" d="M10.3809 74.3002L22.6084 72.8227C23.6013 72.7027 24.309 71.8005 24.189 70.8076L15.8254 1.59317C15.7054 0.600229 14.8032 -0.107455 13.8102 0.0125289L1.58279 1.49005C0.589841 1.61003 -0.117836 2.51225 0.0021473 3.5052L8.36575 72.7196C8.48574 73.7125 9.38795 74.4202 10.3809 74.3002Z" fill="#38516B"/>
</g>
<defs>
<clipPath id="clip0_721_2391">
<rect width="75.6824" height="75.6824" fill="white"/>
</clipPath>
</defs>
</svg>
