<svg width="120" height="120" viewBox="0 0 120 120" fill="none" xmlns="http://www.w3.org/2000/svg">
<g clip-path="url(#clip0_999_3822)">
<path d="M60 120C93.1371 120 120 93.1371 120 60C120 26.8629 93.1371 0 60 0C26.8629 0 0 26.8629 0 60C0 93.1371 26.8629 120 60 120Z" fill="#69D186"/>
<g clip-path="url(#clip1_999_3822)">
<path d="M59.5 93C77.4493 93 92 78.4493 92 60.5C92 42.5507 77.4493 28 59.5 28C41.5507 28 27 42.5507 27 60.5C27 78.4493 41.5507 93 59.5 93Z" fill="#38516B"/>
<path d="M59.5 88.0825C74.7334 88.0825 87.0825 75.7334 87.0825 60.5C87.0825 45.2666 74.7334 32.9175 59.5 32.9175C44.2666 32.9175 31.9175 45.2666 31.9175 60.5C31.9175 75.7334 44.2666 88.0825 59.5 88.0825Z" fill="#69D186"/>
<path fill-rule="evenodd" clip-rule="evenodd" d="M49.0945 48.4379C49.5192 48.2638 49.8594 47.9311 50.043 47.5105C50.2267 47.0898 50.2393 46.6142 50.0783 46.1843C49.9173 45.7545 49.5952 45.4043 49.1804 45.2078C48.7655 45.0114 48.2905 44.9842 47.8559 45.132L45.4377 46.0385C44.4282 46.4171 43.5582 47.0946 42.9439 47.9807C42.3297 48.8668 42.0004 49.9192 42 50.9973V56.7921C41.9995 59.5647 43.0288 62.2387 44.8883 64.2953C46.7478 66.3519 49.305 67.6445 52.0637 67.9224C52.3517 70.7769 53.7257 73.4115 55.9015 75.2816C58.0773 77.1516 60.8885 78.114 63.7539 77.9698C66.6193 77.8255 69.3196 76.5857 71.2966 74.5066C73.2737 72.4275 74.3761 69.6682 74.376 66.7992V65.9421C75.7183 65.5202 76.8651 64.6316 77.6089 63.4372C78.3527 62.2429 78.6443 60.8217 78.4308 59.4309C78.2174 58.0402 77.5131 56.7718 76.4453 55.8555C75.3776 54.9391 74.0171 54.4353 72.6101 54.4353C71.203 54.4353 69.8425 54.9391 68.7748 55.8555C67.7071 56.7718 67.0028 58.0402 66.7893 59.4309C66.5759 60.8217 66.8674 62.2429 67.6112 63.4372C68.355 64.6316 69.5018 65.5202 70.8441 65.9421V66.7992C70.8465 68.7508 70.1032 70.6296 68.7663 72.0513C67.4293 73.473 65.5996 74.3301 63.6515 74.4474C61.7035 74.5647 59.7842 73.9333 58.2863 72.6823C56.7883 71.4313 55.825 69.6553 55.5932 67.7175C58.0818 67.1687 60.3084 65.7864 61.9043 63.7996C63.5002 61.8127 64.3697 59.3405 64.3689 56.7921V50.9997C64.369 49.9211 64.0399 48.8682 63.4256 47.9817C62.8113 47.0951 61.9411 46.4172 60.9312 46.0385L58.513 45.132C58.2942 45.0423 58.0596 44.9974 57.8232 45.0001C57.5867 45.0028 57.3532 45.0529 57.1365 45.1475C56.9198 45.2421 56.7243 45.3793 56.5616 45.5509C56.3989 45.7225 56.2723 45.925 56.1894 46.1464C56.1064 46.3678 56.0688 46.6037 56.0787 46.8399C56.0886 47.0762 56.1458 47.308 56.247 47.5217C56.3482 47.7355 56.4913 47.9267 56.6678 48.084C56.8443 48.2414 57.0506 48.3617 57.2744 48.4379L59.6903 49.3444C60.0269 49.4705 60.3171 49.6963 60.522 49.9916C60.7269 50.287 60.8368 50.6379 60.837 50.9973V56.7921C60.837 58.8216 60.0307 60.7681 58.5956 62.2032C57.1605 63.6383 55.214 64.4446 53.1844 64.4446C51.1549 64.4446 49.2084 63.6383 47.7733 62.2032C46.3382 60.7681 45.5319 58.8216 45.5319 56.7921V50.9997C45.5316 50.6398 45.6413 50.2884 45.8462 49.9926C46.0512 49.6968 46.3416 49.4706 46.6786 49.3444L49.0945 48.4379ZM72.6101 62.6786C73.2346 62.6786 73.8335 62.4305 74.275 61.989C74.7166 61.5474 74.9647 60.9485 74.9647 60.324C74.9647 59.6995 74.7166 59.1006 74.275 58.659C73.8335 58.2175 73.2346 57.9694 72.6101 57.9694C71.9856 57.9694 71.3867 58.2175 70.9451 58.659C70.5035 59.1006 70.2555 59.6995 70.2555 60.324C70.2555 60.9485 70.5035 61.5474 70.9451 61.989C71.3867 62.4305 71.9856 62.6786 72.6101 62.6786Z" fill="#38516B"/>
</g>
</g>
<defs>
<clipPath id="clip0_999_3822">
<rect width="120" height="120" fill="white"/>
</clipPath>
<clipPath id="clip1_999_3822">
<rect width="65" height="65" fill="white" transform="translate(27 28)"/>
</clipPath>
</defs>
</svg>
