<svg width="120" height="120" viewBox="0 0 120 120" fill="none" xmlns="http://www.w3.org/2000/svg">
<g clip-path="url(#clip0_999_3712)">
<path d="M60 120C93.1371 120 120 93.1371 120 60C120 26.8629 93.1371 0 60 0C26.8629 0 0 26.8629 0 60C0 93.1371 26.8629 120 60 120Z" fill="#69D186"/>
<g clip-path="url(#clip1_999_3712)">
<path d="M80.25 90H45.45M45.45 90H39.65M45.45 90V81.3M80.25 72.6H54.15M71.55 32H59.95M59.95 46.5C51.25 46.5 45.45 49.4 45.45 58.1V63.9M71.55 39.54V59.26C71.55 59.7215 71.3667 60.1641 71.0404 60.4904C70.7141 60.8167 70.2715 61 69.81 61H61.69C61.2285 61 60.786 60.8167 60.4597 60.4904C60.1333 60.1641 59.95 59.7215 59.95 59.26V39.54C59.95 39.0785 60.1333 38.6359 60.4597 38.3096C60.786 37.9833 61.2285 37.8 61.69 37.8H69.81C70.2715 37.8 70.7141 37.9833 71.0404 38.3096C71.3667 38.6359 71.55 39.0785 71.55 39.54Z" stroke="white" stroke-width="4.65" stroke-linecap="round" stroke-linejoin="round"/>
<path d="M45.45 81.3001C43.1426 81.3001 40.9297 80.3835 39.2982 78.752C37.6666 77.1204 36.75 74.9075 36.75 72.6001C36.75 70.2928 37.6666 68.0799 39.2982 66.4483C40.9297 64.8167 43.1426 63.9001 45.45 63.9001C47.7574 63.9001 49.9703 64.8167 51.6018 66.4483C53.2334 68.0799 54.15 70.2928 54.15 72.6001C54.15 74.9075 53.2334 77.1204 51.6018 78.752C49.9703 80.3835 47.7574 81.3001 45.45 81.3001Z" stroke="white" stroke-width="4.65" stroke-linecap="round" stroke-linejoin="round"/>
</g>
</g>
<defs>
<clipPath id="clip0_999_3712">
<rect width="120" height="120" fill="white"/>
</clipPath>
<clipPath id="clip1_999_3712">
<rect width="54" height="63" fill="white" transform="translate(32 29.5)"/>
</clipPath>
</defs>
</svg>
