<svg width="120" height="120" viewBox="0 0 120 120" fill="none" xmlns="http://www.w3.org/2000/svg">
<g clip-path="url(#clip0_999_3836)">
<path d="M60 120C93.1371 120 120 93.1371 120 60C120 26.8629 93.1371 0 60 0C26.8629 0 0 26.8629 0 60C0 93.1371 26.8629 120 60 120Z" fill="#38516B"/>
<path d="M51.6667 62.7779H68.3333M60 54.4446V71.1112M35 73.889V46.1112C35 44.6378 35.5853 43.2247 36.6272 42.1828C37.6691 41.141 39.0821 40.5557 40.5556 40.5557H57.2222L62.7778 46.1112H79.4444C80.9179 46.1112 82.3309 46.6965 83.3728 47.7384C84.4147 48.7803 85 50.1934 85 51.6668V73.889C85 75.3624 84.4147 76.7755 83.3728 77.8174C82.3309 78.8592 80.9179 79.4446 79.4444 79.4446H40.5556C39.0821 79.4446 37.6691 78.8592 36.6272 77.8174C35.5853 76.7755 35 75.3624 35 73.889Z" stroke="white" stroke-width="5.55556" stroke-linecap="round" stroke-linejoin="round"/>
</g>
<defs>
<clipPath id="clip0_999_3836">
<rect width="120" height="120" fill="white"/>
</clipPath>
</defs>
</svg>
