<svg width="120" height="120" viewBox="0 0 120 120" fill="none" xmlns="http://www.w3.org/2000/svg">
<g clip-path="url(#clip0_999_3854)">
<path d="M60 120C93.1371 120 120 93.1371 120 60C120 26.8629 93.1371 0 60 0C26.8629 0 0 26.8629 0 60C0 93.1371 26.8629 120 60 120Z" fill="#69D186"/>
<g clip-path="url(#clip1_999_3854)">
<path d="M78.7603 54.3499H74.523C73.9436 54.3404 73.3771 54.1774 72.8812 53.8775C72.3854 53.5776 71.978 53.1516 71.7006 52.6428C71.6873 52.622 71.674 52.5973 71.6627 52.5745C71.36 52.0789 71.1945 51.5118 71.1832 50.9312C71.1719 50.3506 71.3151 49.7774 71.5982 49.2704L73.7187 45.6002C73.9484 45.2006 74.0103 44.7262 73.8909 44.2811C73.7714 43.8359 73.4803 43.4563 73.0814 43.2254L67.0573 39.7562C66.6581 39.5259 66.1837 39.4634 65.7385 39.5825C65.2932 39.7017 64.9134 39.9927 64.6826 40.3917L62.5696 44.0524C62.254 44.543 61.8204 44.9465 61.3084 45.226C60.7964 45.5054 60.2224 45.6518 59.6391 45.6518C59.0558 45.6518 58.4818 45.5054 57.9698 45.226C57.4578 44.9465 57.0242 44.543 56.7086 44.0524L54.5956 40.3917C54.3648 39.9927 53.985 39.7017 53.5397 39.5825C53.0945 39.4634 52.6201 39.5259 52.2209 39.7562L46.2006 43.2311C45.8016 43.462 45.5106 43.8417 45.3915 44.287C45.2723 44.7323 45.3348 45.2066 45.5651 45.6058L47.6838 49.2761C47.9668 49.7834 48.1101 50.3567 48.0991 50.9376C48.0881 51.5184 47.9232 52.0859 47.6212 52.5821L47.5814 52.6485C47.3033 53.1558 46.8958 53.5804 46.4004 53.8793C45.905 54.1781 45.3394 54.3405 44.7609 54.3499H40.5236C40.0628 54.3499 39.6208 54.533 39.295 54.8588C38.9692 55.1846 38.7861 55.6265 38.7861 56.0873V63.0409C38.7861 63.5016 38.9692 63.9436 39.295 64.2694C39.6208 64.5952 40.0628 64.7783 40.5236 64.7783H44.7628C45.3404 64.7864 45.9056 64.9472 46.401 65.2443C46.8963 65.5415 47.3042 65.9644 47.5833 66.4702C47.5966 66.493 47.6099 66.5157 47.625 66.5385C47.927 67.0344 48.0919 67.6016 48.1029 68.1821C48.1139 68.7626 47.9706 69.3356 47.6876 69.8426L45.567 73.5072C45.3368 73.9066 45.2747 74.3812 45.3942 74.8265C45.5137 75.2717 45.8051 75.6514 46.2044 75.8819L52.2247 79.3587C52.6239 79.589 53.0983 79.6515 53.5435 79.5324C53.9888 79.4132 54.3686 79.1222 54.5994 78.7233L56.7143 75.0587C57.0152 74.5594 57.4428 74.1486 57.9539 73.8681C58.4649 73.5876 59.0411 73.4473 59.6239 73.4616C60.8568 73.4616 61.9759 74.0307 62.5734 75.0587L64.6883 78.7233C64.9194 79.1203 65.2983 79.4099 65.7422 79.5286C66.186 79.6472 66.6588 79.5855 67.0573 79.3568L73.0776 75.88C73.4774 75.6504 73.7696 75.2716 73.8902 74.8267C74.0107 74.3817 73.9498 73.9072 73.7206 73.5072L71.6095 69.835C71.3262 69.3282 71.1826 68.7551 71.1936 68.1745C71.2046 67.5939 71.3698 67.0267 71.6721 66.5309L71.712 66.4607C71.9916 65.9551 72.3999 65.5325 72.8956 65.2357C73.3913 64.9389 73.9567 64.7785 74.5343 64.7707H78.7717C79 64.7707 79.2261 64.7257 79.437 64.6383C79.6479 64.5508 79.8396 64.4227 80.0009 64.2611C80.1623 64.0996 80.2902 63.9078 80.3774 63.6968C80.4646 63.4858 80.5094 63.2597 80.5091 63.0314V56.0797C80.5056 55.6188 80.3196 55.1779 79.9919 54.8537C79.6642 54.5295 79.2213 54.3484 78.7603 54.3499ZM59.6429 66.5081C58.2681 66.5078 56.9242 66.0997 55.7813 65.3356C54.6384 64.5716 53.7476 63.4857 53.2218 62.2155C52.6959 60.9452 52.5585 59.5475 52.827 58.1991C53.0954 56.8508 53.7576 55.6123 54.7299 54.6403C55.7022 53.6683 56.9409 53.0064 58.2893 52.7383C59.6377 52.4702 61.0354 52.608 62.3055 53.1342C63.5756 53.6604 64.6612 54.5514 65.425 55.6946C66.1887 56.8377 66.5964 58.1817 66.5964 59.5565C66.5964 60.4696 66.4165 61.3737 66.0671 62.2172C65.7176 63.0607 65.2054 63.8272 64.5597 64.4727C63.9139 65.1183 63.1474 65.6303 62.3037 65.9795C61.4601 66.3287 60.556 66.5084 59.6429 66.5081Z" fill="#F2F2F2"/>
<path d="M89.734 28.2555C91.0034 25.875 91.2992 23.0948 90.5591 20.5005C89.819 17.9062 88.1009 15.7005 85.7666 14.3481C83.4323 12.9957 80.6642 12.6021 78.0454 13.2504C75.4267 13.8987 73.1618 15.5381 71.7281 17.8233C67.8022 16.6779 63.7334 16.0961 59.6438 16.0954C39.2707 16.103 22.1411 30.1997 17.4637 49.1502C14.7848 49.2702 12.2554 50.4188 10.4022 52.3569C8.54894 54.2951 7.51465 56.8733 7.51465 59.5549C7.51465 62.2365 8.54894 64.8147 10.4022 66.7528C12.2554 68.6909 14.7848 69.8396 17.4637 69.9595C22.1392 88.9101 39.2764 103.007 59.6438 103.007C63.7334 103.006 67.8022 102.424 71.7281 101.279C73.1618 103.564 75.4267 105.203 78.0454 105.852C80.6642 106.5 83.4323 106.106 85.7666 104.754C88.1009 103.402 89.819 101.196 90.5591 98.6016C91.2992 96.0074 91.0034 93.2271 89.734 90.8466C93.9571 86.8012 97.3177 81.9429 99.6136 76.5644C101.909 71.1858 103.093 65.3982 103.093 59.5501C103.093 53.7021 101.909 47.9145 99.6136 42.5359C97.3177 37.1573 93.9571 32.2991 89.734 28.2536V28.2555ZM87.6153 88.0812C85.9853 86.555 83.9079 85.5933 81.6896 85.3379C79.4713 85.0824 77.2296 85.5468 75.2954 86.6625C73.3611 87.7782 71.8367 89.4861 70.9472 91.5342C70.0576 93.5823 69.8499 95.8621 70.3548 98.0373C66.8733 99.0223 63.2733 99.5258 59.6552 99.5338C41.0575 99.5338 25.3941 86.7648 20.9481 69.5385C23.0895 68.8886 24.9652 67.5674 26.2982 65.7698C27.6312 63.9723 28.3509 61.7937 28.3509 59.5558C28.3509 57.3179 27.6312 55.1394 26.2982 53.3418C24.9652 51.5443 23.0895 50.223 20.9481 49.5732C25.3846 32.3468 41.048 19.5778 59.6457 19.5778C63.2639 19.5857 66.8639 20.0893 70.3453 21.0744C69.8354 23.2518 70.0401 25.5355 70.9292 27.5875C71.8182 29.6395 73.3444 31.3507 75.2817 32.4678C77.2191 33.5849 79.4646 34.0485 81.6859 33.7899C83.9073 33.5314 85.9863 32.5645 87.6153 31.0324C91.4165 34.747 94.4368 39.1839 96.4989 44.0823C98.5611 48.9808 99.6233 54.242 99.6233 59.5568C99.6233 64.8716 98.5611 70.1328 96.4989 75.0312C94.4368 79.9297 91.4165 84.3666 87.6153 88.0812Z" fill="#38516B"/>
</g>
</g>
<defs>
<clipPath id="clip0_999_3854">
<rect width="120" height="120" fill="white"/>
</clipPath>
<clipPath id="clip1_999_3854">
<rect width="95.5966" height="93.11" fill="white" transform="translate(7.5 13)"/>
</clipPath>
</defs>
</svg>
