<svg width="220" height="220" viewBox="0 0 220 220" fill="none" xmlns="http://www.w3.org/2000/svg">
<g filter="url(#filter0_d_248_3984)">
<path d="M170 106.001C170 139.137 143.143 166 110 166C76.8571 166 50 139.137 50 106.001C50 72.8653 76.8657 46 110 46C143.134 46 170 72.8641 170 106.001Z" fill="#1DD6C9"/>
<path d="M140.7 107.029C140.576 107.587 139.957 107.928 139.337 107.788L119.665 103.451C119.033 103.311 118.619 102.745 118.743 102.185L123.915 78.716C124.038 78.1572 124.651 77.8165 125.278 77.9553L144.95 82.2918C145.582 82.4306 145.996 82.998 145.872 83.5568L140.7 107.029Z" fill="#236FE0"/>
<path d="M126.159 109.089C126.159 109.726 125.432 110.244 124.535 110.244H96.6557C95.7586 110.244 95.0312 109.726 95.0312 109.089V82.3586C95.0312 81.7217 95.7586 81.2051 96.6557 81.2051H124.535C125.432 81.2051 126.159 81.7217 126.159 82.3586V109.089Z" fill="#FFBDE0"/>
<path d="M150.345 85.2441H89.0413C88.402 85.2441 87.8828 85.8389 87.8828 86.5761C87.8828 87.3133 88.402 87.9068 89.0413 87.9068H150.345C150.984 87.9068 151.502 87.3108 151.502 86.5761C151.502 85.8413 150.985 85.2441 150.345 85.2441Z" fill="#F2F2F2"/>
<path d="M146.48 95.9229H92.046C91.4066 95.9229 90.8887 96.5188 90.8887 97.256C90.8887 97.9932 91.4066 98.5867 92.046 98.5867H146.48C147.121 98.5867 147.637 97.9908 147.637 97.256C147.637 96.5213 147.121 95.9229 146.48 95.9229Z" fill="#F2F2F2"/>
<path d="M142.399 106.604H94.4117C93.7699 106.604 93.252 107.2 93.252 107.935C93.252 108.67 93.7699 109.266 94.4117 109.266H142.399C143.038 109.266 143.556 108.671 143.556 107.935C143.556 107.199 143.038 106.604 142.399 106.604Z" fill="#F2F2F2"/>
<path d="M100.281 87.0234L97.9824 87.3666L101.112 115.14L103.539 115.734L100.281 87.0234Z" fill="#F2F2F2"/>
<path d="M109.519 87.2256L107.207 87.4077L108.908 115.987L111.335 115.48L109.519 87.2256Z" fill="#F2F2F2"/>
<path d="M116.493 86.8228L116.486 116.072L118.694 115.986L118.809 86.8228H116.493Z" fill="#F2F2F2"/>
<path d="M127.192 86.7261L122.812 116.409L125.315 115.394L129.475 87.1684L127.192 86.7261Z" fill="#F2F2F2"/>
<path d="M137.154 86.7139L129.951 116.579L132.526 115.987L139.382 87.4251L137.154 86.7139Z" fill="#F2F2F2"/>
<path d="M146.898 86.2329L137.379 115.14L139.659 116.242L149.064 87.1684L146.898 86.2329Z" fill="#F2F2F2"/>
<path d="M144.542 113.166H97.8147L88.3977 82.8242C88.2639 84.4486 86.8006 84.7806 85.4004 84.9788L95.0256 115.772C95.2647 116.547 95.9041 117.065 96.6215 117.065H144.542C145.478 117.065 146.237 116.198 146.237 115.115C146.237 114.032 145.476 113.166 144.542 113.166Z" fill="#38516B"/>
<path d="M87.9695 81.2803C87.3804 80.7677 86.6241 80.4883 85.8433 80.4947H63.9326C62.2673 80.4947 60.9043 81.7127 60.9043 83.2143C60.9043 84.716 62.2673 85.934 63.9326 85.934H85.8433C85.9652 85.9303 86.0869 85.9196 86.2076 85.9017C87.6114 85.7481 88.708 84.742 88.8443 83.4733C88.8579 83.3875 88.867 83.3011 88.8716 83.2143C88.8678 82.8463 88.7854 82.4833 88.6298 82.1497C88.4743 81.8161 88.2491 81.5197 87.9695 81.2803Z" fill="#F2F2F2"/>
<path d="M131.401 135.58H93.9648L98.4342 114.844L100.781 115.513L97.0551 132.8H131.401V135.58Z" fill="#38516B"/>
<path d="M96.1625 141.158C99.8741 141.016 102.767 137.891 102.625 134.18C102.482 130.468 99.3577 127.575 95.6461 127.717C91.9346 127.86 89.0414 130.984 89.184 134.696C89.3266 138.407 92.451 141.301 96.1625 141.158Z" fill="#F2F2F2"/>
<path d="M100.943 134.439C100.943 135.436 100.648 136.411 100.093 137.241C99.539 138.07 98.7512 138.717 97.8294 139.099C96.9077 139.48 95.8934 139.58 94.915 139.385C93.9365 139.191 93.0377 138.71 92.3324 138.005C91.627 137.299 91.1467 136.4 90.9522 135.422C90.7578 134.443 90.8578 133.429 91.2398 132.507C91.6217 131.586 92.2684 130.798 93.0981 130.244C93.9277 129.69 94.903 129.394 95.9007 129.395C96.563 129.395 97.2189 129.525 97.8308 129.779C98.4427 130.032 98.9986 130.404 99.4669 130.872C99.9352 131.34 100.307 131.896 100.56 132.508C100.813 133.12 100.944 133.776 100.943 134.439Z" fill="#38516B"/>
<path d="M137.433 134.439C137.433 135.769 137.039 137.07 136.3 138.176C135.561 139.282 134.51 140.144 133.281 140.653C132.052 141.162 130.7 141.295 129.395 141.035C128.091 140.776 126.892 140.135 125.952 139.194C125.011 138.254 124.371 137.055 124.112 135.75C123.852 134.446 123.985 133.094 124.495 131.865C125.004 130.636 125.866 129.586 126.972 128.847C128.078 128.108 129.379 127.714 130.709 127.714C132.492 127.714 134.203 128.423 135.464 129.684C136.725 130.945 137.433 132.656 137.433 134.439Z" fill="#F2F2F2"/>
<path d="M135.752 134.439C135.752 135.436 135.456 136.411 134.902 137.241C134.348 138.07 133.56 138.717 132.638 139.099C131.716 139.48 130.702 139.58 129.724 139.385C128.745 139.191 127.846 138.71 127.141 138.005C126.436 137.299 125.955 136.4 125.761 135.422C125.566 134.443 125.666 133.429 126.048 132.507C126.43 131.586 127.077 130.798 127.907 130.244C128.736 129.69 129.712 129.394 130.709 129.395C131.372 129.395 132.027 129.525 132.639 129.779C133.251 130.032 133.807 130.404 134.275 130.872C134.744 131.34 135.115 131.896 135.369 132.508C135.622 133.12 135.752 133.776 135.752 134.439Z" fill="#38516B"/>
</g>
<defs>
<filter id="filter0_d_248_3984" x="0" y="0" width="220" height="220" filterUnits="userSpaceOnUse" color-interpolation-filters="sRGB">
<feFlood flood-opacity="0" result="BackgroundImageFix"/>
<feColorMatrix in="SourceAlpha" type="matrix" values="0 0 0 0 0 0 0 0 0 0 0 0 0 0 0 0 0 0 127 0" result="hardAlpha"/>
<feOffset dy="4"/>
<feGaussianBlur stdDeviation="25"/>
<feComposite in2="hardAlpha" operator="out"/>
<feColorMatrix type="matrix" values="0 0 0 0 0.219608 0 0 0 0 0.317647 0 0 0 0 0.419608 0 0 0 0.15 0"/>
<feBlend mode="normal" in2="BackgroundImageFix" result="effect1_dropShadow_248_3984"/>
<feBlend mode="normal" in="SourceGraphic" in2="effect1_dropShadow_248_3984" result="shape"/>
</filter>
</defs>
</svg>
