<svg width="221" height="220" viewBox="0 0 221 220" fill="none" xmlns="http://www.w3.org/2000/svg">
<g filter="url(#filter0_d_248_4016)">
<path d="M170.004 106.001C170.004 139.139 143.143 166 110.004 166C76.866 166 50 139.139 50 106.001C50 72.8623 76.866 46 110.004 46C143.143 46 170.004 72.8623 170.004 106.001Z" fill="#FFBDE0"/>
<path d="M84.4288 82.5557L84.3086 82.6622L93.152 99.6601L110 82.858V82.5557H84.4288Z" fill="#24BEB3"/>
<path d="M93.1523 99.66H110V82.8579L93.1523 99.66Z" fill="#87F4ED"/>
<path d="M110 99.6602H93.1523L110 138.631V99.6602Z" fill="#24BEB3"/>
<path d="M84.3078 82.6621L65.1465 99.66H80.4927C81.2101 97.2326 84.4169 82.5654 84.3078 82.6621Z" fill="#1DD6C9"/>
<path d="M93.1508 99.66L84.3074 82.6621C84.4164 82.5654 81.2096 97.2326 80.4922 99.66H93.1508Z" fill="#4EF5EA"/>
<path d="M80.3562 99.9984C80.2124 99.7183 102.361 128.852 109.999 138.906V138.636L93.1473 99.665H80.4937C80.4206 99.9005 80.3735 100.024 80.3562 99.9984Z" fill="#1DD6C9"/>
<path d="M80.356 99.9984C80.3721 100.029 80.4192 99.9055 80.4923 99.6602H65.1473L65.0742 99.7258L110 139.358V138.901C102.362 128.852 80.2135 99.7184 80.356 99.9984Z" fill="#24BEB3"/>
<path d="M135.571 82.5557L135.691 82.6622L126.847 99.6601L110 82.858V82.5557H135.571Z" fill="#87F4ED"/>
<path d="M126.847 99.66H110V82.8579L126.847 99.66Z" fill="#24BEB3"/>
<path d="M110 99.6602H126.847L110 138.631V99.6602Z" fill="#1DD6C9"/>
<path d="M135.692 82.6621L154.854 99.66H139.507C138.79 97.2326 135.583 82.5654 135.692 82.6621Z" fill="#87F4ED"/>
<path d="M126.848 99.66L135.692 82.6621C135.583 82.5654 138.79 97.2326 139.507 99.66H126.848Z" fill="#4EF5EA"/>
<path d="M139.642 99.9984C139.788 99.7183 117.639 128.852 110 138.906V138.636L126.852 99.665H139.507C139.585 99.9005 139.627 100.024 139.642 99.9984Z" fill="#24BEB3"/>
<path d="M139.642 99.9984C139.627 100.029 139.578 99.9055 139.507 99.6602H154.853L154.926 99.7258L110 139.358V138.901C117.639 128.852 139.788 99.7184 139.642 99.9984Z" fill="#4EF5EA"/>
<path d="M130.629 101.609L143.765 99.9984L130.629 98.3864L129.017 85.2495L127.406 98.3864L114.268 99.9984L127.406 101.609L129.017 114.747L130.629 101.609Z" fill="white"/>
<path d="M129.016 101.624L136.459 107.439L130.643 99.9981L136.459 92.5562L129.016 98.37L121.574 92.5562L127.391 99.9981L121.574 107.439L129.016 101.624Z" fill="white"/>
</g>
<defs>
<filter id="filter0_d_248_4016" x="0" y="0" width="220.004" height="220" filterUnits="userSpaceOnUse" color-interpolation-filters="sRGB">
<feFlood flood-opacity="0" result="BackgroundImageFix"/>
<feColorMatrix in="SourceAlpha" type="matrix" values="0 0 0 0 0 0 0 0 0 0 0 0 0 0 0 0 0 0 127 0" result="hardAlpha"/>
<feOffset dy="4"/>
<feGaussianBlur stdDeviation="25"/>
<feComposite in2="hardAlpha" operator="out"/>
<feColorMatrix type="matrix" values="0 0 0 0 0.219608 0 0 0 0 0.317647 0 0 0 0 0.419608 0 0 0 0.15 0"/>
<feBlend mode="normal" in2="BackgroundImageFix" result="effect1_dropShadow_248_4016"/>
<feBlend mode="normal" in="SourceGraphic" in2="effect1_dropShadow_248_4016" result="shape"/>
</filter>
</defs>
</svg>
