<svg width="221" height="220" viewBox="0 0 221 220" fill="none" xmlns="http://www.w3.org/2000/svg">
<g filter="url(#filter0_d_248_4043)">
<path d="M170.498 105.997C170.498 139.14 143.642 166 110.499 166C77.3557 166 50.502 139.14 50.502 105.997C50.502 72.8538 77.3669 46 110.499 46C143.631 46 170.498 72.8649 170.498 105.997Z" fill="#1DD6C9"/>
<path d="M141.937 99.4546H85.2793V145.667H141.937V99.4546Z" fill="#FFF7FB"/>
<path d="M138.291 92.0965H138.236L138.209 92.0098L113.608 92.0531L89.0067 92.0098L88.9806 92.0965H88.9249L85.2734 99.444H141.942L138.291 92.0965Z" fill="#FFBDE0"/>
<path d="M117.568 99.4546H109.648V118.614H117.568V99.4546Z" fill="#236FE0"/>
<path d="M116.479 92.0498H115.968H111.251H110.739L109.648 99.4432H117.568L116.479 92.0498Z" fill="#236FE0"/>
<path d="M138.623 140.784H125.445V143.38H138.623V140.784Z" fill="#236FE0"/>
<path d="M131.271 131.886L129.156 129.74L127.01 131.886H127.666V140.043H130.614V131.886H131.271Z" fill="#236FE0"/>
<path d="M137.06 133.907L135.469 132.292L133.854 133.907H134.348V140.043H136.566V133.907H137.06Z" fill="#236FE0"/>
<path d="M96.3383 103.099H87.2871V104.829H96.3383V103.099Z" fill="#236FE0"/>
<path d="M104.857 103.099H97.9355V104.829H104.857V103.099Z" fill="#236FE0"/>
<path d="M92.3461 106.698H87.2871V108.429H92.3461V106.698Z" fill="#236FE0"/>
<path d="M104.857 106.698H99.7988V108.429H104.857V106.698Z" fill="#236FE0"/>
<path d="M98.6007 106.698H93.543V108.429H98.6007V106.698Z" fill="#236FE0"/>
<path d="M130.786 70.5254H96.4297V98.5476H130.786V70.5254Z" fill="#FFF7FB"/>
<path d="M128.574 66.0635H128.541L128.524 66.0103L113.606 66.0375L98.6895 66.0103L98.6734 66.0635H98.6399L96.4258 70.5179H130.788L128.574 66.0635Z" fill="#FFBDE0"/>
<path d="M116.01 70.5254H111.207V82.1427H116.01V70.5254Z" fill="#236FE0"/>
<path d="M115.348 66.0356H115.037H112.177H111.867L111.207 70.5185H116.01L115.348 66.0356Z" fill="#236FE0"/>
<path d="M128.778 95.5869H120.787V97.1605H128.778V95.5869Z" fill="#236FE0"/>
<path d="M124.317 90.1919L123.035 88.8896L121.732 90.1919H122.131V95.1369H123.918V90.1919H124.317Z" fill="#236FE0"/>
<path d="M127.829 91.4171L126.864 90.437L125.885 91.4171H126.183V95.1367H127.529V91.4171H127.829Z" fill="#236FE0"/>
<path d="M103.137 72.7344H97.6484V73.7838H103.137V72.7344Z" fill="#236FE0"/>
<path d="M108.301 72.7344H104.104V73.7838H108.301V72.7344Z" fill="#236FE0"/>
<path d="M100.716 74.918H97.6484V75.9674H100.716V74.918Z" fill="#236FE0"/>
<path d="M108.3 74.918H105.232V75.9674H108.3V74.918Z" fill="#236FE0"/>
<path d="M104.508 74.918H101.441V75.9674H104.508V74.918Z" fill="#236FE0"/>
</g>
<defs>
<filter id="filter0_d_248_4043" x="0.501953" y="0" width="219.996" height="220" filterUnits="userSpaceOnUse" color-interpolation-filters="sRGB">
<feFlood flood-opacity="0" result="BackgroundImageFix"/>
<feColorMatrix in="SourceAlpha" type="matrix" values="0 0 0 0 0 0 0 0 0 0 0 0 0 0 0 0 0 0 127 0" result="hardAlpha"/>
<feOffset dy="4"/>
<feGaussianBlur stdDeviation="25"/>
<feComposite in2="hardAlpha" operator="out"/>
<feColorMatrix type="matrix" values="0 0 0 0 0.219608 0 0 0 0 0.317647 0 0 0 0 0.419608 0 0 0 0.15 0"/>
<feBlend mode="normal" in2="BackgroundImageFix" result="effect1_dropShadow_248_4043"/>
<feBlend mode="normal" in="SourceGraphic" in2="effect1_dropShadow_248_4043" result="shape"/>
</filter>
</defs>
</svg>
