<svg width="325" height="325" viewBox="0 0 325 325" fill="none" xmlns="http://www.w3.org/2000/svg">
<g clip-path="url(#clip0_839_2)">
<path d="M324.855 18.8374L298.811 231.831C298.69 232.859 298.311 233.84 297.708 234.685C297.105 235.53 296.298 236.211 295.361 236.666C294.423 237.121 293.386 237.335 292.344 237.289C291.301 237.243 290.287 236.938 289.395 236.402C281.91 231.868 273.531 228.983 264.824 227.94C256.117 226.898 247.286 227.723 238.929 230.36C237.935 230.664 236.879 230.715 235.859 230.51C234.839 230.305 233.887 229.849 233.09 229.185C232.293 228.521 231.677 227.67 231.297 226.709C230.917 225.748 230.786 224.708 230.916 223.683L256.94 10.6698C257.064 9.65389 257.388 8.67215 257.895 7.7807C258.402 6.88926 259.081 6.10557 259.893 5.47442C260.705 4.84326 261.634 4.37702 262.628 4.10231C263.622 3.82761 264.66 3.74983 265.685 3.87343L317.993 10.1631C319.018 10.2849 320.009 10.6061 320.909 11.1081C321.809 11.6102 322.6 12.2833 323.237 13.089C323.874 13.8946 324.345 14.8171 324.623 15.8034C324.9 16.7898 324.979 17.8208 324.855 18.8374Z" fill="#37506B"/>
<path d="M291.647 291.658C290.55 300.632 285.904 308.806 278.731 314.383C271.557 319.959 262.445 322.48 253.398 321.392C244.35 320.303 236.11 315.695 230.488 308.579C224.866 301.464 222.325 292.425 223.422 283.45C223.572 282.258 223.753 281.135 224.003 280.012C225.89 271.782 230.785 264.539 237.743 259.681C244.701 254.823 253.227 252.697 261.674 253.713C270.121 254.729 277.888 258.815 283.474 265.181C289.06 271.547 292.068 279.741 291.918 288.18C291.878 289.332 291.798 290.475 291.647 291.658Z" fill="#800639"/>
<path d="M191.027 76.7266H136.104C132.387 76.7266 129.373 79.716 129.373 83.4037V304.734C129.373 308.421 132.387 311.411 136.104 311.411H191.027C194.745 311.411 197.759 308.421 197.759 304.734V83.4037C197.759 79.716 194.745 76.7266 191.027 76.7266Z" fill="#37506B"/>
<path d="M44.6613 321.594L97.0992 315.309C101.367 314.797 104.408 310.951 103.892 306.718L67.828 10.6649C67.3123 6.43179 63.4348 3.41485 59.1673 3.92637L6.72938 10.2117C2.4619 10.7232 -0.579553 14.5695 -0.0638857 18.8026L36.0006 314.856C36.5163 319.089 40.3938 322.106 44.6613 321.594Z" fill="#37506B"/>
</g>
<defs>
<clipPath id="clip0_839_2">
<rect width="325" height="325" fill="white"/>
</clipPath>
</defs>
</svg>
