<?xml version="1.0" encoding="utf-8"?>
<!-- Generator: Adobe Illustrator 27.7.0, SVG Export Plug-In . SVG Version: 6.00 Build 0)  -->
<svg version="1.1" id="Calque_1" xmlns="http://www.w3.org/2000/svg" xmlns:xlink="http://www.w3.org/1999/xlink" x="0px" y="0px"
	 viewBox="0 0 221.2 75.8" style="enable-background:new 0 0 221.2 75.8;" xml:space="preserve">
<style type="text/css">
	.st0{fill:#E30513;}
</style>
<g id="Logo-Clovis-H-Signature_x5F_RVB_x5F_fd_x5F_noir_1">
	<path id="Vector" class="st0" d="M74.7,26.8C74,25.9,73,25.2,72,24.6L45.5,9.3c-0.8-0.5-1.6-0.8-2.5-1.1s-1.7-0.4-2.6-0.4h0
		c-1.1,0-2.1,0.2-3.1,0.7c-0.7,0.3-1.4,0.8-2,1.4l-0.8,0.8l36.7,21.2L39.6,50.1v-6.4l7.9-4.5c0.7-0.4,1.3-0.9,1.9-1.4
		c0.9-0.8,1.6-1.6,2.1-2.6c0.3-0.5,0.5-1,0.6-1.6c0.1-0.6,0.2-1.1,0.2-1.7c0-0.8-0.1-1.5-0.4-2.2c-0.4-1.1-1-2.1-1.7-2.9
		c-0.8-0.8-1.7-1.6-2.7-2.2l-11.7-6.8L21,9.3c-0.8-0.5-1.6-0.8-2.5-1.1c-0.9-0.3-1.7-0.4-2.6-0.4h0c-1.1,0-2.1,0.2-3.1,0.7
		c-0.7,0.3-1.4,0.8-2,1.4c-0.4,0.4-0.8,0.9-1.1,1.4c-0.5,0.8-0.8,1.6-1,2.5c-0.2,0.9-0.3,1.8-0.3,2.8v30.6c0,1.1,0.1,2.2,0.4,3.2
		c0.2,0.8,0.6,1.5,1,2.2c0.3,0.5,0.7,1,1.2,1.4c0.7,0.6,1.5,1.1,2.3,1.5c0.9,0.3,1.8,0.5,2.7,0.5h0c0.9,0,1.8-0.1,2.6-0.4
		c0.9-0.3,1.7-0.6,2.5-1.1l5.7-3.3v-7.8L15,50l0-36.3l21.7,12.5l10,5.7l-13.8,8v7.4c0,1.1,0.1,2.2,0.4,3.2c0.2,0.8,0.6,1.5,1,2.2
		c0.3,0.5,0.7,1,1.2,1.4c0.7,0.6,1.5,1.1,2.3,1.5c0.9,0.3,1.8,0.5,2.7,0.5h0c0.9,0,1.8-0.1,2.6-0.4s1.7-0.6,2.5-1.1L72,39.2
		c0.7-0.4,1.3-0.9,1.9-1.4c0.9-0.8,1.6-1.6,2.1-2.6c0.3-0.5,0.5-1,0.6-1.6c0.1-0.6,0.2-1.1,0.2-1.7c0-0.8-0.1-1.5-0.4-2.2
		C76.1,28.6,75.5,27.6,74.7,26.8"/>
	<path id="Vector_2" class="st0" d="M73.6,61.5c-0.3-1-0.7-2-1-2.8c-0.3-0.8-0.5-1.4-0.6-1.8c-0.1,0.4-0.3,1-0.6,1.9
		c-0.3,0.8-0.6,1.8-0.9,2.7c0.6,0,1.2,0,1.6,0C72.4,61.5,73.1,61.5,73.6,61.5 M74.7,64.8c-0.1-0.3-0.3-1.1-0.6-2H70
		c-0.3,0.9-0.6,1.7-0.7,2h-1.9c0.9-2.1,2.9-7.6,3.3-8.8h2.6c0.5,1.3,2.4,6.6,3.4,8.8H74.7z M84,57.7c-0.7,1.8-2.3,5.9-2.7,7.1
		c-0.3,0-0.6,0-1,0c-0.5,0-0.9,0-1.1,0c-0.4-1.2-2-5.2-2.7-7.1h1.9c0.2,0.7,0.9,2.6,1.3,4c0.3,0.8,0.4,1.4,0.6,1.8h0.1
		c0.1-0.5,0.3-1.1,0.6-1.8c0.4-1.4,1.1-3.3,1.3-3.9H84L84,57.7z M89.6,61.8c-0.5-0.1-1.1-0.1-1.8-0.1c-1.1,0-1.6,0.3-1.6,1
		c0,0.6,0.4,1,1.4,1c1.3,0,2-0.7,2-1.7V61.8z M89.6,63.5c-0.3,0.9-1.2,1.4-2.6,1.4c-1.5,0-2.4-0.6-2.4-2c0-1.4,1-2.1,3-2.1
		c0.8,0,1.5,0,2,0.1c0-0.2,0-0.5,0-0.7c0-0.9-0.4-1.4-1.6-1.4c-1.2,0-1.7,0.5-1.6,1.5c-0.2,0-0.4,0-0.7,0c-0.3,0-0.6,0-0.9,0
		c-0.1-1.6,0.9-2.8,3.2-2.8c2.3,0,3.2,1.1,3.2,2.7c0,0.9,0,1.5,0,2.4c0,0.8,0.1,1.8,0.2,2.1H90c-0.3,0-0.4,0-0.4-0.4
		C89.6,64.2,89.6,63.8,89.6,63.5L89.6,63.5L89.6,63.5z M98.5,64.8c0-1.1,0-2.4,0-4.2c0-1.1-0.4-1.7-1.6-1.7c-1.2,0-2,0.6-2,1.9
		c0,2.4,0,3.2,0,3.9h-1.7c0-1,0-1.9,0-3.5c0-1.6,0-2.7,0-3.6H95c0,0.4,0,0.8,0,1.2l0.1,0c0.4-0.9,1.3-1.4,2.6-1.4
		c1.7,0,2.5,0.8,2.5,2.7c0,1.1,0,1.5,0,2.2c0,0.8,0,1.6,0,2.3L98.5,64.8L98.5,64.8z M108.8,62.2c0,1.6-0.8,2.8-3.4,2.8
		c-2.2,0-3.6-1.3-3.6-3.7s1.4-3.7,3.7-3.7c2.1,0,3.3,0.8,3.3,2.8c0,0.1,0,0.1,0,0.2c-0.2,0-0.5,0-0.8,0c-0.3,0-0.6,0-0.7,0v-0.1
		c0-1-0.5-1.4-1.8-1.4c-1.3,0-2.1,0.6-2.1,2.2c0,1.6,0.7,2.3,2.1,2.3c1.4,0,1.8-0.6,1.8-1.4v-0.1c0.2,0,0.5,0,0.7,0
		c0.3,0,0.6,0,0.8,0L108.8,62.2L108.8,62.2z M111.6,60.8c1.1,0,2.7,0,3.7,0c0-0.1,0-0.2,0-0.4c0-1.1-0.5-1.6-1.7-1.6
		C112.4,58.8,111.8,59.3,111.6,60.8 M113.7,65c-2.2,0-3.6-1.2-3.6-3.7c0-2.5,1.4-3.7,3.6-3.7s3.1,1.2,3.1,3c0,0.5,0,0.9,0,1.2
		c-0.6,0-1.6,0-2.8,0c-0.9,0-1.7,0-2.3,0c0.1,1.5,0.8,2.1,2,2.1s1.6-0.5,1.6-1.3c0.2,0,0.4,0,0.8,0s0.5,0,0.7,0
		C116.8,64,116.2,65,113.7,65z M120.5,63.5c0.5,0,1.1,0,1.5,0c1.2,0,2.1,0,2.6,0c0,0.2,0,0.5,0,0.7c0,0.2,0,0.4,0,0.7h-6.2
		c0-0.2,0-0.4,0-0.6v-0.6c0.7-0.6,2.1-2.2,3-3.2c0.5-0.6,0.9-1,1.3-1.3l0-0.1c-0.4,0-1,0-1.5,0c-1.5,0-2,0-2.7,0c0-0.2,0-0.6,0-0.7
		c0-0.2,0-0.4,0-0.6h6.2V59c-0.6,0.6-1.8,2-2.9,3.1C121.3,62.6,120.9,63.1,120.5,63.5L120.5,63.5L120.5,63.5z M130,64.8
		c0-1.4,0-2.9,0-4.5c0-1.8,0-3.1,0-4.6h1.7c0,1.4,0,2.7,0,4.7c0,1.7,0,3,0,4.4H130z M134.2,56c0.2,0,0.6,0,0.8,0
		c-0.2,1-0.7,3.2-0.9,3.9c-0.3,0-0.9-0.2-1.2-0.2c0.2-0.8,0.5-2.9,0.5-3.7C133.6,56,133.9,56,134.2,56z M137.3,60.8
		c1.1,0,2.7,0,3.7,0c0-0.1,0-0.2,0-0.4c0-1.1-0.5-1.6-1.7-1.6C138.1,58.8,137.5,59.3,137.3,60.8 M139.4,65c-2.2,0-3.6-1.2-3.6-3.7
		s1.4-3.7,3.6-3.7c2.2,0,3.1,1.2,3.1,3c0,0.5,0,0.9,0,1.2c-0.6,0-1.6,0-2.8,0c-0.9,0-1.7,0-2.3,0c0.1,1.5,0.8,2.1,2,2.1
		s1.6-0.5,1.6-1.3c0.2,0,0.4,0,0.8,0s0.5,0,0.7,0C142.5,64,141.9,65,139.4,65z M148.9,59.9c0-0.7-0.4-1-1.7-1
		c-1.3,0-1.6,0.3-1.6,0.8c0,0.5,0.3,0.8,2.1,1c2.2,0.2,2.9,0.9,2.9,2.2c0,1.3-0.9,2.1-3.3,2.1c-2.5,0-3.4-0.8-3.4-2.2
		c0-0.1,0-0.2,0-0.4c0.2,0,0.5,0,0.8,0c0.3,0,0.5,0,0.7,0c0,0.1,0,0.1,0,0.2c0,0.7,0.5,1,1.9,1c1.2,0,1.7-0.3,1.7-0.9
		c0-0.5-0.4-0.8-2.1-1c-2.2-0.2-2.9-1-2.9-2.2c0-1.4,1.1-2.1,3.2-2.1s3.2,0.7,3.2,2.1c0,0.1,0,0.2,0,0.4c-0.2,0-0.5,0-0.8,0
		c-0.3,0-0.6,0-0.7,0L148.9,59.9L148.9,59.9z M153.9,63.1c0.5,0.3,1.2,0.5,2,0.5c1.3,0,1.9-0.8,1.9-2.4s-0.6-2.3-1.8-2.3
		c-1.2,0-2.1,0.6-2.1,2V63.1z M154,59c0.4-0.8,1.3-1.4,2.6-1.4c1.9,0,2.8,1.3,2.8,3.6c0,2.3-1.1,3.7-2.9,3.7c-1.2,0-2.1-0.4-2.5-1
		l-0.1,0c0,0.4,0,0.7,0,1.1c0,0.5,0,1,0,1.5h-1.7c0-1.6,0-3.7,0-5.5c0-1.6,0-2.4,0-3.2h1.7c0,0.2,0,0.5,0,0.7
		C154,58.6,153.9,58.8,154,59L154,59L154,59z M162.5,59.3c0.4-1.2,1.1-1.7,2.2-1.7c0.4,0,0.8,0.1,1.2,0.2c-0.1,0.4-0.2,1.1-0.2,1.6
		c-0.3-0.1-0.7-0.2-1.2-0.2c-1.2,0-1.8,0.6-1.8,2.2c0,1.2,0,2.6,0,3.4H161c0-1,0-2,0-3.6s0-2.5,0-3.5h1.4
		C162.5,58.2,162.5,58.7,162.5,59.3L162.5,59.3L162.5,59.3z M167.2,64.8c0-1.1,0-2.2,0-3.7c0-1.4,0-2.3,0-3.4h1.7c0,1.1,0,2,0,3.5
		c0,1.6,0,2.5,0,3.6H167.2z M168.1,57.1c-0.9,0-1.1-0.3-1.1-0.6c0-0.4,0.2-0.6,1.1-0.6s1,0.2,1,0.6C169.1,56.8,169,57.1,168.1,57.1z
		 M171.3,57.8v-1.5c0.3,0,0.6,0,0.8,0c0.3,0,0.6,0,0.8,0c0,0.5,0,1,0,1.5c0.9,0,1.9,0,2.8,0c0,0.4,0,1,0,1.4c-0.7,0-1.8,0-2.8,0
		c0,1,0,2,0,3.2c0,0.8,0.4,1.2,1.3,1.2c0.6,0,1.1-0.1,1.5-0.3c0,0.5,0.1,1,0.2,1.5c-0.6,0.2-1.1,0.3-1.9,0.3c-2,0-2.7-1-2.7-2.4
		c0-0.9,0-2.1,0-3.4h-1v-1.4L171.3,57.8L171.3,57.8z M181,64.8c0-1.4,0-2.9,0-4.5c0-1.8,0-3.1,0-4.6h1.7c0,1.4,0,2.7,0,4.7
		c0,1.7,0,3,0,4.4H181z M184.8,64.8c0-1.2,0-2.2,0-3.7c0-1.4,0-2.3,0-3.4h1.7c0,1.1,0,2,0,3.5c0,1.6,0,2.5,0,3.6H184.8z M185.6,57.1
		c-0.9,0-1.1-0.3-1.1-0.6c0-0.4,0.2-0.6,1.1-0.6s1,0.2,1,0.6C186.7,56.8,186.5,57.1,185.6,57.1z M190.2,63.1c0.5,0.3,1.2,0.6,2,0.6
		c1.3,0,1.9-0.8,1.9-2.4s-0.6-2.3-1.9-2.3c-1.1,0-2,0.6-2,1.9V63.1z M190.3,59c0.4-0.9,1.3-1.4,2.6-1.4c1.8,0,2.8,1.1,2.8,3.6
		s-1,3.7-2.8,3.7c-1.3,0-2.1-0.5-2.5-1l-0.1,0c0,0.1,0,0.2,0,0.4v0.5h-1.7c0-1.1,0-2.5,0-4.3c0-2.1,0-3.8,0-4.8h1.7c0,0.6,0,1.2,0,2
		C190.3,58.2,190.2,58.6,190.3,59L190.3,59L190.3,59z M198.8,59.3c0.4-1.2,1.1-1.7,2.2-1.7c0.4,0,0.8,0.1,1.2,0.2
		c-0.1,0.4-0.2,1.1-0.2,1.6c-0.3-0.1-0.7-0.2-1.2-0.2c-1.2,0-1.8,0.6-1.8,2.2c0,1.1,0,2.6,0,3.4h-1.8c0-1,0-2,0-3.6
		c0-1.5,0-2.5,0-3.5h1.4C198.8,58.2,198.8,58.7,198.8,59.3L198.8,59.3L198.8,59.3z M204.4,60.8c1.1,0,2.7,0,3.7,0c0-0.1,0-0.2,0-0.4
		c0-1.1-0.5-1.6-1.7-1.6C205.1,58.8,204.5,59.3,204.4,60.8 M206.4,65c-2.2,0-3.6-1.2-3.6-3.7c0-2.5,1.4-3.7,3.6-3.7
		c2.2,0,3.1,1.2,3.1,3c0,0.5,0,0.9,0,1.2c-0.6,0-1.6,0-2.8,0c-0.9,0-1.7,0-2.3,0c0.1,1.5,0.8,2.1,2,2.1s1.6-0.5,1.6-1.3
		c0.2,0,0.4,0,0.8,0c0.3,0,0.5,0,0.7,0C209.5,64,209,65,206.4,65z"/>
	<path id="Vector_3" d="M119.2,45.1c0.1-3.9,0.1-8.4,0.1-13.2c0-5.2,0-9.4-0.1-13.8h6.5c-0.1,4.2-0.1,8.2-0.1,14.1
		c0,5.3,0,8.8,0.1,12.9H119.2z M140.7,29c3,0,4.9,1.6,4.9,5.4c0,3.8-1.8,5.7-4.9,5.7c-3.1,0-4.9-1.8-4.9-5.7
		C135.8,30.5,137.7,29,140.7,29z M140.7,45.6c7,0,11.2-4.4,11.2-11.4c0-7-4.5-10.7-11.2-10.7c-6.7,0-11.1,3.7-11.1,10.7
		S133.7,45.6,140.7,45.6z M169.5,24c-0.4,1.7-1.9,6.6-2.9,10.7c-0.6,2.2-1.1,3.9-1.4,5.3h-0.3c-0.3-1.4-0.7-3.2-1.3-5.3
		c-1-4-2.5-8.8-2.9-10.7h-7.2c2,5.5,6.1,17.7,7.3,21.1C161.5,45,163,45,165,45c1.8,0,3,0,4,0.1c1.1-3.4,5.3-15.8,7.2-21.1H169.5
		L169.5,24z M185.5,45.1c-0.1-3.3-0.1-6-0.1-10.8c0-4.2,0-7.1,0.1-10.4h-6.5c0,3.2,0.1,6.2,0.1,10.2c0,4.2,0,7.6-0.1,10.9H185.5z
		 M195.6,38.1c-0.7,0.1-1.8,0.1-2.8,0.1c-1.3,0-2.4-0.1-3.1-0.1c0,0.3,0,0.7,0,0.9c0,4,2.3,6.6,10.2,6.6c7.2,0,9.9-2.6,9.9-6.6
		c0-4-2-6-8.4-6.7c-4.8-0.5-5.5-1.3-5.5-2.2c0-1,0.8-1.5,3.7-1.5c2.9,0,3.9,0.7,3.9,2v0.3c0.6,0,1.7-0.1,2.7-0.1
		c1.2,0,2.4,0,3.1,0.1c0-0.4,0.1-0.7,0.1-1c0-4.2-2.8-6.3-9.7-6.3c-6.9,0-10,2.1-10,6.4c0,3.6,1.8,6,8.6,6.8
		c4.4,0.4,5.3,1.1,5.3,2.1c0,1.1-0.9,1.7-3.7,1.7c-3.3,0-4.3-0.7-4.3-2.1V38.1L195.6,38.1z M108,35.3c-0.8,2.7-2.8,4.2-5.8,4.2
		c-4.1,0-6.4-2.7-6.4-7.6s2.3-7.4,6.4-7.4c3.1,0,5.1,1.4,5.9,4.2h7.1c-1.1-7-6.2-10.3-13.1-10.3c-7.8,0-13.2,4.3-13.2,13.2
		s5,13.9,13.2,13.9c7,0,11.7-3.7,13-10.3L108,35.3L108,35.3z M182.3,20.7c3.1,0,3.6-1.6,3.6-3.3c0-1.9-0.6-3.1-3.6-3.1
		s-3.6,1.2-3.6,3.1C178.7,19.1,179.2,20.7,182.3,20.7z"/>
</g>
</svg>
