<svg width="181" height="43" viewBox="0 0 181 43" fill="none" xmlns="http://www.w3.org/2000/svg">
<g id="Group 43017">
<g id="Group">
<path id="Vector" d="M173.812 26.0637C173.592 26.0797 173.427 26.1003 173.261 26.1014C171.518 26.1037 169.774 26.0877 168.031 26.1129C167.591 26.1197 167.356 25.9641 167.152 25.606C166.007 23.5901 164.828 21.5936 163.697 19.5709C163.409 19.056 163.073 18.8169 162.459 18.8695C161.876 18.9199 161.282 18.9061 160.698 18.8615C160.198 18.8226 160.149 19.0869 160.15 19.4519C160.153 21.4724 160.134 23.494 160.167 25.5145C160.176 25.9859 160.026 26.114 159.572 26.1094C158.044 26.0934 156.517 26.0957 154.988 26.1094C154.572 26.114 154.402 26.0019 154.403 25.5591C154.416 19.6304 154.415 13.7016 154.405 7.77282C154.405 7.36323 154.516 7.20305 154.967 7.20534C158.651 7.22593 162.335 7.15958 166.015 7.25797C167.916 7.30831 169.724 7.83803 171.093 9.28418C172.807 11.0953 172.885 14.372 171.207 16.2232C170.749 16.7289 170.191 17.1614 169.631 17.5607C169.247 17.833 169.123 18.0057 169.4 18.4645C170.872 20.89 172.3 23.3407 173.741 25.7845C173.768 25.8314 173.769 25.8932 173.812 26.0648V26.0637ZM162.598 11.2109C161.971 11.2109 161.344 11.228 160.719 11.2051C160.29 11.1891 160.119 11.339 160.13 11.7658C160.152 12.6032 160.149 13.4419 160.13 14.2805C160.12 14.7061 160.305 14.8457 160.729 14.8377C161.766 14.8159 162.806 14.8629 163.841 14.8137C164.459 14.7851 165.091 14.6935 165.678 14.5105C166.379 14.2931 166.687 13.6718 166.647 12.8607C166.611 12.1673 166.254 11.6067 165.559 11.4729C164.589 11.2852 162.601 11.1777 162.596 11.2109H162.598Z" fill="white"/>
<path id="Vector_2" d="M107.609 16.6945C107.609 13.8366 107.605 10.9786 107.611 8.1206C107.614 7.23277 107.627 7.23277 108.511 7.23277C110.88 7.23277 113.253 7.15268 115.617 7.26137C117.225 7.33574 118.85 7.55655 120.414 7.92496C122.194 8.34484 123.69 9.33793 124.835 10.7612C125.707 11.8447 126.255 13.0998 126.465 14.4407C126.781 16.4634 126.784 18.4839 126.061 20.4655C125.3 22.5524 123.904 24.0443 121.884 25.0225C120.047 25.9126 118.069 26.0842 116.066 26.098C113.482 26.1151 110.896 26.0865 108.312 26.1151C107.763 26.1208 107.597 25.9607 107.601 25.4412C107.618 22.5261 107.609 19.6109 107.609 16.6957V16.6945ZM113.379 16.6225C113.379 18.0881 113.388 19.5548 113.375 21.0204C113.371 21.4495 113.516 21.6554 113.987 21.6291C115.118 21.5662 116.257 21.5867 117.381 21.4655C118.802 21.3122 120.122 20.5662 120.551 18.8512C120.833 17.7242 120.836 16.6053 120.733 15.4555C120.544 13.3206 118.992 11.8447 117.006 11.7268C116.012 11.6685 115.011 11.6971 114.017 11.6456C113.505 11.6193 113.369 11.8321 113.373 12.2817C113.388 13.729 113.378 15.1752 113.378 16.6225H113.379Z" fill="white"/>
<path id="Vector_3" d="M82.5361 16.7571C82.6266 13.2081 84.0915 10.3569 87.2013 8.4211C89.2 7.17746 91.448 6.71638 93.8064 6.81134C96.2296 6.90859 98.4529 7.58018 100.372 9.08125C101.877 10.2585 102.935 11.7287 103.533 13.517C104.12 15.2732 104.29 17.0465 103.86 18.8634C103.16 21.8106 101.452 23.9638 98.6386 25.2864C96.2837 26.3939 93.7912 26.6525 91.2598 26.2635C87.8138 25.7349 85.0392 24.1217 83.4731 20.9662C82.8265 19.6631 82.4432 18.2513 82.5361 16.7571ZM98.0578 16.5431C98.0578 16.2193 98.0743 15.8956 98.0555 15.5729C97.8732 12.4358 95.4889 10.5549 92.3145 11.0846C91.0729 11.2917 90.0207 11.8717 89.394 12.9861C88.1736 15.1542 88.1948 17.4104 89.1154 19.6471C90.4474 22.8838 95.1867 22.8563 96.895 20.6345C97.8321 19.416 98.1095 18.0225 98.0578 16.5431Z" fill="white"/>
<path id="Vector_4" d="M150.85 17.1841C150.797 20.2847 149.317 23.0809 146.166 24.9114C144.083 26.1219 141.761 26.5246 139.345 26.3896C136.99 26.2581 134.819 25.6105 132.928 24.1929C131.41 23.0557 130.388 21.5924 129.8 19.8167C129.226 18.0868 129.128 16.3352 129.543 14.579C130.046 12.4498 131.109 10.6284 132.864 9.20742C134.3 8.04501 135.948 7.28417 137.754 6.99586C141.433 6.40779 144.881 7.01188 147.71 9.5415C149.844 11.4487 150.831 13.912 150.85 17.1841ZM135.183 16.5823C135.334 17.4027 135.415 18.2424 135.651 19.0387C136.207 20.9231 137.686 22.0397 139.669 22.177C141.817 22.3258 143.429 21.4631 144.283 19.6268C144.972 18.1418 145.043 16.572 144.749 14.9817C144.401 13.0985 143.473 11.6638 141.454 11.1741C139.409 10.6776 137.087 11.2073 135.999 13.2473C135.444 14.2861 135.253 15.4039 135.184 16.5835L135.183 16.5823Z" fill="white"/>
<path id="Vector_5" d="M68.707 26.0778C67.8241 26.0778 66.9964 26.0961 66.1699 26.0584C66.0405 26.0526 65.8889 25.8067 65.8042 25.6442C64.5333 23.2004 63.2635 20.7566 62.0173 18.3013C61.7821 17.8379 61.5093 17.6217 60.9415 17.6377C59.4342 17.6812 57.9258 17.6675 56.4173 17.6423C55.9047 17.6343 55.7272 17.8082 55.7307 18.3047C55.7484 20.7062 55.7284 23.1077 55.7495 25.5092C55.7531 25.9623 55.6049 26.1041 55.1476 26.1087C53.2606 26.1282 53.2606 26.1396 53.2606 24.2873C53.2606 18.7979 53.2688 13.3096 53.2476 7.82014C53.2453 7.24465 53.4675 7.08905 54.0013 7.09592C56.9382 7.13482 59.8775 7.09363 62.8097 7.21147C64.7249 7.28927 66.4179 7.9929 67.3985 9.73766C68.7176 12.0842 68.024 15.639 64.9271 16.9856C64.1735 17.3139 64.1782 17.2968 64.5486 17.997C65.9183 20.5838 67.2809 23.1752 68.6436 25.7655C68.6694 25.8135 68.6659 25.8753 68.7035 26.0755L68.707 26.0778ZM58.9922 15.5635C59.7552 15.5635 60.5217 15.6081 61.2801 15.5509C62.0137 15.496 62.7697 15.425 63.4622 15.2042C64.8131 14.7717 65.6243 13.3119 65.4174 11.8566C65.2011 10.3383 64.451 9.44477 62.7474 9.28803C60.5946 9.0901 58.4125 9.1862 56.2433 9.15417C55.9012 9.14959 55.7542 9.29718 55.7554 9.63927C55.7648 11.4287 55.7695 13.218 55.7578 15.0063C55.7554 15.4296 55.9282 15.5783 56.3527 15.5703C57.2321 15.552 58.1127 15.5646 58.9933 15.5635H58.9922Z" fill="white"/>
<path id="Vector_6" d="M21.979 24.1483C21.0138 24.734 20.239 25.2855 19.3937 25.702C17.181 26.7912 13.8772 26.8918 11.9408 25.3198C9.17673 23.0751 9.23316 18.5582 12.4981 16.4805C14.8049 15.0114 17.3667 14.8432 19.985 14.8181C20.4941 14.8135 21.0067 14.8604 21.5111 14.8158C21.6698 14.802 21.932 14.5675 21.9344 14.4302C21.9602 13.2506 21.9767 12.0722 21.5135 10.9395C21.0067 9.69932 20.0027 9.12956 18.7329 8.94879C16.5625 8.63873 14.6297 9.20164 12.9625 10.5906C12.658 10.8446 12.4299 10.8274 12.163 10.5494C11.8961 10.2714 11.6046 10.0151 11.3083 9.76568C11.0344 9.53571 11.0285 9.35609 11.3236 9.12841C13.4645 7.48318 15.8407 6.64112 18.6153 6.89969C20.1085 7.03813 21.4417 7.45115 22.581 8.4019C23.8578 9.46821 24.3846 10.8697 24.3928 12.4623C24.4163 16.8466 24.4116 21.2308 24.4257 25.615C24.4257 25.9502 24.3187 26.1173 23.9601 26.1104C23.4898 26.1013 23.0196 26.0978 22.5504 26.107C22.1707 26.1138 22.0378 25.9468 22.0437 25.583C22.0519 25.1311 22.0061 24.678 21.9802 24.1494L21.979 24.1483ZM21.9932 19.2595C21.9932 18.6119 21.972 17.9644 22.0002 17.3179C22.019 16.8786 21.8768 16.6955 21.4018 16.7161C20.6199 16.7493 19.8346 16.6967 19.0551 16.7447C17.4302 16.8466 15.8301 17.0582 14.3663 17.8431C12.524 18.8304 11.828 21.0752 12.832 22.8657C13.6703 24.3611 15.4762 24.9892 17.3656 24.4652C18.9081 24.0373 20.1755 23.1735 21.3747 22.1747C21.8297 21.796 22.0625 21.3978 22.0026 20.8029C21.9508 20.2938 21.992 19.7755 21.9932 19.2618V19.2595Z" fill="white"/>
<path id="Vector_7" d="M46.8808 9.77972C46.3941 10.1927 45.8991 10.5943 45.4264 11.0211C45.1513 11.2694 44.9797 11.1195 44.7869 10.9318C43.9615 10.1275 43.0327 9.49141 41.9158 9.10699C39.7736 8.36904 37.2153 8.80952 35.6104 10.5051C34.1537 12.0439 33.5353 13.9237 33.3977 15.9671C33.2731 17.8194 33.5376 19.6133 34.4594 21.27C35.688 23.4781 37.6691 24.4026 40.1745 24.3625C40.8341 24.3522 41.509 24.2847 42.1474 24.1314C43.7181 23.755 44.4482 22.8832 44.5353 21.294C44.5858 20.3822 44.5306 19.4646 44.5376 18.5505C44.5411 18.1191 44.2801 18.0631 43.9227 18.0654C42.7082 18.0745 41.4937 18.0585 40.2792 18.0757C39.8594 18.0814 39.6925 17.9624 39.6925 17.523C39.6948 16.0277 39.6784 16.0277 41.235 16.0277C42.9386 16.0277 44.6434 16.0391 46.347 16.0185C46.822 16.0128 47.0007 16.1444 46.9878 16.6341C46.9478 18.253 46.9749 19.8742 46.9372 21.4931C46.8702 24.4392 44.9997 25.5513 42.6859 26.1061C40.4932 26.6313 38.3169 26.5146 36.2171 25.7972C34.2654 25.1314 32.7875 23.8339 31.8905 21.9908C30.7677 19.682 30.509 17.2267 30.8994 14.7394C31.392 11.6023 32.9063 9.08067 35.9537 7.63681C37.3164 6.99153 38.7919 6.75813 40.2827 6.79589C42.6518 6.85424 44.7528 7.63566 46.4646 9.28547C46.534 9.35297 46.6092 9.41475 46.6762 9.4834C46.7021 9.50971 46.7115 9.54861 46.7291 9.58294C46.7785 9.64815 46.8279 9.71336 46.8773 9.77858L46.8808 9.77972Z" fill="white"/>
<path id="Vector_8" d="M77.4143 16.7514C77.4143 19.6666 77.4014 22.5818 77.4261 25.497C77.4308 25.9912 77.2686 26.1434 76.7889 26.1068C76.3797 26.0759 75.9659 26.0827 75.5555 26.1068C75.1217 26.1331 74.9724 25.9718 74.9783 25.5439C75.0006 24.0966 74.9877 22.6481 74.9877 21.1997C74.9877 16.7983 74.9877 12.3958 74.9877 7.99439C74.9877 7.48564 75.2483 7.23127 75.7695 7.23127C76.0823 7.23127 76.3997 7.26216 76.7089 7.2244C77.3038 7.15233 77.4285 7.41776 77.4249 7.94748C77.4038 10.8821 77.4143 13.8168 77.4143 16.7502V16.7514Z" fill="white"/>
<path id="Vector_9" d="M37.8425 41.5706C38.0318 41.9413 37.4686 42.2445 37.2593 41.883C37.2476 41.8635 37.237 41.8418 37.2252 41.8201C36.9584 41.2915 36.6644 40.7743 36.4211 40.2355C36.26 39.8785 36.0084 39.779 35.6345 39.7904C34.46 39.8259 34.46 39.8179 34.46 40.962C34.46 41.2286 34.5023 41.502 34.4529 41.7594C34.4435 41.8086 34.4212 41.8567 34.3906 41.9024C34.2801 42.0729 34.0297 42.0981 33.8827 41.9551C33.8192 41.8933 33.7722 41.8315 33.7698 41.7686C33.7334 40.8178 33.7463 39.8648 33.7463 38.9129C33.7463 38.469 33.7522 38.0239 33.751 37.58C33.7498 37.1361 34.1061 36.8112 34.5411 36.8134C35.1736 36.8157 35.8062 36.8043 36.4363 36.834C37.1806 36.8695 37.7602 37.3008 37.9119 37.8649C38.0788 38.4838 37.8589 39.0811 37.2276 39.4929C36.9207 39.6932 36.9066 39.8339 37.0759 40.1291C37.344 40.5947 37.5874 41.0752 37.8413 41.5718L37.8425 41.5706ZM35.564 37.3123C35.564 37.3203 35.5616 37.3283 35.5616 37.3363C35.3465 37.3363 35.1313 37.3466 34.9173 37.334C34.5811 37.3134 34.3671 37.4908 34.3542 37.7791C34.3306 38.2836 34.1002 38.9609 34.7892 39.1772C35.3112 39.3408 35.9496 39.2103 36.5269 39.136C36.9877 39.0765 37.2123 38.7367 37.2288 38.2802C37.2464 37.81 37.0054 37.5125 36.5504 37.4141C36.2306 37.3443 35.8943 37.3443 35.5651 37.3123H35.564Z" fill="white"/>
<path id="Vector_10" d="M137.51 41.603C137.708 41.9714 137.141 42.2815 136.935 41.9176C136.923 41.897 136.912 41.8742 136.901 41.8513C136.695 41.4222 136.407 41.0241 136.248 40.5802C136.025 39.9578 135.642 39.7518 134.973 39.7988C134.108 39.8582 134.104 39.8136 134.105 40.6431C134.105 41.0046 134.137 41.3696 134.092 41.7254C134.088 41.7609 134.077 41.7952 134.062 41.8284C133.963 42.0423 133.655 42.0744 133.509 41.8879C133.469 41.8364 133.441 41.7838 133.439 41.73C133.4 40.952 133.421 40.1706 133.421 39.3903C133.421 38.705 133.424 38.0208 133.421 37.3355C133.42 36.9637 133.565 36.7829 133.983 36.8012C134.646 36.8309 135.313 36.7989 135.977 36.8229C136.76 36.8515 137.328 37.2199 137.505 37.7714C137.72 38.4361 137.529 39.0276 136.848 39.5059C136.519 39.737 136.614 39.9315 136.746 40.1763C136.996 40.6442 137.248 41.1122 137.511 41.6019L137.51 41.603ZM135.233 37.3458C134.999 37.3458 134.751 37.2989 134.535 37.3607C134.372 37.4087 134.153 37.5803 134.13 37.7222C134.071 38.0929 134.079 38.4807 134.12 38.856C134.133 38.9784 134.326 39.1798 134.438 39.1809C135.037 39.1855 135.663 39.2244 136.228 39.0734C136.506 38.999 136.794 38.5631 136.863 38.2462C136.948 37.8549 136.66 37.5197 136.218 37.4293C135.897 37.3641 135.234 37.3343 135.233 37.3446V37.3458Z" fill="white"/>
<path id="Vector_11" d="M73.9369 41.5969C74.1274 41.9619 73.5759 42.2696 73.3631 41.9161C73.3514 41.8967 73.3396 41.8749 73.3279 41.8532C73.0645 41.3429 72.7776 40.8429 72.546 40.3201C72.3732 39.9299 72.1239 39.7926 71.6901 39.8052C70.2992 39.8441 70.5414 39.6874 70.5191 40.9184C70.5156 41.1473 70.532 41.3761 70.5156 41.6038C70.4979 41.8417 70.6414 42.2284 70.1946 42.1667C70.0653 42.1484 69.916 41.7845 69.8983 41.5694C69.856 41.0397 69.8842 40.5031 69.8842 39.97C69.8842 39.0741 69.896 38.1783 69.8772 37.2836C69.8701 36.9381 70.0006 36.7997 70.3521 36.8065C71.0564 36.8214 71.763 36.8008 72.4661 36.8294C73.2032 36.8591 73.7982 37.2596 73.9381 37.7699C74.1344 38.4849 73.9451 39.0638 73.2797 39.5078C72.9846 39.7045 73.0116 39.8636 73.148 40.1141C73.4113 40.5981 73.6665 41.0866 73.9334 41.5969H73.9369ZM71.616 39.1863C71.6219 39.1863 71.6278 39.1863 71.6349 39.1863C71.9441 39.1691 72.258 39.1805 72.5601 39.1279C73.0245 39.0467 73.2585 38.7492 73.2691 38.2836C73.2785 37.8465 73.1057 37.5227 72.6436 37.4541C72.2227 37.3912 71.7912 37.3786 71.3633 37.3717C70.5414 37.3603 70.5426 37.3683 70.545 38.144C70.5485 39.2412 70.3886 39.1748 71.616 39.1863Z" fill="white"/>
<path id="Vector_12" d="M175.391 41.6723C175.563 41.9961 175.124 42.3085 174.869 42.0419C174.807 41.979 174.754 41.8966 174.707 41.8005C174.471 41.3211 174.2 40.8566 173.988 40.3669C173.802 39.9379 173.528 39.7857 173.044 39.8029C171.795 39.8452 171.914 39.669 171.914 40.9115C171.914 41.1975 171.953 41.4893 171.906 41.7662C171.903 41.7833 171.899 41.7993 171.893 41.8154C171.801 42.0705 171.411 42.0865 171.301 41.8382C171.291 41.8142 171.284 41.7902 171.284 41.765C171.254 40.8509 171.27 39.9367 171.27 39.0214C171.27 38.4494 171.28 37.8773 171.265 37.3064C171.256 36.9792 171.363 36.7996 171.726 36.8053C172.47 36.8179 173.215 36.795 173.957 36.8351C174.609 36.8694 175.132 37.1668 175.367 37.787C175.608 38.4219 175.393 39.0409 174.732 39.4791C174.384 39.7102 174.439 39.9024 174.592 40.1816C174.859 40.669 175.12 41.1586 175.393 41.6712L175.391 41.6723ZM172.416 37.3385C172.056 37.3213 171.878 37.5169 171.942 37.8247C172.039 38.2858 171.588 38.9768 172.261 39.169C172.809 39.3258 173.461 39.2045 174.055 39.1198C174.517 39.0535 174.72 38.6805 174.717 38.2343C174.713 37.8007 174.488 37.5055 174.047 37.4197C173.725 37.3568 172.63 37.3499 172.415 37.3396L172.416 37.3385Z" fill="white"/>
<path id="Vector_13" d="M15.3394 39.4622C15.3394 38.7185 15.3218 37.9748 15.3547 37.2323C15.3606 37.087 15.5545 36.8285 15.6662 36.8262C16.3693 36.8124 17.0853 36.7838 17.7743 36.896C19.1499 37.1191 19.8083 38.0103 19.8024 39.5377C19.7965 41.1543 18.9171 42.2801 17.103 42.1978C16.6726 42.1783 16.24 42.1772 15.8109 42.2012C15.4558 42.2206 15.3229 42.1051 15.3335 41.7493C15.3559 40.9873 15.3406 40.2242 15.3406 39.4622H15.3394ZM16.0037 39.4622C16.0037 39.9942 16.0166 40.5262 15.999 41.0582C15.9849 41.4907 16.1483 41.7046 16.6162 41.6543C16.9654 41.6177 17.3181 41.6177 17.6649 41.5731C18.2822 41.4918 18.6772 41.1417 18.9112 40.5834C19.6954 38.7117 18.5138 37.1499 16.4669 37.3456C16.106 37.3799 16.0013 37.5595 16.0025 37.8673C16.0048 38.3993 16.0025 38.9313 16.0025 39.4633L16.0037 39.4622Z" fill="white"/>
<path id="Vector_14" d="M98.5595 39.5147C98.5595 38.7905 98.5748 38.0663 98.5537 37.3432C98.5419 36.9634 98.6418 36.7689 99.0768 36.8066C99.7952 36.8684 100.521 36.8684 101.235 36.9565C101.921 37.0412 102.389 37.4565 102.707 38.0503C103.535 39.5868 102.847 41.7011 101.293 42.0764C100.497 42.2686 99.6247 42.1759 98.7876 42.1736C98.71 42.1736 98.5713 41.8956 98.5666 41.7435C98.5431 41.0009 98.556 40.2573 98.556 39.5147H98.5595ZM99.2179 39.4747C99.2179 39.4747 99.2273 39.4747 99.232 39.4747C99.232 39.874 99.2344 40.2721 99.232 40.6714C99.2238 41.6863 99.2544 41.7171 100.321 41.6439C100.998 41.5982 101.681 41.5066 102.008 40.8247C102.442 39.9163 102.498 38.9759 101.939 38.0972C101.428 37.2952 100.562 37.3524 99.7364 37.3478C99.3555 37.3455 99.2156 37.5389 99.2179 37.8798C99.2203 38.4118 99.2179 38.9427 99.2179 39.4747Z" fill="white"/>
<path id="Vector_15" d="M10.8632 42.2241C9.27839 42.3214 8.29197 41.1258 8.28374 39.5504C8.27433 37.9486 9.37009 36.7587 10.8186 36.7473C12.2788 36.7347 13.4381 37.9818 13.4169 39.5606C13.3969 41.0754 12.3917 42.3191 10.8632 42.2241ZM12.6797 39.4382C12.6727 39.3158 12.6738 39.087 12.6433 38.8616C12.5375 38.0596 11.9179 37.4532 11.0737 37.3136C10.3201 37.1889 9.54292 37.5825 9.22666 38.3227C8.88335 39.127 8.87865 39.9599 9.26546 40.7551C9.65932 41.564 10.5693 41.8958 11.4382 41.5937C12.2588 41.3077 12.6656 40.635 12.6785 39.4382H12.6797Z" fill="white"/>
<path id="Vector_16" d="M47.4513 41.8008C47.5254 41.977 47.4043 42.1818 47.2091 42.1921C46.9704 42.2058 46.8188 42.0846 46.7318 41.8043C46.6812 41.6418 46.5777 41.4919 46.5425 41.3283C46.4519 40.9141 46.1886 40.7803 45.7771 40.7963C45.2692 40.8146 44.7577 40.8329 44.2534 40.7929C43.6761 40.7471 43.3398 40.9164 43.1999 41.5034C43.1247 41.8168 43.0318 42.2035 42.6356 42.1967C42.4334 42.1933 42.3017 41.9873 42.3781 41.8043C42.6226 41.215 42.8637 40.635 43.1082 40.0561C43.5162 39.0904 43.9124 38.1202 44.3509 37.1683C44.4227 37.0116 44.6837 36.8491 44.8588 36.8468C45.0658 36.8445 45.3973 36.9624 45.4655 37.1157C46.1439 38.6545 46.787 40.2082 47.4536 41.7997L47.4513 41.8008ZM44.94 40.2025C45.1163 40.2025 45.2915 40.2059 45.4679 40.2025C46.0252 40.1922 46.0769 40.1041 45.857 39.5904C45.6242 39.047 45.4103 38.4955 45.1692 37.9566C45.1692 37.9555 45.1681 37.9532 45.1669 37.952C45.074 37.753 44.7718 37.7427 44.6602 37.9326C44.6496 37.9498 44.6402 37.9681 44.6331 37.9852C44.4709 38.3502 44.318 38.722 44.1828 39.0973C43.7631 40.2689 43.5421 40.2071 44.9388 40.2025H44.94Z" fill="white"/>
<path id="Vector_17" d="M130.563 39.3609C131.753 39.3666 131.588 39.2213 131.59 40.3551C131.593 42.0209 130.014 42.871 128.469 42.0621C127.284 41.442 126.976 40.45 127.059 39.1938C127.117 38.3197 127.485 37.6378 128.229 37.1367C129.146 36.5189 130.384 36.5635 131.212 37.2854C131.244 37.3129 131.262 37.3529 131.276 37.3987C131.322 37.5555 131.213 37.7156 131.047 37.7374C130.985 37.7454 130.924 37.7522 130.861 37.7557C130.817 37.758 130.771 37.6893 130.723 37.6561C129.481 36.8267 128.19 37.282 127.87 38.727C127.748 39.2796 127.774 39.9055 127.901 40.4603C128.123 41.4283 129.234 41.9706 130.216 41.6925C130.803 41.5255 131.202 40.6079 130.887 40.0816C130.818 39.9661 130.609 39.8974 130.452 39.8711C130.243 39.8357 130.018 39.8883 129.81 39.8517C129.787 39.8471 129.763 39.8368 129.741 39.8219C129.603 39.7281 129.592 39.5233 129.719 39.4158C129.746 39.3929 129.773 39.3769 129.802 39.3734C130.051 39.338 130.309 39.362 130.563 39.362V39.3609Z" fill="white"/>
<path id="Vector_18" d="M21.7205 39.5027C21.7205 38.7785 21.7323 38.0543 21.7158 37.3312C21.7076 36.9674 21.8357 36.8255 22.2272 36.8346C23.1267 36.8575 24.0284 36.8278 24.9278 36.8541C24.9725 36.8552 25.016 36.8701 25.0607 36.893C25.2594 36.996 25.27 37.2683 25.083 37.3918C25.0384 37.4216 24.9925 37.4422 24.9455 37.4445C24.3212 37.4731 23.691 37.4765 23.069 37.4227C22.5882 37.3815 22.3742 37.4982 22.393 37.9971C22.4365 39.1469 22.0909 39.1366 23.5417 39.1217C23.8544 39.1183 24.1719 39.0874 24.4799 39.1251C24.5081 39.1286 24.5363 39.1389 24.5634 39.1537C24.7503 39.2544 24.7632 39.5244 24.5845 39.6377C24.5551 39.6572 24.5246 39.6686 24.494 39.6709C23.9673 39.7018 23.437 39.6961 22.9092 39.6766C22.5247 39.6629 22.3883 39.823 22.3954 40.1857C22.4295 41.871 22.1708 41.5896 23.7804 41.6147C24.1919 41.6216 24.6057 41.5873 25.0125 41.6262C25.0384 41.6285 25.0631 41.6365 25.0877 41.6479C25.3088 41.7543 25.2994 42.0815 25.0689 42.1685C25.0454 42.1776 25.0207 42.1833 24.9972 42.1833C24.0578 42.2062 23.1173 42.1822 22.179 42.2017C21.8087 42.2097 21.7052 42.0701 21.7146 41.7303C21.7334 40.9878 21.7205 40.2441 21.7217 39.5016L21.7205 39.5027Z" fill="white"/>
<path id="Vector_19" d="M90.0143 39.523C90.0143 38.8183 90.0284 38.1135 90.0084 37.4087C89.9978 37.0117 90.0989 36.8149 90.5657 36.8321C91.4451 36.8641 92.3269 36.8264 93.2075 36.8515C93.2651 36.8527 93.3227 36.871 93.3792 36.8984C93.5567 36.982 93.5873 37.2211 93.4344 37.3424C93.365 37.3973 93.2957 37.4373 93.2228 37.4419C92.6185 37.4774 92.0106 37.4591 91.4051 37.4305C90.7409 37.3996 90.6327 37.4865 90.6821 38.1066C90.7362 38.7839 91.1304 39.1222 91.8648 39.1214C92.08 39.1214 92.3046 39.0814 92.508 39.1295C92.5385 39.1363 92.5691 39.1455 92.5985 39.1546C92.8677 39.2427 92.8277 39.642 92.5456 39.6706C92.5432 39.6706 92.5409 39.6706 92.5397 39.6706C92.0929 39.7107 91.6403 39.6912 91.19 39.6763C90.8384 39.6649 90.715 39.8102 90.6974 40.1489C90.6174 41.6236 90.608 41.6225 92.1376 41.6145C92.5491 41.6122 92.9618 41.5904 93.3697 41.627C93.4262 41.6316 93.4791 41.6682 93.5308 41.7163C93.6449 41.8204 93.6449 42 93.5308 42.103C93.4803 42.1488 93.4297 42.1819 93.3792 42.1831C92.381 42.2048 91.3828 42.2117 90.3858 42.1751C90.2576 42.1705 90.0401 41.9028 90.0319 41.7483C89.9943 41.0069 90.0154 40.2633 90.0154 39.5207H90.0178L90.0143 39.523Z" fill="white"/>
<path id="Vector_20" d="M125.691 41.8979C125.737 42.0077 125.674 42.1358 125.557 42.1656C125.25 42.2434 125.031 42.1942 124.935 41.796C124.887 41.5947 124.822 41.375 124.695 41.2183C124.556 41.0467 124.344 40.8339 124.15 40.819C123.468 40.7698 122.78 40.8053 122.094 40.7961C121.698 40.7915 121.595 41.0398 121.457 41.3441C121.298 41.6954 121.358 42.3029 120.659 42.1816C120.652 42.1805 120.644 42.1782 120.636 42.1759C120.532 42.1393 120.487 42.018 120.528 41.9173C120.99 40.8155 121.452 39.7161 121.914 38.6166C122.099 38.1761 122.298 37.7413 122.466 37.2951C122.587 36.9736 122.759 36.8123 123.147 36.8089C123.529 36.8054 123.662 37.0045 123.777 37.2825C124.406 38.8031 125.037 40.3224 125.691 41.8979ZM123.129 40.3716C123.422 40.3716 123.717 40.3533 124.001 40.3533C124.347 40.3533 124.339 40.0501 124.305 39.9678C124.015 39.2699 123.684 38.5891 123.354 37.9095C123.31 37.8191 123.178 37.6841 123.13 37.699C123.022 37.7333 122.897 37.8317 122.855 37.9335C122.662 38.3877 122.491 38.85 122.321 39.3133C122.063 40.0219 122.332 40.3751 123.129 40.3728V40.3716Z" fill="white"/>
<path id="Vector_21" d="M104.933 39.5449C104.933 38.8413 104.95 38.1365 104.927 37.4329C104.913 37.0027 105.047 36.8139 105.528 36.8334C106.388 36.8666 107.249 36.8254 108.109 36.8551C108.159 36.8563 108.209 36.8711 108.258 36.894C108.461 36.9867 108.477 37.2704 108.283 37.3803C108.22 37.4157 108.158 37.4398 108.095 37.4432C107.51 37.4764 106.922 37.4569 106.337 37.4283C105.664 37.3951 105.573 37.4615 105.567 38.0919C105.561 38.7814 105.904 39.1243 106.597 39.1205C106.948 39.1182 107.303 39.0861 107.651 39.125C107.673 39.1273 107.694 39.1319 107.715 39.1399C107.954 39.2211 107.971 39.5575 107.738 39.6513C107.714 39.6616 107.688 39.6673 107.662 39.6696C107.254 39.6971 106.844 39.6948 106.435 39.6845C105.964 39.6731 105.57 40.0312 105.547 40.4888C105.492 41.6181 105.575 41.6169 106.885 41.6158C107.295 41.6158 107.709 41.5826 108.116 41.6249C108.146 41.6283 108.176 41.6341 108.205 41.6444C108.477 41.7302 108.473 42.1249 108.192 42.1775C108.178 42.1798 108.163 42.1821 108.149 42.1821C107.269 42.2107 106.389 42.1775 105.509 42.2027C105.082 42.2153 104.908 42.0917 104.927 41.6558C104.957 40.9533 104.936 40.2474 104.936 39.5438L104.933 39.5449Z" fill="white"/>
<path id="Vector_22" d="M27.936 38.8177C27.936 39.2754 27.9148 39.733 27.9407 40.1895C27.9948 41.1677 28.5591 41.7237 29.4644 41.7215C30.3285 41.7192 30.9705 41.1071 31.0069 40.1792C31.0434 39.2468 31.0152 38.312 31.0234 37.3796C31.0257 37.1473 30.9493 36.7995 31.3444 36.8636C31.4819 36.8865 31.6618 37.2114 31.6618 37.399C31.6583 38.463 31.6618 39.5316 31.5583 40.5899C31.4314 41.8965 30.4132 42.3324 29.3374 42.2706C28.0042 42.194 27.4245 41.6151 27.3234 40.3062C27.247 39.3211 27.2447 38.3292 27.2505 37.3395C27.2505 37.3109 27.2564 37.2835 27.267 37.256C27.3646 36.9894 27.7714 36.9837 27.8831 37.2457C27.896 37.2755 27.9042 37.3052 27.9066 37.3361C27.9524 37.8269 27.923 38.3257 27.923 38.8211C27.9277 38.8211 27.9324 38.8211 27.9371 38.8211L27.936 38.8177Z" fill="white"/>
<path id="Vector_23" d="M148.156 38.8811C148.156 38.3479 148.133 37.8125 148.17 37.2816C148.172 37.2553 148.178 37.2301 148.189 37.2049C148.286 36.9612 148.659 36.9555 148.763 37.1958C148.775 37.221 148.781 37.2473 148.782 37.2724C148.813 38.1477 148.772 39.0252 148.812 39.8993C148.829 40.2872 148.909 40.7025 149.084 41.0468C149.371 41.6109 150.106 41.85 150.759 41.6887C151.39 41.5331 151.858 40.961 151.878 40.2403C151.904 39.2884 151.879 38.3353 151.898 37.3834C151.901 37.2107 151.954 36.9464 152.072 36.8857C152.368 36.7324 152.557 36.8903 152.552 37.2187C152.53 38.341 152.565 39.4691 152.46 40.5846C152.345 41.8203 151.386 42.3443 150.234 42.2585C148.821 42.1532 148.247 41.5239 148.177 40.1373C148.156 39.7197 148.173 39.2998 148.173 38.8811C148.167 38.8811 148.16 38.8811 148.154 38.8811H148.156Z" fill="white"/>
<path id="Vector_24" d="M64.351 39.5138C64.351 38.7896 64.3616 38.0654 64.3463 37.3412C64.3392 36.9762 64.478 36.8286 64.8636 36.8366C65.7642 36.8538 66.666 36.8297 67.5666 36.8526C67.6136 36.8538 67.6595 36.8686 67.7053 36.8915C67.8781 36.9773 67.9075 37.213 67.7629 37.34C67.7018 37.3938 67.6395 37.4338 67.5748 37.4361C66.9305 37.4624 66.2839 37.443 65.6396 37.4087C65.174 37.3846 64.9471 37.5219 64.9718 38.0173C65.0259 39.1351 64.7225 39.1351 66.104 39.1203C66.4179 39.1168 66.7353 39.0825 67.0422 39.1237C67.0587 39.126 67.0751 39.1294 67.0916 39.1351C67.3338 39.2141 67.3385 39.5653 67.0986 39.6523C67.0728 39.6614 67.0481 39.6671 67.021 39.6694C66.5143 39.7026 66.0029 39.6912 65.4938 39.6774C65.1152 39.6671 64.9694 39.8307 64.9753 40.1923C65.0047 41.8478 64.7601 41.5927 66.3791 41.6144C66.8094 41.6201 67.2432 41.5869 67.67 41.6281C67.7112 41.6316 67.75 41.6476 67.7888 41.6716C67.9757 41.7837 67.9651 42.0629 67.7664 42.1544C67.7288 42.1716 67.6912 42.1819 67.6536 42.183C66.6942 42.2059 65.7336 42.1876 64.7743 42.199C64.4321 42.2025 64.3381 42.0503 64.3439 41.7425C64.3581 40.9989 64.3486 40.2564 64.3486 39.5127H64.351V39.5138Z" fill="white"/>
<path id="Vector_25" d="M177.466 39.5035C177.466 38.7804 177.478 38.0574 177.461 37.3343C177.453 36.9636 177.603 36.8286 177.981 36.8355C178.861 36.8526 179.741 36.8263 180.621 36.8526C180.666 36.8538 180.712 36.8675 180.758 36.8869C180.957 36.9739 180.978 37.2416 180.799 37.3617C180.736 37.4041 180.672 37.4338 180.607 37.4373C180.003 37.4681 179.396 37.4476 178.791 37.4109C178.314 37.3823 178.061 37.4865 178.081 38.0299C178.12 39.1237 178.096 39.1248 179.214 39.1214C179.507 39.1214 179.807 39.0791 180.092 39.126C180.129 39.1317 180.166 39.1454 180.201 39.1626C180.422 39.2724 180.395 39.6076 180.155 39.666C180.14 39.6694 180.124 39.6717 180.109 39.6728C179.602 39.7037 179.092 39.6934 178.584 39.6774C178.232 39.666 178.089 39.8136 178.094 40.1499C178.12 41.8547 177.834 41.5949 179.494 41.6155C179.905 41.6201 180.318 41.5892 180.725 41.6281C180.775 41.6327 180.823 41.6533 180.871 41.683C181.045 41.7894 181.043 42.0446 180.865 42.1464C180.828 42.1681 180.79 42.1819 180.752 42.183C179.795 42.2082 178.836 42.191 177.878 42.199C177.533 42.2013 177.453 42.0308 177.459 41.7311C177.473 40.9897 177.464 40.2472 177.465 39.5047L177.466 39.5035Z" fill="white"/>
<path id="Vector_26" d="M58.5405 41.7472C58.3924 41.6477 58.3735 41.436 58.5064 41.3182C58.6393 41.2003 58.7933 41.2083 58.9908 41.3571C59.5645 41.7861 60.2453 41.8216 60.8954 41.6957C61.2176 41.6339 61.602 41.3479 61.7431 41.0619C61.9407 40.6649 61.6032 40.3228 61.2329 40.1569C60.7214 39.9281 60.1783 39.7633 59.6445 39.5814C58.9132 39.3331 58.524 38.8984 58.5052 38.2886C58.4852 37.6559 58.8097 37.1811 59.5199 36.9019C60.2876 36.5998 61.0589 36.6731 61.7913 37.0209C61.8125 37.0312 61.8325 37.0449 61.8501 37.0632C62.0112 37.2211 61.8972 37.49 61.6702 37.5197C61.615 37.5277 61.5597 37.5289 61.5068 37.5197C61.0894 37.4545 60.6803 37.2589 60.2676 37.2611C59.7856 37.2634 59.3294 37.4762 59.233 38.0197C59.1378 38.5574 59.4952 38.816 59.9596 38.9727C60.3288 39.0963 60.7003 39.2118 61.0671 39.34C61.2858 39.4166 61.5092 39.4933 61.7114 39.6031C62.2651 39.9063 62.6038 40.3445 62.5191 40.9989C62.438 41.6305 61.9853 41.9943 61.4292 42.1568C60.4099 42.4531 59.4352 42.3478 58.5381 41.7449L58.5405 41.7472Z" fill="white"/>
<path id="Vector_27" d="M53.1767 41.2111C52.8111 42.1584 51.907 42.4193 50.5325 42.1973C49.8542 42.0875 49.2346 41.4491 49.1664 40.599C49.077 39.4824 49.0899 38.3566 49.0888 37.2342C49.0888 37.1976 49.1041 37.1598 49.1276 37.1232C49.2404 36.947 49.5003 36.9367 49.6331 37.0992C49.6766 37.1518 49.7072 37.2056 49.7084 37.2605C49.7389 38.193 49.7119 39.1266 49.7307 40.059C49.7519 41.0864 50.3468 41.7157 51.2638 41.7214C52.1715 41.726 52.777 41.1333 52.8111 40.1425C52.8428 39.2295 52.804 38.3142 52.8405 37.4012C52.8405 37.3841 52.8428 37.3681 52.8464 37.352C52.911 37.0294 53.4201 37.0546 53.4542 37.3818C53.4542 37.3841 53.4542 37.3852 53.4542 37.3875C53.4953 37.8566 53.4707 38.3314 53.4683 38.8039L53.473 38.8874C53.4989 39.0545 53.4389 40.5304 53.1744 41.2134L53.1767 41.2111Z" fill="white"/>
<path id="Vector_28" d="M164.749 38.8512C164.749 38.3169 164.729 37.7826 164.762 37.2506C164.763 37.2265 164.769 37.2037 164.778 37.1796C164.865 36.9588 165.173 36.9245 165.333 37.103C165.373 37.1476 165.4 37.1922 165.403 37.2391C165.442 37.9999 165.423 38.7631 165.427 39.5262C165.429 39.755 165.427 39.9838 165.446 40.2115C165.524 41.2057 166.063 41.7297 166.989 41.7194C167.835 41.7091 168.476 41.0673 168.505 40.1452C168.534 39.231 168.501 38.3146 168.532 37.4004C168.54 37.2082 168.691 36.8776 168.813 36.8604C169.239 36.7998 169.172 37.159 169.165 37.413C169.134 38.4965 169.146 39.5845 169.04 40.6623C168.922 41.8625 167.862 42.3762 166.754 42.2503C165.387 42.0947 164.864 41.5181 164.778 40.1669C164.75 39.7298 164.774 39.2905 164.774 38.8523C164.765 38.8523 164.757 38.8523 164.75 38.8523L164.749 38.8512Z" fill="white"/>
<path id="Vector_29" d="M74.8109 1.4329C74.8109 0.510744 75.28 0.0492872 76.2183 0.0485244C77.6844 0.0462362 77.5962 -0.0681746 77.6009 1.4123C77.6068 3.14448 77.5891 2.82756 76.243 2.84015C74.8109 2.85388 74.8109 2.84358 74.8109 1.4329Z" fill="white"/>
<path id="Vector_30" d="M79.5365 36.8484C79.7434 36.8529 79.8833 37.0577 79.8163 37.2477C79.6235 37.7968 79.433 38.3403 79.2379 38.8837C78.8981 39.8322 78.5771 40.7898 78.1927 41.7211C78.1092 41.9248 77.8188 42.1135 77.5848 42.1788C77.2298 42.2794 77.0605 42.0644 76.9405 41.7074C76.4667 40.3013 75.9353 38.9146 75.4462 37.5131C75.3733 37.3037 75.0806 36.9799 75.5203 36.8564C75.88 36.7557 76.0035 37.0417 76.0987 37.3461C76.4726 38.5439 76.8665 39.7361 77.265 40.926C77.265 40.9271 77.265 40.9294 77.2662 40.9305C77.3579 41.1971 77.7506 41.1925 77.8482 40.9271C77.9987 40.5152 78.1304 40.1571 78.2538 39.7956C78.5501 38.9329 78.8358 38.0657 79.1238 37.2007C79.2061 36.9548 79.3378 36.8415 79.5353 36.8461L79.5365 36.8484Z" fill="white"/>
<path id="Vector_31" d="M143.52 41.1766C144.023 41.8196 144.799 41.8528 145.528 41.4615C145.544 41.4535 145.561 41.4455 145.577 41.4398C145.874 41.3345 146.113 41.7338 145.867 41.9283C145.854 41.9386 145.842 41.9477 145.827 41.9557C144.392 42.7692 142.655 42.021 142.331 40.3734C142.16 39.5096 142.219 38.679 142.622 37.8793C143.213 36.7089 145.033 36.337 145.992 37.2088C146.023 37.2363 146.047 37.2695 146.067 37.3061C146.171 37.4903 146.046 37.7191 145.832 37.7351C145.762 37.7409 145.698 37.7351 145.646 37.7077C144.312 36.9846 143.276 37.4297 142.973 38.8861C142.926 39.1092 142.731 40.2991 143.52 41.1766Z" fill="white"/>
<path id="Vector_32" d="M84.7324 39.5995C84.7324 39.6109 84.7324 39.6235 84.7324 39.635C84.7818 40.3615 84.9687 41.0662 85.7071 41.4838C86.255 41.7939 86.8075 41.8076 87.3742 41.4632C87.406 41.4438 87.4412 41.4312 87.4789 41.4243C87.7646 41.3648 87.9633 41.7275 87.7387 41.9106C87.7269 41.9197 87.7152 41.9289 87.7023 41.9358C86.2126 42.7984 84.415 42.0078 84.1375 40.2493C84.0105 39.4473 84.0599 38.6682 84.4302 37.9199C85.0369 36.6969 86.9357 36.3193 87.8821 37.2541C87.9151 37.2861 87.9374 37.3284 87.955 37.3765C88.0162 37.5401 87.908 37.7197 87.7316 37.7506C87.6505 37.7655 87.5741 37.7678 87.5153 37.7392C85.9751 36.9772 84.9064 37.5481 84.75 39.2379C84.7395 39.3466 84.7371 39.4576 84.7301 39.6006L84.7324 39.5995Z" fill="white"/>
<path id="Vector_33" d="M161.489 39.8742C161.489 40.5011 161.509 41.1304 161.475 41.7562C161.473 41.7997 161.456 41.842 161.431 41.8832C161.32 42.0674 161.052 42.0834 160.916 41.9164C160.869 41.8592 160.834 41.8008 160.833 41.7413C160.805 40.5057 160.803 39.2701 160.827 38.0344C160.838 37.5219 160.639 37.3468 160.128 37.4178C159.842 37.4578 159.539 37.4647 159.257 37.4178C159.212 37.4097 159.172 37.3754 159.134 37.3297C159.012 37.1809 159.051 36.9487 159.23 36.8697C159.252 36.8594 159.275 36.8537 159.298 36.8537C160.529 36.8365 161.76 36.8343 162.991 36.8537C163.034 36.8537 163.077 36.8766 163.119 36.9086C163.261 37.0173 163.275 37.2221 163.154 37.3525C163.114 37.3949 163.072 37.4269 163.026 37.4361C162.763 37.4841 162.482 37.4624 162.209 37.4441C161.516 37.3972 161.489 37.4155 161.488 38.1077C161.487 38.6969 161.488 39.2861 161.488 39.8764H161.49L161.489 39.8742Z" fill="white"/>
<path id="Vector_34" d="M0.837357 39.4936C0.837357 38.846 0.826775 38.1985 0.842059 37.5509C0.849114 37.274 0.698623 36.8576 1.18066 36.8381C1.6968 36.8175 1.52985 37.2511 1.5322 37.5177C1.54396 38.6035 1.5322 39.6881 1.52867 40.7738C1.52632 41.6033 1.54043 41.617 2.36461 41.6159C2.8537 41.6159 3.34515 41.5873 3.83072 41.6273C3.84953 41.6285 3.86834 41.6319 3.88715 41.6376C4.16697 41.7166 4.15992 42.1262 3.87422 42.1788C3.86011 42.1811 3.84718 42.1834 3.83307 42.1834C2.99244 42.2108 2.15063 42.1914 1.30882 42.1983C0.965509 42.2005 0.817369 42.0724 0.826775 41.7212C0.846762 40.9786 0.832654 40.2361 0.832654 39.4936H0.835005H0.837357Z" fill="white"/>
<path id="Vector_35" d="M113.456 39.5187C113.456 38.8894 113.435 38.2602 113.465 37.6332C113.48 37.3495 113.26 36.8564 113.761 36.8506C114.33 36.8449 114.069 37.3735 114.077 37.6584C114.107 38.7624 114.107 39.8688 114.074 40.9729C114.059 41.4831 114.258 41.6513 114.76 41.6239C115.307 41.5941 115.858 41.5907 116.402 41.6296C116.446 41.633 116.489 41.649 116.532 41.6742C116.745 41.7978 116.703 42.1295 116.461 42.1799C116.446 42.1833 116.431 42.1845 116.415 42.1856C115.575 42.2096 114.732 42.1902 113.89 42.2016C113.554 42.2062 113.445 42.0575 113.45 41.7486C113.462 41.006 113.454 40.2624 113.454 39.5198H113.456V39.5187Z" fill="white"/>
<path id="Vector_36" d="M154.709 39.4969C154.709 38.831 154.699 38.164 154.714 37.4981C154.72 37.2418 154.569 36.8563 155.033 36.8345C155.539 36.8117 155.356 37.2235 155.358 37.4638C155.375 38.6628 155.378 39.863 155.354 41.0609C155.345 41.4911 155.509 41.6386 155.936 41.6203C156.502 41.5975 157.071 41.5894 157.636 41.6261C157.678 41.6283 157.719 41.6444 157.759 41.6684C157.971 41.7942 157.93 42.126 157.687 42.1787C157.672 42.1821 157.658 42.1844 157.643 42.1844C156.922 42.205 156.2 42.1912 155.479 42.1958C155.046 42.1981 154.701 41.8595 154.707 41.4373C154.716 40.7909 154.707 40.1433 154.707 39.4957L154.709 39.4969Z" fill="white"/>
<path id="Vector_37" d="M81.4732 39.5296C81.4732 38.787 81.4555 38.0445 81.4872 37.3031C81.4872 37.2768 81.4943 37.2505 81.5037 37.2253C81.6 36.969 81.9898 36.9484 82.1096 37.1967C82.1214 37.2207 82.1284 37.2459 82.1284 37.2699C82.1554 38.7733 82.1566 40.2767 82.1319 41.78C82.1319 41.8269 82.1049 41.8738 82.065 41.9207C81.9194 42.0946 81.6293 42.0683 81.5201 41.8715C81.499 41.8338 81.4849 41.7949 81.4837 41.756C81.4532 41.0146 81.4696 40.2721 81.4696 39.5296H81.4732Z" fill="white"/>
<path id="Vector_38" d="M140.276 39.5769C140.276 40.2794 140.295 40.983 140.262 41.6844C140.26 41.7187 140.252 41.753 140.238 41.7873C140.144 42.0345 139.772 42.0516 139.673 41.8057C139.663 41.7793 139.656 41.7519 139.656 41.7244C139.631 40.2623 139.631 38.8001 139.656 37.3379C139.656 37.3105 139.662 37.283 139.672 37.2544C139.763 37.0027 140.144 37.0073 140.239 37.2578C140.251 37.2899 140.259 37.3219 140.26 37.3551C140.295 38.0942 140.275 38.8356 140.275 39.5769H140.276Z" fill="white"/>
<path id="Vector_39" d="M118.982 34.513C119.168 34.5244 119.291 34.7052 119.229 34.8768C119.024 35.4363 118.836 35.9717 118.614 36.4934C118.603 36.5186 118.586 36.5403 118.563 36.5609C118.375 36.7325 118.051 36.5758 118.096 36.3298C118.096 36.3287 118.096 36.3275 118.096 36.3252C118.187 35.879 118.322 35.442 118.433 35.0004C118.515 34.672 118.675 34.4958 118.979 34.5141L118.982 34.513Z" fill="white"/>
<path id="Vector_40" d="M6.43135 34.5131C6.61241 34.5417 6.72175 34.7236 6.66179 34.8918C6.46544 35.449 6.27733 35.9993 6.0563 36.5382C6.04336 36.5691 6.01867 36.5942 5.98458 36.616C5.79411 36.743 5.51782 36.6057 5.52723 36.3826C5.52723 36.3688 5.52958 36.3563 5.53193 36.3437C5.63539 35.8803 5.80587 35.4307 5.90345 34.9673C5.98105 34.5955 6.15153 34.4696 6.43135 34.5131Z" fill="white"/>
<path id="Vector_41" d="M140.077 34.8259C140.38 34.9678 140.336 35.4266 140.011 35.5112C139.984 35.5181 139.958 35.5215 139.932 35.5192C139.814 35.5089 139.614 35.271 139.633 35.1646C139.659 35.0216 139.851 34.8179 139.986 34.8065C140.014 34.8042 140.045 34.811 140.075 34.8259H140.077Z" fill="white"/>
<path id="Vector_42" d="M81.9021 34.8225C82.2121 34.9575 82.1757 35.4209 81.8481 35.5113C81.8199 35.5193 81.7929 35.5227 81.7659 35.5204C81.6449 35.5101 81.4347 35.2733 81.4547 35.1726C81.4829 35.0262 81.6719 34.8237 81.8128 34.8065C81.841 34.8031 81.8704 34.8088 81.9021 34.8237V34.8225Z" fill="white"/>
</g>
</g>
</svg>
