<svg width="24" height="24" viewBox="0 0 24 24" fill="none" xmlns="http://www.w3.org/2000/svg">
<g id="lightbulb-flash-line">
<g id="Vector">
<path d="M9.9732 18H14.027C14.159 16.7984 14.7722 15.8065 15.7677 14.7226C15.8798 14.6006 16.5989 13.8564 16.6842 13.7501C17.5319 12.6931 18.0001 11.385 18.0001 10C18.0001 6.68629 15.3138 4 12.0001 4C8.68641 4 6.00012 6.68629 6.00012 10C6.00012 11.3843 6.46786 12.6917 7.31474 13.7484C7.40016 13.855 8.12093 14.6012 8.23166 14.7218C9.22778 15.8064 9.84115 16.7984 9.9732 18ZM14.0001 20H10.0001V21H14.0001V20ZM5.75407 14.9992C4.65657 13.6297 4.00012 11.8915 4.00012 10C4.00012 5.58172 7.58184 2 12.0001 2C16.4184 2 20.0001 5.58172 20.0001 10C20.0001 11.8925 19.3429 13.6315 18.2444 15.0014C17.6241 15.7748 16.0001 17 16.0001 18.5V21C16.0001 22.1046 15.1047 23 14.0001 23H10.0001C8.89555 23 8.00012 22.1046 8.00012 21V18.5C8.00012 17 6.3747 15.7736 5.75407 14.9992Z" fill="#232558"/>
<path d="M15.5001 10.0048H13.0001V6L8.50012 12.0048H11.0001V16.0048L15.5001 10.0048Z" fill="#FDC300"/>
</g>
</g>
</svg>
