<svg width="20" height="20" viewBox="0 0 20 20" fill="none" xmlns="http://www.w3.org/2000/svg">
<path id="Vector" d="M9.00012 9V5H11.0001V9H15.0001V11H11.0001V15H9.00012V11H5.00012V9H9.00012ZM10.0001 20C4.47727 20 0.00012207 15.5228 0.00012207 10C0.00012207 4.47715 4.47727 0 10.0001 0C15.5229 0 20.0001 4.47715 20.0001 10C20.0001 15.5228 15.5229 20 10.0001 20ZM10.0001 18C14.4184 18 18.0001 14.4183 18.0001 10C18.0001 5.58172 14.4184 2 10.0001 2C5.58184 2 2.00012 5.58172 2.00012 10C2.00012 14.4183 5.58184 18 10.0001 18Z" fill="#026096"/>
</svg>
