<svg width="532" height="127" viewBox="0 0 532 127" fill="none" xmlns="http://www.w3.org/2000/svg">
<g clip-path="url(#clip0_947_321)">
<path d="M24.2435 90.6693L0.0872242 3.06112C-0.338941 1.52276 0.820021 0 2.42074 0H20.9329C22.0451 0 23.0118 0.758782 23.2821 1.83979L39.809 68.7789L58.2692 1.77742C58.5602 0.7276 59.5113 0 60.6027 0H75.0664C76.1526 0 77.1088 0.7276 77.3999 1.77742L95.8705 68.8049L112.481 1.83459C112.751 0.758782 113.717 0 114.83 0H133.347C134.943 0 136.102 1.52276 135.681 3.06112L111.524 90.6693C110.287 95.1492 106.213 98.2571 101.561 98.2571H91.7544C87.1029 98.2571 83.0284 95.1492 81.7915 90.6693L67.8319 39.9972L53.8724 90.6693C52.6355 95.1544 48.5609 98.2571 43.9095 98.2571H34.2064C29.555 98.2571 25.4804 95.1544 24.2435 90.6693Z" fill="#37506B"/>
<path d="M197.298 89.4843C190.095 96.646 181.296 100.222 170.907 100.222C160.518 100.222 151.724 96.6408 144.516 89.4843C137.307 82.3279 133.706 73.5551 133.706 63.166C133.706 52.7769 137.307 44.0042 144.516 36.8477C151.719 29.6912 160.518 26.1104 170.907 26.1104C181.296 26.1104 190.089 29.6912 197.298 36.8477C204.501 44.0094 208.108 52.7821 208.108 63.166C208.108 73.5499 204.506 82.3279 197.298 89.4843ZM159.4 75.0986C162.487 78.1857 166.323 79.7293 170.912 79.7293C175.501 79.7293 179.337 78.1857 182.424 75.0986C185.511 72.0115 187.054 68.0357 187.054 63.166C187.054 58.2963 185.511 54.3257 182.424 51.2334C179.337 48.1463 175.496 46.6027 170.912 46.6027C166.328 46.6027 162.493 48.1463 159.4 51.2334C156.313 54.3205 154.77 58.3015 154.77 63.166C154.77 68.0305 156.313 72.0063 159.4 75.0986Z" fill="#37506B"/>
<path d="M241.094 40.5637C242.404 36.0733 245.044 32.6328 249.025 30.2473C252.252 28.3088 255.74 27.1602 259.492 26.7964C260.911 26.6561 262.148 27.7891 262.148 29.2183V47.85C262.148 49.2481 260.963 50.3239 259.57 50.2511C255.392 50.0328 251.452 50.9891 247.762 53.1251C243.319 55.7029 241.094 60.1673 241.094 66.5286V94.6451C241.094 96.6356 239.483 98.2467 237.493 98.2467H223.642C221.652 98.2467 220.041 96.6356 220.041 94.6451V30.5228C220.041 29.1715 221.137 28.0697 222.494 28.0697H238.678C240.013 28.0697 241.094 29.1507 241.094 30.4864V40.5585V40.5637Z" fill="#37506B"/>
<path d="M334.518 98.2571H316.718C315.943 98.2571 315.216 97.8881 314.758 97.2593L293.024 67.2978V95.8404C293.024 97.1761 291.943 98.2571 290.607 98.2571H274.387C273.051 98.2571 271.97 97.1761 271.97 95.8404V2.41667C271.97 1.08101 273.051 0 274.387 0H290.607C291.943 0 293.024 1.08101 293.024 2.41667V58.8108L313.36 29.1248C313.813 28.4647 314.556 28.0749 315.356 28.0749H333.894C335.869 28.0749 337.013 30.3201 335.848 31.9156L315.309 60.1257C313.994 61.9343 314.01 64.3874 315.351 66.1752L336.457 94.3904C337.647 95.986 336.514 98.2571 334.518 98.2571Z" fill="#37506B"/>
<path d="M391.666 28.075H408.92C410.588 28.075 411.758 29.7224 411.202 31.2972L388.334 96.1523C384.405 107.191 379.234 115.101 372.821 119.872C366.943 124.248 359.594 126.42 350.775 126.389C349.429 126.389 348.327 125.308 348.327 123.967V109.015C348.327 107.742 349.33 106.687 350.598 106.609C354.371 106.375 357.359 105.528 359.553 104.078C361.917 102.514 363.866 99.8942 365.394 96.2302C365.711 95.4663 365.69 94.5983 365.368 93.8344L339.33 31.4219C338.665 29.8264 339.835 28.075 341.56 28.075H359.397C360.415 28.075 361.325 28.7142 361.668 29.6705L376.672 71.0293L389.343 29.7848C389.654 28.7714 390.59 28.075 391.655 28.075H391.666Z" fill="#37506B"/>
<path d="M461.183 26.1104C468.667 26.1104 474.914 28.683 479.924 33.8282C484.928 38.9785 487.433 46.0882 487.433 55.1624V95.8352C487.433 97.1709 486.352 98.2519 485.017 98.2519H468.797C467.461 98.2519 466.38 97.1709 466.38 95.8352V58.2495C466.38 54.1334 465.231 50.9735 462.939 48.7751C460.647 46.5767 457.721 45.475 454.167 45.475C450.139 45.475 446.958 46.6911 444.619 49.1233C442.281 51.5556 441.111 55.1572 441.111 59.9334V95.8352C441.111 97.1709 440.03 98.2519 438.695 98.2519H422.474C421.139 98.2519 420.058 97.1709 420.058 95.8352V30.4916C420.058 29.1559 421.139 28.0749 422.474 28.0749H438.695C440.03 28.0749 441.111 29.1559 441.111 30.4916V34.6701C445.321 28.9636 452.01 26.1104 461.183 26.1104Z" fill="#37506B"/>
<path d="M531.983 4.72937L524.006 70.52C523.839 71.8972 522.296 72.6612 521.111 71.9336C518.876 70.5615 516.309 69.6468 513.549 69.309C510.789 68.9764 508.082 69.2519 505.582 70.047C504.257 70.4732 502.942 69.361 503.108 67.9838L511.086 2.19317C511.247 0.873094 512.452 -0.0675877 513.778 0.0935236L529.878 2.04765C531.204 2.20876 532.15 3.4093 531.989 4.72937H531.983Z" fill="#37506B"/>
<path d="M521.813 89.001C521.111 94.7698 515.841 98.8808 510.046 98.1791C504.251 97.4775 500.114 92.2232 500.816 86.4544C500.863 86.0854 500.92 85.7372 500.993 85.3942C502.178 80.1866 507.157 76.6214 512.582 77.2763C518.008 77.9363 521.989 82.5877 521.896 87.9304C521.885 88.2838 521.859 88.6372 521.813 89.0062V89.001Z" fill="#710FAA"/>
<path d="M255.147 111.562H247.882V115.87H254.939V119.295H247.882V126.301H244.301V108.142H255.147V111.567V111.562Z" fill="#8512C9"/>
<path d="M259.274 111.77C258.718 111.77 258.24 111.567 257.834 111.162C257.429 110.756 257.226 110.278 257.226 109.722C257.226 109.166 257.429 108.683 257.834 108.267C258.24 107.851 258.723 107.643 259.274 107.643C259.825 107.643 260.334 107.851 260.739 108.267C261.145 108.683 261.347 109.166 261.347 109.722C261.347 110.278 261.145 110.756 260.739 111.162C260.334 111.567 259.845 111.77 259.274 111.77ZM257.616 126.296V113.324H260.963V126.296H257.616Z" fill="#8512C9"/>
<path d="M271.232 112.965C272.651 112.965 273.821 113.443 274.746 114.394C275.671 115.345 276.133 116.66 276.133 118.339V126.301H272.786V118.749C272.786 117.887 272.553 117.221 272.085 116.764C271.617 116.307 270.993 116.078 270.219 116.078C269.356 116.078 268.66 116.348 268.145 116.884C267.626 117.419 267.366 118.225 267.366 119.295V126.301H264.019V113.329H267.366V114.784C268.177 113.573 269.465 112.97 271.232 112.97V112.965Z" fill="#8512C9"/>
<path d="M288.846 113.324H292.192V126.296H288.846V124.768C287.842 126.031 286.434 126.659 284.615 126.659C282.796 126.659 281.403 125.999 280.166 124.674C278.929 123.349 278.311 121.727 278.311 119.81C278.311 117.892 278.929 116.27 280.166 114.945C281.403 113.62 282.884 112.96 284.615 112.96C286.429 112.96 287.842 113.594 288.846 114.852V113.318V113.324ZM282.671 122.445C283.347 123.125 284.204 123.468 285.239 123.468C286.273 123.468 287.136 123.125 287.822 122.445C288.502 121.764 288.846 120.885 288.846 119.81C288.846 118.734 288.502 117.861 287.822 117.175C287.136 116.494 286.278 116.151 285.239 116.151C284.199 116.151 283.347 116.494 282.671 117.175C281.996 117.856 281.658 118.734 281.658 119.81C281.658 120.885 281.996 121.759 282.671 122.445Z" fill="#8512C9"/>
<path d="M302.441 112.965C303.86 112.965 305.029 113.443 305.955 114.394C306.88 115.345 307.342 116.66 307.342 118.339V126.301H303.995V118.749C303.995 117.887 303.761 117.221 303.294 116.764C302.826 116.307 302.202 116.078 301.428 116.078C300.565 116.078 299.869 116.348 299.354 116.884C298.834 117.419 298.575 118.225 298.575 119.295V126.301H295.228V113.329H298.575V114.784C299.385 113.573 300.674 112.97 302.441 112.97V112.965Z" fill="#8512C9"/>
<path d="M316.37 126.659C314.415 126.659 312.784 126.005 311.479 124.69C310.175 123.375 309.52 121.748 309.52 119.815C309.52 117.882 310.175 116.255 311.479 114.94C312.784 113.625 314.415 112.97 316.37 112.97C317.633 112.97 318.781 113.272 319.821 113.88C320.86 114.488 321.645 115.299 322.18 116.317L319.301 118.001C319.041 117.466 318.646 117.04 318.121 116.728C317.591 116.416 316.998 116.26 316.344 116.26C315.341 116.26 314.509 116.593 313.854 117.258C313.194 117.923 312.867 118.775 312.867 119.815C312.867 120.854 313.194 121.681 313.854 122.346C314.509 123.011 315.341 123.344 316.344 123.344C317.019 123.344 317.617 123.193 318.147 122.892C318.672 122.59 319.067 122.169 319.327 121.634L322.232 123.292C321.66 124.31 320.855 125.132 319.821 125.745C318.781 126.358 317.633 126.665 316.37 126.665V126.659Z" fill="#8512C9"/>
<path d="M326.618 121.187C327.07 122.814 328.287 123.624 330.277 123.624C331.556 123.624 332.527 123.193 333.182 122.325L335.88 123.884C334.601 125.734 332.715 126.659 330.225 126.659C328.079 126.659 326.358 126.01 325.064 124.716C323.765 123.416 323.121 121.785 323.121 119.815C323.121 117.845 323.76 116.229 325.038 114.924C326.317 113.62 327.959 112.965 329.965 112.965C331.867 112.965 333.437 113.625 334.674 114.935C335.911 116.25 336.529 117.876 336.529 119.81C336.529 120.241 336.488 120.698 336.399 121.187H326.618ZM326.566 118.594H333.182C332.99 117.71 332.6 117.055 332.003 116.624C331.405 116.192 330.729 115.974 329.965 115.974C329.066 115.974 328.323 116.203 327.736 116.66C327.148 117.118 326.759 117.762 326.566 118.594Z" fill="#8512C9"/>
</g>
<defs>
<clipPath id="clip0_947_321">
<rect width="532" height="126.659" fill="white" transform="translate(-0.00109863)"/>
</clipPath>
</defs>
</svg>
