<svg width="436" height="108" viewBox="0 0 436 108" fill="none" xmlns="http://www.w3.org/2000/svg">
<g clip-path="url(#clip0_766_2320)">
<path d="M19.8699 74.3068L0.072884 2.5087C-0.276374 1.24796 0.673438 0 1.98529 0H17.1567C18.0682 0 18.8604 0.62185 19.0819 1.50777L32.6263 56.3669L47.7551 1.45666C47.9937 0.596294 48.7731 0 49.6675 0H61.521C62.4112 0 63.1949 0.596294 63.4334 1.45666L78.5708 56.3881L92.1833 1.50351C92.4048 0.62185 93.197 0 94.1085 0H109.284C110.592 0 111.542 1.24796 111.197 2.5087L91.3996 74.3068C90.3859 77.9783 87.0467 80.5253 83.2346 80.5253H75.1975C71.3854 80.5253 68.0462 77.9783 67.0325 74.3068L55.5922 32.7792L44.1518 74.3068C43.1381 77.9825 39.7989 80.5253 35.9868 80.5253H28.0348C24.2228 80.5253 20.8836 77.9825 19.8699 74.3068Z" fill="#37506B"/>
<path d="M161.694 73.3357C155.791 79.2049 148.58 82.1353 140.066 82.1353C131.552 82.1353 124.345 79.2007 118.437 73.3357C112.53 67.4707 109.578 60.2811 109.578 51.7669C109.578 43.2526 112.53 36.063 118.437 30.198C124.341 24.3331 131.552 21.3984 140.066 21.3984C148.58 21.3984 155.787 24.3331 161.694 30.198C167.598 36.0673 170.553 43.2569 170.553 51.7669C170.553 60.2768 167.602 67.4707 161.694 73.3357ZM130.636 61.5461C133.166 64.0761 136.309 65.3411 140.07 65.3411C143.831 65.3411 146.974 64.0761 149.504 61.5461C152.034 59.0161 153.299 55.7578 153.299 51.7669C153.299 47.7759 152.034 44.5219 149.504 41.9876C146.974 39.4534 143.827 38.1926 140.07 38.1926C136.313 38.1926 133.17 39.4576 130.636 41.9876C128.106 44.5176 126.841 47.7802 126.841 51.7669C126.841 55.7535 128.106 59.0118 130.636 61.5461Z" fill="#37506B"/>
<path d="M197.588 33.2436C198.662 29.5636 200.825 26.7439 204.088 24.789C206.733 23.2003 209.591 22.259 212.666 21.9608C213.829 21.8458 214.842 22.7743 214.842 23.9456V39.215C214.842 40.3608 213.871 41.2424 212.73 41.1828C209.305 41.0039 206.077 41.7876 203.053 43.5382C199.411 45.6507 197.588 49.3094 197.588 54.5227V77.5653C197.588 79.1966 196.268 80.5169 194.637 80.5169H183.286C181.654 80.5169 180.334 79.1966 180.334 77.5653V25.0147C180.334 23.9073 181.233 23.0043 182.344 23.0043H195.608C196.702 23.0043 197.588 23.8903 197.588 24.9849V33.2393V33.2436Z" fill="#37506B"/>
<path d="M274.151 80.5253H259.563C258.928 80.5253 258.332 80.2229 257.957 79.7075L240.145 55.153V78.5447C240.145 79.6394 239.259 80.5253 238.164 80.5253H224.871C223.777 80.5253 222.891 79.6394 222.891 78.5447V1.98055C222.891 0.885923 223.777 0 224.871 0H238.164C239.259 0 240.145 0.885923 240.145 1.98055V48.1976L256.811 23.8688C257.182 23.3279 257.791 23.0084 258.447 23.0084H273.64C275.258 23.0084 276.195 24.8484 275.241 26.156L258.408 49.2752C257.331 50.7574 257.344 52.7678 258.443 54.233L275.739 77.3564C276.715 78.664 275.786 80.5253 274.151 80.5253Z" fill="#37506B"/>
<path d="M320.985 23.0078H335.126C336.493 23.0078 337.451 24.358 336.996 25.6485L318.255 78.7997C315.035 87.8463 310.797 94.3289 305.541 98.2389C300.724 101.825 294.701 103.606 287.474 103.58C286.37 103.58 285.467 102.694 285.467 101.595V89.3413C285.467 88.2978 286.289 87.4332 287.329 87.3693C290.421 87.1776 292.87 86.4833 294.667 85.295C296.605 84.013 298.203 81.8663 299.455 78.8636C299.715 78.2374 299.698 77.5262 299.433 76.9L278.095 25.7508C277.549 24.4432 278.508 23.0078 279.922 23.0078H294.54C295.374 23.0078 296.12 23.5317 296.401 24.3154L308.697 58.2105L319.081 24.4091C319.337 23.5786 320.104 23.0078 320.977 23.0078H320.985Z" fill="#37506B"/>
<path d="M377.957 21.3984C384.091 21.3984 389.21 23.5068 393.316 27.7234C397.418 31.9443 399.471 37.771 399.471 45.2076V78.5405C399.471 79.6351 398.585 80.521 397.49 80.521H384.197C383.102 80.521 382.217 79.6351 382.217 78.5405V47.7376C382.217 44.3643 381.275 41.7747 379.397 39.973C377.519 38.1713 375.121 37.2684 372.207 37.2684C368.906 37.2684 366.3 38.265 364.383 40.2584C362.466 42.2517 361.508 45.2034 361.508 49.1176V78.5405C361.508 79.6351 360.622 80.521 359.528 80.521H346.234C345.14 80.521 344.254 79.6351 344.254 78.5405V24.989C344.254 23.8944 345.14 23.0084 346.234 23.0084H359.528C360.622 23.0084 361.508 23.8944 361.508 24.989V28.4134C364.958 23.7368 370.44 21.3984 377.957 21.3984Z" fill="#37506B"/>
<path d="M435.981 3.87647L429.443 57.7943C429.307 58.923 428.042 59.5491 427.07 58.9528C425.239 57.8283 423.135 57.0787 420.873 56.8019C418.612 56.5293 416.392 56.755 414.344 57.4067C413.258 57.7559 412.18 56.8444 412.316 55.7157L418.854 1.79796C418.986 0.716107 419.975 -0.0548161 421.061 0.0772206L434.256 1.6787C435.342 1.81073 436.117 2.79462 435.985 3.87647H435.981Z" fill="#37506B"/>
<path d="M427.646 72.9399C427.071 77.6677 422.752 81.0367 418.003 80.4617C413.254 79.8867 409.864 75.5806 410.439 70.8529C410.477 70.5505 410.524 70.2651 410.583 69.984C411.554 65.7162 415.635 62.7944 420.082 63.3311C424.528 63.872 427.791 67.684 427.714 72.0625C427.706 72.3521 427.684 72.6418 427.646 72.9442V72.9399Z" fill="#800639"/>
<path d="M175.571 100.697H181.249V103.504H172.637V88.6221H175.571V100.697Z" fill="#800639"/>
<path d="M184.882 99.3173C185.253 100.65 186.249 101.315 187.881 101.315C188.928 101.315 189.725 100.961 190.262 100.25L192.472 101.528C191.424 103.044 189.878 103.802 187.838 103.802C186.079 103.802 184.669 103.27 183.609 102.209C182.544 101.144 182.016 99.8071 182.016 98.1928C182.016 96.5786 182.54 95.2539 183.587 94.1849C184.635 93.1158 185.981 92.5791 187.625 92.5791C189.184 92.5791 190.47 93.1201 191.484 94.1934C192.498 95.271 193.004 96.6041 193.004 98.1886C193.004 98.5421 192.97 98.9169 192.898 99.3173H184.882ZM184.84 97.1919H190.262C190.104 96.4678 189.784 95.9312 189.295 95.5776C188.805 95.2241 188.251 95.0452 187.625 95.0452C186.888 95.0452 186.279 95.2326 185.798 95.6075C185.317 95.9823 184.997 96.5104 184.84 97.1919ZM190.794 88.5371L188.434 91.4504H185.798L187.497 88.5371H190.794Z" fill="#800639"/>
<path d="M202.975 92.8727H205.654V102.993C205.654 104.637 205.113 105.889 204.027 106.754C202.945 107.618 201.633 108.048 200.104 108.048C198.954 108.048 197.945 107.827 197.076 107.388C196.203 106.95 195.534 106.302 195.065 105.455L197.404 104.117C197.94 105.11 198.869 105.604 200.189 105.604C201.054 105.604 201.735 105.378 202.229 104.922C202.728 104.466 202.975 103.823 202.975 102.988V101.838C202.165 102.916 201.033 103.453 199.572 103.453C198.111 103.453 196.812 102.925 195.798 101.868C194.784 100.812 194.277 99.5257 194.277 98.0094C194.277 96.4931 194.788 95.2238 195.806 94.1633C196.829 93.0985 198.081 92.5703 199.567 92.5703C201.054 92.5703 202.161 93.1112 202.97 94.1846V92.8685L202.975 92.8727ZM197.864 100.113C198.422 100.659 199.137 100.931 200.002 100.931C200.866 100.931 201.578 100.659 202.14 100.113C202.698 99.5683 202.979 98.8697 202.979 98.0179C202.979 97.166 202.698 96.4931 202.14 95.9436C201.582 95.3985 200.866 95.1259 200.002 95.1259C199.137 95.1259 198.426 95.3985 197.864 95.9436C197.306 96.4888 197.025 97.1788 197.025 98.0179C197.025 98.857 197.306 99.5683 197.864 100.113Z" fill="#800639"/>
<path d="M216.221 92.8733H218.964V103.504H216.221V102.252C215.399 103.287 214.245 103.803 212.754 103.803C211.264 103.803 210.122 103.262 209.108 102.176C208.095 101.089 207.588 99.7605 207.588 98.1889C207.588 96.6172 208.095 95.2883 209.108 94.2022C210.122 93.1161 211.336 92.5752 212.754 92.5752C214.241 92.5752 215.399 93.0948 216.221 94.1256V92.8691V92.8733ZM211.161 100.348C211.715 100.906 212.418 101.187 213.265 101.187C214.113 101.187 214.82 100.906 215.382 100.348C215.94 99.7904 216.221 99.0705 216.221 98.1889C216.221 97.3072 215.94 96.5917 215.382 96.0294C214.82 95.4715 214.117 95.1904 213.265 95.1904C212.414 95.1904 211.715 95.4715 211.161 96.0294C210.608 96.5874 210.331 97.3072 210.331 98.1889C210.331 99.0705 210.608 99.7861 211.161 100.348Z" fill="#800639"/>
<path d="M221.453 103.504V87.9834H224.196V103.504H221.453Z" fill="#800639"/>
<path d="M244.622 102.656L242.284 103.994L240.925 102.528C239.775 103.38 238.442 103.802 236.926 103.802C235.41 103.802 234.145 103.402 233.173 102.601C232.202 101.8 231.717 100.727 231.717 99.3809C231.717 98.5035 231.93 97.6857 232.356 96.9361C232.782 96.1864 233.399 95.5774 234.204 95.1088C233.723 94.3422 233.48 93.5159 233.48 92.6214C233.48 91.3607 233.919 90.33 234.796 89.5292C235.674 88.7285 236.785 88.3281 238.135 88.3281C239.2 88.3281 240.15 88.6007 240.993 89.1459C241.837 89.6911 242.463 90.4833 242.876 91.5183L240.367 92.9622C239.958 91.7696 239.226 91.1776 238.178 91.1776C237.667 91.1776 237.245 91.3266 236.913 91.6248C236.581 91.9229 236.415 92.2977 236.415 92.7535C236.415 93.1496 236.508 93.5116 236.7 93.8396C236.892 94.1676 237.198 94.5551 237.624 95.0109L240.806 98.4907C241.117 97.8262 241.36 97.0042 241.53 96.0288L243.996 97.4344C243.728 98.5844 243.293 99.6236 242.701 100.561L244.622 102.66V102.656ZM237.122 101.106C237.859 101.106 238.519 100.927 239.102 100.565L235.882 97.0851C235.853 97.0553 235.84 97.034 235.84 97.0212C235.06 97.5025 234.673 98.1925 234.673 99.0827C234.673 99.6918 234.881 100.182 235.303 100.548C235.72 100.918 236.33 101.102 237.126 101.102L237.122 101.106Z" fill="#800639"/>
<path d="M259.931 103.504L256.924 98.3374H254.7V103.504H251.766V88.6221H257.72C259.096 88.6221 260.263 89.1034 261.23 90.066C262.192 91.0285 262.674 92.1913 262.674 93.5543C262.674 94.4743 262.409 95.3304 261.886 96.1141C261.362 96.902 260.667 97.4941 259.803 97.8902L263.099 103.504H259.931ZM254.7 91.365V95.7648H257.72C258.274 95.7648 258.747 95.5476 259.143 95.1174C259.539 94.6872 259.739 94.1633 259.739 93.5543C259.739 92.9452 259.539 92.4256 259.143 92.0039C258.747 91.578 258.27 91.365 257.72 91.365H254.7Z" fill="#800639"/>
<path d="M273.283 88.6221H276.197V103.504H273.283V97.3365H267.755V103.504H264.82V88.6221H267.755V94.5339H273.283V88.6221Z" fill="#800639"/>
</g>
<defs>
<clipPath id="clip0_766_2320">
<rect width="436" height="108" fill="white"/>
</clipPath>
</defs>
</svg>
