<svg width="40" height="40" viewBox="0 0 40 40" fill="none" xmlns="http://www.w3.org/2000/svg">
<g id="Group 42">
<path id="Rectangle 10" d="M0 0H35C37.7614 0 40 2.23858 40 5V35C40 37.7614 37.7614 40 35 40H0V0Z" fill="#92B838"/>
<path id="Vector" d="M23.7429 22.3421C24.7112 21.0208 25.1449 19.3826 24.9572 17.7553C24.7695 16.128 23.9743 14.6315 22.7307 13.5653C21.487 12.4991 19.8866 11.9418 18.2497 12.0048C16.6128 12.0679 15.0601 12.7467 13.9022 13.9055C12.7442 15.0642 12.0665 16.6174 12.0046 18.2544C11.9427 19.8913 12.5012 21.4913 13.5683 22.7342C14.6354 23.9771 16.1324 24.7712 17.7599 24.9577C19.3874 25.1442 21.0253 24.7094 22.3459 23.7401H22.3449C22.3749 23.7801 22.4069 23.8181 22.4429 23.8551L26.2929 27.7051C26.4804 27.8928 26.7348 27.9983 27 27.9983C27.2653 27.9984 27.5198 27.8932 27.7074 27.7056C27.895 27.5181 28.0005 27.2638 28.0006 26.9985C28.0007 26.7332 27.8954 26.4788 27.7079 26.2911L23.8579 22.4411C23.8221 22.405 23.7837 22.3715 23.7429 22.3411V22.3421ZM24.0009 18.4981C24.0009 19.2204 23.8586 19.9356 23.5822 20.6029C23.3058 21.2702 22.9007 21.8765 22.39 22.3872C21.8793 22.898 21.2729 23.3031 20.6057 23.5795C19.9384 23.8559 19.2232 23.9981 18.5009 23.9981C17.7786 23.9981 17.0634 23.8559 16.3961 23.5795C15.7288 23.3031 15.1225 22.898 14.6118 22.3872C14.1011 21.8765 13.696 21.2702 13.4196 20.6029C13.1432 19.9356 13.0009 19.2204 13.0009 18.4981C13.0009 17.0395 13.5804 15.6405 14.6118 14.6091C15.6433 13.5776 17.0422 12.9981 18.5009 12.9981C19.9596 12.9981 21.3585 13.5776 22.39 14.6091C23.4214 15.6405 24.0009 17.0395 24.0009 18.4981Z" fill="white"/>
</g>
</svg>
