<svg width="24" height="16" viewBox="0 0 24 16" fill="none" xmlns="http://www.w3.org/2000/svg">
<path d="M11.9965 0C14.203 0.00728218 16.191 0.728218 18.0553 1.84967C20.1889 3.13862 21.9804 4.81352 23.5606 6.72145C24.1213 7.3987 24.1505 8.25071 23.6189 8.89883C21.7109 11.2218 19.5117 13.2099 16.7809 14.5352C15.1934 15.3071 13.5257 15.7441 11.7416 15.6931C10.0958 15.6494 8.5593 15.1979 7.09558 14.477C4.77256 13.3337 2.85007 11.6733 1.11691 9.77269C0.854751 9.4814 0.592593 9.19011 0.359563 8.87698C-0.113779 8.25071 -0.128343 7.40598 0.366845 6.80156C2.36216 4.38387 4.66333 2.32302 7.54708 0.997659C8.98167 0.342263 10.5255 0 11.9965 0ZM22.2352 7.85019C20.6623 6.0078 18.951 4.413 16.8901 3.21872C15.5211 2.42497 14.0573 1.87152 12.4625 1.76957C10.8823 1.66762 9.40403 2.06814 7.99857 2.74538C6.11977 3.64837 4.52497 4.9446 3.06853 6.42288C2.61704 6.88166 2.19467 7.36229 1.76502 7.83563C1.816 7.90845 1.83785 7.94486 1.86697 7.98127C3.25787 9.6052 4.80169 11.0544 6.62224 12.1977C8.1078 13.1298 9.68804 13.7997 11.4576 13.9308C12.9359 14.04 14.3195 13.7123 15.6594 13.1152C17.6984 12.2122 19.4025 10.8359 20.9536 9.25565C21.3832 8.80416 21.7983 8.33082 22.2352 7.85019Z" fill="black"/>
<path d="M22.2352 7.85018C21.791 8.33081 21.3832 8.80415 20.9463 9.24836C19.3952 10.8286 17.6912 12.2049 15.6522 13.1079C14.3195 13.6978 12.9286 14.0328 11.4503 13.9235C9.67348 13.7924 8.09325 13.1225 6.61497 12.1904C4.8017 11.0471 3.2506 9.59791 1.8597 7.97398C1.83057 7.93757 1.80873 7.90116 1.75775 7.82834C2.19468 7.35499 2.61705 6.87437 3.06126 6.41559C4.5177 4.93731 6.1125 3.64108 7.9913 2.73809C9.40404 2.06085 10.875 1.66033 12.4553 1.76228C14.0574 1.86423 15.5138 2.41768 16.8828 3.21143C18.951 4.41299 20.6623 6.00779 22.2352 7.85018ZM12.0111 3.92509C9.84097 3.92509 8.07869 5.66553 8.0714 7.80649C8.06412 10.013 9.80456 11.768 11.9819 11.7753C14.1666 11.7753 15.9216 10.0348 15.9216 7.86475C15.9216 5.68009 14.1812 3.92509 12.0111 3.92509Z" fill="white"/>
<path d="M12.011 3.92511C14.1811 3.92511 15.9216 5.68012 15.9216 7.86477C15.9216 10.0349 14.1666 11.7753 11.9819 11.7753C9.80454 11.7753 8.07138 10.013 8.07138 7.80651C8.07138 5.66555 9.84095 3.92511 12.011 3.92511ZM11.9965 5.67283C10.8168 5.67283 9.82639 6.65593 9.8191 7.83564C9.81182 9.02264 10.8095 10.0276 11.9965 10.0276C13.1762 10.0276 14.1666 9.04448 14.1738 7.86477C14.1811 6.67778 13.1835 5.66555 11.9965 5.67283Z" fill="black"/>
<path d="M11.9965 5.67282C13.1835 5.67282 14.1884 6.67776 14.1739 7.86476C14.1666 9.04447 13.1762 10.0276 11.9965 10.0276C10.8095 10.0276 9.80456 9.02262 9.81913 7.83563C9.82641 6.65592 10.8168 5.67282 11.9965 5.67282Z" fill="white"/>
</svg>
