<svg width="89" height="52" viewBox="0 0 89 52" fill="none" xmlns="http://www.w3.org/2000/svg">
<g id="Frame" clip-path="url(#clip0_766_2180)">
<path id="Vector" d="M7.37249 51.2687C7.37249 51.2687 -3.35387 38.3625 1.88844 25.0753C5.30548 16.4144 18.1221 11.6687 25.3571 16.4144C28.438 18.4357 38.3224 16.4826 43.6001 8.11442C53.8563 -8.14692 89.6508 1.72903 83.1334 26.6959C79.9798 38.7779 92.7308 39.2156 86.2338 51.2945L7.37249 51.2687Z" fill="#9FBCE7"/>
<path id="Vector_2" d="M28.7654 51.1763H28.7874C28.9669 51.1731 29.1063 51.0266 29.0884 50.8577L27.8908 38.9092L26.8457 39.0022L28.5654 51.0151C28.5736 51.0616 28.5984 51.1035 28.6351 51.1331C28.6719 51.1628 28.7182 51.1781 28.7654 51.1763Z" fill="#5596F8"/>
<path id="Vector_3" d="M17.2309 51.1763H17.2089C17.0293 51.1731 16.8899 51.0266 16.9078 50.8577L18.1054 38.9092L19.1505 39.0022L17.4308 51.0151C17.4227 51.0616 17.3979 51.1036 17.3612 51.1332C17.3244 51.1629 17.2781 51.1782 17.2309 51.1763Z" fill="#5596F8"/>
<path id="Vector_4" d="M37.2165 51.1763H37.2385C37.4181 51.1731 37.5575 51.0266 37.5396 50.8577L36.342 38.9092L35.2969 39.0022L37.0169 51.0151C37.025 51.0616 37.0497 51.1035 37.0864 51.1332C37.1231 51.1628 37.1694 51.1782 37.2165 51.1763Z" fill="#8CB4F4"/>
<path id="Vector_5" d="M17.5876 37.1716L15.4613 26.684C15.1886 25.2641 16.3664 23.966 17.896 24.0007L21.9962 24.0943C22.6857 24.1097 23.3523 24.3444 23.8989 24.7645C24.4455 25.1846 24.8435 25.768 25.035 26.4298L28.1459 37.1716H17.5876Z" fill="#5596F8"/>
<path id="Vector_6" d="M18.8728 37.1716L16.7464 26.684C16.4738 25.2641 17.6516 23.966 19.1812 24.0007L23.2814 24.0943C23.9707 24.11 24.637 24.3449 25.1834 24.7649C25.7297 25.185 26.1277 25.7682 26.3192 26.4298L29.4298 37.1716H18.8728Z" fill="#5596F8"/>
<path id="Vector_7" d="M34.4035 39.084H18.1807C18.0235 39.084 17.8728 39.0216 17.7617 38.9106C17.6505 38.7996 17.5881 38.6491 17.5881 38.4921V37.1697H34.4035C34.5607 37.1697 34.7114 37.2321 34.8225 37.3431C34.9337 37.4541 34.9961 37.6046 34.9961 37.7616V38.4905C34.9963 38.5684 34.9811 38.6455 34.9514 38.7175C34.9218 38.7895 34.8781 38.8549 34.8231 38.9101C34.768 38.9652 34.7027 39.0089 34.6307 39.0388C34.5587 39.0686 34.4815 39.084 34.4035 39.084Z" fill="#5596F8"/>
<path id="Vector_8" d="M25.7925 39.084H36.1339C36.3976 39.084 36.6113 38.8705 36.6113 38.6071V37.6482C36.6113 37.3848 36.3976 37.1713 36.1339 37.1713H25.7925C25.5288 37.1713 25.315 37.3848 25.315 37.6482V38.6071C25.315 38.8705 25.5288 39.084 25.7925 39.084Z" fill="#5596F8"/>
<path id="Vector_9" d="M31.7207 34.9754C30.8429 36.501 29.7391 37.09 29.7391 37.09H25.1465C25.1465 37.09 32.3901 33.812 31.7207 34.9754Z" fill="#233862"/>
<path id="Vector_10" d="M37.3839 50.1344C37.3345 50.6155 38.0046 50.7397 38.7818 50.7868C39.5591 50.834 39.324 50.9904 40.386 51.1946C41.4481 51.3988 41.8799 51.1121 41.9584 50.9691C42.0286 50.8416 41.5352 50.6374 41.0096 50.4062C40.9435 50.3775 40.8772 50.3475 40.8109 50.3179C40.2196 50.0503 39.8917 49.5145 39.4337 49.0159C39 48.5438 38.5994 47.0408 38.5994 47.0408L37.1543 46.7178C37.1543 46.7178 37.5466 48.0695 37.6815 48.6461C37.7609 48.9853 37.6343 49.3622 37.522 49.6489C37.4621 49.805 37.4011 49.9646 37.3839 50.1344Z" fill="#FDBAA0"/>
<path id="Vector_11" d="M38.7812 50.7864C39.5585 50.8335 39.3234 50.9899 40.3855 51.1941C41.4475 51.3983 41.8793 51.1116 41.9578 50.9686C42.028 50.8412 41.5346 50.637 41.009 50.4057L41.0007 50.4146C40.4726 50.5609 39.9147 50.5616 39.3862 50.4165C38.6846 50.2177 38.0062 49.7896 37.5218 49.6484C37.4615 49.8045 37.4006 49.9641 37.3833 50.1339C37.3349 50.615 38.0049 50.7392 38.7812 50.7864Z" fill="#236FE0"/>
<path id="Vector_12" d="M35.195 33.414C34.4175 32.8686 29.2747 31.8963 26.6498 31.6153L23.7475 29.0986C23.7475 29.0986 21.2784 32.7517 21.2599 35.5465C21.2506 36.8494 21.8515 36.98 21.8518 36.98C21.8521 36.98 31.1513 37.0488 31.5592 37.0909C32.2264 37.1594 33.1063 38.8198 33.3264 40.332C33.5464 41.8442 37.4244 47.9949 37.4244 47.9949C37.4244 47.9949 38.2329 48.2538 38.607 48.2319C39.0091 48.2083 39.1954 48.0726 39.1954 48.0726C39.1954 48.0726 36.9485 34.6424 35.195 33.414Z" fill="#445D78"/>
<path id="Vector_13" d="M34.9796 50.1341C34.9299 50.6151 35.6003 50.7393 36.3775 50.7865C37.1548 50.8336 36.9197 50.9901 37.9818 51.1943C39.0438 51.3985 39.4756 51.1117 39.5541 50.9687C39.6243 50.8413 39.1309 50.6371 38.6053 50.4058C38.5392 50.3771 38.4729 50.3472 38.4066 50.3176C37.8153 50.05 37.4874 49.5141 37.0294 49.0156C36.5957 48.5434 36.1948 47.0404 36.1948 47.0404L34.75 46.7158C34.75 46.7158 35.1423 48.0675 35.2772 48.6441C35.3566 48.9834 35.23 49.3603 35.1177 49.647C35.0578 49.8047 34.9969 49.9643 34.9796 50.1341Z" fill="#FDBAA0"/>
<path id="Vector_14" d="M36.377 50.7864C37.1543 50.8335 36.9192 50.9899 37.9813 51.1941C39.0433 51.3983 39.4752 51.1116 39.5536 50.9686C39.6238 50.8412 39.1304 50.637 38.6048 50.4057L38.5965 50.4146C38.0684 50.5609 37.5105 50.5616 36.9821 50.4165C36.2804 50.2177 35.602 49.7896 35.1176 49.6484C35.0573 49.8045 34.9964 49.9641 34.9792 50.1339C34.9294 50.615 35.5998 50.7392 36.377 50.7864Z" fill="#236FE0"/>
<path id="Vector_15" d="M32.7676 33.4143C32.0925 32.9405 30.0609 32.5732 27.8181 32.2993C27.5152 32.2622 27.2307 32.1343 27.0021 31.9324C26.7735 31.7305 26.6115 31.4641 26.5376 31.1684L21.3218 29.0977C21.3218 29.0977 18.8523 32.7507 18.8341 35.5455C18.8248 36.8484 19.426 36.979 19.426 36.979C19.426 36.979 28.7258 37.0479 29.1334 37.0899C29.8006 37.1584 30.6805 38.8188 30.9006 40.331C31.1207 41.8433 34.9986 47.9939 34.9986 47.9939C34.9986 47.9939 35.8074 48.2529 36.1812 48.2309C36.5834 48.2073 36.7696 48.0716 36.7696 48.0716C36.7696 48.0716 34.5211 34.6427 32.7676 33.4143Z" fill="#445D78"/>
<path id="Vector_16" d="M25.7897 13.9204C25.0727 13.5445 23.9823 13.4936 23.8049 13.4697C21.6847 13.1852 20.4086 16.2626 20.3334 17.1969C20.1953 18.9172 19.2847 19.1778 18.0051 20.2552C15.4358 22.4138 16.1895 24.9219 17.594 25.8537C18.437 26.4128 19.9223 25.8537 19.9223 25.8537C19.943 25.8684 23.9851 23.5966 25.9778 22.5008C28.964 22.0729 27.6162 14.8784 25.7897 13.9204Z" fill="#445D78"/>
<path id="Vector_17" d="M25.3468 21.4393C25.3561 21.4441 24.4047 21.8764 23.718 21.6499C23.0719 21.4371 22.5029 20.4655 22.5118 20.4642C22.7922 20.4234 23.0773 20.1456 23.157 18.5098L23.2811 18.5416L25.3691 19.0685C25.3691 19.0685 25.2865 19.7292 25.2524 20.354C25.2237 20.878 25.2295 21.3772 25.3468 21.4393Z" fill="#FDBAA0"/>
<path id="Vector_18" d="M25.8143 19.1511C25.8143 19.1511 23.053 19.6 22.7994 17.8768C22.5459 16.1537 22.019 15.0533 23.7712 14.694C25.5235 14.3347 25.9633 14.9409 26.1878 15.4952C26.4123 16.0495 26.5259 18.9899 25.8143 19.1511Z" fill="#FDBAA0"/>
<path id="Vector_19" d="M25.8159 14.623C25.8159 14.623 24.5619 16.6001 23.4427 17.0684C22.3236 17.5367 21.7734 17.299 21.7734 17.299C22.1091 16.747 22.3275 16.132 22.4151 15.4921C22.4337 15.342 22.4921 15.1996 22.5842 15.0796C22.6764 14.9596 22.7991 14.8664 22.9395 14.8097C23.7428 14.4892 25.2967 13.9814 25.8159 14.623Z" fill="#445D78"/>
<path id="Vector_20" d="M24.7168 14.8153C24.7168 14.8153 25.4503 15.1931 25.7536 15.5435C26.0458 15.8838 26.3829 16.8076 26.3596 17.2224C26.3596 17.2224 26.7219 15.2345 25.967 14.5512C25.1655 13.8274 24.7168 14.8153 24.7168 14.8153Z" fill="#445D78"/>
<path id="Vector_21" d="M27.5551 25.6453C27.4713 31.2521 27.5322 30.0801 26.9173 30.6121C26.7693 30.7396 26.3534 30.8163 25.8061 30.8526C24.0839 30.9667 21.0601 30.6835 20.9449 30.3659C20.5479 29.2665 20.8282 28.925 20.4984 27.242C20.464 27.0633 20.4212 26.8696 20.3709 26.6584C20.0947 25.5026 19.8261 25.1095 20.8056 23.2526C21.6941 21.5705 22.7389 20.2042 22.8219 20.2532C25.1657 21.6431 25.2457 20.4781 25.2457 20.4781C25.2457 20.4781 27.5969 22.9111 27.5551 25.6453Z" fill="white"/>
<path id="Vector_22" d="M25.2461 20.4785C25.2461 20.4785 27.6448 20.8847 27.928 21.922C28.2112 22.9592 29.878 29.0579 29.878 29.0579C29.878 29.0579 28.652 29.2777 28.0856 28.7119C27.5191 28.1461 26.1145 23.4629 26.1145 23.4629L25.2461 20.4785Z" fill="white"/>
<path id="Vector_23" d="M25.8077 30.8533C24.0854 30.9674 21.0616 30.6842 20.9465 30.3666C20.5494 29.2672 20.8298 28.9257 20.5 27.2427L21.3292 24.9082C21.3292 24.9082 21.1921 27.508 21.9598 28.1917C22.7274 28.8753 25.1025 29.5118 25.4754 30.0834C25.6549 30.3564 25.7732 30.6322 25.8077 30.8533Z" fill="white"/>
<path id="Vector_24" d="M23.8379 29.7596C23.8379 29.7596 25.5356 29.3821 25.8095 29.5325C26.0835 29.6828 26.7529 30.2311 26.8368 30.4219C26.9207 30.6127 26.227 30.2769 26.0012 30.2167C25.8551 30.1776 25.4705 30.3123 25.2801 30.376C24.4789 30.6427 23.9878 30.5057 23.9878 30.5057L23.8379 29.7596Z" fill="#FDBAA0"/>
<path id="Vector_25" d="M22.8224 20.2539C22.8224 20.2539 20.4192 20.3944 19.6302 21.4938C18.5193 23.0414 16.3155 29.6373 17.5785 30.5156C19.0009 31.5064 24.0528 30.775 24.0528 30.775C24.0528 30.775 24.2209 29.99 23.9871 29.6106C23.7533 29.2312 19.9526 28.6176 19.7772 28.4424C19.6018 28.2672 21.9699 25.0257 21.9699 24.5001C21.9699 23.9745 22.8224 20.2539 22.8224 20.2539Z" fill="white"/>
<path id="Vector_26" d="M25.8887 30.0059C25.8887 30.0059 26.2443 30.4643 26.361 30.5191C26.4777 30.5739 26.5524 30.5599 26.5524 30.5599L26.3125 30.1291L25.8887 30.0059Z" fill="#FFB27D"/>
<path id="Vector_27" d="M25.8066 29.5322L26.8409 30.034C26.8409 30.034 26.7969 30.106 26.6697 30.1002C26.5424 30.0945 26.2209 29.9769 26.2209 29.9769L25.8066 29.5322Z" fill="#FDBAA0"/>
<path id="Vector_28" d="M29.6163 30.7221H24.8125C24.8125 30.6207 24.8528 30.5235 24.9246 30.4518C24.9964 30.3801 25.0937 30.3398 25.1952 30.3398H29.6163V30.7221Z" fill="#236FE0"/>
<path id="Vector_29" d="M29.6048 25.4971H37.0318L35.2502 30.7229H27.7754L29.6048 25.4971Z" fill="#236FE0"/>
<path id="Vector_30" d="M37.1392 25.4971L35.3576 30.7229H27.8828L29.7122 25.4971H37.1392Z" fill="#236FE0"/>
<path id="Vector_31" d="M33.1349 28.0608C33.0887 28.2605 32.8893 28.4224 32.6884 28.4224C32.4875 28.4224 32.364 28.2605 32.41 28.0608C32.4559 27.8611 32.6556 27.6992 32.8565 27.6992C33.0574 27.6992 33.1808 27.8611 33.1349 28.0608Z" fill="white"/>
<path id="Vector_32" d="M55.7009 30.7227H23.1541C23.0172 30.7227 22.9062 30.8335 22.9062 30.9702V31.6506C22.9062 31.7874 23.0172 31.8982 23.1541 31.8982H55.7009C55.8377 31.8982 55.9487 31.7874 55.9487 31.6506V30.9702C55.9487 30.8335 55.8377 30.7227 55.7009 30.7227Z" fill="#445D78"/>
<path id="Vector_33" d="M56.4968 51.2634H56.5109C56.5501 51.259 56.588 51.247 56.6225 51.2279C56.657 51.2088 56.6874 51.1831 56.7119 51.1523C56.7365 51.1214 56.7546 51.086 56.7654 51.0481C56.7761 51.0102 56.7793 50.9705 56.7746 50.9314L53.8742 31.3213L52.8125 31.3531L56.2251 51.069C56.2371 51.1299 56.2719 51.1839 56.3224 51.22C56.3729 51.2561 56.4353 51.2716 56.4968 51.2634Z" fill="#445D78"/>
<path id="Vector_34" d="M22.0647 51.2634H22.051C22.0118 51.259 21.9739 51.247 21.9393 51.2279C21.9048 51.2088 21.8744 51.1831 21.8499 51.1523C21.8254 51.1214 21.8072 51.086 21.7965 51.0481C21.7857 51.0102 21.7826 50.9705 21.7873 50.9314L24.6876 31.3213L25.7494 31.3531L22.3368 51.069C22.3248 51.13 22.29 51.1841 22.2394 51.2202C22.1888 51.2563 22.1263 51.2718 22.0647 51.2634Z" fill="#445D78"/>
<path id="Vector_35" d="M28.7779 51.2634H28.7639C28.7247 51.259 28.6868 51.2469 28.6523 51.2278C28.6178 51.2087 28.5874 51.183 28.5629 51.1522C28.5384 51.1213 28.5202 51.0859 28.5094 51.0481C28.4987 51.0102 28.4955 50.9705 28.5001 50.9314L31.4005 31.3213L32.4622 31.3531L29.0496 51.069C29.0376 51.1299 29.0028 51.1839 28.9523 51.22C28.9018 51.2561 28.8394 51.2716 28.7779 51.2634Z" fill="#445D78"/>
<path id="Vector_36" d="M88.4266 51.0781H-1.71283C-1.78082 51.0781 -1.83594 51.1332 -1.83594 51.2011V51.3021C-1.83594 51.37 -1.78082 51.425 -1.71283 51.425H88.4266C88.4946 51.425 88.5497 51.37 88.5497 51.3021V51.2011C88.5497 51.1332 88.4946 51.0781 88.4266 51.0781Z" fill="#2E3552"/>
<path id="Vector_37" d="M45.8887 51.2482H51.6438C51.9207 50.9109 51.8189 49.6659 51.7768 49.2594C51.7682 49.1775 51.7625 49.1297 51.7625 49.1297C51.7625 49.1297 49.7969 47.5595 49.5271 48.7618C49.5188 48.7997 49.5089 48.8363 49.498 48.873C49.1577 49.9975 47.6323 50.5085 46.7514 50.6509C46.1786 50.7452 45.9668 51.0408 45.8887 51.2482Z" fill="#236FE0"/>
<path id="Vector_38" d="M61.5915 32.5684C61.3839 32.5684 51.7329 34.3785 50.1367 36.352C49.3393 37.3396 49.2207 48.7255 49.2207 48.7255C49.2207 48.7255 50.2075 49.9475 52.3383 49.2381C52.3383 49.2381 53.901 41.4469 53.785 39.0837C53.7531 38.4303 60.3789 38.9882 61.5915 38.6756C62.8041 38.3631 65.7673 35.7273 65.1144 34.4435C64.4616 33.1596 61.5915 32.5684 61.5915 32.5684Z" fill="#445D78"/>
<path id="Vector_39" d="M50.1791 29.7793C50.1791 29.7793 48.2336 29.8054 47.7721 30.0023C47.3106 30.1992 46.3777 30.6519 46.6278 30.7213C46.8778 30.7908 48.0703 30.6926 48.3277 30.7321C48.5851 30.7716 48.9034 30.721 49.0612 30.7213H49.9543L50.1791 29.7793Z" fill="#FDBAA0"/>
<path id="Vector_40" d="M47.9033 25.1138C47.9033 25.1138 47.2396 24.6401 46.5957 24.548C46.228 24.4958 45.8708 24.4301 45.6548 24.3543C45.06 24.145 43.8688 23.0762 43.96 22.9507C44.2487 22.549 45.6379 23.3992 45.8803 23.3081C46.1227 23.217 45.4144 22.7137 45.6609 22.5366C45.7885 22.4442 46.0905 22.9074 46.3367 22.9539C46.6697 23.0176 46.9299 23.4865 47.0304 23.5111C47.2253 23.5589 48.08 24.1938 48.08 24.1938L47.9033 25.1138Z" fill="#FDBAA0"/>
<path id="Vector_41" d="M60.631 19.582C60.631 19.582 59.1493 20.0408 57.6892 24.0566C56.2291 28.0725 55.6748 28.2895 55.1441 28.4459C54.6134 28.6023 49.9551 29.529 49.9551 29.529V30.7211H57.133C57.133 30.7211 59.8241 28.1636 60.631 26.4421C61.4379 24.7205 60.631 19.582 60.631 19.582Z" fill="#5596F8"/>
<path id="Vector_42" d="M43.3457 51.2482H49.1009C49.3777 50.9109 49.2756 49.6659 49.2338 49.2594C49.2252 49.1775 49.2192 49.1297 49.2192 49.1297C49.2192 49.1297 47.2539 47.5595 46.9841 48.7618C46.9758 48.7997 46.9656 48.8363 46.9548 48.873C46.6148 49.9975 45.0893 50.5085 44.2084 50.6509C43.6356 50.7452 43.4238 51.0408 43.3457 51.2482Z" fill="#236FE0"/>
<path id="Vector_43" d="M58.7481 32.5684C58.5401 32.5684 48.8895 34.3785 47.2929 36.352C46.4956 37.3396 46.377 48.7255 46.377 48.7255C46.377 48.7255 47.3637 49.9475 49.4945 49.2381C49.4945 49.2381 51.0573 41.4469 50.9412 39.0837C50.9093 38.4303 57.5351 38.9882 58.7481 38.6756C59.961 38.3631 62.9235 35.7273 62.2707 34.4435C61.6178 33.1596 58.7481 32.5684 58.7481 32.5684Z" fill="#445D78"/>
<path id="Vector_44" d="M59.3517 20.854C60.046 20.7969 60.7739 20.6118 61.4031 20.408C62.1896 20.1531 62.8233 19.7807 62.4151 19.0626C62.0384 18.401 61.4293 16.9228 61.4704 15.6982L60.0068 16.8769L59.0133 17.6775C59.0133 17.6775 59.0172 18.149 59.1259 18.9757C59.1457 19.1264 59.169 19.2891 59.1964 19.4631C59.2072 19.5318 59.1975 19.6022 59.1685 19.6655C59.1394 19.7287 59.0923 19.782 59.0331 19.8186L59.0105 19.8326C58.5164 20.1413 58.7706 20.9021 59.3517 20.854Z" fill="#FDBAA0"/>
<path id="Vector_45" d="M58.1941 17.6261C58.1941 17.6261 61.6032 18.1916 61.9231 16.0651C62.243 13.9387 62.8987 12.5806 60.7357 12.1295C58.5727 11.6784 58.0267 12.4258 57.7473 13.1094C57.4679 13.7931 57.3158 17.4229 58.1941 17.6261Z" fill="#FDBAA0"/>
<path id="Vector_46" d="M57.2474 12.1697C57.101 12.6817 57.4927 13.3051 58.1503 13.5106C59.1265 13.8151 58.9106 15.0114 59.3501 14.9951C59.7896 14.9789 59.9666 14.3076 60.3589 14.8438C60.6938 15.3013 60.0805 15.8438 60.1226 16.0945C60.195 16.5252 60.8705 17.4064 61.479 17.3621C62.0875 17.3178 63.2264 14.4287 62.9987 13.5348C62.771 12.6409 61.8598 11.6986 60.9974 11.5686C60.135 11.4386 58.9377 11.8104 58.6612 11.8104C58.3847 11.8104 57.3249 11.8932 57.2474 12.1697Z" fill="#445D78"/>
<path id="Vector_47" d="M65.1624 22.5316C64.6696 20.5507 63.3084 18.4736 62.387 18.4736C60.8179 18.4765 58.5624 18.8903 57.6518 21.1343C56.9821 22.7871 56.0862 32.2938 57.0975 32.9701C59.4088 34.5158 64.7666 37.6709 65.7183 34.4534C66.5906 31.5053 66.0174 25.9696 65.1624 22.5316Z" fill="#5596F8"/>
<path id="Vector_48" d="M61.35 20.56C61.2459 20.2895 61.0799 20.047 60.8653 19.852C60.6506 19.657 60.3931 19.5149 60.1136 19.4372C59.834 19.3594 59.5402 19.3481 59.2555 19.4042C58.9708 19.4603 58.7032 19.5822 58.4741 19.7601C57.9415 20.1743 57.2893 20.7633 56.5019 21.6011C53.5737 24.7158 52.9786 24.6963 52.4288 24.632C51.8789 24.5676 47.2327 23.5826 47.2327 23.5826C47.0754 23.7068 46.9465 23.8632 46.8548 24.0414C46.6679 24.4198 46.762 24.6785 46.762 24.6785C46.5799 24.5609 48.4089 25.8202 49.3192 26.3223C50.5215 26.9856 52.3331 27.6071 53.0545 27.8432C53.2589 27.9099 53.4798 27.9067 53.6822 27.8339C54.7531 27.4481 58.3494 26.0432 61.2772 23.6052C62.0484 22.9624 61.7649 21.6384 61.35 20.56Z" fill="#5596F8"/>
<path id="Vector_49" d="M62.5439 18.4926L62.1886 17.6934C62.1886 17.6934 59.0088 17.9524 58.4746 19.7599C58.4746 19.7599 60.9393 18.5315 62.5439 18.4926Z" fill="white"/>
<path id="Vector_50" d="M70.2634 51.1763H70.2851C70.4647 51.1731 70.604 51.0266 70.5865 50.8577L69.3889 38.9092L68.3438 39.0022L70.0634 51.0151C70.0716 51.0616 70.0963 51.1036 70.1331 51.1332C70.1699 51.1629 70.2162 51.1782 70.2634 51.1763Z" fill="#236FE0"/>
<path id="Vector_51" d="M64.0974 51.1763H64.1194C64.299 51.1731 64.4383 51.0266 64.4208 50.8577L63.2229 38.9092L62.1777 39.0022L63.8977 51.0151C63.9058 51.0616 63.9305 51.1035 63.9672 51.1332C64.004 51.1628 64.0502 51.1782 64.0974 51.1763Z" fill="#236FE0"/>
<path id="Vector_52" d="M52.5241 51.1763H52.5021C52.3225 51.1731 52.1832 51.0266 52.2007 50.8577L53.3986 38.9092L54.4438 39.0022L52.7241 51.0151C52.7159 51.0616 52.6911 51.1035 52.6543 51.1331C52.6176 51.1628 52.5713 51.1781 52.5241 51.1763Z" fill="#236FE0"/>
<path id="Vector_53" d="M69.9244 37.2167L71.0614 27.2372C71.2103 25.7992 70.7284 24.3911 68.6509 24.2819L64.9956 24.0589C62.8294 23.9697 61.8512 25.7705 61.5769 27.1573L59.4082 38.1272L69.9244 37.2167Z" fill="#236FE0"/>
<path id="Vector_54" d="M53.0926 37.1709H69.908V38.4917C69.908 38.6487 69.8456 38.7992 69.7344 38.9102C69.6233 39.0212 69.4726 39.0836 69.3154 39.0836H53.0926C52.9354 39.0836 52.7847 39.0212 52.6736 38.9102C52.5624 38.7992 52.5 38.6487 52.5 38.4917V37.7628C52.5 37.6058 52.5624 37.4553 52.6736 37.3443C52.7847 37.2333 52.9354 37.1709 53.0926 37.1709Z" fill="#236FE0"/>
<path id="Vector_55" d="M59.8684 37.1709H69.9075V38.6239C69.9077 38.6844 69.8959 38.7443 69.8729 38.8003C69.8499 38.8563 69.816 38.9071 69.7732 38.95C69.7305 38.9928 69.6797 39.0268 69.6237 39.05C69.5678 39.0732 69.5078 39.0852 69.4473 39.0852H59.8684C59.7464 39.0852 59.6293 39.0367 59.543 38.9505C59.4567 38.8643 59.4082 38.7474 59.4082 38.6255V37.6322C59.408 37.5717 59.4197 37.5117 59.4428 37.4558C59.4658 37.3998 59.4997 37.349 59.5424 37.3061C59.5852 37.2632 59.636 37.2292 59.6919 37.206C59.7479 37.1828 59.8079 37.1709 59.8684 37.1709Z" fill="#236FE0"/>
</g>
<defs>
<clipPath id="clip0_766_2180">
<rect width="87.7272" height="51.2692" fill="white" transform="translate(0.445312 0.15625)"/>
</clipPath>
</defs>
</svg>
