<svg width="79" height="78" viewBox="0 0 79 78" fill="none" xmlns="http://www.w3.org/2000/svg">
<g id="Frame" clip-path="url(#clip0_766_2116)">
<path id="Vector" d="M69.8391 32.9921C66.6419 30.1607 62.7874 13.0836 49.5831 21.9778C42.761 26.5732 31.2579 18.0331 21.7365 20.9825C12.9928 23.6915 12.1499 32.617 12.9961 35.5254C14.7051 41.3999 9.38656 42.2758 4.4529 44.7982C-3.2872 48.7575 2.44918 62.8197 9.76031 62.8875C17.0714 62.9554 61.3068 62.8875 61.3068 62.8875C61.3068 62.8875 71.9405 62.6352 76.3573 56.549C81.1103 49.9973 78.0964 40.3063 69.8391 32.9921Z" fill="#9FBCE7"/>
<path id="Vector_2" d="M26.3672 61.3095C26.3672 61.3095 26.4596 62.86 26.7485 62.8824C26.787 62.8855 28.2141 62.8855 28.2141 62.8855L30.0358 62.8743C30.0358 62.8743 30.0241 62.4187 29.4915 62.3224C28.959 62.2261 28.0677 61.8373 27.7449 61.1066C27.4058 60.3376 26.3672 61.3095 26.3672 61.3095Z" fill="#236FE0"/>
<path id="Vector_3" d="M25.7092 43.2119C25.7092 43.2119 26.5027 43.4236 27.0072 43.2655C27.5116 43.1074 28.3794 43.3673 28.5198 43.5579C28.6603 43.7486 28.6084 43.8249 28.3588 43.891C28.1092 43.9572 27.2254 44.3483 26.6442 44.1217C26.063 43.8951 25.3047 43.887 25.3047 43.887L25.7092 43.2119Z" fill="#FDBAA0"/>
<path id="Vector_4" d="M18.8496 36.0547C18.8496 36.0547 19.7412 42.6354 21.2176 43.223C21.9458 43.514 25.1653 44.1728 26.1183 44.2406C26.1183 44.2406 26.3515 44.0439 26.2947 43.2443C26.2947 43.2443 22.9217 41.9584 22.4428 41.2593C21.7296 40.2189 22.8855 37.0082 21.9906 36.0309C21.0957 35.0536 19.588 34.632 18.8496 36.0547Z" fill="#445D78"/>
<path id="Vector_5" d="M18.9641 61.4047V59.9692H16.7888C16.7606 59.9691 16.7335 59.9574 16.7135 59.9367C16.6935 59.916 16.6822 59.8879 16.682 59.8586V59.6299C16.6821 59.6005 16.6934 59.5724 16.7134 59.5516C16.7334 59.5308 16.7605 59.5191 16.7888 59.519H18.9641V51.3531C18.9643 51.2427 19.0067 51.1369 19.0819 51.0588C19.1571 50.9808 19.259 50.9368 19.3653 50.9365H19.7956C19.9019 50.9368 20.0038 50.9808 20.079 51.0588C20.1542 51.1369 20.1965 51.2427 20.1968 51.3531V59.5187H22.372C22.4003 59.5188 22.4274 59.5305 22.4475 59.5513C22.4675 59.572 22.4788 59.6002 22.4788 59.6296V59.8596C22.4787 59.8889 22.4673 59.917 22.4473 59.9377C22.4273 59.9584 22.4003 59.9701 22.372 59.9702H20.1968V61.4047C21.7705 61.5282 23.0316 62.1171 23.3855 62.8766H15.7754C16.1292 62.1164 17.3903 61.5295 18.9641 61.4047Z" fill="#38516B"/>
<path id="Vector_6" d="M19.1503 49.9157C19.4116 50.3672 19.7025 50.7995 20.0209 51.2095C20.9792 52.4646 22.0224 53.5012 22.204 54.4802C22.2455 54.693 22.3019 54.9024 22.3726 55.1067C22.4484 55.331 22.5422 55.5667 22.6506 55.8103C23.0571 56.7262 23.6654 57.755 24.2724 58.6892C25.3222 60.3039 26.3088 61.6512 26.3088 61.6512L28.1188 61.5712C28.0463 61.3829 27.2569 59.1532 26.201 56.4287C25.772 55.3222 25.3163 54.1461 24.8752 53.0114C24.8167 52.8598 24.7579 52.7092 24.7001 52.5596C24.5655 52.2122 24.4332 51.8703 24.3038 51.5375L22.5229 46.9435C22.5229 46.9435 18.5596 45.3831 18.1482 46.395C17.8094 47.2261 18.0858 48.0419 19.1503 49.9157Z" fill="#38516B"/>
<path id="Vector_7" d="M22.1743 56.8799C22.1743 56.8799 20.9155 57.7198 21.0376 57.9925C21.054 58.0288 21.7496 59.3226 21.7496 59.3226L22.647 60.9688C22.647 60.9688 23.0244 60.7357 22.846 60.2062C22.6676 59.6767 22.5595 58.6798 23.0169 58.0302C23.4978 57.3477 22.1743 56.8799 22.1743 56.8799Z" fill="#236FE0"/>
<path id="Vector_8" d="M23.8787 46.2012C23.8787 46.2012 28.8532 49.419 29.4086 51.5805C29.964 53.7419 22.7911 58.3549 22.7911 58.3549C22.7911 58.3549 22.0047 57.6344 21.8658 57.1059C21.8658 57.1059 25.1078 53.073 25.8112 52.169C26.2431 51.6137 19.4246 50.247 18.5909 48.9017C17.7571 47.5563 18.056 46.4254 18.056 46.4254L23.8787 46.2012Z" fill="#38516B"/>
<path id="Vector_9" d="M24.6706 50.334H14.4893C14.2849 50.334 14.1191 50.5061 14.1191 50.7183V52.8326C14.1191 53.0449 14.2849 53.217 14.4893 53.217H24.6706C24.875 53.217 25.0407 53.0449 25.0407 52.8326V50.7183C25.0407 50.5061 24.875 50.334 24.6706 50.334Z" fill="#236FE0"/>
<path id="Vector_10" d="M21.5791 34.9267C21.8716 35.114 22.1286 35.3554 22.3371 35.6391C21.1452 35.959 19.168 34.8124 19.168 34.8124C19.168 34.8124 19.9351 34.2775 20.2193 33.1014C20.2337 33.0422 20.2467 32.9813 20.2582 32.9189C20.298 32.7065 20.3199 32.4908 20.3235 32.2744L20.8708 32.7832L21.7813 33.6313C21.7813 33.6313 21.7607 33.9827 21.6467 34.5868C21.6278 34.693 21.6052 34.8063 21.5791 34.9267Z" fill="#FDBAA0"/>
<path id="Vector_11" d="M17.9128 40.7645C18.0833 43.1485 17.7961 46.7723 17.9899 47.4002C18.1572 47.943 20.124 47.6214 20.8839 47.4406C21.1652 47.3727 21.5046 47.2781 21.8581 47.1651C22.8383 46.8493 23.9092 46.3989 24.0242 46.0641C24.0286 46.0515 24.0321 46.0387 24.0347 46.0257C24.0444 45.9794 24.0437 45.9313 24.0327 45.8853C23.9945 45.7157 23.8468 45.5305 23.8295 45.1081C23.8102 44.6366 23.8132 44.0813 23.7968 43.4847C23.7968 43.4168 23.7949 43.3439 23.788 43.2771V43.2526V43.2143C23.7714 42.5488 23.738 41.8486 23.6992 41.1546C23.6743 40.7184 23.6459 40.2869 23.6129 39.873C23.5273 38.8052 23.412 37.8557 23.2591 37.2553C23.0098 36.2767 22.4593 35.6383 21.9584 35.1705L21.5961 34.8479C21.192 34.9395 20.714 34.8788 20.2818 34.6661C19.8139 34.4354 19.6522 34.2702 19.5708 34.3326C18.4881 35.198 17.7112 37.8503 17.9128 40.7645Z" fill="#445D78"/>
<path id="Vector_12" d="M21.8518 47.1694C22.8319 46.8536 23.9032 46.4032 24.0179 46.0683C24.0225 46.0559 24.0261 46.0431 24.0287 46.03L24.0267 45.8896C23.9881 45.72 23.8408 45.5348 23.8235 45.1124C23.8042 44.6409 23.8071 44.086 23.7908 43.489C23.7908 43.4211 23.7908 43.3482 23.782 43.2814V43.2569C23.782 43.244 23.782 43.2315 23.782 43.2186L20.0732 41.4727C20.0732 41.4727 19.8582 44.5755 21.8518 47.1694Z" fill="#445D78"/>
<path id="Vector_13" d="M21.7823 33.6318C21.7823 33.6318 21.7617 33.9833 21.6476 34.5874C20.7603 34.2906 20.3555 33.4558 20.2209 33.1033C20.1827 33.0036 20.166 32.9419 20.166 32.9419L20.2598 32.9208L20.8717 32.7852L21.7823 33.6318Z" fill="#FDBAA0"/>
<path id="Vector_14" d="M22.141 33.6221C22.141 33.6221 20.1883 33.8511 20.0697 32.5861C19.9511 31.3212 19.6195 30.4986 20.8613 30.2992C22.1031 30.0997 22.391 30.558 22.5295 30.9701C22.668 31.3823 22.6461 33.5302 22.141 33.6221Z" fill="#FDBAA0"/>
<path id="Vector_15" d="M20.0769 32.6732C20.0769 32.6732 20.2007 30.9941 21.9783 30.8201C23.196 30.701 22.5171 29.6128 22.3874 29.4395C22.3874 29.4395 21.4546 29.5721 20.4983 29.7363C18.491 30.0806 19.8799 32.4117 20.0769 32.6732Z" fill="#38516B"/>
<path id="Vector_16" d="M29.5303 44.8623L29.7012 44.9199L31.1556 40.2724L30.9847 40.2147L29.5303 44.8623Z" fill="#38516B"/>
<path id="Vector_17" d="M24.7634 44.8117L29.7012 44.9209L29.7075 44.6143L24.7697 44.5051L24.7634 44.8117Z" fill="#38516B"/>
<path id="Vector_18" d="M25.2989 44.2246C25.2989 44.2246 26.0651 44.5258 26.5832 44.4281C27.1014 44.3304 27.9371 44.6863 28.0557 44.8922C28.1743 45.0981 28.1155 45.1673 27.8597 45.2043C27.6039 45.2412 26.6835 45.5292 26.1311 45.2382C25.5786 44.9471 24.8242 44.8515 24.8242 44.8515L25.2989 44.2246Z" fill="#FDBAA0"/>
<path id="Vector_19" d="M19.2441 36.3255C19.2441 36.3255 19.4317 42.967 20.8365 43.7204C21.5298 44.0935 24.659 45.1166 25.599 45.2913C25.599 45.2913 25.8515 45.1217 25.88 44.3211C25.88 44.3211 22.6641 42.6573 22.2623 41.9076C21.6638 40.7916 23.1536 37.7329 22.3681 36.6593C21.5827 35.5857 20.1289 34.9948 19.2441 36.3255Z" fill="#445D78"/>
<path id="Vector_20" d="M37.1452 52.1855L62.6276 52.1855C64.406 52.1855 65.8477 50.6887 65.8477 48.8422V12.6669C65.8477 10.8205 64.406 9.32363 62.6276 9.32363L37.1452 9.32363C35.3668 9.32363 33.9251 10.8205 33.9251 12.6669V48.8422C33.9251 50.6887 35.3668 52.1855 37.1452 52.1855Z" fill="#236FE0"/>
<path id="Vector_21" d="M37.0604 47.8486H62.7617L62.7617 13.8175H37.0604V47.8486Z" fill="white"/>
<path id="Vector_22" d="M59.1179 46.3543C58.7582 46.3543 58.4133 46.206 58.1589 45.9419C57.9046 45.6778 57.7617 45.3197 57.7617 44.9462V25.48C57.7618 25.1066 57.9047 24.7486 58.159 24.4846C58.4134 24.2206 58.7583 24.0723 59.1179 24.0723C59.4775 24.0723 59.8224 24.2206 60.0767 24.4846C60.3311 24.7486 60.474 25.1066 60.4741 25.48V44.9462C60.4741 45.3197 60.3312 45.6778 60.0769 45.9419C59.8225 46.206 59.4776 46.3543 59.1179 46.3543Z" fill="#445D78"/>
<path id="Vector_23" d="M54.6723 46.3538C54.4942 46.3538 54.3178 46.3174 54.1533 46.2466C53.9888 46.1759 53.8393 46.0721 53.7134 45.9414C53.5875 45.8106 53.4876 45.6554 53.4195 45.4846C53.3514 45.3137 53.3164 45.1306 53.3164 44.9457V19.2671C53.3164 18.8938 53.4593 18.5357 53.7135 18.2717C53.9678 18.0077 54.3127 17.8594 54.6723 17.8594C54.8503 17.8593 55.0267 17.8957 55.1912 17.9664C55.3558 18.0372 55.5053 18.1408 55.6312 18.2716C55.7571 18.4023 55.857 18.5575 55.9252 18.7283C55.9933 18.8991 56.0284 19.0822 56.0284 19.2671V44.9457C56.0285 45.1307 55.9934 45.3138 55.9253 45.4846C55.8571 45.6555 55.7573 45.8107 55.6313 45.9415C55.5054 46.0723 55.3558 46.176 55.1913 46.2467C55.0267 46.3175 54.8504 46.3539 54.6723 46.3538Z" fill="#445D78"/>
<path id="Vector_24" d="M49.8249 46.3542C49.4652 46.3542 49.1203 46.2059 48.866 45.9418C48.6116 45.6777 48.4688 45.3196 48.4688 44.9461V30.8687C48.4688 30.4953 48.6118 30.1372 48.8661 29.8732C49.1204 29.6092 49.4653 29.4609 49.8249 29.4609C50.1845 29.4609 50.5294 29.6093 50.7837 29.8733C51.0379 30.1373 51.1808 30.4953 51.1808 30.8687V44.9461C51.1808 45.131 51.1458 45.3141 51.0777 45.4849C51.0095 45.6558 50.9097 45.811 50.7838 45.9418C50.6579 46.0725 50.5084 46.1763 50.3439 46.247C50.1793 46.3178 50.003 46.3542 49.8249 46.3542Z" fill="#445D78"/>
<path id="Vector_25" d="M45.1062 46.3532C44.7465 46.3532 44.4015 46.2048 44.1472 45.9408C43.8929 45.6767 43.75 45.3185 43.75 44.9451V23.0721C43.75 22.6987 43.8929 22.3405 44.1472 22.0765C44.4015 21.8124 44.7465 21.6641 45.1062 21.6641C45.4659 21.6641 45.8108 21.8124 46.0651 22.0765C46.3195 22.3405 46.4624 22.6987 46.4624 23.0721V44.9451C46.4624 45.3185 46.3195 45.6767 46.0651 45.9408C45.8108 46.2048 45.4659 46.3532 45.1062 46.3532Z" fill="#445D78"/>
<path id="Vector_26" d="M41.7198 34.1747V44.9458C41.7199 45.1307 41.6848 45.3138 41.6167 45.4847C41.5486 45.6556 41.4487 45.8108 41.3227 45.9416C41.1968 46.0723 41.0473 46.176 40.8827 46.2468C40.7181 46.3175 40.5418 46.3539 40.3637 46.3539C40.1856 46.3539 40.0092 46.3175 39.8447 46.2467C39.6802 46.1759 39.5307 46.0722 39.4048 45.9414C39.2789 45.8107 39.179 45.6555 39.1109 45.4846C39.0428 45.3138 39.0078 45.1307 39.0078 44.9458V34.1747C39.0078 33.8013 39.1506 33.4432 39.4049 33.1791C39.6592 32.9151 40.004 32.7667 40.3637 32.7666C40.7233 32.7666 41.0683 32.915 41.3226 33.179C41.577 33.4431 41.7198 33.8012 41.7198 34.1747Z" fill="#445D78"/>
<path id="Vector_27" d="M43.8814 19.9201H46.1781C46.2101 19.9189 46.242 19.9243 46.2718 19.9362C46.3017 19.948 46.329 19.966 46.352 19.989C46.375 20.0121 46.3933 20.0397 46.4058 20.0703C46.4184 20.1008 46.4248 20.1337 46.4248 20.1669C46.4248 20.2001 46.4184 20.2329 46.4058 20.2635C46.3933 20.294 46.375 20.3217 46.352 20.3447C46.329 20.3677 46.3017 20.3857 46.2718 20.3976C46.242 20.4094 46.2101 20.4149 46.1781 20.4136H43.8814C43.8199 20.4113 43.7616 20.3842 43.7189 20.3382C43.6762 20.2922 43.6523 20.2308 43.6523 20.1669C43.6523 20.103 43.6762 20.0415 43.7189 19.9955C43.7616 19.9495 43.8199 19.9225 43.8814 19.9201Z" fill="#5596F8"/>
<path id="Vector_28" d="M45.6555 20.8193H46.1782C46.2412 20.8193 46.3016 20.8453 46.3462 20.8916C46.3907 20.9378 46.4157 21.0005 46.4157 21.0659C46.4157 21.1314 46.3907 21.1941 46.3462 21.2403C46.3016 21.2866 46.2412 21.3126 46.1782 21.3126H45.6555C45.5925 21.3126 45.5321 21.2866 45.4875 21.2403C45.443 21.1941 45.418 21.1314 45.418 21.0659C45.418 21.0005 45.443 20.9378 45.4875 20.8916C45.5321 20.8453 45.5925 20.8193 45.6555 20.8193Z" fill="#5596F8"/>
<path id="Vector_29" d="M53.3462 16.1348H55.643C55.7045 16.1371 55.7627 16.1642 55.8055 16.2102C55.8482 16.2562 55.872 16.3176 55.872 16.3815C55.872 16.4455 55.8482 16.5069 55.8055 16.5529C55.7627 16.5989 55.7045 16.626 55.643 16.6283H53.3462C53.2847 16.626 53.2265 16.5989 53.1838 16.5529C53.1411 16.5069 53.1172 16.4455 53.1172 16.3815C53.1172 16.3176 53.1411 16.2562 53.1838 16.2102C53.2265 16.1642 53.2847 16.1371 53.3462 16.1348Z" fill="#5596F8"/>
<path id="Vector_30" d="M55.1184 17.0322H55.6411C55.7041 17.0324 55.7644 17.0584 55.8089 17.1047C55.8534 17.1509 55.8785 17.2135 55.8786 17.2788C55.8785 17.3442 55.8534 17.4068 55.8089 17.453C55.7644 17.4992 55.7041 17.5253 55.6411 17.5254H55.1184C55.0554 17.5253 54.9951 17.4992 54.9506 17.453C54.9061 17.4068 54.881 17.3442 54.8809 17.2788C54.881 17.2135 54.9061 17.1509 54.9506 17.1047C54.9951 17.0584 55.0554 17.0324 55.1184 17.0322Z" fill="#5596F8"/>
<path id="Vector_31" d="M57.9387 22.3418H60.2355C60.2985 22.3418 60.3589 22.3678 60.4034 22.414C60.448 22.4603 60.473 22.523 60.473 22.5884C60.473 22.6538 60.448 22.7165 60.4034 22.7628C60.3589 22.809 60.2985 22.835 60.2355 22.835H57.9387C57.8757 22.835 57.8153 22.809 57.7707 22.7628C57.7262 22.7165 57.7012 22.6538 57.7012 22.5884C57.7012 22.523 57.7262 22.4603 57.7707 22.414C57.8153 22.3678 57.8757 22.3418 57.9387 22.3418Z" fill="#5596F8"/>
<path id="Vector_32" d="M59.7121 23.2393H60.2349C60.2978 23.2394 60.3582 23.2655 60.4027 23.3117C60.4473 23.3579 60.4725 23.4205 60.4727 23.4859C60.4725 23.5513 60.4473 23.6139 60.4028 23.6602C60.3582 23.7064 60.2979 23.7325 60.2349 23.7328H59.7121C59.6492 23.7325 59.5888 23.7064 59.5443 23.6602C59.4998 23.6139 59.4748 23.5512 59.4746 23.4859C59.4748 23.4205 59.4999 23.3579 59.5444 23.3117C59.5889 23.2655 59.6492 23.2394 59.7121 23.2393Z" fill="#5596F8"/>
<path id="Vector_33" d="M48.6763 27.7324H50.9731C51.0346 27.7348 51.0928 27.7618 51.1355 27.8078C51.1782 27.8539 51.2021 27.9153 51.2021 27.9792C51.2021 28.0431 51.1782 28.1045 51.1355 28.1506C51.0928 28.1966 51.0346 28.2236 50.9731 28.226H48.6763C48.6148 28.2236 48.5566 28.1966 48.5138 28.1506C48.4711 28.1045 48.4473 28.0431 48.4473 27.9792C48.4473 27.9153 48.4711 27.8539 48.5138 27.8078C48.5566 27.7618 48.6148 27.7348 48.6763 27.7324Z" fill="#5596F8"/>
<path id="Vector_34" d="M50.4504 28.6299H50.9731C51.0361 28.6301 51.0964 28.6561 51.1409 28.7023C51.1854 28.7485 51.2105 28.8111 51.2107 28.8765C51.2105 28.9418 51.1854 29.0045 51.1409 29.0507C51.0964 29.0969 51.0361 29.1229 50.9731 29.1231H50.4504C50.3875 29.1229 50.3272 29.0969 50.2826 29.0507C50.2381 29.0045 50.2131 28.9418 50.2129 28.8765C50.2131 28.8111 50.2381 28.7485 50.2826 28.7023C50.3272 28.6561 50.3875 28.6301 50.4504 28.6299Z" fill="#5596F8"/>
<path id="Vector_35" d="M39.2173 31.0295H41.5141C41.546 31.0282 41.5779 31.0337 41.6078 31.0456C41.6377 31.0574 41.6649 31.0754 41.6879 31.0984C41.711 31.1215 41.7293 31.1491 41.7418 31.1796C41.7543 31.2102 41.7607 31.243 41.7607 31.2762C41.7607 31.3094 41.7543 31.3423 41.7418 31.3729C41.7293 31.4034 41.711 31.431 41.6879 31.4541C41.6649 31.4771 41.6377 31.4951 41.6078 31.5069C41.5779 31.5188 41.546 31.5243 41.5141 31.523H39.2173C39.1558 31.5207 39.0976 31.4936 39.0549 31.4476C39.0121 31.4016 38.9883 31.3402 38.9883 31.2762C38.9883 31.2123 39.0121 31.1509 39.0549 31.1049C39.0976 31.0589 39.1558 31.0318 39.2173 31.0295Z" fill="#5596F8"/>
<path id="Vector_36" d="M40.9914 31.9268H41.5142C41.5772 31.9268 41.6376 31.9527 41.6821 31.999C41.7267 32.0452 41.7517 32.108 41.7517 32.1734C41.7517 32.2388 41.7267 32.3015 41.6821 32.3477C41.6376 32.394 41.5772 32.42 41.5142 32.42H40.9914C40.9284 32.42 40.868 32.394 40.8235 32.3477C40.7789 32.3015 40.7539 32.2388 40.7539 32.1734C40.7539 32.108 40.7789 32.0452 40.8235 31.999C40.868 31.9527 40.9284 31.9268 40.9914 31.9268Z" fill="#5596F8"/>
<path id="Vector_37" d="M40.3657 30.3266C40.1989 30.3263 40.0359 30.2746 39.8973 30.1781C39.7587 30.0816 39.6508 29.9447 39.5872 29.7845C39.5236 29.6244 39.5071 29.4483 39.5399 29.2784C39.5726 29.1086 39.6531 28.9526 39.7712 28.8303C39.8893 28.7079 40.0396 28.6246 40.2033 28.5909C40.367 28.5573 40.5365 28.5747 40.6907 28.6411C40.8448 28.7074 40.9765 28.8197 41.0691 28.9638C41.1618 29.1079 41.2112 29.2772 41.2112 29.4504C41.211 29.683 41.1217 29.906 40.9632 30.0703C40.8046 30.2346 40.5897 30.3268 40.3657 30.3266ZM40.3657 28.9134C40.2635 28.9138 40.1636 28.9455 40.0788 29.0048C39.994 29.064 39.9279 29.1479 39.889 29.2461C39.8502 29.3442 39.8401 29.4522 39.8603 29.5562C39.8804 29.6603 39.9298 29.7558 40.0022 29.8307C40.0746 29.9056 40.1668 29.9566 40.267 29.9772C40.3673 29.9978 40.4712 29.987 40.5656 29.9464C40.66 29.9057 40.7407 29.8368 40.7975 29.7486C40.8542 29.6603 40.8845 29.5565 40.8845 29.4504C40.8844 29.3798 40.8709 29.3099 40.8448 29.2446C40.8187 29.1794 40.7804 29.1202 40.7323 29.0703C40.6841 29.0204 40.6269 28.9809 40.564 28.954C40.5011 28.9271 40.4337 28.9133 40.3657 28.9134Z" fill="#38516B"/>
<path id="Vector_38" d="M40.0049 28.913C39.9616 28.9129 39.9201 28.895 39.8896 28.8632L37.3546 26.2298H16.7473C16.704 26.2298 16.6625 26.212 16.6318 26.1802C16.6012 26.1484 16.584 26.1052 16.584 26.0602C16.584 26.0152 16.6012 25.9721 16.6318 25.9403C16.6625 25.9085 16.704 25.8906 16.7473 25.8906H37.4886L40.1205 28.625C40.1434 28.6488 40.159 28.679 40.1654 28.7119C40.1717 28.7449 40.1685 28.779 40.1561 28.8101C40.1437 28.8411 40.1227 28.8676 40.0958 28.8862C40.0689 28.9049 40.0372 28.9148 40.0049 28.9147V28.913Z" fill="#38516B"/>
<path id="Vector_39" d="M45.2173 48.8048C45.0503 48.8048 44.887 48.7534 44.7482 48.6571C44.6094 48.5607 44.5012 48.4238 44.4373 48.2636C44.3734 48.1035 44.3567 47.9272 44.3893 47.7572C44.4219 47.5871 44.5023 47.4309 44.6204 47.3084C44.7385 47.1858 44.889 47.1023 45.0528 47.0686C45.2166 47.0348 45.3863 47.0522 45.5406 47.1186C45.6948 47.185 45.8266 47.2974 45.9194 47.4416C46.0121 47.5857 46.0616 47.7553 46.0615 47.9286C46.0612 48.161 45.9722 48.3837 45.8139 48.548C45.6556 48.7123 45.4411 48.8046 45.2173 48.8048ZM45.2173 47.3913C45.1149 47.3913 45.0149 47.4228 44.9298 47.4819C44.8446 47.5409 44.7783 47.6248 44.7392 47.723C44.7 47.8212 44.6897 47.9292 44.7097 48.0335C44.7297 48.1377 44.779 48.2334 44.8513 48.3086C44.9237 48.3837 45.0159 48.4349 45.1163 48.4556C45.2167 48.4764 45.3207 48.4657 45.4153 48.425C45.5099 48.3844 45.5907 48.3155 45.6476 48.2271C45.7044 48.1388 45.7348 48.0349 45.7348 47.9286C45.7347 47.7862 45.6801 47.6495 45.5831 47.5488C45.4861 47.448 45.3545 47.3914 45.2173 47.3913Z" fill="#38516B"/>
<path id="Vector_40" d="M68.5101 51.4893H48.0959L45.464 48.7566C45.4488 48.7408 45.4367 48.7221 45.4285 48.7016C45.4203 48.681 45.416 48.6589 45.416 48.6366C45.416 48.6143 45.4202 48.5923 45.4284 48.5717C45.4366 48.5511 45.4486 48.5324 45.4638 48.5166C45.479 48.5008 45.497 48.4883 45.5168 48.4798C45.5366 48.4712 45.5579 48.4668 45.5793 48.4668C45.6008 48.4668 45.6221 48.4712 45.6419 48.4797C45.6617 48.4882 45.6798 48.5007 45.695 48.5164L48.2312 51.1501H68.5101C68.5535 51.1501 68.595 51.168 68.6256 51.1998C68.6563 51.2316 68.6735 51.2747 68.6735 51.3197C68.6735 51.3647 68.6563 51.4078 68.6256 51.4396C68.595 51.4714 68.5535 51.4893 68.5101 51.4893Z" fill="#38516B"/>
<path id="Vector_41" d="M54.5548 15.4565C54.3879 15.4565 54.2248 15.4051 54.086 15.3088C53.9472 15.2125 53.839 15.0757 53.7752 14.9156C53.7113 14.7555 53.6946 14.5793 53.7272 14.4094C53.7597 14.2394 53.8401 14.0833 53.9581 13.9607C54.0761 13.8382 54.2265 13.7547 54.3902 13.7209C54.5539 13.6871 54.7236 13.7045 54.8778 13.7708C55.032 13.8371 55.1638 13.9494 55.2565 14.0935C55.3492 14.2376 55.3987 14.407 55.3987 14.5803C55.3985 14.8126 55.3095 15.0353 55.1513 15.1996C54.9931 15.3638 54.7786 15.4562 54.5548 15.4565ZM54.5548 14.0433C54.4525 14.0433 54.3525 14.0748 54.2675 14.1338C54.1824 14.1928 54.1162 14.2767 54.077 14.3748C54.0379 14.4729 54.0276 14.5809 54.0476 14.6851C54.0675 14.7892 54.1168 14.8849 54.1891 14.96C54.2615 15.0351 54.3536 15.0862 54.4539 15.107C54.5543 15.1277 54.6582 15.117 54.7528 15.0764C54.8473 15.0358 54.928 14.9669 54.9849 14.8786C55.0417 14.7903 55.072 14.6865 55.072 14.5803C55.0718 14.4379 55.0173 14.3015 54.9203 14.2008C54.8234 14.1001 54.6919 14.0435 54.5548 14.0433Z" fill="#38516B"/>
<path id="Vector_42" d="M54.1963 14.0429C54.153 14.0428 54.1115 14.0249 54.081 13.9931L51.5444 11.3597H30.9387C30.8954 11.3597 30.8539 11.3419 30.8232 11.31C30.7926 11.2782 30.7754 11.2351 30.7754 11.1901C30.7754 11.1451 30.7926 11.102 30.8232 11.0702C30.8539 11.0384 30.8954 11.0205 30.9387 11.0205H51.6796L54.3126 13.7532C54.3355 13.7769 54.3511 13.8072 54.3574 13.8401C54.3638 13.8731 54.3605 13.9072 54.3481 13.9383C54.3358 13.9693 54.3148 13.9958 54.2879 14.0144C54.2609 14.0331 54.2293 14.043 54.1969 14.0429H54.1963Z" fill="#38516B"/>
<path id="Vector_43" d="M30.5192 25.4989H16.9823C16.8725 25.4989 16.7672 25.4536 16.6896 25.373C16.612 25.2924 16.5684 25.1831 16.5684 25.0691C16.5684 25.0127 16.5791 24.9568 16.5999 24.9047C16.6207 24.8526 16.6512 24.8052 16.6896 24.7653C16.7281 24.7254 16.7737 24.6938 16.8239 24.6722C16.8741 24.6507 16.928 24.6396 16.9823 24.6396H30.5192C30.5736 24.6396 30.6274 24.6507 30.6776 24.6722C30.7278 24.6938 30.7735 24.7254 30.8119 24.7653C30.8503 24.8052 30.8808 24.8526 30.9017 24.9047C30.9225 24.9568 30.9332 25.0127 30.9332 25.0691C30.9332 25.1831 30.8896 25.2924 30.8119 25.373C30.7343 25.4536 30.629 25.4989 30.5192 25.4989Z" fill="#5596F8"/>
<path id="Vector_44" d="M30.5184 24.1415H22.2089C22.0991 24.1415 21.9938 24.0962 21.9162 24.0156C21.8385 23.935 21.7949 23.8257 21.7949 23.7117C21.7949 23.6552 21.8056 23.5994 21.8264 23.5473C21.8472 23.4951 21.8777 23.4478 21.9162 23.4079C21.9546 23.368 22.0003 23.3364 22.0505 23.3148C22.1007 23.2933 22.1545 23.2822 22.2089 23.2822H30.5184C30.5728 23.2822 30.6266 23.2933 30.6768 23.3148C30.727 23.3364 30.7727 23.368 30.8111 23.4079C30.8495 23.4478 30.88 23.4951 30.9008 23.5473C30.9217 23.5994 30.9324 23.6552 30.9324 23.7117C30.9324 23.8257 30.8888 23.935 30.8111 24.0156C30.7335 24.0962 30.6282 24.1415 30.5184 24.1415Z" fill="#5596F8"/>
<path id="Vector_45" d="M30.5184 22.786H22.2089C22.0991 22.786 21.9938 22.7407 21.9162 22.6601C21.8385 22.5795 21.7949 22.4702 21.7949 22.3562C21.7949 22.2998 21.8056 22.2439 21.8264 22.1918C21.8472 22.1397 21.8777 22.0923 21.9162 22.0524C21.9546 22.0125 22.0003 21.9809 22.0505 21.9594C22.1007 21.9378 22.1545 21.9267 22.2089 21.9268H30.5184C30.5728 21.9267 30.6266 21.9378 30.6768 21.9594C30.727 21.9809 30.7727 22.0125 30.8111 22.0524C30.8495 22.0923 30.88 22.1397 30.9008 22.1918C30.9217 22.2439 30.9324 22.2998 30.9324 22.3562C30.9324 22.4702 30.8888 22.5795 30.8111 22.6601C30.7335 22.7407 30.6282 22.786 30.5184 22.786Z" fill="#5596F8"/>
<path id="Vector_46" d="M44.6149 10.5399H31.0777C30.968 10.5399 30.8628 10.4947 30.7852 10.4141C30.7076 10.3336 30.6641 10.2243 30.6641 10.1105C30.664 10.054 30.6747 9.99815 30.6955 9.946C30.7162 9.89386 30.7467 9.84648 30.7851 9.80657C30.8235 9.76665 30.8691 9.73499 30.9193 9.71339C30.9695 9.69178 31.0233 9.68066 31.0777 9.68066H44.6149C44.6693 9.68066 44.7231 9.69178 44.7733 9.71339C44.8235 9.73499 44.8691 9.76665 44.9075 9.80657C44.9459 9.84648 44.9764 9.89386 44.9972 9.946C45.0179 9.99815 45.0286 10.054 45.0285 10.1105C45.0285 10.1668 45.0179 10.2227 44.9971 10.2748C44.9763 10.3269 44.9458 10.3742 44.9074 10.4141C44.869 10.454 44.8234 10.4856 44.7732 10.5072C44.723 10.5288 44.6692 10.5399 44.6149 10.5399Z" fill="#5596F8"/>
<path id="Vector_47" d="M56.7181 57.8962C57.8685 56.7017 57.8685 54.7651 56.7181 53.5706C55.5676 52.3761 53.7023 52.3761 52.5519 53.5706C51.4014 54.7651 51.4014 56.7017 52.5519 57.8962C53.7023 59.0907 55.5676 59.0907 56.7181 57.8962Z" fill="#236FE0"/>
<path id="Vector_48" d="M54.6347 53.1484C55.1255 53.1483 55.6054 53.2989 56.0141 53.5811C56.4228 53.8634 56.7421 54.2647 56.9317 54.7348C57.1214 55.2049 57.1729 55.7227 57.08 56.2231C56.9871 56.7235 56.7537 57.1842 56.4094 57.5474L54.6347 55.7339L52.3075 56.6559C52.164 56.2644 52.1142 55.8425 52.1624 55.4265C52.2106 55.0105 52.3554 54.6129 52.5843 54.2679C52.8132 53.9229 53.1194 53.6408 53.4766 53.4458C53.8337 53.2508 54.2311 53.1487 54.6347 53.1484Z" fill="white"/>
<path id="Vector_49" d="M54.9977 54.4209H56.0575C56.0776 54.421 56.0968 54.4293 56.111 54.444C56.1252 54.4588 56.1332 54.4788 56.1333 54.4996C56.1333 54.5205 56.1253 54.5405 56.1111 54.5552C56.0969 54.57 56.0776 54.5783 56.0575 54.5783H54.9977C54.9776 54.5783 54.9583 54.57 54.9441 54.5552C54.9299 54.5405 54.9219 54.5205 54.9219 54.4996C54.922 54.4788 54.93 54.4588 54.9442 54.444C54.9584 54.4293 54.9776 54.421 54.9977 54.4209Z" fill="#236FE0"/>
<path id="Vector_50" d="M54.9977 54.6689H56.0575C56.0776 54.6689 56.0969 54.6772 56.1111 54.692C56.1253 54.7068 56.1333 54.7268 56.1333 54.7476C56.1333 54.7685 56.1253 54.7885 56.1111 54.8033C56.0969 54.818 56.0776 54.8263 56.0575 54.8263H54.9977C54.9776 54.8263 54.9583 54.818 54.9441 54.8033C54.9299 54.7885 54.9219 54.7685 54.9219 54.7476C54.9219 54.7268 54.9299 54.7068 54.9441 54.692C54.9583 54.6772 54.9776 54.6689 54.9977 54.6689Z" fill="#236FE0"/>
<path id="Vector_51" d="M55.6207 54.9189H56.0585C56.0786 54.9189 56.0979 54.9272 56.1121 54.942C56.1263 54.9568 56.1343 54.9768 56.1343 54.9976C56.1343 55.0185 56.1263 55.0385 56.1121 55.0533C56.0979 55.068 56.0786 55.0763 56.0585 55.0763H55.6207C55.6006 55.0763 55.5813 55.068 55.5671 55.0533C55.5529 55.0385 55.5449 55.0185 55.5449 54.9976C55.5449 54.9768 55.5529 54.9568 55.5671 54.942C55.5813 54.9272 55.6006 54.9189 55.6207 54.9189Z" fill="#236FE0"/>
<path id="Vector_52" d="M52.0566 54.2979L53.222 53.0879H52.0566V54.2979Z" fill="#236FE0"/>
<path id="Vector_53" d="M67.5316 55.891C67.6127 54.2038 66.3612 52.7677 64.7363 52.6834C63.1113 52.5992 61.7282 53.8986 61.647 55.5857C61.5658 57.2729 62.8173 58.709 64.4423 58.7932C66.0673 58.8775 67.4504 57.5781 67.5316 55.891Z" fill="#236FE0"/>
<path id="Vector_54" d="M62.0938 55.7342C62.0937 55.1508 62.2836 54.5846 62.6327 54.1275C62.9818 53.6705 63.4695 53.3494 64.0165 53.2165C64.5636 53.0835 65.1378 53.1466 65.646 53.3954C66.1542 53.6442 66.5664 54.0641 66.8156 54.5869C67.0649 55.1096 67.1366 55.7046 67.019 56.275C66.9014 56.8454 66.6015 57.3578 66.168 57.7289C65.7345 58.0999 65.1929 58.3079 64.6312 58.319C64.0695 58.33 63.5206 58.1436 63.0739 57.7898L64.5839 55.7342L62.2571 56.6562C62.1489 56.3618 62.0935 56.0493 62.0938 55.7342Z" fill="white"/>
<path id="Vector_55" d="M64.9684 54.4209H66.0282C66.0483 54.421 66.0675 54.4293 66.0817 54.444C66.0959 54.4588 66.1039 54.4788 66.104 54.4996C66.104 54.5205 66.096 54.5405 66.0818 54.5552C66.0676 54.57 66.0483 54.5783 66.0282 54.5783H64.9684C64.9483 54.5783 64.929 54.57 64.9148 54.5552C64.9006 54.5405 64.8926 54.5205 64.8926 54.4996C64.8927 54.4788 64.9007 54.4588 64.9149 54.444C64.9291 54.4293 64.9483 54.421 64.9684 54.4209Z" fill="#236FE0"/>
<path id="Vector_56" d="M64.9684 54.6689H66.0282C66.0483 54.6689 66.0676 54.6772 66.0818 54.692C66.096 54.7068 66.104 54.7268 66.104 54.7476C66.104 54.7685 66.096 54.7885 66.0818 54.8033C66.0676 54.818 66.0483 54.8263 66.0282 54.8263H64.9684C64.9483 54.8263 64.929 54.818 64.9148 54.8033C64.9006 54.7885 64.8926 54.7685 64.8926 54.7476C64.8926 54.7268 64.9006 54.7068 64.9148 54.692C64.929 54.6772 64.9483 54.6689 64.9684 54.6689Z" fill="#236FE0"/>
<path id="Vector_57" d="M65.5895 54.9189H66.0273C66.0474 54.9189 66.0666 54.9272 66.0809 54.942C66.0951 54.9568 66.1031 54.9768 66.1031 54.9976C66.1031 55.0185 66.0951 55.0385 66.0809 55.0533C66.0666 55.068 66.0474 55.0763 66.0273 55.0763H65.5895C65.5694 55.0763 65.5501 55.068 65.5359 55.0533C65.5217 55.0385 65.5137 55.0185 65.5137 54.9976C65.5137 54.9768 65.5217 54.9568 65.5359 54.942C65.5501 54.9272 65.5694 54.9189 65.5895 54.9189Z" fill="#236FE0"/>
<path id="Vector_58" d="M62.0195 54.2979L63.1849 53.0879H62.0195V54.2979Z" fill="#236FE0"/>
<path id="Vector_59" d="M75.3688 62.9887H7.26208C7.23608 62.9887 7.21115 62.978 7.19277 62.9589C7.17439 62.9398 7.16406 62.9139 7.16406 62.8869C7.16406 62.8599 7.17439 62.834 7.19277 62.815C7.21115 62.7959 7.23608 62.7852 7.26208 62.7852H75.3688C75.3948 62.7852 75.4197 62.7959 75.4381 62.815C75.4565 62.834 75.4668 62.8599 75.4668 62.8869C75.4668 62.9139 75.4565 62.9398 75.4381 62.9589C75.4197 62.978 75.3948 62.9887 75.3688 62.9887Z" fill="#202F4E"/>
</g>
<defs>
<clipPath id="clip0_766_2116">
<rect width="77.8532" height="77.8532" fill="white" transform="translate(0.763672 0.00683594)"/>
</clipPath>
</defs>
</svg>
