<svg width="83" height="78" viewBox="0 0 83 78" fill="none" xmlns="http://www.w3.org/2000/svg">
<g id="Frame" clip-path="url(#clip0_766_2240)">
<g id="Clip path group">
<mask id="mask0_766_2240" style="mask-type:luminance" maskUnits="userSpaceOnUse" x="0" y="6" width="83" height="65">
<g id="clip-path">
<path id="Vector" d="M0.872463 36.8764C2.38228 52.8572 -7.80114 65.2145 26.5372 68.9761C32.6156 69.6415 41.016 70.1182 48.1045 69.9804C53.848 69.8707 60.1648 69.3589 65.7468 67.9144C74.9657 65.5249 81.8333 60.6708 82.0462 51.2164C82.2654 41.5422 72.6601 35.228 74.194 31.2546C78.9525 18.9577 71.2357 10.0074 55.9955 6.82889C36.7097 2.80729 28.9279 16.1283 21.0636 14.3968C8.31893 11.5868 -0.664747 20.6069 0.872463 36.8764Z" fill="white"/>
</g>
</mask>
<g mask="url(#mask0_766_2240)">
<g id="Group">
<path id="Vector_2" d="M0.87051 36.8764C2.38033 52.8572 -7.80309 65.2145 26.5352 68.9761C32.6136 69.6415 41.014 70.1182 48.1026 69.9804C53.846 69.8707 60.1629 69.3589 65.7449 67.9144C74.9638 65.5249 81.8314 60.6708 82.0443 51.2164C82.2634 41.5422 72.6581 35.228 74.192 31.2546C78.9505 18.9577 71.2338 10.0074 55.9935 6.82889C36.7077 2.80729 28.926 16.1283 21.0617 14.3968C8.31698 11.5868 -0.6667 20.6069 0.87051 36.8764Z" fill="#9FBCE7"/>
<path id="Vector_3" d="M72.6752 22.2157L42.2617 11.1045L27.7473 50.916L58.1607 62.0272L72.6752 22.2157Z" fill="#236FE0"/>
<path id="Vector_4" d="M53.0969 23.8112C52.6147 25.1403 51.6792 26.2564 50.4553 26.9627C50.3856 27.0029 50.3154 27.0416 50.2442 27.0796C49.068 27.6992 47.7201 27.9121 46.4104 27.6851C45.1008 27.4582 43.9028 26.8042 43.003 25.8249C42.2795 25.0369 41.7785 24.0704 41.5514 23.0245C41.3244 21.9786 41.3795 20.8911 41.7112 19.8736C42.0428 18.8561 42.639 17.9453 43.4385 17.2347C44.238 16.5241 45.2121 16.0393 46.2606 15.8302C47.3092 15.621 48.3945 15.6949 49.405 16.0444C50.4156 16.3939 51.315 17.0063 52.011 17.8188C52.7069 18.6313 53.1743 19.6146 53.3652 20.6677C53.556 21.7208 53.4635 22.8057 53.0969 23.8112Z" fill="white"/>
<path id="Vector_5" d="M51.2049 20.3056C50.5585 17.4313 48.3197 17.1439 48.3197 17.1439C47.6228 17.0792 46.9457 17.2803 46.3913 17.6002C45.8369 17.9201 45.3892 18.353 44.964 18.7935C44.4834 19.2917 44.0242 19.805 43.5864 20.3334C43.5013 20.4362 43.4144 20.5466 43.4067 20.6771C43.4002 20.7959 43.4612 20.9144 43.5287 21.024C44.1321 22.0042 45.3183 22.6429 46.5001 23.074C48.1051 23.6583 49.7995 23.9578 51.5073 23.9591C51.5475 22.7478 51.4774 21.5183 51.2049 20.3056Z" fill="#38516B"/>
<path id="Vector_6" d="M50.2416 27.0804C49.0654 27.7 47.7175 27.9128 46.4079 27.6859C45.0982 27.459 43.9002 26.805 43.0004 25.8257C42.6354 25.4284 42.3259 24.9834 42.0801 24.503C42.5914 24.2836 43.2061 24.1498 43.8792 24.114C44.4016 24.0878 44.9253 24.1159 45.4419 24.1977C45.7256 24.241 46.0068 24.2991 46.2845 24.3717C46.7626 24.4956 47.2289 24.6615 47.6778 24.8675C48.1466 25.0813 48.5901 25.3466 49.0003 25.6586C49.5601 26.0897 49.9875 26.5774 50.2416 27.0804Z" fill="#FFCFBF"/>
<path id="Vector_7" d="M47.4724 26.5584C48.052 26.6315 47.5783 25.1004 47.5783 25.1004L48.5432 22.8969C48.8248 22.2538 48.5568 21.5058 47.9439 21.2265C47.3311 20.9471 47.0141 20.9179 46.7325 21.561L45.3972 24.2931C45.1156 24.9362 46.6543 26.4549 47.4724 26.5584Z" fill="#FFCFBF"/>
<path id="Vector_8" d="M50.0743 19.3008C50.0743 19.3008 50.774 23.2859 49.0152 23.8057C47.9348 24.1242 46.9699 23.2537 45.9144 21.8004C45.0058 20.5479 48.3231 16.0784 50.0743 19.3008Z" fill="#FDBAA0"/>
<path id="Vector_9" d="M46.9252 23.2524C47.3372 23.6348 47.7897 23.8823 48.3456 23.9379C48.4636 23.9496 48.48 23.7576 48.3617 23.7456C47.8368 23.6933 47.4198 23.4531 47.0323 23.0941C46.9435 23.0122 46.838 23.1712 46.9252 23.2524Z" fill="#FF9F89"/>
<path id="Vector_10" d="M50.3757 19.7399C50.4378 19.5122 50.3724 19.2646 50.2515 19.0617C50.1306 18.8588 49.9593 18.6928 49.788 18.5294C49.6354 18.3832 49.4787 18.2329 49.2862 18.1437C49.0938 18.0545 48.8761 18.0315 48.6632 18.0231C48.0094 17.9978 47.3385 18.1053 46.7666 18.4234C46.7539 18.4268 46.7421 18.433 46.7321 18.4416C46.7221 18.4501 46.7142 18.4608 46.7088 18.4728C46.7035 18.4848 46.7009 18.4979 46.7012 18.511C46.7015 18.5242 46.7048 18.5371 46.7107 18.5488C46.8356 18.9875 47.0007 19.4511 46.8769 19.8913C47.1614 19.8547 47.4393 19.7787 47.722 19.7297C48.6215 19.5759 49.5465 19.7036 50.3709 20.0953L50.3757 19.7399Z" fill="#38516B"/>
<path id="Vector_11" d="M47.5823 19.271L47.4158 18.8937C46.8245 18.8853 46.2471 19.1822 45.8661 19.6344C45.4852 20.0867 45.2905 20.6808 45.2727 21.2727C45.2639 21.5652 45.3019 21.8715 45.4764 22.1041C45.6087 22.2795 45.8051 22.3936 45.9951 22.5029C46.0125 22.5191 46.0334 22.5311 46.0562 22.5382C46.0789 22.5452 46.103 22.547 46.1265 22.5435C46.1501 22.54 46.1725 22.5312 46.1922 22.5179C46.212 22.5045 46.2285 22.4869 46.2405 22.4664C47.0385 21.601 47.4932 20.4446 47.5823 19.271Z" fill="#38516B"/>
<path id="Vector_12" d="M47.8358 17.8093C47.1941 17.9694 46.7157 18.4089 46.2654 18.8695C45.6682 19.4815 45.0704 20.0924 44.4604 20.6917C44.4283 20.7235 44.4721 20.779 44.5046 20.7469C45.0622 20.1987 45.6131 19.6437 46.1573 19.0819C46.6437 18.5796 47.1459 18.0528 47.8475 17.8776C47.8913 17.8667 47.8807 17.7968 47.8365 17.8078L47.8358 17.8093Z" fill="#4D6371"/>
<path id="Vector_13" d="M47.2049 18.9666C46.538 19.7745 45.908 20.713 45.0567 21.3375C45.0202 21.3645 45.064 21.4194 45.1009 21.3927C45.9584 20.7639 46.591 19.8206 47.2615 19.0086C47.2908 18.9721 47.2338 18.9315 47.2049 18.9666Z" fill="#4D6371"/>
<path id="Vector_14" d="M50.2416 27.0798C49.0654 27.6993 47.7175 27.9122 46.4079 27.6852C45.0982 27.4583 43.9002 26.8043 43.0004 25.825C42.6354 25.4277 42.3259 24.9827 42.0801 24.5023C42.5914 24.2829 43.2061 24.1491 43.8792 24.1133C44.3441 24.5721 45.2721 25.4093 46.2816 25.8821C46.768 26.1102 47.2724 26.2535 47.7534 26.229C48.2015 26.2063 48.6299 26.0389 49.0006 25.6583C49.5601 26.089 49.9875 26.5767 50.2416 27.0798Z" fill="#384955"/>
<path id="Vector_15" d="M39.9618 29.1869L48.3801 32.1823C48.6723 32.2857 48.8487 31.839 48.5572 31.7351L40.1389 28.7401C39.8467 28.6363 39.6703 29.0831 39.9618 29.1869Z" fill="#D3F0F4"/>
<path id="Vector_16" d="M39.2548 31.0843L45.3021 33.2362L52.9976 35.9742L55.8748 36.9978C56.167 37.1013 56.3434 36.6546 56.0519 36.5507L50.0046 34.3995L42.3091 31.6612L39.4319 30.6375C39.1397 30.534 38.9633 30.9808 39.2548 31.0843Z" fill="#D3F0F4"/>
<path id="Vector_17" d="M49.8212 32.7972L60.7883 36.6996L63.2744 37.584C63.5666 37.6874 63.743 37.241 63.4515 37.1372L52.4843 33.2348L49.9983 32.3504C49.7061 32.2469 49.5297 32.6933 49.8212 32.7972Z" fill="white"/>
<path id="Vector_18" d="M57.4893 37.6086L62.7616 39.4761C63.0538 39.5792 63.2305 39.1324 62.9391 39.0293L57.6664 37.1618C57.3742 37.0587 57.1975 37.5055 57.4893 37.6086Z" fill="white"/>
<path id="Vector_19" d="M38.4137 32.8105C41.0742 33.6975 43.7059 34.6646 46.309 35.7119C46.5964 35.8274 46.7732 35.3803 46.4865 35.2651C43.8844 34.2171 41.2526 33.2498 38.5912 32.3634C38.299 32.2661 38.1204 32.7125 38.4137 32.8105Z" fill="#D3F0F4"/>
<path id="Vector_20" d="M47.8086 36.2404L61.986 41.4268C62.276 41.5331 62.4539 41.0864 62.1632 40.98L47.9857 35.7936C47.6957 35.6872 47.5179 36.134 47.8086 36.2404Z" fill="white"/>
<path id="Vector_21" d="M36.5886 36.5176L42.6359 38.6692L50.3315 41.4072L53.2087 42.4308C53.5009 42.5343 53.6776 42.0875 53.3862 41.9837L47.3389 39.8321L39.6433 37.0938L36.7661 36.0701C36.474 35.9667 36.2972 36.4134 36.5886 36.5173V36.5176Z" fill="#D3F0F4"/>
<path id="Vector_22" d="M54.825 43.0412L60.0976 44.9087C60.3898 45.0118 60.5666 44.5654 60.2748 44.4619L55.0025 42.5944C54.7103 42.4913 54.5335 42.9381 54.825 43.0412Z" fill="white"/>
<path id="Vector_23" d="M35.746 38.2429C38.4062 39.1298 41.038 40.0969 43.6413 41.1443C43.9283 41.2598 44.1051 40.8127 43.8184 40.6975C41.2166 39.6509 38.5848 38.6838 35.9231 37.7961C35.6309 37.6985 35.4523 38.1449 35.746 38.2429Z" fill="#D3F0F4"/>
<path id="Vector_24" d="M45.1448 41.673L59.3223 46.8597C59.6126 46.9658 59.7901 46.519 59.4998 46.4126L45.3223 41.2262C45.0301 41.1198 44.8544 41.5666 45.1448 41.673Z" fill="white"/>
<path id="Vector_25" d="M58.0752 21.4542L67.8116 24.8817C68.1038 24.9841 68.2806 24.5373 67.9888 24.4346L58.2524 21.0074C57.9602 20.9047 57.7834 21.3515 58.0752 21.4542Z" fill="white"/>
<path id="Vector_26" d="M57.5518 22.8643L67.2878 26.2917C67.58 26.3941 67.7571 25.9477 67.4653 25.845L57.7289 22.4175C57.4367 22.3151 57.26 22.7615 57.5518 22.8643Z" fill="white"/>
<path id="Vector_27" d="M57.0414 24.6536L66.5466 28.0255C66.8388 28.1286 67.0152 27.6822 66.7237 27.5788L57.217 24.2068C56.9249 24.1034 56.7485 24.5501 57.0399 24.6536H57.0414Z" fill="white"/>
<path id="Vector_28" d="M56.3941 26.5806L61.3651 28.2766C61.6573 28.3761 61.8351 27.9293 61.5422 27.8295L56.5712 26.1335C56.279 26.034 56.1012 26.4808 56.3941 26.5806Z" fill="#D3F0F4"/>
<path id="Vector_29" d="M62.6695 28.8432L66.1665 30.1393C66.4564 30.2467 66.6339 29.7996 66.3436 29.6921L62.847 28.3964C62.557 28.289 62.3795 28.7357 62.6695 28.8432Z" fill="white"/>
<path id="Vector_30" d="M55.7554 28.336C58.955 29.5303 62.1839 30.6417 65.4422 31.6703C65.7343 31.7627 65.9144 31.3163 65.6193 31.2231C62.3625 30.1951 59.1336 29.0838 55.9326 27.8892C55.6429 27.7795 55.4654 28.2278 55.7554 28.336Z" fill="white"/>
<path id="Vector_31" d="M-0.994141 52.6436L10.6735 59.7618C18.0415 55.349 20.6006 53.8267 20.6046 53.8197C20.9249 53.4501 22.4333 51.5808 23.286 51.0412C22.4533 49.3594 22.022 48.4907 21.6707 47.78C21.6707 47.7709 21.9994 34.4067 21.9935 34.4023C21.3653 35.1478 13.3652 45.6292 9.55268 47.6477C9.41499 47.7208 9.45882 47.6879 9.43983 47.719C9.2353 48.0549 4.7515 49.9634 -0.734834 52.2188L-0.994141 52.6436Z" fill="#FDBAA0"/>
<path id="Vector_32" d="M20.1918 37.335C20.347 37.4183 23.8944 38.0783 23.5215 38.5367C22.0665 40.3282 21.6666 43.0855 22.2721 44.0657C23.4317 45.943 25.6665 45.1793 25.9082 45.0817L20.0917 50.5346C18.5096 50.7814 9.79838 51.1291 9.8086 50.5979C9.84987 48.4185 19.7955 37.1226 20.1918 37.335Z" fill="#FDBAA0"/>
<path id="Vector_33" d="M7.62109 49.0036C7.62109 49.0036 11.6904 46.5413 13.5497 43.4264C16.1344 39.0966 18.5098 33.8074 19.1011 33.2111C20.1149 32.1874 23.4249 30.1628 24.3259 30.0692C25.2269 29.9756 28.1505 29.4842 28.7425 29.7156C29.3345 29.9471 27.565 31.9995 25.3536 33.1786C23.1422 34.3577 20.7654 36.4006 20.7654 36.4006L17.2227 47.4355L7.62109 49.0036Z" fill="#FDBAA0"/>
<path id="Vector_34" d="M16.7246 40.3109C16.7246 40.3109 20.669 32.769 22.7204 31.8513C24.7719 30.9337 27.1451 30.2822 28.5274 31.0565C29.9098 31.8308 32.4565 34.1667 32.3925 34.6222C32.3286 35.0777 30.1172 35.1242 28.6366 34.5359C27.156 33.9477 23.1707 35.6949 23.1707 35.6949L18.7939 40.5376L16.7246 40.3109Z" fill="#FDBAA0"/>
<path id="Vector_35" d="M17.1133 47.7732C17.1133 47.7732 20.9605 35.6869 21.993 34.404C23.0255 33.1211 27.6678 33.4688 29.1148 33.7371C30.5618 34.0055 33.3981 37.4491 33.3959 38.4406C33.3933 39.6566 30.9036 38.8146 29.3295 37.6728C27.8836 36.6239 25.7891 37.2001 25.0714 37.1975C24.8622 37.1975 24.4506 37.509 24.0123 37.9726C23.44 38.5769 22.8206 39.4383 22.5412 40.1969C21.5953 42.7641 24.4874 45.3153 24.4874 45.3153L17.1133 47.7732Z" fill="#FDBAA0"/>
<path id="Vector_36" d="M54.7822 68.2138L21.4336 60.9998L30.857 17.3457L59.236 23.4849L63.3309 28.6135L54.7822 68.2138Z" fill="white"/>
<path id="Vector_37" d="M43.9957 29.0484C43.7303 30.2768 43.107 31.3988 42.2046 32.2725C41.3022 33.1463 40.1612 33.7326 38.926 33.9572C37.6907 34.1819 36.4167 34.0348 35.2649 33.5347C34.1132 33.0345 33.1355 32.2037 32.4554 31.1473C31.7753 30.0909 31.4234 28.8563 31.4442 27.5997C31.465 26.3431 31.8576 25.1209 32.5723 24.0877C33.287 23.0544 34.2917 22.2565 35.4594 21.7949C36.6271 21.3332 37.9053 21.2285 39.1324 21.494C39.9492 21.6667 40.7236 21.9998 41.4111 22.4739C42.0985 22.948 42.6853 23.5537 43.1375 24.2562C43.5897 24.9586 43.8984 25.7438 44.0457 26.5663C44.193 27.3889 44.176 28.2325 43.9957 29.0484Z" fill="#E9F4F6"/>
<path id="Vector_38" d="M37.1734 23.4092C36.7271 23.3781 36.2501 23.4922 35.9404 23.8479C35.7966 24.0137 35.7073 24.2199 35.6847 24.4383C35.6603 24.6665 35.6913 24.8942 35.7052 25.1216C35.7198 25.356 35.7151 25.5969 35.6007 25.8093C35.4912 26.009 35.3144 26.1749 35.272 26.4067C35.2279 26.6473 35.3502 26.886 35.2808 27.1244C35.2443 27.2472 35.1749 27.3555 35.1113 27.4644C35.0463 27.5734 34.9954 27.6903 34.9598 27.8121C34.8827 28.0863 34.8867 28.3839 34.9156 28.6639C34.9382 28.8745 34.9941 29.0975 35.1767 29.2182C35.2132 29.2412 35.2417 29.1816 35.207 29.159C35.0379 29.0493 34.9956 28.8241 34.9777 28.6321C34.9543 28.381 34.9503 28.1203 35.0105 27.8731C35.042 27.7475 35.0912 27.627 35.1566 27.5152C35.2181 27.4179 35.2723 27.3161 35.3188 27.2107C35.4039 26.9913 35.3385 26.7888 35.3272 26.5654C35.3148 26.3183 35.4605 26.1442 35.5891 25.9512C35.7041 25.7795 35.7682 25.5787 35.7739 25.3721C35.7921 24.9385 35.6402 24.4771 35.8619 24.0724C36.1237 23.5945 36.6792 23.4395 37.1767 23.4743C37.2179 23.4772 37.2132 23.4106 37.1734 23.4077V23.4092Z" fill="#384955"/>
<path id="Vector_39" d="M38.508 26.6511C38.6183 26.06 38.7605 25.4753 38.9338 24.8995L37.3016 23.4023C36.9598 23.4437 36.6041 23.5252 36.3451 23.7603C35.9543 24.1142 35.8897 24.7108 35.9262 25.242C35.9627 25.7733 36.0723 26.3162 35.9222 26.828C35.7641 27.3731 35.3324 27.8111 35.2108 28.3657C35.0774 28.9748 35.3612 29.6212 35.8196 30.0234C36.2779 30.4255 36.8835 30.6131 37.4846 30.684C37.5146 30.6898 37.5454 30.6885 37.5748 30.6803C37.6289 30.661 37.657 30.601 37.6789 30.5465C38.1716 29.3119 38.2629 27.9588 38.508 26.6511Z" fill="#384955"/>
<path id="Vector_40" d="M41.6909 32.7183C41.0764 33.1971 40.3795 33.5591 39.6347 33.7866C38.7107 33.746 37.5686 33.5943 36.3477 33.3307C35.4661 33.1432 34.597 32.9008 33.7455 32.605C32.9937 31.9827 32.3951 31.1954 31.9961 30.3043C32.4252 29.9277 33.007 29.6418 33.6874 29.4634C34.2097 29.3313 34.7459 29.2622 35.2845 29.2575C35.6247 29.2531 35.9647 29.2699 36.3028 29.308C36.5989 29.342 36.8932 29.3908 37.1844 29.4542C37.3751 29.4954 37.5619 29.5422 37.745 29.5946C37.8181 29.6153 37.8904 29.6372 37.962 29.6601C38.0116 29.6754 38.0609 29.6911 38.1102 29.708C38.2041 29.739 38.2965 29.7719 38.3882 29.8059L38.4492 29.8293C39.0377 30.0509 39.595 30.3479 40.1073 30.713C40.1872 30.7711 40.2654 30.8304 40.3406 30.8907C41.0229 31.4362 41.4969 32.0694 41.6909 32.7183Z" fill="#FDBAA0"/>
<path id="Vector_41" d="M41.6913 32.7187C40.9324 33.3109 40.0489 33.7227 39.1076 33.9228C38.1664 34.1228 37.1919 34.106 36.2581 33.8735C35.3243 33.6411 34.4555 33.1991 33.7174 32.581C32.9794 31.9629 32.3914 31.1848 31.998 30.3057C32.4272 29.9292 33.009 29.6433 33.6894 29.4648C33.6894 29.4648 36.0089 33.0686 40.0471 30.7485C40.0679 30.7368 40.0884 30.7251 40.1092 30.7119C40.1892 30.77 40.2674 30.8293 40.3426 30.8896C41.0234 31.4365 41.4974 32.0697 41.6913 32.7187Z" fill="#445D78"/>
<path id="Vector_42" d="M36.7084 30.2682C36.188 30.0854 36.2409 29.6719 36.3469 29.0694L36.7672 26.6791C36.8852 26.0078 37.4893 25.5457 38.1163 25.644C38.7434 25.7424 38.7821 25.8802 38.6642 26.5511L38.2182 29.4097C38.1003 30.0824 37.2767 30.5127 36.7084 30.2682Z" fill="#FDBAA0"/>
<path id="Vector_43" d="M37.3648 23.6963C37.3648 23.6963 34.8491 26.2555 35.8309 27.5384C36.4346 28.3255 37.5591 28.1833 39.0422 27.6598C40.3194 27.209 40.2369 22.2357 37.3648 23.6963Z" fill="#FDBAA0"/>
<path id="Vector_44" d="M40.5138 26.8321C40.5927 26.4764 40.5971 26.1094 40.6015 25.7456C40.6059 25.3723 40.6084 24.9888 40.481 24.6407C40.2673 24.0583 39.729 23.6759 39.1899 23.3926L38.1465 23.6664C38.3656 23.7319 38.5091 23.9359 38.4858 24.1205C38.4624 24.3051 38.4091 24.4897 38.4259 24.6751C38.4624 25.0619 38.782 25.3452 38.9408 25.6966C39.0475 25.932 38.9408 26.2084 38.8904 26.4643C38.8473 26.691 38.8842 26.9031 38.8798 27.1334C38.8798 27.2467 38.8999 27.3615 38.8744 27.4719C38.847 27.5882 38.7703 27.6847 38.7162 27.7907C38.6281 27.9575 38.6082 28.1521 38.6607 28.3333C38.7173 28.5099 38.8641 28.6572 39.042 28.6916C39.3488 28.7512 39.6238 28.4887 39.8174 28.2339C40.134 27.8145 40.3999 27.344 40.5138 26.8321Z" fill="#384955"/>
<path id="Vector_45" d="M42.0011 30.3143C42.0402 29.9095 41.9357 29.5099 41.9084 29.1034C41.8791 28.6691 41.939 28.2307 42.0439 27.807C42.16 27.3401 42.2535 26.8718 42.2414 26.3914C42.2217 25.617 41.8539 24.9143 41.1494 23.8819C40.2594 22.5774 39.1623 22.0034 37.9885 22.2985C36.8146 22.5935 37.0802 24.0069 37.1335 23.9455C38.0505 22.8896 39.285 24.4091 39.304 25.7534L38.6466 26.6484C38.6783 26.9616 38.5949 27.2756 38.4121 27.5317C38.3124 27.6699 38.1824 27.7923 38.1313 27.9554C38.0611 28.1791 38.1565 28.4212 38.1269 28.6537C38.0882 28.955 37.8478 29.1926 37.7697 29.4865C37.6645 29.8803 37.8847 30.3088 38.2178 30.5252C38.5509 30.7416 38.9705 30.7778 39.3642 30.7288C39.5103 30.7109 39.6564 30.682 39.8025 30.6923C40.0771 30.7142 40.3178 30.8751 40.5563 31.0151C40.7948 31.1551 41.0654 31.2816 41.3368 31.2264C41.7239 31.1486 41.962 30.7186 42.0011 30.3143Z" fill="#384955"/>
<path id="Vector_46" d="M38.4203 26.5362C38.4203 26.5362 38.9681 26.0584 39.1872 26.2975C39.4064 26.5366 39.1463 27.1489 38.8494 27.1749C38.5525 27.2009 38.3958 26.7161 38.409 26.6265L38.4203 26.5362Z" fill="#FCBFAF"/>
<path id="Vector_47" d="M38.611 27.0995C38.5771 27.0289 38.5844 27.0881 38.6216 27.0804C38.6436 27.0813 38.6654 27.0837 38.687 27.0878C38.7636 27.0885 38.8391 27.0694 38.9061 27.0322C39.0216 26.9682 39.0961 26.8589 39.1618 26.7397C39.1983 26.6706 39.2465 26.6015 39.2348 26.5149C39.2126 26.3438 39.0522 26.3204 38.9332 26.3858C38.8404 26.4377 38.7827 26.2783 38.8747 26.2271C39.0679 26.1175 39.3039 26.1942 39.3784 26.4194C39.4514 26.6359 39.2874 26.8969 39.1476 27.0483C39.092 27.1105 39.0247 27.1611 38.9494 27.1971C38.8742 27.233 38.7926 27.2537 38.7093 27.2578C38.6257 27.2603 38.5051 27.2545 38.462 27.1649C38.4153 27.0673 38.5654 27.0015 38.6118 27.0984L38.611 27.0995Z" fill="#FDBAA0"/>
<path id="Vector_48" d="M38.0557 23.6257C38.2803 23.4063 38.6474 23.3851 38.8782 23.5979C38.987 23.6989 39.0577 23.8343 39.0783 23.9814C39.0995 24.1405 39.0498 24.2973 39.0075 24.449C38.9677 24.5927 38.9297 24.7433 38.9596 24.8921C38.9877 25.0314 39.0754 25.1418 39.1758 25.2347C39.2817 25.3319 39.3993 25.4149 39.4961 25.5224C39.5994 25.6372 39.6811 25.7697 39.7372 25.9136C39.7966 26.063 39.825 26.2229 39.8204 26.3836C39.8159 26.5443 39.7786 26.7023 39.7109 26.8481C39.6426 26.9946 39.5418 27.1235 39.4161 27.225C39.304 27.3142 39.1715 27.3819 39.0874 27.5021C38.8895 27.7811 39.0827 28.1156 39.1722 28.3909C39.2306 28.5701 39.2354 28.7456 39.1481 28.9174C39.0685 29.0739 38.9436 29.1974 38.8194 29.3141C38.5783 29.5371 38.2715 29.8131 38.326 30.1838C38.372 30.5055 38.6912 30.6357 38.9574 30.7253C38.9969 30.7384 39.0108 30.673 38.9713 30.6598C38.6937 30.5659 38.345 30.4116 38.3895 30.0471C38.433 29.6906 38.7529 29.4815 38.9819 29.2486C39.1001 29.1363 39.1917 28.9989 39.25 28.8465C39.2972 28.6943 39.2935 28.5309 39.2394 28.381C39.1861 28.2132 39.0999 28.0549 39.0761 27.8776C39.0609 27.7929 39.0697 27.7057 39.1016 27.6258C39.1335 27.5459 39.1872 27.4766 39.2565 27.4257C39.3782 27.3292 39.5071 27.2524 39.609 27.1333C39.7047 27.0187 39.7781 26.8873 39.8256 26.7457C39.9218 26.455 39.908 26.1389 39.7868 25.8577C39.732 25.7298 39.6581 25.611 39.5677 25.5052C39.4695 25.389 39.3486 25.3012 39.2357 25.2003C39.1145 25.0906 39.0166 24.9631 39.0148 24.7898C39.0118 24.6278 39.0739 24.4717 39.1127 24.3167C39.1532 24.1554 39.1663 23.9924 39.1101 23.8344C39.0605 23.694 38.9676 23.5729 38.8449 23.4886C38.5893 23.3142 38.2314 23.3654 38.0097 23.5833C37.9794 23.6133 38.0272 23.6564 38.0572 23.6279L38.0557 23.6257Z" fill="#4D6371"/>
<path id="Vector_49" d="M38.2213 23.4831C38.714 23.0787 39.4995 23.0937 39.94 23.5617C40.0587 23.6878 40.1536 23.852 40.1708 24.03C40.1909 24.2362 40.0784 24.3956 40.0035 24.5784C39.8637 24.9195 39.9371 25.3038 40.0956 25.6204C40.2691 25.9662 40.539 26.2441 40.7701 26.5479C40.9893 26.8356 41.1934 27.1716 41.2007 27.55C41.2064 27.7264 41.1642 27.9009 41.0788 28.0553C40.9885 28.2121 40.8516 28.309 40.6916 28.3799C40.5477 28.4432 40.3943 28.4943 40.2731 28.5993C40.212 28.6533 40.1626 28.7191 40.1277 28.7929C40.0929 28.8666 40.0734 28.9466 40.0704 29.0281C40.0572 29.355 40.3216 29.5721 40.5203 29.7846C40.6467 29.9132 40.7417 30.0694 40.7979 30.2408C40.8523 30.4185 40.8881 30.6795 40.7391 30.8236C40.7078 30.8571 40.6673 30.8805 40.6226 30.8907C40.578 30.9009 40.5313 30.8976 40.4886 30.881C40.452 30.8638 40.4199 30.923 40.4582 30.9402C40.5941 31.0016 40.7504 30.9366 40.833 30.8112C40.9367 30.6503 40.9181 30.4364 40.8695 30.2609C40.8224 30.0892 40.7366 29.9306 40.6186 29.7973C40.509 29.6687 40.3764 29.5582 40.2742 29.4219C40.1646 29.2756 40.1032 29.1034 40.1493 28.9188C40.2004 28.713 40.3589 28.5953 40.5397 28.5148C40.692 28.4472 40.8519 28.3931 40.9779 28.279C41.1009 28.1634 41.1875 28.0143 41.227 27.8502C41.4389 27.0389 40.7121 26.4408 40.3111 25.8573C40.0832 25.5253 39.9049 25.0976 40.0302 24.6848C40.089 24.4918 40.2223 24.3294 40.2344 24.1218C40.2388 23.953 40.1884 23.7874 40.0908 23.6498C39.7256 23.1054 38.9426 22.9917 38.3867 23.29C38.3146 23.3291 38.2464 23.3751 38.1833 23.4275C38.1508 23.4542 38.1833 23.5101 38.2198 23.4831H38.2213Z" fill="#4D6371"/>
<path id="Vector_50" d="M40.7342 28.8066C40.5917 28.8118 40.4829 28.9401 40.4719 29.0819C40.4577 29.2604 40.5687 29.411 40.6911 29.5239C40.8331 29.6567 40.9832 29.7755 41.11 29.9261C41.2456 30.0813 41.3502 30.2611 41.4179 30.4559C41.4932 30.6744 41.5007 30.9107 41.4394 31.1337C41.4274 31.175 41.4905 31.1885 41.5026 31.1476C41.6308 30.7037 41.4595 30.2489 41.1827 29.9108C41.1121 29.8255 41.036 29.745 40.9548 29.6698C40.8667 29.5879 40.7696 29.5155 40.6863 29.4285C40.6031 29.3415 40.5402 29.2399 40.5362 29.1196C40.5322 28.9993 40.6144 28.879 40.7385 28.8746C40.7474 28.8742 40.7556 28.8703 40.7616 28.8637C40.7675 28.8572 40.7706 28.8486 40.7701 28.8397C40.7697 28.8309 40.7658 28.8226 40.7592 28.8167C40.7527 28.8108 40.7441 28.8077 40.7353 28.8081L40.7342 28.8066Z" fill="#4D6371"/>
<path id="Vector_51" d="M39.3516 27.8771C39.3617 27.9881 39.3912 28.0966 39.4388 28.1974C39.4567 28.2359 39.512 28.1993 39.4937 28.1608C39.4515 28.0698 39.4255 27.9722 39.4168 27.8723C39.4162 27.8636 39.4122 27.8556 39.4057 27.8499C39.3992 27.8442 39.3907 27.8413 39.382 27.8419C39.3734 27.8425 39.3653 27.8465 39.3596 27.853C39.3539 27.8595 39.3511 27.868 39.3516 27.8767V27.8771Z" fill="#4D6371"/>
<path id="Vector_52" d="M40.8664 26.0151C40.9154 26.0943 40.9649 26.1731 41.0128 26.2523C41.0352 26.2889 41.0901 26.2523 41.0677 26.2156L40.9213 25.9781C40.8989 25.9414 40.844 25.9781 40.8667 26.0147L40.8664 26.0151Z" fill="#4D6371"/>
<path id="Vector_53" d="M39.8709 56.4407C36.5339 55.719 34.4057 52.4143 35.1267 49.0742C35.8476 45.7341 39.1492 43.6033 42.4862 44.325C45.8232 45.0467 47.951 48.3518 47.2301 51.6933C46.5091 55.0349 43.2075 57.1627 39.8709 56.4407ZM42.285 45.257C39.4615 44.646 36.6679 46.4488 36.0576 49.2756C35.4473 52.1024 37.2482 54.8982 40.0717 55.5091C42.8953 56.12 45.6888 54.3173 46.2991 51.4908C46.9094 48.6643 45.1085 45.8679 42.285 45.2588V45.257Z" fill="#38516B"/>
<path id="Vector_54" d="M37.1682 49.1012L38.0637 51.2583C38.2069 51.6034 38.3502 51.9484 38.4936 52.2933C38.5842 52.5126 38.67 52.7349 38.7971 52.9342C38.9411 53.153 39.1383 53.3316 39.3702 53.4531C39.6021 53.5746 39.8611 53.6351 40.1228 53.6288C40.8251 53.6083 41.308 53.1137 41.7941 52.672C42.061 52.4296 42.3251 52.1836 42.5884 51.9368C44.0036 50.6086 45.3944 49.2544 46.8023 47.9185C47.4028 47.3485 48.0013 46.7742 48.6284 46.232C48.8673 46.0251 48.986 45.5772 48.9692 45.2774C48.9516 44.9641 48.7924 44.5941 48.5481 44.3886C48.2862 44.1693 47.9451 44.0128 47.5945 44.0479C47.2355 44.0845 46.9776 44.2344 46.707 44.4691C44.2768 46.5757 42.08 48.9415 39.6813 51.0831L39.5326 51.2148C39.4519 51.2879 39.3621 51.3058 39.6634 51.1051C39.5499 51.1816 39.5878 51.1701 39.777 51.0707C40.4475 50.9852 40.8698 51.1801 41.0439 51.6557C41.049 51.6326 40.9756 51.4908 40.9709 51.4831L40.8273 51.138C40.7441 50.9369 40.6605 50.7357 40.5768 50.5344L39.6455 48.2925C39.5129 47.9741 39.3245 47.7075 39.0107 47.5419C38.724 47.3917 38.3099 47.342 38.0016 47.4582C37.3829 47.6911 36.8881 48.43 37.1682 49.1034V49.1012Z" fill="#445D78"/>
<path id="Vector_55" d="M31.3281 35.3421L40.547 37.2549C40.8472 37.3174 40.9487 36.8527 40.6478 36.7887L31.4285 34.8748C31.1283 34.8127 31.0268 35.2788 31.3281 35.3413V35.3421Z" fill="#38516B"/>
<path id="Vector_56" d="M30.8612 37.4263L37.4841 38.8006L45.9119 40.5496L49.0626 41.2033C49.3628 41.2658 49.4644 40.8012 49.1631 40.7372L42.5405 39.3629L34.1124 37.6139L30.9616 36.9598C30.6618 36.8977 30.5599 37.362 30.8612 37.426V37.4263Z" fill="#38516B"/>
<path id="Vector_57" d="M42.1387 37.6907L47.6009 38.824L54.169 40.187L56.8717 40.7478C57.1715 40.8103 57.2734 40.3456 56.9721 40.2817L51.5099 39.1483L44.9418 37.7854L42.2391 37.2245C41.9389 37.162 41.8374 37.6267 42.1383 37.6907H42.1387Z" fill="#38516B"/>
<path id="Vector_58" d="M50.8359 41.6079L56.6086 42.7968C56.9088 42.859 57.0103 42.3946 56.7094 42.3307L50.9363 41.1414C50.6361 41.0796 50.5346 41.5457 50.8359 41.6079Z" fill="#38516B"/>
<path id="Vector_59" d="M30.2306 39.3488C33.1356 39.8908 36.0222 40.521 38.8904 41.2393C39.188 41.3124 39.2885 40.8474 38.9912 40.7732C36.1242 40.0551 33.2375 39.4249 30.3311 38.8826C30.0301 38.8263 29.9293 39.2925 30.2306 39.3488Z" fill="#38516B"/>
<path id="Vector_60" d="M40.5357 41.5739L52.6585 44.2022L56.0824 44.9444C56.3823 45.0094 56.4842 44.5422 56.1832 44.4779L44.0601 41.8499L40.6373 41.1078C40.3378 41.0427 40.2355 41.5099 40.5368 41.5739H40.5357Z" fill="#38516B"/>
<path id="Vector_61" d="M48.493 27.5717L59.1501 29.7459C59.4489 29.8069 59.5519 29.3437 59.2506 29.2819L48.5931 27.1081C48.2943 27.047 48.1935 27.5102 48.493 27.5717Z" fill="#38516B"/>
<path id="Vector_62" d="M48.1531 29.1196L58.8105 31.2927C59.1089 31.3538 59.2101 30.8906 58.9106 30.8292L48.2531 28.6549C47.9547 28.5939 47.8536 29.0571 48.1531 29.1185V29.1196Z" fill="#38516B"/>
<path id="Vector_63" d="M47.8744 31.0613L58.2831 33.211C58.5819 33.2724 58.6827 32.8088 58.3832 32.7471L47.9759 30.5984C47.6771 30.5366 47.5763 31.0006 47.8758 31.062L47.8744 31.0613Z" fill="#38516B"/>
<path id="Vector_64" d="M47.4784 33.1669L52.9118 34.2205C53.2109 34.2786 53.3135 33.8151 53.0119 33.7569L47.5785 32.7033C47.2794 32.6451 47.1768 33.1087 47.4784 33.1669Z" fill="#38516B"/>
<path id="Vector_65" d="M54.3535 34.6197L58.1905 35.4683C58.4886 35.5341 58.589 35.0705 58.2906 35.0044L54.4536 34.1558C54.156 34.09 54.0552 34.5536 54.3535 34.6197Z" fill="#38516B"/>
<path id="Vector_66" d="M47.0643 35.0902C50.5765 35.8763 54.107 36.5709 57.6557 37.1741C57.9555 37.2253 58.0574 36.7617 57.7558 36.7106C54.2075 36.1073 50.6771 35.4127 47.1644 34.6266C46.8667 34.5601 46.7663 35.0237 47.0643 35.0902Z" fill="#38516B"/>
<path id="Vector_67" d="M59.2364 23.4854L58.3613 27.5388L63.3312 28.614L59.2364 23.4854Z" fill="#AFD0D3"/>
<path id="Vector_68" d="M22.5388 40.1962C22.6881 39.7911 22.9347 39.3553 23.2188 38.9476C22.5092 38.5173 21.4731 37.8925 20.6509 37.4121C19.6079 40.1687 18.3135 44.0763 17.6152 46.219L21.2203 46.4051L24.485 45.3167C24.485 45.3167 21.5928 42.7634 22.5388 40.1962Z" fill="#FDBAA0"/>
<path id="Vector_69" d="M19.2942 54.7784C23.3985 54.0366 28.1098 49.2623 29.2084 47.6968C31.2606 44.7698 34.2875 43.3556 34.274 42.786C34.2605 42.2164 32.9859 40.9906 30.2778 42.204C27.7048 43.3567 25.8221 45.4805 24.2151 45.2436C23.5786 45.15 19.6528 44.935 19.6528 44.935C19.6528 44.935 17.7266 55.0618 19.2942 54.7784Z" fill="#FDBAA0"/>
<path id="Vector_70" d="M10.0006 62.4237C10.0006 62.4237 15.3032 58.6244 15.0811 58.1663C14.8591 57.7082 10.1141 49.7502 9.52978 47.2484C9.52978 47.2484 9.53891 46.7673 8.83587 46.961C8.13282 47.1548 2.24219 49.3129 2.24219 49.3129L3.58948 57.1693L10.0006 62.4237Z" fill="white"/>
<path id="Vector_71" d="M-8.08288 50.3101L-11.4082 64.3009L4.71114 68.1397C9.21795 64.7652 11.7409 62.7222 11.7555 61.9226C11.7592 61.7464 11.6952 61.523 11.5776 61.2616C11.44 60.9556 11.2292 60.5955 10.967 60.1959C9.62846 58.1485 6.96601 55.0475 6.02192 52.5772C5.49563 51.1985 5.07234 50.0885 4.62605 49.2831C4.49696 49.0447 4.34906 48.8169 4.18376 48.602C3.65127 47.9231 3.03515 47.6397 2.1557 47.8028C1.60422 47.9055 -5.08734 49.1789 -8.08288 50.3101Z" fill="#38516B"/>
<path id="Vector_72" d="M13.6985 58.401C13.7314 58.3212 13.74 58.2334 13.723 58.1487C13.7061 58.0641 13.6645 57.9863 13.6034 57.9254C13.5424 57.8644 13.4646 57.8229 13.38 57.8061C13.2954 57.7894 13.2077 57.7981 13.1281 57.8313C13.0484 57.8644 12.9804 57.9205 12.9326 57.9923C12.8847 58.0642 12.8593 58.1486 12.8594 58.2349C12.8595 58.3213 12.8852 58.4057 12.9332 58.4774C12.9812 58.5491 13.0494 58.605 13.1291 58.6379C13.182 58.6598 13.2388 58.6711 13.296 58.671C13.3533 58.671 13.41 58.6596 13.4629 58.6376C13.5158 58.6156 13.5638 58.5834 13.6042 58.5428C13.6447 58.5022 13.6767 58.454 13.6985 58.401Z" fill="#445D78"/>
</g>
</g>
</g>
</g>
<defs>
<clipPath id="clip0_766_2240">
<rect width="81.6509" height="76.3341" fill="white" transform="translate(0.455078 0.748047)"/>
</clipPath>
</defs>
</svg>
