<svg width="26" height="26" viewBox="0 0 26 26" fill="none" xmlns="http://www.w3.org/2000/svg">
<circle cx="13" cy="13" r="13" fill="#F4F4F4"/>
<path d="M9.672 17.472C10.184 17.808 11.208 18.176 12.376 18.176C14.872 18.176 16.168 16.72 16.168 15.056C16.168 13.6 15.128 12.64 13.848 12.384V12.352C15.128 11.888 15.768 10.976 15.768 9.904C15.768 8.64 14.84 7.424 12.792 7.424C11.672 7.424 10.616 7.824 10.072 8.224L10.44 9.248C10.888 8.928 11.688 8.56 12.52 8.56C13.816 8.56 14.344 9.296 14.344 10.128C14.344 11.36 13.048 11.888 12.024 11.888H11.24V12.944H12.024C13.384 12.944 14.696 13.568 14.712 15.024C14.728 15.888 14.168 17.04 12.36 17.04C11.384 17.04 10.456 16.64 10.056 16.384L9.672 17.472Z" fill="#2B2E2A"/>
</svg>
