<svg width="112" height="112" viewBox="0 0 112 112" fill="none" xmlns="http://www.w3.org/2000/svg">
<g id="Frame 59" filter="url(#filter0_d_764_441)">
<path id="Vector" d="M86.2503 53.9224C86.2503 70.6292 72.7082 84.1713 56.0014 84.1713C39.2946 84.1713 25.75 70.6292 25.75 53.9224C25.75 37.2156 39.2946 23.6729 56.0014 23.6729C72.7082 23.6729 86.2503 37.2156 86.2503 53.9224Z" fill="#38516B"/>
<path id="Vector_2" d="M45.8145 59.5347C45.8145 59.5347 53.7943 55.864 62.1027 59.5347L61.6273 60.2844C61.3891 60.6601 61.0598 60.9695 60.67 61.1838C60.2803 61.3982 59.8426 61.5106 59.3978 61.5106H54.3884C54.3884 61.5106 51.8571 62.4339 54.8375 62.4339H62.9585C62.9585 62.4339 69.0256 58.0986 72.0597 60.1669L62.4988 67.0523L45.8145 68.4372V59.5347Z" fill="#FFBDE0"/>
<path id="Vector_3" d="M74.3693 55.0732H38.4082V56.6562H74.3693V55.0732Z" fill="white"/>
<path id="Vector_4" d="M58.0925 37.1361C58.0925 37.4579 57.9971 37.7725 57.8183 38.0401C57.6395 38.3077 57.3854 38.5163 57.0881 38.6395C56.7908 38.7627 56.4636 38.795 56.148 38.7322C55.8323 38.6695 55.5424 38.5146 55.3147 38.287C55.0871 38.0595 54.9321 37.7696 54.8692 37.454C54.8064 37.1383 54.8385 36.8112 54.9616 36.5138C55.0847 36.2164 55.2931 35.9622 55.5607 35.7833C55.8282 35.6045 56.1428 35.5089 56.4646 35.5088C56.8962 35.5088 57.3102 35.6802 57.6155 35.9854C57.9208 36.2905 58.0924 36.7045 58.0925 37.1361Z" fill="white"/>
<path id="Vector_5" d="M56.3886 38.7188C38.8473 38.7188 41.4847 55.0726 41.4847 55.0726H71.47C71.47 55.0726 73.9294 38.7188 56.3886 38.7188Z" fill="#F2F2F2"/>
<path id="Vector_6" d="M45.8822 53.1824H42.9805C42.9805 40.7191 52.9381 39.5322 56.467 39.5322C47.0691 39.5322 45.8822 53.1824 45.8822 53.1824Z" fill="white"/>
<path id="Vector_7" d="M37.6309 72.3341V59.0088H46.0711V70.3745L37.6309 72.3341Z" fill="white"/>
<path id="Vector_8" d="M71.4675 55.0726C71.4675 55.0726 73.9294 38.7188 56.3887 38.7188V55.0726H71.4675Z" fill="white"/>
</g>
<defs>
<filter id="filter0_d_764_441" x="0.54233" y="0.481795" width="110.915" height="110.913" filterUnits="userSpaceOnUse" color-interpolation-filters="sRGB">
<feFlood flood-opacity="0" result="BackgroundImageFix"/>
<feColorMatrix in="SourceAlpha" type="matrix" values="0 0 0 0 0 0 0 0 0 0 0 0 0 0 0 0 0 0 127 0" result="hardAlpha"/>
<feOffset dy="2.01661"/>
<feGaussianBlur stdDeviation="12.6038"/>
<feComposite in2="hardAlpha" operator="out"/>
<feColorMatrix type="matrix" values="0 0 0 0 0.219608 0 0 0 0 0.317647 0 0 0 0 0.419608 0 0 0 0.15 0"/>
<feBlend mode="normal" in2="BackgroundImageFix" result="effect1_dropShadow_764_441"/>
<feBlend mode="normal" in="SourceGraphic" in2="effect1_dropShadow_764_441" result="shape"/>
</filter>
</defs>
</svg>
