<svg width="112" height="112" viewBox="0 0 112 112" fill="none" xmlns="http://www.w3.org/2000/svg">
<g id="Frame 56" filter="url(#filter0_d_764_336)">
<path id="Vector" d="M86.4965 53.9205C86.4965 70.6297 72.9544 84.1713 56.2483 84.1713C39.5422 84.1713 26 70.6297 26 53.9205C26 37.2113 39.5415 23.6729 56.2483 23.6729C72.955 23.6729 86.4965 37.2169 86.4965 53.9205Z" fill="#38516B"/>
<path id="Vector_2" d="M43.1367 36.1543V68.9918H68.1234C69.4421 71.8759 70.6296 72.9078 70.6296 72.9078C70.2273 69.6946 73.4612 68.9918 73.4612 68.9918V36.1543H43.1367Z" fill="#AFB2B5"/>
<path id="Vector_3" d="M70.6317 40.0703H40.3047V72.9072H70.6317V40.0703Z" fill="white"/>
<path id="Vector_4" d="M48.1456 45.0907C48.1457 45.2575 48.0964 45.4206 48.0038 45.5593C47.9113 45.6981 47.7796 45.8063 47.6256 45.8702C47.4715 45.9342 47.302 45.951 47.1384 45.9186C46.9748 45.8861 46.8244 45.8059 46.7064 45.6881C46.5884 45.5702 46.508 45.42 46.4753 45.2565C46.4427 45.0929 46.4592 44.9233 46.5229 44.7692C46.5867 44.6151 46.6946 44.4833 46.8333 44.3905C46.9719 44.2977 47.1349 44.2482 47.3017 44.248C47.4124 44.2479 47.5221 44.2696 47.6245 44.3118C47.7269 44.3541 47.8199 44.4162 47.8983 44.4944C47.9767 44.5727 48.0389 44.6656 48.0813 44.768C48.1237 44.8703 48.1456 44.98 48.1456 45.0907Z" fill="#38516B"/>
<path id="Vector_5" d="M63.6456 45.0907C63.6457 45.2575 63.5964 45.4206 63.5038 45.5594C63.4112 45.6982 63.2795 45.8064 63.1254 45.8703C62.9714 45.9342 62.8018 45.951 62.6382 45.9185C62.4745 45.8861 62.3242 45.8058 62.2062 45.6879C62.0882 45.57 62.0078 45.4197 61.9752 45.2561C61.9426 45.0925 61.9593 44.9229 62.0231 44.7688C62.0869 44.6146 62.195 44.4829 62.3337 44.3902C62.4724 44.2975 62.6355 44.248 62.8023 44.248C63.0258 44.248 63.2402 44.3368 63.3984 44.4948C63.5565 44.6528 63.6454 44.8672 63.6456 45.0907Z" fill="#38516B"/>
<path id="Vector_6" d="M40.3047 40.0707H45.0003V38.1768C44.8085 38.8514 43.6392 39.5604 40.3047 40.0707Z" fill="#38516B"/>
<path id="Vector_7" d="M67.9787 36.1543H43.2188C43.2188 36.1543 45.3033 37.1244 45.0016 38.177V40.071H67.9787V38.3438H67.9912C67.9674 37.6566 69.2336 36.8627 73.6488 36.1543H67.9787Z" fill="#F2F2F2"/>
<path id="Vector_8" d="M67.9885 38.3438H67.9785V40.071H70.6352C70.6352 40.071 68.0222 39.3139 67.9885 38.3438Z" fill="#38516B"/>
<path id="Vector_9" d="M62.2461 45.6064V50.4264C62.2461 53.2861 59.0179 55.6111 55.0512 55.6111C51.0846 55.6111 47.8563 53.2842 47.8563 50.4264V45.6064H46.7812V50.4264C46.7812 53.8795 50.4911 56.688 55.0512 56.688C59.6113 56.688 63.3212 53.877 63.3212 50.4264V45.6064H62.2461Z" fill="#F2F2F2"/>
<path id="Vector_10" d="M62.2461 45.0684V49.8889C62.2461 52.7486 59.0179 55.0737 55.0512 55.0737C51.0846 55.0737 47.8563 52.7474 47.8563 49.8889V45.0684H46.7812V49.8889C46.7812 53.3415 50.4911 56.1506 55.0512 56.1506C59.6113 56.1506 63.3212 53.3433 63.3212 49.8889V45.0684H62.2461Z" fill="#FFBDE0"/>
</g>
<defs>
<filter id="filter0_d_764_336" x="0.79233" y="0.481795" width="110.911" height="110.913" filterUnits="userSpaceOnUse" color-interpolation-filters="sRGB">
<feFlood flood-opacity="0" result="BackgroundImageFix"/>
<feColorMatrix in="SourceAlpha" type="matrix" values="0 0 0 0 0 0 0 0 0 0 0 0 0 0 0 0 0 0 127 0" result="hardAlpha"/>
<feOffset dy="2.01661"/>
<feGaussianBlur stdDeviation="12.6038"/>
<feComposite in2="hardAlpha" operator="out"/>
<feColorMatrix type="matrix" values="0 0 0 0 0.219608 0 0 0 0 0.317647 0 0 0 0 0.419608 0 0 0 0.15 0"/>
<feBlend mode="normal" in2="BackgroundImageFix" result="effect1_dropShadow_764_336"/>
<feBlend mode="normal" in="SourceGraphic" in2="effect1_dropShadow_764_336" result="shape"/>
</filter>
</defs>
</svg>
