<svg width="112" height="112" viewBox="0 0 112 112" fill="none" xmlns="http://www.w3.org/2000/svg">
<g id="Frame 60" filter="url(#filter0_d_764_453)">
<path id="Vector" d="M86.4163 53.8843C86.4163 70.5911 72.8742 84.1332 56.1674 84.1332C39.4606 84.1332 25.916 70.5911 25.916 53.8843C25.916 37.1775 39.4606 23.6348 56.1674 23.6348C72.8742 23.6348 86.4163 37.1775 86.4163 53.8843Z" fill="#FFBDE0"/>
<g id="6">
<path id="Vector_2" d="M43.2715 42.0645L43.2109 42.1182L47.6694 50.6877L56.1633 42.2169V42.0645H43.2715Z" fill="#38516B" fill-opacity="0.71"/>
<path id="Vector_3" d="M47.668 50.6876H56.1619V42.2168L47.668 50.6876Z" fill="#38516B"/>
<path id="Vector_4" d="M56.1619 50.6875H47.668L56.1619 70.3347V50.6875Z" fill="#38516B" fill-opacity="0.71"/>
<path id="Vector_5" d="M43.211 42.1184L33.5508 50.6879H41.2876C41.6493 49.4642 43.266 42.0697 43.211 42.1184Z" fill="#38516B"/>
<path id="Vector_6" d="M47.669 50.6879L43.2105 42.1184C43.2655 42.0697 41.6488 49.4642 41.2871 50.6879H47.669Z" fill="#38516B" fill-opacity="0.42"/>
<path id="Vector_7" d="M41.2191 50.8585C41.1466 50.7173 52.313 65.4051 56.1636 70.4738V70.3377L47.6678 50.6904H41.2884C41.2516 50.8091 41.2278 50.8716 41.2191 50.8585Z" fill="#38516B"/>
<path id="Vector_8" d="M41.218 50.858C41.2261 50.8737 41.2499 50.8112 41.2867 50.6875H33.5505L33.5137 50.7206L56.1632 70.7014V70.4709C52.3126 65.4046 41.1462 50.7169 41.218 50.858Z" fill="#38516B" fill-opacity="0.71"/>
<path id="Vector_9" d="M69.0539 42.0645L69.1145 42.1182L64.6554 50.6877L56.1621 42.2169V42.0645H69.0539Z" fill="#38516B"/>
<path id="Vector_10" d="M64.6554 50.6876H56.1621V42.2168L64.6554 50.6876Z" fill="#38516B" fill-opacity="0.71"/>
<path id="Vector_11" d="M56.1621 50.6875H64.6554L56.1621 70.3347V50.6875Z" fill="#38516B"/>
<path id="Vector_12" d="M69.1166 42.1184L78.7769 50.6879H71.04C70.6783 49.4642 69.0616 42.0697 69.1166 42.1184Z" fill="#38516B"/>
<path id="Vector_13" d="M64.6562 50.6879L69.1153 42.1184C69.0603 42.0697 70.677 49.4642 71.0387 50.6879H64.6562Z" fill="#38516B" fill-opacity="0.42"/>
<path id="Vector_14" d="M71.106 50.8585C71.1797 50.7173 60.0133 65.4051 56.1621 70.4738V70.3377L64.6579 50.6904H71.0379C71.0773 50.8091 71.0985 50.8716 71.106 50.8585Z" fill="#38516B" fill-opacity="0.71"/>
<path id="Vector_15" d="M71.106 50.858C71.0985 50.8737 71.0742 50.8112 71.0379 50.6875H78.7747L78.8116 50.7206L56.1621 70.7014V70.4709C60.0133 65.4046 71.1797 50.7169 71.106 50.858Z" fill="#38516B" fill-opacity="0.42"/>
<path id="Vector_16" d="M66.5629 51.6697L73.1859 50.8576L66.5629 50.0449L65.7502 43.4219L64.9381 50.0449L58.3145 50.8576L64.9381 51.6697L65.7502 58.2933L66.5629 51.6697Z" fill="white"/>
<path id="Vector_17" d="M65.75 51.6779L69.5025 54.6096L66.5702 50.8584L69.5025 47.1064L65.75 50.0375L61.998 47.1064L64.9304 50.8584L61.998 54.6096L65.75 51.6779Z" fill="white"/>
</g>
</g>
<defs>
<filter id="filter0_d_764_453" x="0.708345" y="0.443709" width="110.915" height="110.913" filterUnits="userSpaceOnUse" color-interpolation-filters="sRGB">
<feFlood flood-opacity="0" result="BackgroundImageFix"/>
<feColorMatrix in="SourceAlpha" type="matrix" values="0 0 0 0 0 0 0 0 0 0 0 0 0 0 0 0 0 0 127 0" result="hardAlpha"/>
<feOffset dy="2.01661"/>
<feGaussianBlur stdDeviation="12.6038"/>
<feComposite in2="hardAlpha" operator="out"/>
<feColorMatrix type="matrix" values="0 0 0 0 0.219608 0 0 0 0 0.317647 0 0 0 0 0.419608 0 0 0 0.15 0"/>
<feBlend mode="normal" in2="BackgroundImageFix" result="effect1_dropShadow_764_453"/>
<feBlend mode="normal" in="SourceGraphic" in2="effect1_dropShadow_764_453" result="shape"/>
</filter>
</defs>
</svg>
