<svg width="112" height="112" viewBox="0 0 112 112" fill="none" xmlns="http://www.w3.org/2000/svg">
<g id="Frame 58" filter="url(#filter0_d_764_418)">
<path id="Vector" d="M86.0179 53.9227C86.0179 70.6283 72.4779 84.1713 55.7687 84.1713C39.0596 84.1713 25.5195 70.6283 25.5195 53.9227C25.5195 37.2171 39.064 23.6729 55.7687 23.6729C72.4735 23.6729 86.0179 37.2165 86.0179 53.9227Z" fill="#FFBDE0"/>
<path id="Vector_2" d="M63.916 55.4786C63.916 55.7997 63.5493 56.0608 63.0971 56.0608H49.0416C48.5893 56.0608 48.2227 55.7997 48.2227 55.4786V42.0024C48.2227 41.6814 48.5893 41.4209 49.0416 41.4209H63.0971C63.5493 41.4209 63.916 41.6814 63.916 42.0024V55.4786Z" fill="#445D78"/>
<path id="Vector_3" d="M71.2471 54.4396C71.1847 54.7213 70.8723 54.8931 70.56 54.8225L60.6418 52.6362C60.3232 52.5656 60.1146 52.2802 60.1771 51.9978L62.7845 40.1657C62.847 39.884 63.1556 39.7123 63.4717 39.7822L73.3898 41.9685C73.7084 42.0384 73.9171 42.3245 73.8546 42.6062L71.2471 54.4396Z" fill="#38516B"/>
<path id="Vector_4" d="M76.1076 43.457H45.2013C44.8789 43.457 44.6172 43.7569 44.6172 44.1285C44.6172 44.5002 44.8789 44.7994 45.2013 44.7994H76.1076C76.43 44.7994 76.6911 44.4989 76.6911 44.1285C76.6911 43.7581 76.4306 43.457 76.1076 43.457Z" fill="#F2F2F2"/>
<path id="Vector_5" d="M74.1594 48.8408H46.7163C46.3939 48.8408 46.1328 49.1413 46.1328 49.5129C46.1328 49.8846 46.3939 50.1838 46.7163 50.1838H74.1594C74.4823 50.1838 74.7428 49.8834 74.7428 49.5129C74.7428 49.1425 74.4823 48.8408 74.1594 48.8408Z" fill="#F2F2F2"/>
<path id="Vector_6" d="M72.1018 54.2256H47.9089C47.5853 54.2256 47.3242 54.526 47.3242 54.8965C47.3242 55.2669 47.5853 55.5673 47.9089 55.5673H72.1018C72.4241 55.5673 72.6852 55.2675 72.6852 54.8965C72.6852 54.5254 72.4241 54.2256 72.1018 54.2256Z" fill="#F2F2F2"/>
<path id="Vector_7" d="M50.8697 44.3545L49.7109 44.5275L51.2888 58.5296L52.5125 58.8288L50.8697 44.3545Z" fill="#F2F2F2"/>
<path id="Vector_8" d="M55.525 44.4561L54.3594 44.5479L55.217 58.956L56.4407 58.7005L55.525 44.4561Z" fill="#F2F2F2"/>
<path id="Vector_9" d="M59.0422 44.252L59.0391 58.998L60.1522 58.9549L60.2103 44.252H59.0422Z" fill="#F2F2F2"/>
<path id="Vector_10" d="M64.4347 44.2041L62.2266 59.1688L63.4884 58.6572L65.5853 44.4271L64.4347 44.2041Z" fill="#F2F2F2"/>
<path id="Vector_11" d="M69.4573 44.1973L65.8262 59.2538L67.1242 58.9552L70.581 44.5558L69.4573 44.1973Z" fill="#F2F2F2"/>
<path id="Vector_12" d="M74.3714 43.9551L69.5723 58.5287L70.7216 59.0841L75.4633 44.4267L74.3714 43.9551Z" fill="#F2F2F2"/>
<path id="Vector_13" d="M73.1835 57.5333H49.6259L44.8783 42.2363C44.8108 43.0552 44.0731 43.2226 43.3672 43.3226L48.2198 58.847C48.3403 59.238 48.6627 59.4991 49.0244 59.4991H73.1835C73.6557 59.4991 74.0381 59.0618 74.0381 58.5159C74.0381 57.97 73.6545 57.5333 73.1835 57.5333Z" fill="#38516B"/>
<path id="Vector_14" d="M44.6607 41.4586C44.3636 41.2002 43.9824 41.0593 43.5887 41.0626H32.5424C31.7028 41.0626 31.0156 41.6766 31.0156 42.4337C31.0156 43.1907 31.7028 43.8048 32.5424 43.8048H43.5887C43.6502 43.8029 43.7115 43.7975 43.7724 43.7885C44.4801 43.7111 45.033 43.2038 45.1017 42.5642C45.1085 42.521 45.1131 42.4774 45.1154 42.4337C45.1135 42.2481 45.072 42.0651 44.9936 41.8969C44.9151 41.7287 44.8016 41.5793 44.6607 41.4586Z" fill="#F2F2F2"/>
<path id="Vector_15" d="M66.5573 68.834H47.6836L49.9368 58.3799L51.12 58.7172L49.2416 67.4323H66.5573V68.834Z" fill="#38516B"/>
<path id="Vector_16" d="M48.791 71.647C50.6622 71.5751 52.1208 70 52.0489 68.1288C51.977 66.2576 50.4019 64.7989 48.5307 64.8708C46.6595 64.9427 45.2009 66.5179 45.2727 68.3891C45.3446 70.2603 46.9198 71.7189 48.791 71.647Z" fill="#F2F2F2"/>
<path id="Vector_17" d="M51.2031 68.2588C51.2031 68.7617 51.0539 69.2534 50.7745 69.6716C50.495 70.0898 50.0978 70.4157 49.6331 70.6082C49.1684 70.8006 48.6571 70.851 48.1638 70.7528C47.6705 70.6546 47.2174 70.4124 46.8618 70.0567C46.5062 69.701 46.264 69.2478 46.166 68.7545C46.0679 68.2612 46.1184 67.7498 46.3109 67.2852C46.5035 66.8205 46.8295 66.4234 47.2478 66.1441C47.6661 65.8647 48.1578 65.7157 48.6608 65.7158C48.9947 65.7158 49.3253 65.7816 49.6338 65.9094C49.9423 66.0372 50.2226 66.2245 50.4587 66.4607C50.6947 66.6968 50.882 66.9771 51.0097 67.2857C51.1375 67.5942 51.2032 67.9248 51.2031 68.2588Z" fill="#38516B"/>
<path id="Vector_18" d="M69.5976 68.2588C69.5976 68.9294 69.3987 69.5849 69.0261 70.1425C68.6535 70.7001 68.124 71.1347 67.5044 71.3913C66.8848 71.6479 66.203 71.715 65.5453 71.5841C64.8876 71.4533 64.2834 71.1303 63.8093 70.656C63.3351 70.1818 63.0122 69.5776 62.8815 68.9198C62.7507 68.2621 62.818 67.5803 63.0747 66.9608C63.3314 66.3413 63.7661 65.8118 64.3237 65.4393C64.8814 65.0668 65.537 64.868 66.2076 64.8682C67.1068 64.8683 67.969 65.2256 68.6047 65.8615C69.2405 66.4973 69.5976 67.3596 69.5976 68.2588Z" fill="#F2F2F2"/>
<path id="Vector_19" d="M68.7499 68.2588C68.7499 68.7617 68.6008 69.2534 68.3213 69.6716C68.0419 70.0898 67.6447 70.4157 67.18 70.6082C66.7153 70.8006 66.204 70.851 65.7107 70.7528C65.2174 70.6546 64.7643 70.4124 64.4087 70.0567C64.053 69.701 63.8109 69.2478 63.7129 68.7545C63.6148 68.2612 63.6652 67.7498 63.8578 67.2852C64.0504 66.8205 64.3764 66.4234 64.7947 66.1441C65.2129 65.8647 65.7047 65.7157 66.2076 65.7158C66.5415 65.7158 66.8722 65.7816 67.1807 65.9094C67.4892 66.0372 67.7695 66.2245 68.0055 66.4607C68.2416 66.6968 68.4289 66.9771 68.5566 67.2857C68.6843 67.5942 68.75 67.9248 68.7499 68.2588Z" fill="#38516B"/>
</g>
<defs>
<filter id="filter0_d_764_418" x="0.311861" y="0.481795" width="110.913" height="110.913" filterUnits="userSpaceOnUse" color-interpolation-filters="sRGB">
<feFlood flood-opacity="0" result="BackgroundImageFix"/>
<feColorMatrix in="SourceAlpha" type="matrix" values="0 0 0 0 0 0 0 0 0 0 0 0 0 0 0 0 0 0 127 0" result="hardAlpha"/>
<feOffset dy="2.01661"/>
<feGaussianBlur stdDeviation="12.6038"/>
<feComposite in2="hardAlpha" operator="out"/>
<feColorMatrix type="matrix" values="0 0 0 0 0.219608 0 0 0 0 0.317647 0 0 0 0 0.419608 0 0 0 0.15 0"/>
<feBlend mode="normal" in2="BackgroundImageFix" result="effect1_dropShadow_764_418"/>
<feBlend mode="normal" in="SourceGraphic" in2="effect1_dropShadow_764_418" result="shape"/>
</filter>
</defs>
</svg>
