<svg width="112" height="112" viewBox="0 0 112 112" fill="none" xmlns="http://www.w3.org/2000/svg">
<g id="Frame 57" filter="url(#filter0_d_764_350)">
<path id="Vector" d="M86.6658 53.8846C86.6658 70.5902 73.1247 84.1332 56.4191 84.1332C39.7135 84.1332 26.1699 70.5902 26.1699 53.8846C26.1699 37.179 39.7129 23.6348 56.4191 23.6348C73.1253 23.6348 86.6658 37.1784 86.6658 53.8846Z" fill="#38516B"/>
<path id="Vector_2" d="M62.1423 70.9775H52.043V75.5949H62.1423V70.9775Z" fill="#38516B"/>
<path id="Vector_3" d="M48.0624 36.1162H48.0605V44.1361L48.0624 36.1162Z" fill="white"/>
<path id="Vector_4" d="M67.6074 45.0247C67.1894 45.0245 66.7855 44.8729 66.4705 44.598C66.1556 44.3231 65.9508 43.9435 65.894 43.5293C65.805 43.9097 65.5899 44.2488 65.2837 44.4914C64.9775 44.734 64.5981 44.8658 64.2075 44.8654H64.0413C63.6605 44.8653 63.2903 44.7396 62.9882 44.5078C62.6861 44.2759 62.469 43.9509 62.3704 43.583C62.3452 44.0239 62.1523 44.4384 61.8313 44.7417C61.5103 45.0449 61.0854 45.2139 60.6439 45.214H60.4777C60.0761 45.2134 59.6872 45.073 59.3778 44.8171C59.0683 44.5611 58.8576 44.2054 58.7818 43.811C58.7062 44.2061 58.4953 44.5626 58.1853 44.819C57.8753 45.0754 57.4857 45.2157 57.0834 45.2158H56.9172C56.4991 45.2158 56.0952 45.0643 55.7802 44.7893C55.4652 44.5144 55.2604 44.1347 55.2038 43.7204C55.1149 44.101 54.8999 44.4402 54.5936 44.6829C54.2874 44.9256 53.908 45.0576 53.5172 45.0572H53.3511C52.9486 45.0571 52.5588 44.9167 52.2487 44.6602C51.9386 44.4036 51.7276 44.047 51.652 43.6517C51.5767 44.047 51.3659 44.4037 51.0559 44.6602C50.7458 44.9168 50.356 45.0572 49.9536 45.0572H49.7875C49.405 45.0572 49.0332 44.9304 48.7304 44.6967C48.4276 44.463 48.2109 44.1355 48.114 43.7654C48.046 44.658 47.2701 45.362 46.3594 45.362H46.1932C46.0307 45.3617 45.8689 45.3384 45.7129 45.2927V70.6184H68.1078V44.991C67.9977 45.013 67.8858 45.0243 67.7736 45.0247H67.6074Z" fill="white"/>
<path id="Vector_5" d="M48.0605 36.117V36.1113H44.5V44.4416C44.5 44.4841 44.5 44.5266 44.5062 44.5666C44.5062 44.5965 44.5112 44.629 44.515 44.6559C44.5187 44.6827 44.5244 44.7283 44.5306 44.764C44.5262 44.7858 44.52 44.8071 44.515 44.8264C44.5845 45.1261 44.7326 45.4018 44.9441 45.6252C45.1555 45.8486 45.4227 46.0117 45.7181 46.0976V36.117H48.0605Z" fill="#F2F2F2"/>
<path id="Vector_6" d="M67.933 36.1162H48.0616H45.7148V46.1012C45.8709 46.1467 46.0326 46.1698 46.1952 46.1699H46.3614C47.2721 46.1699 48.0479 45.4666 48.116 44.5739C48.2129 44.9439 48.4297 45.2714 48.7325 45.5051C49.0353 45.7388 49.4069 45.8656 49.7894 45.8657H49.9556C50.3582 45.866 50.7483 45.7257 51.0586 45.4692C51.3689 45.2126 51.5799 44.8558 51.6552 44.4603C51.7308 44.8556 51.9418 45.2122 52.2519 45.4687C52.562 45.7252 52.9518 45.8656 53.3543 45.8657H53.5204C53.9112 45.8661 54.2906 45.7342 54.5968 45.4914C54.9031 45.2487 55.1181 44.9095 55.207 44.529C55.2636 44.9432 55.4684 45.3229 55.7834 45.5979C56.0984 45.8728 56.5023 46.0243 56.9204 46.0244H57.0866C57.4889 46.0242 57.8787 45.8838 58.1887 45.6273C58.4987 45.3708 58.7096 45.0142 58.785 44.6189C58.8604 45.0142 59.0713 45.3708 59.3813 45.6273C59.6913 45.8838 60.081 46.0242 60.4834 46.0244H60.6496C61.0911 46.0243 61.516 45.8553 61.837 45.5521C62.158 45.2488 62.3509 44.8343 62.3761 44.3934C62.4747 44.7613 62.6918 45.0863 62.9939 45.3182C63.296 45.55 63.6662 45.6757 64.047 45.6758H64.2107C64.6014 45.6762 64.9808 45.5443 65.287 45.3016C65.5933 45.0588 65.8083 44.7196 65.8972 44.3391C65.9538 44.7533 66.1586 45.133 66.4736 45.408C66.7886 45.6829 67.1925 45.8344 67.6106 45.8345H67.7712C67.8834 45.8343 67.9953 45.8232 68.1054 45.8014V36.1193L67.933 36.1162Z" fill="#F2F2F2"/>
<path id="Vector_7" d="M46.6591 30.2959C45.836 30.2984 45.0473 30.6264 44.4653 31.2085C43.8833 31.7905 43.5552 32.5792 43.5527 33.4023V73.1761C43.5549 73.9991 43.8829 74.7878 44.4651 75.3696C45.0472 75.9514 45.8361 76.279 46.6591 76.2806H57.2157V75.1619C57.1162 75.1791 57.0155 75.1881 56.9146 75.1887C56.4332 75.1887 55.9714 74.9975 55.631 74.6571C55.2906 74.3166 55.0994 73.8549 55.0994 73.3735C55.0994 72.8921 55.2906 72.4304 55.631 72.0899C55.9714 71.7495 56.4332 71.5583 56.9146 71.5583C57.0155 71.5589 57.1162 71.5679 57.2157 71.5851V70.5338H45.7159V35.2219H57.2157V30.2959H46.6591ZM53.7414 72.647C53.8848 72.6472 54.0249 72.6898 54.1441 72.7696C54.2633 72.8493 54.3561 72.9626 54.4109 73.0951C54.4657 73.2277 54.48 73.3735 54.4519 73.5141C54.4239 73.6547 54.3548 73.7839 54.2533 73.8853C54.1519 73.9866 54.0227 74.0556 53.882 74.0836C53.7413 74.1115 53.5956 74.0971 53.4631 74.0422C53.3306 73.9873 53.2174 73.8943 53.1377 73.7751C53.058 73.6558 53.0155 73.5157 53.0155 73.3722C53.0157 73.2769 53.0347 73.1825 53.0713 73.0945C53.108 73.0065 53.1617 72.9266 53.2293 72.8594C53.2969 72.7921 53.377 72.7389 53.4652 72.7026C53.5534 72.6664 53.6479 72.6479 53.7432 72.6483L53.7414 72.647Z" fill="#FFBDE0"/>
<path id="Vector_8" d="M67.1617 30.2959H57.2154L57.168 33.8864H57.2154V35.2219H68.1081V70.5338H57.2154V71.5851C57.6404 71.6537 58.027 71.8713 58.3061 72.199C58.5852 72.5267 58.7385 72.9431 58.7385 73.3735C58.7385 73.8039 58.5852 74.2203 58.3061 74.548C58.027 74.8757 57.6404 75.0933 57.2154 75.1619V76.2806H67.1617C67.9855 76.2791 68.7751 75.9514 69.3577 75.3691C69.9404 74.7868 70.2686 73.9974 70.2706 73.1736V33.4023C70.2683 32.5787 69.9399 31.7895 69.3573 31.2074C68.7747 30.6253 67.9853 30.2975 67.1617 30.2959ZM63.0978 32.9669C63.1227 32.742 63.1277 32.6121 63.1277 32.7583C63.1277 32.8289 63.1176 32.8991 63.0978 32.9669ZM60.0807 74.0987C59.9373 74.0987 59.7971 74.0562 59.6778 73.9765C59.5585 73.8968 59.4656 73.7835 59.4107 73.651C59.3558 73.5185 59.3414 73.3727 59.3694 73.232C59.3974 73.0913 59.4665 72.9621 59.5679 72.8607C59.6693 72.7593 59.7985 72.6902 59.9392 72.6622C60.0799 72.6342 60.2257 72.6486 60.3582 72.7035C60.4907 72.7584 60.604 72.8513 60.6837 72.9706C60.7634 73.0898 60.8059 73.2301 60.8059 73.3735C60.8059 73.5658 60.7295 73.7503 60.5935 73.8863C60.4575 74.0223 60.273 74.0987 60.0807 74.0987Z" fill="#FFBDE0"/>
<path id="Vector_9" d="M44.0859 43.3108C44.0821 43.2808 44.079 43.2508 44.0765 43.2209C44.0734 43.179 44.0703 43.1365 44.0703 43.0959V34.7656H40.5098V43.0953C40.5099 43.5539 40.6922 43.9937 41.0166 44.3179C41.3409 44.6422 41.7808 44.8243 42.2394 44.8243H42.4056C42.7963 44.8243 43.1755 44.6918 43.4813 44.4484C43.787 44.2051 44.0013 43.8653 44.089 43.4845C44.084 43.4632 44.0778 43.4414 44.0734 43.422C44.0771 43.3839 44.0809 43.3477 44.0859 43.3108ZM43.7536 35.7982C43.7486 35.7763 43.7423 35.7544 43.7379 35.7357C43.7448 35.7001 43.7486 35.6639 43.7536 35.6283C43.7586 35.5927 43.7467 35.5658 43.7442 35.5383C43.7411 35.4965 43.7379 35.454 43.7379 35.4134C43.7379 35.4559 43.7379 35.4983 43.7442 35.5383C43.7467 35.5683 43.7498 35.5983 43.7536 35.6283C43.7579 35.6639 43.7623 35.7001 43.7686 35.7357C43.7648 35.7526 43.7586 35.7763 43.7536 35.7982Z" fill="#FF9BD0"/>
<path id="Vector_10" d="M44.0714 34.7115L46.2914 32.4678L44.1726 32.4715L40.5078 34.7115V34.7659H44.0714V34.7115Z" fill="#FFBDE0"/>
<path id="Vector_11" d="M44.0703 34.7653H47.6339V34.711L49.0544 32.4629L46.2903 32.4673L44.0703 34.711V34.7653Z" fill="#F2F2F2"/>
<path id="Vector_12" d="M47.6339 34.7656H44.0703V43.0953C44.0703 43.1378 44.0703 43.1803 44.0766 43.2202C44.0791 43.2502 44.0822 43.2802 44.0859 43.3102C44.0903 43.3458 44.0947 43.382 44.1009 43.4176C44.0972 43.4395 44.0909 43.4613 44.0859 43.4801C44.1735 43.8608 44.3876 44.2006 44.6933 44.444C44.9989 44.6873 45.378 44.8199 45.7687 44.82H45.9355C46.8456 44.82 47.6221 44.1166 47.6901 43.224C47.6527 43.0813 47.6338 42.9343 47.6339 42.7867V34.7656Z" fill="white"/>
<path id="Vector_13" d="M44.0703 43.0957C44.0703 43.1382 44.0734 43.1807 44.0766 43.2206C44.0728 43.1807 44.0703 43.1382 44.0703 43.0957Z" fill="white"/>
<path id="Vector_14" d="M43.7465 35.5351C43.7427 35.4932 43.7402 35.4508 43.7402 35.4102C43.7402 35.4508 43.7434 35.4932 43.7465 35.5351Z" fill="#38516B"/>
<path id="Vector_15" d="M43.7402 35.7324C43.7446 35.7543 43.7509 35.7762 43.7559 35.7949C43.7608 35.773 43.7671 35.7512 43.7708 35.7324C43.7646 35.6968 43.7602 35.6606 43.7559 35.625C43.7509 35.6606 43.7471 35.6968 43.7402 35.7324Z" fill="#38516B"/>
<path id="Vector_16" d="M51.1972 34.7656H47.6367V42.7905C47.6366 43.0176 47.6813 43.2425 47.7682 43.4523C47.855 43.6622 47.9824 43.8529 48.1429 44.0135C48.3035 44.1741 48.4941 44.3015 48.7039 44.3885C48.9137 44.4754 49.1386 44.5201 49.3657 44.5201H49.5313C49.9337 44.52 50.3234 44.3796 50.6334 44.123C50.9434 43.8665 51.1543 43.5099 51.2297 43.1147C51.2093 43.0078 51.1991 42.8993 51.1991 42.7905L51.1972 34.7656Z" fill="#FF9BD0"/>
<path id="Vector_17" d="M47.6347 34.7658H51.1964V34.7115L52.001 32.459L49.0583 32.4634L47.6328 34.7115L47.6347 34.7227V34.7658Z" fill="#FF9BD0"/>
<path id="Vector_18" d="M51.1973 34.7653H54.7603V34.711V32.4541L52.0018 32.4585L51.1973 34.711V34.7653Z" fill="#F2F2F2"/>
<path id="Vector_19" d="M54.7617 34.7656H51.2012V42.7905C51.2012 43.2491 51.3833 43.6889 51.7076 44.0133C52.0318 44.3377 52.4716 44.52 52.9302 44.5201H53.0932C53.4837 44.5207 53.8629 44.3892 54.1691 44.147C54.4753 43.9047 54.6905 43.566 54.7798 43.1859C54.7693 43.1082 54.7639 43.03 54.7635 42.9516L54.7617 34.7656Z" fill="white"/>
<path id="Vector_20" d="M58.3253 34.766V34.7485H58.316V34.7117V32.4492L54.7623 32.4548V34.7117H54.7617V34.766H58.3253Z" fill="#FF9BD0"/>
<path id="Vector_21" d="M58.3253 34.7656H54.7617V42.9485C54.7625 43.0279 54.7686 43.1072 54.7798 43.1859C54.837 43.5994 55.0417 43.9782 55.3562 44.2526C55.6708 44.527 56.074 44.6783 56.4914 44.6788H56.6575C57.0599 44.6788 57.4497 44.5384 57.7598 44.2818C58.0698 44.0253 58.2806 43.6686 58.3559 43.2733C58.3359 43.1664 58.3256 43.0579 58.3253 42.9491V34.7656Z" fill="#FF9BD0"/>
<path id="Vector_22" d="M58.3238 34.7112V34.748V34.7655H61.8874V34.7112L61.0029 32.4443L58.3145 32.4487V34.7112H58.3238Z" fill="#F2F2F2"/>
<path id="Vector_23" d="M61.8886 34.7656H58.3281V42.9485C58.3284 43.0573 58.3387 43.1658 58.3587 43.2727C58.4343 43.668 58.6453 44.0246 58.9554 44.2811C59.2655 44.5377 59.6553 44.6781 60.0578 44.6782H60.2239C60.6655 44.6782 61.0904 44.5093 61.4113 44.206C61.7322 43.9027 61.9249 43.4881 61.9498 43.0472C61.9113 42.9012 61.8918 42.7509 61.8917 42.6L61.8886 34.7656Z" fill="white"/>
<path id="Vector_24" d="M65.4511 34.7656H61.8906V42.6006C61.8907 42.7515 61.9102 42.9019 61.9487 43.0478C62.0474 43.4156 62.2646 43.7406 62.5667 43.9725C62.8688 44.2043 63.2389 44.33 63.6197 44.3302H63.7858C64.1766 44.3307 64.556 44.1988 64.8623 43.9561C65.1686 43.7134 65.3836 43.3741 65.4724 42.9935C65.4619 42.9161 65.4564 42.838 65.4561 42.7599L65.4511 34.7656Z" fill="#FF9BD0"/>
<path id="Vector_25" d="M61.8884 34.766H65.4514V34.7166L64.65 33.5298L63.9098 32.4404L61.0039 32.4448L61.8884 34.7116V34.766Z" fill="#FF9BD0"/>
<path id="Vector_26" d="M65.45 34.7161V34.7655H69.0136V34.7261L66.5712 32.4355L63.9121 32.4399L64.6486 33.5293L65.45 34.7111V34.7161Z" fill="#F2F2F2"/>
<path id="Vector_27" d="M69.0136 34.7656H65.4531V42.7611C65.4535 42.8393 65.4589 42.9173 65.4694 42.9947C65.526 43.409 65.7307 43.7887 66.0457 44.0636C66.3607 44.3386 66.7647 44.4901 67.1828 44.4901H67.3489C67.7513 44.4902 68.141 44.3499 68.451 44.0934C68.761 43.837 68.9719 43.4805 69.0473 43.0853C69.027 42.9784 69.0168 42.8699 69.0167 42.7611L69.0136 34.7656Z" fill="white"/>
<path id="Vector_28" d="M72.6382 34.7659V34.7116L69.2626 32.4316L66.5859 32.436L69.0133 34.7116V34.7266V34.7659H72.6382Z" fill="#FF9BD0"/>
<path id="Vector_29" d="M69.0156 34.7656V42.7611C69.0155 42.9883 69.0602 43.2132 69.1471 43.423C69.234 43.6329 69.3614 43.8235 69.5221 43.9841C69.6827 44.1447 69.8734 44.2721 70.0833 44.3589C70.2932 44.4457 70.5181 44.4903 70.7453 44.4901H70.9114C71.37 44.4901 71.8098 44.308 72.134 43.9837C72.4583 43.6595 72.6405 43.2197 72.6405 42.7611V34.7656H69.0156Z" fill="#FF9BD0"/>
<path id="Vector_30" d="M61.4135 49.7373C62.4244 50.1983 63.2056 50.871 63.7572 51.7554C64.3087 52.6397 64.5847 53.7083 64.5853 54.9611C64.5937 55.7704 64.4073 56.5697 64.042 57.291C63.7087 57.9645 63.2096 58.5411 62.5922 58.9663C62.025 59.3644 61.3506 59.5794 60.6588 59.5824C60.0612 59.5824 59.5686 59.449 59.1808 59.1823C58.793 58.9155 58.5571 58.507 58.4729 57.9569C58.2314 58.4403 57.8731 58.8551 57.4308 59.1634C57.014 59.4428 56.5023 59.5824 55.8956 59.5824C55.4127 59.5908 54.9373 59.4609 54.5251 59.208C54.1188 58.9536 53.7934 58.5879 53.587 58.154C53.3557 57.6645 53.2412 57.1275 53.2527 56.5858C53.2527 56.4761 53.2604 56.3116 53.2774 56.0914C53.3253 55.3967 53.5493 54.7258 53.9281 54.1427C54.2953 53.5784 54.7996 53.1174 55.3933 52.8034C56.0063 52.4788 56.6902 52.313 57.383 52.3209C58.3012 52.3209 59.0404 52.56 59.6004 53.0382C60.1604 53.5163 60.4404 54.1827 60.4404 55.0373C60.4401 55.2074 60.4275 55.3772 60.4029 55.5455L60.2383 56.7255C60.2213 56.878 60.2136 56.9826 60.2136 57.0305C60.2136 57.2679 60.2613 57.435 60.3586 57.5318C60.4558 57.6287 60.605 57.6784 60.8072 57.6784C61.0905 57.6746 61.363 57.5685 61.5747 57.3793C61.8152 57.1805 62.0111 56.8823 62.1623 56.4847C62.3252 56.0202 62.4023 55.5297 62.39 55.0373C62.39 54.1913 62.2027 53.4506 61.828 52.8154C61.4533 52.1801 60.8981 51.6905 60.1624 51.3466C59.4295 50.9998 58.5409 50.8265 57.4964 50.8265C56.2422 50.8265 55.1684 51.0801 54.2752 51.5874C53.4143 52.063 52.7096 52.7799 52.2472 53.6509C51.7883 54.5141 51.5589 55.4884 51.5589 56.5738C51.5589 58.0288 51.9947 59.1648 52.8663 59.9818C53.7379 60.7987 55.0456 61.2029 56.7894 61.1943L56.3852 62.9596C54.8944 62.9424 53.633 62.6756 52.6011 62.1592C51.5692 61.6428 50.788 60.9107 50.2575 59.9629C49.7265 59.0174 49.4609 57.8877 49.4609 56.5738C49.4609 55.0416 49.8379 53.7066 50.5918 52.5686C51.3458 51.4297 52.4003 50.5242 53.6373 49.9533C54.9132 49.3483 56.3133 49.0455 57.8376 49.0449C59.2106 49.0449 60.4026 49.2757 61.4135 49.7373ZM57.9646 54.5549C57.6997 54.3219 57.3562 54.1993 57.0043 54.2121C56.7199 54.2118 56.4406 54.2885 56.1958 54.4341C55.9282 54.5981 55.7132 54.8361 55.5767 55.1196C55.4057 55.4776 55.3232 55.8718 55.3362 56.2687C55.3362 56.7338 55.4627 57.0851 55.7157 57.3227C55.9696 57.5607 56.3067 57.6885 56.6538 57.6784C56.9402 57.6782 57.2214 57.6013 57.4683 57.4556C57.7411 57.2913 57.9606 57.0511 58.1002 56.764C58.2651 56.4515 58.3473 56.0622 58.3467 55.5961C58.3461 55.1299 58.2188 54.7828 57.9646 54.5549Z" fill="#38516B"/>
</g>
<defs>
<filter id="filter0_d_764_350" x="0.962252" y="0.443709" width="110.911" height="110.913" filterUnits="userSpaceOnUse" color-interpolation-filters="sRGB">
<feFlood flood-opacity="0" result="BackgroundImageFix"/>
<feColorMatrix in="SourceAlpha" type="matrix" values="0 0 0 0 0 0 0 0 0 0 0 0 0 0 0 0 0 0 127 0" result="hardAlpha"/>
<feOffset dy="2.01661"/>
<feGaussianBlur stdDeviation="12.6038"/>
<feComposite in2="hardAlpha" operator="out"/>
<feColorMatrix type="matrix" values="0 0 0 0 0.219608 0 0 0 0 0.317647 0 0 0 0 0.419608 0 0 0 0.15 0"/>
<feBlend mode="normal" in2="BackgroundImageFix" result="effect1_dropShadow_764_350"/>
<feBlend mode="normal" in="SourceGraphic" in2="effect1_dropShadow_764_350" result="shape"/>
</filter>
</defs>
</svg>
