<svg width="231" height="135" viewBox="0 0 231 135" fill="none" xmlns="http://www.w3.org/2000/svg">
<g clip-path="url(#clip0_298_543)">
<path d="M18.2404 134.587C18.2404 134.587 -10.0039 100.603 3.79998 65.616C12.7976 42.8104 46.5459 30.3141 65.5968 42.8104C73.7093 48.1328 99.7365 42.9899 113.634 20.9551C140.64 -21.8636 234.893 4.14139 217.731 69.8832C209.427 101.697 243.003 102.85 225.895 134.655L18.2404 134.587Z" fill="#9FBCE7"/>
<path d="M74.5714 134.344H74.6293C75.1021 134.336 75.4691 133.95 75.4221 133.505L72.2686 102.043L69.5166 102.288L74.0448 133.92C74.0664 134.042 74.1317 134.153 74.2285 134.231C74.3253 134.309 74.4471 134.349 74.5714 134.344Z" fill="#FFBDE0"/>
<path d="M44.2015 134.344H44.1435C43.6707 134.336 43.3037 133.95 43.3507 133.505L46.5042 102.043L49.2562 102.288L44.728 133.92C44.7066 134.042 44.6414 134.153 44.5445 134.231C44.4477 134.309 44.3258 134.349 44.2015 134.344Z" fill="#FFBDE0"/>
<path d="M96.8224 134.344H96.8803C97.3531 134.336 97.7201 133.95 97.6731 133.505L94.5196 102.043L91.7676 102.288L96.2966 133.92C96.3179 134.042 96.3829 134.153 96.4796 134.231C96.5763 134.309 96.6981 134.349 96.8224 134.344Z" fill="#8CB4F4"/>
<path d="M45.1412 97.4661L39.5423 69.8506C38.8242 66.1119 41.9256 62.6936 45.9533 62.785L56.7498 63.0316C58.5653 63.0719 60.3205 63.6902 61.7598 64.7963C63.199 65.9024 64.2472 67.4386 64.7514 69.1812L72.9429 97.4661H45.1412Z" fill="#FFBDE0"/>
<path d="M48.5279 97.4661L42.929 69.8506C42.2109 66.1119 45.3123 62.6936 49.34 62.785L60.1365 63.0316C61.9515 63.0727 63.7061 63.6913 65.1448 64.7973C66.5835 65.9034 67.6312 67.4392 68.1356 69.1812L76.3262 97.4661H48.5279Z" fill="#FFBDE0"/>
<path d="M89.4182 102.502H46.7008C46.2869 102.502 45.8901 102.338 45.5974 102.045C45.3048 101.753 45.1404 101.357 45.1404 100.943V97.4613H89.4182C89.832 97.4613 90.2289 97.6256 90.5215 97.9178C90.8141 98.2101 90.9785 98.6066 90.9785 99.0199V100.939C90.9791 101.144 90.9391 101.347 90.8609 101.537C90.7828 101.726 90.6679 101.899 90.523 102.044C90.378 102.189 90.2058 102.304 90.0162 102.383C89.8267 102.462 89.6234 102.502 89.4182 102.502Z" fill="#FFBDE0"/>
<path d="M66.7476 102.502H93.9782C94.6725 102.502 95.2354 101.94 95.2354 101.246V98.7213C95.2354 98.0278 94.6725 97.4655 93.9782 97.4655H66.7476C66.0533 97.4655 65.4904 98.0278 65.4904 98.7213V101.246C65.4904 101.94 66.0533 102.502 66.7476 102.502Z" fill="#FFBDE0"/>
<path d="M82.3548 91.6851C80.0437 95.7023 77.1371 97.2533 77.1371 97.2533H65.0439C65.0439 97.2533 84.1175 88.6216 82.3548 91.6851Z" fill="#233862"/>
<path d="M97.2687 131.602C97.1385 132.869 98.903 133.196 100.95 133.32C102.996 133.444 102.377 133.856 105.174 134.394C107.97 134.931 109.107 134.176 109.314 133.8C109.499 133.464 108.2 132.927 106.816 132.318C106.642 132.242 106.467 132.163 106.292 132.085C104.735 131.381 103.872 129.97 102.666 128.657C101.524 127.414 100.469 123.456 100.469 123.456L96.6641 122.605C96.6641 122.605 97.697 126.165 98.0523 127.683C98.2614 128.576 97.928 129.569 97.6324 130.324C97.4745 130.735 97.3141 131.155 97.2687 131.602Z" fill="#FDBAA0"/>
<path d="M100.947 133.319C102.994 133.443 102.375 133.855 105.171 134.392C107.968 134.93 109.105 134.175 109.312 133.798C109.496 133.463 108.197 132.925 106.813 132.316L106.791 132.34C105.401 132.725 103.932 132.727 102.54 132.345C100.693 131.821 98.9064 130.694 97.6308 130.322C97.472 130.733 97.3116 131.154 97.2663 131.601C97.1386 132.867 98.9031 133.194 100.947 133.319Z" fill="#236FE0"/>
<path d="M91.5043 87.5739C89.4569 86.1378 75.9151 83.5777 69.0035 82.8378L61.3613 76.2109C61.3613 76.2109 54.8595 85.8299 54.8108 93.1891C54.7865 96.62 56.3687 96.9639 56.3695 96.9639C56.3703 96.9639 80.8565 97.1451 81.9306 97.2558C83.6874 97.4362 86.0044 101.808 86.5839 105.79C87.1634 109.772 97.3745 125.968 97.3745 125.968C97.3745 125.968 99.5034 126.65 100.489 126.592C101.548 126.53 102.038 126.172 102.038 126.172C102.038 126.172 96.1216 90.8085 91.5043 87.5739Z" fill="#38516B"/>
<path d="M90.9347 131.602C90.8037 132.869 92.569 133.196 94.6156 133.32C96.6622 133.444 96.0433 133.856 98.8398 134.394C101.636 134.932 102.773 134.177 102.98 133.8C103.165 133.465 101.866 132.927 100.482 132.318C100.308 132.242 100.133 132.164 99.9584 132.086C98.4014 131.381 97.5381 129.97 96.3322 128.657C95.19 127.414 94.1344 123.456 94.1344 123.456L90.3301 122.602C90.3301 122.602 91.363 126.161 91.7183 127.679C91.9274 128.572 91.594 129.565 91.2984 130.32C91.1405 130.735 90.9801 131.155 90.9347 131.602Z" fill="#FDBAA0"/>
<path d="M94.6154 133.319C96.662 133.443 96.0431 133.855 98.8397 134.392C101.636 134.93 102.773 134.175 102.98 133.798C103.165 133.463 101.865 132.925 100.481 132.316L100.46 132.34C99.0691 132.725 97.6 132.727 96.2085 132.345C94.361 131.821 92.5747 130.694 91.2991 130.322C91.1403 130.733 90.9799 131.154 90.9346 131.601C90.8036 132.867 92.5688 133.194 94.6154 133.319Z" fill="#236FE0"/>
<path d="M85.1144 87.5753C83.3365 86.3279 77.987 85.3608 72.0815 84.6394C71.2839 84.5418 70.5347 84.2049 69.9327 83.6733C69.3307 83.1416 68.9043 82.4402 68.7097 81.6615L54.9755 76.209C54.9755 76.209 48.473 85.828 48.4251 93.1872C48.4007 96.618 49.9838 96.962 49.9838 96.962C49.9838 96.962 74.4716 97.1431 75.5448 97.2539C77.3017 97.4342 79.6187 101.806 80.1982 105.788C80.7776 109.77 90.9888 125.966 90.9888 125.966C90.9888 125.966 93.1185 126.648 94.1028 126.59C95.1618 126.528 95.6522 126.17 95.6522 126.17C95.6522 126.17 89.7316 90.8099 85.1144 87.5753Z" fill="#38516B"/>
<path d="M66.736 36.2454C64.8481 35.2556 61.9768 35.1214 61.5099 35.0585C55.9269 34.3094 52.5668 42.4126 52.3686 44.8729C52.005 49.4027 49.6074 50.0889 46.2381 52.9258C39.4726 58.6098 41.4571 65.214 45.1556 67.6676C47.3752 69.1398 51.2861 67.6676 51.2861 67.6676C51.3407 67.7062 61.9844 61.7244 67.2315 58.8388C75.0945 57.7123 71.5455 38.7678 66.736 36.2454Z" fill="#38516B"/>
<path d="M65.5707 56.0421C65.5951 56.0547 63.09 57.193 61.2819 56.5966C59.5804 56.0363 58.0822 53.4778 58.1057 53.4744C58.8439 53.3671 59.5947 52.6356 59.8047 48.3281L60.1313 48.412L65.6295 49.7995C65.6295 49.7995 65.412 51.5392 65.3222 53.1842C65.2466 54.5641 65.2617 55.8785 65.5707 56.0421Z" fill="#FDBAA0"/>
<path d="M66.8031 50.0189C66.8031 50.0189 59.5321 51.2008 58.8645 46.6635C58.1968 42.1262 56.8095 39.2288 61.4234 38.2826C66.0372 37.3364 67.1953 38.9327 67.7865 40.3923C68.3778 41.8519 68.6767 49.5944 66.8031 50.0189Z" fill="#FDBAA0"/>
<path d="M66.8095 38.0938C66.8095 38.0938 63.5074 43.2997 60.5606 44.5328C57.6137 45.7659 56.165 45.1401 56.165 45.1401C57.0488 43.6866 57.624 42.0671 57.8547 40.3822C57.9035 39.9869 58.0573 39.6119 58.3 39.2959C58.5428 38.98 58.8657 38.7347 59.2354 38.5854C61.3508 37.7415 65.4423 36.4044 66.8095 38.0938Z" fill="#38516B"/>
<path d="M63.9121 38.5985C63.9121 38.5985 65.8437 39.5933 66.6423 40.516C67.4116 41.4119 68.2992 43.8446 68.2379 44.9368C68.2379 44.9368 69.1919 39.7024 67.2041 37.9031C65.0937 35.9972 63.9121 38.5985 63.9121 38.5985Z" fill="#38516B"/>
<path d="M71.3864 67.1196C71.1655 81.8832 71.3259 78.7971 69.7068 80.198C69.3171 80.5335 68.222 80.7357 66.7809 80.8313C62.246 81.1316 54.2838 80.3859 53.9806 79.5496C52.9351 76.6547 53.6733 75.7555 52.8049 71.3239C52.7142 70.8533 52.6017 70.3433 52.469 69.7871C51.7417 66.7438 51.0346 65.7087 53.6136 60.819C55.9533 56.39 58.7045 52.7922 58.9229 52.9213C65.0946 56.5812 65.3054 53.5136 65.3054 53.5136C65.3054 53.5136 71.4964 59.9198 71.3864 67.1196Z" fill="white"/>
<path d="M65.3066 53.5117C65.3066 53.5117 71.6228 54.5812 72.3685 57.3125C73.1143 60.0438 77.5031 76.1026 77.5031 76.1026C77.5031 76.1026 74.2749 76.6814 72.7834 75.1916C71.2919 73.7018 67.5934 61.37 67.5934 61.37L65.3066 53.5117Z" fill="white"/>
<path d="M66.7846 80.8303C62.2497 81.1306 54.2875 80.3848 53.9843 79.5485C52.9388 76.6537 53.6769 75.7544 52.8086 71.3228L54.9921 65.1758C54.9921 65.1758 54.631 72.0216 56.6524 73.8217C58.6738 75.6219 64.9278 77.2979 65.9095 78.8028C66.3823 79.5217 66.6939 80.2481 66.7846 80.8303Z" fill="white"/>
<path d="M61.5928 77.951C61.5928 77.951 66.063 76.957 66.7844 77.3529C67.5058 77.7489 69.2686 79.1925 69.4894 79.695C69.7103 80.1975 67.8837 79.3133 67.2891 79.1548C66.9045 79.0516 65.8917 79.4064 65.3904 79.5742C63.2808 80.2763 61.9875 79.9156 61.9875 79.9156L61.5928 77.951Z" fill="#FDBAA0"/>
<path d="M58.9229 52.9219C58.9229 52.9219 52.595 53.2918 50.5173 56.1866C47.5923 60.2617 41.7893 77.63 45.1149 79.9427C48.8604 82.5515 62.1629 80.6255 62.1629 80.6255C62.1629 80.6255 62.6054 78.5586 61.9899 77.5595C61.3743 76.5605 51.3664 74.9449 50.9045 74.4835C50.4426 74.0221 56.6781 65.4869 56.6781 64.1028C56.6781 62.7187 58.9229 52.9219 58.9229 52.9219Z" fill="white"/>
<path d="M67.001 78.5996C67.001 78.5996 67.9374 79.8067 68.2447 79.951C68.5521 80.0953 68.7486 80.0584 68.7486 80.0584L68.1171 78.9242L67.001 78.5996Z" fill="#FFB27D"/>
<path d="M66.7852 77.3535L69.5086 78.6747C69.5086 78.6747 69.3927 78.8643 69.0577 78.8492C68.7226 78.8341 67.8761 78.5245 67.8761 78.5245L66.7852 77.3535Z" fill="#FDBAA0"/>
<path d="M76.818 80.4851H64.1689C64.1689 80.2182 64.2751 79.9621 64.4641 79.7733C64.6531 79.5846 64.9094 79.4785 65.1767 79.4785H76.818V80.4851Z" fill="#236FE0"/>
<path d="M76.781 66.7246H96.3375L91.6463 80.485H71.9639L76.781 66.7246Z" fill="#236FE0"/>
<path d="M96.6255 66.7246L91.9344 80.485H72.252L77.0691 66.7246H96.6255Z" fill="#236FE0"/>
<path d="M86.0825 73.4775C85.9608 74.0034 85.4359 74.4296 84.9068 74.4296C84.3777 74.4296 84.0527 74.0034 84.1737 73.4775C84.2946 72.9515 84.8203 72.5254 85.3494 72.5254C85.8785 72.5254 86.2035 72.9515 86.0825 73.4775Z" fill="white"/>
<path d="M145.498 80.4844H59.7971C59.4367 80.4844 59.1445 80.7762 59.1445 81.1362V82.9279C59.1445 83.2879 59.4367 83.5797 59.7971 83.5797H145.498C145.858 83.5797 146.151 83.2879 146.151 82.9279V81.1362C146.151 80.7762 145.858 80.4844 145.498 80.4844Z" fill="#38516B"/>
<path d="M147.596 134.575H147.633C147.736 134.564 147.836 134.532 147.927 134.482C148.018 134.432 148.098 134.364 148.162 134.283C148.227 134.201 148.275 134.108 148.303 134.008C148.331 133.909 148.34 133.804 148.327 133.701L140.69 82.0645L137.895 82.1483L146.88 134.063C146.912 134.224 147.004 134.366 147.137 134.461C147.27 134.556 147.434 134.597 147.596 134.575Z" fill="#38516B"/>
<path d="M56.9266 134.575H56.8905C56.7872 134.564 56.6873 134.532 56.5964 134.482C56.5056 134.432 56.4255 134.364 56.361 134.283C56.2964 134.201 56.2486 134.108 56.2203 134.008C56.1919 133.909 56.1837 133.804 56.1959 133.701L63.8331 82.0645L66.6288 82.1483L57.6429 134.063C57.6114 134.224 57.5197 134.366 57.3865 134.461C57.2533 134.557 57.0888 134.597 56.9266 134.575Z" fill="#38516B"/>
<path d="M74.607 134.575H74.5701C74.4669 134.564 74.367 134.532 74.2762 134.482C74.1854 134.431 74.1054 134.364 74.0408 134.282C73.9763 134.201 73.9285 134.108 73.9001 134.008C73.8717 133.908 73.8634 133.804 73.8755 133.701L81.5127 82.0645L84.3084 82.1483L75.3225 134.063C75.2908 134.224 75.1992 134.366 75.0662 134.461C74.9333 134.556 74.7691 134.597 74.607 134.575Z" fill="#38516B"/>
<path d="M231.676 134.086H-5.67584C-5.85487 134.086 -6 134.231 -6 134.41V134.676C-6 134.854 -5.85487 134.999 -5.67584 134.999H231.676C231.855 134.999 232 134.854 232 134.676V134.41C232 134.231 231.855 134.086 231.676 134.086Z" fill="#2E3552"/>
<path d="M119.662 134.533H134.816C135.545 133.645 135.277 130.367 135.167 129.297C135.144 129.081 135.129 128.955 135.129 128.955C135.129 128.955 129.953 124.821 129.243 127.986C129.221 128.086 129.195 128.183 129.166 128.279C128.27 131.24 124.253 132.586 121.934 132.961C120.425 133.209 119.868 133.987 119.662 134.533Z" fill="#236FE0"/>
<path d="M161.013 85.3477C160.466 85.3477 135.054 90.114 130.85 95.3106C128.751 97.911 128.438 127.892 128.438 127.892C128.438 127.892 131.037 131.11 136.648 129.242C136.648 129.242 140.763 108.726 140.457 102.504C140.373 100.783 157.82 102.252 161.013 101.429C164.206 100.606 172.008 93.6656 170.289 90.2851C168.57 86.9046 161.013 85.3477 161.013 85.3477Z" fill="#38516B"/>
<path d="M130.959 78.0039C130.959 78.0039 125.837 78.0727 124.621 78.5911C123.406 79.1095 120.95 80.3015 121.608 80.4844C122.267 80.6672 125.407 80.4089 126.084 80.5129C126.762 80.6169 127.6 80.4835 128.016 80.4844H130.367L130.959 78.0039Z" fill="#FDBAA0"/>
<path d="M124.966 65.7167C124.966 65.7167 123.218 64.4693 121.523 64.2269C120.554 64.0893 119.614 63.9165 119.045 63.7169C117.479 63.1658 114.342 60.3514 114.582 60.0209C115.342 58.9632 119.001 61.202 119.639 60.9621C120.277 60.7222 118.412 59.3968 119.061 58.9304C119.397 58.6872 120.192 59.9068 120.841 60.0293C121.717 60.1971 122.403 61.4319 122.667 61.4965C123.18 61.6223 125.431 63.2941 125.431 63.2941L124.966 65.7167Z" fill="#FDBAA0"/>
<path d="M158.482 51.1484C158.482 51.1484 154.58 52.3564 150.735 62.9308C146.891 73.5053 145.431 74.0765 144.034 74.4884C142.636 74.9003 130.37 77.3405 130.37 77.3405V80.4794H149.271C149.271 80.4794 156.357 73.7452 158.482 69.2121C160.606 64.679 158.482 51.1484 158.482 51.1484Z" fill="#1DD6C9"/>
<path d="M112.965 134.533H128.119C128.848 133.645 128.579 130.367 128.469 129.297C128.447 129.081 128.431 128.955 128.431 128.955C128.431 128.955 123.256 124.821 122.545 127.986C122.523 128.086 122.497 128.183 122.468 128.279C121.573 131.24 117.556 132.586 115.237 132.961C113.728 133.209 113.171 133.987 112.965 134.533Z" fill="#236FE0"/>
<path d="M153.525 85.3477C152.978 85.3477 127.566 90.114 123.362 95.3106C121.263 97.911 120.95 127.892 120.95 127.892C120.95 127.892 123.549 131.11 129.159 129.242C129.159 129.242 133.274 108.726 132.969 102.504C132.885 100.783 150.332 102.252 153.525 101.429C156.719 100.606 164.52 93.6656 162.801 90.2851C161.082 86.9046 153.525 85.3477 153.525 85.3477Z" fill="#38516B"/>
<path d="M155.114 54.5016C156.942 54.3515 158.859 53.8641 160.516 53.3272C162.587 52.6562 164.255 51.6756 163.18 49.7848C162.189 48.0425 160.584 44.1503 160.693 40.9258L156.839 44.0295L154.223 46.1375C154.223 46.1375 154.233 47.379 154.519 49.5558C154.571 49.9526 154.633 50.3812 154.705 50.8392C154.733 51.0202 154.708 51.2056 154.631 51.3721C154.555 51.5386 154.431 51.6789 154.275 51.7754L154.215 51.8123C152.915 52.6251 153.584 54.6283 155.114 54.5016Z" fill="#FDBAA0"/>
<path d="M152.064 45.9991C152.064 45.9991 161.041 47.488 161.883 41.8887C162.725 36.2895 164.452 32.7135 158.757 31.5257C153.061 30.3379 151.623 32.3058 150.888 34.106C150.152 35.9061 149.751 45.4639 152.064 45.9991Z" fill="#FDBAA0"/>
<path d="M149.572 31.6321C149.186 32.9801 150.218 34.6217 151.949 35.1627C154.52 35.9647 153.951 39.1145 155.109 39.0718C156.266 39.029 156.732 37.2615 157.765 38.6733C158.647 39.8779 157.032 41.3064 157.143 41.9666C157.333 43.1007 159.112 45.421 160.714 45.3044C162.317 45.1878 165.316 37.5803 164.716 35.2265C164.116 32.8727 161.717 30.3914 159.446 30.0492C157.175 29.7069 154.023 30.6858 153.295 30.6858C152.567 30.6858 149.776 30.9039 149.572 31.6321Z" fill="#38516B"/>
<path d="M170.41 58.9196C169.112 53.7036 165.528 48.2344 163.102 48.2344C158.97 48.2419 153.031 49.3316 150.633 55.2404C148.87 59.5923 146.511 84.6251 149.174 86.4059C155.26 90.476 169.367 98.7839 171.873 90.3116C174.17 82.5489 172.661 67.9723 170.41 58.9196Z" fill="#1DD6C9"/>
<path d="M160.375 53.7276C160.101 53.0151 159.664 52.3766 159.099 51.8632C158.534 51.3498 157.856 50.9757 157.12 50.771C156.384 50.5662 155.61 50.5365 154.86 50.6842C154.111 50.8318 153.406 51.1528 152.803 51.6213C151.4 52.7118 149.683 54.2628 147.609 56.469C139.899 64.6703 138.332 64.6192 136.884 64.4497C135.437 64.2803 123.202 61.6866 123.202 61.6866C122.788 62.0136 122.449 62.4255 122.207 62.8945C121.715 63.891 121.963 64.5722 121.963 64.5722C121.483 64.2627 126.299 67.5786 128.696 68.9006C131.862 70.6471 136.632 72.2837 138.532 72.9052C139.07 73.0811 139.652 73.0725 140.185 72.8809C143.005 71.8651 152.474 68.1658 160.184 61.7461C162.214 60.0533 161.468 56.5671 160.375 53.7276Z" fill="#1DD6C9"/>
<path d="M163.518 48.2843L162.582 46.1797C162.582 46.1797 154.209 46.8617 152.803 51.6213C152.803 51.6213 159.293 48.3867 163.518 48.2843Z" fill="white"/>
<path d="M183.846 134.344H183.903C184.376 134.336 184.743 133.95 184.697 133.505L181.543 102.043L178.791 102.288L183.319 133.92C183.341 134.042 183.406 134.153 183.503 134.231C183.6 134.309 183.721 134.349 183.846 134.344Z" fill="#236FE0"/>
<path d="M167.611 134.344H167.669C168.142 134.336 168.509 133.95 168.463 133.505L165.309 102.043L162.557 102.288L167.086 133.92C167.107 134.042 167.172 134.153 167.269 134.231C167.365 134.309 167.487 134.349 167.611 134.344Z" fill="#236FE0"/>
<path d="M137.135 134.344H137.077C136.604 134.336 136.237 133.95 136.283 133.505L139.438 102.043L142.19 102.288L137.661 133.92C137.64 134.042 137.574 134.153 137.478 134.231C137.381 134.309 137.259 134.349 137.135 134.344Z" fill="#236FE0"/>
<path d="M182.953 97.5848L185.947 71.3072C186.34 67.5207 185.071 63.813 179.6 63.5253L169.975 62.9381C164.271 62.7032 161.696 67.4452 160.973 71.0967L155.263 99.9822L182.953 97.5848Z" fill="#236FE0"/>
<path d="M138.628 97.4648H182.905V100.943C182.905 101.356 182.741 101.752 182.448 102.045C182.156 102.337 181.759 102.501 181.345 102.501H138.628C138.214 102.501 137.817 102.337 137.524 102.045C137.232 101.752 137.067 101.356 137.067 100.943V99.0234C137.067 98.6101 137.232 98.2136 137.524 97.9213C137.817 97.629 138.214 97.4648 138.628 97.4648Z" fill="#236FE0"/>
<path d="M156.472 97.4648H182.906V101.291C182.907 101.45 182.876 101.608 182.815 101.755C182.754 101.903 182.665 102.037 182.553 102.149C182.44 102.262 182.306 102.352 182.159 102.413C182.012 102.474 181.854 102.505 181.694 102.505H156.472C156.15 102.505 155.842 102.378 155.615 102.151C155.387 101.924 155.26 101.616 155.26 101.295V98.6795C155.259 98.5202 155.29 98.3623 155.351 98.215C155.411 98.0676 155.501 97.9337 155.613 97.8209C155.726 97.708 155.86 97.6185 156.007 97.5574C156.154 97.4963 156.312 97.4648 156.472 97.4648Z" fill="#236FE0"/>
</g>
<defs>
<clipPath id="clip0_298_543">
<rect width="231" height="135" fill="white"/>
</clipPath>
</defs>
</svg>
