<svg width="205" height="205" viewBox="0 0 205 205" fill="none" xmlns="http://www.w3.org/2000/svg">
<g clip-path="url(#clip0_298_360)">
<path d="M189.752 140.175C170.537 185.396 119.352 210.73 74.9636 203.896C67.7404 202.784 47.9387 199.471 30.4074 183.843C-3.34213 153.762 -10.5596 94.195 16.6631 52.2162C36.4797 21.6635 71.9997 4.34403 105.751 5.20968C113.021 5.39595 140.882 6.54634 165.368 26.7261C168.968 29.6878 176.896 36.7343 184.045 47.9086C200.832 74.1479 202.275 110.702 189.752 140.175Z" fill="#9FBCE7"/>
<path d="M162.409 92.9556C179.768 92.9556 193.84 78.7923 193.84 61.3211C193.84 43.8498 179.768 29.6865 162.409 29.6865C145.051 29.6865 130.979 43.8498 130.979 61.3211C130.979 78.7923 145.051 92.9556 162.409 92.9556Z" fill="#236FE0"/>
<mask id="mask0_298_360" style="mask-type:luminance" maskUnits="userSpaceOnUse" x="132" y="31" width="61" height="61">
<path d="M162.387 91.465C178.915 91.465 192.314 77.9797 192.314 61.3448C192.314 44.7099 178.915 31.2246 162.387 31.2246C145.859 31.2246 132.461 44.7099 132.461 61.3448C132.461 77.9797 145.859 91.465 162.387 91.465Z" fill="white"/>
</mask>
<g mask="url(#mask0_298_360)">
<path d="M199.887 99.2573L127.422 101.638C127.211 101.644 127.006 101.567 126.853 101.422C126.699 101.277 126.608 101.076 126.6 100.864L123.993 20.3608C123.986 20.1488 124.063 19.9429 124.207 19.7881C124.351 19.6333 124.551 19.5424 124.761 19.5351L197.226 17.1537C197.437 17.1475 197.642 17.2254 197.796 17.3705C197.949 17.5156 198.04 17.7159 198.047 17.928L200.658 98.4316C200.664 98.6439 200.587 98.8501 200.442 99.0048C200.297 99.1596 200.098 99.2504 199.887 99.2573Z" fill="white"/>
<path d="M146.989 65.0471C146.989 65.0471 165.118 61.5502 179.631 64.9408L179.157 79.9352C179.157 79.9352 175.993 100.816 173.414 110.081C173.414 110.081 162.447 112.374 157.077 109.653C157.077 109.653 151.916 83.7304 149.393 79.948C149.397 79.9466 146.667 69.8899 146.989 65.0471Z" fill="#FFBDE0"/>
<path d="M159.221 51.4434L157.807 63.8608C157.807 63.8608 162.954 66.0396 166.427 63.4769L165.379 54.7818L159.221 51.4434Z" fill="#FDBAA0"/>
<path d="M166.776 43.1402C166.836 43.2423 168.133 49.4374 168.931 53.274C169.009 53.6477 169.007 54.0338 168.926 54.4068C168.846 54.7799 168.687 55.1315 168.462 55.4385C168.236 55.7456 167.949 56.0012 167.618 56.1885C167.288 56.3758 166.921 56.4906 166.544 56.5254L165.077 56.661C163.777 56.7815 162.479 56.4094 161.437 55.6174C160.396 54.8254 159.685 53.6706 159.445 52.3791L158.156 45.4275C158.156 45.4275 165.306 40.6517 166.776 43.1402Z" fill="#FDBAA0"/>
<path d="M156.572 45.4929C155.986 44.8057 155.458 43.6817 156.618 42.4435C157.794 41.1896 159.182 41.4444 160.069 41.8255C160.462 41.9925 160.936 41.8968 161.204 41.5607C161.27 41.4754 161.357 41.409 161.457 41.368C161.556 41.3271 161.665 41.3131 161.771 41.3273C161.891 41.3401 162.011 41.3289 162.126 41.2942C162.241 41.2595 162.348 41.2022 162.441 41.1254C162.534 41.0487 162.61 40.9542 162.666 40.8473C162.722 40.7404 162.757 40.6234 162.767 40.5031C162.843 39.6232 163.273 38.5762 164.802 38.2265C167.607 37.5843 169.108 40.3818 169.123 42.3821C169.137 44.3825 166.057 44.9041 164.29 44.6301C162.993 44.4289 161.914 45.6057 161.434 46.2451C161.348 46.3593 161.289 46.4917 161.261 46.6324C161.234 46.773 161.239 46.9181 161.276 47.0565L161.785 48.9726C161.495 49.5828 161.211 50.2058 160.792 50.7325C160.491 51.1114 160.154 51.3262 159.794 51.424C159.236 50.4556 157.759 50.3364 157.074 50.3371C156.944 50.3374 156.817 50.3108 156.698 50.259C156.58 50.2072 156.473 50.1312 156.385 50.036C155.85 49.4572 154.999 48.1548 156.503 46.7982C156.681 46.6324 156.788 46.4034 156.801 46.1597C156.813 45.916 156.732 45.6769 156.572 45.4929Z" fill="#38516B"/>
<path d="M160.368 53.4755C160.368 53.4755 160.195 49.9915 158.782 49.7103C157.37 49.4292 155.89 50.4989 157.156 52.5464C158.733 55.0941 160.368 53.4755 160.368 53.4755Z" fill="#FDBAA0"/>
<path d="M146.988 65.0488C146.988 65.0488 119.696 96.8689 153.41 107.599L153.331 105.186C153.331 105.186 140.518 94.977 149.64 80.1817C149.64 80.1817 147.995 66.4654 146.988 65.0488Z" fill="#FFBDE0"/>
<path d="M179.63 64.9414C179.63 64.9414 210.093 93.8976 177.148 106.818L177.07 104.405C177.07 104.405 189.195 93.3767 179.134 79.2129C179.133 79.2143 177.79 67.4178 179.63 64.9414Z" fill="#FFBDE0"/>
</g>
<path d="M93.0852 75.8013C110.444 75.8013 124.516 61.638 124.516 44.1668C124.516 26.6955 110.444 12.5322 93.0852 12.5322C75.7264 12.5322 61.6543 26.6955 61.6543 44.1668C61.6543 61.638 75.7264 75.8013 93.0852 75.8013Z" fill="#236FE0"/>
<mask id="mask1_298_360" style="mask-type:luminance" maskUnits="userSpaceOnUse" x="63" y="14" width="60" height="61">
<path d="M93.065 74.3107C109.593 74.3107 122.991 60.8254 122.991 44.1905C122.991 27.5556 109.593 14.0703 93.065 14.0703C76.5371 14.0703 63.1387 27.5556 63.1387 44.1905C63.1387 60.8254 76.5371 74.3107 93.065 74.3107Z" fill="white"/>
</mask>
<g mask="url(#mask1_298_360)">
<path d="M130.565 82.103L58.0995 84.4837C57.8893 84.4893 57.6855 84.4112 57.5322 84.2663C57.379 84.1215 57.2888 83.9216 57.2812 83.7102L54.6683 3.20653C54.6618 2.99455 54.7391 2.78862 54.8832 2.63386C55.0272 2.47909 55.2264 2.38811 55.437 2.38084L127.901 -0.000594355C128.112 -0.00713975 128.317 0.0706047 128.47 0.215606C128.624 0.360608 128.715 0.561043 128.722 0.772999L131.333 81.2766C131.34 81.4886 131.262 81.6945 131.118 81.8494C130.974 82.0042 130.775 82.0954 130.565 82.103Z" fill="white"/>
<path d="M91.7722 30.6152C91.7722 30.6152 92.3536 31.6857 88.8813 33.5212C86.9449 34.5439 83.1628 36.0903 82.8026 40.2145C82.6169 42.3447 81.1172 44.1003 79.0298 44.4964C73.8296 45.4905 65.8697 48.5128 64.904 57.6953C64.1701 64.7097 67.7934 67.2253 71.5329 68.0103C74.2791 68.5812 76.1829 71.1853 75.7305 73.9714C75.2959 76.644 76.1928 79.6806 80.8463 81.945C91.2737 87.0119 100.847 68.3329 100.847 68.3329L101.807 36.2809L91.7722 30.6152Z" fill="#38516B"/>
<path d="M94.2253 76.5116C97.0006 62.4528 88.4395 54.8638 88.4395 54.8638C92.4945 50.6569 99.3851 48.1263 101.937 47.2942C102.245 47.1937 102.572 47.1694 102.891 47.2232C103.21 47.277 103.511 47.4073 103.77 47.6032C106.045 49.321 112.081 54.33 111.357 58.6191C110.832 61.7084 105.621 77.216 105.621 77.216C105.621 77.216 100.389 79.9428 94.2253 76.5116Z" fill="#1DD6C9"/>
<path d="M96.6597 37.9889L94.4276 50.0974C94.2106 51.1678 95.1636 50.9573 96.2194 50.7168C97.9487 50.3243 100.169 49.5635 100.87 48.1727C100.938 48.0289 100.979 47.8738 100.991 47.7152L101.836 39.342C101.869 39.0187 101.796 38.6936 101.629 38.4156C101.462 38.1376 101.21 37.9217 100.91 37.8005L98.672 36.8963C98.4695 36.8148 98.2516 36.779 98.0339 36.7915C97.8161 36.804 97.6038 36.8645 97.4118 36.9687C97.2199 37.073 97.053 37.2184 96.923 37.3947C96.7931 37.5709 96.7032 37.7738 96.6597 37.9889Z" fill="#FDBAA0"/>
<path d="M101.362 26.8526C101.362 26.8526 104.26 28.6789 105.65 33.5445C107.039 38.4101 105.126 40.2421 103.097 40.2071C101.068 40.1721 98.1088 39.6469 95.4392 36.2164C92.7696 32.7859 97.5706 24.6303 101.362 26.8526Z" fill="#FDBAA0"/>
<path d="M97.9356 34.1441C97.9356 34.1441 96.6494 27.1467 102.491 28.0145L103.707 29.2013C103.707 29.2013 106.434 25.88 103.204 23.5592C99.9742 21.2385 95.6348 22.0185 93.3785 26.5359C91.1223 31.0532 90.3573 34.1976 92.4773 36.878C94.5974 39.5585 96.0354 37.1428 96.0354 37.1428C96.0354 37.1428 95.0236 34.7928 95.7567 33.743C96.4899 32.6932 97.5407 34.2739 97.5407 34.2739L97.9356 34.1441Z" fill="#38516B"/>
<path d="M97.1636 34.7743C97.1636 34.7743 96.5255 31.1732 94.7238 32.2765C92.9221 33.3798 95.5037 35.6307 96.5354 36.3957L97.1636 34.7743Z" fill="#FDBAA0"/>
<path d="M88.4103 55.0703C88.4103 55.0703 83.0924 64.3577 82.204 71.2123C81.3155 78.0669 92.1364 80.5204 95.9447 76.4041L95.2796 73.5852C95.2796 73.5852 89.1109 74.9411 88.4295 71.557C87.7481 68.1729 93.1447 61.1542 93.1447 61.1542C93.1447 61.1542 91.2713 56.1051 88.4103 55.0703Z" fill="#1DD6C9"/>
<path d="M72.6515 63.8925C72.4768 63.8852 72.3072 63.8313 72.1601 63.7362C69.7061 62.2489 68.3121 59.0504 68.7701 55.9574C69.0445 54.1019 69.8954 52.4834 71.1667 51.3901C72.0686 50.6172 73.1521 50.1269 74.1859 49.6909C75.9266 48.9558 77.7233 48.2993 79.5272 47.7383L79.971 47.6013C81.0247 47.2788 82.1145 46.9441 83.0909 46.4081C84.3402 45.7209 85.2336 44.756 85.6073 43.6913C85.8399 43.029 85.8909 42.3004 85.9342 41.5967C85.9916 40.7296 86.0512 39.8333 86.4546 39.0518C86.4584 39.0444 86.4637 39.0379 86.47 39.0325C86.4763 39.0271 86.4837 39.0231 86.4916 39.0205C86.4995 39.018 86.5078 39.0171 86.516 39.0178C86.5243 39.0185 86.5323 39.0209 86.5397 39.0247C86.5471 39.0286 86.5536 39.0338 86.5589 39.0402C86.5643 39.0466 86.5683 39.054 86.5708 39.0619C86.5733 39.0699 86.5742 39.0782 86.5735 39.0866C86.5728 39.0949 86.5705 39.103 86.5666 39.1104C86.1745 39.8683 86.1164 40.7517 86.0604 41.6081C86.0136 42.3218 85.9647 43.0575 85.7264 43.7369C85.3421 44.8302 84.4274 45.8201 83.1511 46.5201C82.1627 47.0632 81.0665 47.3994 80.0065 47.7248C79.859 47.7697 79.7108 47.8147 79.564 47.8611C77.7637 48.4206 75.9706 49.0743 74.2334 49.8093C73.2095 50.2375 72.1353 50.7271 71.2475 51.4878C69.9996 52.5583 69.1636 54.1519 68.8942 55.9745C68.4432 59.0182 69.816 62.1647 72.2268 63.6255C72.4005 63.7312 72.7288 63.8575 72.8578 63.6619C72.8625 63.655 72.8684 63.6491 72.8754 63.6445C72.8823 63.6398 72.8901 63.6366 72.8982 63.635C72.9064 63.6335 72.9148 63.6335 72.923 63.6352C72.9311 63.6369 72.9388 63.6401 72.9457 63.6448C72.9526 63.6495 72.9585 63.6555 72.9631 63.6625C72.9677 63.6695 72.9709 63.6773 72.9725 63.6855C72.974 63.6937 72.974 63.7022 72.9723 63.7104C72.9707 63.7186 72.9674 63.7264 72.9627 63.7333C72.9289 63.7846 72.8825 63.8262 72.8279 63.8541C72.7734 63.882 72.7126 63.8952 72.6515 63.8925Z" fill="#91B3FA"/>
<path d="M71.9413 61.0251C71.9312 61.0254 71.9212 61.0231 71.9121 61.0185C71.9031 61.0139 71.8953 61.0071 71.8896 60.9987C70.9153 59.6428 70.3821 58.1969 70.3474 56.8246C70.307 55.2139 70.9962 53.6902 72.1477 52.8481C72.1611 52.8382 72.1779 52.8341 72.1944 52.8367C72.2109 52.8392 72.2257 52.8482 72.2356 52.8617C72.2455 52.8754 72.2496 52.8924 72.247 52.9091C72.2445 52.9258 72.2356 52.9408 72.2221 52.9509C71.1039 53.7687 70.4339 55.2517 70.4736 56.821C70.5076 58.1684 71.0323 59.5871 71.9917 60.9252C71.9966 60.9318 72.0001 60.9394 72.002 60.9475C72.004 60.9555 72.0043 60.9639 72.003 60.9721C72.0017 60.9803 71.9987 60.9881 71.9944 60.9951C71.99 61.0021 71.9842 61.0082 71.9775 61.013C71.9672 61.0211 71.9544 61.0254 71.9413 61.0251Z" fill="#91B3FA"/>
</g>
<path d="M166.753 169.714C184.112 169.714 198.184 155.551 198.184 138.08C198.184 120.609 184.112 106.445 166.753 106.445C149.394 106.445 135.322 120.609 135.322 138.08C135.322 155.551 149.394 169.714 166.753 169.714Z" fill="#236FE0"/>
<mask id="mask2_298_360" style="mask-type:luminance" maskUnits="userSpaceOnUse" x="136" y="107" width="61" height="62">
<path d="M166.731 168.225C183.259 168.225 196.657 154.739 196.657 138.105C196.657 121.47 183.259 107.984 166.731 107.984C150.203 107.984 136.805 121.47 136.805 138.105C136.805 154.739 150.203 168.225 166.731 168.225Z" fill="white"/>
</mask>
<g mask="url(#mask2_298_360)">
<path d="M204.23 176.018L131.765 178.399C131.554 178.405 131.35 178.327 131.196 178.182C131.042 178.037 130.952 177.837 130.944 177.625L128.338 97.1216C128.332 96.9097 128.409 96.704 128.553 96.5493C128.697 96.3946 128.896 96.3035 129.107 96.2959L201.572 93.9144C201.783 93.9081 201.987 93.986 202.141 94.1311C202.295 94.2761 202.386 94.4767 202.393 94.6887L205.004 175.192C205.01 175.404 204.932 175.611 204.787 175.766C204.642 175.921 204.442 176.012 204.23 176.018Z" fill="white"/>
<path d="M161.469 122.275C161.41 122.387 157.711 125.13 157.711 125.13C157.711 125.13 158.528 131.015 161.847 133.336C165.496 135.891 170.65 131.232 170.65 131.232C170.65 131.232 174.751 132.213 176.932 123.621C177.428 121.65 174.544 121.48 171.057 121.846C166.561 122.315 161.469 122.275 161.469 122.275Z" fill="#38516B"/>
<path d="M154.551 142.353C155.997 141.35 157.602 140.599 159.296 140.132C159.934 139.957 163.376 140.964 165.503 140.917C168.424 140.845 171.397 139.512 173.804 140.115C176.196 140.715 178.153 141.498 179.283 142.308C182.666 144.729 184.652 149.244 185.862 153.717C183.571 156.085 180.686 157.137 180.686 157.137L180.154 178.876L167.382 185.453L152.801 178.085L153.323 156.84C153.323 156.84 148.693 154.67 148.354 153.881C148.014 153.092 150.466 145.18 154.551 142.353Z" fill="#1DD6C9"/>
<path d="M148.571 153.785C148.571 153.785 142.368 171.095 156.512 178.21C159.45 177.816 158.321 172.907 158.321 172.907C158.321 172.907 152.174 171.538 154.019 157.099C152.321 155.691 148.571 153.785 148.571 153.785Z" fill="#FDBAA0"/>
<path d="M185.564 153.785C185.564 153.785 189.832 171.855 177.622 178.21C174.686 177.816 175.815 172.907 175.815 172.907C175.815 172.907 180.769 170.452 180.115 157.099C181.814 155.691 185.564 153.785 185.564 153.785Z" fill="#FDBAA0"/>
<path d="M159.297 140.131C159.297 140.131 160.587 145.76 166.854 145.643C173.235 145.526 173.803 140.113 173.803 140.113L169.634 139.215L169.285 134.539L163.014 135.007L162.898 139.448L159.297 140.131Z" fill="#FDBAA0"/>
<path d="M163.896 121.293C163.896 121.293 156.71 135.304 165.234 138.706C171.248 141.103 175.019 129.401 173.893 126.231C172.155 121.331 171.01 121.912 171.01 121.912L163.896 121.293Z" fill="#FDBAA0"/>
<path d="M175.624 120.018C179.174 121 176.14 128.751 170.794 126.918C165.449 125.085 163.349 125.112 162.515 126.59C161.681 128.068 161.503 133.313 159.696 130.72C157.715 127.877 156.61 122.171 159.039 120.331C161.211 118.69 161.718 116.138 164.321 116.227C167.778 116.344 170.451 114.8 172.012 115.914C173.803 117.192 173.009 119.296 175.624 120.018Z" fill="#38516B"/>
<path d="M162.187 127.795C162.187 127.795 160.654 126.135 160.409 128.135C160.163 130.136 160.951 132.713 161.874 131.3C162.796 129.888 162.187 127.795 162.187 127.795Z" fill="#FDBAA0"/>
</g>
<path d="M162.7 75.4941C162.7 75.4941 148.984 78.5386 140.642 82.4165C138.99 83.1862 137.666 84.5256 136.911 86.1924C134.416 91.6925 126.951 105.487 112.475 112.069C114.559 114.852 117.917 120.647 119.379 130.384C128.073 123.871 135.58 112.993 139.183 95.1544C139.183 95.1544 141.927 96.653 145.352 94.9824C147.161 94.0982 149.252 92.8415 150.817 91.8581C152.382 90.8747 153.542 89.3474 153.994 87.5633C154.591 85.2083 154.239 83.1387 154.239 80.9143L161.289 78.7155C161.289 78.7155 163.407 77.9091 162.7 75.4941Z" fill="#FDBAA0"/>
<path d="M17.7767 186.393C19.468 182.154 21.5944 178.103 24.1213 174.308C19.8875 167.121 18.6339 157.303 26.147 144.519C31.6252 159.408 34.1955 181.129 34.7323 190.747C34.8329 192.55 34.2771 195.347 33.78 197.42C33.6945 197.775 33.6813 198.143 33.7411 198.503C33.801 198.863 33.9326 199.207 34.1281 199.514C34.3237 199.821 34.579 200.086 34.8788 200.291C35.1786 200.496 35.5166 200.638 35.8724 200.708C47.1506 202.906 58.0268 203.928 67.9698 202.214C68.6863 202.09 69.35 201.755 69.8773 201.251C70.4046 200.747 70.7717 200.097 70.9323 199.384C77.4321 170.503 77.3924 150.623 75.6886 137.9C82.4246 139.414 103.008 142.645 119.378 130.383C117.916 120.646 114.557 114.853 112.474 112.068C103.481 116.157 91.7834 117.464 76.8869 112.269C75.514 111.792 74.0825 111.508 72.6326 111.424C64.7025 110.956 38.5697 110.102 16.9464 117.292C14.7026 118.036 12.6399 119.248 10.8928 120.848C9.14572 122.448 7.75347 124.401 6.80691 126.58C0.956518 140.088 -8.51359 170.859 17.7767 186.393Z" fill="#236FE0"/>
<path d="M39.1929 93.6445C39.1929 93.6445 37.6954 109.578 36.3744 114.291C36.2772 114.638 36.2987 115.009 36.4353 115.342C36.572 115.676 36.8159 115.954 37.1281 116.132C39.3659 117.416 44.732 119.517 52.0729 115.896C52.6516 115.607 53.1344 115.155 53.4626 114.595C53.7907 114.035 53.9501 113.391 53.9214 112.742L53.2775 97.3412L39.1929 93.6445Z" fill="#FDBAA0"/>
<path d="M53.5999 73.2598C53.5999 73.2598 58.3888 84.332 58.7108 90.1439C59.0327 95.9559 60.2763 99.7261 53.5999 100.896C46.9235 102.067 41.2993 98.7191 38.2524 92.93C38.2524 92.93 33.4784 84.0094 34.5491 80.357C35.6197 76.7045 53.5999 73.2598 53.5999 73.2598Z" fill="#FDBAA0"/>
<path d="M40.5335 88.7677L40.9136 88.5993C41.0283 88.5488 41.1316 88.4752 41.217 88.383C41.3024 88.2907 41.3681 88.1819 41.4101 88.0631C41.4521 87.9444 41.4695 87.8182 41.4611 87.6924C41.4528 87.5667 41.419 87.4439 41.3617 87.3318C40.4201 85.5013 38.585 81.3058 40.9561 80.3274C44.0114 79.0657 56.115 76.5815 58.7264 72.2589C61.2365 68.1048 59.01 62.7417 55.6704 61.2167C55.564 61.1658 55.4422 61.1579 55.3302 61.1947C55.2182 61.2315 55.1245 61.3101 55.0684 61.4143L54.7897 61.9439C54.7477 62.0245 54.6826 62.0906 54.6028 62.1337C54.5231 62.1767 54.4324 62.1948 54.3424 62.1855C54.2524 62.1762 54.1672 62.14 54.0978 62.0815C54.0284 62.0231 53.978 61.9451 53.9531 61.8575C53.9295 61.7728 53.8819 61.6968 53.8162 61.6387C53.7504 61.5807 53.6693 61.5432 53.5828 61.5307C53.4962 61.5182 53.4079 61.5314 53.3286 61.5685C53.2494 61.6056 53.1825 61.6651 53.1362 61.7398C52.3336 63.0329 50.166 65.1296 44.3709 66.2058C36.1346 67.7358 30.6862 71.0907 30.5536 76.8191C30.5522 76.9009 30.5292 76.9808 30.4868 77.0505C30.4444 77.1203 30.3842 77.1773 30.3125 77.2158C30.2408 77.2542 30.1602 77.2726 30.079 77.2692C29.9979 77.2657 29.9191 77.2404 29.8509 77.1959C29.2433 76.8227 28.2697 76.6478 26.9693 77.7483C24.7075 79.663 25.6328 84.6285 30.5912 88.7135C30.6471 88.7572 30.6921 88.8136 30.7223 88.8781C30.7525 88.9426 30.7672 89.0134 30.7651 89.0846C30.763 89.1559 30.7443 89.2257 30.7103 89.2883C30.6764 89.3509 30.6283 89.4046 30.5699 89.445C29.6708 90.0337 28.3307 91.4353 31.8037 93.3036C35.395 95.2355 38.0774 95.077 39.1069 94.9058C39.1676 94.8955 39.2256 94.873 39.2774 94.8394C39.3291 94.8058 39.3735 94.762 39.4078 94.7105C39.4421 94.6591 39.4657 94.6011 39.477 94.5402C39.4882 94.4793 39.4871 94.4167 39.4735 94.3563L38.3709 89.3222C38.3563 89.2555 38.3567 89.1863 38.3722 89.1197C38.3876 89.0532 38.4177 88.991 38.4603 88.9377C38.5028 88.8844 38.5566 88.8414 38.6179 88.8119C38.6791 88.7823 38.7462 88.767 38.8141 88.767L40.5335 88.7677Z" fill="#38516B"/>
<path d="M40.7407 89.8311C40.7407 89.8311 38.9134 82.7582 35.7631 84.7414C32.6128 86.7246 37.3982 92.6629 39.9309 92.9305L40.7407 89.8311Z" fill="#FDBAA0"/>
<path d="M40.5096 194.051L61.6777 194.314L54.2695 187.295C52.4259 185.551 49.6174 185.268 47.4916 186.653C46.0679 187.571 44.7976 188.71 43.728 190.028C43.728 190.028 30.5233 185.171 24.122 174.305C21.5951 178.1 19.4687 182.151 17.7773 186.39C23.5157 189.784 30.9544 192.45 40.5096 194.051Z" fill="#FDBAA0"/>
<path d="M42.7907 196.798C42.8319 196.798 42.8723 196.798 42.9141 196.798L96.6469 196.739C96.9594 196.739 97.2687 196.677 97.5573 196.556C97.8459 196.435 98.108 196.259 98.3288 196.036C98.5495 195.813 98.7245 195.549 98.8438 195.258C98.9631 194.968 99.0243 194.656 99.024 194.342C99.0237 194.027 98.9618 193.716 98.8419 193.425C98.722 193.135 98.5465 192.871 98.3253 192.649C98.1041 192.427 97.8416 192.251 97.5527 192.131C97.2639 192.011 96.9544 191.949 96.6419 191.949L42.9084 192.008C42.2777 191.992 41.6666 192.229 41.2096 192.667C40.7526 193.105 40.487 193.707 40.4714 194.342C40.4558 194.977 40.6914 195.592 41.1264 196.052C41.5613 196.512 42.16 196.779 42.7907 196.795V196.798Z" fill="#38516B"/>
<path d="M144.949 148.215H100.2C98.5885 148.211 97.0089 148.667 95.6439 149.528C94.2788 150.39 93.1841 151.624 92.4862 153.086L71.7988 196.77H127.41C128.446 196.773 129.459 196.463 130.318 195.881C131.177 195.299 131.844 194.472 132.231 193.505L148.273 153.082C149.2 150.746 147.471 148.215 144.949 148.215Z" fill="#38516B"/>
<path d="M120.121 172.791C121.102 169.795 120.4 166.869 118.552 166.256C116.705 165.643 114.412 167.576 113.431 170.572C112.45 173.569 113.152 176.495 114.999 177.108C116.847 177.72 119.14 175.788 120.121 172.791Z" fill="#1DD6C9"/>
</g>
<defs>
<clipPath id="clip0_298_360">
<rect width="205" height="205" fill="white"/>
</clipPath>
</defs>
</svg>
