<svg width="215" height="201" viewBox="0 0 215 201" fill="none" xmlns="http://www.w3.org/2000/svg">
<mask id="mask0_298_603" style="mask-type:luminance" maskUnits="userSpaceOnUse" x="0" y="14" width="215" height="169">
<path d="M1.10277 95.1285C5.07837 137.208 -21.7362 169.747 68.6822 179.652C84.6875 181.404 106.807 182.66 125.472 182.297C140.596 182.008 157.229 180.66 171.928 176.857C196.202 170.564 214.286 157.783 214.846 132.888C215.423 107.414 190.131 90.7878 194.17 80.3254C206.7 47.9455 186.381 24.378 146.251 16.0085C95.4679 5.41894 74.9773 40.4953 54.2694 35.936C20.7105 28.5368 -2.94495 52.2882 1.10277 95.1285Z" fill="white"/>
</mask>
<g mask="url(#mask0_298_603)">
<path d="M1.10277 95.1285C5.07837 137.208 -21.7362 169.747 68.6822 179.652C84.6875 181.404 106.807 182.66 125.472 182.297C140.596 182.008 157.229 180.66 171.928 176.857C196.202 170.564 214.286 157.783 214.846 132.888C215.423 107.414 190.131 90.7878 194.17 80.3254C206.7 47.9455 186.381 24.378 146.251 16.0085C95.4679 5.41894 74.9773 40.4953 54.2694 35.936C20.7105 28.5368 -2.94495 52.2882 1.10277 95.1285Z" fill="#9FBCE7"/>
<path d="M190.177 56.5233L110.094 27.2656L71.8748 132.096L151.958 161.353L190.177 56.5233Z" fill="#236FE0"/>
<path d="M138.622 60.7239C137.352 64.2238 134.889 67.1626 131.666 69.0222C131.483 69.1281 131.298 69.2302 131.111 69.3303C128.013 70.9616 124.464 71.5221 121.016 70.9246C117.567 70.327 114.413 68.6049 112.043 66.0264C110.138 63.9515 108.819 61.4064 108.221 58.6525C107.623 55.8985 107.768 53.0349 108.642 50.3556C109.515 47.6764 111.085 45.2781 113.19 43.407C115.295 41.5359 117.86 40.2594 120.621 39.7086C123.382 39.1578 126.24 39.3525 128.901 40.2727C131.562 41.193 133.93 42.8056 135.763 44.945C137.595 47.0845 138.826 49.6736 139.329 52.4466C139.831 55.2195 139.587 58.0764 138.622 60.7239Z" fill="white"/>
<path d="M133.645 51.4939C131.942 43.9252 126.047 43.1686 126.047 43.1686C124.212 42.9982 122.429 43.5277 120.97 44.37C119.51 45.2123 118.331 46.3522 117.211 47.5122C115.946 48.824 114.737 50.1756 113.584 51.567C113.36 51.8375 113.131 52.1283 113.111 52.4719C113.093 52.7848 113.254 53.0967 113.432 53.3855C115.021 55.9665 118.144 57.6483 121.256 58.7833C125.482 60.3219 129.944 61.1106 134.441 61.114C134.547 57.9246 134.362 54.6871 133.645 51.4939Z" fill="#38516B"/>
<path d="M131.11 69.3322C128.013 70.9636 124.463 71.5241 121.015 70.9265C117.566 70.329 114.412 68.6069 112.043 66.0283C111.082 64.9821 110.266 63.8104 109.619 62.5453C110.965 61.9677 112.584 61.6154 114.356 61.521C115.732 61.4522 117.111 61.526 118.471 61.7415C119.218 61.8556 119.959 62.0085 120.69 62.1997C121.949 62.5259 123.177 62.9627 124.359 63.5051C125.593 64.0681 126.761 64.7668 127.841 65.5884C129.315 66.7234 130.441 68.0076 131.11 69.3322Z" fill="#FFCFBF"/>
<path d="M123.813 67.9616C125.34 68.1541 124.092 64.1224 124.092 64.1224L126.633 58.3203C127.375 56.6269 126.669 54.6573 125.055 53.9218C123.441 53.1863 122.607 53.1093 121.865 54.8026L118.349 61.9968C117.608 63.6901 121.659 67.6891 123.813 67.9616Z" fill="#FFCFBF"/>
<path d="M130.666 48.8484C130.666 48.8484 132.508 59.3417 127.877 60.7106C125.032 61.5491 122.491 59.257 119.712 55.4303C117.319 52.1321 126.054 40.3633 130.666 48.8484Z" fill="#FDBAA0"/>
<path d="M122.371 59.2542C123.456 60.2612 124.647 60.9129 126.111 61.0592C126.422 61.09 126.465 60.5846 126.153 60.5528C124.772 60.4152 123.673 59.7827 122.653 58.8373C122.419 58.6217 122.141 59.0405 122.371 59.2542Z" fill="#FF9F89"/>
<path d="M131.461 50.0047C131.624 49.4049 131.452 48.7532 131.134 48.2189C130.815 47.6846 130.364 47.2475 129.913 46.8172C129.511 46.4322 129.099 46.0365 128.592 45.8016C128.085 45.5667 127.512 45.5061 126.951 45.4839C125.23 45.4175 123.463 45.7005 121.957 46.538C121.924 46.547 121.893 46.5634 121.867 46.5859C121.84 46.6084 121.819 46.6365 121.805 46.6681C121.791 46.6997 121.784 46.7341 121.785 46.7687C121.786 46.8034 121.795 46.8374 121.81 46.8682C122.139 48.0235 122.574 49.2442 122.248 50.4032C122.997 50.307 123.729 50.1067 124.473 49.9777C126.842 49.5728 129.277 49.909 131.448 50.9404L131.461 50.0047Z" fill="#38516B"/>
<path d="M124.104 48.7713L123.666 47.7778C122.109 47.7557 120.588 48.5374 119.585 49.7282C118.582 50.919 118.07 52.4834 118.023 54.042C118 54.8121 118.1 55.6189 118.559 56.2311C118.907 56.6932 119.425 56.9936 119.925 57.2814C119.971 57.324 120.026 57.3557 120.086 57.3742C120.146 57.3926 120.209 57.3974 120.271 57.3882C120.333 57.379 120.392 57.3559 120.444 57.3208C120.496 57.2856 120.539 57.2393 120.571 57.1851C122.672 54.9065 123.87 51.8615 124.104 48.7713Z" fill="#38516B"/>
<path d="M124.773 44.921C123.083 45.3426 121.823 46.4998 120.638 47.7128C119.065 49.3243 117.491 50.9329 115.885 52.5108C115.8 52.5945 115.916 52.7409 116.001 52.6561C117.47 51.2128 118.92 49.7514 120.353 48.2721C121.634 46.9494 122.956 45.5621 124.804 45.101C124.919 45.0721 124.891 44.8882 124.775 44.9171L124.773 44.921Z" fill="#4D6371"/>
<path d="M123.113 47.969C121.357 50.0965 119.698 52.5677 117.456 54.212C117.36 54.2832 117.475 54.4276 117.572 54.3574C119.83 52.7016 121.496 50.2178 123.262 48.0797C123.339 47.9834 123.189 47.8766 123.113 47.969Z" fill="#4D6371"/>
<path d="M131.11 69.3307C128.013 70.9621 124.463 71.5226 121.015 70.925C117.566 70.3275 114.412 68.6054 112.043 66.0268C111.082 64.9806 110.266 63.8089 109.619 62.5438C110.965 61.9662 112.584 61.6139 114.356 61.5195C115.581 62.7277 118.024 64.9322 120.682 66.177C121.963 66.7777 123.291 67.1551 124.558 67.0906C125.738 67.0309 126.866 66.59 127.842 65.5878C129.315 66.7219 130.441 68.0061 131.11 69.3307Z" fill="#384955"/>
<path d="M104.038 74.8814L126.204 82.7686C126.974 83.0411 127.438 81.8647 126.671 81.5913L104.504 73.705C103.735 73.4316 103.27 74.608 104.038 74.8814Z" fill="#D3F0F4"/>
<path d="M102.174 79.8772L118.098 85.5436L138.362 92.7531L145.938 95.4486C146.707 95.7211 147.171 94.5447 146.404 94.2713L130.481 88.6068L110.217 81.3963L102.641 78.7008C101.871 78.4284 101.407 79.6048 102.174 79.8772Z" fill="#D3F0F4"/>
<path d="M130.002 84.385L158.881 94.6607L165.427 96.9895C166.196 97.2619 166.661 96.0865 165.893 95.8131L137.015 85.5374L130.469 83.2086C129.7 82.9362 129.235 84.1116 130.002 84.385Z" fill="white"/>
<path d="M150.19 97.0566L164.073 101.974C164.843 102.245 165.308 101.069 164.541 100.798L150.657 95.8802C149.887 95.6087 149.422 96.7851 150.19 97.0566Z" fill="white"/>
<path d="M99.9574 84.4207C106.963 86.7561 113.893 89.3027 120.747 92.0605C121.504 92.3647 121.969 91.1874 121.214 90.8841C114.363 88.1244 107.433 85.5775 100.425 83.2433C99.6555 82.9872 99.1852 84.1627 99.9574 84.4207Z" fill="#D3F0F4"/>
<path d="M124.701 93.4536L162.033 107.11C162.797 107.39 163.265 106.214 162.499 105.934L125.168 92.2772C124.404 91.997 123.936 93.1734 124.701 93.4536Z" fill="white"/>
<path d="M95.1545 94.1838L111.078 99.8492L131.342 107.059L138.918 109.754C139.687 110.027 140.153 108.85 139.385 108.577L123.462 102.912L103.198 95.701L95.6219 93.0055C94.8526 92.733 94.3871 93.9095 95.1545 94.1829V94.1838Z" fill="#D3F0F4"/>
<path d="M143.17 111.361L157.054 116.279C157.823 116.55 158.289 115.375 157.52 115.102L143.638 110.185C142.868 109.913 142.403 111.09 143.17 111.361Z" fill="white"/>
<path d="M92.9386 98.7266C99.9435 101.062 106.873 103.609 113.728 106.366C114.484 106.671 114.95 105.493 114.195 105.19C107.344 102.434 100.414 99.8876 93.405 97.5502C92.6357 97.2931 92.1654 98.4686 92.9386 98.7266Z" fill="#D3F0F4"/>
<path d="M117.683 107.758L155.014 121.416C155.779 121.695 156.246 120.519 155.482 120.238L118.15 106.582C117.381 106.302 116.918 107.478 117.683 107.758Z" fill="white"/>
<path d="M151.729 54.5173L177.367 63.5425C178.136 63.812 178.602 62.6356 177.833 62.3651L152.196 53.3409C151.427 53.0704 150.961 54.2468 151.729 54.5173Z" fill="white"/>
<path d="M150.358 58.2339L175.995 67.259C176.764 67.5286 177.231 66.3531 176.462 66.0826L150.825 57.0575C150.055 56.7879 149.59 57.9633 150.358 58.2339Z" fill="white"/>
<path d="M149.01 62.9436L174.039 71.8224C174.808 72.0939 175.273 70.9185 174.505 70.646L149.473 61.7672C148.703 61.4948 148.239 62.6712 149.006 62.9436H149.01Z" fill="white"/>
<path d="M147.309 68.0179L160.398 72.4837C161.168 72.7456 161.636 71.5692 160.865 71.3064L147.775 66.8405C147.006 66.5786 146.538 67.755 147.309 68.0179Z" fill="#D3F0F4"/>
<path d="M163.831 73.9759L173.039 77.3886C173.803 77.6716 174.27 76.4942 173.506 76.2112L164.298 72.7995C163.535 72.5164 163.068 73.6928 163.831 73.9759Z" fill="white"/>
<path d="M145.624 72.6415C154.049 75.7862 162.551 78.7128 171.131 81.4211C171.9 81.6647 172.374 80.4893 171.597 80.2438C163.022 77.5367 154.519 74.6105 146.091 71.4651C145.328 71.1763 144.861 72.3565 145.624 72.6415Z" fill="white"/>
<path d="M-3.80859 136.645L26.9143 155.389C46.3153 143.769 53.0538 139.761 53.0644 139.742C53.9078 138.769 57.8795 133.847 60.1251 132.426C57.9324 127.998 56.7967 125.71 55.8715 123.839C55.8715 123.815 56.737 88.6248 56.7217 88.6133C55.0676 90.5762 34.0019 118.175 23.9629 123.49C23.6003 123.683 23.7157 123.596 23.6657 123.678C23.1272 124.563 11.3206 129.588 -3.1258 135.527L-3.80859 136.645Z" fill="#FDBAA0"/>
<path d="M51.9833 96.3359C52.392 96.5554 61.7328 98.293 60.7509 99.5003C56.9196 104.217 55.8665 111.478 57.461 114.059C60.5143 119.002 66.3989 116.991 67.0355 116.734L51.7198 131.093C47.5537 131.742 24.6157 132.658 24.6426 131.259C24.7513 125.521 50.9398 95.7766 51.9833 96.3359Z" fill="#FDBAA0"/>
<path d="M18.875 127.059C18.875 127.059 29.5901 120.576 34.486 112.373C41.2918 100.972 47.5466 87.0452 49.1036 85.4751C51.7732 82.7796 60.489 77.4482 62.8614 77.2018C65.2339 76.9553 72.9322 75.6615 74.4911 76.2709C76.0499 76.8802 71.3906 82.2848 65.5676 85.3894C59.7446 88.4941 53.486 93.8735 53.486 93.8735L44.1576 122.93L18.875 127.059Z" fill="#FDBAA0"/>
<path d="M42.8477 104.172C42.8477 104.172 53.2338 84.3125 58.6356 81.8961C64.0374 79.4798 70.2864 77.7643 73.9264 79.8032C77.5663 81.8422 84.2722 87.9928 84.1039 89.1923C83.9356 90.3918 78.1126 90.5141 74.2139 88.9651C70.3153 87.4161 59.8214 92.0168 59.8214 92.0168L48.2966 104.769L42.8477 104.172Z" fill="#FDBAA0"/>
<path d="M43.8711 123.821C43.8711 123.821 54.0015 91.9961 56.7201 88.618C59.4388 85.2399 71.6628 86.1555 75.473 86.8621C79.2832 87.5687 86.7516 96.6362 86.7458 99.247C86.7391 102.449 80.1833 100.232 76.0384 97.2254C72.2311 94.4634 66.7159 95.9806 64.8262 95.9739C64.2751 95.9739 63.1913 96.7941 62.0373 98.0148C60.5303 99.6061 58.8993 101.874 58.1636 103.872C55.6729 110.632 63.2884 117.349 63.2884 117.349L43.8711 123.821Z" fill="#FDBAA0"/>
<path d="M143.062 177.645L55.25 158.649L80.0633 43.7012L154.79 59.8666L165.572 73.3711L143.062 177.645Z" fill="white"/>
<path d="M114.66 74.5157C113.961 77.7502 112.32 80.7046 109.943 83.0054C107.567 85.3061 104.563 86.8498 101.31 87.4414C98.0578 88.033 94.703 87.6458 91.6703 86.3287C88.6375 85.0117 86.063 82.8241 84.2722 80.0424C82.4815 77.2607 81.5549 74.0099 81.6097 70.7011C81.6645 67.3923 82.6982 64.1741 84.5801 61.4533C86.462 58.7326 89.1076 56.6316 92.1823 55.416C95.257 54.2003 98.6227 53.9246 101.854 54.6238C104.005 55.0786 106.044 55.9555 107.854 57.2039C109.664 58.4523 111.209 60.0474 112.4 61.897C113.591 63.7466 114.403 65.8141 114.791 67.98C115.179 70.1459 115.134 72.3673 114.66 74.5157Z" fill="#E9F4F6"/>
<path d="M96.6946 59.6671C95.5195 59.5853 94.2635 59.8857 93.448 60.8224C93.0693 61.259 92.8342 61.8019 92.7748 62.3771C92.7104 62.9778 92.7921 63.5776 92.8287 64.1764C92.8671 64.7934 92.8546 65.4278 92.5536 65.9872C92.2651 66.5128 91.7997 66.9498 91.6881 67.5602C91.5718 68.1936 91.8939 68.8223 91.7112 69.4499C91.615 69.7734 91.4323 70.0583 91.265 70.3452C91.0938 70.6323 90.9597 70.9399 90.8659 71.2607C90.663 71.9828 90.6735 72.7664 90.7495 73.5038C90.8091 74.0583 90.9563 74.6455 91.4371 74.9632C91.5333 75.0239 91.6083 74.867 91.5169 74.8073C91.0717 74.5185 90.9601 73.9254 90.913 73.42C90.8515 72.7587 90.8409 72.0723 90.9996 71.4215C91.0823 71.0906 91.2118 70.7733 91.3842 70.479C91.5461 70.2226 91.6888 69.9546 91.8112 69.6771C92.0353 69.0995 91.8632 68.5662 91.8333 67.978C91.8006 67.3272 92.1843 66.869 92.5229 66.3607C92.8258 65.9086 92.9945 65.3799 93.0095 64.8358C93.0576 63.694 92.6575 62.4791 93.2412 61.4135C93.9308 60.1552 95.3935 59.747 96.7033 59.8385C96.812 59.8462 96.7995 59.671 96.6946 59.6633V59.6671Z" fill="#384955"/>
<path d="M100.207 68.2028C100.497 66.6464 100.872 65.1067 101.328 63.5906L97.0301 59.6484C96.13 59.7572 95.1933 59.9719 94.5114 60.5909C93.4824 61.5228 93.3122 63.0939 93.4084 64.4927C93.5046 65.8914 93.7931 67.321 93.3978 68.6688C92.9814 70.1041 91.8447 71.2574 91.5244 72.7178C91.1734 74.3217 91.9207 76.0237 93.1276 77.0826C94.3345 78.1416 95.9289 78.6354 97.5119 78.8222C97.5907 78.8374 97.672 78.8341 97.7494 78.8126C97.8918 78.7616 97.9658 78.6037 98.0235 78.4602C99.3208 75.2093 99.5612 71.6464 100.207 68.2028Z" fill="#384955"/>
<path d="M108.592 84.1791C106.974 85.4397 105.139 86.3931 103.178 86.992C100.745 86.8852 97.7378 86.4857 94.5229 85.7916C92.2014 85.2979 89.913 84.6597 87.6709 83.8806C85.6913 82.242 84.1151 80.169 83.0645 77.8225C84.1944 76.8309 85.7264 76.0781 87.518 75.6083C88.8932 75.2605 90.3051 75.0786 91.7235 75.0663C92.6191 75.0545 93.5145 75.0989 94.4046 75.1992C95.1844 75.2886 95.9592 75.4172 96.7261 75.5842C97.2281 75.6927 97.7202 75.8159 98.2023 75.9539C98.3946 76.0085 98.5851 76.0659 98.7735 76.1262C98.9043 76.1667 99.0342 76.2081 99.164 76.2523C99.4111 76.3342 99.6544 76.4208 99.8958 76.5103L100.056 76.5719C101.606 77.1554 103.074 77.9375 104.422 78.8988C104.633 79.0518 104.839 79.2078 105.037 79.3666C106.833 80.8029 108.082 82.4703 108.592 84.1791Z" fill="#FDBAA0"/>
<path d="M108.594 84.1812C106.596 85.7407 104.27 86.8249 101.791 87.3517C99.3125 87.8785 96.7467 87.8342 94.2877 87.2221C91.8288 86.61 89.5411 85.4461 87.5977 83.8185C85.6544 82.1909 84.1062 80.1423 83.0703 77.8275C84.2003 76.8359 85.7322 76.0831 87.5239 75.6133C87.5239 75.6133 93.6315 85.1025 104.265 78.9933C104.32 78.9625 104.374 78.9317 104.428 78.897C104.639 79.0501 104.845 79.206 105.043 79.3649C106.835 80.805 108.084 82.4724 108.594 84.1812Z" fill="#1DD6C9"/>
<path d="M95.4671 77.7303C94.0967 77.2489 94.2362 76.1602 94.5151 74.5736L95.622 68.2796C95.9326 66.5121 97.5232 65.2953 99.1744 65.5543C100.826 65.8132 100.928 66.1762 100.617 67.9427L99.4427 75.4699C99.1321 77.2412 96.9635 78.3743 95.4671 77.7303Z" fill="#FDBAA0"/>
<path d="M97.2002 60.4215C97.2002 60.4215 90.5761 67.1602 93.1611 70.5383C94.7508 72.611 97.7118 72.2365 101.617 70.8579C104.98 69.6709 104.763 56.5755 97.2002 60.4215Z" fill="#FDBAA0"/>
<path d="M105.491 68.6819C105.699 67.7452 105.711 66.7787 105.722 65.8208C105.734 64.8379 105.741 63.8281 105.405 62.9116C104.842 61.378 103.425 60.3711 102.005 59.625L99.2578 60.346C99.8348 60.5184 100.213 61.0555 100.151 61.5417C100.09 62.0279 99.9493 62.514 99.9935 63.0021C100.09 64.0206 100.931 64.7667 101.349 65.6918C101.63 66.3118 101.349 67.0396 101.217 67.7135C101.103 68.3103 101.2 68.8687 101.189 69.4752C101.189 69.7736 101.242 70.0759 101.174 70.3666C101.102 70.6728 100.9 70.9269 100.758 71.2061C100.526 71.6453 100.474 72.1575 100.612 72.6347C100.761 73.0997 101.148 73.4876 101.616 73.5781C102.424 73.7351 103.148 73.0438 103.658 72.3729C104.491 71.2687 105.191 70.0297 105.491 68.6819Z" fill="#384955"/>
<path d="M109.409 77.8495C109.512 76.7838 109.237 75.7315 109.165 74.661C109.088 73.5174 109.246 72.3631 109.522 71.2474C109.828 70.018 110.074 68.7848 110.042 67.5199C109.99 65.4809 109.022 63.6306 107.167 60.912C104.823 57.4771 101.934 55.9657 98.8434 56.7426C95.7525 57.5195 96.4517 61.2412 96.5921 61.0795C99.0069 58.2993 102.257 62.3002 102.307 65.84L100.576 68.1966C100.66 69.0213 100.44 69.8481 99.9589 70.5225C99.6964 70.8864 99.354 71.2089 99.2194 71.6382C99.0348 72.2274 99.2858 72.8647 99.2079 73.4769C99.1059 74.2702 98.4731 74.8959 98.2673 75.6699C97.9904 76.7067 98.5703 77.835 99.4473 78.4049C100.324 78.9748 101.429 79.0701 102.466 78.9411C102.851 78.894 103.235 78.8179 103.62 78.8449C104.343 78.9026 104.977 79.3262 105.605 79.6949C106.233 80.0636 106.946 80.3967 107.66 80.2514C108.679 80.0463 109.307 78.9142 109.409 77.8495Z" fill="#384955"/>
<path d="M99.9752 67.9007C99.9752 67.9007 101.418 66.6425 101.995 67.2721C102.572 67.9017 101.887 69.5142 101.105 69.5825C100.323 69.6509 99.9108 68.3744 99.9454 68.1385L99.9752 67.9007Z" fill="#FCBFAF"/>
<path d="M100.484 69.3841C100.395 69.1983 100.414 69.3542 100.512 69.334C100.57 69.3363 100.627 69.3427 100.684 69.3533C100.886 69.3554 101.085 69.3049 101.261 69.2069C101.565 69.0385 101.761 68.7506 101.934 68.4368C102.031 68.2548 102.158 68.0729 102.127 67.8447C102.068 67.3942 101.646 67.3326 101.332 67.5049C101.088 67.6416 100.936 67.2219 101.179 67.0871C101.687 66.7983 102.309 67.0005 102.505 67.5935C102.697 68.1634 102.265 68.8507 101.897 69.2493C101.751 69.4132 101.573 69.5464 101.375 69.6411C101.177 69.7358 100.962 69.7901 100.743 69.8009C100.523 69.8077 100.205 69.7923 100.092 69.5564C99.9687 69.2994 100.364 69.1261 100.486 69.3812L100.484 69.3841Z" fill="#FDBAA0"/>
<path d="M99.0178 60.2385C99.6092 59.6609 100.576 59.6051 101.183 60.1654C101.47 60.4312 101.656 60.7879 101.71 61.1752C101.766 61.594 101.635 62.007 101.524 62.4065C101.419 62.7848 101.319 63.1815 101.398 63.5733C101.472 63.94 101.703 64.2308 101.967 64.4753C102.246 64.7314 102.556 64.9499 102.811 65.2329C103.083 65.5351 103.298 65.8841 103.445 66.263C103.602 66.6562 103.677 67.0773 103.665 67.5005C103.653 67.9236 103.555 68.3398 103.376 68.7236C103.196 69.1094 102.931 69.4489 102.6 69.7162C102.305 69.951 101.956 70.1291 101.735 70.4459C101.213 71.1804 101.722 72.0612 101.958 72.7861C102.112 73.2579 102.124 73.72 101.894 74.1724C101.685 74.5844 101.356 74.9098 101.029 75.2169C100.394 75.8042 99.5861 76.531 99.7294 77.5071C99.8506 78.3543 100.691 78.697 101.392 78.9329C101.496 78.9675 101.533 78.7952 101.429 78.7606C100.698 78.5132 99.7794 78.1069 99.8967 77.1471C100.011 76.2085 100.854 75.6578 101.457 75.0446C101.768 74.7488 102.009 74.387 102.162 73.9857C102.287 73.585 102.277 73.1547 102.135 72.7602C101.994 72.3183 101.767 71.9014 101.705 71.4345C101.665 71.2116 101.688 70.9818 101.772 70.7714C101.856 70.561 101.997 70.3785 102.18 70.2447C102.5 69.9905 102.84 69.7884 103.108 69.4745C103.36 69.1729 103.553 68.8268 103.678 68.4541C103.931 67.6884 103.895 66.8563 103.576 66.1157C103.432 65.779 103.237 65.4661 102.999 65.1877C102.74 64.8816 102.422 64.6505 102.125 64.3848C101.806 64.096 101.548 63.76 101.543 63.3037C101.535 62.8772 101.699 62.4662 101.801 62.058C101.908 61.6335 101.942 61.2041 101.794 60.7882C101.663 60.4184 101.419 60.0996 101.096 59.8775C100.423 59.4183 99.4803 59.5531 98.8966 60.1269C98.8168 60.2058 98.9428 60.3194 99.0216 60.2443L99.0178 60.2385Z" fill="#4D6371"/>
<path d="M99.4555 59.8623C100.753 58.7975 102.821 58.837 103.981 60.0692C104.294 60.4014 104.544 60.8336 104.589 61.3024C104.642 61.8454 104.346 62.2651 104.149 62.7465C103.78 63.6446 103.974 64.6564 104.391 65.4901C104.848 66.4008 105.558 67.1324 106.167 67.9324C106.744 68.6901 107.282 69.5748 107.301 70.5712C107.316 71.0355 107.205 71.4953 106.98 71.9016C106.742 72.3146 106.382 72.5697 105.96 72.7564C105.581 72.923 105.178 73.0578 104.858 73.3341C104.697 73.4763 104.567 73.6497 104.476 73.8438C104.384 74.0379 104.332 74.2487 104.325 74.4633C104.29 75.3239 104.986 75.8958 105.509 76.4551C105.842 76.7939 106.092 77.2051 106.24 77.6565C106.383 78.1244 106.478 78.8117 106.085 79.191C106.003 79.2793 105.896 79.3409 105.779 79.3678C105.661 79.3947 105.538 79.3858 105.426 79.3422C105.329 79.2969 105.245 79.4529 105.346 79.4981C105.704 79.6599 106.115 79.4885 106.333 79.1583C106.606 78.7347 106.557 78.1715 106.429 77.7095C106.305 77.2573 106.079 76.8397 105.768 76.4888C105.479 76.1499 105.13 75.8592 104.861 75.5001C104.573 75.115 104.411 74.6616 104.532 74.1754C104.667 73.6335 105.084 73.3235 105.56 73.1117C105.961 72.9336 106.383 72.7911 106.714 72.4907C107.038 72.1863 107.266 71.7939 107.37 71.3615C107.928 69.2253 106.014 67.6504 104.958 66.1139C104.358 65.2398 103.889 64.1135 104.219 63.0266C104.374 62.5183 104.725 62.0909 104.756 61.5441C104.768 61.0998 104.635 60.6637 104.378 60.3012C103.417 58.8678 101.355 58.5684 99.8912 59.354C99.7012 59.4567 99.5218 59.578 99.3555 59.7159C99.2699 59.7862 99.3555 59.9335 99.4517 59.8623H99.4555Z" fill="#4D6371"/>
<path d="M106.073 73.8789C105.698 73.8924 105.411 74.2303 105.382 74.6038C105.345 75.0736 105.637 75.4702 105.959 75.7677C106.333 76.1171 106.729 76.43 107.062 76.8266C107.419 77.2352 107.695 77.7088 107.873 78.2216C108.071 78.7971 108.091 79.4194 107.93 80.0064C107.898 80.1152 108.064 80.1508 108.096 80.043C108.434 78.8743 107.983 77.6767 107.254 76.7862C107.068 76.5616 106.867 76.3497 106.654 76.1518C106.422 75.9362 106.166 75.7456 105.947 75.5164C105.727 75.2873 105.562 75.0197 105.551 74.703C105.541 74.3862 105.757 74.0695 106.084 74.058C106.107 74.0568 106.129 74.0465 106.145 74.0292C106.16 74.012 106.169 73.9893 106.167 73.966C106.166 73.9428 106.156 73.921 106.139 73.9054C106.121 73.8897 106.099 73.8816 106.076 73.8828L106.073 73.8789Z" fill="#4D6371"/>
<path d="M102.434 71.4325C102.46 71.7242 102.538 72.009 102.663 72.2738C102.71 72.3749 102.855 72.2787 102.807 72.1776C102.696 71.9387 102.628 71.6823 102.605 71.4199C102.603 71.3972 102.593 71.376 102.576 71.3611C102.559 71.3461 102.536 71.3385 102.514 71.34C102.491 71.3416 102.47 71.3521 102.455 71.3692C102.44 71.3864 102.432 71.4088 102.434 71.4315V71.4325Z" fill="#4D6371"/>
<path d="M106.416 66.5316C106.544 66.7396 106.674 66.9466 106.8 67.1545C106.859 67.2508 107.003 67.1545 106.944 67.0582L106.56 66.4344C106.501 66.3381 106.357 66.4344 106.417 66.5307L106.416 66.5316Z" fill="#4D6371"/>
<path d="M103.799 146.643C95.0124 144.743 89.4087 136.041 91.307 127.246C93.2054 118.451 101.899 112.841 110.686 114.741C119.473 116.641 125.076 125.344 123.177 134.143C121.279 142.942 112.585 148.545 103.799 146.643ZM110.156 117.195C102.721 115.586 95.3653 120.333 93.7584 127.777C92.1514 135.22 96.8934 142.582 104.328 144.19C111.763 145.799 119.119 141.052 120.726 133.61C122.333 126.167 117.591 118.804 110.156 117.2V117.195Z" fill="#38516B"/>
<path d="M96.6821 127.317L99.0402 132.997C99.4172 133.906 99.7945 134.814 100.172 135.722C100.411 136.3 100.637 136.885 100.971 137.41C101.35 137.986 101.87 138.456 102.48 138.776C103.091 139.096 103.773 139.256 104.462 139.239C106.311 139.185 107.583 137.883 108.863 136.72C109.566 136.082 110.261 135.434 110.954 134.784C114.681 131.286 118.343 127.721 122.05 124.203C123.631 122.702 125.208 121.19 126.859 119.762C127.488 119.217 127.8 118.038 127.756 117.249C127.71 116.424 127.291 115.449 126.647 114.908C125.958 114.331 125.06 113.919 124.136 114.011C123.191 114.107 122.512 114.502 121.799 115.12C115.4 120.667 109.616 126.897 103.299 132.536L102.908 132.883C102.696 133.075 102.459 133.122 103.252 132.594C102.954 132.795 103.053 132.765 103.551 132.503C105.317 132.278 106.429 132.791 106.888 134.044C106.901 133.983 106.708 133.609 106.695 133.589L106.317 132.68C106.098 132.151 105.878 131.621 105.658 131.091L103.205 125.188C102.856 124.349 102.36 123.647 101.534 123.211C100.779 122.816 99.6884 122.685 98.8767 122.991C97.2476 123.604 95.9445 125.55 96.6821 127.323V127.317Z" fill="#1DD6C9"/>
<path d="M81.2985 91.089L105.573 96.1258C106.364 96.2904 106.631 95.0669 105.839 94.8984L81.5629 89.8587C80.7724 89.6951 80.5051 90.9225 81.2985 91.0871V91.089Z" fill="#38516B"/>
<path d="M80.0716 96.5755L97.5108 100.194L119.703 104.8L127.999 106.521C128.79 106.686 129.057 105.462 128.263 105.294L110.825 101.675L88.6325 97.0693L80.3361 95.3471C79.5465 95.1834 79.2782 96.406 80.0716 96.5745V96.5755Z" fill="#38516B"/>
<path d="M109.771 97.2739L124.154 100.258L141.449 103.847L148.566 105.324C149.355 105.488 149.623 104.265 148.83 104.096L134.447 101.112L117.152 97.5232L110.036 96.0464C109.245 95.8818 108.978 97.1054 109.77 97.2739H109.771Z" fill="#38516B"/>
<path d="M132.672 107.587L147.872 110.718C148.662 110.881 148.93 109.659 148.137 109.49L132.936 106.359C132.145 106.196 131.878 107.423 132.672 107.587Z" fill="#38516B"/>
<path d="M78.4123 101.638C86.0616 103.066 93.6624 104.725 101.215 106.616C101.999 106.809 102.263 105.584 101.48 105.389C93.931 103.498 86.3299 101.839 78.6768 100.411C77.8844 100.263 77.619 101.49 78.4123 101.638Z" fill="#38516B"/>
<path d="M105.545 107.498L137.466 114.418L146.482 116.373C147.271 116.544 147.54 115.314 146.747 115.144L114.825 108.224L105.812 106.27C105.024 106.099 104.755 107.329 105.548 107.498H105.545Z" fill="#38516B"/>
<path d="M126.501 70.6259L154.563 76.351C155.349 76.5117 155.62 75.292 154.827 75.1293L126.764 69.4052C125.978 69.2444 125.712 70.4641 126.501 70.6259Z" fill="#38516B"/>
<path d="M125.604 74.703L153.667 80.4252C154.452 80.5859 154.719 79.3662 153.93 79.2045L125.867 73.4794C125.082 73.3186 124.815 74.5384 125.604 74.7001V74.703Z" fill="#38516B"/>
<path d="M124.874 79.8157L152.282 85.4763C153.068 85.638 153.334 84.4173 152.545 84.2546L125.141 78.5969C124.354 78.4342 124.089 79.6559 124.878 79.8176L124.874 79.8157Z" fill="#38516B"/>
<path d="M123.83 85.3589L138.137 88.1334C138.924 88.2865 139.194 87.0658 138.4 86.9127L124.093 84.1382C123.305 83.9852 123.035 85.2059 123.83 85.3589Z" fill="#38516B"/>
<path d="M141.934 89.1877L152.038 91.4221C152.822 91.5953 153.087 90.3747 152.301 90.2004L142.198 87.966C141.414 87.7927 141.148 89.0134 141.934 89.1877Z" fill="#38516B"/>
<path d="M122.738 90.4253C131.987 92.4951 141.283 94.3242 150.627 95.9126C151.417 96.0474 151.685 94.8267 150.891 94.692C141.548 93.1035 132.251 91.2744 123.002 89.2047C122.218 89.0294 121.954 90.2501 122.738 90.4253Z" fill="#38516B"/>
<path d="M154.791 59.8672L152.486 70.5405L165.573 73.3717L154.791 59.8672Z" fill="#AFD0D3"/>
<path d="M58.1578 103.87C58.5511 102.803 59.2003 101.656 59.9485 100.582C58.0799 99.4493 55.3516 97.804 53.1869 96.5391C50.4403 103.798 47.0321 114.087 45.1934 119.729L54.6861 120.219L63.2826 117.353C63.2826 117.353 55.667 110.63 58.1578 103.87Z" fill="#FDBAA0"/>
<path d="M49.6141 142.266C60.4215 140.313 72.8272 127.741 75.7199 123.619C81.1236 115.912 89.0941 112.188 89.0585 110.688C89.0229 109.188 85.6666 105.96 78.5358 109.156C71.7607 112.191 66.8032 117.783 62.5718 117.159C60.8956 116.913 50.5585 116.347 50.5585 116.347C50.5585 116.347 45.4866 143.012 49.6141 142.266Z" fill="#FDBAA0"/>
<path d="M25.14 162.397C25.14 162.397 39.1026 152.393 38.5179 151.187C37.9332 149.981 25.4391 129.026 23.9004 122.438C23.9004 122.438 23.9244 121.171 22.0732 121.682C20.2219 122.192 4.71094 127.875 4.71094 127.875L8.25859 148.562L25.14 162.397Z" fill="white"/>
<path d="M-22.4724 130.502L-31.2285 167.342L11.2163 177.45C23.0835 168.564 29.7268 163.185 29.7653 161.08C29.7749 160.615 29.6066 160.027 29.2969 159.339C28.9344 158.533 28.3795 157.585 27.689 156.533C24.1644 151.142 17.1538 142.976 14.6678 136.471C13.282 132.841 12.1674 129.918 10.9923 127.798C10.6523 127.17 10.2629 126.57 9.82766 126.004C8.42553 124.216 6.80317 123.47 4.48743 123.9C3.03529 124.17 -14.5847 127.523 -22.4724 130.502Z" fill="#38516B"/>
<path d="M34.8814 151.805C34.9681 151.595 34.9906 151.364 34.9461 151.141C34.9015 150.918 34.7919 150.713 34.6311 150.553C34.4703 150.392 34.2656 150.283 34.0428 150.239C33.82 150.195 33.5891 150.218 33.3794 150.305C33.1697 150.392 32.9905 150.54 32.8646 150.729C32.7386 150.918 32.6716 151.14 32.6719 151.368C32.6722 151.595 32.7398 151.817 32.8662 152.006C32.9927 152.195 33.1722 152.342 33.3822 152.429C33.5215 152.486 33.6709 152.516 33.8217 152.516C33.9725 152.516 34.1217 152.486 34.261 152.428C34.4002 152.37 34.5267 152.285 34.6332 152.178C34.7396 152.071 34.824 151.945 34.8814 151.805Z" fill="#1DD6C9"/>
</g>
</svg>
