<svg width="79" height="88" viewBox="0 0 79 88" fill="none" xmlns="http://www.w3.org/2000/svg">
<path d="M13.7109 53.7965L16.7352 58.8316C18.2597 61.3692 17.9861 64.0303 15.6564 65.4411C14.4424 66.1759 13.1146 66.1481 12.0051 65.4535C12.4016 67.3582 11.7469 68.9389 10.161 69.8989C7.65303 71.4178 5.01289 70.4423 3.20259 67.4323L0 62.1009L13.7109 53.7935V53.7965ZM11.0954 61.8477C11.7101 62.8696 12.6874 63.2987 13.6679 62.7029C14.6668 62.0978 14.7282 61.042 14.1135 60.0171L13.004 58.1679L9.98889 59.9955L11.0984 61.8447L11.0954 61.8477ZM5.56612 65.7622C6.3222 67.0218 7.40715 67.491 8.52283 66.8149C9.62007 66.1512 9.71842 64.9379 8.97463 63.6969L7.61614 61.4341L4.20763 63.4994L5.56612 65.7622Z" fill="#053021" />
<path d="M22.4107 65.9116L30.6015 70.5948L29.0617 73.3084L23.8521 70.3324L22.2478 73.1663L26.9963 75.883L25.5026 78.5194L20.754 75.8027L19.0114 78.8775L24.2578 81.8782L22.718 84.5918L14.4902 79.887L22.4107 65.9116Z" fill="#053021" />
<path d="M39.1898 71.9165V84.7589H44.7713V88.0004H35.7598V71.9165H39.1898Z" fill="#053021" />
<path d="M52.5966 68.6861C53.8291 68.0316 55.2675 67.7137 56.7305 67.7939L58.427 71.0261C56.9272 70.7823 55.581 70.9243 54.2655 71.622C51.7975 72.9278 50.9892 75.8235 52.2831 78.284C53.5525 80.7012 56.3586 81.7107 58.8666 80.3801C60.1605 79.6948 61.0487 78.6791 61.7464 77.2961L63.443 80.5283C62.5824 81.8928 61.4575 82.8529 60.3234 83.4549C56.1158 85.6838 51.3672 84.1742 49.1451 79.9479C46.9567 75.7834 48.5089 70.8564 52.5966 68.6923" fill="#053021" />
<path d="M76.5989 69.0786C73.8697 72.8511 68.7 73.7062 64.9596 70.9803C61.2222 68.2513 60.4323 63.0495 63.1616 59.2739C65.8909 55.5015 71.0605 54.6463 74.8009 57.3723C78.5383 60.1013 79.3251 65.3031 76.5959 69.0786M65.8632 61.2466C64.2619 63.4601 64.7905 66.4823 67.0281 68.1185C69.2656 69.7516 72.293 69.3194 73.8943 67.109C75.4956 64.8956 74.97 61.8733 72.7294 60.2371C70.4888 58.604 67.4645 59.0362 65.8632 61.2466Z" fill="#053021" />
<path d="M51.2384 4.75244C48.0819 1.59123 44.3937 -0.0542058 40.5826 0.00136228C35.9108 0.0692789 31.6694 1.94316 28.3101 5.42851C23.0544 10.8804 20.2698 19.7095 20.4603 30.2891C20.7769 47.6387 29.1461 60.8145 39.9279 60.938C50.8542 61.0615 59.8995 47.4967 60.0901 30.6966C60.21 20.1232 56.8998 10.4235 51.2353 4.75244M47.0031 5.1692C47.7192 5.66931 48.4139 6.24969 49.0839 6.91959C52.3295 10.1703 54.7453 15.1282 56.0208 20.8271C55.446 20.8456 54.8283 20.9752 54.1644 21.2284C50.9587 22.4509 50.9833 26.7018 50.9956 29.5142C50.9987 30.1903 51.0018 30.8293 50.9587 31.243C50.8358 32.4346 50.4916 33.052 50.2334 33.2187C50.0152 33.3577 49.6248 33.2712 49.339 33.1724C48.8042 32.9903 48.6843 31.6104 48.7642 30.8324C49.1945 29.1191 50.8112 21.5433 47.8514 14.3873C46.6189 11.4083 46.7603 7.49071 47.0001 5.17228M41.1204 57.8231C41.8519 55.3534 42.6971 50.806 41.0651 45.9901C39.3655 40.9674 39.6882 36.7164 40.4258 33.7281L37.3093 33.7096C36.5809 37.1085 36.3872 41.6836 38.1791 46.9749C39.7189 51.5161 38.5664 55.8936 37.967 57.6471C29.9605 55.9183 23.7613 44.4744 23.5 30.2366C23.4078 25.1552 24.0809 20.4597 25.4118 16.4464C25.6208 17.3448 25.8943 18.3234 26.26 19.3761C27.5632 23.1424 26.5674 27.6558 26.134 29.2518C27.2098 28.8783 28.3316 28.5448 29.4903 28.2608C29.9728 25.7819 30.3601 21.9045 29.1368 18.3697C27.8368 14.6096 27.8214 11.9639 27.8736 11.0224C28.6543 9.73196 29.5241 8.56811 30.4923 7.56171C30.563 7.48762 30.6398 7.42588 30.7105 7.35488C30.7043 9.25345 30.9318 11.788 31.7555 14.8473L31.9552 15.5882C33.4613 21.1574 34.1405 23.6981 32.9634 27.5755C34.0268 27.4119 35.1117 27.2822 36.2182 27.1958C37.1495 23.1517 36.3288 20.0861 34.8966 14.7856L34.6968 14.0477C33.4213 9.31211 33.7471 6.06137 33.9592 4.84505C35.1117 4.19058 36.3381 3.72134 37.6259 3.42806C37.34 6.29599 37.1771 12.6369 39.8634 20.1818C39.9679 20.6264 40.6256 23.7536 39.7374 27.063C39.9248 27.063 40.1093 27.063 40.2998 27.063C41.1635 27.0723 42.0179 27.1093 42.86 27.1649C43.7544 23.1053 42.8508 19.5521 42.7986 19.3483L42.7586 19.2218C40.0017 11.5348 40.4811 5.10745 40.7362 3.06996C40.7793 3.06996 40.8254 3.06996 40.8684 3.06996C41.9626 3.0823 43.0475 3.28297 44.111 3.6596C43.7913 5.91628 43.2903 11.3403 45.0361 15.5666C47.7438 22.1144 45.995 29.3691 45.786 30.1748L45.7491 30.357C45.5217 32.0734 45.8137 35.2068 48.3524 36.0743C48.921 36.2688 49.4343 36.3522 49.8861 36.3553C50.762 36.3645 51.4228 36.0898 51.8716 35.7996C53.0456 35.0463 53.7771 33.5799 53.9861 31.564C54.0445 30.9837 54.0415 30.2983 54.0384 29.5019C54.0292 27.6527 54.0138 24.5594 55.2401 24.0932C55.864 23.8555 56.2544 23.8524 56.3988 23.9234C56.4849 23.9636 56.5218 24.0809 56.5095 24.0284L56.5986 24.0099C56.909 26.1709 57.0627 28.4028 57.0381 30.6657C56.8752 45.1412 49.8369 56.9463 41.1174 57.8231" fill="#053021" />
<path d="M39.759 27.3623C39.759 27.3623 39.7436 27.3839 39.7344 27.3994C39.759 27.3994 39.7866 27.3994 39.8112 27.3994L39.7928 27.387L39.759 27.3654V27.3623Z" fill="#053021" />
</svg>