<svg xmlns="http://www.w3.org/2000/svg" xmlns:xlink="http://www.w3.org/1999/xlink" width="196.556" height="131.606" viewBox="0 0 196.556 131.606">
  <defs>
    <linearGradient id="linear-gradient" y1="1" x2="1" y2="0.451" gradientUnits="objectBoundingBox">
      <stop offset="0" stop-color="#84c600"/>
      <stop offset="1" stop-color="#ffd205"/>
    </linearGradient>
  </defs>
  <path id="FAQ" d="M-2446.219,4649.827v-12.954a20.319,20.319,0,0,0-4.25-12.091c-2.559-3.264-6.369-5.635-11.647-7.25-11.73-3.6-24.265-2.587-34.384,2.766a19.457,19.457,0,0,0-10.07,17.024v12.5a2.779,2.779,0,0,1-2.784,2.779,2.781,2.781,0,0,1-2.782-2.779v-12.556a25.976,25.976,0,0,1,4.054-13.564v-14.472a19.454,19.454,0,0,0-10.064-16.978c-.711-.374-1.461-.725-2.227-1.054v18.282a8.033,8.033,0,0,1,5.209,7.494,8.041,8.041,0,0,1-8.032,8.033,8.04,8.04,0,0,1-8.03-8.033,8.01,8.01,0,0,1,5.287-7.514V4589.31a47.819,47.819,0,0,0-22.378-.306,2.8,2.8,0,0,1,.189.992v13.813c3.56.876,7.779,3.288,7.779,8.562v9.16a2.783,2.783,0,0,1-2.782,2.784h-3.265a2.784,2.784,0,0,1-2.786-2.784,2.785,2.785,0,0,1,2.786-2.782h.481v-6.378c0-2.841-4.185-3.329-5-3.394-.808.065-4.986.553-4.986,3.394v6.378h.478a2.785,2.785,0,0,1,2.784,2.782,2.784,2.784,0,0,1-2.784,2.784h-3.261a2.778,2.778,0,0,1-2.782-2.784v-9.16c0-5.274,4.215-7.692,7.772-8.566v-13.21a38.74,38.74,0,0,0-4.669,2.062,19.472,19.472,0,0,0-10.068,17.028v39.479a2.787,2.787,0,0,1-2.782,2.786,2.788,2.788,0,0,1-2.787-2.786v-39.531a25.08,25.08,0,0,1,13.033-21.9c11.86-6.264,27.875-7.229,40.812-2.446a37.965,37.965,0,0,1,4.611,2.048,25.043,25.043,0,0,1,13.029,21.853v8.407a23.436,23.436,0,0,1,3.412-2.216c11.414-6.037,25.488-7.191,38.62-3.171a40.235,40.235,0,0,1,10.554,5.549v-8.211a25.043,25.043,0,0,1,13.03-21.853,37.967,37.967,0,0,1,4.611-2.048c12.935-4.783,28.951-3.817,40.812,2.446a25.078,25.078,0,0,1,13.032,21.9v39.53a2.788,2.788,0,0,1-2.787,2.787,2.787,2.787,0,0,1-2.782-2.787v-39.478a19.57,19.57,0,0,0-9.152-16.509c-.022.051-.047.1-.073.151l-29.769,55.421a2.364,2.364,0,0,1-2.1,1.26,2.369,2.369,0,0,1-1.106-.274,2.373,2.373,0,0,1-.986-3.2l15.631-29.1a2.41,2.41,0,0,1-.211-.337l-13.685-26.6a2.354,2.354,0,0,1-.246-1.379q-.4.1-.8.2l-5.566,1.893c-.766.331-1.516.681-2.227,1.056a19.454,19.454,0,0,0-10.064,16.977v14.218a26,26,0,0,1,3.714,13.019v13a2.784,2.784,0,0,1-2.786,2.779A2.779,2.779,0,0,1-2446.219,4649.827Zm-79.437-32.848a2.462,2.462,0,0,0,2.46,2.463,2.462,2.462,0,0,0,2.463-2.463,2.466,2.466,0,0,0-2.463-2.464A2.465,2.465,0,0,0-2525.656,4616.979Zm104.406-28.305,12.388,24.08,11.434-21.287v0q-.656-.267-1.324-.513l-5.377-1.59a48.257,48.257,0,0,0-17.145-.732Zm-55.995,59.259c-6.776-2.718-9.659-7.332-10.881-10.724-1.416-3.923.123-8.256,3.5-9.868a7.335,7.335,0,0,1,8.14,1.134,8.314,8.314,0,0,1,5.425-2.041,7.383,7.383,0,0,1,1.546.162c3.226.687,6.093,3.631,5.219,8.651-1.563,9.012-10.538,12.551-10.919,12.7a2.78,2.78,0,0,1-1,.186A2.836,2.836,0,0,1-2477.244,4647.933Zm-4.986-15.561c-.842.4-1.045,1.887-.663,2.948a12.413,12.413,0,0,0,6.642,6.967c1.831-.976,5.7-3.532,6.477-7.991.343-1.99-.561-2.186-.9-2.257a2.454,2.454,0,0,0-2.832,1.8,2.79,2.79,0,0,1-2.391,2.078,2.694,2.694,0,0,1-.292.014,2.78,2.78,0,0,1-2.494-1.526c-.217-.409-1.265-2.234-2.718-2.234A1.886,1.886,0,0,0-2482.23,4632.372Zm81.222-3.108a2.372,2.372,0,0,1-2.371-2.372,2.372,2.372,0,0,1,2.371-2.368h9.113a2.368,2.368,0,0,1,2.367,2.368,2.368,2.368,0,0,1-2.367,2.372Zm-99.885-46.572a24.528,24.528,0,0,1,24.5-24.5,24.53,24.53,0,0,1,24.5,24.5,24.533,24.533,0,0,1-24.5,24.5A24.531,24.531,0,0,1-2500.894,4582.692Zm5.566,0a18.955,18.955,0,0,0,18.932,18.936,18.956,18.956,0,0,0,18.935-18.936,18.952,18.952,0,0,0-18.935-18.929A18.951,18.951,0,0,0-2495.327,4582.692Zm18.87,12.768c-6.346-.13-10.676-5.768-10.858-6.006a2.784,2.784,0,0,1,.54-3.9,2.786,2.786,0,0,1,3.893.536c.076.093,2.959,3.746,6.562,3.8,2.142.051,4.33-1.271,6.48-3.89a2.78,2.78,0,0,1,2.151-1.017,2.769,2.769,0,0,1,1.767.639,2.784,2.784,0,0,1,.381,3.917c-3.23,3.927-6.824,5.917-10.685,5.917Zm-85.679-36.706a2.718,2.718,0,0,1-.752-.343,2.783,2.783,0,0,1-1.189-1.832c-2.32-13.292,2.584-21.595,7.105-26.215a28.155,28.155,0,0,1,16.527-8.007,41.31,41.31,0,0,1,5.3-.357c6.095,0,9.83,1.547,11.689,2.621a26.233,26.233,0,0,0,2.563,1.328c13.7,6.129,11.934,23.222,9.084,31.408a2.792,2.792,0,0,1-1.594,1.669.6.6,0,0,0-.065.011,24.608,24.608,0,0,1-24.316,21.078A24.62,24.62,0,0,1-2562.136,4558.754Zm5.47-1.021a19.048,19.048,0,0,0,18.887,16.812,19.047,19.047,0,0,0,18.957-17.54,52.223,52.223,0,0,1-12.153-12.562C-2539.885,4551.992-2550.838,4556-2556.665,4557.733Zm16.936-29.854a22.55,22.55,0,0,0-13.262,6.376c-4.639,4.742-6.65,10.906-6,18.349,5.58-1.619,17.935-5.945,26.611-14.4a2.778,2.778,0,0,1,2.306-.767,2.78,2.78,0,0,1,2.033,1.34c.056.1,5.034,8.38,11.878,13.324a34.475,34.475,0,0,0,.773-7.236c-.062-6.9-2.68-11.555-7.772-13.833a33.32,33.32,0,0,1-3.082-1.59c-1.1-.641-3.877-1.875-8.887-1.875A36.034,36.034,0,0,0-2539.73,4527.879Zm95.151,22.956a28.819,28.819,0,0,1,28.79-28.793A28.823,28.823,0,0,1-2387,4550.835a28.825,28.825,0,0,1-28.793,28.79A28.821,28.821,0,0,1-2444.579,4550.835Zm5.58,0a23.236,23.236,0,0,0,23.209,23.206,23.235,23.235,0,0,0,23.209-23.206,23.235,23.235,0,0,0-23.209-23.213A23.237,23.237,0,0,0-2439,4550.835Z" transform="translate(2574.5 -4521.5)" stroke="rgba(0,0,0,0)" stroke-width="1" fill="url(#linear-gradient)"/>
</svg>
