<svg xmlns="http://www.w3.org/2000/svg" xmlns:xlink="http://www.w3.org/1999/xlink" width="196.286" height="149.243" viewBox="0 0 196.286 149.243">
  <defs>
    <linearGradient id="linear-gradient" y1="1" x2="1" y2="0.451" gradientUnits="objectBoundingBox">
      <stop offset="0" stop-color="#84c600"/>
      <stop offset="1" stop-color="#ffd205"/>
    </linearGradient>
  </defs>
  <path id="Tracé_36407" data-name="Tracé 36407" d="M287.5,397.453c-42.272,0-68.1-26.362-77.712-45.153a50.682,50.682,0,0,1-2.934-39.718c4.3-12.649,13.263-22.977,24.581-28.334,2.1-.993,4-1.932,5.732-2.831-1.779-2.148-2.989-5.2-3.307-9.632-.705-9.846,4.268-16.813,9.157-20.051,3.834-2.539,7.93-3.13,10.958-1.582,2.553,1.3,4.038,3.967,4.182,7.5.445,10.861-1.443,16.949-12.432,23.951a56.28,56.28,0,0,0,5.9,1.18c5.745.952,12.256,2.032,18.232,6.864a17.7,17.7,0,0,1,4.322,5.2,82.761,82.761,0,0,1,17.038-9.189c2.167-.87,4.125-1.72,5.893-2.555-5.228-3.364-9.017-8.311-7.235-17.032,2.175-10.647,9.438-15.5,15.67-15.581,5.007-.067,8.934,2.87,10.007,7.482l.274,1.158c2.044,8.563,2.5,16.058-9.238,23.766q.778.327,1.593.661a59.922,59.922,0,0,1,9.354,4.482,31.949,31.949,0,0,1,9.973,10.784c8.5-5.137,18.225-8.428,25.081-10.319a25.592,25.592,0,0,0,4.213-1.589c-4.411-4.4-7.539-9.133-8.035-14.345-.618-6.509,3.869-14.466,9.6-17.029,2.648-1.184,7.907-2.286,13.369,3.626a14.212,14.212,0,0,1,3.3,14.183c-1.49,5.223-5.6,10.433-10.851,14.268,2.714,2.24,5.87,4.571,9.41,7.054,11.351,7.961,13.85,20.636,7.428,37.671-3.088,8.2-4.981,13.225-12.292,20.519a2.209,2.209,0,1,1-3.12-3.128c6.634-6.618,8.2-10.786,11.054-18.353,5.924-15.713,4.017-26.343-5.606-33.092-3.753-2.633-7.484-5.344-10.793-8.183a30.836,30.836,0,0,1-6.5,2.658c-6.643,1.832-16.136,5.028-24.22,9.952,2.932,6.373,4.291,13.324,3.733,18.838-.8,7.895-8.182,23.621-15.771,28.092-2.862,1.686-5.087,1.343-6.449.759a8.576,8.576,0,0,1-4.618-5.031c-2.922-7.476.639-20.43,4.945-30.061,2.509-5.61,7.034-10.245,12.373-14.035a27.646,27.646,0,0,0-8.6-9.513,55.912,55.912,0,0,0-8.658-4.121c-1.509-.62-3.083-1.268-4.638-1.985a97.133,97.133,0,0,1-9,4.1,78.282,78.282,0,0,0-16.893,9.227,35.349,35.349,0,0,1,1.558,8.36c1.111,14.938-4.951,33.612-11.113,40.329-4.249,4.631-7.929,3.826-9.744,2.934-5.687-2.794-8-13.432-6.583-21.614,1.59-9.21,7.908-21.313,20.506-31.441a13.577,13.577,0,0,0-3.512-4.471c-5.07-4.1-10.716-5.035-16.177-5.941-3.492-.579-7.037-1.167-9.989-2.724-2.245,1.221-4.765,2.487-7.594,3.827-10.244,4.849-18.368,14.24-22.289,25.764a46.3,46.3,0,0,0,2.685,36.283c11.2,21.9,45.765,54.627,104.247,38.346,31.814-8.858,58.182-27.019,77.6-41.851a2.209,2.209,0,1,1,2.682,3.511c-19.732,15.073-46.554,33.536-79.1,42.6A117.9,117.9,0,0,1,287.5,397.453Zm-15.29-95.534c-10.882,9.132-16.367,19.719-17.766,27.824-1.33,7.707,1.153,15.412,4.177,16.9,1.256.617,2.784-.041,4.54-1.956,5.44-5.929,10.977-23.39,9.963-37.015A33,33,0,0,0,272.21,301.918Zm53.557,3.31c-4.509,3.293-8.264,7.228-10.346,11.884-4.877,10.905-6.831,21.615-4.864,26.649a4.278,4.278,0,0,0,2.245,2.579,2.826,2.826,0,0,0,2.465-.505c5.707-3.362,12.876-17.392,13.618-24.731C329.345,316.559,328.17,310.686,325.767,305.228Zm36.873-46.207a5.992,5.992,0,0,0-2.462.549c-4.045,1.808-7.451,7.92-7.009,12.578.4,4.2,3.092,8.208,7.608,12.469,4.842-3.306,8.724-7.955,10.016-12.483a9.868,9.868,0,0,0-2.294-9.973C366.569,260.07,364.606,259.021,362.64,259.021ZM305.72,254.9h-.111c-4.462.06-9.718,3.808-11.4,12.048-1.48,7.243,1.624,10.707,7.561,13.745,12.911-7.357,11.431-13.559,9.764-20.545l-.28-1.183C310.66,256.418,308.6,254.9,305.72,254.9Zm-55.442-1.182a9.184,9.184,0,0,0-4.822,1.694c-3.849,2.549-7.759,8.1-7.19,16.052.274,3.83,1.262,6.2,2.893,7.765,11.962-6.932,12.978-11.789,12.584-21.4-.054-1.321-.407-3.043-1.779-3.745A3.7,3.7,0,0,0,250.278,253.722Z" transform="translate(-203.486 -248.71)" stroke="rgba(0,0,0,0)" stroke-width="1" fill="url(#linear-gradient)"/>
</svg>
