<svg width="87" height="68" viewBox="0 0 87 68" fill="none" xmlns="http://www.w3.org/2000/svg">
<path d="M5.78 67.8857C2.26 57.8286 0.5 47.8552 0.5 37.9657C0.5 26.5676 3.51714 17.4324 9.55143 10.56C15.5857 3.52 24.3857 0 35.9514 0V15.84C27.0676 15.84 22.6257 21.5391 22.6257 32.9372V36.7086H38.7171V67.8857H5.78ZM53.3 67.8857C49.9476 57.661 48.2714 47.6876 48.2714 37.9657C48.2714 26.5676 51.2048 17.4324 57.0714 10.56C63.1057 3.52 71.9057 0 83.4714 0V15.84C74.7552 15.84 70.3971 21.5391 70.3971 32.9372V36.7086H86.2371V67.8857H53.3Z" fill="white"/>
</svg>
