<svg width="121" height="120" viewBox="0 0 121 120" fill="none" xmlns="http://www.w3.org/2000/svg">
<g clip-path="url(#clip0_302_912)">
<path d="M60.5 120C93.6371 120 120.5 93.1371 120.5 60C120.5 26.8629 93.6371 0 60.5 0C27.3629 0 0.5 26.8629 0.5 60C0.5 93.1371 27.3629 120 60.5 120Z" fill="#1DD6C9"/>
<path d="M104.158 57.8984H55.5977V84.9802H104.158V57.8984Z" fill="white"/>
<path d="M85.5651 71.3739C85.5651 76.7435 82.5395 81.0953 78.8041 81.0953C75.0686 81.0953 72.043 76.7435 72.043 71.3739C72.043 66.0042 75.0686 61.6338 78.8041 61.6338C82.5395 61.6338 85.5651 66.0136 85.5651 71.3739Z" fill="#236FE0"/>
<path d="M104.157 80.6754C104.157 81.4293 103.934 82.1663 103.515 82.7931C103.095 83.4199 102.5 83.9082 101.803 84.1963C101.106 84.4844 100.34 84.5593 99.6005 84.4116C98.8611 84.2638 98.1822 83.9 97.6498 83.3662C97.1173 82.8324 96.7551 82.1526 96.6092 81.4129C96.4632 80.6732 96.54 79.9069 96.8298 79.2108C97.1196 78.5148 97.6094 77.9204 98.2372 77.5028C98.865 77.0853 99.6026 76.8634 100.357 76.8652C101.365 76.8677 102.332 77.2702 103.045 77.9845C103.757 78.6988 104.157 79.6665 104.157 80.6754Z" fill="#236FE0"/>
<path d="M104.157 62.082C104.159 62.8364 103.937 63.5743 103.519 64.2023C103.101 64.8303 102.506 65.3201 101.81 65.6097C101.113 65.8992 100.346 65.9754 99.6062 65.8287C98.8662 65.682 98.1865 65.3189 97.6531 64.7855C97.1197 64.2521 96.7566 63.5724 96.6099 62.8324C96.4632 62.0924 96.5394 61.3256 96.8289 60.629C97.1185 59.9324 97.6083 59.3374 98.2363 58.9195C98.8643 58.5015 99.6022 58.2794 100.357 58.2813C101.365 58.2813 102.331 58.6817 103.044 59.3945C103.757 60.1073 104.157 61.074 104.157 62.082Z" fill="#236FE0"/>
<path d="M62.75 80.6754C62.7481 81.4267 62.5237 82.1606 62.1049 82.7844C61.6861 83.4082 61.0919 83.8939 60.3972 84.1801C59.7026 84.4664 58.9387 84.5403 58.202 84.3926C57.4653 84.2449 56.789 83.8822 56.2584 83.3503C55.7277 82.8184 55.3667 82.1411 55.2208 81.4041C55.0749 80.6671 55.1507 79.9033 55.4386 79.2094C55.7266 78.5154 56.2137 77.9224 56.8386 77.5051C57.4634 77.0879 58.1979 76.8652 58.9492 76.8652C59.4491 76.8652 59.9441 76.9639 60.4059 77.1554C60.8676 77.347 61.287 77.6278 61.6401 77.9818C61.9931 78.3357 62.2729 78.7558 62.4634 79.218C62.6538 79.6802 62.7512 80.1754 62.75 80.6754Z" fill="#236FE0"/>
<path d="M62.75 62.082C62.75 62.8338 62.5271 63.5686 62.1094 64.1936C61.6918 64.8187 61.0982 65.3058 60.4037 65.5935C59.7092 65.8812 58.945 65.9564 58.2077 65.8098C57.4704 65.6631 56.7932 65.3011 56.2617 64.7696C55.7301 64.238 55.3681 63.5608 55.2215 62.8235C55.0748 62.0862 55.1501 61.322 55.4378 60.6275C55.7254 59.933 56.2126 59.3394 56.8376 58.9218C57.4627 58.5042 58.1975 58.2812 58.9492 58.2812C59.9572 58.2812 60.924 58.6817 61.6368 59.3945C62.3496 60.1073 62.75 61.074 62.75 62.082Z" fill="#236FE0"/>
<path d="M104.158 57.8984H55.5977V60.7H104.158V57.8984Z" fill="#236FE0"/>
<path d="M104.158 82.1787H55.5977V84.9803H104.158V82.1787Z" fill="#236FE0"/>
<path d="M57.4654 57.8984H55.5977V83.1124H57.4654V57.8984Z" fill="#236FE0"/>
<path d="M104.157 57.8984H101.355V83.1124H104.157V57.8984Z" fill="#236FE0"/>
<path d="M104.158 52.2959H55.5977V79.3776H104.158V52.2959Z" fill="white"/>
<path d="M85.5651 65.5099C85.5651 70.8796 82.5395 75.2313 78.8041 75.2313C75.0686 75.2313 72.043 70.8796 72.043 65.5099C72.043 60.1403 75.0686 55.7979 78.8041 55.7979C82.5395 55.7979 85.5651 60.1403 85.5651 65.5099Z" fill="#236FE0"/>
<path d="M104.157 74.8015C104.154 75.5546 103.927 76.2898 103.505 76.9141C103.084 77.5384 102.487 78.0238 101.79 78.3091C101.093 78.5943 100.327 78.6666 99.589 78.5167C98.8509 78.3668 98.1738 78.0015 97.6432 77.467C97.1126 76.9325 96.7523 76.2527 96.6078 75.5135C96.4634 74.7743 96.5413 74.0089 96.8316 73.314C97.122 72.619 97.6118 72.0257 98.2392 71.609C98.8665 71.1923 99.6034 70.9708 100.357 70.9727C100.858 70.9739 101.354 71.074 101.816 71.2672C102.278 71.4603 102.698 71.7429 103.051 72.0985C103.404 72.4542 103.684 72.876 103.874 73.3398C104.063 73.8036 104.16 74.3003 104.157 74.8015Z" fill="#236FE0"/>
<path d="M104.157 56.2178C104.159 56.9721 103.937 57.7101 103.519 58.3381C103.101 58.9661 102.506 59.4559 101.81 59.7454C101.113 60.0349 100.346 60.1112 99.6062 59.9645C98.8662 59.8178 98.1865 59.4547 97.6531 58.9213C97.1197 58.3879 96.7566 57.7081 96.6099 56.9681C96.4632 56.2282 96.5394 55.4613 96.8289 54.7647C97.1185 54.0681 97.6083 53.4732 98.2363 53.0552C98.8643 52.6373 99.6022 52.4152 100.357 52.417C101.365 52.417 102.331 52.8174 103.044 53.5302C103.757 54.243 104.157 55.2098 104.157 56.2178Z" fill="#236FE0"/>
<path d="M62.7499 74.8014C62.7444 75.552 62.5168 76.284 62.0958 76.9054C61.6748 77.5267 61.0793 78.0095 60.3843 78.2929C59.6893 78.5763 58.926 78.6475 58.1906 78.4977C57.4552 78.3479 56.7806 77.9838 56.2518 77.4511C55.7231 76.9185 55.3638 76.2412 55.2194 75.5047C55.0751 74.7682 55.1519 74.0054 55.4404 73.3125C55.7289 72.6197 56.216 72.0277 56.8405 71.6113C57.4649 71.1949 58.1986 70.9727 58.9491 70.9727C59.4503 70.9739 59.9462 71.0739 60.4086 71.2671C60.871 71.4603 61.2908 71.7429 61.6439 72.0985C61.9969 72.4542 62.2763 72.876 62.4661 73.3398C62.6559 73.8036 62.7524 74.3003 62.7499 74.8014Z" fill="#236FE0"/>
<path d="M62.75 56.2178C62.75 56.9695 62.5271 57.7043 62.1094 58.3294C61.6918 58.9544 61.0982 59.4416 60.4037 59.7292C59.7092 60.0169 58.945 60.0922 58.2077 59.9455C57.4704 59.7989 56.7932 59.4369 56.2617 58.9053C55.7301 58.3738 55.3681 57.6965 55.2215 56.9593C55.0748 56.222 55.1501 55.4578 55.4378 54.7633C55.7254 54.0688 56.2126 53.4752 56.8376 53.0575C57.4627 52.6399 58.1975 52.417 58.9492 52.417C59.9572 52.417 60.924 52.8174 61.6368 53.5302C62.3496 54.243 62.75 55.2097 62.75 56.2178Z" fill="#236FE0"/>
<path d="M104.158 52.2959H55.5977V55.0975H104.158V52.2959Z" fill="#236FE0"/>
<path d="M104.158 76.5762H55.5977V79.3777H104.158V76.5762Z" fill="#236FE0"/>
<path d="M57.4654 52.2959H55.5977V77.5099H57.4654V52.2959Z" fill="#236FE0"/>
<path d="M104.157 52.2959H101.355V77.5099H104.157V52.2959Z" fill="#236FE0"/>
<path d="M104.158 46.6924H55.5977V72.8402H104.158V46.6924Z" fill="white"/>
<path d="M85.5651 59.6452C85.5651 65.0149 82.5395 69.3573 78.8041 69.3573C75.0686 69.3573 72.043 65.0149 72.043 59.6452C72.043 54.2756 75.0686 49.9238 78.8041 49.9238C82.5395 49.9238 85.5651 54.2756 85.5651 59.6452Z" fill="#236FE0"/>
<path d="M104.157 68.9365C104.159 69.6909 103.937 70.4288 103.519 71.0568C103.101 71.6848 102.506 72.1746 101.81 72.4642C101.113 72.7537 100.346 72.8299 99.6062 72.6832C98.8662 72.5365 98.1865 72.1734 97.6531 71.64C97.1197 71.1066 96.7566 70.4268 96.6099 69.6869C96.4632 68.9469 96.5394 68.1801 96.8289 67.4835C97.1185 66.7869 97.6083 66.1919 98.2363 65.774C98.8643 65.356 99.6022 65.1339 100.357 65.1358C101.365 65.1358 102.331 65.5362 103.044 66.249C103.757 66.9618 104.157 67.9285 104.157 68.9365Z" fill="#236FE0"/>
<path d="M104.157 50.3531C104.157 51.1071 103.934 51.8441 103.515 52.4709C103.095 53.0976 102.5 53.586 101.803 53.8741C101.106 54.1622 100.34 54.2371 99.6005 54.0893C98.8611 53.9415 98.1822 53.5777 97.6498 53.0439C97.1173 52.5101 96.7551 51.8304 96.6092 51.0907C96.4632 50.351 96.54 49.5846 96.8298 48.8885C97.1196 48.1925 97.6094 47.5981 98.2372 47.1806C98.865 46.763 99.6026 46.5411 100.357 46.543C101.365 46.5455 102.332 46.948 103.045 47.6622C103.757 48.3765 104.157 49.3442 104.157 50.3531Z" fill="#236FE0"/>
<path d="M62.75 68.9365C62.75 69.6882 62.5271 70.4231 62.1094 71.0481C61.6918 71.6732 61.0982 72.1603 60.4037 72.448C59.7092 72.7357 58.945 72.8109 58.2077 72.6643C57.4704 72.5176 56.7932 72.1556 56.2617 71.6241C55.7301 71.0925 55.3681 70.4153 55.2215 69.678C55.0748 68.9407 55.1501 68.1765 55.4378 67.482C55.7254 66.7875 56.2126 66.1939 56.8376 65.7763C57.4627 65.3587 58.1975 65.1357 58.9492 65.1357C59.9572 65.1357 60.924 65.5362 61.6368 66.249C62.3496 66.9618 62.75 67.9285 62.75 68.9365Z" fill="#236FE0"/>
<path d="M62.75 50.3531C62.7481 51.1044 62.5237 51.8383 62.1049 52.4621C61.6861 53.0859 61.0919 53.5716 60.3972 53.8579C59.7026 54.1441 58.9387 54.2181 58.202 54.0704C57.4653 53.9226 56.789 53.5599 56.2584 53.028C55.7277 52.4961 55.3667 51.8188 55.2208 51.0818C55.0749 50.3448 55.1507 49.5811 55.4386 48.8871C55.7266 48.1931 56.2137 47.6001 56.8386 47.1829C57.4634 46.7656 58.1979 46.543 58.9492 46.543C59.4491 46.543 59.9441 46.6416 60.4059 46.8332C60.8676 47.0248 61.287 47.3056 61.6401 47.6595C61.9931 48.0134 62.2729 48.4335 62.4634 48.8957C62.6538 49.3579 62.7512 49.8532 62.75 50.3531Z" fill="#236FE0"/>
<path d="M104.158 46.6924H55.5977V48.5601H104.158V46.6924Z" fill="#236FE0"/>
<path d="M104.158 70.9727H55.5977V72.8404H104.158V70.9727Z" fill="#236FE0"/>
<path d="M57.4654 46.6924H55.5977V71.9064H57.4654V46.6924Z" fill="#236FE0"/>
<path d="M104.157 46.6924H101.355V71.9064H104.157V46.6924Z" fill="#236FE0"/>
<path d="M68.6716 57.8984H20.1113V84.9802H68.6716V57.8984Z" fill="white"/>
<path d="M50.0769 71.3739C50.0769 76.7435 47.0512 81.0953 43.3158 81.0953C39.5804 81.0953 36.5547 76.7435 36.5547 71.3739C36.5547 66.0042 39.5804 61.6338 43.3158 61.6338C47.0512 61.6338 50.0769 66.0136 50.0769 71.3739Z" fill="#236FE0"/>
<path d="M68.671 80.6754C68.671 81.4293 68.4473 82.1663 68.0282 82.7931C67.6092 83.4199 67.0136 83.9082 66.3168 84.1963C65.62 84.4844 64.8535 84.5593 64.1141 84.4116C63.3748 84.2638 62.6959 83.9 62.1634 83.3662C61.631 82.8324 61.2688 82.1526 61.1229 81.4129C60.9769 80.6732 61.0537 79.9069 61.3435 79.2108C61.6333 78.5148 62.1231 77.9204 62.7509 77.5028C63.3787 77.0853 64.1163 76.8634 64.8702 76.8652C65.8791 76.8677 66.8458 77.2702 67.5584 77.9845C68.2709 78.6988 68.671 79.6665 68.671 80.6754Z" fill="#236FE0"/>
<path d="M68.671 62.082C68.6729 62.8364 68.4507 63.5743 68.0328 64.2023C67.6148 64.8303 67.0199 65.3201 66.3233 65.6097C65.6267 65.8992 64.8598 65.9754 64.1199 65.8287C63.3799 65.682 62.7002 65.3189 62.1667 64.7855C61.6333 64.2521 61.2703 63.5724 61.1235 62.8324C60.9768 62.0924 61.0531 61.3256 61.3426 60.629C61.6321 59.9324 62.1219 59.3374 62.7499 58.9195C63.3779 58.5015 64.1159 58.2794 64.8702 58.2813C65.8783 58.2813 66.845 58.6817 67.5578 59.3945C68.2706 60.1073 68.671 61.074 68.671 62.082Z" fill="#236FE0"/>
<path d="M28.1972 80.6754C28.1954 81.4267 27.9709 82.1606 27.5522 82.7844C27.1334 83.4082 26.5392 83.8939 25.8445 84.1801C25.1498 84.4664 24.3859 84.5403 23.6493 84.3926C22.9126 84.2449 22.2362 83.8822 21.7056 83.3503C21.175 82.8184 20.814 82.1411 20.6681 81.4041C20.5222 80.6671 20.598 79.9033 20.8859 79.2094C21.1739 78.5154 21.661 77.9224 22.2858 77.5051C22.9107 77.0879 23.6451 76.8652 24.3965 76.8652C24.8964 76.8652 25.3914 76.9639 25.8531 77.1554C26.3149 77.347 26.7343 77.6278 27.0873 77.9818C27.4404 78.3357 27.7202 78.7558 27.9106 79.218C28.1011 79.6802 28.1985 80.1754 28.1972 80.6754Z" fill="#236FE0"/>
<path d="M27.2644 62.082C27.2644 62.5812 27.1661 63.0754 26.9751 63.5365C26.7841 63.9977 26.5041 64.4167 26.1512 64.7696C25.7982 65.1225 25.3792 65.4025 24.9181 65.5935C24.457 65.7845 23.9627 65.8828 23.4636 65.8828C21.3624 65.8828 21.5305 64.1832 21.5305 62.082C21.5305 59.9809 21.3624 58.2812 23.4636 58.2812C24.4716 58.2813 25.4384 58.6817 26.1512 59.3945C26.864 60.1073 27.2644 61.074 27.2644 62.082Z" fill="#236FE0"/>
<path d="M68.6716 57.8984H20.1113V60.7H68.6716V57.8984Z" fill="#236FE0"/>
<path d="M68.6716 82.1787H20.1113V84.9803H68.6716V82.1787Z" fill="#236FE0"/>
<path d="M21.979 57.8984H20.1113V83.1124H21.979V57.8984Z" fill="#236FE0"/>
<path d="M68.6727 57.8984H65.8711V83.1124H68.6727V57.8984Z" fill="#236FE0"/>
<path d="M68.6716 52.2959H20.1113V79.3776H68.6716V52.2959Z" fill="white"/>
<path d="M50.0769 65.5099C50.0769 70.8796 47.0512 75.2313 43.3158 75.2313C39.5804 75.2313 36.5547 70.8796 36.5547 65.5099C36.5547 60.1403 39.5804 55.7979 43.3158 55.7979C47.0512 55.7979 50.0769 60.1403 50.0769 65.5099Z" fill="#236FE0"/>
<path d="M68.671 74.8015C68.6673 75.5546 68.4404 76.2898 68.0191 76.9141C67.5978 77.5384 67.0009 78.0238 66.3039 78.3091C65.6068 78.5943 64.8408 78.6666 64.1027 78.5167C63.3646 78.3668 62.6875 78.0015 62.1569 77.467C61.6263 76.9325 61.266 76.2527 61.1215 75.5135C60.9771 74.7743 61.0549 74.0089 61.3453 73.314C61.6356 72.619 62.1254 72.0257 62.7528 71.609C63.3802 71.1923 64.117 70.9708 64.8702 70.9727C65.3713 70.9739 65.8673 71.074 66.3297 71.2672C66.7921 71.4603 67.2119 71.7429 67.5649 72.0985C67.918 72.4542 68.1974 72.876 68.3872 73.3398C68.577 73.8036 68.6734 74.3003 68.671 74.8015Z" fill="#236FE0"/>
<path d="M68.671 56.2178C68.6729 56.9721 68.4507 57.7101 68.0328 58.3381C67.6148 58.9661 67.0199 59.4559 66.3233 59.7454C65.6267 60.0349 64.8598 60.1112 64.1199 59.9645C63.3799 59.8178 62.7002 59.4547 62.1667 58.9213C61.6333 58.3879 61.2703 57.7081 61.1235 56.9681C60.9768 56.2282 61.0531 55.4613 61.3426 54.7647C61.6321 54.0681 62.1219 53.4732 62.7499 53.0552C63.3779 52.6373 64.1159 52.4152 64.8702 52.417C65.8783 52.417 66.845 52.8174 67.5578 53.5302C68.2706 54.243 68.671 55.2098 68.671 56.2178Z" fill="#236FE0"/>
<path d="M28.1972 74.8014C28.1916 75.552 27.964 76.284 27.543 76.9054C27.1221 77.5267 26.5265 78.0095 25.8316 78.2929C25.1366 78.5763 24.3733 78.6475 23.6379 78.4977C22.9024 78.3479 22.2278 77.9838 21.6991 77.4511C21.1703 76.9185 20.8111 76.2412 20.6667 75.5047C20.5223 74.7682 20.5992 74.0054 20.8877 73.3125C21.1762 72.6197 21.6633 72.0277 22.2877 71.6113C22.9121 71.1949 23.6459 70.9727 24.3964 70.9727C24.8975 70.9739 25.3935 71.0739 25.8559 71.2671C26.3183 71.4603 26.7381 71.7429 27.0911 72.0985C27.4442 72.4542 27.7236 72.876 27.9134 73.3398C28.1032 73.8036 28.1996 74.3003 28.1972 74.8014Z" fill="#236FE0"/>
<path d="M27.2644 56.2178C27.2644 56.7169 27.1661 57.2111 26.9751 57.6723C26.7841 58.1334 26.5041 58.5524 26.1512 58.9053C25.7982 59.2583 25.3792 59.5382 24.9181 59.7292C24.457 59.9202 23.9627 60.0185 23.4636 60.0185C21.3624 60.0185 21.5305 58.3189 21.5305 56.2178C21.5305 54.1166 21.3624 52.417 23.4636 52.417C24.4716 52.417 25.4384 52.8174 26.1512 53.5302C26.864 54.243 27.2644 55.2097 27.2644 56.2178Z" fill="#236FE0"/>
<path d="M68.6716 52.2959H20.1113V55.0975H68.6716V52.2959Z" fill="#236FE0"/>
<path d="M68.6716 76.5762H20.1113V79.3777H68.6716V76.5762Z" fill="#236FE0"/>
<path d="M21.979 52.2959H20.1113V77.5099H21.979V52.2959Z" fill="#236FE0"/>
<path d="M68.6727 52.2959H65.8711V77.5099H68.6727V52.2959Z" fill="#236FE0"/>
<path d="M68.6716 46.6924H20.1113V72.8402H68.6716V46.6924Z" fill="white"/>
<path d="M50.0769 59.6452C50.0769 65.0149 47.0512 69.3573 43.3158 69.3573C39.5804 69.3573 36.5547 65.0149 36.5547 59.6452C36.5547 54.2756 39.5804 49.9238 43.3158 49.9238C47.0512 49.9238 50.0769 54.2756 50.0769 59.6452Z" fill="#236FE0"/>
<path d="M68.671 68.9365C68.6729 69.6909 68.4507 70.4288 68.0328 71.0568C67.6148 71.6848 67.0199 72.1746 66.3233 72.4642C65.6267 72.7537 64.8598 72.8299 64.1199 72.6832C63.3799 72.5365 62.7002 72.1734 62.1667 71.64C61.6333 71.1066 61.2703 70.4268 61.1235 69.6869C60.9768 68.9469 61.0531 68.1801 61.3426 67.4835C61.6321 66.7869 62.1219 66.1919 62.7499 65.774C63.3779 65.356 64.1159 65.1339 64.8702 65.1358C65.8783 65.1358 66.845 65.5362 67.5578 66.249C68.2706 66.9618 68.671 67.9285 68.671 68.9365Z" fill="#236FE0"/>
<path d="M68.671 50.3531C68.671 51.1071 68.4473 51.8441 68.0282 52.4709C67.6092 53.0976 67.0136 53.586 66.3168 53.8741C65.62 54.1622 64.8535 54.2371 64.1141 54.0893C63.3748 53.9415 62.6959 53.5777 62.1634 53.0439C61.631 52.5101 61.2688 51.8304 61.1229 51.0907C60.9769 50.351 61.0537 49.5846 61.3435 48.8885C61.6333 48.1925 62.1231 47.5981 62.7509 47.1806C63.3787 46.763 64.1163 46.5411 64.8702 46.543C65.8791 46.5455 66.8458 46.948 67.5584 47.6622C68.2709 48.3765 68.671 49.3442 68.671 50.3531Z" fill="#236FE0"/>
<path d="M28.1992 68.9365C28.1992 69.6882 27.9763 70.4231 27.5587 71.0481C27.141 71.6732 26.5474 72.1603 25.8529 72.448C25.1584 72.7357 24.3942 72.8109 23.6569 72.6643C22.9197 72.5176 22.2424 72.1556 21.7109 71.6241C21.1793 71.0925 20.8173 70.4153 20.6707 69.678C20.524 68.9407 20.5993 68.1765 20.887 67.482C21.1746 66.7875 21.6618 66.1939 22.2868 65.7763C22.9119 65.3587 23.6467 65.1357 24.3984 65.1357C25.4065 65.1357 26.3732 65.5362 27.086 66.249C27.7988 66.9618 28.1992 67.9285 28.1992 68.9365Z" fill="#236FE0"/>
<path d="M27.2656 50.3531C27.2638 51.1044 27.0393 51.8383 26.6205 52.4621C26.2018 53.0859 25.6075 53.5716 24.9129 53.8579C24.2182 54.1441 23.4543 54.2181 22.7176 54.0704C21.981 53.9226 21.3046 53.5599 20.774 53.028C20.2434 52.4961 19.8823 51.8188 19.7364 51.0818C19.5905 50.3448 19.6663 49.5811 19.9543 48.8871C20.2422 48.1931 20.7294 47.6001 21.3542 47.1829C21.979 46.7656 22.7135 46.543 23.4648 46.543C23.9647 46.543 24.4597 46.6416 24.9215 46.8332C25.3832 47.0248 25.8026 47.3056 26.1557 47.6595C26.5088 48.0134 26.7885 48.4335 26.979 48.8957C27.1694 49.3579 27.2668 49.8532 27.2656 50.3531Z" fill="#236FE0"/>
<path d="M68.6716 46.6924H20.1113V48.5601H68.6716V46.6924Z" fill="#236FE0"/>
<path d="M68.6716 70.9727H20.1113V72.8404H68.6716V70.9727Z" fill="#236FE0"/>
<path d="M21.979 46.6924H20.1113V71.9064H21.979V46.6924Z" fill="#236FE0"/>
<path d="M68.6727 46.6924H65.8711V71.9064H68.6727V46.6924Z" fill="#236FE0"/>
<path d="M68.6716 40.1553H20.1113V67.237H68.6716V40.1553Z" fill="white"/>
<path d="M50.0769 53.781C50.0769 59.1413 47.0512 63.493 43.3158 63.493C39.5804 63.493 36.5547 59.1413 36.5547 53.781C36.5547 48.4207 39.5804 44.0596 43.3158 44.0596C47.0512 44.0596 50.0769 48.4113 50.0769 53.781Z" fill="#236FE0"/>
<path d="M68.671 63.0723C68.6729 63.8266 68.4507 64.5646 68.0328 65.1926C67.6148 65.8206 67.0199 66.3104 66.3233 66.5999C65.6267 66.8894 64.8598 66.9657 64.1199 66.819C63.3799 66.6722 62.7002 66.3092 62.1667 65.7758C61.6333 65.2423 61.2703 64.5626 61.1235 63.8226C60.9768 63.0827 61.0531 62.3158 61.3426 61.6192C61.6321 60.9226 62.1219 60.3277 62.7499 59.9097C63.3779 59.4918 64.1159 59.2696 64.8702 59.2715C65.8783 59.2715 66.845 59.6719 67.5578 60.3847C68.2706 61.0975 68.671 62.0642 68.671 63.0723Z" fill="#236FE0"/>
<path d="M68.671 44.4795C68.6729 45.2339 68.4507 45.9718 68.0328 46.5998C67.6148 47.2278 67.0199 47.7176 66.3233 48.0071C65.6267 48.2967 64.8598 48.3729 64.1199 48.2262C63.3799 48.0795 62.7002 47.7164 62.1667 47.183C61.6333 46.6496 61.2703 45.9698 61.1235 45.2299C60.9768 44.4899 61.0531 43.723 61.3426 43.0265C61.6321 42.3299 62.1219 41.7349 62.7499 41.3169C63.3779 40.899 64.1159 40.6769 64.8702 40.6787C65.8775 40.6812 66.8428 41.0824 67.5551 41.7947C68.2673 42.5069 68.6685 43.4722 68.671 44.4795Z" fill="#236FE0"/>
<path d="M28.1973 63.0723C28.1973 63.824 27.9743 64.5588 27.5567 65.1839C27.1391 65.8089 26.5455 66.296 25.851 66.5837C25.1565 66.8714 24.3923 66.9467 23.655 66.8C22.9177 66.6534 22.2405 66.2914 21.7089 65.7598C21.1774 65.2283 20.8154 64.551 20.6687 63.8138C20.5221 63.0765 20.5974 62.3123 20.885 61.6178C21.1727 60.9233 21.6598 60.3297 22.2849 59.912C22.9099 59.4944 23.6448 59.2715 24.3965 59.2715C25.4045 59.2715 26.3713 59.6719 27.084 60.3847C27.7968 61.0975 28.1973 62.0642 28.1973 63.0723Z" fill="#236FE0"/>
<path d="M27.2656 44.4795C27.2656 45.2312 27.0427 45.9661 26.6251 46.5911C26.2074 47.2161 25.6138 47.7033 24.9193 47.9909C24.2248 48.2786 23.4606 48.3539 22.7233 48.2072C21.9861 48.0606 21.3088 47.6986 20.7773 47.167C20.2457 46.6355 19.8837 45.9583 19.7371 45.221C19.5904 44.4837 19.6657 43.7195 19.9534 43.025C20.2411 42.3305 20.7282 41.7369 21.3532 41.3193C21.9783 40.9016 22.7131 40.6787 23.4648 40.6787C24.4721 40.6812 25.4374 41.0824 26.1497 41.7947C26.8619 42.5069 27.2632 43.4722 27.2656 44.4795Z" fill="#236FE0"/>
<path d="M68.6716 40.1553H20.1113V42.9568H68.6716V40.1553Z" fill="#236FE0"/>
<path d="M68.6716 64.4355H20.1113V67.2371H68.6716V64.4355Z" fill="#236FE0"/>
<path d="M21.979 40.1553H20.1113V65.3693H21.979V40.1553Z" fill="#236FE0"/>
<path d="M68.6727 40.1553H65.8711V65.3693H68.6727V40.1553Z" fill="#236FE0"/>
<path d="M68.6716 34.5527H20.1113V61.6344H68.6716V34.5527Z" fill="white"/>
<path d="M50.0769 47.9157C50.0769 53.276 47.0512 57.6278 43.3158 57.6278C39.5804 57.6278 36.5547 53.276 36.5547 47.9157C36.5547 42.5554 39.5804 38.1943 43.3158 38.1943C47.0512 38.1943 50.0769 42.5461 50.0769 47.9157Z" fill="#236FE0"/>
<path d="M68.671 57.208C68.6729 57.9624 68.4507 58.7003 68.0328 59.3283C67.6148 59.9563 67.0199 60.4461 66.3233 60.7356C65.6267 61.0252 64.8598 61.1014 64.1199 60.9547C63.3799 60.808 62.7002 60.4449 62.1667 59.9115C61.6333 59.3781 61.2703 58.6983 61.1235 57.9584C60.9768 57.2184 61.0531 56.4516 61.3426 55.755C61.6321 55.0584 62.1219 54.4634 62.7499 54.0455C63.3779 53.6275 64.1159 53.4054 64.8702 53.4072C65.8783 53.4072 66.845 53.8077 67.5578 54.5205C68.2706 55.2332 68.671 56.2 68.671 57.208Z" fill="#236FE0"/>
<path d="M68.671 38.6152C68.6729 39.3696 68.4507 40.1075 68.0328 40.7355C67.6148 41.3635 67.0199 41.8533 66.3233 42.1429C65.6267 42.4324 64.8598 42.5086 64.1199 42.3619C63.3799 42.2152 62.7002 41.8521 62.1667 41.3187C61.6333 40.7853 61.2703 40.1056 61.1235 39.3656C60.9768 38.6256 61.0531 37.8588 61.3426 37.1622C61.6321 36.4656 62.1219 35.8706 62.7499 35.4527C63.3779 35.0347 64.1159 34.8126 64.8702 34.8145C65.8783 34.8145 66.845 35.2149 67.5578 35.9277C68.2706 36.6405 68.671 37.6072 68.671 38.6152Z" fill="#236FE0"/>
<path d="M28.1973 57.208C28.1973 57.9597 27.9743 58.6946 27.5567 59.3196C27.1391 59.9446 26.5455 60.4318 25.851 60.7195C25.1565 61.0071 24.3923 61.0824 23.655 60.9358C22.9177 60.7891 22.2405 60.4271 21.7089 59.8956C21.1774 59.364 20.8154 58.6868 20.6687 57.9495C20.5221 57.2122 20.5974 56.448 20.885 55.7535C21.1727 55.059 21.6598 54.4654 22.2849 54.0478C22.9099 53.6301 23.6448 53.4072 24.3965 53.4072C25.4045 53.4072 26.3713 53.8077 27.084 54.5205C27.7968 55.2332 28.1973 56.2 28.1973 57.208Z" fill="#236FE0"/>
<path d="M28.1992 38.6152C28.1992 39.367 27.9763 40.1018 27.5587 40.7268C27.141 41.3519 26.5474 41.839 25.8529 42.1267C25.1584 42.4144 24.3942 42.4896 23.6569 42.343C22.9197 42.1963 22.2424 41.8343 21.7109 41.3028C21.1793 40.7712 20.8173 40.094 20.6707 39.3567C20.524 38.6194 20.5993 37.8552 20.887 37.1607C21.1746 36.4662 21.6618 35.8726 22.2868 35.455C22.9119 35.0374 23.6467 34.8145 24.3984 34.8145C25.4065 34.8145 26.3732 35.2149 27.086 35.9277C27.7988 36.6405 28.1992 37.6072 28.1992 38.6152Z" fill="#236FE0"/>
<path d="M68.6716 34.5527H20.1113V37.3543H68.6716V34.5527Z" fill="#236FE0"/>
<path d="M68.6716 58.833H20.1113V61.6346H68.6716V58.833Z" fill="#236FE0"/>
<path d="M21.979 34.5527H20.1113V59.7667H21.979V34.5527Z" fill="#236FE0"/>
<path d="M68.6727 34.5527H65.8711V59.7667H68.6727V34.5527Z" fill="#236FE0"/>
</g>
<defs>
<clipPath id="clip0_302_912">
<rect width="120" height="120" fill="white" transform="translate(0.5)"/>
</clipPath>
</defs>
</svg>
