<svg width="220" height="220" viewBox="0 0 220 220" fill="none" xmlns="http://www.w3.org/2000/svg">
<g filter="url(#filter0_d_713_1038)">
<path d="M170.002 106.001C170.002 139.139 143.141 166 110.002 166C76.8641 166 49.998 139.139 49.998 106.001C49.998 72.8623 76.8641 46 110.002 46C143.141 46 170.002 72.8623 170.002 106.001Z" fill="#38516B"/>
<path d="M89.7969 117.136C89.7969 117.136 105.625 109.855 122.105 117.136L121.162 118.623C120.69 119.368 120.036 119.982 119.263 120.407C118.49 120.833 117.622 121.056 116.74 121.056H106.803C106.803 121.056 101.783 122.887 107.694 122.887H123.803C123.803 122.887 135.837 114.288 141.855 118.39L122.891 132.048L89.7969 134.795V117.136Z" fill="#FFBDE0"/>
<path d="M146.437 108.284H75.1074V111.424H146.437V108.284Z" fill="white"/>
<path d="M114.149 72.7064C114.149 73.3447 113.96 73.9687 113.605 74.4995C113.251 75.0303 112.746 75.444 112.157 75.6884C111.567 75.9327 110.918 75.9967 110.292 75.8723C109.666 75.7478 109.091 75.4405 108.639 74.9892C108.188 74.5379 107.88 73.9629 107.756 73.3368C107.631 72.7108 107.695 72.0618 107.939 71.472C108.183 70.8821 108.596 70.3779 109.127 70.0231C109.658 69.6683 110.282 69.4788 110.92 69.4785C111.776 69.4785 112.597 69.8186 113.203 70.4239C113.808 71.0292 114.149 71.8502 114.149 72.7064Z" fill="white"/>
<path d="M110.77 75.8457C75.9759 75.8457 81.2074 108.284 81.2074 108.284H140.684C140.684 108.284 145.562 75.8457 110.77 75.8457Z" fill="#F2F2F2"/>
<path d="M89.9294 104.535H84.1738C84.1738 79.8138 103.925 77.4595 110.925 77.4595C92.2837 77.4595 89.9294 104.535 89.9294 104.535Z" fill="white"/>
<path d="M73.5645 142.521V116.09H90.3058V138.634L73.5645 142.521Z" fill="white"/>
<path d="M140.681 108.284C140.681 108.284 145.564 75.8459 110.771 75.8459V108.284H140.681Z" fill="white"/>
</g>
<defs>
<filter id="filter0_d_713_1038" x="-0.00195312" y="0" width="220.004" height="220" filterUnits="userSpaceOnUse" color-interpolation-filters="sRGB">
<feFlood flood-opacity="0" result="BackgroundImageFix"/>
<feColorMatrix in="SourceAlpha" type="matrix" values="0 0 0 0 0 0 0 0 0 0 0 0 0 0 0 0 0 0 127 0" result="hardAlpha"/>
<feOffset dy="4"/>
<feGaussianBlur stdDeviation="25"/>
<feComposite in2="hardAlpha" operator="out"/>
<feColorMatrix type="matrix" values="0 0 0 0 0.219608 0 0 0 0 0.317647 0 0 0 0 0.419608 0 0 0 0.15 0"/>
<feBlend mode="normal" in2="BackgroundImageFix" result="effect1_dropShadow_713_1038"/>
<feBlend mode="normal" in="SourceGraphic" in2="effect1_dropShadow_713_1038" result="shape"/>
</filter>
</defs>
</svg>
