<svg width="220" height="220" viewBox="0 0 220 220" fill="none" xmlns="http://www.w3.org/2000/svg">
<g filter="url(#filter0_d_713_933)">
<path d="M169.996 105.997C169.996 139.14 143.135 166 109.998 166C76.8612 166 50 139.14 50 105.997C50 72.8538 76.86 46 109.998 46C143.136 46 169.996 72.8649 169.996 105.997Z" fill="#38516B"/>
<path d="M83.9922 70.7588V135.893H133.554C136.169 141.613 138.525 143.66 138.525 143.66C137.727 137.287 144.141 135.893 144.141 135.893V70.7588H83.9922Z" fill="#AFB2B5"/>
<path d="M138.527 78.5273H78.373V143.66H138.527V78.5273Z" fill="white"/>
<path d="M93.9255 88.4845C93.9257 88.8153 93.8279 89.1388 93.6443 89.414C93.4607 89.6892 93.1996 89.9038 92.894 90.0306C92.5885 90.1574 92.2522 90.1908 91.9277 90.1265C91.6031 90.0622 91.305 89.9031 91.0709 89.6694C90.8368 89.4356 90.6772 89.1377 90.6125 88.8132C90.5477 88.4888 90.5806 88.1525 90.7069 87.8467C90.8333 87.541 91.0475 87.2796 91.3224 87.0956C91.5974 86.9116 91.9207 86.8132 92.2515 86.813C92.4713 86.8127 92.6889 86.8557 92.892 86.9395C93.095 87.0234 93.2796 87.1464 93.4351 87.3017C93.5905 87.4569 93.7139 87.6413 93.798 87.8442C93.8822 88.0472 93.9255 88.2647 93.9255 88.4845Z" fill="#38516B"/>
<path d="M124.674 88.4845C124.674 88.8153 124.576 89.1389 124.392 89.4141C124.209 89.6893 123.947 89.9039 123.642 90.0307C123.336 90.1575 123 90.1908 122.675 90.1264C122.351 90.062 122.053 89.9028 121.818 89.6689C121.584 89.435 121.425 89.137 121.36 88.8125C121.296 88.488 121.329 88.1516 121.455 87.8459C121.582 87.5401 121.796 87.2788 122.071 87.095C122.347 86.9111 122.67 86.813 123.001 86.813C123.444 86.813 123.87 86.989 124.183 87.3025C124.497 87.6159 124.673 88.041 124.674 88.4845Z" fill="#38516B"/>
<path d="M78.373 78.5273H87.6869V74.7705C87.3065 76.1087 84.9871 77.515 78.373 78.5273Z" fill="#38516B"/>
<path d="M133.262 70.7588H84.1504C84.1504 70.7588 88.2851 72.683 87.6866 74.7708V78.5276H133.262V75.1016H133.287C133.24 73.7387 135.752 72.1639 144.509 70.7588H133.262Z" fill="#F2F2F2"/>
<path d="M133.283 75.1011H133.264V78.527H138.533C138.533 78.527 133.35 77.0253 133.283 75.1011Z" fill="#38516B"/>
<path d="M121.892 89.5078V99.0683C121.892 104.741 115.488 109.352 107.62 109.352C99.7526 109.352 93.3492 104.737 93.3492 99.0683V89.5078H91.2168V99.0683C91.2168 105.918 98.5755 111.488 107.62 111.488C116.665 111.488 124.024 105.913 124.024 99.0683V89.5078H121.892Z" fill="#F2F2F2"/>
<path d="M121.892 88.4404V98.0021C121.892 103.674 115.488 108.286 107.62 108.286C99.7526 108.286 93.3492 103.672 93.3492 98.0021V88.4404H91.2168V98.0021C91.2168 104.85 98.5755 110.422 107.62 110.422C116.665 110.422 124.024 104.854 124.024 98.0021V88.4404H121.892Z" fill="#FFBDE0"/>
</g>
<defs>
<filter id="filter0_d_713_933" x="0" y="0" width="219.996" height="220" filterUnits="userSpaceOnUse" color-interpolation-filters="sRGB">
<feFlood flood-opacity="0" result="BackgroundImageFix"/>
<feColorMatrix in="SourceAlpha" type="matrix" values="0 0 0 0 0 0 0 0 0 0 0 0 0 0 0 0 0 0 127 0" result="hardAlpha"/>
<feOffset dy="4"/>
<feGaussianBlur stdDeviation="25"/>
<feComposite in2="hardAlpha" operator="out"/>
<feColorMatrix type="matrix" values="0 0 0 0 0.219608 0 0 0 0 0.317647 0 0 0 0 0.419608 0 0 0 0.15 0"/>
<feBlend mode="normal" in2="BackgroundImageFix" result="effect1_dropShadow_713_933"/>
<feBlend mode="normal" in="SourceGraphic" in2="effect1_dropShadow_713_933" result="shape"/>
</filter>
</defs>
</svg>
