<svg width="120" height="121" viewBox="0 0 120 121" fill="none" xmlns="http://www.w3.org/2000/svg">
<g clip-path="url(#clip0_942_755)">
<path d="M60 120.5C93.1371 120.5 120 93.6371 120 60.5C120 27.3629 93.1371 0.5 60 0.5C26.8629 0.5 0 27.3629 0 60.5C0 93.6371 26.8629 120.5 60 120.5Z" fill="#710FAA"/>
<g clip-path="url(#clip1_942_755)">
<rect width="54" height="63" transform="translate(32 30)" fill="#710FAA"/>
<path d="M85.583 30H32.4169C32.1867 30 32 30.1877 32 30.4192V92.5808C32 92.8123 32.1867 93 32.4169 93H85.583C85.8133 93 86 92.8123 86 92.5808V30.4192C86 30.1877 85.8133 30 85.583 30Z" fill="white"/>
<path opacity="0.4" d="M45.2956 57.7965C45.2956 59.3015 44.0822 60.5214 42.5852 60.5214H39.2857C37.7888 60.5214 36.5754 59.3015 36.5754 57.7965C36.5754 56.2915 37.7888 55.0715 39.2857 55.0715H42.5852C44.0822 55.0715 45.2956 56.2915 45.2956 57.7965Z" fill="#710FAA"/>
<path d="M51.4216 80.0215C51.4216 82.5948 49.3093 84.6807 46.7032 84.6807H40.9593C38.3533 84.6807 36.2409 82.5948 36.2409 80.0215C36.2409 77.4482 38.3533 75.3623 40.9593 75.3623H46.7032C49.3093 75.3623 51.4216 77.4482 51.4216 80.0215Z" fill="#AF71D2"/>
<path d="M69.1325 80.0215C69.1325 82.5948 67.0201 84.6807 64.4141 84.6807H58.6702C56.0642 84.6807 53.9518 82.5948 53.9518 80.0215C53.9518 77.4482 56.0642 75.3623 58.6702 75.3623H64.4141C67.0201 75.3623 69.1325 77.4482 69.1325 80.0215Z" fill="#AF71D2"/>
<path d="M77.1446 84.6807C74.5827 84.6807 72.506 82.5589 72.506 79.9413L72.506 57.9962C72.506 55.3786 74.5827 53.2568 77.1446 53.2568C79.7065 53.2568 81.7831 55.3786 81.7831 57.9962L81.7831 79.9413C81.7831 82.5589 79.7065 84.6807 77.1446 84.6807Z" fill="#AF71D2"/>
<path d="M51.4216 69.0088C51.4216 71.5821 49.3093 73.668 46.7032 73.668H40.9593C38.3533 73.668 36.2409 71.5821 36.2409 69.0088C36.2409 66.4355 38.3533 64.3496 40.9593 64.3496H46.7032C49.3093 64.3496 51.4216 66.4355 51.4216 69.0088Z" fill="#AF71D2"/>
<path d="M69.1325 69.0088C69.1325 71.5821 67.0201 73.668 64.4141 73.668H58.6702C56.0642 73.668 53.9518 71.5821 53.9518 69.0088C53.9518 66.4355 56.0642 64.3496 58.6702 64.3496H64.4141C67.0201 64.3496 69.1325 66.4355 69.1325 69.0088Z" fill="#AF71D2"/>
<path d="M51.4216 57.9963C51.4216 60.5696 49.3093 62.6555 46.7032 62.6555H40.9593C38.3533 62.6555 36.2409 60.5696 36.2409 57.9963C36.2409 55.423 38.3533 53.3372 40.9593 53.3372H46.7032C49.3093 53.3372 51.4216 55.423 51.4216 57.9963Z" fill="#AF71D2"/>
<path d="M69.1325 57.9963C69.1325 60.5696 67.0201 62.6555 64.4141 62.6555H58.6702C56.0642 62.6555 53.9518 60.5696 53.9518 57.9963C53.9518 55.423 56.0642 53.3372 58.6702 53.3372H64.4141C67.0201 53.3372 69.1325 55.423 69.1325 57.9963Z" fill="#AF71D2"/>
<path d="M81.6589 36.0159H36.3416C35.9976 36.0159 35.7186 36.2963 35.7186 36.6422V49.8078C35.7186 50.1537 35.9976 50.4342 36.3416 50.4342H81.6589C82.0029 50.4342 82.2818 50.1537 82.2818 49.8078V36.6422C82.2818 36.2963 82.0029 36.0159 81.6589 36.0159Z" fill="#710FAA"/>
</g>
</g>
<defs>
<clipPath id="clip0_942_755">
<rect width="120" height="120" fill="white" transform="translate(0 0.5)"/>
</clipPath>
<clipPath id="clip1_942_755">
<rect width="54" height="63" fill="white" transform="translate(32 30)"/>
</clipPath>
</defs>
</svg>
