<svg width="458" height="458" viewBox="0 0 458 458" fill="none" xmlns="http://www.w3.org/2000/svg">
<g filter="url(#filter0_d_243_204)">
<circle cx="228.804" cy="228.804" r="210.804" fill="white"/>
</g>
<g clip-path="url(#clip0_243_204)">
<path style="mix-blend-mode:multiply" d="M270.945 318.028C270.945 320.94 219.144 323.306 155.252 323.306C91.3592 323.306 39.5586 320.929 39.5586 318.028C39.5586 315.128 91.3592 312.762 155.252 312.762C219.144 312.762 270.945 315.117 270.945 318.028Z" fill="url(#paint0_radial_243_204)"/>
<path d="M102.447 129.266H355.809C358.178 129.266 360.449 130.204 362.125 131.875C363.8 133.546 364.741 135.812 364.741 138.174V307.288H93.5039V138.174C93.5039 137.004 93.7353 135.844 94.1849 134.763C94.6345 133.681 95.2934 132.698 96.124 131.871C96.9546 131.044 97.9405 130.388 99.0255 129.941C100.11 129.494 101.273 129.264 102.447 129.266Z" fill="#38516B"/>
<path d="M353.39 139.952H104.861C104.136 139.952 103.549 140.537 103.549 141.26V296.034C103.549 296.757 104.136 297.343 104.861 297.343H353.39C354.114 297.343 354.702 296.757 354.702 296.034V141.26C354.702 140.537 354.114 139.952 353.39 139.952Z" fill="white" stroke="#666666" stroke-width="0.46" stroke-miterlimit="10"/>
<path d="M220.937 139.952H104.456C103.955 139.952 103.549 140.357 103.549 140.857V296.438C103.549 296.938 103.955 297.343 104.456 297.343H220.937C221.438 297.343 221.844 296.938 221.844 296.438V140.857C221.844 140.357 221.438 139.952 220.937 139.952Z" fill="#236FE0"/>
<path d="M62.6834 307.288H395.572C395.669 307.288 395.766 307.307 395.856 307.344C395.946 307.381 396.028 307.436 396.097 307.505C396.166 307.574 396.221 307.655 396.258 307.745C396.296 307.835 396.315 307.932 396.315 308.029V313.296H61.929V308.073C61.923 307.971 61.9381 307.869 61.9735 307.773C62.0088 307.677 62.0636 307.59 62.1344 307.516C62.2052 307.442 62.2906 307.384 62.385 307.345C62.4795 307.305 62.5811 307.286 62.6834 307.288Z" fill="#E7E7E7"/>
<path d="M62.6821 307.288H395.57C395.668 307.288 395.765 307.307 395.855 307.344C395.945 307.381 396.027 307.436 396.096 307.505C396.165 307.574 396.22 307.655 396.257 307.745C396.294 307.835 396.314 307.932 396.314 308.029V312.751H61.9277V308.029C61.9277 307.931 61.9473 307.834 61.9854 307.743C62.0234 307.652 62.0791 307.57 62.1493 307.501C62.2195 307.432 62.3028 307.378 62.3943 307.341C62.4857 307.304 62.5836 307.286 62.6821 307.288Z" fill="#38516B"/>
<path d="M379.444 319.228H78.6334C76.9269 319.228 75.2268 319.02 73.5714 318.606C69.4278 317.581 61.9277 315.422 61.9277 313.252H396.314C396.314 315.226 388.945 317.44 384.79 318.541C383.045 318.998 381.248 319.229 379.444 319.228Z" fill="#38516B"/>
<path d="M197.594 184.626H131.122C126.623 184.626 122.977 188.264 122.977 192.75V277.28C122.977 281.766 126.623 285.403 131.122 285.403H197.594C202.093 285.403 205.739 281.766 205.739 277.28V192.75C205.739 188.264 202.093 184.626 197.594 184.626Z" fill="white"/>
<path d="M177.27 251.992H145.969C145.658 251.988 145.358 251.878 145.119 251.679C144.881 251.481 144.717 251.206 144.657 250.902L141.279 235.931C141.237 235.743 141.235 235.549 141.275 235.36C141.314 235.172 141.394 234.995 141.508 234.84C141.624 234.688 141.771 234.562 141.938 234.47C142.106 234.378 142.291 234.322 142.482 234.306L184.847 231.22C185.077 231.203 185.307 231.245 185.516 231.343C185.724 231.44 185.904 231.589 186.039 231.776C186.173 231.961 186.257 232.179 186.282 232.406C186.307 232.634 186.272 232.864 186.181 233.074L178.528 251.175C178.422 251.419 178.247 251.627 178.023 251.773C177.799 251.918 177.537 251.995 177.27 251.992ZM147.041 249.31H176.385L182.857 234.044L144.231 236.857L147.041 249.31Z" fill="#236FE0"/>
<path d="M154.836 261.392C154.838 261.923 154.682 262.443 154.387 262.886C154.093 263.329 153.673 263.674 153.181 263.879C152.689 264.083 152.147 264.137 151.625 264.034C151.102 263.931 150.622 263.675 150.245 263.299C149.868 262.924 149.612 262.445 149.508 261.923C149.405 261.402 149.459 260.862 149.664 260.371C149.869 259.881 150.215 259.462 150.659 259.168C151.103 258.874 151.625 258.718 152.157 258.72C152.868 258.72 153.549 259.002 154.052 259.503C154.554 260.004 154.836 260.683 154.836 261.392Z" fill="#236FE0"/>
<path d="M173.695 261.392C173.698 261.923 173.542 262.442 173.247 262.885C172.953 263.328 172.534 263.673 172.043 263.878C171.551 264.082 171.01 264.137 170.488 264.035C169.966 263.933 169.485 263.678 169.108 263.303C168.731 262.929 168.474 262.451 168.369 261.93C168.264 261.409 168.317 260.869 168.52 260.379C168.723 259.888 169.068 259.468 169.511 259.173C169.953 258.878 170.474 258.72 171.006 258.72C171.359 258.719 171.708 258.787 172.034 258.92C172.361 259.054 172.657 259.251 172.907 259.499C173.157 259.747 173.355 260.042 173.49 260.367C173.626 260.692 173.695 261.04 173.695 261.392Z" fill="#236FE0"/>
<path d="M172.733 257.139H148.593C148.236 257.139 147.894 256.998 147.642 256.746C147.39 256.495 147.248 256.154 147.248 255.798C147.248 255.442 147.39 255.101 147.642 254.85C147.894 254.598 148.236 254.457 148.593 254.457H172.733C173.092 254.458 173.444 254.355 173.747 254.162C174.049 253.969 174.289 253.692 174.438 253.366L184.901 229.508C185.42 228.333 186.269 227.334 187.346 226.631C188.424 225.929 189.682 225.553 190.969 225.55H192.587C192.944 225.55 193.286 225.691 193.538 225.943C193.79 226.194 193.932 226.535 193.932 226.891C193.932 227.247 193.79 227.588 193.538 227.839C193.286 228.091 192.944 228.232 192.587 228.232H190.969C190.203 228.231 189.453 228.453 188.812 228.871C188.171 229.29 187.666 229.887 187.361 230.588L176.855 254.413C176.505 255.216 175.929 255.9 175.198 256.384C174.466 256.868 173.61 257.13 172.733 257.139Z" fill="#236FE0"/>
<path d="M193.92 281.521C192.664 281.521 191.436 281.15 190.391 280.454C189.347 279.757 188.533 278.768 188.052 277.61C187.571 276.453 187.445 275.179 187.69 273.95C187.936 272.721 188.54 271.592 189.429 270.706C190.317 269.82 191.449 269.217 192.681 268.972C193.913 268.728 195.191 268.853 196.351 269.333C197.512 269.812 198.504 270.624 199.202 271.666C199.9 272.708 200.273 273.933 200.273 275.186C200.273 276.866 199.603 278.478 198.412 279.666C197.221 280.854 195.605 281.521 193.92 281.521ZM193.92 270.454C192.979 270.454 192.059 270.732 191.277 271.254C190.495 271.775 189.885 272.517 189.526 273.384C189.166 274.252 189.072 275.206 189.257 276.126C189.441 277.047 189.895 277.892 190.561 278.555C191.228 279.218 192.076 279.669 192.999 279.85C193.923 280.032 194.879 279.937 195.748 279.576C196.617 279.215 197.359 278.606 197.88 277.824C198.401 277.043 198.678 276.125 198.676 275.186C198.673 273.93 198.171 272.726 197.279 271.839C196.388 270.952 195.18 270.454 193.92 270.454Z" fill="#FFBDE0"/>
<path d="M192.949 277.759L190.904 275.72L192.041 274.586L192.949 275.491L195.802 272.645L196.939 273.768L192.949 277.759Z" fill="#FFBDE0"/>
<path d="M172.277 275.197H133.125C132.913 275.197 132.709 275.113 132.557 274.964C132.406 274.815 132.319 274.613 132.316 274.401C132.316 274.187 132.402 273.981 132.553 273.83C132.705 273.679 132.911 273.594 133.125 273.594H172.277C172.382 273.594 172.487 273.615 172.585 273.655C172.682 273.696 172.771 273.756 172.845 273.831C172.919 273.906 172.978 273.995 173.017 274.093C173.057 274.191 173.076 274.295 173.075 274.401C173.075 274.612 172.991 274.814 172.841 274.964C172.691 275.113 172.488 275.197 172.277 275.197Z" fill="#E6E7E8"/>
<path d="M154.456 279.351H133.125C133.02 279.353 132.915 279.333 132.817 279.294C132.719 279.254 132.629 279.196 132.554 279.122C132.479 279.048 132.419 278.96 132.378 278.862C132.337 278.765 132.316 278.661 132.316 278.555C132.319 278.343 132.406 278.141 132.557 277.992C132.709 277.843 132.913 277.759 133.125 277.759H154.456C154.561 277.759 154.664 277.78 154.761 277.82C154.858 277.86 154.946 277.918 155.02 277.992C155.094 278.066 155.153 278.154 155.193 278.251C155.233 278.347 155.254 278.451 155.254 278.555C155.254 278.66 155.233 278.763 155.193 278.86C155.153 278.956 155.094 279.044 155.02 279.118C154.946 279.192 154.858 279.251 154.761 279.291C154.664 279.331 154.561 279.351 154.456 279.351Z" fill="#E6E7E8"/>
<path d="M283.616 285.414H242.737C240.915 285.411 239.169 284.687 237.881 283.401C236.594 282.115 235.871 280.372 235.871 278.555C235.871 276.738 236.594 274.995 237.881 273.709C239.169 272.423 240.915 271.699 242.737 271.696H283.616C285.439 271.696 287.189 272.419 288.478 273.705C289.768 274.991 290.492 276.736 290.492 278.555C290.492 280.374 289.768 282.119 288.478 283.405C287.189 284.691 285.439 285.414 283.616 285.414Z" fill="#236FE0"/>
<path d="M325.48 231.83H237.338C236.962 231.825 236.603 231.676 236.335 231.414C236.066 231.153 235.909 230.798 235.895 230.424C235.893 230.231 235.93 230.04 236.003 229.861C236.076 229.683 236.184 229.52 236.32 229.383C236.456 229.247 236.618 229.138 236.796 229.064C236.975 228.99 237.166 228.952 237.36 228.952H325.501C325.888 228.957 326.257 229.115 326.527 229.391C326.797 229.667 326.948 230.038 326.945 230.424C326.93 230.802 326.77 231.16 326.497 231.422C326.223 231.684 325.859 231.831 325.48 231.83Z" fill="#E6E7E8"/>
<path d="M311.791 223.314H238.136C237.539 223.308 236.969 223.068 236.55 222.645C236.13 222.223 235.895 221.652 235.895 221.057C235.893 220.76 235.951 220.466 236.064 220.192C236.177 219.917 236.344 219.668 236.554 219.458C236.765 219.248 237.015 219.082 237.29 218.969C237.565 218.856 237.86 218.798 238.158 218.8H311.813C312.414 218.8 312.989 219.038 313.414 219.461C313.838 219.884 314.076 220.458 314.076 221.057C314.076 221.355 314.017 221.651 313.902 221.926C313.787 222.201 313.618 222.451 313.406 222.661C313.193 222.871 312.941 223.037 312.664 223.149C312.387 223.261 312.091 223.317 311.791 223.314Z" fill="#236FE0"/>
<path d="M325.478 240.03H237.336C236.948 240.03 236.575 239.876 236.3 239.602C236.025 239.328 235.871 238.957 235.871 238.569C235.87 238.376 235.907 238.185 235.98 238.007C236.052 237.828 236.16 237.666 236.296 237.529C236.433 237.392 236.595 237.284 236.773 237.209C236.951 237.135 237.143 237.097 237.336 237.097H325.478C325.671 237.097 325.863 237.135 326.041 237.209C326.22 237.284 326.382 237.392 326.518 237.529C326.654 237.666 326.762 237.828 326.835 238.007C326.908 238.185 326.944 238.376 326.943 238.569C326.943 238.957 326.789 239.328 326.514 239.602C326.239 239.876 325.867 240.03 325.478 240.03Z" fill="#E6E7E8"/>
<path d="M325.48 248.23H237.338C236.955 248.225 236.589 248.07 236.32 247.799C236.05 247.528 235.897 247.162 235.895 246.78C235.895 246.392 236.049 246.021 236.324 245.747C236.598 245.473 236.971 245.319 237.36 245.319H325.501C325.89 245.319 326.263 245.473 326.537 245.747C326.812 246.021 326.966 246.392 326.966 246.78C326.965 246.973 326.925 247.163 326.85 247.341C326.774 247.518 326.664 247.679 326.526 247.814C326.388 247.949 326.224 248.055 326.044 248.126C325.865 248.198 325.673 248.233 325.48 248.23Z" fill="#E6E7E8"/>
<path d="M295.337 256.43H237.338C236.952 256.422 236.585 256.263 236.315 255.988C236.045 255.713 235.894 255.343 235.895 254.958C235.895 254.571 236.049 254.199 236.324 253.925C236.598 253.651 236.971 253.497 237.36 253.497H295.359C295.552 253.496 295.744 253.532 295.923 253.605C296.102 253.678 296.265 253.785 296.402 253.921C296.539 254.057 296.648 254.219 296.723 254.397C296.797 254.575 296.835 254.765 296.835 254.958C296.835 255.153 296.796 255.347 296.721 255.527C296.645 255.707 296.534 255.87 296.395 256.007C296.256 256.144 296.09 256.252 295.909 256.325C295.727 256.397 295.533 256.433 295.337 256.43Z" fill="#E6E7E8"/>
<path d="M343.761 260.541C343.761 261.165 343.575 261.774 343.228 262.292C342.881 262.81 342.388 263.214 341.81 263.453C341.233 263.691 340.598 263.754 339.985 263.632C339.372 263.511 338.809 263.21 338.367 262.77C337.925 262.329 337.624 261.768 337.502 261.156C337.38 260.545 337.443 259.911 337.682 259.335C337.921 258.76 338.326 258.268 338.846 257.921C339.365 257.575 339.976 257.39 340.601 257.39C341.439 257.39 342.243 257.722 342.835 258.313C343.428 258.904 343.761 259.706 343.761 260.541Z" fill="white"/>
<path d="M343.761 271.86C343.761 272.483 343.575 273.092 343.228 273.611C342.881 274.129 342.388 274.533 341.81 274.771C341.233 275.01 340.598 275.072 339.985 274.951C339.372 274.829 338.809 274.529 338.367 274.088C337.925 273.647 337.624 273.086 337.502 272.475C337.38 271.863 337.443 271.23 337.682 270.654C337.921 270.078 338.326 269.586 338.846 269.24C339.365 268.893 339.976 268.709 340.601 268.709C341.016 268.707 341.428 268.788 341.812 268.945C342.196 269.103 342.545 269.335 342.838 269.628C343.132 269.921 343.365 270.269 343.523 270.652C343.681 271.035 343.762 271.446 343.761 271.86Z" fill="white"/>
<path d="M343.761 283.255C343.761 283.878 343.575 284.487 343.228 285.006C342.881 285.524 342.388 285.928 341.81 286.166C341.233 286.405 340.598 286.467 339.985 286.346C339.372 286.224 338.809 285.924 338.367 285.483C337.925 285.042 337.624 284.481 337.502 283.87C337.38 283.258 337.443 282.625 337.682 282.049C337.921 281.473 338.326 280.981 338.846 280.635C339.365 280.288 339.976 280.104 340.601 280.104C341.439 280.104 342.243 280.436 342.835 281.027C343.428 281.618 343.761 282.419 343.761 283.255Z" fill="#FFBDE0"/>
<path d="M103.715 174.442H61.918L103.551 139.112H134.94L103.715 174.442Z" fill="#236FE0"/>
<path d="M145.523 174.442H103.715L134.94 139.112H166.328L145.523 174.442Z" fill="#FFBDE0"/>
<path d="M187.316 174.442H145.52L166.325 139.112H197.725L187.316 174.442Z" fill="#236FE0"/>
<path d="M229.113 174.442H187.316L197.725 139.112H229.113V174.442Z" fill="#FFBDE0"/>
<path d="M270.91 174.442H229.113V139.112H260.513L270.91 174.442Z" fill="#236FE0"/>
<path d="M312.719 174.442H270.911L260.514 139.112H291.902L312.719 174.442Z" fill="#FFBDE0"/>
<path d="M354.518 174.442H312.721L291.904 139.112H323.293L354.518 174.442Z" fill="#236FE0"/>
<path d="M396.315 174.442H354.518L323.293 139.112H354.693L396.315 174.442Z" fill="#FFBDE0"/>
<path d="M82.6797 222.191C77.1298 222.191 71.8073 219.993 67.8829 216.079C63.9586 212.165 61.7539 206.856 61.7539 201.321V174.442H103.605V201.321C103.605 204.062 103.064 206.775 102.013 209.308C100.961 211.84 99.4196 214.141 97.4764 216.079C95.5333 218.017 93.2265 219.554 90.6876 220.603C88.1488 221.652 85.4277 222.191 82.6797 222.191Z" fill="#236FE0"/>
<path d="M124.518 222.191C118.97 222.189 113.651 219.988 109.729 216.075C105.807 212.161 103.604 206.854 103.604 201.321V174.442H145.433V201.321C145.435 204.061 144.895 206.775 143.844 209.307C142.794 211.839 141.254 214.14 139.311 216.078C137.369 218.016 135.063 219.554 132.525 220.603C129.986 221.651 127.266 222.191 124.518 222.191Z" fill="#FFBDE0"/>
<path d="M166.359 222.191C160.81 222.191 155.487 219.993 151.563 216.079C147.638 212.165 145.434 206.856 145.434 201.321V174.442H187.285V201.321C187.285 204.062 186.744 206.775 185.692 209.308C184.641 211.84 183.099 214.141 181.156 216.079C179.213 218.017 176.906 219.554 174.367 220.603C171.828 221.652 169.107 222.191 166.359 222.191Z" fill="#236FE0"/>
<path d="M208.2 222.191C205.453 222.191 202.732 221.651 200.194 220.603C197.655 219.554 195.349 218.016 193.407 216.078C191.465 214.14 189.925 211.839 188.874 209.307C187.824 206.775 187.284 204.061 187.285 201.321V174.442H229.126V201.321C229.126 204.062 228.585 206.775 227.533 209.308C226.481 211.84 224.94 214.141 222.997 216.079C221.054 218.017 218.747 219.554 216.208 220.603C213.669 221.652 210.948 222.191 208.2 222.191Z" fill="#FFBDE0"/>
<path d="M250.04 222.191C244.492 222.189 239.172 219.988 235.25 216.075C231.328 212.161 229.125 206.854 229.125 201.321V174.442H270.966V201.321C270.966 204.062 270.424 206.775 269.373 209.308C268.321 211.84 266.78 214.141 264.837 216.079C262.893 218.017 260.587 219.554 258.048 220.603C255.509 221.652 252.788 222.191 250.04 222.191Z" fill="#236FE0"/>
<path d="M270.966 174.442H312.807V201.321C312.807 204.062 312.265 206.775 311.214 209.308C310.162 211.84 308.621 214.141 306.678 216.079C304.734 218.017 302.428 219.554 299.889 220.603C297.35 221.652 294.629 222.191 291.881 222.191C286.331 222.191 281.008 219.993 277.084 216.079C273.16 212.165 270.955 206.856 270.955 201.321V174.442H270.966Z" fill="#FFBDE0"/>
<path d="M312.806 174.442H354.646V201.321C354.646 204.062 354.105 206.775 353.054 209.308C352.002 211.84 350.461 214.141 348.517 216.079C346.574 218.017 344.267 219.554 341.729 220.603C339.19 221.652 336.469 222.191 333.721 222.191C328.171 222.191 322.848 219.993 318.924 216.079C315 212.165 312.795 206.856 312.795 201.321V174.442H312.806Z" fill="#236FE0"/>
<path d="M354.648 174.442H396.5V201.321C396.5 204.062 395.959 206.775 394.907 209.308C393.855 211.84 392.314 214.141 390.371 216.079C388.428 218.017 386.121 219.554 383.582 220.603C381.043 221.652 378.322 222.191 375.574 222.191C370.024 222.191 364.702 219.993 360.777 216.079C356.853 212.165 354.648 206.856 354.648 201.321V174.442Z" fill="#FFBDE0"/>
</g>
<defs>
<filter id="filter0_d_243_204" x="0" y="0" width="457.609" height="457.608" filterUnits="userSpaceOnUse" color-interpolation-filters="sRGB">
<feFlood flood-opacity="0" result="BackgroundImageFix"/>
<feColorMatrix in="SourceAlpha" type="matrix" values="0 0 0 0 0 0 0 0 0 0 0 0 0 0 0 0 0 0 127 0" result="hardAlpha"/>
<feOffset/>
<feGaussianBlur stdDeviation="9"/>
<feComposite in2="hardAlpha" operator="out"/>
<feColorMatrix type="matrix" values="0 0 0 0 0 0 0 0 0 0 0 0 0 0 0 0 0 0 0.08 0"/>
<feBlend mode="normal" in2="BackgroundImageFix" result="effect1_dropShadow_243_204"/>
<feBlend mode="normal" in="SourceGraphic" in2="effect1_dropShadow_243_204" result="shape"/>
</filter>
<radialGradient id="paint0_radial_243_204" cx="0" cy="0" r="1" gradientUnits="userSpaceOnUse" gradientTransform="translate(155.259 317.643) scale(115.427 5.37959)">
<stop stop-color="#A3777B"/>
<stop offset="0.02" stop-color="#A67B7F"/>
<stop offset="0.36" stop-color="#CCB4B6"/>
<stop offset="0.64" stop-color="#E8DDDE"/>
<stop offset="0.86" stop-color="#F9F6F6"/>
<stop offset="1" stop-color="white"/>
</radialGradient>
<clipPath id="clip0_243_204">
<rect width="383.191" height="200.954" fill="white" transform="translate(39.0996 129.015)"/>
</clipPath>
</defs>
</svg>
