<svg xmlns="http://www.w3.org/2000/svg" width="104" height="96" viewBox="0 0 104 96" fill="none">
    <path d="M13.0092 33.004C14.0382 30.0465 15.7286 27.3107 18.0071 25.0925C20.506 22.8743 25.7244 20.5822 29.1053 23.244L28.2233 22.2089C23.0049 16.5155 19.33 16.0719 17.0516 16.0719C7.12932 16.1458 0 27.3846 0 42.1725C0.0734982 55.6295 5.51236 68.495 15.1406 77.8113C17.1251 79.6598 18.5215 80.4731 19.624 79.9556C20.8735 79.2901 21.094 77.9592 19.4035 75.5192C14.4056 68.2731 11.0982 57.478 11.0982 46.9786C11.0982 37.2925 12.8622 33.2998 13.0092 33.004Z" fill="white"/>
    <path d="M87.6099 67.8291C84.376 66.2764 80.1131 66.794 77.2467 71.8958C70.7789 83.8 60.0481 89.7891 47.4799 89.7891C40.0566 89.7891 32.7803 87.8667 27.7089 84.1697C26.533 83.3564 25.1365 83.0606 24.475 84.1697C23.6665 85.4267 25.1365 86.9794 26.68 88.3103C32.0453 92.8206 42.1146 96 50.1259 96C59.0192 96 66.1485 94.7431 73.7923 91.4897C79.4517 89.1237 84.523 85.5006 88.6389 80.9164C93.0488 75.6667 92.0933 69.9734 87.6099 67.8291Z" fill="white"/>
    <path d="M43.2904 57.6995C46.5978 57.6995 50.2727 55.9989 53.5802 49.2704C56.0791 44.2425 59.019 37.8837 61.5915 32.4861C64.3109 26.8667 67.2508 21.5431 72.3957 21.5431C76.0706 21.5431 80.0395 24.7225 82.171 31.3771C82.9794 34.1128 83.5674 36.9964 83.8614 39.8801C84.0084 40.9892 84.0084 43.5771 84.0819 44.6862C84.7434 42.9855 85.6254 41.4328 86.6543 40.028C91.2112 33.9649 94.8861 25.0922 93.7102 15.7019C92.6077 8.16006 86.1399 1.57945 75.7766 0.100665C67.5448 -0.786609 57.4756 4.16733 51.3752 15.9237C49.3173 19.8425 46.5978 25.9055 44.9074 29.8243C43.0699 33.9649 41.6735 35.5916 40.0565 35.5916C38.4395 35.5916 37.0431 33.8171 35.3526 31.6728C34.1766 30.1201 32.7067 28.1237 31.5307 26.3492C30.7957 25.2401 29.9872 24.2049 29.1053 23.2437C25.7243 20.508 20.4325 22.874 18.007 25.0922C15.7286 27.3104 14.0381 29.9722 13.0092 33.0037C13.5236 32.2643 14.4056 31.7467 15.2876 31.6728C17.566 31.451 19.477 32.708 21.5349 35.0001C24.5484 38.2534 28.0028 43.7249 30.5017 47.348C33.6621 51.6365 37.8515 57.6995 43.2904 57.6995Z" fill="white"/>
    <path d="M104 37.8838C104 2.61468 75.8501 0.174683 75.8501 0.174683C86.1398 1.57953 92.6077 8.16014 93.5632 15.7759C94.8126 25.2402 91.1377 34.0389 86.5073 40.102C85.4049 41.5068 84.5964 43.0596 83.9349 44.7602C83.1264 46.8305 82.6854 49.1226 82.6854 51.3408C82.6854 56.6644 84.4494 62.8014 91.4317 62.8014C98.3406 62.8014 104 51.045 104 37.8838Z" fill="white"/>
</svg>