<svg width="286" height="196" viewBox="0 0 286 196" fill="none" xmlns="http://www.w3.org/2000/svg">
<path d="M104.009 33.004C105.038 30.0465 106.729 27.3107 109.007 25.0925C111.506 22.8743 116.724 20.5822 120.105 23.244L119.223 22.2089C114.005 16.5155 110.33 16.0719 108.052 16.0719C98.1293 16.1458 91 27.3846 91 42.1725C91.0735 55.6295 96.5124 68.495 106.141 77.8113C108.125 79.6598 109.522 80.4731 110.624 79.9556C111.873 79.2901 112.094 77.9592 110.404 75.5192C105.406 68.2731 102.098 57.478 102.098 46.9786C102.098 37.2925 103.862 33.2998 104.009 33.004Z" fill="white"/>
<path d="M178.61 67.8291C175.376 66.2764 171.113 66.794 168.247 71.8958C161.779 83.8 151.048 89.7891 138.48 89.7891C131.057 89.7891 123.78 87.8667 118.709 84.1697C117.533 83.3564 116.136 83.0606 115.475 84.1697C114.667 85.4267 116.136 86.9794 117.68 88.3103C123.045 92.8206 133.115 96 141.126 96C150.019 96 157.148 94.7431 164.792 91.4897C170.452 89.1237 175.523 85.5006 179.639 80.9164C184.049 75.6667 183.093 69.9734 178.61 67.8291Z" fill="white"/>
<path d="M134.29 57.6995C137.598 57.6995 141.273 55.9989 144.58 49.2704C147.079 44.2425 150.019 37.8837 152.591 32.4861C155.311 26.8667 158.251 21.5431 163.396 21.5431C167.071 21.5431 171.04 24.7225 173.171 31.3771C173.979 34.1128 174.567 36.9964 174.861 39.8801C175.008 40.9892 175.008 43.5771 175.082 44.6862C175.743 42.9855 176.625 41.4328 177.654 40.028C182.211 33.9649 185.886 25.0922 184.71 15.7019C183.608 8.16006 177.14 1.57945 166.777 0.100665C158.545 -0.786609 148.476 4.16733 142.375 15.9237C140.317 19.8425 137.598 25.9055 135.907 29.8243C134.07 33.9649 132.673 35.5916 131.056 35.5916C129.44 35.5916 128.043 33.8171 126.353 31.6728C125.177 30.1201 123.707 28.1237 122.531 26.3492C121.796 25.2401 120.987 24.2049 120.105 23.2437C116.724 20.508 111.432 22.874 109.007 25.0922C106.729 27.3104 105.038 29.9722 104.009 33.0037C104.524 32.2643 105.406 31.7467 106.288 31.6728C108.566 31.451 110.477 32.708 112.535 35.0001C115.548 38.2534 119.003 43.7249 121.502 47.348C124.662 51.6365 128.852 57.6995 134.29 57.6995Z" fill="white"/>
<path d="M195 37.8838C195 2.61468 166.85 0.174683 166.85 0.174683C177.14 1.57953 183.608 8.16014 184.563 15.7759C185.813 25.2402 182.138 34.0389 177.507 40.102C176.405 41.5068 175.596 43.0596 174.935 44.7602C174.126 46.8305 173.685 49.1226 173.685 51.3408C173.685 56.6644 175.449 62.8014 182.432 62.8014C189.341 62.8014 195 51.045 195 37.8838Z" fill="white"/>
<path d="M17.2338 146H1.8073C0.774556 146 0 145.091 0 144.042V116H5.29279V140.825H17.2984V146H17.2338Z" fill="white"/>
<path d="M41.9668 119.106C39.7416 117.037 36.7746 115.934 33.7402 116.003C30.7058 115.934 27.7388 117.037 25.5135 119.106C23.2883 121.175 22.142 124.002 22.142 127.657V146H27.5365V136.346H39.809V146H45.2035V127.657C45.2709 124.002 44.192 121.175 41.9668 119.106ZM27.6039 131.45V128.002C27.4691 126.14 28.0759 124.347 29.2897 122.968C30.5035 121.727 32.1218 121.037 33.875 121.175C35.5608 121.106 37.1792 121.727 38.3255 122.968C39.4718 124.347 40.0787 126.209 40.0113 128.002V131.45H27.6039Z" fill="white"/>
<path d="M98.0793 123.177C99.283 124.679 99.9517 126.59 99.8848 128.57V145.844H105.234V128.024C105.368 124.815 104.231 121.743 102.158 119.421C100.085 117.168 97.2768 116.008 93.8664 116.008C89.921 115.871 86.1094 117.578 83.5683 120.65C82.6321 119.285 81.3615 118.192 79.8904 117.441C77.9511 116.417 75.7444 115.939 73.6045 116.008C70.3278 115.939 67.118 117.032 64.5769 119.148C62.1696 121.265 60.7653 124.406 60.899 127.615V146H66.2487V128.57C66.115 126.59 66.8505 124.61 68.1211 123.108C69.3916 121.811 71.1972 121.128 73.4708 121.128C75.3432 121.06 77.1487 121.811 78.4192 123.177C79.7566 124.61 80.4254 126.59 80.3585 128.57V145.913H85.7082V128.57C85.6413 126.59 86.4437 124.61 87.9149 123.245C89.3192 121.811 91.2585 121.06 93.2646 121.128C95.0701 121.06 96.8088 121.811 98.0793 123.177Z" fill="white"/>
<path d="M133.774 116H128.395V133.998C128.529 135.86 127.924 137.653 126.714 139.032C125.57 140.273 123.889 140.963 122.208 140.894C120.527 140.963 118.913 140.342 117.77 139.101C116.627 137.722 116.022 135.86 116.089 133.998V116H110.71V134.343C110.71 137.998 111.785 140.825 114.005 142.894C116.224 144.963 119.182 146.066 122.208 145.997C125.234 146.066 128.193 144.963 130.412 142.894C132.631 140.825 133.774 137.998 133.774 134.343V116Z" fill="white"/>
<path d="M138.387 121.175H148.077V146H153.536V121.175H163.226V116H138.387V121.175Z" fill="white"/>
<path d="M189.2 116H184.234V133.998C184.358 135.86 183.8 137.653 182.683 139.032C181.627 140.273 180.076 140.963 178.524 140.894C176.972 140.963 175.482 140.342 174.427 139.101C173.372 137.722 172.813 135.86 172.875 133.998V116H167.91V134.343C167.91 137.998 168.903 140.825 170.951 142.894C172.999 144.963 175.731 146.066 178.524 145.997C181.317 146.066 184.048 144.963 186.096 142.894C188.145 140.825 189.2 137.998 189.2 134.343V116Z" fill="white"/>
<path d="M193.742 146H215.032V140.825H199.166V133.203H213.88V128.028H199.166V121.175H215.032V116H193.742V146Z" fill="white"/>
<path d="M237.316 146H221.494C220.435 146 219.64 145.091 219.574 144.042V116H224.936V140.825H237.25L237.316 146Z" fill="white"/>
<path d="M259.392 146H243.57C242.511 146 241.716 145.091 241.716 144.042V116H247.145V140.825H259.458V146H259.392Z" fill="white"/>
<path d="M285.148 121.175V116H263.858V146H285.148V140.825H269.215V133.203H284.064V128.028H269.215V121.175H285.148Z" fill="white"/>
<path d="M80.665 167.801C79.9139 166.812 78.958 165.964 77.8655 165.328C76.1584 164.339 74.2466 163.773 72.2664 163.773C69.262 163.703 66.3942 164.975 64.2775 167.236C59.9075 171.9 59.9075 179.32 64.2775 184.054C66.3259 186.316 69.1938 187.517 72.1981 187.517C75.8853 187.517 78.6849 186.104 80.5967 183.206V184.478C80.665 186.881 79.8456 189.213 78.2752 190.98C76.6364 192.676 74.3148 193.594 71.9933 193.524C70.5594 193.524 69.1938 193.241 67.8964 192.676C66.6673 192.181 65.4383 191.474 64.4141 190.556L64.0044 190.202L62.5022 192.252L62.9119 192.605C65.4383 194.866 68.7158 196.068 71.9933 195.997C75.3391 195.997 78.0703 194.937 80.0505 192.817C82.0989 190.626 83.1914 187.588 83.0549 184.549V164.127H80.5967V167.801H80.665ZM72.3347 184.973C70.0131 184.973 67.8281 184.054 66.1894 182.288C64.4823 180.521 63.5264 178.118 63.5947 175.645C63.5264 173.172 64.4823 170.769 66.1894 169.073C67.7598 167.306 70.0131 166.317 72.3347 166.317C74.588 166.247 76.773 167.165 78.4117 168.861C80.0505 170.698 80.8699 173.172 80.7333 175.645C80.8016 178.118 79.9822 180.521 78.3434 182.358C76.773 184.054 74.588 185.044 72.3347 184.973Z" fill="white"/>
<path d="M97.7354 163.773C94.8675 163.703 92.068 164.975 90.1562 167.236C88.176 169.568 87.0835 172.607 87.1518 175.787C87.0152 178.967 88.2443 182.076 90.4293 184.337C92.546 186.528 95.4138 187.729 98.3499 187.659C101.969 187.659 105.315 185.963 107.5 182.995L107.841 182.571L105.929 180.804L105.588 181.299C103.608 183.913 101.286 185.185 98.3499 185.185C96.0966 185.256 93.9116 184.337 92.2729 182.712C90.7707 181.157 89.8147 179.037 89.7465 176.776H108.251V175.292C108.319 172.253 107.226 169.285 105.178 167.095C103.266 164.904 100.535 163.703 97.7354 163.773ZM105.656 174.161H89.8147C90.0879 172.112 90.9755 170.204 92.3411 168.72C93.7068 167.165 95.6869 166.247 97.7354 166.317C99.7838 166.247 101.832 167.095 103.266 168.649C104.632 170.133 105.519 172.112 105.656 174.161Z" fill="white"/>
<path d="M101.882 156.742L92.9316 159.022L93.5028 161.423L102.453 159.143L101.882 156.742Z" fill="white"/>
<path d="M122.248 163.773C120.541 163.703 118.766 164.197 117.332 165.187C116.513 165.752 115.762 166.459 115.147 167.307V164.197H112.552V187.093H115.147V175.363C115.147 172.607 115.762 170.345 117.059 168.72C119.654 165.752 124.092 165.469 126.96 168.155L127.028 168.225C128.189 169.497 128.803 171.335 128.803 173.667V187.093H131.261V173.525C131.261 170.557 130.442 168.225 128.803 166.459C127.096 164.621 124.706 163.632 122.248 163.773Z" fill="white"/>
<path d="M145.532 163.773C142.664 163.703 139.865 164.975 137.953 167.236C135.973 169.568 134.88 172.607 134.949 175.787C134.812 178.967 136.041 182.076 138.226 184.337C140.343 186.528 143.211 187.729 146.147 187.659C149.766 187.659 153.112 185.963 155.297 182.995L155.638 182.571L153.658 180.804L153.316 181.299C151.336 183.913 149.015 185.185 146.079 185.185C143.825 185.256 141.64 184.337 140.001 182.712C138.499 181.157 137.543 179.037 137.475 176.776H155.979V175.292C156.048 172.253 154.955 169.285 152.907 167.095C151.063 164.904 148.332 163.703 145.532 163.773ZM153.453 174.161H137.612C137.885 172.112 138.772 170.204 140.138 168.72C141.504 167.165 143.484 166.247 145.532 166.317C147.581 166.247 149.629 167.095 151.063 168.649C152.429 170.133 153.316 172.112 153.453 174.161Z" fill="white"/>
<path d="M149.68 156.747L140.73 159.027L141.301 161.429L150.251 159.149L149.68 156.747Z" fill="white"/>
<path d="M168.816 163.773C167.246 163.773 165.675 164.339 164.446 165.328C163.832 165.823 163.217 166.388 162.739 167.095V164.197H160.144V187.093H162.739V174.02C162.739 172.041 163.422 170.063 164.719 168.579C166.017 167.024 167.382 166.247 168.816 166.247C169.499 166.247 170.25 166.317 170.865 166.6L171.616 166.953V164.339L171.274 164.197C170.523 163.915 169.635 163.703 168.816 163.773Z" fill="white"/>
<path d="M193.193 187.093V164.127H190.734V167.731C189.983 166.741 189.027 165.893 187.935 165.257C186.228 164.268 184.316 163.703 182.336 163.703C179.331 163.632 176.464 164.904 174.415 167.165C170.045 171.829 170.045 179.249 174.415 183.984C176.464 186.245 179.331 187.447 182.336 187.447C186.023 187.447 188.823 186.033 190.734 183.136V187.023H193.193V187.093ZM182.404 184.973C180.083 184.973 177.829 184.055 176.259 182.288C174.552 180.521 173.596 178.119 173.664 175.645C173.596 173.172 174.552 170.769 176.259 169.073C177.829 167.307 180.083 166.317 182.404 166.317C184.657 166.247 186.842 167.165 188.413 168.861C190.052 170.699 190.871 173.172 190.734 175.645C190.803 178.119 189.983 180.521 188.345 182.359C186.774 184.055 184.657 184.973 182.404 184.973Z" fill="white"/>
<path d="M200.089 156H197.631V187.093H200.089V156Z" fill="white"/>
<path d="M214.701 163.773C211.833 163.703 209.034 164.975 207.122 167.236C205.142 169.568 204.049 172.607 204.117 175.787C203.981 178.967 205.21 182.076 207.395 184.337C209.512 186.528 212.379 187.729 215.315 187.659C218.934 187.659 222.28 185.963 224.465 182.995L224.807 182.571L222.895 180.804L222.553 181.299C220.573 183.913 218.252 185.185 215.315 185.185C213.062 185.256 210.877 184.337 209.238 182.712C207.736 181.157 206.78 179.037 206.712 176.776H225.216V175.292C225.285 172.253 224.192 169.285 222.144 167.095C220.3 164.904 217.569 163.703 214.701 163.773ZM222.69 174.161H206.849C207.122 172.112 208.009 170.204 209.375 168.72C210.741 167.165 212.721 166.247 214.769 166.317C216.818 166.247 218.866 167.095 220.3 168.649C221.666 170.133 222.485 172.112 222.69 174.161Z" fill="white"/>
</svg>
