<svg width="430" height="96" viewBox="0 0 430 96" fill="none" xmlns="http://www.w3.org/2000/svg">
<path d="M13.0092 33.0041C14.0382 30.0465 15.7286 27.3108 18.0071 25.0926C20.506 22.8744 25.7244 20.5823 29.1053 23.2441L28.2233 22.2089C23.0049 16.5156 19.33 16.072 17.0516 16.072C7.12932 16.1459 0 27.3847 0 42.1726C0.0734982 55.6296 5.51236 68.495 15.1406 77.8114C17.1251 79.6599 18.5215 80.4732 19.624 79.9556C20.8735 79.2902 21.094 77.9593 19.4035 75.5193C14.4056 68.2732 11.0982 57.478 11.0982 46.9786C11.0982 37.2926 12.8622 33.2998 13.0092 33.0041Z" fill="#B10967"/>
<path d="M87.6099 67.8291C84.376 66.2764 80.1131 66.794 77.2467 71.8958C70.7789 83.8 60.0481 89.7891 47.4799 89.7891C40.0566 89.7891 32.7803 87.8667 27.7089 84.1697C26.533 83.3564 25.1365 83.0606 24.475 84.1697C23.6665 85.4267 25.1365 86.9794 26.68 88.3103C32.0453 92.8206 42.1146 96 50.1259 96C59.0192 96 66.1485 94.7431 73.7923 91.4897C79.4517 89.1237 84.523 85.5006 88.6389 80.9164C93.0488 75.6667 92.0933 69.9734 87.6099 67.8291Z" fill="url(#paint0_radial_3125_195482)"/>
<path d="M43.2904 57.6995C46.5978 57.6995 50.2727 55.9989 53.5802 49.2704C56.0791 44.2425 59.019 37.8837 61.5915 32.4861C64.3109 26.8667 67.2508 21.5431 72.3957 21.5431C76.0706 21.5431 80.0395 24.7225 82.171 31.3771C82.9794 34.1128 83.5674 36.9964 83.8614 39.8801C84.0084 40.9892 84.0084 43.5771 84.0819 44.6862C84.7434 42.9855 85.6254 41.4328 86.6543 40.028C91.2112 33.9649 94.8861 25.0922 93.7102 15.7019C92.6077 8.16006 86.1399 1.57945 75.7766 0.100665C67.5448 -0.786609 57.4756 4.16733 51.3752 15.9237C49.3173 19.8425 46.5978 25.9055 44.9074 29.8243C43.0699 33.9649 41.6735 35.5916 40.0565 35.5916C38.4395 35.5916 37.0431 33.8171 35.3526 31.6728C34.1766 30.1201 32.7067 28.1237 31.5307 26.3492C30.7957 25.2401 29.9872 24.2049 29.1053 23.2437C25.7243 20.508 20.4325 22.874 18.007 25.0922C15.7286 27.3104 14.0381 29.9722 13.0092 33.0037C13.5236 32.2643 14.4056 31.7467 15.2876 31.6728C17.566 31.451 19.477 32.708 21.5349 35.0001C24.5484 38.2534 28.0028 43.7249 30.5017 47.348C33.6621 51.6365 37.8515 57.6995 43.2904 57.6995Z" fill="url(#paint1_radial_3125_195482)"/>
<path d="M104 37.8838C104 2.61468 75.8501 0.174683 75.8501 0.174683C86.1398 1.57953 92.6077 8.16014 93.5632 15.7759C94.8126 25.2402 91.1377 34.0389 86.5073 40.102C85.4049 41.5068 84.5964 43.0596 83.9349 44.7602C83.1264 46.8305 82.6854 49.1226 82.6854 51.3408C82.6854 56.6644 84.4494 62.8014 91.4317 62.8014C98.3406 62.8014 104 51.045 104 37.8838Z" fill="url(#paint2_radial_3125_195482)"/>
<path d="M138.68 46H121.959C120.84 46 120 45.0909 120 44.042V16H125.737V40.8252H138.75V46H138.68Z" fill="#412761"/>
<path d="M165.489 19.1062C163.077 17.0374 159.861 15.9341 156.572 16.003C153.283 15.9341 150.067 17.0374 147.655 19.1062C145.243 21.1749 144 24.0022 144 27.657V46H149.847V36.3458H163.15V46H168.997V27.657C169.07 24.0022 167.901 21.1749 165.489 19.1062ZM149.92 31.4498V28.0018C149.774 26.1399 150.432 24.347 151.748 22.9679C153.063 21.7266 154.817 21.037 156.718 21.1749C158.545 21.106 160.299 21.7266 161.542 22.9679C162.784 24.347 163.442 26.2089 163.369 28.0018V31.4498H149.92Z" fill="#412761"/>
<path d="M226.31 23.1766C227.615 24.6787 228.339 26.5905 228.267 28.5705V45.8444H234.066V28.0243C234.211 24.8153 232.978 21.7428 230.731 19.4214C228.484 17.1683 225.44 16.0076 221.744 16.0076C217.467 15.8711 213.336 17.578 210.581 20.6504C209.566 19.2849 208.189 18.1925 206.595 17.4414C204.493 16.4173 202.101 15.9393 199.781 16.0076C196.23 15.9393 192.751 17.0318 189.996 19.1483C187.387 21.2649 185.865 24.4056 186.01 27.6146V46H191.808V28.5705C191.663 26.5905 192.461 24.6104 193.838 23.1084C195.215 21.8111 197.172 21.1283 199.636 21.1283C201.666 21.0601 203.623 21.8111 205 23.1766C206.45 24.6104 207.175 26.5905 207.102 28.5705V45.9127H212.901V28.5705C212.828 26.5905 213.698 24.6104 215.293 23.2449C216.815 21.8111 218.917 21.0601 221.091 21.1283C223.048 21.0601 224.933 21.8111 226.31 23.1766Z" fill="#412761"/>
<path d="M265 16H259.169V33.9982C259.315 35.8601 258.659 37.653 257.347 39.0321C256.108 40.2734 254.286 40.963 252.464 40.894C250.642 40.963 248.892 40.3424 247.653 39.1011C246.414 37.7219 245.758 35.8601 245.831 33.9982V16H240V34.343C240 37.9978 241.166 40.8251 243.572 42.8938C245.977 44.9626 249.184 46.0659 252.464 45.997C255.744 46.0659 258.951 44.9626 261.356 42.8938C263.761 40.8251 265 37.9978 265 34.343V16Z" fill="#412761"/>
<path d="M270 21.1748H280.503V46H286.42V21.1748H296.923V16H270V21.1748Z" fill="#412761"/>
<path d="M325.077 16H319.695V33.9982C319.829 35.8601 319.224 37.653 318.013 39.0321C316.869 40.2734 315.187 40.963 313.505 40.894C311.823 40.963 310.208 40.3424 309.064 39.1011C307.921 37.7219 307.315 35.8601 307.382 33.9982V16H302V34.343C302 37.9978 303.077 40.8251 305.297 42.8938C307.517 44.9626 310.477 46.0659 313.505 45.997C316.533 46.0659 319.493 44.9626 321.713 42.8938C323.933 40.8251 325.077 37.9978 325.077 34.343V16Z" fill="#412761"/>
<path d="M330 46H353.077V40.8252H335.88V33.2028H351.828V28.028H335.88V21.1748H353.077V16H330V46Z" fill="#412761"/>
<path d="M377.231 46H360.081C358.933 46 358.072 45.0909 358 44.042V16H363.812V40.8252H377.159L377.231 46Z" fill="#412761"/>
<path d="M401.159 46H384.009C382.861 46 382 45.0909 382 44.042V16H387.884V40.8252H401.231V46H401.159Z" fill="#412761"/>
<path d="M429.077 21.1748V16H406V46H429.077V40.8252H411.806V33.2028H427.901V28.028H411.806V21.1748H429.077Z" fill="#412761"/>
<path d="M141.315 67.8012C140.501 66.8119 139.465 65.9639 138.281 65.3279C136.431 64.3386 134.358 63.7732 132.212 63.7732C128.955 63.7026 125.847 64.9746 123.553 67.2359C118.816 71.8999 118.816 79.3198 123.553 84.0545C125.773 86.3158 128.881 87.5171 132.138 87.5171C136.135 87.5171 139.169 86.1038 141.241 83.2065V84.4785C141.315 86.8811 140.427 89.2131 138.725 90.9798C136.949 92.6757 134.432 93.5944 131.916 93.5237C130.362 93.5237 128.881 93.2411 127.475 92.6758C126.143 92.1811 124.811 91.4744 123.701 90.5558L123.257 90.2024L121.628 92.2518L122.072 92.6051C124.811 94.8664 128.363 96.0677 131.916 95.9971C135.542 95.9971 138.503 94.9371 140.649 92.8171C142.87 90.6264 144.054 87.5878 143.906 84.5491V64.1266H141.241V67.8012H141.315ZM132.286 84.9731C129.77 84.9731 127.401 84.0545 125.625 82.2878C123.775 80.5212 122.739 78.1185 122.813 75.6452C122.739 73.1719 123.775 70.7692 125.625 69.0732C127.327 67.3066 129.77 66.3172 132.286 66.3172C134.728 66.2466 137.097 67.1652 138.873 68.8612C140.649 70.6985 141.537 73.1719 141.389 75.6452C141.463 78.1185 140.575 80.5212 138.799 82.3585C137.097 84.0545 134.728 85.0438 132.286 84.9731Z" fill="#412761"/>
<path d="M159.818 63.7734C156.71 63.7027 153.675 64.9747 151.603 67.236C149.457 69.568 148.272 72.6067 148.346 75.7867C148.198 78.9667 149.531 82.076 151.899 84.3373C154.193 86.528 157.302 87.7293 160.484 87.6586C164.407 87.6586 168.033 85.9626 170.402 82.9946L170.772 82.5706L168.7 80.804L168.329 81.2986C166.183 83.9133 163.667 85.1853 160.484 85.1853C158.042 85.256 155.674 84.3373 153.897 82.712C152.269 81.1573 151.233 79.0373 151.159 76.776H171.216V75.292C171.29 72.2534 170.106 69.2854 167.885 67.0947C165.813 64.9041 162.853 63.7027 159.818 63.7734ZM168.403 74.1613H151.233C151.529 72.112 152.491 70.204 153.971 68.72C155.452 67.1654 157.598 66.2467 159.818 66.3174C162.039 66.2467 164.259 67.0947 165.813 68.6494C167.293 70.1334 168.255 72.112 168.403 74.1613Z" fill="#412761"/>
<path d="M164.313 56.7416L154.611 59.0217L155.231 61.4233L164.932 59.1432L164.313 56.7416Z" fill="#412761"/>
<path d="M186.388 63.7733C184.538 63.7026 182.614 64.1973 181.059 65.1866C180.171 65.7519 179.357 66.4586 178.691 67.3066V64.1973H175.879V87.0932H178.691V75.3625C178.691 72.6066 179.357 70.3452 180.763 68.7199C183.576 65.7519 188.387 65.4693 191.495 68.1546L191.569 68.2252C192.827 69.4972 193.493 71.3346 193.493 73.6666V87.0932H196.158V73.5252C196.158 70.5572 195.27 68.2252 193.493 66.4586C191.643 64.6213 189.053 63.6319 186.388 63.7733Z" fill="#412761"/>
<path d="M211.626 63.7734C208.518 63.7027 205.483 64.9747 203.411 67.236C201.264 69.568 200.08 72.6067 200.154 75.7867C200.006 78.9667 201.338 82.076 203.707 84.3373C206.001 86.528 209.11 87.7293 212.292 87.6586C216.215 87.6586 219.841 85.9626 222.21 82.9946L222.58 82.5706L220.433 80.804L220.063 81.2986C217.917 83.9133 215.401 85.1853 212.218 85.1853C209.776 85.256 207.407 84.3373 205.631 82.712C204.003 81.1573 202.967 79.0373 202.893 76.776H222.95V75.292C223.024 72.2534 221.84 69.2854 219.619 67.0947C217.621 64.9041 214.66 63.7027 211.626 63.7734ZM220.211 74.1613H203.041C203.337 72.112 204.299 70.204 205.779 68.72C207.259 67.1654 209.406 66.2467 211.626 66.3174C213.846 66.2467 216.067 67.0947 217.621 68.6494C219.101 70.1334 220.063 72.112 220.211 74.1613Z" fill="#412761"/>
<path d="M216.122 56.7469L206.42 59.027L207.04 61.4286L216.741 59.1485L216.122 56.7469Z" fill="#412761"/>
<path d="M236.864 63.7734C235.162 63.7734 233.459 64.3387 232.127 65.3281C231.461 65.8227 230.795 66.3881 230.277 67.0947V64.1974H227.464V87.0933H230.277V74.02C230.277 72.0414 231.017 70.0627 232.423 68.5787C233.829 67.0241 235.31 66.2467 236.864 66.2467C237.604 66.2467 238.418 66.3174 239.084 66.6001L239.898 66.9534V64.3387L239.528 64.1974C238.714 63.9147 237.752 63.7027 236.864 63.7734Z" fill="#412761"/>
<path d="M263.286 87.0932V64.1267H260.621V67.7307C259.807 66.7413 258.771 65.8933 257.587 65.2573C255.737 64.268 253.664 63.7027 251.518 63.7027C248.262 63.632 245.153 64.904 242.933 67.1653C238.196 71.8293 238.196 79.2493 242.933 83.9839C245.153 86.2452 248.262 87.4466 251.518 87.4466C255.515 87.4466 258.549 86.0332 260.621 83.1359V87.0226H263.286V87.0932ZM251.592 84.9732C249.076 84.9732 246.633 84.0546 244.931 82.2879C243.081 80.5213 242.045 78.1186 242.119 75.6453C242.045 73.172 243.081 70.7693 244.931 69.0733C246.633 67.3067 249.076 66.3173 251.592 66.3173C254.034 66.2467 256.403 67.1653 258.105 68.8613C259.881 70.6987 260.769 73.172 260.621 75.6453C260.695 78.1186 259.807 80.5213 258.031 82.3586C256.329 84.0546 254.034 84.9732 251.592 84.9732Z" fill="#412761"/>
<path d="M270.761 56H268.096V87.0932H270.761V56Z" fill="#412761"/>
<path d="M286.599 63.7734C283.491 63.7027 280.456 64.9747 278.384 67.236C276.238 69.568 275.053 72.6067 275.127 75.7867C274.979 78.9667 276.312 82.076 278.68 84.3373C280.974 86.528 284.083 87.7293 287.265 87.6586C291.188 87.6586 294.814 85.9626 297.183 82.9946L297.553 82.5706L295.48 80.804L295.11 81.2986C292.964 83.9133 290.448 85.1853 287.265 85.1853C284.823 85.256 282.454 84.3373 280.678 82.712C279.05 81.1573 278.014 79.0373 277.94 76.776H297.997V75.292C298.071 72.2534 296.887 69.2854 294.666 67.0947C292.668 64.9041 289.708 63.7027 286.599 63.7734ZM295.258 74.1613H278.088C278.384 72.112 279.346 70.204 280.826 68.72C282.306 67.1654 284.453 66.2467 286.673 66.3174C288.893 66.2467 291.114 67.0947 292.668 68.6494C294.148 70.1334 295.036 72.112 295.258 74.1613Z" fill="#412761"/>
<defs>
<radialGradient id="paint0_radial_3125_195482" cx="0" cy="0" r="1" gradientUnits="userSpaceOnUse" gradientTransform="translate(54.128 67.9173) rotate(70.9878) scale(40.5058 65.7181)">
<stop offset="0.19" stop-color="#C73470"/>
<stop offset="0.54" stop-color="#B10967"/>
<stop offset="0.59" stop-color="#AC0965"/>
<stop offset="0.65" stop-color="#9D085F"/>
<stop offset="0.72" stop-color="#840655"/>
<stop offset="0.79" stop-color="#620447"/>
<stop offset="0.86" stop-color="#370035"/>
<stop offset="0.88" stop-color="#300032"/>
</radialGradient>
<radialGradient id="paint1_radial_3125_195482" cx="0" cy="0" r="1" gradientUnits="userSpaceOnUse" gradientTransform="translate(56.164 28.6211) rotate(0.201199) scale(45.7162 45.9906)">
<stop offset="0.19" stop-color="#C73470"/>
<stop offset="0.54" stop-color="#B10967"/>
<stop offset="0.59" stop-color="#AC0965"/>
<stop offset="0.65" stop-color="#9D085F"/>
<stop offset="0.72" stop-color="#840655"/>
<stop offset="0.79" stop-color="#620447"/>
<stop offset="0.86" stop-color="#370035"/>
<stop offset="0.88" stop-color="#300032"/>
</radialGradient>
<radialGradient id="paint2_radial_3125_195482" cx="0" cy="0" r="1" gradientUnits="userSpaceOnUse" gradientTransform="translate(61.5914 95.2134) scale(83.9129 84.4167)">
<stop offset="0.05" stop-color="#8E1F69"/>
<stop offset="0.36" stop-color="#901E69"/>
<stop offset="0.5" stop-color="#971968"/>
<stop offset="0.61" stop-color="#A41168"/>
<stop offset="0.67" stop-color="#B10967"/>
<stop offset="0.83" stop-color="#B20B67"/>
<stop offset="0.9" stop-color="#B61269"/>
<stop offset="0.95" stop-color="#BC1F6C"/>
<stop offset="0.99" stop-color="#C5316F"/>
<stop offset="1" stop-color="#C73470"/>
</radialGradient>
</defs>
</svg>
