<svg width="209" height="201" viewBox="0 0 209 201" fill="none" xmlns="http://www.w3.org/2000/svg">
<g id="Frame">
<g id="Clip path group">
<mask id="mask0_999_3500" style="mask-type:luminance" maskUnits="userSpaceOnUse" x="-6" y="14" width="215" height="169">
<g id="clip-path">
<path id="Vector" d="M-4.89723 95.1285C-0.921629 137.208 -27.7362 169.747 62.6822 179.652C78.6875 181.404 100.807 182.66 119.472 182.297C134.596 182.008 151.229 180.66 165.928 176.857C190.202 170.564 208.286 157.783 208.846 132.888C209.423 107.414 184.131 90.7878 188.17 80.3254C200.7 47.9455 180.381 24.378 140.251 16.0085C89.4679 5.41894 68.9773 40.4953 48.2694 35.936C14.7105 28.5368 -8.94495 52.2882 -4.89723 95.1285Z" fill="white"/>
</g>
</mask>
<g mask="url(#mask0_999_3500)">
<g id="Group">
<path id="Vector_2" d="M-4.89723 95.1285C-0.921629 137.208 -27.7362 169.747 62.6822 179.652C78.6875 181.404 100.807 182.66 119.472 182.297C134.596 182.008 151.229 180.66 165.928 176.857C190.202 170.564 208.286 157.783 208.846 132.888C209.423 107.414 184.131 90.7878 188.17 80.3254C200.7 47.9455 180.381 24.378 140.251 16.0085C89.4679 5.41894 68.9773 40.4953 48.2694 35.936C14.7105 28.5368 -8.94495 52.2882 -4.89723 95.1285Z" fill="#9FBCE7"/>
<path id="Vector_3" d="M184.177 56.5233L104.094 27.2656L65.8748 132.096L145.958 161.353L184.177 56.5233Z" fill="#69D186"/>
<path id="Vector_4" d="M132.622 60.7249C131.352 64.2248 128.889 67.1636 125.666 69.0232C125.483 69.1291 125.298 69.2311 125.111 69.3313C122.013 70.9626 118.464 71.5231 115.016 70.9256C111.567 70.328 108.413 68.6059 106.043 66.0273C104.138 63.9525 102.819 61.4074 102.221 58.6534C101.623 55.8995 101.768 53.0358 102.642 50.3566C103.515 47.6774 105.085 45.2791 107.19 43.408C109.295 41.5369 111.86 40.2604 114.621 39.7096C117.382 39.1587 120.24 39.3535 122.901 40.2737C125.562 41.194 127.93 42.8066 129.763 44.946C131.595 47.0854 132.826 49.6746 133.329 52.4475C133.831 55.2205 133.587 58.0774 132.622 60.7249Z" fill="white"/>
<path id="Vector_5" d="M127.645 51.4948C125.942 43.9262 120.047 43.1695 120.047 43.1695C118.212 42.9992 116.429 43.5286 114.97 44.371C113.51 45.2133 112.331 46.3531 111.211 47.5132C109.946 48.825 108.737 50.1766 107.584 51.568C107.36 51.8385 107.131 52.1292 107.111 52.4729C107.093 52.7858 107.254 53.0977 107.432 53.3865C109.021 55.9675 112.144 57.6493 115.256 58.7843C119.482 60.3229 123.944 61.1116 128.441 61.1149C128.547 57.9256 128.362 54.6881 127.645 51.4948Z" fill="#38516B"/>
<path id="Vector_6" d="M125.11 69.3322C122.013 70.9636 118.463 71.5241 115.015 70.9265C111.566 70.329 108.412 68.6069 106.043 66.0283C105.082 64.9821 104.266 63.8104 103.619 62.5453C104.965 61.9677 106.584 61.6154 108.356 61.521C109.732 61.4522 111.111 61.526 112.471 61.7415C113.218 61.8556 113.959 62.0085 114.69 62.1997C115.949 62.5259 117.177 62.9627 118.359 63.5051C119.593 64.0681 120.761 64.7668 121.841 65.5884C123.315 66.7234 124.441 68.0076 125.11 69.3322Z" fill="#FFCFBF"/>
<path id="Vector_7" d="M117.813 67.9606C119.34 68.1531 118.092 64.1214 118.092 64.1214L120.633 58.3193C121.375 56.6259 120.669 54.6563 119.055 53.9208C117.441 53.1853 116.607 53.1083 115.865 54.8017L112.349 61.9958C111.608 63.6892 115.659 67.6881 117.813 67.9606Z" fill="#FFCFBF"/>
<path id="Vector_8" d="M124.666 48.8494C124.666 48.8494 126.508 59.3427 121.877 60.7116C119.032 61.5501 116.491 59.2579 113.712 55.4313C111.319 52.1331 120.054 40.3643 124.666 48.8494Z" fill="#FDBAA0"/>
<path id="Vector_9" d="M116.371 59.2542C117.456 60.2612 118.647 60.9129 120.111 61.0592C120.422 61.09 120.465 60.5846 120.153 60.5528C118.772 60.4152 117.673 59.7827 116.653 58.8373C116.419 58.6217 116.141 59.0405 116.371 59.2542Z" fill="#FF9F89"/>
<path id="Vector_10" d="M125.461 50.0047C125.624 49.4049 125.452 48.7532 125.134 48.2189C124.815 47.6846 124.364 47.2475 123.913 46.8172C123.511 46.4322 123.099 46.0365 122.592 45.8016C122.085 45.5667 121.512 45.5061 120.951 45.4839C119.23 45.4175 117.463 45.7005 115.957 46.538C115.924 46.547 115.893 46.5634 115.867 46.5859C115.84 46.6084 115.819 46.6365 115.805 46.6681C115.791 46.6997 115.784 46.7341 115.785 46.7687C115.786 46.8034 115.795 46.8374 115.81 46.8682C116.139 48.0235 116.574 49.2442 116.248 50.4032C116.997 50.307 117.729 50.1067 118.473 49.9777C120.842 49.5728 123.277 49.909 125.448 50.9404L125.461 50.0047Z" fill="#38516B"/>
<path id="Vector_11" d="M118.104 48.7713L117.666 47.7778C116.109 47.7557 114.588 48.5374 113.585 49.7282C112.582 50.919 112.07 52.4834 112.023 54.042C112 54.8121 112.1 55.6189 112.559 56.2311C112.907 56.6932 113.425 56.9936 113.925 57.2814C113.971 57.324 114.026 57.3557 114.086 57.3742C114.146 57.3926 114.209 57.3974 114.271 57.3882C114.333 57.379 114.392 57.3559 114.444 57.3208C114.496 57.2856 114.539 57.2393 114.571 57.1851C116.672 54.9065 117.87 51.8615 118.104 48.7713Z" fill="#38516B"/>
<path id="Vector_12" d="M118.773 44.922C117.083 45.3436 115.823 46.5008 114.638 47.7137C113.065 49.3253 111.491 50.9339 109.885 52.5118C109.8 52.5955 109.916 52.7418 110.001 52.6571C111.47 51.2137 112.92 49.7524 114.353 48.2731C115.634 46.9503 116.956 45.5631 118.804 45.102C118.919 45.0731 118.891 44.8892 118.775 44.9181L118.773 44.922Z" fill="#4D6371"/>
<path id="Vector_13" d="M117.113 47.968C115.357 50.0956 113.698 52.5668 111.456 54.211C111.36 54.2823 111.475 54.4267 111.572 54.3564C113.83 52.7006 115.496 50.2169 117.262 48.0787C117.339 47.9825 117.189 47.8756 117.113 47.968Z" fill="#4D6371"/>
<path id="Vector_14" d="M125.11 69.3307C122.013 70.9621 118.463 71.5226 115.015 70.925C111.566 70.3275 108.412 68.6054 106.043 66.0268C105.082 64.9806 104.266 63.8089 103.619 62.5438C104.965 61.9662 106.584 61.6139 108.356 61.5195C109.581 62.7277 112.024 64.9322 114.682 66.177C115.963 66.7777 117.291 67.1551 118.558 67.0906C119.738 67.0309 120.866 66.59 121.842 65.5878C123.315 66.7219 124.441 68.0061 125.11 69.3307Z" fill="#384955"/>
<path id="Vector_15" d="M98.0376 74.8814L120.204 82.7686C120.974 83.0411 121.438 81.8647 120.671 81.5913L98.504 73.705C97.7347 73.4316 97.2702 74.608 98.0376 74.8814Z" fill="#D3F0F4"/>
<path id="Vector_16" d="M96.1742 79.8772L112.098 85.5436L132.361 92.7531L139.938 95.4486C140.707 95.7211 141.171 94.5447 140.404 94.2713L124.48 88.6068L104.217 81.3963L96.6406 78.7008C95.8713 78.4284 95.4068 79.6048 96.1742 79.8772Z" fill="#D3F0F4"/>
<path id="Vector_17" d="M124.002 84.386L152.881 94.6617L159.427 96.9904C160.196 97.2629 160.661 96.0874 159.893 95.814L131.015 85.5383L124.469 83.2096C123.7 82.9372 123.235 84.1126 124.002 84.386Z" fill="white"/>
<path id="Vector_18" d="M144.19 97.0576L158.073 101.975C158.843 102.246 159.308 101.07 158.541 100.799L144.657 95.8812C143.887 95.6097 143.422 96.7861 144.19 97.0576Z" fill="white"/>
<path id="Vector_19" d="M93.9574 84.4216C100.963 86.7571 107.893 89.3037 114.747 92.0615C115.504 92.3657 115.969 91.1883 115.214 90.8851C108.363 88.1254 101.433 85.5784 94.4248 83.2443C93.6555 82.9882 93.1852 84.1636 93.9574 84.4216Z" fill="#D3F0F4"/>
<path id="Vector_20" d="M118.701 93.4536L156.033 107.11C156.797 107.39 157.265 106.214 156.499 105.934L119.168 92.2772C118.404 91.997 117.936 93.1734 118.701 93.4536Z" fill="white"/>
<path id="Vector_21" d="M89.1545 94.1838L105.078 99.8492L125.342 107.059L132.918 109.754C133.687 110.027 134.153 108.85 133.385 108.577L117.462 102.912L97.1981 95.701L89.6219 93.0055C88.8526 92.733 88.3871 93.9095 89.1545 94.1829V94.1838Z" fill="#D3F0F4"/>
<path id="Vector_22" d="M137.17 111.362L151.054 116.28C151.823 116.551 152.289 115.376 151.52 115.103L137.638 110.186C136.868 109.914 136.403 111.091 137.17 111.362Z" fill="white"/>
<path id="Vector_23" d="M86.9386 98.7266C93.9435 101.062 100.873 103.609 107.728 106.366C108.484 106.671 108.95 105.493 108.195 105.19C101.344 102.434 94.4138 99.8876 87.405 97.5502C86.6357 97.2931 86.1654 98.4686 86.9386 98.7266Z" fill="#D3F0F4"/>
<path id="Vector_24" d="M111.683 107.758L149.014 121.416C149.779 121.695 150.246 120.519 149.482 120.238L112.15 106.582C111.381 106.302 110.918 107.478 111.683 107.758Z" fill="white"/>
<path id="Vector_25" d="M145.729 54.5183L171.367 63.5434C172.136 63.813 172.602 62.6366 171.833 62.3661L146.196 53.3419C145.427 53.0714 144.961 54.2478 145.729 54.5183Z" fill="white"/>
<path id="Vector_26" d="M144.358 58.2339L169.995 67.259C170.764 67.5286 171.231 66.3531 170.462 66.0826L144.825 57.0575C144.055 56.7879 143.59 57.9633 144.358 58.2339Z" fill="white"/>
<path id="Vector_27" d="M143.01 62.9446L168.039 71.8234C168.808 72.0949 169.273 70.9195 168.505 70.647L143.473 61.7682C142.703 61.4957 142.239 62.6721 143.006 62.9446H143.01Z" fill="white"/>
<path id="Vector_28" d="M141.309 68.0179L154.398 72.4837C155.168 72.7456 155.636 71.5692 154.865 71.3064L141.775 66.8405C141.006 66.5786 140.538 67.755 141.309 68.0179Z" fill="#D3F0F4"/>
<path id="Vector_29" d="M157.831 73.9759L167.039 77.3886C167.803 77.6716 168.27 76.4942 167.506 76.2112L158.298 72.7995C157.535 72.5164 157.068 73.6928 157.831 73.9759Z" fill="white"/>
<path id="Vector_30" d="M139.624 72.6415C148.049 75.7862 156.551 78.7128 165.131 81.4211C165.9 81.6647 166.374 80.4893 165.597 80.2438C157.022 77.5367 148.519 74.6105 140.091 71.4651C139.328 71.1763 138.861 72.3565 139.624 72.6415Z" fill="white"/>
<path id="Vector_31" d="M-9.80859 136.646L20.9143 155.39C40.3153 143.77 47.0538 139.762 47.0644 139.743C47.9078 138.77 51.8795 133.848 54.1251 132.427C51.9324 127.999 50.7967 125.711 49.8715 123.84C49.8715 123.816 50.737 88.6258 50.7217 88.6143C49.0676 90.5772 28.0019 118.176 17.9629 123.491C17.6003 123.684 17.7157 123.597 17.6657 123.679C17.1272 124.564 5.32061 129.589 -9.1258 135.528L-9.80859 136.646Z" fill="#FDBAA0"/>
<path id="Vector_32" d="M45.9833 96.3349C46.392 96.5544 55.7328 98.2921 54.7509 99.4993C50.9196 104.216 49.8665 111.477 51.461 114.058C54.5143 119.001 60.3989 116.99 61.0355 116.733L45.7198 131.092C41.5537 131.741 18.6157 132.657 18.6426 131.258C18.7513 125.52 44.9398 95.7756 45.9833 96.3349Z" fill="#FDBAA0"/>
<path id="Vector_33" d="M12.875 127.06C12.875 127.06 23.5901 120.576 28.486 112.374C35.2918 100.973 41.5466 87.0462 43.1036 85.4761C45.7732 82.7805 54.489 77.4492 56.8614 77.2028C59.2339 76.9563 66.9322 75.6625 68.4911 76.2718C70.0499 76.8812 65.3906 82.2857 59.5676 85.3904C53.7446 88.495 47.486 93.8745 47.486 93.8745L38.1576 122.931L12.875 127.06Z" fill="#FDBAA0"/>
<path id="Vector_34" d="M36.8478 104.171C36.8478 104.171 47.234 84.3115 52.6358 81.8951C58.0376 79.4788 64.2866 77.7633 67.9265 79.8023C71.5665 81.8412 78.2723 87.9918 78.104 89.1913C77.9357 90.3908 72.1128 90.5131 68.2141 88.9641C64.3154 87.4152 53.8215 92.0158 53.8215 92.0158L42.2967 104.768L36.8478 104.171Z" fill="#FDBAA0"/>
<path id="Vector_35" d="M37.8711 123.822C37.8711 123.822 48.0015 91.997 50.7201 88.619C53.4388 85.2409 65.6628 86.1564 69.473 86.863C73.2832 87.5697 80.7516 96.6372 80.7458 99.248C80.7391 102.45 74.1833 100.233 70.0384 97.2263C66.2311 94.4644 60.7159 95.9816 58.8262 95.9749C58.2751 95.9749 57.1913 96.7951 56.0373 98.0157C54.5303 99.6071 52.8993 101.875 52.1636 103.873C49.6729 110.633 57.2884 117.35 57.2884 117.35L37.8711 123.822Z" fill="#FDBAA0"/>
<path id="Vector_36" d="M137.062 177.645L49.25 158.649L74.0633 43.7012L148.79 59.8666L159.572 73.3711L137.062 177.645Z" fill="white"/>
<path id="Vector_37" d="M108.66 74.5167C107.961 77.7512 106.32 80.7056 103.943 83.0063C101.567 85.3071 98.563 86.8508 95.3104 87.4424C92.0578 88.0339 88.703 87.6467 85.6703 86.3297C82.6375 85.0127 80.063 82.8251 78.2722 80.0434C76.4815 77.2617 75.5549 74.0109 75.6097 70.7021C75.6645 67.3933 76.6982 64.175 78.5801 61.4543C80.462 58.7336 83.1076 56.6326 86.1823 55.4169C89.257 54.2013 92.6227 53.9256 95.8539 54.6248C98.0046 55.0796 100.044 55.9565 101.854 57.2049C103.664 58.4532 105.209 60.0483 106.4 61.8979C107.591 63.7476 108.403 65.8151 108.791 67.981C109.179 70.1469 109.134 72.3682 108.66 74.5167Z" fill="#E9F4F6"/>
<path id="Vector_38" d="M90.6946 59.6671C89.5195 59.5853 88.2635 59.8857 87.448 60.8224C87.0693 61.259 86.8342 61.8019 86.7748 62.3771C86.7104 62.9778 86.7921 63.5776 86.8287 64.1764C86.8671 64.7934 86.8546 65.4278 86.5536 65.9872C86.2651 66.5128 85.7997 66.9498 85.6881 67.5602C85.5718 68.1936 85.8939 68.8223 85.7112 69.4499C85.615 69.7734 85.4323 70.0583 85.265 70.3452C85.0938 70.6323 84.9597 70.9399 84.8659 71.2607C84.663 71.9828 84.6735 72.7664 84.7495 73.5038C84.8091 74.0583 84.9563 74.6455 85.4371 74.9632C85.5333 75.0239 85.6083 74.867 85.5169 74.8073C85.0717 74.5185 84.9601 73.9254 84.913 73.42C84.8515 72.7587 84.8409 72.0723 84.9996 71.4215C85.0823 71.0906 85.2118 70.7733 85.3842 70.479C85.5461 70.2226 85.6888 69.9546 85.8112 69.6771C86.0353 69.0995 85.8632 68.5662 85.8333 67.978C85.8006 67.3272 86.1843 66.869 86.5229 66.3607C86.8258 65.9086 86.9945 65.3799 87.0095 64.8358C87.0576 63.694 86.6575 62.4791 87.2412 61.4135C87.9308 60.1552 89.3935 59.747 90.7033 59.8385C90.812 59.8462 90.7995 59.671 90.6946 59.6633V59.6671Z" fill="#384955"/>
<path id="Vector_39" d="M94.2065 68.2038C94.4972 66.6474 94.8715 65.1077 95.3278 63.5916L91.0301 59.6494C90.13 59.7582 89.1933 59.9729 88.5114 60.5919C87.4824 61.5238 87.3122 63.0949 87.4084 64.4936C87.5046 65.8924 87.7931 67.322 87.3978 68.6698C86.9814 70.1051 85.8447 71.2584 85.5244 72.7188C85.1734 74.3226 85.9207 76.0247 87.1276 77.0836C88.3345 78.1426 89.9289 78.6364 91.5119 78.8232C91.5907 78.8384 91.672 78.8351 91.7494 78.8136C91.8918 78.7625 91.9658 78.6047 92.0235 78.4612C93.3208 75.2102 93.5612 71.6473 94.2065 68.2038Z" fill="#384955"/>
<path id="Vector_40" d="M102.592 84.1791C100.974 85.4397 99.1392 86.3931 97.1781 86.992C94.745 86.8852 91.7378 86.4857 88.5229 85.7916C86.2014 85.2979 83.913 84.6597 81.6709 83.8806C79.6913 82.242 78.1151 80.169 77.0645 77.8225C78.1944 76.8309 79.7264 76.0781 81.518 75.6083C82.8932 75.2605 84.3051 75.0786 85.7235 75.0663C86.6191 75.0545 87.5145 75.0989 88.4046 75.1992C89.1844 75.2886 89.9592 75.4172 90.7261 75.5842C91.2281 75.6927 91.7202 75.8159 92.2023 75.9539C92.3946 76.0085 92.5851 76.0659 92.7735 76.1262C92.9043 76.1667 93.0342 76.2081 93.164 76.2523C93.4111 76.3342 93.6544 76.4208 93.8958 76.5103L94.0564 76.5719C95.6061 77.1554 97.0737 77.9375 98.4225 78.8988C98.6331 79.0518 98.8389 79.2078 99.037 79.3666C100.833 80.8029 102.082 82.4703 102.592 84.1791Z" fill="#FDBAA0"/>
<path id="Vector_41" d="M102.594 84.1802C100.596 85.7397 98.2696 86.8239 95.791 87.3507C93.3125 87.8775 90.7467 87.8332 88.2877 87.2211C85.8288 86.609 83.5411 85.4451 81.5977 83.8176C79.6544 82.19 78.1062 80.1413 77.0703 77.8265C78.2003 76.8349 79.7322 76.0821 81.5239 75.6123C81.5239 75.6123 87.6315 85.1015 98.2648 78.9923C98.3197 78.9615 98.3735 78.9307 98.4283 78.896C98.6389 79.0491 98.8447 79.205 99.0428 79.3639C100.835 80.8041 102.084 82.4714 102.594 84.1802Z" fill="#445D78"/>
<path id="Vector_42" d="M89.4671 77.7293C88.0967 77.248 88.2362 76.1592 88.5151 74.5727L89.622 68.2786C89.9326 66.5112 91.5232 65.2943 93.1744 65.5533C94.8256 65.8122 94.9276 66.1752 94.617 67.9417L93.4427 75.4689C93.1321 77.2403 90.9635 78.3733 89.4671 77.7293Z" fill="#FDBAA0"/>
<path id="Vector_43" d="M91.2002 60.4215C91.2002 60.4215 84.5761 67.1602 87.1611 70.5383C88.7508 72.611 91.7118 72.2365 95.6172 70.8579C98.9802 69.6709 98.7629 56.5755 91.2002 60.4215Z" fill="#FDBAA0"/>
<path id="Vector_44" d="M99.4914 68.681C99.6992 67.7443 99.7107 66.7777 99.7222 65.8199C99.7338 64.837 99.7405 63.8271 99.4049 62.9106C98.8423 61.3771 97.4248 60.3701 96.0053 59.624L93.2578 60.3451C93.8348 60.5174 94.2128 61.0546 94.1512 61.5407C94.0897 62.0269 93.9493 62.513 93.9935 63.0011C94.0897 64.0196 94.9311 64.7657 95.3495 65.6909C95.6303 66.3108 95.3495 67.0386 95.2168 67.7125C95.1033 68.3094 95.2004 68.8677 95.1889 69.4742C95.1889 69.7726 95.2418 70.0749 95.1745 70.3656C95.1023 70.6718 94.9004 70.9259 94.758 71.2051C94.5261 71.6443 94.4737 72.1566 94.6119 72.6337C94.7609 73.0987 95.1475 73.4867 95.6159 73.5772C96.4237 73.7341 97.1478 73.0429 97.6575 72.3719C98.4913 71.2677 99.1914 70.0287 99.4914 68.681Z" fill="#384955"/>
<path id="Vector_45" d="M103.409 77.8495C103.512 76.7838 103.237 75.7315 103.165 74.661C103.088 73.5174 103.246 72.3631 103.522 71.2474C103.828 70.018 104.074 68.7848 104.042 67.5199C103.99 65.4809 103.022 63.6306 101.167 60.912C98.8231 57.4771 95.9342 55.9657 92.8434 56.7426C89.7525 57.5195 90.4517 61.2412 90.5921 61.0795C93.0069 58.2993 96.2574 62.3002 96.3074 65.84L94.5763 68.1966C94.6599 69.0213 94.4404 69.8481 93.9589 70.5225C93.6964 70.8864 93.354 71.2089 93.2194 71.6382C93.0348 72.2274 93.2858 72.8647 93.2079 73.4769C93.1059 74.2702 92.4731 74.8959 92.2673 75.6699C91.9904 76.7067 92.5703 77.835 93.4473 78.4049C94.3244 78.9748 95.4294 79.0701 96.466 78.9411C96.8507 78.894 97.2354 78.8179 97.6201 78.8449C98.3433 78.9026 98.977 79.3262 99.605 79.6949C100.233 80.0636 100.946 80.3967 101.66 80.2514C102.679 80.0463 103.307 78.9142 103.409 77.8495Z" fill="#384955"/>
<path id="Vector_46" d="M93.9752 67.9007C93.9752 67.9007 95.4177 66.6425 95.9947 67.2721C96.5717 67.9017 95.887 69.5142 95.1052 69.5825C94.3233 69.6509 93.9108 68.3744 93.9454 68.1385L93.9752 67.9007Z" fill="#FCBFAF"/>
<path id="Vector_47" d="M94.4842 69.3851C94.3948 69.1993 94.414 69.3552 94.5121 69.335C94.5699 69.3372 94.6274 69.3437 94.6842 69.3542C94.886 69.3563 95.0848 69.3059 95.2612 69.2079C95.5651 69.0394 95.7613 68.7516 95.9344 68.4378C96.0306 68.2558 96.1575 68.0739 96.1268 67.8457C96.0681 67.3952 95.6459 67.3336 95.3324 67.5059C95.0881 67.6426 94.9362 67.2229 95.1785 67.0881C95.6873 66.7993 96.3085 67.0014 96.5047 67.5945C96.697 68.1644 96.2652 68.8517 95.8969 69.2503C95.7507 69.4142 95.5734 69.5474 95.3752 69.6421C95.1771 69.7368 94.9622 69.7911 94.7429 69.8019C94.5227 69.8086 94.2053 69.7932 94.0918 69.5574C93.9687 69.3003 94.364 69.1271 94.4861 69.3822L94.4842 69.3851Z" fill="#FDBAA0"/>
<path id="Vector_48" d="M93.0178 60.2376C93.6092 59.6599 94.5757 59.6041 95.1835 60.1644C95.4701 60.4302 95.6562 60.7869 95.7105 61.1742C95.7663 61.593 95.6355 62.006 95.5239 62.4055C95.4191 62.7839 95.3191 63.1805 95.3979 63.5723C95.472 63.9391 95.7028 64.2298 95.9673 64.4743C96.2461 64.7304 96.5558 64.9489 96.8107 65.232C97.0826 65.5341 97.2976 65.8831 97.4454 66.262C97.6019 66.6553 97.6765 67.0764 97.6646 67.4995C97.6527 67.9226 97.5545 68.3389 97.3761 68.7226C97.1964 69.1084 96.9309 69.4479 96.6 69.7152C96.3048 69.9501 95.9557 70.1282 95.7345 70.4449C95.2133 71.1794 95.722 72.0603 95.9576 72.7852C96.1115 73.2569 96.124 73.719 95.8942 74.1714C95.6845 74.5835 95.3556 74.9089 95.0287 75.216C94.3939 75.8032 93.5861 76.53 93.7294 77.5062C93.8506 78.3533 94.6911 78.696 95.3922 78.9319C95.496 78.9666 95.5326 78.7942 95.4287 78.7596C94.6978 78.5122 93.7794 78.1059 93.8967 77.1461C94.0112 76.2075 94.8536 75.6569 95.4566 75.0436C95.7679 74.7479 96.0092 74.386 96.1625 73.9847C96.2868 73.584 96.277 73.1537 96.1346 72.7592C95.9942 72.3173 95.7672 71.9005 95.7047 71.4336C95.6646 71.2106 95.6878 70.9808 95.7718 70.7704C95.8558 70.5601 95.9972 70.3775 96.1798 70.2437C96.5 69.9895 96.8395 69.7874 97.1078 69.4735C97.3598 69.1719 97.5532 68.8259 97.6781 68.4531C97.9315 67.6875 97.8952 66.8554 97.5762 66.1147C97.4317 65.778 97.2372 65.4651 96.9991 65.1867C96.7404 64.8806 96.4221 64.6495 96.125 64.3838C95.8057 64.095 95.548 63.7591 95.5432 63.3027C95.5355 62.8763 95.6989 62.4652 95.8009 62.057C95.9076 61.6325 95.9422 61.2031 95.7941 60.7872C95.6635 60.4174 95.419 60.0986 95.096 59.8765C94.4228 59.4173 93.4803 59.5521 92.8966 60.1259C92.8168 60.2048 92.9428 60.3184 93.0216 60.2433L93.0178 60.2376Z" fill="#4D6371"/>
<path id="Vector_49" d="M93.4555 59.8613C94.7528 58.7966 96.8214 58.836 97.9812 60.0683C98.2937 60.4004 98.5438 60.8326 98.589 61.3015C98.6419 61.8444 98.3457 62.2641 98.1485 62.7455C97.7802 63.6437 97.9735 64.6555 98.3909 65.4891C98.8477 66.3998 99.5584 67.1315 100.167 67.9315C100.744 68.6891 101.282 69.5738 101.301 70.5702C101.316 71.0345 101.205 71.4943 100.98 71.9006C100.742 72.3136 100.382 72.5687 99.9603 72.7555C99.5814 72.922 99.1775 73.0568 98.8583 73.3331C98.6975 73.4753 98.5673 73.6487 98.4755 73.8428C98.3838 74.0369 98.3324 74.2477 98.3245 74.4623C98.2899 75.3229 98.9862 75.8948 99.5093 76.4541C99.842 76.7929 100.092 77.2041 100.24 77.6555C100.383 78.1234 100.478 78.8108 100.085 79.19C100.003 79.2783 99.8962 79.3399 99.7786 79.3668C99.6611 79.3938 99.5381 79.3848 99.4256 79.3412C99.3295 79.2959 99.2449 79.4519 99.3458 79.4971C99.7036 79.6589 100.115 79.4875 100.333 79.1573C100.606 78.7337 100.557 78.1706 100.429 77.7085C100.305 77.2563 100.079 76.8387 99.768 76.4878C99.4795 76.1489 99.1304 75.8582 98.8611 75.4991C98.5726 75.114 98.4111 74.6606 98.5322 74.1745C98.6669 73.6325 99.0843 73.3225 99.5603 73.1107C99.9613 72.9326 100.383 72.7901 100.714 72.4898C101.038 72.1854 101.266 71.7929 101.37 71.3605C101.928 69.2244 100.014 67.6494 98.9583 66.113C98.3582 65.2388 97.8889 64.1125 98.2187 63.0256C98.3736 62.5173 98.7246 62.0899 98.7563 61.5431C98.7679 61.0988 98.6353 60.6627 98.3784 60.3003C97.4167 58.8668 95.3548 58.5674 93.8912 59.353C93.7012 59.4558 93.5218 59.577 93.3555 59.715C93.2699 59.7852 93.3555 59.9325 93.4517 59.8613H93.4555Z" fill="#4D6371"/>
<path id="Vector_50" d="M100.073 73.8789C99.6976 73.8924 99.411 74.2303 99.3822 74.6038C99.3447 75.0736 99.637 75.4702 99.9592 75.7677C100.333 76.1171 100.729 76.43 101.062 76.8266C101.419 77.2352 101.695 77.7088 101.873 78.2216C102.071 78.7971 102.091 79.4194 101.93 80.0064C101.898 80.1152 102.064 80.1508 102.096 80.043C102.434 78.8743 101.983 77.6767 101.254 76.7862C101.068 76.5616 100.867 76.3497 100.654 76.1518C100.422 75.9362 100.166 75.7456 99.9467 75.5164C99.7274 75.2873 99.562 75.0197 99.5514 74.703C99.5408 74.3862 99.7572 74.0695 100.084 74.058C100.107 74.0568 100.129 74.0465 100.145 74.0292C100.16 74.012 100.169 73.9893 100.167 73.966C100.166 73.9428 100.156 73.921 100.139 73.9054C100.121 73.8897 100.099 73.8816 100.076 73.8828L100.073 73.8789Z" fill="#4D6371"/>
<path id="Vector_51" d="M96.4338 71.4315C96.4602 71.7232 96.5377 72.008 96.6627 72.2729C96.7098 72.3739 96.855 72.2777 96.8069 72.1766C96.696 71.9378 96.6277 71.6814 96.605 71.419C96.6034 71.3962 96.593 71.3751 96.5758 71.3601C96.5587 71.3451 96.5363 71.3375 96.5136 71.3391C96.4909 71.3406 96.4697 71.3511 96.4548 71.3682C96.4398 71.3854 96.4323 71.4078 96.4338 71.4305V71.4315Z" fill="#4D6371"/>
<path id="Vector_52" d="M100.416 66.5307C100.544 66.7386 100.674 66.9456 100.8 67.1535C100.859 67.2498 101.003 67.1535 100.944 67.0573L100.56 66.4334C100.501 66.3372 100.357 66.4334 100.417 66.5297L100.416 66.5307Z" fill="#4D6371"/>
<path id="Vector_53" d="M97.7993 146.643C89.0124 144.743 83.4087 136.041 85.307 127.246C87.2054 118.451 95.899 112.841 104.686 114.741C113.473 116.641 119.076 125.344 117.177 134.143C115.279 142.942 106.585 148.545 97.7993 146.643ZM104.156 117.195C96.7213 115.586 89.3653 120.333 87.7584 127.777C86.1514 135.22 90.8934 142.582 98.3282 144.19C105.763 145.799 113.119 141.052 114.726 133.61C116.333 126.167 111.591 118.804 104.156 117.2V117.195Z" fill="#38516B"/>
<path id="Vector_54" d="M90.6821 127.317L93.0402 132.997C93.4172 133.906 93.7945 134.814 94.1721 135.722C94.4106 136.3 94.6366 136.885 94.9713 137.41C95.3504 137.986 95.8698 138.456 96.4805 138.776C97.0911 139.096 97.7731 139.256 98.4622 139.239C100.311 139.185 101.583 137.883 102.863 136.72C103.566 136.082 104.261 135.434 104.954 134.784C108.681 131.286 112.343 127.721 116.05 124.203C117.631 122.702 119.208 121.19 120.859 119.762C121.488 119.217 121.8 118.038 121.756 117.249C121.71 116.424 121.291 115.449 120.647 114.908C119.958 114.331 119.06 113.919 118.136 114.011C117.191 114.107 116.512 114.502 115.799 115.12C109.4 120.667 103.616 126.897 97.2995 132.536L96.9081 132.883C96.6956 133.075 96.459 133.122 97.2524 132.594C96.9536 132.795 97.0533 132.765 97.5515 132.503C99.3171 132.278 100.429 132.791 100.888 134.044C100.901 133.983 100.708 133.609 100.695 133.589L100.317 132.68C100.098 132.151 99.8781 131.621 99.6575 131.091L97.2053 125.188C96.8562 124.349 96.3599 123.647 95.5338 123.211C94.7789 122.816 93.6884 122.685 92.8767 122.991C91.2476 123.604 89.9445 125.55 90.6821 127.323V127.317Z" fill="#445D78"/>
<path id="Vector_55" d="M75.2985 91.09L99.5733 96.1268C100.364 96.2914 100.631 95.0678 99.8387 94.8994L75.5629 89.8597C74.7724 89.6961 74.5051 90.9235 75.2985 91.0881V91.09Z" fill="#38516B"/>
<path id="Vector_56" d="M74.0716 96.5764L91.5108 100.195L113.703 104.801L121.999 106.522C122.79 106.687 123.057 105.463 122.263 105.294L104.825 101.676L82.6325 97.0703L74.3361 95.348C73.5465 95.1844 73.2782 96.407 74.0716 96.5755V96.5764Z" fill="#38516B"/>
<path id="Vector_57" d="M103.771 97.2729L118.154 100.257L135.449 103.846L142.566 105.323C143.355 105.487 143.623 104.264 142.83 104.095L128.447 101.111L111.152 97.5222L104.036 96.0455C103.245 95.8808 102.978 97.1044 103.77 97.2729H103.771Z" fill="#38516B"/>
<path id="Vector_58" d="M126.672 107.587L141.872 110.718C142.662 110.881 142.93 109.659 142.137 109.49L126.936 106.359C126.145 106.196 125.878 107.423 126.672 107.587Z" fill="#38516B"/>
<path id="Vector_59" d="M72.4123 101.638C80.0616 103.066 87.6624 104.725 95.2148 106.616C95.9986 106.809 96.263 105.584 95.4802 105.389C87.931 103.498 80.3299 101.839 72.6768 100.411C71.8844 100.263 71.619 101.49 72.4123 101.638Z" fill="#38516B"/>
<path id="Vector_60" d="M99.545 107.499L131.466 114.419L140.482 116.374C141.271 116.545 141.54 115.315 140.747 115.145L108.825 108.225L99.8124 106.271C99.0238 106.1 98.7545 107.33 99.5479 107.499H99.545Z" fill="#38516B"/>
<path id="Vector_61" d="M120.501 70.6259L148.563 76.351C149.349 76.5117 149.62 75.292 148.827 75.1293L120.764 69.4052C119.978 69.2444 119.712 70.4641 120.501 70.6259Z" fill="#38516B"/>
<path id="Vector_62" d="M119.604 74.703L147.667 80.4252C148.452 80.5859 148.719 79.3662 147.93 79.2045L119.867 73.4794C119.082 73.3186 118.815 74.5384 119.604 74.7001V74.703Z" fill="#38516B"/>
<path id="Vector_63" d="M118.874 79.8147L146.282 85.4753C147.068 85.637 147.334 84.4163 146.545 84.2536L119.141 78.5959C118.354 78.4332 118.089 79.6549 118.878 79.8166L118.874 79.8147Z" fill="#38516B"/>
<path id="Vector_64" d="M117.83 85.3589L132.137 88.1334C132.924 88.2865 133.194 87.0658 132.4 86.9127L118.093 84.1382C117.305 83.9852 117.035 85.2059 117.83 85.3589Z" fill="#38516B"/>
<path id="Vector_65" d="M135.934 89.1867L146.038 91.4211C146.822 91.5944 147.087 90.3737 146.301 90.1994L136.198 87.965C135.414 87.7918 135.148 89.0124 135.934 89.1867Z" fill="#38516B"/>
<path id="Vector_66" d="M116.738 90.4263C125.987 92.4961 135.283 94.3252 144.627 95.9136C145.417 96.0484 145.685 94.8277 144.891 94.6929C135.548 93.1045 126.251 91.2754 117.002 89.2056C116.218 89.0304 115.954 90.2511 116.738 90.4263Z" fill="#38516B"/>
<path id="Vector_67" d="M148.79 59.8672L146.486 70.5405L159.573 73.3717L148.79 59.8672Z" fill="#AFD0D3"/>
<path id="Vector_68" d="M52.1578 103.87C52.5511 102.803 53.2003 101.656 53.9485 100.582C52.0799 99.4493 49.3516 97.804 47.1869 96.5391C44.4403 103.798 41.0321 114.087 39.1934 119.729L48.6861 120.219L57.2826 117.353C57.2826 117.353 49.667 110.63 52.1578 103.87Z" fill="#FDBAA0"/>
<path id="Vector_69" d="M43.6141 142.266C54.4215 140.313 66.8272 127.741 69.7199 123.619C75.1236 115.912 83.0941 112.188 83.0585 110.688C83.0229 109.188 79.6666 105.96 72.5358 109.156C65.7607 112.191 60.8032 117.783 56.5718 117.159C54.8956 116.913 44.5585 116.347 44.5585 116.347C44.5585 116.347 39.4866 143.012 43.6141 142.266Z" fill="#FDBAA0"/>
<path id="Vector_70" d="M19.14 162.397C19.14 162.397 33.1026 152.393 32.5179 151.187C31.9332 149.981 19.4391 129.026 17.9004 122.438C17.9004 122.438 17.9244 121.171 16.0732 121.682C14.2219 122.192 -1.28906 127.875 -1.28906 127.875L2.25859 148.562L19.14 162.397Z" fill="white"/>
<path id="Vector_71" d="M-28.4724 130.503L-37.2285 167.343L5.21633 177.451C17.0835 168.565 23.7268 163.186 23.7653 161.08C23.7749 160.616 23.6066 160.028 23.2969 159.34C22.9344 158.534 22.3795 157.586 21.689 156.534C18.1644 151.143 11.1538 142.977 8.66781 136.472C7.28202 132.842 6.16743 129.919 4.99226 127.799C4.65235 127.171 4.26291 126.571 3.82766 126.005C2.42553 124.217 0.803165 123.471 -1.51257 123.901C-2.96471 124.171 -20.5847 127.524 -28.4724 130.503Z" fill="#38516B"/>
<path id="Vector_72" d="M28.8814 151.805C28.9681 151.595 28.9906 151.364 28.9461 151.141C28.9015 150.918 28.7919 150.713 28.6311 150.553C28.4703 150.392 28.2656 150.283 28.0428 150.239C27.82 150.195 27.5891 150.218 27.3794 150.305C27.1697 150.392 26.9905 150.54 26.8646 150.729C26.7386 150.918 26.6716 151.14 26.6719 151.368C26.6722 151.595 26.7398 151.817 26.8662 152.006C26.9927 152.195 27.1722 152.342 27.3822 152.429C27.5215 152.486 27.6709 152.516 27.8217 152.516C27.9725 152.516 28.1217 152.486 28.261 152.428C28.4002 152.37 28.5267 152.285 28.6332 152.178C28.7396 152.071 28.824 151.945 28.8814 151.805Z" fill="#445D78"/>
</g>
</g>
</g>
</g>
</svg>
