<svg width="231" height="135" viewBox="0 0 231 135" fill="none" xmlns="http://www.w3.org/2000/svg">
<g clip-path="url(#clip0_243_4849)">
<path d="M18.2404 134.587C18.2404 134.587 -10.0039 100.603 3.79998 65.616C12.7976 42.8104 46.5459 30.3141 65.5968 42.8104C73.7093 48.1328 99.7365 42.9899 113.634 20.9551C140.64 -21.8636 234.893 4.14139 217.731 69.8832C209.427 101.697 243.003 102.85 225.895 134.655L18.2404 134.587Z" fill="#FFE5F3"/>
<path d="M74.5714 134.345H74.6293C75.1021 134.337 75.4691 133.951 75.4221 133.506L72.2686 102.044L69.5166 102.289L74.0448 133.921C74.0664 134.043 74.1317 134.154 74.2285 134.232C74.3253 134.31 74.4471 134.35 74.5714 134.345Z" fill="#FFBDE0"/>
<path d="M44.2015 134.345H44.1435C43.6707 134.337 43.3037 133.951 43.3507 133.506L46.5042 102.044L49.2562 102.289L44.728 133.921C44.7066 134.043 44.6414 134.154 44.5445 134.232C44.4477 134.31 44.3258 134.35 44.2015 134.345Z" fill="#FFBDE0"/>
<path d="M96.8224 134.345H96.8803C97.3531 134.337 97.7201 133.951 97.6731 133.506L94.5196 102.044L91.7676 102.289L96.2966 133.921C96.3179 134.043 96.3829 134.154 96.4796 134.232C96.5763 134.31 96.6981 134.35 96.8224 134.345Z" fill="#8CB4F4"/>
<path d="M45.1412 97.4661L39.5423 69.8506C38.8242 66.1119 41.9256 62.6936 45.9533 62.785L56.7498 63.0316C58.5653 63.0719 60.3205 63.6902 61.7598 64.7963C63.199 65.9024 64.2472 67.4386 64.7514 69.1812L72.9429 97.4661H45.1412Z" fill="#FFBDE0"/>
<path d="M48.5279 97.4661L42.929 69.8506C42.2109 66.1119 45.3123 62.6936 49.34 62.785L60.1365 63.0316C61.9515 63.0727 63.7061 63.6913 65.1448 64.7973C66.5835 65.9034 67.6312 67.4392 68.1356 69.1812L76.3262 97.4661H48.5279Z" fill="#FFBDE0"/>
<path d="M89.4182 102.502H46.7008C46.2869 102.502 45.8901 102.338 45.5974 102.045C45.3048 101.753 45.1404 101.357 45.1404 100.943V97.4613H89.4182C89.832 97.4613 90.2289 97.6256 90.5215 97.9178C90.8141 98.2101 90.9785 98.6066 90.9785 99.0199V100.939C90.9791 101.144 90.9391 101.347 90.8609 101.537C90.7828 101.726 90.6679 101.899 90.523 102.044C90.378 102.189 90.2058 102.304 90.0162 102.383C89.8267 102.462 89.6234 102.502 89.4182 102.502Z" fill="#FFBDE0"/>
<path d="M66.7476 102.502H93.9782C94.6725 102.502 95.2354 101.94 95.2354 101.246V98.7213C95.2354 98.0278 94.6725 97.4655 93.9782 97.4655H66.7476C66.0533 97.4655 65.4904 98.0278 65.4904 98.7213V101.246C65.4904 101.94 66.0533 102.502 66.7476 102.502Z" fill="#FFBDE0"/>
<path d="M82.3548 91.6851C80.0437 95.7023 77.1371 97.2533 77.1371 97.2533H65.0439C65.0439 97.2533 84.1175 88.6216 82.3548 91.6851Z" fill="#233862"/>
<path d="M97.2687 131.601C97.1385 132.868 98.903 133.195 100.95 133.319C102.996 133.443 102.377 133.855 105.174 134.393C107.97 134.93 109.107 134.175 109.314 133.799C109.499 133.463 108.2 132.926 106.816 132.317C106.642 132.241 106.467 132.162 106.292 132.084C104.735 131.38 103.872 129.969 102.666 128.656C101.524 127.413 100.469 123.455 100.469 123.455L96.6641 122.604C96.6641 122.604 97.697 126.164 98.0523 127.682C98.2614 128.575 97.928 129.568 97.6324 130.323C97.4745 130.734 97.3141 131.154 97.2687 131.601Z" fill="#FDBAA0"/>
<path d="M100.947 133.319C102.994 133.443 102.375 133.855 105.171 134.392C107.968 134.93 109.105 134.175 109.312 133.798C109.496 133.463 108.197 132.925 106.813 132.316L106.791 132.34C105.401 132.725 103.932 132.727 102.54 132.345C100.693 131.821 98.9064 130.694 97.6308 130.322C97.472 130.733 97.3116 131.154 97.2663 131.601C97.1386 132.867 98.9031 133.194 100.947 133.319Z" fill="#236FE0"/>
<path d="M91.5043 87.5749C89.4569 86.1388 75.9151 83.5786 69.0035 82.8388L61.3613 76.2119C61.3613 76.2119 54.8595 85.8309 54.8108 93.1901C54.7865 96.621 56.3687 96.9649 56.3695 96.9649C56.3703 96.9649 80.8565 97.1461 81.9306 97.2568C83.6874 97.4372 86.0044 101.809 86.5839 105.791C87.1634 109.773 97.3745 125.969 97.3745 125.969C97.3745 125.969 99.5034 126.651 100.489 126.593C101.548 126.531 102.038 126.173 102.038 126.173C102.038 126.173 96.1216 90.8095 91.5043 87.5749Z" fill="#38516B"/>
<path d="M90.9347 131.601C90.8037 132.868 92.569 133.195 94.6156 133.319C96.6622 133.443 96.0433 133.855 98.8398 134.393C101.636 134.931 102.773 134.176 102.98 133.799C103.165 133.464 101.866 132.926 100.482 132.317C100.308 132.241 100.133 132.163 99.9584 132.085C98.4014 131.38 97.5381 129.969 96.3322 128.656C95.19 127.413 94.1344 123.455 94.1344 123.455L90.3301 122.601C90.3301 122.601 91.363 126.16 91.7183 127.678C91.9274 128.571 91.594 129.564 91.2984 130.319C91.1405 130.734 90.9801 131.154 90.9347 131.601Z" fill="#FDBAA0"/>
<path d="M94.6154 133.319C96.662 133.443 96.0431 133.855 98.8397 134.392C101.636 134.93 102.773 134.175 102.98 133.798C103.165 133.463 101.865 132.925 100.481 132.316L100.46 132.34C99.0691 132.725 97.6 132.727 96.2085 132.345C94.361 131.821 92.5747 130.694 91.2991 130.322C91.1403 130.733 90.9799 131.154 90.9346 131.601C90.8036 132.867 92.5688 133.194 94.6154 133.319Z" fill="#236FE0"/>
<path d="M85.1144 87.5753C83.3365 86.3279 77.987 85.3608 72.0815 84.6394C71.2839 84.5418 70.5347 84.2049 69.9327 83.6733C69.3307 83.1416 68.9043 82.4402 68.7097 81.6615L54.9755 76.209C54.9755 76.209 48.473 85.828 48.4251 93.1872C48.4007 96.618 49.9838 96.962 49.9838 96.962C49.9838 96.962 74.4716 97.1431 75.5448 97.2539C77.3017 97.4342 79.6187 101.806 80.1982 105.788C80.7776 109.77 90.9888 125.966 90.9888 125.966C90.9888 125.966 93.1185 126.648 94.1028 126.59C95.1618 126.528 95.6522 126.17 95.6522 126.17C95.6522 126.17 89.7316 90.8099 85.1144 87.5753Z" fill="#38516B"/>
<path d="M66.736 36.2454C64.8481 35.2556 61.9768 35.1214 61.5099 35.0585C55.9269 34.3094 52.5668 42.4126 52.3686 44.8729C52.005 49.4027 49.6074 50.0889 46.2381 52.9258C39.4726 58.6098 41.4571 65.214 45.1556 67.6676C47.3752 69.1398 51.2861 67.6676 51.2861 67.6676C51.3407 67.7062 61.9844 61.7244 67.2315 58.8388C75.0945 57.7123 71.5455 38.7678 66.736 36.2454Z" fill="#38516B"/>
<path d="M65.5707 56.0431C65.5951 56.0557 63.09 57.194 61.2819 56.5976C59.5804 56.0372 58.0822 53.4788 58.1057 53.4754C58.8439 53.368 59.5947 52.6366 59.8047 48.3291L60.1313 48.413L65.6295 49.8004C65.6295 49.8004 65.412 51.5402 65.3222 53.1852C65.2466 54.5651 65.2617 55.8795 65.5707 56.0431Z" fill="#FDBAA0"/>
<path d="M66.8031 50.0189C66.8031 50.0189 59.5321 51.2008 58.8645 46.6635C58.1968 42.1262 56.8095 39.2288 61.4234 38.2826C66.0372 37.3364 67.1953 38.9327 67.7865 40.3923C68.3778 41.8519 68.6767 49.5944 66.8031 50.0189Z" fill="#FDBAA0"/>
<path d="M66.8095 38.0948C66.8095 38.0948 63.5074 43.3006 60.5606 44.5337C57.6137 45.7668 56.165 45.1411 56.165 45.1411C57.0488 43.6876 57.624 42.068 57.8547 40.3831C57.9035 39.9879 58.0573 39.6128 58.3 39.2969C58.5428 38.981 58.8657 38.7357 59.2354 38.5863C61.3508 37.7425 65.4423 36.4054 66.8095 38.0948Z" fill="#38516B"/>
<path d="M63.9121 38.5985C63.9121 38.5985 65.8437 39.5933 66.6423 40.516C67.4116 41.4119 68.2992 43.8446 68.2379 44.9368C68.2379 44.9368 69.1919 39.7024 67.2041 37.9031C65.0937 35.9972 63.9121 38.5985 63.9121 38.5985Z" fill="#38516B"/>
<path d="M71.3864 67.1196C71.1655 81.8832 71.3259 78.7971 69.7068 80.198C69.3171 80.5335 68.222 80.7357 66.7809 80.8313C62.246 81.1316 54.2838 80.3859 53.9806 79.5496C52.9351 76.6547 53.6733 75.7555 52.8049 71.3239C52.7142 70.8533 52.6017 70.3433 52.469 69.7871C51.7417 66.7438 51.0346 65.7087 53.6136 60.819C55.9533 56.39 58.7045 52.7922 58.9229 52.9213C65.0946 56.5812 65.3054 53.5136 65.3054 53.5136C65.3054 53.5136 71.4964 59.9198 71.3864 67.1196Z" fill="white"/>
<path d="M65.3066 53.5127C65.3066 53.5127 71.6228 54.5822 72.3685 57.3135C73.1143 60.0448 77.5031 76.1036 77.5031 76.1036C77.5031 76.1036 74.2749 76.6824 72.7834 75.1926C71.2919 73.7028 67.5934 61.371 67.5934 61.371L65.3066 53.5127Z" fill="white"/>
<path d="M66.7846 80.8312C62.2497 81.1315 54.2875 80.3858 53.9843 79.5495C52.9388 76.6546 53.6769 75.7554 52.8086 71.3238L54.9921 65.1768C54.9921 65.1768 54.631 72.0226 56.6524 73.8227C58.6738 75.6229 64.9278 77.2989 65.9095 78.8038C66.3823 79.5226 66.6939 80.2491 66.7846 80.8312Z" fill="white"/>
<path d="M61.5928 77.951C61.5928 77.951 66.063 76.957 66.7844 77.3529C67.5058 77.7489 69.2686 79.1925 69.4894 79.695C69.7103 80.1975 67.8837 79.3133 67.2891 79.1548C66.9045 79.0516 65.8917 79.4064 65.3904 79.5742C63.2808 80.2763 61.9875 79.9156 61.9875 79.9156L61.5928 77.951Z" fill="#FDBAA0"/>
<path d="M58.9229 52.9209C58.9229 52.9209 52.595 53.2908 50.5173 56.1857C47.5923 60.2608 41.7893 77.629 45.1149 79.9417C48.8604 82.5505 62.1629 80.6245 62.1629 80.6245C62.1629 80.6245 62.6054 78.5576 61.9899 77.5586C61.3743 76.5595 51.3664 74.9439 50.9045 74.4825C50.4426 74.0211 56.6781 65.4859 56.6781 64.1018C56.6781 62.7177 58.9229 52.9209 58.9229 52.9209Z" fill="white"/>
<path d="M67.001 78.5996C67.001 78.5996 67.9374 79.8067 68.2447 79.951C68.5521 80.0953 68.7486 80.0584 68.7486 80.0584L68.1171 78.9242L67.001 78.5996Z" fill="#FFB27D"/>
<path d="M66.7852 77.3535L69.5086 78.6747C69.5086 78.6747 69.3927 78.8643 69.0577 78.8492C68.7226 78.8341 67.8761 78.5245 67.8761 78.5245L66.7852 77.3535Z" fill="#FDBAA0"/>
<path d="M76.818 80.4851H64.1689C64.1689 80.2182 64.2751 79.9621 64.4641 79.7733C64.6531 79.5846 64.9094 79.4785 65.1767 79.4785H76.818V80.4851Z" fill="#236FE0"/>
<path d="M76.781 66.7246H96.3375L91.6463 80.485H71.9639L76.781 66.7246Z" fill="#236FE0"/>
<path d="M96.6255 66.7246L91.9344 80.485H72.252L77.0691 66.7246H96.6255Z" fill="#236FE0"/>
<path d="M86.0825 73.4775C85.9608 74.0034 85.4359 74.4296 84.9068 74.4296C84.3777 74.4296 84.0527 74.0034 84.1737 73.4775C84.2946 72.9515 84.8203 72.5254 85.3494 72.5254C85.8785 72.5254 86.2035 72.9515 86.0825 73.4775Z" fill="white"/>
<path d="M145.498 80.4854H59.7971C59.4367 80.4854 59.1445 80.7772 59.1445 81.1371V82.9289C59.1445 83.2889 59.4367 83.5807 59.7971 83.5807H145.498C145.858 83.5807 146.151 83.2889 146.151 82.9289V81.1371C146.151 80.7772 145.858 80.4854 145.498 80.4854Z" fill="#38516B"/>
<path d="M147.596 134.575H147.633C147.736 134.564 147.836 134.532 147.927 134.482C148.018 134.432 148.098 134.364 148.162 134.283C148.227 134.201 148.275 134.108 148.303 134.008C148.331 133.909 148.34 133.804 148.327 133.701L140.69 82.0645L137.895 82.1483L146.88 134.063C146.912 134.224 147.004 134.366 147.137 134.461C147.27 134.556 147.434 134.597 147.596 134.575Z" fill="#38516B"/>
<path d="M56.9266 134.575H56.8905C56.7872 134.564 56.6873 134.532 56.5964 134.482C56.5056 134.432 56.4255 134.364 56.361 134.283C56.2964 134.201 56.2486 134.108 56.2203 134.008C56.1919 133.909 56.1837 133.804 56.1959 133.701L63.8331 82.0645L66.6288 82.1483L57.6429 134.063C57.6114 134.224 57.5197 134.366 57.3865 134.461C57.2533 134.557 57.0888 134.597 56.9266 134.575Z" fill="#38516B"/>
<path d="M74.607 134.575H74.5701C74.4669 134.564 74.367 134.532 74.2762 134.482C74.1854 134.431 74.1054 134.364 74.0408 134.282C73.9763 134.201 73.9285 134.108 73.9001 134.008C73.8717 133.908 73.8634 133.804 73.8755 133.701L81.5127 82.0645L84.3084 82.1483L75.3225 134.063C75.2908 134.224 75.1992 134.366 75.0662 134.461C74.9333 134.556 74.7691 134.597 74.607 134.575Z" fill="#38516B"/>
<path d="M231.676 134.087H-5.67584C-5.85487 134.087 -6 134.232 -6 134.411V134.677C-6 134.855 -5.85487 135 -5.67584 135H231.676C231.855 135 232 134.855 232 134.677V134.411C232 134.232 231.855 134.087 231.676 134.087Z" fill="#2E3552"/>
<path d="M119.662 134.533H134.816C135.545 133.644 135.277 130.366 135.167 129.296C135.144 129.08 135.129 128.954 135.129 128.954C135.129 128.954 129.953 124.82 129.243 127.985C129.221 128.085 129.195 128.182 129.166 128.278C128.27 131.239 124.253 132.585 121.934 132.96C120.425 133.208 119.868 133.986 119.662 134.533Z" fill="#236FE0"/>
<path d="M161.013 85.3467C160.466 85.3467 135.054 90.113 130.85 95.3096C128.751 97.91 128.438 127.891 128.438 127.891C128.438 127.891 131.037 131.109 136.648 129.241C136.648 129.241 140.763 108.725 140.457 102.503C140.373 100.782 157.82 102.251 161.013 101.428C164.206 100.605 172.008 93.6646 170.289 90.2841C168.57 86.9036 161.013 85.3467 161.013 85.3467Z" fill="#38516B"/>
<path d="M130.959 78.0039C130.959 78.0039 125.837 78.0727 124.621 78.5911C123.406 79.1095 120.95 80.3015 121.608 80.4844C122.267 80.6672 125.407 80.4089 126.084 80.5129C126.762 80.6169 127.6 80.4835 128.016 80.4844H130.367L130.959 78.0039Z" fill="#FDBAA0"/>
<path d="M124.966 65.7167C124.966 65.7167 123.218 64.4693 121.523 64.2269C120.554 64.0893 119.614 63.9165 119.045 63.7169C117.479 63.1658 114.342 60.3514 114.582 60.0209C115.342 58.9632 119.001 61.202 119.639 60.9621C120.277 60.7222 118.412 59.3968 119.061 58.9304C119.397 58.6872 120.192 59.9068 120.841 60.0293C121.717 60.1971 122.403 61.4319 122.667 61.4965C123.18 61.6223 125.431 63.2941 125.431 63.2941L124.966 65.7167Z" fill="#FDBAA0"/>
<path d="M158.482 51.1494C158.482 51.1494 154.58 52.3573 150.735 62.9318C146.891 73.5062 145.431 74.0775 144.034 74.4894C142.636 74.9012 130.37 77.3414 130.37 77.3414V80.4804H149.271C149.271 80.4804 156.357 73.7462 158.482 69.2131C160.606 64.6799 158.482 51.1494 158.482 51.1494Z" fill="#1DD6C9"/>
<path d="M112.965 134.533H128.119C128.848 133.644 128.579 130.366 128.469 129.296C128.447 129.08 128.431 128.954 128.431 128.954C128.431 128.954 123.256 124.82 122.545 127.985C122.523 128.085 122.497 128.182 122.468 128.278C121.573 131.239 117.556 132.585 115.237 132.96C113.728 133.208 113.171 133.986 112.965 134.533Z" fill="#236FE0"/>
<path d="M153.525 85.3467C152.978 85.3467 127.566 90.113 123.362 95.3096C121.263 97.91 120.95 127.891 120.95 127.891C120.95 127.891 123.549 131.109 129.159 129.241C129.159 129.241 133.274 108.725 132.969 102.503C132.885 100.782 150.332 102.251 153.525 101.428C156.719 100.605 164.52 93.6646 162.801 90.2841C161.082 86.9036 153.525 85.3467 153.525 85.3467Z" fill="#38516B"/>
<path d="M155.114 54.5006C156.942 54.3505 158.859 53.8631 160.516 53.3263C162.587 52.6552 164.255 51.6746 163.18 49.7838C162.189 48.0415 160.584 44.1493 160.693 40.9248L156.839 44.0285L154.223 46.1365C154.223 46.1365 154.233 47.378 154.519 49.5548C154.571 49.9516 154.633 50.3802 154.705 50.8382C154.733 51.0192 154.708 51.2046 154.631 51.3711C154.555 51.5376 154.431 51.6779 154.275 51.7744L154.215 51.8113C152.915 52.6241 153.584 54.6273 155.114 54.5006Z" fill="#FDBAA0"/>
<path d="M152.064 46C152.064 46 161.041 47.489 161.883 41.8897C162.725 36.2904 164.452 32.7145 158.757 31.5267C153.061 30.3389 151.623 32.3068 150.888 34.1069C150.152 35.9071 149.751 45.4649 152.064 46Z" fill="#FDBAA0"/>
<path d="M149.572 31.6321C149.186 32.9801 150.218 34.6217 151.949 35.1627C154.52 35.9647 153.951 39.1145 155.109 39.0718C156.266 39.029 156.732 37.2615 157.765 38.6733C158.647 39.8779 157.032 41.3064 157.143 41.9666C157.333 43.1007 159.112 45.421 160.714 45.3044C162.317 45.1878 165.316 37.5803 164.716 35.2265C164.116 32.8727 161.717 30.3914 159.446 30.0492C157.175 29.7069 154.023 30.6858 153.295 30.6858C152.567 30.6858 149.776 30.9039 149.572 31.6321Z" fill="#38516B"/>
<path d="M170.41 58.9186C169.112 53.7027 165.528 48.2334 163.102 48.2334C158.97 48.2409 153.031 49.3306 150.633 55.2394C148.87 59.5913 146.511 84.6241 149.174 86.4049C155.26 90.475 169.367 98.7829 171.873 90.3106C174.17 82.5479 172.661 67.9714 170.41 58.9186Z" fill="#1DD6C9"/>
<path d="M160.375 53.7276C160.101 53.0151 159.664 52.3766 159.099 51.8632C158.534 51.3498 157.856 50.9757 157.12 50.771C156.384 50.5662 155.61 50.5365 154.86 50.6842C154.111 50.8318 153.406 51.1528 152.803 51.6213C151.4 52.7118 149.683 54.2628 147.609 56.469C139.899 64.6703 138.332 64.6192 136.884 64.4497C135.437 64.2803 123.202 61.6866 123.202 61.6866C122.788 62.0136 122.449 62.4255 122.207 62.8945C121.715 63.891 121.963 64.5722 121.963 64.5722C121.483 64.2627 126.299 67.5786 128.696 68.9006C131.862 70.6471 136.632 72.2837 138.532 72.9052C139.07 73.0811 139.652 73.0725 140.185 72.8809C143.005 71.8651 152.474 68.1658 160.184 61.7461C162.214 60.0533 161.468 56.5671 160.375 53.7276Z" fill="#1DD6C9"/>
<path d="M163.518 48.2843L162.582 46.1797C162.582 46.1797 154.209 46.8617 152.803 51.6213C152.803 51.6213 159.293 48.3867 163.518 48.2843Z" fill="white"/>
<path d="M183.846 134.345H183.903C184.376 134.337 184.743 133.951 184.697 133.506L181.543 102.044L178.791 102.289L183.319 133.921C183.341 134.043 183.406 134.154 183.503 134.232C183.6 134.31 183.721 134.35 183.846 134.345Z" fill="#236FE0"/>
<path d="M167.611 134.345H167.669C168.142 134.337 168.509 133.951 168.463 133.506L165.309 102.044L162.557 102.289L167.086 133.921C167.107 134.043 167.172 134.154 167.269 134.232C167.365 134.31 167.487 134.35 167.611 134.345Z" fill="#236FE0"/>
<path d="M137.135 134.345H137.077C136.604 134.337 136.237 133.951 136.283 133.506L139.438 102.044L142.19 102.289L137.661 133.921C137.64 134.043 137.574 134.154 137.478 134.232C137.381 134.31 137.259 134.35 137.135 134.345Z" fill="#236FE0"/>
<path d="M182.953 97.5848L185.947 71.3072C186.34 67.5207 185.071 63.813 179.6 63.5253L169.975 62.9381C164.271 62.7032 161.696 67.4452 160.973 71.0967L155.263 99.9822L182.953 97.5848Z" fill="#236FE0"/>
<path d="M138.628 97.4658H182.905V100.944C182.905 101.357 182.741 101.753 182.448 102.046C182.156 102.338 181.759 102.502 181.345 102.502H138.628C138.214 102.502 137.817 102.338 137.524 102.046C137.232 101.753 137.067 101.357 137.067 100.944V99.0244C137.067 98.611 137.232 98.2146 137.524 97.9223C137.817 97.63 138.214 97.4658 138.628 97.4658Z" fill="#236FE0"/>
<path d="M156.472 97.4658H182.906V101.292C182.907 101.451 182.876 101.609 182.815 101.756C182.754 101.904 182.665 102.038 182.553 102.15C182.44 102.263 182.306 102.353 182.159 102.414C182.012 102.475 181.854 102.506 181.694 102.506H156.472C156.15 102.506 155.842 102.379 155.615 102.152C155.387 101.925 155.26 101.617 155.26 101.296V98.6805C155.259 98.5212 155.29 98.3633 155.351 98.216C155.411 98.0686 155.501 97.9347 155.613 97.8218C155.726 97.709 155.86 97.6195 156.007 97.5584C156.154 97.4973 156.312 97.4658 156.472 97.4658Z" fill="#236FE0"/>
</g>
<defs>
<clipPath id="clip0_243_4849">
<rect width="231" height="135" fill="white"/>
</clipPath>
</defs>
</svg>
