<svg width="79" height="79" viewBox="0 0 79 79" fill="none" xmlns="http://www.w3.org/2000/svg">
<g id="Frame" clip-path="url(#clip0_764_640)">
<path id="Vector" d="M72.6864 53.5726C65.3778 70.7728 45.9094 80.4085 29.0263 77.8092C26.2789 77.3863 18.7473 76.1263 12.0792 70.1818C-0.757517 58.7408 -3.50269 36.0841 6.85152 20.1174C14.3888 8.4966 27.899 1.90909 40.7362 2.23834C43.5014 2.30919 54.0986 2.74675 63.4118 10.4222C64.781 11.5486 67.7967 14.2288 70.5157 18.479C76.9006 28.4592 77.4494 42.3628 72.6864 53.5726Z" fill="url(#paint0_linear_764_640)"/>
<path id="Vector_2" d="M62.2869 35.6124C68.8893 35.6124 74.2417 30.2254 74.2417 23.5801C74.2417 16.9349 68.8893 11.5479 62.2869 11.5479C55.6844 11.5479 50.332 16.9349 50.332 23.5801C50.332 30.2254 55.6844 35.6124 62.2869 35.6124Z" fill="#FFBDE0"/>
<g id="Clip path group">
<mask id="mask0_764_640" style="mask-type:luminance" maskUnits="userSpaceOnUse" x="50" y="12" width="24" height="24">
<g id="clip-path">
<path id="Vector_3" d="M62.2771 35.0464C68.5635 35.0464 73.6596 29.9172 73.6596 23.5901C73.6596 17.2629 68.5635 12.1338 62.2771 12.1338C55.9907 12.1338 50.8945 17.2629 50.8945 23.5901C50.8945 29.9172 55.9907 35.0464 62.2771 35.0464Z" fill="white"/>
</g>
</mask>
<g mask="url(#mask0_764_640)">
<g id="Group">
<path id="Vector_4" d="M76.5425 38.0097L48.9801 38.9152C48.9 38.9176 48.8222 38.8881 48.7637 38.8329C48.7052 38.7778 48.6707 38.7016 48.6678 38.621L47.6759 8.00122C47.6735 7.92059 47.7028 7.84227 47.7576 7.7834C47.8124 7.72453 47.8882 7.68993 47.9683 7.68717L75.5306 6.78138C75.6108 6.77903 75.6886 6.80868 75.7471 6.86385C75.8056 6.91903 75.84 6.99525 75.8429 7.07589L76.8359 37.6957C76.8382 37.7764 76.8087 37.8548 76.7537 37.9137C76.6987 37.9726 76.6227 38.0071 76.5425 38.0097Z" fill="white"/>
<path id="Vector_5" d="M56.4222 24.9978C56.4222 24.9978 63.3176 23.6678 68.8374 24.9574L68.6572 30.6606C68.6572 30.6606 67.4539 38.6025 66.4727 42.1266C66.4727 42.1266 62.3014 42.9987 60.2591 41.9638C60.2591 41.9638 58.296 32.1041 57.3364 30.6654C57.3378 30.6649 56.2995 26.8398 56.4222 24.9978Z" fill="#445D78"/>
<path id="Vector_6" d="M61.0751 19.8232L60.5371 24.5463C60.5371 24.5463 62.4951 25.375 63.8157 24.4002L63.4174 21.093L61.0751 19.8232Z" fill="#FDBAA0"/>
<path id="Vector_7" d="M63.9483 16.6658C63.9715 16.7046 64.4645 19.061 64.7681 20.5202C64.7978 20.6624 64.7972 20.8092 64.7664 20.9511C64.7356 21.093 64.6754 21.2267 64.5896 21.3435C64.5039 21.4603 64.3945 21.5575 64.2688 21.6288C64.1431 21.7 64.0038 21.7437 63.8601 21.7569L63.3021 21.8085C62.8077 21.8543 62.314 21.7128 61.9179 21.4115C61.5217 21.1103 61.2515 20.671 61.1602 20.1798L60.6699 17.5358C60.6699 17.5358 63.3892 15.7193 63.9483 16.6658Z" fill="#FDBAA0"/>
<path id="Vector_8" d="M60.0672 17.5602C59.8442 17.2988 59.6432 16.8713 60.0847 16.4003C60.5319 15.9234 61.0597 16.0203 61.3973 16.1653C61.5467 16.2288 61.7269 16.1924 61.8288 16.0645C61.854 16.0321 61.8871 16.0068 61.9249 15.9913C61.9628 15.9757 62.004 15.9704 62.0446 15.9758C62.09 15.9807 62.1359 15.9764 62.1796 15.9632C62.2234 15.95 62.2641 15.9282 62.2993 15.899C62.3346 15.8698 62.3637 15.8338 62.3851 15.7932C62.4064 15.7526 62.4194 15.7081 62.4235 15.6623C62.4521 15.3276 62.6158 14.9294 63.1975 14.7964C64.2644 14.5521 64.8353 15.6161 64.8407 16.377C64.8461 17.1378 63.6746 17.3362 63.0028 17.232C62.5092 17.1555 62.099 17.6031 61.9162 17.8463C61.8835 17.8897 61.861 17.9401 61.8506 17.9936C61.8402 18.0471 61.8421 18.1022 61.856 18.1549L62.0497 18.8837C61.9394 19.1158 61.8315 19.3527 61.6721 19.5531C61.5578 19.6972 61.4294 19.7789 61.2927 19.8161C61.0804 19.4477 60.5184 19.4024 60.2579 19.4027C60.2087 19.4028 60.1601 19.3927 60.115 19.373C60.07 19.3533 60.0294 19.3244 59.996 19.2881C59.7924 19.068 59.4687 18.5726 60.0408 18.0566C60.1084 17.9936 60.149 17.9065 60.154 17.8138C60.1589 17.7211 60.1278 17.6301 60.0672 17.5602Z" fill="#38516B"/>
<path id="Vector_9" d="M61.5119 20.5964C61.5119 20.5964 61.4458 19.2713 60.9086 19.1643C60.3714 19.0574 59.8086 19.4643 60.2902 20.243C60.8897 21.212 61.5119 20.5964 61.5119 20.5964Z" fill="#FDBAA0"/>
<path id="Vector_10" d="M56.4221 24.998C56.4221 24.998 46.0414 37.1009 58.8644 41.1822L58.8344 40.2642C58.8344 40.2642 53.9611 36.3813 57.4304 30.7539C57.4304 30.7539 56.8048 25.5369 56.4221 24.998Z" fill="#445D78"/>
<path id="Vector_11" d="M68.8369 24.958C68.8369 24.958 80.4236 35.9716 67.8929 40.886L67.8633 39.968C67.8633 39.968 72.475 35.7734 68.6481 30.3862C68.6478 30.3868 68.137 25.8999 68.8369 24.958Z" fill="#445D78"/>
</g>
</g>
</g>
<path id="Vector_12" d="M35.9197 29.088C42.5221 29.088 47.8745 23.701 47.8745 17.0557C47.8745 10.4105 42.5221 5.02344 35.9197 5.02344C29.3172 5.02344 23.9648 10.4105 23.9648 17.0557C23.9648 23.701 29.3172 29.088 35.9197 29.088Z" fill="#FFBDE0"/>
<g id="Clip path group_2">
<mask id="mask1_764_640" style="mask-type:luminance" maskUnits="userSpaceOnUse" x="24" y="5" width="24" height="24">
<g id="clip-path-2">
<path id="Vector_13" d="M35.9099 28.521C42.1963 28.521 47.2924 23.3918 47.2924 17.0647C47.2924 10.7376 42.1963 5.6084 35.9099 5.6084C29.6235 5.6084 24.5273 10.7376 24.5273 17.0647C24.5273 23.3918 29.6235 28.521 35.9099 28.521Z" fill="white"/>
</g>
</mask>
<g mask="url(#mask1_764_640)">
<g id="Group_2">
<path id="Vector_14" d="M50.1742 31.4853L22.6118 32.3908C22.5319 32.393 22.4544 32.3632 22.3961 32.3081C22.3378 32.253 22.3035 32.177 22.3006 32.0966L21.3068 1.47682C21.3043 1.39619 21.3337 1.31787 21.3885 1.259C21.4433 1.20014 21.519 1.16553 21.5991 1.16277L49.1612 0.256981C49.2413 0.254492 49.3191 0.284062 49.3776 0.339214C49.4361 0.394365 49.4705 0.470601 49.4732 0.551219L50.4665 31.171C50.4689 31.2516 50.4395 31.3299 50.3847 31.3888C50.33 31.4477 50.2543 31.4824 50.1742 31.4853Z" fill="white"/>
<path id="Vector_15" d="M35.4197 11.9014C35.4197 11.9014 35.6409 12.3085 34.3202 13.0067C33.5837 13.3956 32.1451 13.9838 32.0081 15.5525C31.9375 16.3627 31.3671 17.0304 30.5731 17.1811C28.5952 17.5592 25.5677 18.7087 25.2004 22.2013C24.9212 24.8693 26.2993 25.8261 27.7217 26.1247C28.7662 26.3418 29.4903 27.3323 29.3183 28.392C29.1529 29.4085 29.4941 30.5635 31.2641 31.4248C35.2301 33.352 38.8712 26.2474 38.8712 26.2474L39.2367 14.0563L35.4197 11.9014Z" fill="#38516B"/>
<path id="Vector_16" d="M36.353 29.3585C37.4086 24.0112 34.1523 21.1248 34.1523 21.1248C35.6947 19.5246 38.3156 18.5621 39.2862 18.2456C39.4032 18.2074 39.5277 18.1981 39.649 18.2186C39.7704 18.2391 39.885 18.2886 39.9833 18.3632C40.8488 19.0165 43.1444 20.9217 42.869 22.5531C42.6694 23.7281 40.6872 29.6264 40.6872 29.6264C40.6872 29.6264 38.6974 30.6636 36.353 29.3585Z" fill="#FF9BD0"/>
<path id="Vector_17" d="M37.2788 14.7064L36.4298 19.3118C36.3473 19.719 36.7097 19.6389 37.1113 19.5475C37.7691 19.3982 38.6135 19.1088 38.8802 18.5798C38.9059 18.5251 38.9215 18.4661 38.926 18.4058L39.2478 15.221C39.2602 15.0981 39.2325 14.9744 39.169 14.8687C39.1054 14.7629 39.0095 14.6808 38.8956 14.6347L38.0442 14.2908C37.9671 14.2598 37.8843 14.2462 37.8015 14.2509C37.7186 14.2557 37.6379 14.2787 37.5649 14.3183C37.4919 14.358 37.4284 14.4133 37.379 14.4803C37.3295 14.5474 37.2953 14.6245 37.2788 14.7064Z" fill="#FDBAA0"/>
<path id="Vector_18" d="M39.0663 10.4709C39.0663 10.4709 40.1686 11.1655 40.6972 13.0162C41.2257 14.8669 40.4981 15.5636 39.7263 15.5503C38.9544 15.537 37.829 15.3373 36.8136 14.0325C35.7982 12.7277 37.6243 9.62568 39.0663 10.4709Z" fill="#FDBAA0"/>
<path id="Vector_19" d="M37.764 13.2438C37.764 13.2438 37.2747 10.5824 39.4965 10.9124L39.9592 11.3638C39.9592 11.3638 40.9962 10.1006 39.7678 9.21786C38.5393 8.33515 36.8888 8.63183 36.0307 10.35C35.1725 12.0682 34.8815 13.2642 35.6879 14.2837C36.4943 15.3032 37.0412 14.3844 37.0412 14.3844C37.0412 14.3844 36.6563 13.4906 36.9352 13.0913C37.2141 12.692 37.6137 13.2932 37.6137 13.2932L37.764 13.2438Z" fill="#38516B"/>
<path id="Vector_20" d="M37.4693 13.484C37.4693 13.484 37.2266 12.1144 36.5413 12.534C35.8561 12.9537 36.838 13.8098 37.2304 14.1008L37.4693 13.484Z" fill="#FDBAA0"/>
<path id="Vector_21" d="M34.14 21.2031C34.14 21.2031 32.1173 24.7356 31.7794 27.3428C31.4415 29.9499 35.5572 30.8831 37.0057 29.3175L36.7528 28.2453C36.7528 28.2453 34.4065 28.761 34.1473 27.4739C33.8881 26.1867 35.9407 23.5171 35.9407 23.5171C35.9407 23.5171 35.2282 21.5967 34.14 21.2031Z" fill="#FF9BD0"/>
<path id="Vector_22" d="M28.1459 24.5589C28.0795 24.5561 28.015 24.5356 27.959 24.4994C27.0256 23.9338 26.4954 22.7172 26.6696 21.5408C26.774 20.835 27.0976 20.2194 27.5812 19.8036C27.9242 19.5096 28.3363 19.3231 28.7295 19.1573C29.3916 18.8777 30.075 18.628 30.7611 18.4146L30.9299 18.3625C31.3307 18.2398 31.7452 18.1125 32.1166 17.9087C32.5918 17.6473 32.9316 17.2803 33.0737 16.8753C33.1621 16.6234 33.1816 16.3463 33.198 16.0786C33.2199 15.7488 33.2425 15.4079 33.396 15.1107C33.3974 15.1079 33.3994 15.1054 33.4018 15.1033C33.4042 15.1013 33.407 15.0997 33.41 15.0988C33.413 15.0978 33.4162 15.0975 33.4193 15.0977C33.4225 15.098 33.4255 15.0989 33.4283 15.1004C33.4311 15.1018 33.4336 15.1038 33.4356 15.1063C33.4377 15.1087 33.4392 15.1115 33.4402 15.1145C33.4411 15.1175 33.4415 15.1207 33.4412 15.1239C33.4409 15.1271 33.44 15.1301 33.4386 15.1329C33.2894 15.4212 33.2673 15.7573 33.246 16.083C33.2282 16.3544 33.2096 16.6343 33.119 16.8927C32.9728 17.3085 32.6249 17.685 32.1395 17.9513C31.7635 18.1578 31.3466 18.2857 30.9434 18.4095C30.8873 18.4266 30.8309 18.4437 30.7751 18.4613C30.0904 18.6741 29.4083 18.9228 28.7476 19.2023C28.3582 19.3652 27.9496 19.5514 27.6119 19.8408C27.1373 20.2479 26.8193 20.854 26.7168 21.5473C26.5453 22.705 27.0674 23.9017 27.9844 24.4574C28.0504 24.4975 28.1753 24.5456 28.2244 24.4712C28.2262 24.4686 28.2284 24.4663 28.2311 24.4646C28.2337 24.4628 28.2367 24.4616 28.2398 24.461C28.2429 24.4604 28.2461 24.4604 28.2492 24.461C28.2523 24.4617 28.2552 24.4629 28.2578 24.4647C28.2605 24.4665 28.2627 24.4688 28.2644 24.4714C28.2662 24.4741 28.2674 24.477 28.268 24.4802C28.2686 24.4833 28.2686 24.4865 28.2679 24.4896C28.2673 24.4927 28.2661 24.4957 28.2643 24.4983C28.2514 24.5179 28.2338 24.5337 28.213 24.5443C28.1923 24.5549 28.1692 24.5599 28.1459 24.5589Z" fill="#91B3FA"/>
<path id="Vector_23" d="M27.8764 23.4683C27.8726 23.4684 27.8688 23.4675 27.8653 23.4658C27.8619 23.464 27.8589 23.4614 27.8567 23.4582C27.4862 22.9425 27.2834 22.3926 27.2702 21.8706C27.2548 21.258 27.5169 20.6784 27.9549 20.3582C27.96 20.3544 27.9664 20.3528 27.9727 20.3538C27.979 20.3548 27.9846 20.3582 27.9884 20.3633C27.9921 20.3685 27.9937 20.375 27.9927 20.3813C27.9918 20.3877 27.9883 20.3934 27.9832 20.3972C27.5579 20.7083 27.3031 21.2724 27.3182 21.8692C27.3311 22.3817 27.5307 22.9213 27.8956 23.4303C27.8974 23.4328 27.8988 23.4357 27.8995 23.4388C27.9003 23.4418 27.9004 23.445 27.8999 23.4481C27.8994 23.4512 27.8983 23.4542 27.8966 23.4569C27.8949 23.4596 27.8928 23.4619 27.8902 23.4637C27.8863 23.4668 27.8814 23.4684 27.8764 23.4683Z" fill="#91B3FA"/>
</g>
</g>
</g>
<path id="Vector_24" d="M63.9392 64.8087C70.5417 64.8087 75.894 59.4217 75.894 52.7764C75.894 46.1312 70.5417 40.7441 63.9392 40.7441C57.3367 40.7441 51.9844 46.1312 51.9844 52.7764C51.9844 59.4217 57.3367 64.8087 63.9392 64.8087Z" fill="#FFBDE0"/>
<g id="Clip path group_3">
<mask id="mask2_764_640" style="mask-type:luminance" maskUnits="userSpaceOnUse" x="52" y="41" width="24" height="24">
<g id="clip-path-3">
<path id="Vector_25" d="M63.9294 64.2417C70.2158 64.2417 75.312 59.1125 75.312 52.7854C75.312 46.4583 70.2158 41.3291 63.9294 41.3291C57.643 41.3291 52.5469 46.4583 52.5469 52.7854C52.5469 59.1125 57.643 64.2417 63.9294 64.2417Z" fill="white"/>
</g>
</mask>
<g mask="url(#mask2_764_640)">
<g id="Group_3">
<path id="Vector_26" d="M78.1921 67.206L50.6297 68.1115C50.5496 68.1139 50.4718 68.0844 50.4133 68.0292C50.3548 67.9741 50.3203 67.8979 50.3174 67.8173L49.3263 37.1975C49.324 37.1169 49.3534 37.0387 49.4082 36.9799C49.4629 36.921 49.5386 36.8864 49.6186 36.8835L77.181 35.9777C77.2611 35.9753 77.339 36.0049 77.3975 36.0601C77.456 36.1153 77.4905 36.1915 77.4933 36.2722L78.4863 66.8917C78.4887 66.9726 78.459 67.0512 78.4038 67.1102C78.3487 67.1691 78.2725 67.2036 78.1921 67.206Z" fill="white"/>
<path id="Vector_27" d="M61.9274 46.7649C61.905 46.8075 60.498 47.8507 60.498 47.8507C60.498 47.8507 60.809 50.0892 62.0712 50.9722C63.4592 51.9439 65.4194 50.1717 65.4194 50.1717C65.4194 50.1717 66.9792 50.545 67.8088 47.2768C67.9976 46.5271 66.9005 46.4625 65.5744 46.6018C63.8641 46.7801 61.9274 46.7649 61.9274 46.7649Z" fill="#38516B"/>
<path id="Vector_28" d="M59.2967 54.4019C59.8469 54.0201 60.4572 53.7345 61.1018 53.5569C61.3445 53.4904 62.6535 53.8734 63.4626 53.8555C64.5735 53.8284 65.7043 53.3211 66.6199 53.5507C67.5295 53.7787 68.2739 54.0767 68.7038 54.3846C69.9905 55.3055 70.7459 57.0229 71.2062 58.724C70.3346 59.6247 69.2375 60.0248 69.2375 60.0248L69.035 68.2936L64.177 70.7951L58.6311 67.9925L58.8296 59.9121C58.8296 59.9121 57.0688 59.0867 56.9396 58.7865C56.8104 58.4862 57.7433 55.4771 59.2967 54.4019Z" fill="#FF9BD0"/>
<path id="Vector_29" d="M57.021 58.75C57.021 58.75 54.6617 65.334 60.0415 68.0399C61.1588 67.8904 60.7292 66.0232 60.7292 66.0232C60.7292 66.0232 58.3912 65.5023 59.0932 60.0103C58.4473 59.4747 57.021 58.75 57.021 58.75Z" fill="#FDBAA0"/>
<path id="Vector_30" d="M71.0919 58.75C71.0919 58.75 72.7154 65.6228 68.0714 68.0399C66.9543 67.8904 67.3839 66.0232 67.3839 66.0232C67.3839 66.0232 69.2683 65.0892 69.0196 60.0103C69.6655 59.4747 71.0919 58.75 71.0919 58.75Z" fill="#FDBAA0"/>
<path id="Vector_31" d="M61.1016 53.5567C61.1016 53.5567 61.5924 55.6978 63.9759 55.6533C66.4031 55.6087 66.6189 53.5496 66.6189 53.5496L65.0334 53.2081L64.9007 51.4297L62.5155 51.6075L62.4713 53.2969L61.1016 53.5567Z" fill="#FDBAA0"/>
<path id="Vector_32" d="M62.8503 46.3916C62.8503 46.3916 60.117 51.7207 63.3595 53.0147C65.6468 53.9264 67.0812 49.4754 66.653 48.27C65.9917 46.406 65.5561 46.6272 65.5561 46.6272L62.8503 46.3916Z" fill="#FDBAA0"/>
<path id="Vector_33" d="M67.3107 45.9061C68.6611 46.2796 67.5071 49.2274 65.4739 48.5303C63.4407 47.8333 62.6421 47.8433 62.325 48.4055C62.0078 48.9676 61.9401 50.9627 61.2527 49.9763C60.4992 48.8951 60.079 46.7247 61.003 46.0249C61.8287 45.4006 62.0216 44.4303 63.0119 44.4639C64.3266 44.5084 65.3433 43.921 65.9369 44.345C66.6184 44.8309 66.3164 45.6314 67.3107 45.9061Z" fill="#38516B"/>
<path id="Vector_34" d="M62.2014 48.864C62.2014 48.864 61.6184 48.2326 61.5251 48.9935C61.4317 49.7543 61.7314 50.7345 62.0822 50.1973C62.4331 49.6601 62.2014 48.864 62.2014 48.864Z" fill="#FDBAA0"/>
</g>
</g>
</g>
<path id="Vector_35" d="M62.3962 28.9717C62.3962 28.9717 57.1796 30.1296 54.0064 31.6046C53.3781 31.8974 52.8747 32.4068 52.5873 33.0408C51.6385 35.1328 48.7992 40.3794 43.293 42.8831C44.0859 43.9417 45.3628 46.1458 45.9189 49.8493C49.2259 47.3719 52.0811 43.2346 53.4517 36.4495C53.4517 36.4495 54.4954 37.0195 55.798 36.3841C56.4859 36.0478 57.2813 35.5698 57.8765 35.1957C58.4717 34.8217 58.9132 34.2408 59.085 33.5622C59.312 32.6665 59.1783 31.8793 59.1783 31.0332L61.8598 30.1969C61.8598 30.1969 62.6654 29.8902 62.3962 28.9717Z" fill="#FDBAA0"/>
<path id="Vector_36" d="M7.27457 71.152C7.91786 69.5394 8.72664 67.9987 9.68775 66.5552C8.07743 63.8215 7.60062 60.0874 10.4583 55.2251C12.5419 60.8878 13.5195 69.1498 13.7237 72.8077C13.762 73.4936 13.5505 74.5574 13.3615 75.3459C13.329 75.4808 13.3239 75.6209 13.3467 75.7578C13.3694 75.8947 13.4195 76.0256 13.4939 76.1425C13.5683 76.2593 13.6654 76.3599 13.7794 76.4379C13.8934 76.516 14.022 76.57 14.1573 76.5967C18.447 77.4327 22.5838 77.8212 26.3657 77.1694C26.6382 77.1222 26.8906 76.9947 27.0912 76.8031C27.2917 76.6115 27.4314 76.3644 27.4924 76.0929C29.9647 65.1081 29.9496 57.5464 29.3015 52.7072C31.8636 53.2832 39.6927 54.5123 45.919 49.8482C45.3629 46.1447 44.0851 43.9414 43.293 42.882C39.8726 44.4374 35.4232 44.9346 29.7573 42.9586C29.2351 42.7772 28.6906 42.6691 28.1391 42.6372C25.1229 42.4591 15.1832 42.1345 6.95876 44.8692C6.10535 45.1521 5.32079 45.6129 4.65628 46.2216C3.99176 46.8303 3.46221 47.5731 3.10219 48.4017C0.876974 53.5397 -2.72501 65.2436 7.27457 71.152Z" fill="#FFBDE0"/>
<path id="Vector_37" d="M15.421 35.875C15.421 35.875 14.8514 41.9354 14.349 43.728C14.312 43.8601 14.3202 44.0009 14.3721 44.1278C14.4241 44.2548 14.5169 44.3605 14.6357 44.428C15.4868 44.9166 17.5278 45.7157 20.3199 44.3384C20.54 44.2285 20.7237 44.0566 20.8485 43.8436C20.9733 43.6306 21.034 43.3857 21.023 43.1387L20.7781 37.281L15.421 35.875Z" fill="#FDBAA0"/>
<path id="Vector_38" d="M20.9013 28.1211C20.9013 28.1211 22.7227 32.3324 22.8452 34.543C22.9676 36.7536 23.4407 38.1876 20.9013 38.6328C18.3619 39.0779 16.2227 37.8046 15.0638 35.6027C15.0638 35.6027 13.248 32.2098 13.6552 30.8205C14.0625 29.4313 20.9013 28.1211 20.9013 28.1211Z" fill="#FDBAA0"/>
<path id="Vector_39" d="M15.9318 34.0206L16.0763 33.9565C16.12 33.9373 16.1592 33.9093 16.1917 33.8742C16.2242 33.8391 16.2492 33.7978 16.2652 33.7526C16.2811 33.7074 16.2877 33.6594 16.2846 33.6116C16.2814 33.5637 16.2685 33.5171 16.2468 33.4744C15.8886 32.7782 15.1907 31.1824 16.0925 30.8103C17.2546 30.3304 21.8582 29.3855 22.8515 27.7414C23.8062 26.1614 22.9593 24.1215 21.6891 23.5414C21.6486 23.5221 21.6023 23.5191 21.5597 23.5331C21.5171 23.5471 21.4815 23.577 21.4601 23.6166L21.3542 23.818C21.3382 23.8487 21.3134 23.8739 21.2831 23.8902C21.2527 23.9066 21.2182 23.9135 21.184 23.9099C21.1498 23.9064 21.1174 23.8926 21.091 23.8704C21.0646 23.8482 21.0454 23.8185 21.0359 23.7852C21.0269 23.753 21.0089 23.7241 20.9838 23.702C20.9588 23.6799 20.928 23.6656 20.8951 23.6609C20.8622 23.6562 20.8286 23.6611 20.7984 23.6753C20.7683 23.6894 20.7428 23.712 20.7252 23.7404C20.4199 24.2323 19.5955 25.0297 17.3913 25.4391C14.2586 26.021 12.1863 27.2971 12.1359 29.4759C12.1354 29.507 12.1266 29.5374 12.1104 29.5639C12.0943 29.5904 12.0714 29.6121 12.0442 29.6267C12.0169 29.6414 11.9862 29.6484 11.9554 29.6471C11.9245 29.6457 11.8945 29.6361 11.8686 29.6192C11.6375 29.4772 11.2672 29.4107 10.7726 29.8293C9.91228 30.5576 10.2642 32.4462 12.1502 33.9999C12.1714 34.0166 12.1885 34.038 12.2 34.0626C12.2115 34.0871 12.2171 34.114 12.2163 34.1411C12.2155 34.1682 12.2084 34.1948 12.1955 34.2186C12.1826 34.2424 12.1643 34.2628 12.1421 34.2782C11.8001 34.5021 11.2904 35.0352 12.6113 35.7458C13.9773 36.4806 14.9976 36.4203 15.3891 36.3552C15.4122 36.3513 15.4343 36.3427 15.454 36.3299C15.4737 36.3172 15.4905 36.3005 15.5036 36.2809C15.5167 36.2614 15.5256 36.2393 15.5299 36.2161C15.5342 36.193 15.5337 36.1692 15.5286 36.1462L15.1092 34.2315C15.1036 34.2061 15.1038 34.1798 15.1097 34.1545C15.1156 34.1291 15.127 34.1055 15.1432 34.0852C15.1594 34.0649 15.1799 34.0486 15.2031 34.0374C15.2264 34.0261 15.2519 34.0203 15.2778 34.0203L15.9318 34.0206Z" fill="#38516B"/>
<path id="Vector_40" d="M16.0089 34.4248C16.0089 34.4248 15.3139 31.7346 14.1157 32.4889C12.9175 33.2432 14.7376 35.5018 15.7009 35.6036L16.0089 34.4248Z" fill="#FDBAA0"/>
<path id="Vector_41" d="M15.9217 74.0651L23.973 74.1653L21.1553 71.4957C20.4541 70.8323 19.3858 70.7248 18.5773 71.2514C18.0358 71.6006 17.5526 72.0339 17.1458 72.5353C17.1458 72.5353 12.1233 70.6879 9.68858 66.5547C8.72747 67.9983 7.91869 69.5389 7.27539 71.1515C9.45799 72.4422 12.2873 73.4563 15.9217 74.0651Z" fill="#FDBAA0"/>
<path id="Vector_42" d="M16.7887 75.1098C16.8043 75.1098 16.8197 75.1098 16.8356 75.1098L37.273 75.0875C37.3919 75.0874 37.5095 75.0637 37.6193 75.0178C37.7291 74.9719 37.8288 74.9047 37.9127 74.82C37.9967 74.7354 38.0632 74.6349 38.1086 74.5243C38.154 74.4137 38.1773 74.2953 38.1771 74.1756C38.177 74.056 38.1535 73.9376 38.1079 73.8271C38.0623 73.7166 37.9955 73.6163 37.9114 73.5318C37.8273 73.4473 37.7274 73.3803 37.6175 73.3346C37.5077 73.2889 37.39 73.2655 37.2711 73.2656L16.8335 73.2879C16.5936 73.2819 16.3611 73.3721 16.1873 73.5386C16.0135 73.7051 15.9125 73.9343 15.9065 74.1758C15.9006 74.4172 15.9902 74.6511 16.1556 74.8261C16.3211 75.0011 16.5488 75.1027 16.7887 75.1087V75.1098Z" fill="#38516B"/>
<path id="Vector_43" d="M55.6451 56.6309H38.6247C38.0118 56.6295 37.411 56.8027 36.8918 57.1305C36.3726 57.4583 35.9562 57.9274 35.6907 58.4834L27.8223 75.0989H48.9741C49.368 75.1 49.7533 74.9823 50.0802 74.761C50.407 74.5396 50.6605 74.2248 50.808 73.8571L56.9094 58.4821C57.2619 57.5937 56.6044 56.6309 55.6451 56.6309Z" fill="#38516B"/>
<path id="Vector_44" d="M46.2026 65.9786C46.5758 64.8388 46.3088 63.7259 45.6061 63.4929C44.9035 63.2598 44.0313 63.9948 43.6581 65.1346C43.285 66.2743 43.552 67.3872 44.2547 67.6202C44.9573 67.8533 45.8294 67.1183 46.2026 65.9786Z" fill="#FF9BD0"/>
</g>
<defs>
<linearGradient id="paint0_linear_764_640" x1="82.1682" y1="79.4134" x2="25.4696" y2="30.1215" gradientUnits="userSpaceOnUse">
<stop stop-color="#FFE6F4"/>
<stop offset="1" stop-color="#FFE4F3"/>
</linearGradient>
<clipPath id="clip0_764_640">
<rect width="77.9723" height="77.9723" fill="white" transform="translate(0.513672 0.256836)"/>
</clipPath>
</defs>
</svg>
