<svg width="89" height="90" viewBox="0 0 89 90" fill="none" xmlns="http://www.w3.org/2000/svg">
<g id="Frame" clip-path="url(#clip0_764_700)">
<g id="Group">
<g id="Layer 1">
<path id="Vector" d="M88.6565 72.6014C88.6565 39.2036 61.6274 36.6293 58.1845 24.2949C54.7416 11.9605 58.1845 72.1227 58.1845 72.1227L88.6565 72.6014Z" fill="#FFE5F3"/>
<path id="Vector_2" d="M58.1852 24.2945C58.1797 24.2706 58.1728 24.2479 58.1672 24.2236C55.4814 12.4677 35.2163 14.896 35.2163 14.896C30.013 15.3709 26.1487 16.5349 23.2837 17.9525C18.7591 20.1915 15.7775 24.2914 15.1953 28.899C14.8555 31.597 13.4621 35.6341 8.97595 37.093C0.240499 39.9356 3.30645 46.4256 4.16319 48.6993C4.9092 50.6797 9.12418 53.0224 2.98534 58.1464C-3.1535 63.2704 3.62755 72.0445 3.62755 72.0445L58.1852 72.1216V24.2945Z" fill="#FFE5F3"/>
<path id="Vector_3" d="M57.7522 43.2511C57.6959 43.0707 58.4857 42.9281 58.5284 42.7462C58.5711 42.5642 57.5324 42.5457 57.4956 42.3854C57.4279 42.0901 58.6343 42.3276 58.611 42.1896C58.5877 42.0516 57.3547 41.7382 57.4887 41.5023C57.6227 41.2665 58.7367 41.9749 58.771 41.8146C58.8054 41.6542 57.6817 41.2588 57.7029 40.9065C57.7143 40.7184 59.5462 41.8523 59.7593 41.751C59.9725 41.6496 59.5337 40.7627 59.7034 40.6332C59.8732 40.5037 60.3536 42.4343 60.4706 42.4991C60.5876 42.5638 63.062 44.1449 63.942 44.3981C64.0503 44.0705 64.8255 42.3337 64.9213 42.0238C65.415 42.417 65.9888 42.5045 66.4987 42.8629C66.1252 43.8917 64.8456 46.4225 64.5874 46.5508C63.8008 46.9417 60.7726 44.1333 60.1679 43.6523C59.5632 43.1713 59.215 43.3251 58.8054 43.1721C58.3958 43.019 57.8081 43.4315 57.7522 43.2511Z" fill="#FDBAA0"/>
<path id="Vector_4" d="M71.6762 56.8602L71.3984 56.6008C72.4187 55.2753 72.9793 52.7491 73.0206 49.2956C73.0359 47.6532 72.9504 46.0116 72.7648 44.3821L73.1262 44.3262C73.3134 45.9743 73.3993 47.6346 73.3834 49.2956C73.365 50.8632 73.2414 52.255 73.0158 53.4325C72.7318 54.9215 72.2805 56.0747 71.6762 56.8602Z" fill="#13375B"/>
<path id="Vector_5" d="M70.4203 39.7599C70.5908 39.7599 77.1465 39.3359 77.259 40.281C77.3714 41.2261 77.5999 48.6064 76.464 48.8577C75.3282 49.109 69.8184 47.9747 69.8184 47.9747L70.4203 39.7599Z" fill="#38516B"/>
<path id="Vector_6" d="M66.028 44.065C66.028 44.065 67.7023 42.7191 68.2084 41.7547C68.7145 40.7904 67.8637 41.4186 66.9934 41.165C66.6647 41.0686 66.7476 38.9468 66.1256 39.6367C65.105 40.768 64.2715 43.0155 64.2715 43.0155L66.028 44.065Z" fill="#FF9BD0"/>
<path id="Vector_7" d="M68.5312 38.6635C68.5312 38.6635 70.2964 38.2781 71.1001 39.0204C71.9037 39.7628 70.9265 46.3437 70.9286 47.4357C70.9307 48.5276 71.4816 51.6104 71.4816 51.6104C71.4816 51.6104 66.1318 52.6406 65.282 51.0021C65.282 51.0021 65.039 44.7604 65.0761 43.9756C65.1133 43.1909 65.9054 39.9805 66.1245 39.6371C66.3435 39.2937 68.5312 38.6635 68.5312 38.6635Z" fill="#FF9BD0"/>
<path id="Vector_8" d="M67.2711 37.4717C67.3465 37.8887 67.4197 38.2953 67.4739 38.5937C67.5023 38.7478 66.9136 40.2198 67.2309 40.2803C68.3025 40.4835 69.3668 38.843 69.1641 38.2949L68.7749 37.2373L67.2711 37.4717Z" fill="#FDBAA0"/>
<path id="Vector_9" d="M67.4606 33.3661C67.4606 33.3661 68.2173 33.2697 68.6919 33.9442C69.1664 34.6188 69.6774 36.7017 68.4992 37.8345C67.321 38.9673 66.391 37.7138 66.2185 36.3544C66.046 34.9949 65.7447 33.3168 67.4606 33.3661Z" fill="#FDBAA0"/>
<path id="Vector_10" d="M60.7051 46.1363L65.6501 44.8138C65.6501 44.8138 67.399 42.2314 69.0833 40.0078C69.6013 40.5474 69.8995 41.3923 70.4212 41.9285L66.7155 46.6308C66.649 46.7148 66.5676 46.7825 66.4763 46.8298C66.3851 46.8771 66.286 46.9029 66.1854 46.9056L60.9213 47.0444L60.7051 46.1363Z" fill="#FDBAA0"/>
<path id="Vector_11" d="M68.5229 44.6383C68.5229 44.6383 70.8741 42.5088 71.3802 41.5448C71.8863 40.5808 71.5111 38.9658 70.6422 38.7118C69.7733 38.4578 66.9375 42.8225 66.9375 42.8225L68.5229 44.6383Z" fill="#FF9BD0"/>
<path id="Vector_12" d="M57.342 46.6851C57.2899 46.5968 57.4201 46.448 57.5176 46.3359C57.6256 46.2121 58.2813 45.9007 58.3914 45.8633C58.5014 45.8259 59.4564 45.9739 59.8216 46.1054C60.1868 46.2368 60.427 46.1824 60.427 46.1824C60.5228 46.1609 60.6669 46.132 60.7787 46.1054L61.0074 47.0424C60.1503 47.0304 59.2544 47.1006 59.1731 47.0982C58.9156 47.0909 58.4441 46.7945 58.3341 46.7514C58.2241 46.7082 58.0033 46.7421 57.8544 46.8192C57.7054 46.8963 57.2715 47.0786 57.1986 47.0362C57.1257 46.9938 57.342 46.6851 57.342 46.6851Z" fill="#F7A491"/>
<path id="Vector_13" d="M68.8675 35.7197C68.8005 36.0697 68.9272 36.3965 69.1511 36.4493C69.375 36.5021 69.6104 36.2612 69.6774 35.9097C69.7444 35.5582 69.6177 35.2329 69.3941 35.1801C69.1706 35.1273 68.9345 35.3697 68.8675 35.7197Z" fill="#FDBAA0"/>
<path id="Vector_14" d="M62.1172 66.6328C62.1172 66.6328 63.7411 68.7751 63.7519 68.9616C63.7626 69.1482 63.6873 71.1825 63.4943 71.3687C63.3013 71.5549 62.7337 71.6875 62.9163 71.8971C63.0552 72.0556 64.1146 72.0216 64.8173 71.9792C65.0224 71.9669 65.28 70.1677 65.3612 69.901C65.4792 69.5155 65.766 68.6502 65.6587 68.3823C65.6066 68.2517 65.3564 67.9834 65.004 67.7329C64.6333 67.4696 63.2152 65.2988 63.2152 65.2988L62.1172 66.6328Z" fill="#F48C7F"/>
<path id="Vector_15" d="M64.982 67.7207C64.982 67.7207 63.8917 71.0987 63.4647 71.2617C63.3515 71.3049 62.8075 71.4159 62.7051 71.6795C62.6742 71.7589 62.7051 72.0264 62.7051 72.0264H64.9779C64.9779 72.0264 65.2653 70.5383 65.3788 69.8842C65.3788 69.8842 65.9804 68.2865 65.9138 68.1412C65.8471 67.9959 64.982 67.7207 64.982 67.7207Z" fill="#466EB6"/>
<path id="Vector_16" d="M52.3904 67.6625C52.3904 67.6625 51.0643 69.7169 51.1809 70.3668C51.2434 70.7136 51.5215 71.17 51.3618 71.4976C51.2021 71.8253 51.0199 71.907 51.0199 71.907L46.8833 71.9802C46.658 71.9841 46.807 71.826 46.9875 71.678C47.285 71.4379 47.5249 71.2795 48.475 70.7745C48.5368 70.7418 48.7624 70.5845 48.8436 70.5298C49.0498 70.3914 49.2571 70.1736 49.4338 69.9559C49.7306 69.5928 51.0369 66.6338 51.0369 66.6338L52.3904 67.6625Z" fill="#F7A491"/>
<path id="Vector_17" d="M48.8441 70.5285C49.938 70.8369 50.7468 70.6272 51.1992 70.4268C51.3158 70.7898 51.4706 71.2454 51.3883 71.5079C51.288 71.8298 51.1453 71.9022 51.0186 71.9061C50.0196 71.935 47.3584 71.9739 46.5964 71.9832C46.5727 71.9838 46.5494 71.9767 46.5292 71.963C46.509 71.9492 46.4929 71.9292 46.4827 71.9055C46.4725 71.8817 46.4687 71.8552 46.4717 71.8291C46.4748 71.8031 46.4846 71.7785 46.4999 71.7584C46.6888 71.5125 48.7626 70.5832 48.8441 70.5285Z" fill="#466EB6"/>
<path id="Vector_18" d="M57.1878 54.9891C57.1878 54.9891 58.8298 57.0512 59.2488 57.3788C59.6678 57.7064 63.6866 65.8484 63.6866 65.8484L62.255 66.999C62.255 66.999 58.6628 62.0708 56.9757 59.4347C55.5497 57.2061 56.0749 57.3472 55.2362 55.9905C55.0122 55.63 54.9141 55.1913 54.9604 54.7564C55.0068 54.3214 55.1943 53.9202 55.4879 53.6277C55.5636 53.5524 55.6461 53.4738 55.7354 53.3918C56.9771 52.2533 65.4876 50.9717 65.4876 50.9717L70.9315 51.5583C70.9315 51.5583 66.4839 54.9887 66.3176 55.0812C66.1513 55.1737 60.176 56.1315 60.0514 56.1315C59.9268 56.1315 57.1878 54.9891 57.1878 54.9891Z" fill="#EAB054"/>
<path id="Vector_19" d="M71.4834 51.6099C71.4834 51.6099 72.4169 54.6934 71.0165 56.1303C69.6161 57.5673 61.2965 57.4088 58.5562 57.4088C58.5562 57.4088 57.436 60.7876 57.3114 61.3357C57.1867 61.8838 51.7505 68.9612 51.7505 68.9612L50.2578 67.9109C50.2578 67.9109 56.1092 55.3996 56.5657 54.8518C57.0222 54.3041 63.5363 52.1122 65.1557 51.6099C66.7751 51.1077 71.4834 51.6099 71.4834 51.6099Z" fill="#F7CC7F"/>
<path id="Vector_20" d="M46.0316 39.8418H54.2262C54.3318 39.8415 54.4352 39.8761 54.5232 39.9411C54.6112 40.006 54.6798 40.0985 54.7205 40.2068L57.2439 46.9782H61.7616C61.8219 46.9779 61.8799 47.0042 61.9228 47.0513C61.9657 47.0984 61.99 47.1625 61.9903 47.2295C61.9902 47.2627 61.9842 47.2956 61.9726 47.3262C61.961 47.3568 61.9441 47.3846 61.9229 47.408C61.9016 47.4313 61.8765 47.4498 61.8488 47.4624C61.8211 47.475 61.7915 47.4813 61.7616 47.4812H48.9038C48.7313 47.4816 48.5623 47.4268 48.4171 47.3234C48.2718 47.22 48.1565 47.0723 48.0849 46.898L45.5442 40.6705C45.508 40.5806 45.4927 40.482 45.4997 40.3838C45.5067 40.2857 45.5358 40.191 45.5843 40.1086C45.6328 40.0261 45.6992 39.9585 45.7773 39.9119C45.8554 39.8653 45.9429 39.8412 46.0316 39.8418Z" fill="#38516B"/>
<path id="Vector_21" d="M50.4431 43.7845C50.4983 44.0886 50.7396 44.2921 50.9816 44.2389C51.2235 44.1857 51.3749 43.8959 51.3197 43.5918C51.2645 43.2877 51.0232 43.0842 50.7809 43.1374C50.5386 43.1905 50.3876 43.4812 50.4431 43.7845Z" fill="white"/>
<path id="Vector_22" d="M26.4331 72.1303H25.8086L27.1395 59.2852H27.764L26.4331 72.1303Z" fill="#38516B"/>
<path id="Vector_23" d="M33.4813 72.1303H34.1058L32.7749 59.2852H32.1504L33.4813 72.1303Z" fill="#38516B"/>
<path id="Vector_24" d="M15.853 72.1303H15.2285L16.5598 59.2852H17.1843L15.853 72.1303Z" fill="#38516B"/>
<path id="Vector_25" d="M22.9032 72.1303H23.5277L22.1968 59.2852H21.5723L22.9032 72.1303Z" fill="#38516B"/>
<path id="Vector_26" d="M25.9611 60.6814H17.443C16.445 60.6814 15.5528 59.7829 15.4504 58.6744L14.0428 43.4083C13.9407 42.2998 14.6676 41.4014 15.6653 41.4014H24.1834C25.1815 41.4014 26.074 42.2998 26.176 43.4083L27.5837 58.6744C27.6857 59.7829 26.9595 60.6814 25.9611 60.6814Z" fill="#FFBDE0"/>
<path id="Vector_27" d="M28.3251 60.6814H19.8083C18.8099 60.6814 17.9178 59.7829 17.8157 58.6744L16.4081 43.4083C16.3056 42.2998 17.0329 41.4014 18.0306 41.4014H26.5484C27.5468 41.4014 28.4389 42.2998 28.5413 43.4083L29.9486 58.6744C30.051 59.7829 29.3245 60.6814 28.3251 60.6814Z" fill="#FFBDE0"/>
<path id="Vector_28" d="M29.4671 61.3845H17.3938C16.4583 61.3845 15.6234 60.5427 15.5266 59.504C15.4308 58.4633 16.1115 57.623 17.047 57.623H29.1203C30.0575 57.623 30.8907 58.4652 30.9875 59.504C31.0833 60.5427 30.4026 61.3845 29.4671 61.3845Z" fill="#FFBDE0"/>
<path id="Vector_29" d="M32.4813 61.3845H20.4098C19.4725 61.3845 18.6394 60.5427 18.5422 59.504C18.4464 58.4633 19.1271 57.623 20.0627 57.623H32.1362C33.0735 57.623 33.9066 58.4652 34.0035 59.504C34.0976 60.5427 33.4168 61.3845 32.4813 61.3845Z" fill="#FFBDE0"/>
<path id="Vector_30" d="M34.7899 45.9484C34.8458 45.768 34.056 45.6258 34.0133 45.4435C33.9706 45.2611 35.0096 45.243 35.0461 45.0827C35.1155 44.7874 33.9074 45.0253 33.9307 44.8869C33.954 44.7485 35.1874 44.4359 35.053 44.1997C34.9187 43.9634 33.8033 44.6726 33.7707 44.5119C33.738 44.3511 34.86 43.9561 34.8388 43.6038C34.8274 43.4157 32.9955 44.55 32.7824 44.4483C32.5692 44.3465 33.008 43.4604 32.8383 43.3305C32.6685 43.2006 32.1881 45.1313 32.0711 45.196C31.9541 45.2608 29.4797 46.8418 28.5997 47.0951C28.4914 46.7674 27.7162 45.0307 27.6207 44.7208C27.1267 45.1139 26.5529 45.2014 26.043 45.5602C26.4165 46.5886 27.6961 49.1198 27.9543 49.2481C28.7409 49.639 31.7691 46.8307 32.3738 46.3496C32.9785 45.8686 33.3267 46.022 33.7363 45.869C34.1459 45.716 34.7336 46.1276 34.7899 45.9484Z" fill="#FDBAA0"/>
<path id="Vector_31" d="M27.1038 37.7558C27.1406 36.7749 27.0104 35.8067 26.6154 34.8936C26.2752 34.108 25.4351 33.6602 24.6669 33.6602C22.2306 33.6567 21.9207 37.2309 20.37 38.6092C19.8961 39.0312 19.3681 39.3743 18.9168 39.8287C17.261 41.5061 18.007 44.6112 19.5271 46.0817C20.5831 47.1019 22.2414 47.6828 23.5418 46.8842C24.2205 46.4679 24.736 45.7756 25.1039 45.0171C25.6246 43.9406 25.9607 42.6987 26.3314 41.5516C26.7247 40.3305 27.0552 39.0594 27.1038 37.7558Z" fill="#38516B"/>
<path id="Vector_32" d="M26.1916 46.783C26.1916 46.783 24.3719 44.7116 23.904 43.8116C23.436 42.9116 24.2226 43.4979 25.0266 43.2609C25.3311 43.1714 25.254 41.1903 25.8296 41.8347C26.7738 42.8912 27.9607 44.7382 27.9607 44.7382L26.1916 46.783Z" fill="#445D78"/>
<path id="Vector_33" d="M23.6056 40.9255C23.6056 40.9255 21.974 40.5679 21.2277 41.2589C20.4813 41.95 21.3874 48.0955 21.3863 49.1142C21.3853 50.1329 20.875 53.0113 20.875 53.0113C20.875 53.0113 25.8238 53.973 26.6098 52.444C26.6098 52.444 26.8337 46.6173 26.8003 45.8846C26.767 45.1519 26.0328 42.1555 25.8304 41.8344C25.6281 41.5133 23.6056 40.9255 23.6056 40.9255Z" fill="#445D78"/>
<path id="Vector_34" d="M23.5954 38.1209C23.5954 38.1209 23.5871 38.1749 23.5715 38.267C23.4975 38.7099 23.2122 40.1776 23.0195 40.5796C22.7869 41.0672 23.818 42.6225 24.808 42.4328C25.1031 42.3766 24.5584 41.0036 24.5848 40.8583C24.6348 40.58 24.7028 40.2004 24.7722 39.8111C24.8115 39.5914 24.851 39.3686 24.8885 39.1593C24.9944 38.5646 25.0809 38.0801 25.0809 38.0801L23.5954 38.1209Z" fill="#FDBAA0"/>
<path id="Vector_35" d="M24.5951 34.3794C24.5951 34.3794 23.895 34.2896 23.4562 34.919C23.0174 35.5485 22.5442 37.493 23.6346 38.5506C24.725 39.6083 25.8018 38.4111 25.9604 37.1419C26.1191 35.8726 26.1833 34.3336 24.5951 34.3794Z" fill="#FDBAA0"/>
<path id="Vector_36" d="M26.2851 37.1224C26.1549 37.403 25.9379 37.5579 25.797 37.4693C25.6561 37.3806 25.6519 37.0838 25.7803 36.8017C25.9088 36.5195 26.1275 36.3661 26.2684 36.4548C26.4094 36.5434 26.4156 36.8429 26.2851 37.1224Z" fill="#FDBAA0"/>
<path id="Vector_37" d="M24.6741 34.171C24.6741 34.171 23.7368 36.0211 23.0696 36.1059C22.4024 36.1907 22.3125 37.1744 22.3125 37.1744C22.3125 37.1744 22.5517 34.9095 23.2151 34.4728C23.8785 34.0361 24.6741 34.171 24.6741 34.171Z" fill="#38516B"/>
<path id="Vector_38" d="M23.2435 36.5719C23.298 36.9002 23.1886 37.2017 23.0005 37.2444C22.8123 37.2872 22.6134 37.0563 22.5589 36.728C22.5044 36.3996 22.6141 36.0981 22.8019 36.055C22.9897 36.0118 23.1893 36.2435 23.2435 36.5719Z" fill="#FDBAA0"/>
<path id="Vector_39" d="M29.54 67.0346C29.54 67.0346 28.0379 69.0342 28.0282 69.2085C28.0185 69.3827 28.0875 71.2817 28.2663 71.4556C28.4451 71.6294 28.97 71.7531 28.8013 71.9489C28.6735 72.0969 27.6925 72.0646 27.0423 72.026C26.8524 72.0145 26.6146 70.3332 26.5393 70.0861C26.4303 69.7273 26.1647 68.9186 26.264 68.6685C26.3123 68.5467 26.5438 68.2961 26.8698 68.0622C27.2127 67.8163 28.5242 65.7881 28.5242 65.7881L29.54 67.0346Z" fill="#FDBAA0"/>
<path id="Vector_40" d="M26.89 68.0498C26.89 68.0498 27.8988 71.2031 28.2935 71.3553C28.3977 71.3939 28.9014 71.4983 28.9965 71.7454C29.0249 71.8198 28.9965 72.0684 28.9965 72.0684H26.8939C26.8939 72.0684 26.6279 70.6789 26.5228 70.0683C26.5228 70.0683 25.9673 68.5767 26.0281 68.4414C26.0888 68.3061 26.89 68.0498 26.89 68.0498Z" fill="#445D78"/>
<path id="Vector_41" d="M38.5371 67.9957C38.5371 67.9957 39.7639 69.9132 39.6559 70.5195C39.5983 70.8444 39.3411 71.2696 39.4886 71.5752C39.6362 71.8809 39.8049 71.9576 39.8049 71.9576L43.6317 72.0258C43.84 72.0297 43.7012 71.8809 43.5342 71.7441C43.2593 71.5197 43.0371 71.3717 42.1585 70.9007C42.1012 70.8699 41.8926 70.723 41.8172 70.6721C41.6263 70.543 41.4354 70.3395 41.2698 70.136C40.9949 69.7972 39.7868 67.0352 39.7868 67.0352L38.5371 67.9957Z" fill="#F7A491"/>
<path id="Vector_42" d="M41.8176 70.671C40.8057 70.9585 40.0576 70.7631 39.6389 70.5762C39.5313 70.915 39.388 71.3401 39.4654 71.5853C39.5584 71.8855 39.6907 71.9533 39.8073 71.9568C40.7317 71.9838 43.1933 72.0204 43.8984 72.0304C43.9203 72.0307 43.9419 72.024 43.9606 72.011C43.9792 71.9981 43.9941 71.9794 44.0035 71.9574C44.0129 71.9353 44.0164 71.9107 44.0136 71.8865C44.0107 71.8622 44.0017 71.8394 43.9876 71.8208C43.8116 71.5895 41.8933 70.7219 41.8176 70.671Z" fill="#F7CC7F"/>
<path id="Vector_43" d="M34.1004 56.1661C34.1004 56.1661 32.5817 58.091 32.1943 58.3959C31.8068 58.7008 28.0886 66.3028 28.0886 66.3028L29.4133 67.3762C29.4133 67.3762 32.7361 62.776 34.2952 60.3154C35.6143 58.234 35.1283 58.3666 35.9048 57.1C36.1121 56.763 36.2026 56.3542 36.1597 55.9489C36.1169 55.5435 35.9435 55.1691 35.6716 54.8946C35.6021 54.8242 35.5259 54.7507 35.4428 54.6741C34.2941 53.6111 26.4213 52.415 26.4213 52.415L21.3867 52.9643C21.3867 52.9643 25.501 56.1677 25.6566 56.2528C25.8121 56.338 31.3382 57.233 31.4538 57.233C31.5694 57.233 34.1004 56.1661 34.1004 56.1661Z" fill="#38516B"/>
<path id="Vector_44" d="M20.8759 53.0112C20.8759 53.0112 20.0119 55.8885 21.3078 57.231C22.6036 58.5735 30.2987 58.4258 32.8328 58.4258C32.8328 58.4258 33.8694 61.5799 33.9846 62.0914C34.0999 62.6028 39.1286 69.21 39.1286 69.21L40.5109 68.2295C40.5109 68.2295 35.0993 56.5484 34.6775 56.0377C34.2558 55.527 28.228 53.4803 26.7308 53.0112C25.2336 52.5421 20.8759 53.0112 20.8759 53.0112Z" fill="#38516B"/>
<path id="Vector_45" d="M30.8282 46.8233C30.8844 46.6426 30.0943 46.5004 30.0516 46.318C30.0089 46.1357 31.0479 46.1176 31.0847 45.9577C31.152 45.662 29.9457 45.8998 29.9693 45.7619C29.9929 45.6239 31.2256 45.3105 31.0916 45.0742C30.9576 44.838 29.8419 45.5472 29.8072 45.3864C29.7725 45.2257 30.8965 44.8306 30.8754 44.4787C30.8639 44.2902 29.0321 45.4246 28.8189 45.3232C28.6058 45.2219 29.0449 44.335 28.8748 44.2055C28.7047 44.0759 28.2246 46.0062 28.108 46.0714C27.9913 46.1365 25.5166 47.7168 24.6348 47.9704C24.5269 47.6424 23.7513 45.906 23.6559 45.5957C23.1619 45.9889 22.5881 46.0768 22.0781 46.4352C22.4516 47.4639 23.7316 49.9947 23.9898 50.1231C24.7761 50.5139 27.8042 47.7056 28.4089 47.2246C29.0137 46.7436 29.3618 46.8974 29.7718 46.7443C30.1818 46.5913 30.7719 47.0037 30.8282 46.8233Z" fill="#FDBAA0"/>
<path id="Vector_46" d="M21.8438 46.7103C21.8438 46.7103 20.7721 44.0728 20.6093 43.0487C20.4465 42.0246 21.2377 40.7403 22.0673 40.8231C22.897 40.906 24.1377 45.4596 24.1377 45.4596L21.8438 46.7103Z" fill="#445D78"/>
<path id="Vector_47" d="M38.5842 72.0479H63.5859V47.83H38.5842V72.0479Z" fill="#F2F2F2"/>
<path id="Vector_48" d="M77.9644 48.2002H63.5664V72.0738H77.9644V48.2002Z" fill="white"/>
<g id="Vector_49" style="mix-blend-mode:multiply" opacity="0.5">
<path d="M62.182 72.0732H63.5664V48.1996H62.182V72.0732Z" fill="#38516B"/>
</g>
<path id="Vector_50" d="M36.8254 48.2002L79.5918 48.2002V47.4609L36.8254 47.4609V48.2002Z" fill="#FF9BD0"/>
<path id="Vector_51" d="M88.6559 71.8848H1.56445V72.6017H88.6559V71.8848Z" fill="#38516B"/>
<path id="Vector_52" d="M69.0311 35.3873L68.9777 35.3934C68.9616 35.3955 68.9454 35.3938 68.9299 35.3886C68.9144 35.3833 68.9001 35.3746 68.8878 35.363C68.8755 35.3513 68.8655 35.337 68.8584 35.3209C68.8513 35.3048 68.8472 35.2872 68.8465 35.2693C68.8343 34.976 68.7704 34.3273 68.4424 34.3763C68.0199 34.4399 66.5074 35.0011 65.9385 34.6553C65.3914 34.3231 65.2959 33.5021 65.5715 33.075C65.5802 33.0612 65.5934 33.0515 65.6083 33.0481C65.6232 33.0447 65.6387 33.0477 65.6517 33.0565L65.7166 33.102C65.7265 33.1089 65.7381 33.1124 65.7498 33.112C65.7615 33.1116 65.7728 33.1073 65.7823 33.0996C65.7918 33.092 65.799 33.0814 65.803 33.0692C65.807 33.057 65.8076 33.0437 65.8048 33.0311C65.802 33.019 65.8024 33.0062 65.806 32.9943C65.8096 32.9824 65.8162 32.972 65.8251 32.9642C65.834 32.9565 65.8447 32.9518 65.856 32.9507C65.8672 32.9497 65.8785 32.9523 65.8885 32.9582C66.062 33.06 66.438 33.1633 67.1548 32.8812C68.174 32.4791 68.9978 32.5027 69.3804 33.1995C69.3857 33.2098 69.3935 33.2183 69.4028 33.2241C69.4122 33.2299 69.4228 33.2327 69.4335 33.2323C69.4442 33.2319 69.4546 33.2283 69.4636 33.2219C69.4725 33.2154 69.4798 33.2063 69.4845 33.1957C69.5286 33.1059 69.6261 33.0145 69.8421 33.0569C70.2177 33.1309 70.4322 33.8097 70.1406 34.6688C70.1372 34.6782 70.1358 34.6884 70.1366 34.6985C70.1374 34.7086 70.1403 34.7183 70.1451 34.727C70.1499 34.7356 70.1564 34.7428 70.1642 34.7481C70.172 34.7534 70.1808 34.7566 70.1899 34.7575C70.3287 34.7659 70.5679 34.8426 70.2996 35.3217C70.0219 35.8178 69.7119 35.9905 69.5855 36.0433C69.5781 36.0464 69.5701 36.0477 69.5622 36.0473C69.5542 36.0468 69.5464 36.0446 69.5393 36.0407C69.5321 36.0368 69.5258 36.0313 69.5206 36.0246C69.5154 36.0179 69.5115 36.0101 69.5091 36.0017L69.3095 35.3017C69.3071 35.2923 69.3027 35.2836 69.2968 35.2763C69.2909 35.2691 69.2836 35.2633 69.2754 35.2596C69.2672 35.2559 69.2584 35.2543 69.2496 35.2549C69.2408 35.2555 69.2322 35.2584 69.2245 35.2632L69.0311 35.3873Z" fill="#38516B"/>
</g>
</g>
</g>
<defs>
<clipPath id="clip0_764_700">
<rect width="88.2418" height="88.6222" fill="white" transform="translate(0.416016 0.931641)"/>
</clipPath>
</defs>
</svg>
