<svg width="83" height="78" viewBox="0 0 83 78" fill="none" xmlns="http://www.w3.org/2000/svg">
<g id="Frame" clip-path="url(#clip0_764_884)">
<g id="Clip path group">
<mask id="mask0_764_884" style="mask-type:luminance" maskUnits="userSpaceOnUse" x="0" y="6" width="83" height="65">
<g id="clip-path">
<path id="Vector" d="M0.847541 36.9607C2.35967 52.9659 -7.83934 65.3421 26.5515 69.1095C32.6392 69.7759 41.0525 70.2534 48.1519 70.1153C53.9041 70.0055 60.2306 69.4929 65.8212 68.0462C75.0542 65.6529 81.9323 60.7914 82.1455 51.3226C82.365 41.6336 72.745 35.3097 74.2813 31.3303C79.047 19.0145 71.3185 10.0506 56.0549 6.86716C36.7396 2.83941 28.9459 16.1808 21.0696 14.4467C8.3054 11.6324 -0.692022 20.6662 0.847541 36.9607Z" fill="white"/>
</g>
</mask>
<g mask="url(#mask0_764_884)">
<g id="Group">
<path id="Vector_2" d="M0.847541 36.9607C2.35967 52.9659 -7.83934 65.3421 26.5515 69.1095C32.6392 69.7759 41.0525 70.2534 48.1519 70.1153C53.9041 70.0055 60.2306 69.4929 65.8212 68.0462C75.0542 65.6529 81.9323 60.7914 82.1455 51.3226C82.365 41.6336 72.745 35.3097 74.2813 31.3303C79.047 19.0145 71.3185 10.0506 56.0549 6.86716C36.7396 2.83941 28.9459 16.1808 21.0696 14.4467C8.3054 11.6324 -0.692022 20.6662 0.847541 36.9607Z" fill="#FFE5F3"/>
<path id="Vector_3" d="M72.7628 22.2767L42.3027 11.1484L27.7661 51.0208L58.2261 62.1491L72.7628 22.2767Z" fill="#FFBDE0"/>
<path id="Vector_4" d="M53.1539 23.8753C52.6709 25.2065 51.7339 26.3243 50.5082 27.0316C50.4383 27.0719 50.3681 27.1107 50.2968 27.1488C49.1187 27.7693 47.7688 27.9825 46.4571 27.7552C45.1455 27.5279 43.9457 26.8729 43.0445 25.8921C42.3198 25.103 41.8181 24.1349 41.5907 23.0875C41.3633 22.04 41.4186 20.9508 41.7507 19.9317C42.0828 18.9127 42.6799 18.0005 43.4807 17.2888C44.2814 16.5771 45.257 16.0916 46.3071 15.8821C47.3573 15.6726 48.4442 15.7467 49.4563 16.0967C50.4684 16.4467 51.3692 17.0601 52.0663 17.8738C52.7633 18.6875 53.2314 19.6723 53.4225 20.727C53.6137 21.7817 53.521 22.8684 53.1539 23.8753Z" fill="white"/>
<path id="Vector_5" d="M51.2598 20.3642C50.6124 17.4855 48.3702 17.1977 48.3702 17.1977C47.6723 17.1329 46.9941 17.3342 46.4388 17.6546C45.8836 17.975 45.4352 18.4085 45.0094 18.8498C44.528 19.3487 44.0681 19.8628 43.6297 20.392C43.5444 20.4949 43.4574 20.6055 43.4497 20.7362C43.4431 20.8552 43.5042 20.9739 43.5719 21.0837C44.1761 22.0654 45.3642 22.7051 46.5479 23.1368C48.1552 23.722 49.8523 24.022 51.5627 24.0232C51.6029 22.8102 51.5327 21.5788 51.2598 20.3642Z" fill="#38516B"/>
<path id="Vector_6" d="M50.2971 27.1494C49.119 27.7699 47.7691 27.9831 46.4575 27.7558C45.1458 27.5286 43.946 26.8736 43.0448 25.8928C42.6793 25.4948 42.3692 25.0492 42.123 24.568C42.6351 24.3483 43.2507 24.2143 43.9249 24.1784C44.4481 24.1522 44.9726 24.1803 45.49 24.2623C45.7742 24.3057 46.0558 24.3639 46.3339 24.4366C46.8127 24.5606 47.2797 24.7268 47.7293 24.9331C48.1988 25.1472 48.6431 25.413 49.0538 25.7255C49.6146 26.1572 50.0425 26.6456 50.2971 27.1494Z" fill="#FFCFBF"/>
<path id="Vector_7" d="M47.5206 26.6274C48.1011 26.7006 47.6266 25.1671 47.6266 25.1671L48.593 22.9603C48.875 22.3162 48.6066 21.567 47.9928 21.2873C47.379 21.0075 47.0615 20.9782 46.7795 21.6223L45.4422 24.3586C45.1602 25.0027 46.7012 26.5237 47.5206 26.6274Z" fill="#FFCFBF"/>
<path id="Vector_8" d="M50.1278 19.3582C50.1278 19.3582 50.8286 23.3494 49.067 23.87C47.985 24.189 47.0186 23.3171 45.9615 21.8617C45.0515 20.6072 48.3739 16.1309 50.1278 19.3582Z" fill="#FDBAA0"/>
<path id="Vector_9" d="M46.9722 23.3161C47.3848 23.6991 47.838 23.947 48.3947 24.0027C48.5128 24.0144 48.5293 23.8222 48.4108 23.8101C47.8852 23.7577 47.4674 23.5172 47.0793 23.1576C46.9905 23.0756 46.8848 23.2348 46.9722 23.3161Z" fill="#FF9F89"/>
<path id="Vector_10" d="M50.4301 19.7972C50.4923 19.5691 50.4268 19.3212 50.3058 19.118C50.1847 18.9148 50.0131 18.7486 49.8416 18.5849C49.6887 18.4384 49.5318 18.2879 49.339 18.1986C49.1463 18.1092 48.9282 18.0862 48.715 18.0778C48.0603 18.0525 47.3883 18.1601 46.8155 18.4787C46.8028 18.4821 46.791 18.4883 46.781 18.4969C46.771 18.5055 46.763 18.5161 46.7577 18.5282C46.7523 18.5402 46.7497 18.5533 46.75 18.5664C46.7503 18.5796 46.7536 18.5925 46.7595 18.6043C46.8846 19.0437 47.05 19.508 46.926 19.9488C47.2109 19.9122 47.4893 19.8361 47.7724 19.787C48.6733 19.633 49.5997 19.7609 50.4254 20.1531L50.4301 19.7972Z" fill="#38516B"/>
<path id="Vector_11" d="M47.6327 19.3282L47.4659 18.9504C46.8737 18.9419 46.2954 19.2393 45.9139 19.6922C45.5324 20.1451 45.3375 20.7402 45.3195 21.333C45.3107 21.6259 45.3488 21.9327 45.5236 22.1656C45.656 22.3414 45.8528 22.4556 46.043 22.5651C46.0606 22.5813 46.0815 22.5933 46.1043 22.6004C46.127 22.6074 46.1511 22.6092 46.1747 22.6057C46.1983 22.6022 46.2208 22.5934 46.2405 22.5801C46.2603 22.5667 46.2768 22.5491 46.2888 22.5285C47.0881 21.6618 47.5435 20.5036 47.6327 19.3282Z" fill="#38516B"/>
<path id="Vector_12" d="M47.8859 17.8649C47.2432 18.0253 46.7641 18.4654 46.3131 18.9268C45.715 19.5397 45.1162 20.1516 44.5054 20.7517C44.4732 20.7836 44.5171 20.8392 44.5496 20.807C45.1081 20.258 45.6598 19.7022 46.2048 19.1395C46.692 18.6364 47.195 18.1088 47.8976 17.9334C47.9415 17.9224 47.9309 17.8525 47.8866 17.8635L47.8859 17.8649Z" fill="#4D6371"/>
<path id="Vector_13" d="M47.2551 19.0232C46.5872 19.8324 45.9562 20.7724 45.1036 21.3978C45.067 21.4249 45.1109 21.4798 45.1479 21.4531C46.0067 20.8233 46.6402 19.8786 47.3118 19.0653C47.3411 19.0287 47.284 18.9881 47.2551 19.0232Z" fill="#4D6371"/>
<path id="Vector_14" d="M50.2971 27.1488C49.119 27.7692 47.7691 27.9824 46.4575 27.7551C45.1458 27.5279 43.946 26.8729 43.0448 25.8921C42.6793 25.4941 42.3692 25.0485 42.123 24.5673C42.6351 24.3476 43.2507 24.2136 43.9249 24.1777C44.3905 24.6373 45.32 25.4758 46.331 25.9492C46.8182 26.1777 47.3233 26.3212 47.8051 26.2967C48.2539 26.274 48.6829 26.1063 49.0542 25.7251C49.6146 26.1565 50.0425 26.6449 50.2971 27.1488Z" fill="#384955"/>
<path id="Vector_15" d="M39.9991 29.2599L48.4303 32.2598C48.7229 32.3634 48.8996 31.916 48.6077 31.812L40.1765 28.8124C39.8839 28.7084 39.7072 29.1559 39.9991 29.2599Z" fill="#D3F0F4"/>
<path id="Vector_16" d="M39.2901 31.1602L45.3467 33.3154L53.054 36.0576L55.9356 37.0828C56.2283 37.1864 56.4049 36.739 56.113 36.635L50.0565 34.4805L42.3492 31.738L39.4675 30.7127C39.1749 30.6091 38.9983 31.0565 39.2901 31.1602Z" fill="#D3F0F4"/>
<path id="Vector_17" d="M49.8761 32.875L60.86 36.7834L63.3499 37.6692C63.6425 37.7728 63.8192 37.3257 63.5273 37.2217L52.5433 33.3133L50.0535 32.4276C49.7609 32.324 49.5842 32.771 49.8761 32.875Z" fill="white"/>
<path id="Vector_18" d="M57.554 37.6943L62.8344 39.5646C63.127 39.6678 63.304 39.2204 63.0121 39.1171L57.7314 37.2468C57.4388 37.1435 57.2617 37.591 57.554 37.6943Z" fill="white"/>
<path id="Vector_19" d="M38.4471 32.8884C41.1117 33.7767 43.7475 34.7453 46.3545 35.7942C46.6424 35.9099 46.8194 35.4621 46.5323 35.3468C43.9262 34.2971 41.2904 33.3284 38.6249 32.4405C38.3322 32.3431 38.1534 32.7902 38.4471 32.8884Z" fill="#D3F0F4"/>
<path id="Vector_20" d="M47.8596 36.3241L62.0587 41.5184C62.3492 41.625 62.5273 41.1775 62.2361 41.071L48.037 35.8766C47.7466 35.7701 47.5684 36.2175 47.8596 36.3241Z" fill="white"/>
<path id="Vector_21" d="M36.6201 36.6013L42.6767 38.7562L50.384 41.4983L53.2656 42.5236C53.5582 42.6272 53.7353 42.1798 53.4434 42.0758L47.3868 39.9209L39.6795 37.1784L36.7979 36.1532C36.5053 36.0495 36.3282 36.497 36.6201 36.601V36.6013Z" fill="#D3F0F4"/>
<path id="Vector_22" d="M54.8838 43.1357L60.1645 45.006C60.4572 45.1093 60.6342 44.6622 60.3419 44.5585L55.0616 42.6882C54.7689 42.585 54.5919 43.0324 54.8838 43.1357Z" fill="white"/>
<path id="Vector_23" d="M35.7774 38.3295C38.4418 39.2178 41.0776 40.1864 43.6848 41.2353C43.9723 41.351 44.1494 40.9032 43.8622 40.7879C41.2564 39.7397 38.6206 38.7711 35.9548 37.8821C35.6622 37.7843 35.4834 38.2314 35.7774 38.3295Z" fill="#D3F0F4"/>
<path id="Vector_24" d="M45.1899 41.7645L59.3891 46.9592C59.6799 47.0654 59.8577 46.6179 59.5669 46.5114L45.3677 41.3171C45.0751 41.2105 44.8991 41.658 45.1899 41.7645Z" fill="white"/>
<path id="Vector_25" d="M58.1399 21.5145L67.8912 24.9472C68.1838 25.0497 68.3609 24.6023 68.0686 24.4994L58.3173 21.067C58.0247 20.9641 57.8477 21.4116 58.1399 21.5145Z" fill="white"/>
<path id="Vector_26" d="M57.6184 22.9275L67.3694 26.3602C67.662 26.4627 67.8394 26.0156 67.5471 25.9128L57.7958 22.48C57.5032 22.3775 57.3262 22.8246 57.6184 22.9275Z" fill="white"/>
<path id="Vector_27" d="M57.1041 24.7197L66.6239 28.0968C66.9165 28.2001 67.0932 27.753 66.8013 27.6494L57.28 24.2723C56.9874 24.1687 56.8108 24.6161 57.1026 24.7197H57.1041Z" fill="white"/>
<path id="Vector_28" d="M56.4588 26.6487L61.4374 28.3473C61.73 28.4469 61.9081 27.9995 61.6148 27.8995L56.6362 26.2009C56.3435 26.1013 56.1654 26.5487 56.4588 26.6487Z" fill="#D3F0F4"/>
<path id="Vector_29" d="M62.742 28.9152L66.2443 30.2132C66.5347 30.3209 66.7125 29.8731 66.4217 29.7654L62.9197 28.4678C62.6293 28.3601 62.4515 28.8076 62.742 28.9152Z" fill="white"/>
<path id="Vector_30" d="M55.8162 28.408C59.0207 29.6041 62.2545 30.7172 65.5178 31.7474C65.8104 31.84 65.9907 31.3929 65.6952 31.2995C62.4334 30.2699 59.1995 29.1569 55.9936 27.9605C55.7035 27.8507 55.5258 28.2996 55.8162 28.408Z" fill="white"/>
<path id="Vector_31" d="M-1.01953 52.7526L10.666 59.8817C18.0452 55.4621 20.6082 53.9374 20.6123 53.9305C20.933 53.5603 22.4437 51.6881 23.2978 51.1477C22.4638 49.4633 22.0318 48.5933 21.68 47.8815C21.68 47.8724 22.0092 34.4878 22.0033 34.4834C21.3742 35.23 13.3618 45.7274 9.54343 47.749C9.40553 47.8222 9.44942 47.7893 9.4304 47.8204C9.22556 48.1569 4.7349 50.0682 -0.759828 52.3271L-1.01953 52.7526Z" fill="#FDBAA0"/>
<path id="Vector_32" d="M20.1999 37.42C20.3553 37.5034 23.9081 38.1644 23.5347 38.6235C22.0774 40.4177 21.6769 43.1793 22.2834 44.1609C23.4447 46.0412 25.6829 45.2763 25.925 45.1785L20.0997 50.6398C18.5151 50.8869 9.79055 51.2351 9.80079 50.7031C9.84212 48.5204 19.803 37.2072 20.1999 37.42Z" fill="#FDBAA0"/>
<path id="Vector_33" d="M7.60742 49.1064C7.60742 49.1064 11.6829 46.6403 13.5451 43.5207C16.1337 39.1842 18.5127 33.887 19.1049 33.2898C20.1203 32.2646 23.4354 30.2368 24.3378 30.143C25.2402 30.0493 28.1682 29.5572 28.7611 29.789C29.3541 30.0207 27.5819 32.0764 25.3671 33.2572C23.1523 34.4381 20.7718 36.4842 20.7718 36.4842L17.2237 47.536L7.60742 49.1064Z" fill="#FDBAA0"/>
<path id="Vector_34" d="M16.7266 40.3998C16.7266 40.3998 20.677 32.8463 22.7316 31.9273C24.7861 31.0082 27.163 30.3557 28.5474 31.1313C29.9319 31.9068 32.4825 34.2462 32.4185 34.7024C32.3545 35.1586 30.1397 35.2051 28.6568 34.616C27.1739 34.0268 23.1826 35.7767 23.1826 35.7767L18.7991 40.6269L16.7266 40.3998Z" fill="#FDBAA0"/>
<path id="Vector_35" d="M17.1152 47.8742C17.1152 47.8742 20.9683 35.7693 22.0024 34.4845C23.0365 33.1996 27.6859 33.5479 29.1351 33.8166C30.5843 34.0854 33.4249 37.5342 33.4227 38.5273C33.4202 39.7451 30.9267 38.9018 29.3502 37.7583C27.9021 36.7078 25.8043 37.2849 25.0856 37.2823C24.876 37.2823 24.4637 37.5943 24.0248 38.0586C23.4516 38.6638 22.8313 39.5265 22.5514 40.2863C21.6041 42.8575 24.5007 45.4125 24.5007 45.4125L17.1152 47.8742Z" fill="#FDBAA0"/>
<path id="Vector_36" d="M54.843 68.3463L21.4434 61.1213L30.8812 17.4004L59.3036 23.5489L63.4048 28.6854L54.843 68.3463Z" fill="white"/>
<path id="Vector_37" d="M44.0403 29.1207C43.7745 30.351 43.1502 31.4747 42.2464 32.3498C41.3426 33.2249 40.1999 33.8121 38.9628 34.0371C37.7257 34.2621 36.4497 34.1148 35.2962 33.6139C34.1427 33.1129 33.1634 32.2808 32.4823 31.2228C31.8012 30.1648 31.4488 28.9284 31.4696 27.6698C31.4905 26.4113 31.8836 25.1873 32.5994 24.1524C33.3152 23.1176 34.3214 22.3185 35.4909 21.8561C36.6604 21.3937 37.9406 21.2889 39.1696 21.5548C39.9876 21.7278 40.7632 22.0613 41.4517 22.5361C42.1402 23.011 42.7279 23.6177 43.1808 24.3212C43.6337 25.0247 43.9428 25.811 44.0903 26.6349C44.2379 27.4587 44.2208 28.3036 44.0403 29.1207Z" fill="#E9F4F6"/>
<path id="Vector_38" d="M37.2062 23.4727C36.7592 23.4415 36.2815 23.5558 35.9713 23.912C35.8272 24.0781 35.7378 24.2846 35.7152 24.5034C35.6907 24.7319 35.7218 24.96 35.7357 25.1877C35.7504 25.4225 35.7456 25.6638 35.6311 25.8765C35.5214 26.0764 35.3443 26.2427 35.3019 26.4748C35.2577 26.7157 35.3802 26.9548 35.3107 27.1936C35.2741 27.3166 35.2046 27.425 35.141 27.5341C35.0759 27.6433 35.0249 27.7603 34.9892 27.8823C34.912 28.1569 34.916 28.455 34.9449 28.7355C34.9676 28.9464 35.0236 29.1697 35.2064 29.2906C35.243 29.3136 35.2716 29.2539 35.2368 29.2312C35.0674 29.1214 35.025 28.8958 35.0071 28.7036C34.9837 28.4521 34.9797 28.191 35.04 27.9435C35.0715 27.8176 35.1208 27.6969 35.1863 27.585C35.2479 27.4875 35.3022 27.3855 35.3487 27.28C35.434 27.0603 35.3685 26.8574 35.3571 26.6337C35.3447 26.3862 35.4907 26.2119 35.6194 26.0186C35.7346 25.8466 35.7988 25.6455 35.8045 25.4386C35.8228 25.0043 35.6706 24.5422 35.8926 24.1369C36.1549 23.6583 36.7113 23.503 37.2095 23.5378C37.2508 23.5408 37.246 23.4741 37.2062 23.4712V23.4727Z" fill="#384955"/>
<path id="Vector_39" d="M38.5423 26.7195C38.6529 26.1275 38.7953 25.5419 38.9688 24.9652L37.3342 23.4658C36.9918 23.5072 36.6355 23.5889 36.3762 23.8243C35.9848 24.1787 35.9201 24.7763 35.9567 25.3083C35.9932 25.8404 36.103 26.3841 35.9526 26.8967C35.7943 27.4427 35.3619 27.8813 35.2401 28.4368C35.1066 29.0468 35.3908 29.6942 35.8499 30.097C36.3089 30.4997 36.9154 30.6876 37.5174 30.7586C37.5474 30.7644 37.5784 30.7631 37.6078 30.755C37.6619 30.7355 37.6901 30.6755 37.712 30.6209C38.2055 29.3844 38.2969 28.0293 38.5423 26.7195Z" fill="#384955"/>
<path id="Vector_40" d="M41.7311 32.7959C41.1156 33.2754 40.4177 33.638 39.6717 33.8658C38.7463 33.8251 37.6025 33.6732 36.3797 33.4092C35.4968 33.2214 34.6263 32.9787 33.7736 32.6824C33.0206 32.0591 32.4211 31.2706 32.0215 30.3781C32.4513 30.001 33.034 29.7146 33.7154 29.536C34.2385 29.4037 34.7755 29.3345 35.315 29.3298C35.6556 29.3253 35.9962 29.3422 36.3347 29.3803C36.6313 29.4144 36.926 29.4633 37.2177 29.5268C37.4087 29.5681 37.5958 29.6149 37.7792 29.6674C37.8524 29.6882 37.9248 29.71 37.9965 29.7329C38.0462 29.7483 38.0956 29.7641 38.145 29.7809C38.239 29.812 38.3315 29.845 38.4233 29.879L38.4844 29.9025C39.0739 30.1244 39.6321 30.4219 40.1451 30.7875C40.2252 30.8457 40.3034 30.905 40.3788 30.9654C41.0621 31.5118 41.5369 32.1459 41.7311 32.7959Z" fill="#FDBAA0"/>
<path id="Vector_41" d="M41.7335 32.7969C40.9735 33.3901 40.0886 33.8024 39.1459 34.0028C38.2031 34.2032 37.2272 34.1863 36.292 33.9535C35.3567 33.7207 34.4866 33.278 33.7474 32.659C33.0082 32.0399 32.4194 31.2607 32.0254 30.3803C32.4552 30.0031 33.0379 29.7168 33.7193 29.5381C33.7193 29.5381 36.0424 33.1473 40.0868 30.8237C40.1076 30.812 40.1281 30.8002 40.149 30.7871C40.2291 30.8453 40.3074 30.9046 40.3827 30.965C41.0645 31.5128 41.5393 32.147 41.7335 32.7969Z" fill="#445D78"/>
<path id="Vector_42" d="M36.7403 30.3426C36.2191 30.1596 36.2721 29.7454 36.3782 29.142L36.7992 26.748C36.9174 26.0758 37.5224 25.613 38.1504 25.7115C38.7785 25.8099 38.8172 25.948 38.6991 26.6199L38.2525 29.4829C38.1343 30.1566 37.3095 30.5876 36.7403 30.3426Z" fill="#FDBAA0"/>
<path id="Vector_43" d="M37.3987 23.7602C37.3987 23.7602 34.8792 26.3233 35.8624 27.6082C36.4671 28.3965 37.5933 28.2541 39.0787 27.7297C40.3579 27.2783 40.2752 22.2974 37.3987 23.7602Z" fill="#FDBAA0"/>
<path id="Vector_44" d="M40.5526 26.9009C40.6316 26.5446 40.636 26.177 40.6404 25.8127C40.6448 25.4388 40.6474 25.0547 40.5197 24.7061C40.3057 24.1228 39.7666 23.7398 39.2267 23.4561L38.1816 23.7303C38.4011 23.7959 38.5449 24.0002 38.5215 24.1851C38.498 24.37 38.4446 24.5549 38.4615 24.7405C38.498 25.1279 38.8181 25.4117 38.9772 25.7636C39.084 25.9994 38.9772 26.2762 38.9267 26.5325C38.8836 26.7595 38.9205 26.9719 38.9161 27.2026C38.9161 27.3161 38.9362 27.4311 38.9106 27.5417C38.8832 27.6581 38.8064 27.7548 38.7523 27.8609C38.664 28.028 38.6441 28.2228 38.6967 28.4043C38.7534 28.5812 38.9004 28.7287 39.0785 28.7632C39.3858 28.8229 39.6612 28.5599 39.8551 28.3047C40.1722 27.8848 40.4385 27.4135 40.5526 26.9009Z" fill="#384955"/>
<path id="Vector_45" d="M42.0419 30.3882C42.081 29.9828 41.9764 29.5826 41.949 29.1754C41.9197 28.7404 41.9797 28.3014 42.0847 27.877C42.201 27.4095 42.2946 26.9404 42.2826 26.4593C42.2628 25.6837 41.8945 24.98 41.1889 23.9459C40.2975 22.6395 39.1987 22.0646 38.0231 22.3601C36.8474 22.6556 37.1134 24.0712 37.1668 24.0097C38.0852 22.9522 39.3216 24.474 39.3406 25.8203L38.6822 26.7167C38.714 27.0303 38.6305 27.3448 38.4474 27.6013C38.3475 27.7397 38.2173 27.8624 38.1661 28.0257C38.0958 28.2498 38.1913 28.4922 38.1617 28.7251C38.1229 29.0268 37.8822 29.2648 37.804 29.5592C37.6986 29.9535 37.9192 30.3827 38.2528 30.5994C38.5864 30.8162 39.0066 30.8524 39.4009 30.8034C39.5473 30.7854 39.6936 30.7565 39.8399 30.7668C40.1149 30.7887 40.356 30.9498 40.5948 31.0901C40.8337 31.2303 41.1047 31.357 41.3765 31.3017C41.7642 31.2237 42.0027 30.7931 42.0419 30.3882Z" fill="#384955"/>
<path id="Vector_46" d="M38.4535 26.604C38.4535 26.604 39.0022 26.1255 39.2216 26.3649C39.4411 26.6044 39.1807 27.2177 38.8833 27.2437C38.5859 27.2697 38.429 26.7842 38.4422 26.6945L38.4535 26.604Z" fill="#FCBFAF"/>
<path id="Vector_47" d="M38.6484 27.1692C38.6144 27.0986 38.6217 27.1579 38.659 27.1502C38.681 27.151 38.7029 27.1535 38.7245 27.1575C38.8012 27.1583 38.8768 27.1391 38.9439 27.1019C39.0595 27.0378 39.1342 26.9283 39.2 26.8089C39.2366 26.7397 39.2849 26.6705 39.2732 26.5837C39.2508 26.4124 39.0903 26.3889 38.971 26.4545C38.8781 26.5065 38.8203 26.3468 38.9125 26.2956C39.106 26.1857 39.3423 26.2626 39.4169 26.4882C39.4901 26.7049 39.3258 26.9664 39.1857 27.118C39.1301 27.1803 39.0627 27.231 38.9873 27.267C38.912 27.303 38.8302 27.3237 38.7468 27.3278C38.663 27.3303 38.5423 27.3245 38.4992 27.2348C38.4523 27.137 38.6027 27.0711 38.6491 27.1681L38.6484 27.1692Z" fill="#FDBAA0"/>
<path id="Vector_48" d="M38.0909 23.6895C38.3159 23.4698 38.6835 23.4486 38.9147 23.6617C39.0237 23.7628 39.0945 23.8985 39.1151 24.0458C39.1363 24.2051 39.0866 24.3622 39.0442 24.5141C39.0043 24.658 38.9663 24.8089 38.9962 24.9579C39.0244 25.0974 39.1122 25.208 39.2128 25.301C39.3189 25.3984 39.4366 25.4815 39.5336 25.5892C39.637 25.7041 39.7188 25.8369 39.775 25.981C39.8345 26.1305 39.8629 26.2907 39.8584 26.4516C39.8538 26.6126 39.8165 26.7709 39.7487 26.9169C39.6803 27.0636 39.5793 27.1927 39.4535 27.2944C39.3412 27.3837 39.2084 27.4515 39.1243 27.5719C38.926 27.8513 39.1195 28.1863 39.2091 28.4621C39.2677 28.6415 39.2724 28.8172 39.185 28.9893C39.1053 29.146 38.9802 29.2698 38.8558 29.3866C38.6144 29.61 38.3071 29.8864 38.3616 30.2577C38.4077 30.5799 38.7274 30.7103 38.9941 30.8C39.0336 30.8132 39.0475 30.7476 39.008 30.7344C38.73 30.6403 38.3806 30.4858 38.4253 30.1208C38.4688 29.7638 38.7892 29.5543 39.0186 29.3211C39.137 29.2086 39.2287 29.0709 39.287 28.9183C39.3343 28.7659 39.3306 28.6022 39.2764 28.4522C39.223 28.2841 39.1367 28.1256 39.1129 27.948C39.0977 27.8632 39.1065 27.7758 39.1385 27.6958C39.1704 27.6157 39.2242 27.5463 39.2936 27.4954C39.4154 27.3987 39.5446 27.3218 39.6466 27.2025C39.7424 27.0878 39.816 26.9561 39.8635 26.8143C39.9599 26.5231 39.9461 26.2066 39.8247 25.9249C39.7698 25.7969 39.6958 25.6779 39.6053 25.572C39.5069 25.4555 39.3858 25.3676 39.2728 25.2666C39.1513 25.1567 39.0533 25.0289 39.0515 24.8554C39.0486 24.6932 39.1107 24.5368 39.1495 24.3816C39.1901 24.2201 39.2033 24.0568 39.1469 23.8986C39.0972 23.7579 39.0043 23.6367 38.8814 23.5522C38.6253 23.3776 38.2669 23.4288 38.0449 23.6471C38.0145 23.6771 38.0624 23.7203 38.0924 23.6917L38.0909 23.6895Z" fill="#4D6371"/>
<path id="Vector_49" d="M38.2565 23.5471C38.7499 23.1421 39.5367 23.1571 39.9779 23.6258C40.0967 23.7521 40.1918 23.9165 40.209 24.0949C40.2292 24.3014 40.1165 24.461 40.0415 24.6441C39.9014 24.9857 39.9749 25.3706 40.1337 25.6877C40.3074 26.034 40.5777 26.3123 40.8093 26.6166C41.0287 26.9048 41.2332 27.2413 41.2405 27.6202C41.2462 27.7969 41.204 27.9717 41.1184 28.1263C41.028 28.2834 40.8908 28.3804 40.7306 28.4514C40.5865 28.5148 40.4329 28.566 40.3114 28.6711C40.2503 28.7252 40.2008 28.7912 40.1659 28.865C40.131 28.9388 40.1114 29.019 40.1084 29.1006C40.0953 29.428 40.3601 29.6455 40.5591 29.8582C40.6856 29.9871 40.7808 30.1435 40.8371 30.3152C40.8916 30.4931 40.9274 30.7546 40.7782 30.8988C40.7469 30.9324 40.7062 30.9558 40.6615 30.9661C40.6168 30.9763 40.57 30.9729 40.5273 30.9563C40.4907 30.9391 40.4585 30.9984 40.4969 31.0156C40.633 31.0772 40.7895 31.012 40.8722 30.8864C40.9761 30.7253 40.9574 30.5111 40.9088 30.3353C40.8616 30.1633 40.7756 30.0045 40.6575 29.871C40.5477 29.7421 40.415 29.6316 40.3125 29.495C40.2028 29.3485 40.1414 29.1761 40.1874 28.9911C40.2387 28.785 40.3974 28.6671 40.5785 28.5865C40.731 28.5188 40.8912 28.4646 41.0174 28.3504C41.1406 28.2346 41.2273 28.0853 41.2669 27.9209C41.479 27.1084 40.7511 26.5093 40.3495 25.9249C40.1212 25.5925 39.9427 25.1641 40.0682 24.7507C40.1271 24.5573 40.2606 24.3947 40.2727 24.1868C40.2771 24.0178 40.2266 23.8519 40.1289 23.7141C39.7631 23.1688 38.9789 23.055 38.4222 23.3538C38.3499 23.3928 38.2817 23.439 38.2185 23.4914C38.1859 23.5182 38.2185 23.5742 38.255 23.5471H38.2565Z" fill="#4D6371"/>
<path id="Vector_50" d="M40.7736 28.8779C40.631 28.8831 40.522 29.0116 40.511 29.1536C40.4967 29.3323 40.6079 29.4832 40.7305 29.5963C40.8728 29.7292 41.0231 29.8483 41.15 29.9991C41.2859 30.1545 41.3906 30.3346 41.4584 30.5297C41.5338 30.7486 41.5414 30.9853 41.48 31.2085C41.4679 31.2499 41.5312 31.2635 41.5432 31.2224C41.6716 30.7779 41.5001 30.3224 41.2228 29.9837C41.1522 29.8983 41.0759 29.8177 40.9946 29.7424C40.9064 29.6604 40.8091 29.5879 40.7257 29.5008C40.6423 29.4136 40.5794 29.3118 40.5754 29.1914C40.5714 29.0709 40.6537 28.9504 40.778 28.946C40.7868 28.9456 40.7951 28.9417 40.8011 28.9351C40.807 28.9286 40.8101 28.9199 40.8097 28.9111C40.8092 28.9022 40.8053 28.8939 40.7987 28.888C40.7922 28.882 40.7836 28.879 40.7747 28.8794L40.7736 28.8779Z" fill="#4D6371"/>
<path id="Vector_51" d="M39.3887 27.9473C39.3988 28.0581 39.4282 28.1663 39.4757 28.267C39.4936 28.3054 39.5488 28.2688 39.5305 28.2304C39.4884 28.1396 39.4624 28.0422 39.4538 27.9425C39.4532 27.9339 39.4492 27.9259 39.4427 27.9202C39.4362 27.9145 39.4277 27.9116 39.4191 27.9122C39.4104 27.9128 39.4024 27.9168 39.3967 27.9233C39.391 27.9298 39.3882 27.9383 39.3887 27.9469V27.9473Z" fill="#4D6371"/>
<path id="Vector_52" d="M40.9035 26.0833C40.9524 26.1623 41.0017 26.241 41.0496 26.32C41.0719 26.3566 41.1267 26.32 41.1044 26.2834L40.9583 26.0464C40.936 26.0098 40.8812 26.0464 40.9038 26.083L40.9035 26.0833Z" fill="#4D6371"/>
<path id="Vector_53" d="M39.9096 56.5541C36.5675 55.8313 34.4361 52.5216 35.1581 49.1764C35.8802 45.8312 39.1868 43.6972 42.5289 44.42C45.8711 45.1428 48.0021 48.4529 47.28 51.7996C46.558 55.1463 43.2514 57.2773 39.9096 56.5541ZM42.3274 45.3533C39.4996 44.7415 36.7017 46.547 36.0905 49.3781C35.4793 52.2093 37.2829 55.0093 40.1108 55.6212C42.9386 56.233 45.7365 54.4275 46.3477 51.5967C46.9589 48.7659 45.1552 45.9652 42.3274 45.3552V45.3533Z" fill="#38516B"/>
<path id="Vector_54" d="M37.2015 49.2037L38.0984 51.364C38.2418 51.7097 38.3853 52.0552 38.5289 52.4006C38.6196 52.6203 38.7056 52.8429 38.8329 53.0425C38.9771 53.2617 39.1747 53.4405 39.4069 53.5622C39.6392 53.6839 39.8986 53.7445 40.1607 53.7382C40.8641 53.7177 41.3476 53.2223 41.8345 52.78C42.1019 52.5372 42.3663 52.2908 42.63 52.0436C44.0474 50.7134 45.4403 49.3571 46.8504 48.0192C47.4517 47.4483 48.0512 46.8731 48.6793 46.3301C48.9185 46.1228 49.0374 45.6743 49.0206 45.374C49.003 45.0602 48.8435 44.6897 48.5988 44.4839C48.3366 44.2642 47.9949 44.1075 47.6438 44.1426C47.2842 44.1792 47.026 44.3294 46.7549 44.5644C44.321 46.6743 42.1209 49.0437 39.7184 51.1886L39.5696 51.3205C39.4887 51.3937 39.3988 51.4116 39.7005 51.2106C39.5869 51.2873 39.6248 51.2758 39.8143 51.1762C40.4858 51.0905 40.9088 51.2858 41.0832 51.762C41.0883 51.739 41.0148 51.5969 41.01 51.5892L40.8663 51.2436C40.7829 51.0422 40.6992 50.8407 40.6153 50.639L39.6826 48.3937C39.5498 48.0748 39.3611 47.8079 39.0469 47.642C38.7597 47.4915 38.3449 47.4417 38.0362 47.5582C37.4166 47.7914 36.921 48.5314 37.2015 49.2059V49.2037Z" fill="#445D78"/>
<path id="Vector_55" d="M31.3498 35.4248L40.5828 37.3406C40.8835 37.4032 40.9852 36.9378 40.6838 36.8737L31.4504 34.9569C31.1498 34.8946 31.0481 35.3615 31.3498 35.4241V35.4248Z" fill="#38516B"/>
<path id="Vector_56" d="M30.8849 37.511L37.5179 38.8874L45.9586 40.6391L49.1142 41.2938C49.4149 41.3564 49.5166 40.891 49.2148 40.827L42.5821 39.4506L34.141 37.6989L30.9855 37.0438C30.6852 36.9816 30.5831 37.4466 30.8849 37.5107V37.511Z" fill="#38516B"/>
<path id="Vector_57" d="M42.18 37.7763L47.6506 38.9114L54.2287 40.2765L56.9355 40.8382C57.2358 40.9008 57.3379 40.4354 57.0361 40.3713L51.5655 39.2362L44.9873 37.8712L42.2806 37.3095C41.9799 37.2469 41.8782 37.7123 42.1796 37.7763H42.18Z" fill="#38516B"/>
<path id="Vector_58" d="M50.8909 41.6994L56.6724 42.8902C56.973 42.9524 57.0747 42.4874 56.7733 42.4233L50.9914 41.2322C50.6908 41.1703 50.5891 41.6372 50.8909 41.6994Z" fill="#38516B"/>
<path id="Vector_59" d="M30.2524 39.4364C33.1618 39.9793 36.0528 40.6104 38.9254 41.3298C39.2235 41.4031 39.3241 40.9373 39.0263 40.863C36.155 40.1438 33.2639 39.5127 30.353 38.9696C30.0516 38.9132 29.9506 39.38 30.2524 39.4364Z" fill="#38516B"/>
<path id="Vector_60" d="M40.5731 41.6654L52.7144 44.2978L56.1436 45.0411C56.4439 45.1062 56.546 44.6383 56.2446 44.5739L44.1029 41.9419L40.6748 41.1986C40.3749 41.1334 40.2725 41.6014 40.5742 41.6654H40.5731Z" fill="#38516B"/>
<path id="Vector_61" d="M48.5441 27.6407L59.2175 29.8183C59.5167 29.8794 59.6198 29.4155 59.3181 29.3536L48.6443 27.1764C48.3451 27.1153 48.2441 27.5792 48.5441 27.6407Z" fill="#38516B"/>
<path id="Vector_62" d="M48.2022 29.1916L58.8759 31.3681C59.1748 31.4292 59.2761 30.9653 58.9762 30.9038L48.3024 28.7262C48.0035 28.6651 47.9022 29.129 48.2022 29.1905V29.1916Z" fill="#38516B"/>
<path id="Vector_63" d="M47.9254 31.1362L58.3501 33.2892C58.6493 33.3507 58.7503 32.8865 58.4503 32.8246L48.0271 30.6727C47.7279 30.6108 47.6269 31.0754 47.9269 31.1369L47.9254 31.1362Z" fill="#38516B"/>
<path id="Vector_64" d="M47.5275 33.2447L52.9692 34.3C53.2688 34.3582 53.3716 33.8939 53.0694 33.8357L47.6278 32.7804C47.3282 32.7222 47.2254 33.1865 47.5275 33.2447Z" fill="#38516B"/>
<path id="Vector_65" d="M54.4144 34.7005L58.2572 35.5504C58.5557 35.6163 58.6563 35.152 58.3575 35.0857L54.5146 34.2359C54.2165 34.17 54.1155 34.6343 54.4144 34.7005Z" fill="#38516B"/>
<path id="Vector_66" d="M47.1134 35.172C50.631 35.9592 54.1669 36.6549 57.721 37.2591C58.0213 37.3104 58.1234 36.8461 57.8212 36.7948C54.2676 36.1906 50.7317 35.4949 47.2136 34.7077C46.9155 34.6411 46.8149 35.1053 47.1134 35.172Z" fill="#38516B"/>
<path id="Vector_67" d="M59.3041 23.5488L58.4277 27.6084L63.4053 28.6853L59.3041 23.5488Z" fill="#AFD0D3"/>
<path id="Vector_68" d="M22.5482 40.2854C22.6979 39.8797 22.9448 39.4432 23.2293 39.0349C22.5186 38.604 21.4809 37.9782 20.6575 37.4971C19.6129 40.2579 18.3166 44.1714 17.6172 46.3175L21.2278 46.5039L24.4975 45.4138C24.4975 45.4138 21.6009 42.8565 22.5482 40.2854Z" fill="#FDBAA0"/>
<path id="Vector_69" d="M19.299 54.8893C23.4096 54.1463 28.1282 49.3647 29.2284 47.7968C31.2837 44.8653 34.3153 43.449 34.3018 42.8785C34.2883 42.308 33.0117 41.0803 30.2994 42.2956C27.7225 43.4501 25.8369 45.5771 24.2275 45.3398C23.59 45.2461 19.6582 45.0308 19.6582 45.0308C19.6582 45.0308 17.7291 55.1731 19.299 54.8893Z" fill="#FDBAA0"/>
<path id="Vector_70" d="M9.99094 62.5471C9.99094 62.5471 15.3017 58.7419 15.0793 58.2831C14.8569 57.8243 10.1047 49.8541 9.51945 47.3485C9.51945 47.3485 9.5286 46.8667 8.82447 47.0607C8.12035 47.2548 2.2207 49.4162 2.2207 49.4162L3.57006 57.2846L9.99094 62.5471Z" fill="white"/>
<path id="Vector_71" d="M-8.1188 50.4155L-11.4492 64.4277L4.69479 68.2724C9.2085 64.8928 11.7353 62.8467 11.7499 62.0459C11.7536 61.8694 11.6896 61.6457 11.5718 61.3839C11.4339 61.0774 11.2228 60.7167 10.9602 60.3165C9.61963 58.266 6.95311 55.1602 6.00757 52.6861C5.48048 51.3053 5.05655 50.1937 4.60956 49.387C4.48028 49.1482 4.33216 48.9201 4.16661 48.7049C3.6333 48.0249 3.01623 47.7411 2.13544 47.9044C1.58311 48.0073 -5.11869 49.2827 -8.1188 50.4155Z" fill="#38516B"/>
<path id="Vector_72" d="M13.695 58.5175C13.7279 58.4376 13.7364 58.3498 13.7195 58.2651C13.7026 58.1804 13.661 58.1026 13.5999 58.0416C13.5388 57.9806 13.461 57.9391 13.3763 57.9224C13.2917 57.9056 13.204 57.9144 13.1243 57.9475C13.0446 57.9807 12.9765 58.0367 12.9287 58.1086C12.8808 58.1805 12.8554 58.265 12.8555 58.3513C12.8556 58.4377 12.8813 58.5221 12.9293 58.5939C12.9774 58.6657 13.0456 58.7215 13.1253 58.7545C13.1783 58.7764 13.235 58.7877 13.2923 58.7876C13.3496 58.7876 13.4063 58.7762 13.4592 58.7542C13.5121 58.7322 13.5602 58.6999 13.6006 58.6593C13.6411 58.6187 13.6731 58.5705 13.695 58.5175Z" fill="#445D78"/>
</g>
</g>
</g>
</g>
<defs>
<clipPath id="clip0_764_884">
<rect width="81.7758" height="76.4509" fill="white" transform="translate(0.427734 0.77832)"/>
</clipPath>
</defs>
</svg>
