<svg width="79" height="79" viewBox="0 0 79 79" fill="none" xmlns="http://www.w3.org/2000/svg">
<g id="Frame" clip-path="url(#clip0_764_759)">
<path id="Vector" d="M70.1518 33.7648C66.9498 30.9291 63.0893 13.8258 49.8648 22.7337C43.0323 27.336 31.5116 18.7829 21.9757 21.7369C13.2185 24.45 12.3743 33.3891 13.2218 36.302C14.9334 42.1855 9.60678 43.0627 4.66558 45.589C-3.08637 49.5543 2.65879 63.638 9.98111 63.706C17.3034 63.7739 61.6064 63.706 61.6064 63.706C61.6064 63.706 72.2565 63.4532 76.68 57.3577C81.4403 50.7961 78.4218 41.0902 70.1518 33.7648Z" fill="#FFE5F3"/>
<path id="Vector_2" d="M26.6113 62.1267C26.6113 62.1267 26.7039 63.6796 26.9932 63.702C27.0318 63.7051 28.4611 63.7051 28.4611 63.7051L30.2856 63.6939C30.2856 63.6939 30.2738 63.2376 29.7404 63.1411C29.2071 63.0446 28.3145 62.6553 27.9912 61.9235C27.6515 61.1533 26.6113 62.1267 26.6113 62.1267Z" fill="#445D78"/>
<path id="Vector_3" d="M25.9539 44.002C25.9539 44.002 26.7487 44.2139 27.2539 44.0556C27.7591 43.8973 28.6282 44.1576 28.7689 44.3485C28.9096 44.5394 28.8576 44.6159 28.6076 44.6821C28.3576 44.7484 27.4725 45.1401 26.8904 44.9131C26.3083 44.6862 25.5488 44.678 25.5488 44.678L25.9539 44.002Z" fill="#FDBAA0"/>
<path id="Vector_4" d="M19.084 36.8334C19.084 36.8334 19.9769 43.4243 21.4556 44.0127C22.185 44.3042 25.4093 44.9639 26.3638 45.0319C26.3638 45.0319 26.5974 44.8348 26.5405 44.0341C26.5405 44.0341 23.1623 42.7462 22.6826 42.046C21.9683 41.004 23.126 37.7884 22.2298 36.8096C21.3336 35.8309 19.8235 35.4086 19.084 36.8334Z" fill="#FF9BD0"/>
<path id="Vector_5" d="M19.1994 62.2225V60.7847H17.0209C16.9926 60.7846 16.9655 60.773 16.9454 60.7522C16.9254 60.7315 16.914 60.7034 16.9139 60.674V60.445C16.914 60.4156 16.9253 60.3874 16.9453 60.3665C16.9654 60.3457 16.9925 60.334 17.0209 60.3339H19.1994V52.1555C19.1997 52.0449 19.2421 51.939 19.3174 51.8608C19.3927 51.7826 19.4948 51.7386 19.6012 51.7383H20.0322C20.1387 51.7386 20.2407 51.7826 20.316 51.8608C20.3913 51.939 20.4337 52.0449 20.434 52.1555V60.3336H22.6126C22.6409 60.3337 22.6681 60.3454 22.6881 60.3662C22.7082 60.387 22.7195 60.4152 22.7196 60.4447V60.675C22.7194 60.7044 22.7081 60.7325 22.688 60.7532C22.668 60.774 22.6409 60.7857 22.6126 60.7858H20.434V62.2225C22.0102 62.3462 23.2732 62.9359 23.6276 63.6966H16.0059C16.3602 62.9353 17.6233 62.3475 19.1994 62.2225Z" fill="#445D78"/>
<path id="Vector_6" d="M19.3864 50.7156C19.6481 51.1677 19.9395 51.6007 20.2584 52.0113C21.2181 53.2684 22.2629 54.3066 22.4448 55.2871C22.4864 55.5002 22.5428 55.7099 22.6137 55.9145C22.6896 56.1391 22.7835 56.3752 22.8921 56.6192C23.2992 57.5364 23.9084 58.5669 24.5164 59.5025C25.5677 61.1196 26.5559 62.469 26.5559 62.469L28.3686 62.3889C28.296 62.2003 27.5055 59.9672 26.4479 57.2385C26.0183 56.1303 25.5618 54.9524 25.1201 53.816C25.0615 53.6641 25.0026 53.5133 24.9447 53.3635C24.8099 53.0156 24.6774 52.6731 24.5478 52.3399L22.7642 47.7388C22.7642 47.7388 18.7948 46.1761 18.3828 47.1895C18.0435 48.0218 18.3203 48.8389 19.3864 50.7156Z" fill="#445D78"/>
<path id="Vector_7" d="M22.4143 57.6895C22.4143 57.6895 21.1536 58.5306 21.2759 58.8038C21.2923 58.8401 21.9889 60.1359 21.9889 60.1359L22.8878 61.7846C22.8878 61.7846 23.2657 61.5512 23.0871 61.0209C22.9084 60.4906 22.8001 59.4921 23.2582 58.8415C23.7398 58.1579 22.4143 57.6895 22.4143 57.6895Z" fill="#445D78"/>
<path id="Vector_8" d="M24.1201 46.9961C24.1201 46.9961 29.1022 50.2188 29.6585 52.3836C30.2147 54.5484 23.0308 59.1684 23.0308 59.1684C23.0308 59.1684 22.2432 58.4468 22.1041 57.9175C22.1041 57.9175 25.3511 53.8784 26.0555 52.973C26.4881 52.4169 19.6592 51.0481 18.8242 49.7007C17.9891 48.3533 18.2885 47.2207 18.2885 47.2207L24.1201 46.9961Z" fill="#445D78"/>
<path id="Vector_9" d="M24.9133 51.1338H14.7164C14.5117 51.1338 14.3457 51.3061 14.3457 51.5187V53.6363C14.3457 53.8489 14.5117 54.0212 14.7164 54.0212H24.9133C25.118 54.0212 25.284 53.8489 25.284 53.6363V51.5187C25.284 51.3061 25.118 51.1338 24.9133 51.1338Z" fill="#445D78"/>
<path id="Vector_10" d="M21.8172 35.7033C22.1102 35.8908 22.3675 36.1326 22.5763 36.4167C21.3826 36.7371 19.4023 35.5888 19.4023 35.5888C19.4023 35.5888 20.1706 35.053 20.4553 33.8751C20.4697 33.8158 20.4827 33.7549 20.4942 33.6924C20.5341 33.4796 20.556 33.2636 20.5597 33.0469L21.1078 33.5565L22.0197 34.4058C22.0197 34.4058 21.9991 34.7578 21.8849 35.3628C21.8659 35.4692 21.8433 35.5827 21.8172 35.7033Z" fill="#FDBAA0"/>
<path id="Vector_11" d="M18.1453 41.5497C18.3161 43.9374 18.0284 47.5668 18.2225 48.1956C18.39 48.7392 20.3598 48.4171 21.1209 48.2361C21.4026 48.1681 21.7426 48.0733 22.0966 47.9602C23.0783 47.6439 24.1509 47.1927 24.2661 46.8574C24.2704 46.8449 24.2739 46.8321 24.2765 46.819C24.2862 46.7726 24.2855 46.7245 24.2746 46.6784C24.2363 46.5085 24.0884 46.323 24.071 45.9C24.0517 45.4278 24.0547 44.8717 24.0383 44.2741C24.0383 44.2061 24.0364 44.1331 24.0295 44.0662V44.0417V44.0033C24.0128 43.3367 23.9794 42.6355 23.9405 41.9404C23.9156 41.5035 23.8871 41.0714 23.8541 40.6569C23.7684 39.5874 23.6529 38.6365 23.4997 38.0352C23.2501 37.0551 22.6987 36.4157 22.1971 35.9472L21.8342 35.6241C21.4295 35.7158 20.9508 35.655 20.5179 35.442C20.0493 35.211 19.8873 35.0455 19.8058 35.108C18.7215 35.9747 17.9434 38.6311 18.1453 41.5497Z" fill="#FF9BD0"/>
<path id="Vector_12" d="M22.0908 47.9653C23.0725 47.649 24.1454 47.1978 24.2602 46.8625C24.2649 46.85 24.2685 46.8372 24.271 46.8241L24.2691 46.6835C24.2305 46.5136 24.0829 46.3281 24.0656 45.9051C24.0463 45.4329 24.0492 44.8771 24.0328 44.2791C24.0328 44.2112 24.0328 44.1382 24.024 44.0712V44.0468C24.024 44.0339 24.024 44.0213 24.024 44.0084L20.3095 42.2598C20.3095 42.2598 20.0942 45.3673 22.0908 47.9653Z" fill="#FF9BD0"/>
<path id="Vector_13" d="M22.0211 34.4066C22.0211 34.4066 22.0004 34.7585 21.8862 35.3636C20.9975 35.0663 20.5921 34.2302 20.4573 33.8773C20.419 33.7774 20.4023 33.7156 20.4023 33.7156L20.4963 33.6945L21.1091 33.5586L22.0211 34.4066Z" fill="#FDBAA0"/>
<path id="Vector_14" d="M22.3807 34.3968C22.3807 34.3968 20.425 34.6261 20.3062 33.3592C20.1874 32.0924 19.8553 31.2685 21.0991 31.0688C22.3428 30.869 22.6311 31.328 22.7698 31.7408C22.9085 32.1535 22.8866 34.3047 22.3807 34.3968Z" fill="#FDBAA0"/>
<path id="Vector_15" d="M20.3142 33.4467C20.3142 33.4467 20.4382 31.765 22.2186 31.5907C23.4381 31.4715 22.7581 30.3816 22.6282 30.208C22.6282 30.208 21.694 30.3408 20.7363 30.5053C18.7259 30.8501 20.1169 33.1848 20.3142 33.4467Z" fill="#445D78"/>
<path id="Vector_16" d="M29.78 45.6542L29.9512 45.7119L31.4078 41.0572L31.2367 40.9995L29.78 45.6542Z" fill="#445D78"/>
<path id="Vector_17" d="M25.0059 45.6026L29.9512 45.7119L29.9575 45.4049L25.0121 45.2955L25.0059 45.6026Z" fill="#445D78"/>
<path id="Vector_18" d="M25.5438 45.0156C25.5438 45.0156 26.3111 45.3173 26.8301 45.2195C27.349 45.1216 28.186 45.478 28.3048 45.6842C28.4236 45.8904 28.3647 45.9597 28.1085 45.9968C27.8523 46.0338 26.9305 46.3222 26.3772 46.0308C25.8239 45.7393 25.0684 45.6435 25.0684 45.6435L25.5438 45.0156Z" fill="#FDBAA0"/>
<path id="Vector_19" d="M19.4785 37.105C19.4785 37.105 19.6663 43.7567 21.0733 44.5112C21.7677 44.8849 24.9017 45.9096 25.8431 46.0845C25.8431 46.0845 26.096 45.9146 26.1245 45.1129C26.1245 45.1129 22.9038 43.4465 22.5013 42.6957C21.9018 41.5779 23.3939 38.5145 22.6073 37.4393C21.8207 36.364 20.3646 35.7722 19.4785 37.105Z" fill="#FF9BD0"/>
<path id="Vector_20" d="M37.4059 52.9893L62.9274 52.9893C64.7085 52.9893 66.1523 51.4901 66.1523 49.6408V13.4102C66.1523 11.5609 64.7085 10.0618 62.9274 10.0618L37.4059 10.0618C35.6248 10.0618 34.1809 11.5609 34.1809 13.4102V49.6408C34.1809 51.4901 35.6248 52.9893 37.4059 52.9893Z" fill="#FFBDE0"/>
<path id="Vector_21" d="M37.3218 48.6445H63.0625L63.0625 14.5613H37.3218V48.6445Z" fill="white"/>
<path id="Vector_22" d="M59.4129 47.1482C59.0527 47.1482 58.7072 46.9996 58.4525 46.7351C58.1978 46.4707 58.0547 46.112 58.0547 45.7379V26.2419C58.0548 25.868 58.1979 25.5094 58.4526 25.245C58.7073 24.9806 59.0528 24.832 59.4129 24.832C59.7731 24.832 60.1185 24.9806 60.3732 25.245C60.628 25.5094 60.7711 25.868 60.7712 26.2419V45.7379C60.7712 46.112 60.6281 46.4707 60.3734 46.7351C60.1186 46.9996 59.7732 47.1482 59.4129 47.1482Z" fill="#FF9BD0"/>
<path id="Vector_23" d="M54.9634 47.1484C54.785 47.1484 54.6084 47.1119 54.4437 47.041C54.2789 46.9702 54.1292 46.8663 54.0031 46.7353C53.877 46.6044 53.777 46.4489 53.7087 46.2778C53.6405 46.1067 53.6054 45.9233 53.6055 45.7382V20.0202C53.6055 19.6463 53.7485 19.2877 54.0032 19.0233C54.2579 18.7589 54.6032 18.6104 54.9634 18.6104C55.1417 18.6103 55.3184 18.6467 55.4831 18.7176C55.6479 18.7884 55.7977 18.8923 55.9238 19.0232C56.0499 19.1541 56.15 19.3095 56.2182 19.4806C56.2865 19.6517 56.3216 19.8351 56.3216 20.0202V45.7382C56.3217 45.9234 56.2866 46.1068 56.2183 46.2779C56.1501 46.449 56.05 46.6045 55.9239 46.7354C55.7978 46.8664 55.648 46.9703 55.4832 47.0411C55.3184 47.112 55.1418 47.1484 54.9634 47.1484Z" fill="#FF9BD0"/>
<path id="Vector_24" d="M50.1083 47.1476C49.748 47.1476 49.4025 46.9991 49.1478 46.7346C48.8931 46.4701 48.75 46.1114 48.75 45.7374V31.6384C48.7501 31.2645 48.8932 30.9058 49.1479 30.6414C49.4026 30.377 49.7481 30.2285 50.1083 30.2285C50.4684 30.2285 50.8138 30.3771 51.0684 30.6415C51.3231 30.9059 51.4662 31.2645 51.4662 31.6384V45.7374C51.4662 45.9226 51.4311 46.1059 51.3629 46.277C51.2947 46.4481 51.1947 46.6036 51.0686 46.7346C50.9425 46.8655 50.7928 46.9694 50.628 47.0403C50.4632 47.1112 50.2866 47.1476 50.1083 47.1476Z" fill="#FF9BD0"/>
<path id="Vector_25" d="M45.3817 47.1478C45.0215 47.1478 44.676 46.9992 44.4213 46.7347C44.1665 46.4703 44.0234 46.1116 44.0234 45.7376V23.8311C44.0234 23.4571 44.1665 23.0984 44.4213 22.8339C44.676 22.5695 45.0215 22.4209 45.3817 22.4209C45.7419 22.4209 46.0874 22.5695 46.3421 22.8339C46.5968 23.0984 46.7399 23.4571 46.7399 23.8311V45.7376C46.7399 46.1116 46.5968 46.4703 46.3421 46.7347C46.0874 46.9992 45.7419 47.1478 45.3817 47.1478Z" fill="#FF9BD0"/>
<path id="Vector_26" d="M41.9916 34.9503V45.7379C41.9916 45.9231 41.9565 46.1065 41.8883 46.2776C41.82 46.4487 41.72 46.6042 41.5938 46.7352C41.4677 46.8661 41.318 46.97 41.1531 47.0408C40.9883 47.1117 40.8117 47.1482 40.6333 47.1481C40.455 47.1481 40.2784 47.1116 40.1136 47.0408C39.9488 46.9699 39.7991 46.866 39.673 46.735C39.5469 46.6041 39.4469 46.4486 39.3787 46.2775C39.3104 46.1064 39.2753 45.923 39.2754 45.7379V34.9503C39.2754 34.5763 39.4184 34.2177 39.6731 33.9532C39.9277 33.6887 40.2731 33.5401 40.6333 33.54C40.9935 33.54 41.339 33.6886 41.5937 33.9531C41.8485 34.2176 41.9916 34.5763 41.9916 34.9503Z" fill="#FF9BD0"/>
<path id="Vector_27" d="M44.1532 20.675H46.4535C46.4855 20.6737 46.5174 20.6792 46.5473 20.6911C46.5772 20.703 46.6046 20.721 46.6276 20.744C46.6507 20.7671 46.669 20.7948 46.6815 20.8254C46.6941 20.856 46.7005 20.8889 46.7005 20.9221C46.7005 20.9554 46.6941 20.9883 46.6815 21.0189C46.669 21.0495 46.6507 21.0772 46.6276 21.1002C46.6046 21.1233 46.5772 21.1413 46.5473 21.1532C46.5174 21.165 46.4855 21.1705 46.4535 21.1693H44.1532C44.0916 21.1669 44.0333 21.1398 43.9905 21.0937C43.9477 21.0477 43.9238 20.9861 43.9238 20.9221C43.9238 20.8581 43.9477 20.7966 43.9905 20.7505C44.0333 20.7044 44.0916 20.6773 44.1532 20.675Z" fill="#445D78"/>
<path id="Vector_28" d="M45.9293 21.5742H46.4528C46.5159 21.5742 46.5764 21.6002 46.621 21.6466C46.6656 21.6929 46.6907 21.7557 46.6907 21.8212C46.6907 21.8867 46.6656 21.9495 46.621 21.9959C46.5764 22.0422 46.5159 22.0682 46.4528 22.0682H45.9293C45.8662 22.0682 45.8057 22.0422 45.7611 21.9959C45.7165 21.9495 45.6914 21.8867 45.6914 21.8212C45.6914 21.7557 45.7165 21.6929 45.7611 21.6466C45.8057 21.6002 45.8662 21.5742 45.9293 21.5742Z" fill="#445D78"/>
<path id="Vector_29" d="M53.6317 16.8828H55.932C55.9936 16.8852 56.0519 16.9123 56.0947 16.9584C56.1375 17.0044 56.1614 17.066 56.1614 17.13C56.1614 17.194 56.1375 17.2555 56.0947 17.3016C56.0519 17.3477 55.9936 17.3748 55.932 17.3771H53.6317C53.5701 17.3748 53.5118 17.3477 53.469 17.3016C53.4262 17.2555 53.4023 17.194 53.4023 17.13C53.4023 17.066 53.4262 17.0044 53.469 16.9584C53.5118 16.9123 53.5701 16.8852 53.6317 16.8828Z" fill="#445D78"/>
<path id="Vector_30" d="M55.4078 17.7822H55.9313C55.9944 17.7824 56.0548 17.8085 56.0994 17.8548C56.1439 17.901 56.169 17.9638 56.1692 18.0292C56.169 18.0947 56.1439 18.1574 56.0994 18.2037C56.0548 18.2499 55.9944 18.276 55.9313 18.2762H55.4078C55.3448 18.276 55.2844 18.2499 55.2398 18.2037C55.1952 18.1574 55.1701 18.0947 55.1699 18.0292C55.1701 17.9638 55.1952 17.901 55.2398 17.8548C55.2844 17.8085 55.3448 17.7824 55.4078 17.7822Z" fill="#445D78"/>
<path id="Vector_31" d="M58.232 23.0996H60.5323C60.5954 23.0996 60.6559 23.1256 60.7005 23.172C60.7451 23.2183 60.7702 23.2811 60.7702 23.3466C60.7702 23.4121 60.7451 23.4749 60.7005 23.5212C60.6559 23.5676 60.5954 23.5936 60.5323 23.5936H58.232C58.1689 23.5936 58.1084 23.5676 58.0638 23.5212C58.0192 23.4749 57.9941 23.4121 57.9941 23.3466C57.9941 23.2811 58.0192 23.2183 58.0638 23.172C58.1084 23.1256 58.1689 23.0996 58.232 23.0996Z" fill="#445D78"/>
<path id="Vector_32" d="M60.0094 23.998H60.5329C60.596 23.9982 60.6564 24.0243 60.701 24.0706C60.7457 24.1168 60.7709 24.1796 60.7711 24.245C60.7709 24.3105 60.7457 24.3733 60.7011 24.4196C60.6564 24.4659 60.596 24.4921 60.5329 24.4924H60.0094C59.9463 24.4921 59.8859 24.4659 59.8413 24.4196C59.7968 24.3733 59.7717 24.3105 59.7715 24.245C59.7717 24.1796 59.7968 24.1169 59.8413 24.0706C59.8859 24.0243 59.9463 23.9982 60.0094 23.998Z" fill="#445D78"/>
<path id="Vector_33" d="M48.9579 28.498H51.2582C51.3198 28.5004 51.3781 28.5275 51.4209 28.5736C51.4637 28.6197 51.4876 28.6812 51.4876 28.7452C51.4876 28.8092 51.4637 28.8707 51.4209 28.9168C51.3781 28.9629 51.3198 28.99 51.2582 28.9924H48.9579C48.8963 28.99 48.838 28.9629 48.7952 28.9168C48.7524 28.8707 48.7285 28.8092 48.7285 28.7452C48.7285 28.6812 48.7524 28.6197 48.7952 28.5736C48.838 28.5275 48.8963 28.5004 48.9579 28.498Z" fill="#445D78"/>
<path id="Vector_34" d="M50.734 29.3975H51.2575C51.3206 29.3976 51.381 29.4237 51.4255 29.47C51.4701 29.5163 51.4952 29.579 51.4954 29.6444C51.4952 29.7099 51.4701 29.7726 51.4255 29.8189C51.381 29.8652 51.3206 29.8913 51.2575 29.8914H50.734C50.6709 29.8913 50.6105 29.8652 50.566 29.8189C50.5214 29.7726 50.4963 29.7099 50.4961 29.6444C50.4963 29.579 50.5214 29.5163 50.566 29.47C50.6105 29.4237 50.6709 29.3976 50.734 29.3975Z" fill="#445D78"/>
<path id="Vector_35" d="M39.4833 31.8H41.7836C41.8156 31.7987 41.8475 31.8042 41.8774 31.8161C41.9073 31.828 41.9346 31.846 41.9577 31.869C41.9808 31.8921 41.9991 31.9198 42.0116 31.9504C42.0242 31.981 42.0306 32.0139 42.0306 32.0471C42.0306 32.0804 42.0242 32.1133 42.0116 32.1439C41.9991 32.1745 41.9808 32.2022 41.9577 32.2252C41.9346 32.2483 41.9073 32.2663 41.8774 32.2782C41.8475 32.29 41.8156 32.2955 41.7836 32.2943H39.4833C39.4217 32.2919 39.3634 32.2648 39.3206 32.2187C39.2778 32.1727 39.2539 32.1111 39.2539 32.0471C39.2539 31.9831 39.2778 31.9216 39.3206 31.8755C39.3634 31.8294 39.4217 31.8023 39.4833 31.8Z" fill="#445D78"/>
<path id="Vector_36" d="M41.2594 32.6982H41.7829C41.846 32.6982 41.9065 32.7243 41.9511 32.7706C41.9957 32.8169 42.0208 32.8797 42.0208 32.9452C42.0208 33.0107 41.9957 33.0736 41.9511 33.1199C41.9065 33.1662 41.846 33.1922 41.7829 33.1922H41.2594C41.1963 33.1922 41.1358 33.1662 41.0912 33.1199C41.0465 33.0736 41.0215 33.0107 41.0215 32.9452C41.0215 32.8797 41.0465 32.8169 41.0912 32.7706C41.1358 32.7243 41.1963 32.6982 41.2594 32.6982Z" fill="#445D78"/>
<path id="Vector_37" d="M40.6326 31.0969C40.4655 31.0965 40.3023 31.0448 40.1635 30.9481C40.0247 30.8515 39.9166 30.7143 39.8529 30.554C39.7892 30.3936 39.7727 30.2172 39.8055 30.0471C39.8383 29.877 39.9189 29.7208 40.0372 29.5982C40.1555 29.4757 40.3061 29.3923 40.47 29.3585C40.6339 29.3248 40.8037 29.3423 40.9581 29.4088C41.1124 29.4752 41.2443 29.5877 41.3371 29.732C41.4299 29.8762 41.4794 30.0458 41.4794 30.2193C41.4792 30.4523 41.3898 30.6756 41.231 30.8401C41.0722 31.0047 40.857 31.097 40.6326 31.0969ZM40.6326 29.6815C40.5302 29.6819 40.4303 29.7137 40.3453 29.773C40.2603 29.8323 40.1942 29.9164 40.1552 30.0147C40.1163 30.113 40.1063 30.2211 40.1264 30.3253C40.1466 30.4295 40.1961 30.5252 40.2686 30.6002C40.3411 30.6753 40.4334 30.7263 40.5338 30.7469C40.6342 30.7675 40.7383 30.7568 40.8328 30.716C40.9274 30.6753 41.0082 30.6063 41.065 30.5179C41.1219 30.4295 41.1522 30.3256 41.1522 30.2193C41.1521 30.1486 41.1386 30.0786 41.1125 30.0132C41.0863 29.9479 41.048 29.8886 40.9997 29.8386C40.9515 29.7887 40.8942 29.7491 40.8312 29.7222C40.7682 29.6952 40.7007 29.6814 40.6326 29.6815Z" fill="#445D78"/>
<path id="Vector_38" d="M40.2731 29.6813C40.2298 29.6812 40.1882 29.6633 40.1576 29.6314L37.6188 26.994H16.98C16.9366 26.994 16.895 26.9761 16.8643 26.9443C16.8336 26.9124 16.8164 26.8692 16.8164 26.8242C16.8164 26.7791 16.8336 26.7359 16.8643 26.704C16.895 26.6722 16.9366 26.6543 16.98 26.6543H37.753L40.389 29.3929C40.4119 29.4167 40.4275 29.4469 40.4339 29.4799C40.4402 29.5129 40.437 29.5471 40.4246 29.5782C40.4122 29.6093 40.3912 29.6358 40.3642 29.6545C40.3372 29.6732 40.3055 29.6831 40.2731 29.683V29.6813Z" fill="#445D78"/>
<path id="Vector_39" d="M45.494 49.6034C45.3267 49.6034 45.1632 49.5519 45.0242 49.4554C44.8851 49.359 44.7768 49.2218 44.7128 49.0614C44.6488 48.901 44.6321 48.7244 44.6647 48.5541C44.6974 48.3838 44.7779 48.2274 44.8962 48.1047C45.0145 47.9819 45.1652 47.8983 45.3292 47.8645C45.4932 47.8306 45.6632 47.8481 45.8177 47.9146C45.9722 47.9811 46.1043 48.0936 46.1971 48.2381C46.29 48.3825 46.3395 48.5522 46.3395 48.7259C46.3392 48.9586 46.25 49.1817 46.0915 49.3462C45.933 49.5107 45.7181 49.6032 45.494 49.6034ZM45.494 48.1877C45.3914 48.1877 45.2912 48.2193 45.206 48.2784C45.1208 48.3376 45.0543 48.4216 45.0151 48.5199C44.9759 48.6183 44.9656 48.7265 44.9856 48.8309C45.0056 48.9352 45.055 49.0311 45.1275 49.1064C45.1999 49.1817 45.2923 49.2329 45.3928 49.2537C45.4934 49.2744 45.5976 49.2638 45.6923 49.223C45.787 49.1823 45.8679 49.1133 45.9249 49.0248C45.9819 48.9363 46.0123 48.8323 46.0123 48.7259C46.0122 48.5832 45.9575 48.4463 45.8603 48.3454C45.7632 48.2445 45.6314 48.1878 45.494 48.1877Z" fill="#445D78"/>
<path id="Vector_40" d="M68.8209 52.2908H48.3754L45.7394 49.5539C45.7242 49.5381 45.7121 49.5194 45.7039 49.4988C45.6957 49.4782 45.6914 49.4561 45.6914 49.4338C45.6914 49.4114 45.6956 49.3893 45.7038 49.3687C45.712 49.3481 45.7241 49.3293 45.7393 49.3135C45.7545 49.2977 45.7725 49.2852 45.7923 49.2767C45.8122 49.2681 45.8335 49.2637 45.855 49.2637C45.8765 49.2637 45.8978 49.268 45.9176 49.2766C45.9375 49.2851 45.9556 49.2976 45.9708 49.3134L48.5109 51.9511H68.8209C68.8643 51.9511 68.9059 51.969 68.9365 52.0008C68.9672 52.0327 68.9845 52.0759 68.9845 52.1209C68.9845 52.166 68.9672 52.2092 68.9365 52.241C68.9059 52.2729 68.8643 52.2908 68.8209 52.2908Z" fill="#445D78"/>
<path id="Vector_41" d="M54.8452 16.2033C54.678 16.2033 54.5146 16.1518 54.3756 16.0554C54.2366 15.959 54.1283 15.8219 54.0643 15.6616C54.0004 15.5012 53.9836 15.3248 54.0162 15.1546C54.0489 14.9844 54.1293 14.828 54.2475 14.7053C54.3657 14.5825 54.5163 14.499 54.6803 14.4651C54.8442 14.4312 55.0142 14.4486 55.1686 14.515C55.3231 14.5815 55.4551 14.6939 55.5479 14.8382C55.6408 14.9826 55.6904 15.1522 55.6904 15.3258C55.6901 15.5584 55.601 15.7815 55.4425 15.946C55.2841 16.1105 55.0693 16.203 54.8452 16.2033ZM54.8452 14.788C54.7427 14.788 54.6426 14.8195 54.5574 14.8786C54.4722 14.9377 54.4058 15.0217 54.3666 15.12C54.3274 15.2182 54.3172 15.3264 54.3372 15.4307C54.3572 15.535 54.4065 15.6308 54.4789 15.7061C54.5514 15.7813 54.6437 15.8325 54.7441 15.8532C54.8446 15.874 54.9488 15.8633 55.0434 15.8226C55.1381 15.7819 55.2189 15.713 55.2759 15.6246C55.3328 15.5361 55.3632 15.4321 55.3632 15.3258C55.363 15.1832 55.3084 15.0465 55.2113 14.9457C55.1142 14.8449 54.9825 14.7882 54.8452 14.788Z" fill="#445D78"/>
<path id="Vector_42" d="M54.4841 14.7878C54.4407 14.7877 54.3992 14.7697 54.3686 14.7378L51.8281 12.1005H31.1909C31.1476 12.1005 31.1059 12.0826 31.0753 12.0507C31.0446 12.0189 31.0273 11.9757 31.0273 11.9306C31.0273 11.8856 31.0446 11.8424 31.0753 11.8105C31.1059 11.7786 31.1476 11.7607 31.1909 11.7607H51.9636L54.6006 14.4976C54.6235 14.5214 54.6391 14.5517 54.6455 14.5847C54.6518 14.6177 54.6486 14.6519 54.6362 14.683C54.6238 14.714 54.6027 14.7406 54.5758 14.7592C54.5488 14.7779 54.5171 14.7878 54.4847 14.7878H54.4841Z" fill="#445D78"/>
<path id="Vector_43" d="M30.773 26.2609H17.2154C17.1054 26.2609 17 26.2156 16.9222 26.1349C16.8445 26.0541 16.8008 25.9447 16.8008 25.8305C16.8008 25.774 16.8115 25.718 16.8323 25.6658C16.8532 25.6136 16.8837 25.5662 16.9222 25.5262C16.9607 25.4863 17.0064 25.4546 17.0567 25.433C17.107 25.4114 17.1609 25.4003 17.2154 25.4004H30.773C30.8274 25.4003 30.8813 25.4114 30.9316 25.433C30.9819 25.4546 31.0276 25.4863 31.0661 25.5262C31.1046 25.5662 31.1352 25.6136 31.156 25.6658C31.1768 25.718 31.1876 25.774 31.1876 25.8305C31.1876 25.9447 31.1439 26.0541 31.0661 26.1349C30.9884 26.2156 30.8829 26.2609 30.773 26.2609Z" fill="#445D78"/>
<path id="Vector_44" d="M30.772 24.9025H22.4497C22.3398 24.9025 22.2343 24.8572 22.1566 24.7765C22.0788 24.6957 22.0352 24.5863 22.0352 24.4721C22.0352 24.4156 22.0459 24.3596 22.0667 24.3074C22.0876 24.2552 22.1181 24.2078 22.1566 24.1678C22.1951 24.1279 22.2408 24.0962 22.2911 24.0746C22.3414 24.053 22.3953 24.0419 22.4497 24.042H30.772C30.8264 24.0419 30.8803 24.053 30.9306 24.0746C30.9809 24.0962 31.0266 24.1279 31.0651 24.1678C31.1036 24.2078 31.1342 24.2552 31.155 24.3074C31.1759 24.3596 31.1866 24.4156 31.1866 24.4721C31.1866 24.5863 31.1429 24.6957 31.0652 24.7765C30.9874 24.8572 30.882 24.9025 30.772 24.9025Z" fill="#445D78"/>
<path id="Vector_45" d="M30.772 23.5432H22.4497C22.3398 23.5432 22.2343 23.4978 22.1566 23.4171C22.0788 23.3364 22.0352 23.2269 22.0352 23.1127C22.0352 23.0562 22.0459 23.0003 22.0667 22.948C22.0876 22.8958 22.1181 22.8484 22.1566 22.8085C22.1951 22.7685 22.2408 22.7369 22.2911 22.7153C22.3414 22.6937 22.3953 22.6826 22.4497 22.6826H30.772C30.8264 22.6826 30.8803 22.6937 30.9306 22.7153C30.9809 22.7369 31.0266 22.7685 31.0651 22.8085C31.1036 22.8484 31.1342 22.8958 31.155 22.948C31.1759 23.0003 31.1866 23.0562 31.1866 23.1127C31.1866 23.2269 31.1429 23.3364 31.0652 23.4171C30.9874 23.4978 30.882 23.5432 30.772 23.5432Z" fill="#445D78"/>
<path id="Vector_46" d="M44.8882 11.2795H31.3303C31.2204 11.2795 31.115 11.2342 31.0373 11.1535C30.9597 11.0729 30.916 10.9635 30.916 10.8494C30.916 10.7929 30.9267 10.7369 30.9475 10.6847C30.9683 10.6325 30.9988 10.585 31.0372 10.545C31.0757 10.5051 31.1214 10.4734 31.1717 10.4517C31.2219 10.4301 31.2758 10.4189 31.3303 10.4189H44.8882C44.9427 10.4189 44.9966 10.4301 45.0468 10.4517C45.0971 10.4734 45.1428 10.5051 45.1813 10.545C45.2197 10.585 45.2502 10.6325 45.271 10.6847C45.2918 10.7369 45.3025 10.7929 45.3025 10.8494C45.3025 10.9059 45.2918 10.9618 45.2709 11.014C45.2501 11.0662 45.2196 11.1136 45.1811 11.1535C45.1427 11.1935 45.097 11.2251 45.0468 11.2468C44.9965 11.2684 44.9426 11.2795 44.8882 11.2795Z" fill="#445D78"/>
<path id="Vector_47" d="M57.0108 58.7081C58.163 57.5118 58.163 55.5722 57.0108 54.3758C55.8586 53.1795 53.9905 53.1795 52.8382 54.3758C51.686 55.5722 51.686 57.5118 52.8382 58.7081C53.9905 59.9045 55.8586 59.9045 57.0108 58.7081Z" fill="#445D78"/>
<path id="Vector_48" d="M54.9236 53.9531C55.4152 53.953 55.8959 54.1038 56.3052 54.3865C56.7145 54.6692 57.0343 55.0711 57.2242 55.5419C57.4141 56.0127 57.4658 56.5313 57.3727 57.0325C57.2796 57.5337 57.046 57.9951 56.701 58.3588L54.9236 56.5426L52.5929 57.466C52.4492 57.0738 52.3993 56.6513 52.4476 56.2347C52.4959 55.8181 52.6409 55.4199 52.8701 55.0743C53.0994 54.7288 53.4061 54.4462 53.7638 54.2509C54.1215 54.0556 54.5195 53.9534 54.9236 53.9531Z" fill="white"/>
<path id="Vector_49" d="M55.2888 55.2275H56.3503C56.3704 55.2276 56.3896 55.236 56.4039 55.2507C56.4181 55.2655 56.4261 55.2855 56.4262 55.3064C56.4262 55.3273 56.4182 55.3473 56.4039 55.3621C56.3897 55.3769 56.3704 55.3852 56.3503 55.3852H55.2888C55.2687 55.3852 55.2494 55.3769 55.2351 55.3621C55.2209 55.3473 55.2129 55.3273 55.2129 55.3064C55.213 55.2855 55.221 55.2655 55.2352 55.2507C55.2494 55.236 55.2687 55.2276 55.2888 55.2275Z" fill="#445D78"/>
<path id="Vector_50" d="M55.2888 55.4766H56.3503C56.3704 55.4766 56.3897 55.4849 56.4039 55.4996C56.4182 55.5144 56.4262 55.5345 56.4262 55.5554C56.4262 55.5763 56.4182 55.5963 56.4039 55.6111C56.3897 55.6259 56.3704 55.6342 56.3503 55.6342H55.2888C55.2687 55.6342 55.2494 55.6259 55.2351 55.6111C55.2209 55.5963 55.2129 55.5763 55.2129 55.5554C55.2129 55.5345 55.2209 55.5144 55.2351 55.4996C55.2494 55.4849 55.2687 55.4766 55.2888 55.4766Z" fill="#445D78"/>
<path id="Vector_51" d="M55.9118 55.7266H56.3498C56.3699 55.7266 56.3892 55.7349 56.4034 55.7496C56.4176 55.7644 56.4256 55.7844 56.4256 55.8053C56.4256 55.8262 56.4176 55.8462 56.4034 55.861C56.3892 55.8757 56.3699 55.884 56.3498 55.884H55.9118C55.8917 55.884 55.8724 55.8757 55.8581 55.861C55.8439 55.8462 55.8359 55.8262 55.8359 55.8053C55.8359 55.7844 55.8439 55.7644 55.8581 55.7496C55.8724 55.7349 55.8917 55.7266 55.9118 55.7266Z" fill="#445D78"/>
<path id="Vector_52" d="M52.3418 55.1044L53.509 53.8926H52.3418V55.1044Z" fill="#445D78"/>
<path id="Vector_53" d="M67.8396 56.6993C67.9209 55.0095 66.6675 53.5712 65.04 53.4868C63.4126 53.4024 62.0273 54.7038 61.946 56.3936C61.8647 58.0833 63.1181 59.5216 64.7456 59.606C66.3731 59.6904 67.7583 58.389 67.8396 56.6993Z" fill="#445D78"/>
<path id="Vector_54" d="M62.3926 56.5428C62.3925 55.9586 62.5828 55.3915 62.9324 54.9337C63.282 54.476 63.7704 54.1544 64.3183 54.0212C64.8662 53.8881 65.4413 53.9513 65.9503 54.2004C66.4592 54.4496 66.872 54.8702 67.1217 55.3937C67.3713 55.9173 67.4431 56.5132 67.3254 57.0845C67.2076 57.6558 66.9072 58.1689 66.4731 58.5406C66.0389 58.9122 65.4965 59.1205 64.9339 59.1316C64.3713 59.1427 63.8216 58.9559 63.3742 58.6016L64.8866 56.5428L62.5562 57.4662C62.4478 57.1714 62.3924 56.8584 62.3926 56.5428Z" fill="white"/>
<path id="Vector_55" d="M65.2732 55.2275H66.3346C66.3548 55.2276 66.374 55.236 66.3882 55.2507C66.4025 55.2655 66.4105 55.2855 66.4106 55.3064C66.4106 55.3273 66.4026 55.3473 66.3883 55.3621C66.3741 55.3769 66.3548 55.3852 66.3346 55.3852H65.2732C65.253 55.3852 65.2337 55.3769 65.2195 55.3621C65.2053 55.3473 65.1973 55.3273 65.1973 55.3064C65.1974 55.2855 65.2054 55.2655 65.2196 55.2507C65.2338 55.236 65.2531 55.2276 65.2732 55.2275Z" fill="#445D78"/>
<path id="Vector_56" d="M65.2732 55.4766H66.3346C66.3548 55.4766 66.3741 55.4849 66.3883 55.4996C66.4026 55.5144 66.4106 55.5345 66.4106 55.5554C66.4106 55.5763 66.4026 55.5963 66.3883 55.6111C66.3741 55.6259 66.3548 55.6342 66.3346 55.6342H65.2732C65.253 55.6342 65.2337 55.6259 65.2195 55.6111C65.2053 55.5963 65.1973 55.5763 65.1973 55.5554C65.1973 55.5345 65.2053 55.5144 65.2195 55.4996C65.2337 55.4849 65.253 55.4766 65.2732 55.4766Z" fill="#445D78"/>
<path id="Vector_57" d="M65.8961 55.7266H66.3341C66.3542 55.7266 66.3735 55.7349 66.3877 55.7496C66.402 55.7644 66.41 55.7844 66.41 55.8053C66.41 55.8262 66.402 55.8462 66.3877 55.861C66.3735 55.8757 66.3542 55.884 66.3341 55.884H65.8961C65.876 55.884 65.8567 55.8757 65.8425 55.861C65.8283 55.8462 65.8203 55.8262 65.8203 55.8053C65.8203 55.7844 65.8283 55.7644 65.8425 55.7496C65.8567 55.7349 65.876 55.7266 65.8961 55.7266Z" fill="#445D78"/>
<path id="Vector_58" d="M62.3203 55.1044L63.4875 53.8926H62.3203V55.1044Z" fill="#445D78"/>
<path id="Vector_59" d="M75.688 63.8074H7.47707C7.45103 63.8074 7.42607 63.7966 7.40766 63.7775C7.38925 63.7584 7.37891 63.7325 7.37891 63.7054C7.37891 63.6784 7.38925 63.6525 7.40766 63.6334C7.42607 63.6143 7.45103 63.6035 7.47707 63.6035H75.688C75.7141 63.6035 75.739 63.6143 75.7574 63.6334C75.7758 63.6525 75.7862 63.6784 75.7862 63.7054C75.7862 63.7325 75.7758 63.7584 75.7574 63.7775C75.739 63.7966 75.7141 63.8074 75.688 63.8074Z" fill="#202F4E"/>
</g>
<defs>
<clipPath id="clip0_764_759">
<rect width="77.9723" height="77.9723" fill="white" transform="translate(0.970703 0.729492)"/>
</clipPath>
</defs>
</svg>
