<svg width="88" height="53" viewBox="0 0 88 53" fill="none" xmlns="http://www.w3.org/2000/svg">
<g clip-path="url(#clip0_764_823)">
<path d="M7.05106 52.0188C7.05106 52.0188 -3.69171 39.0928 1.55861 25.7853C4.98089 17.1112 17.8171 12.3582 25.0632 17.1112C28.1488 19.1356 38.0483 17.1794 43.3341 8.79847C53.606 -7.48775 89.4553 2.40331 82.9279 27.4084C79.7695 39.5089 92.54 39.9473 86.033 52.0446L7.05106 52.0188Z" fill="#FFE5F3"/>
<path d="M28.4773 51.9265H28.4993C28.6792 51.9233 28.8187 51.7766 28.8009 51.6075L27.6014 39.6406L26.5547 39.7338L28.277 51.7651C28.2852 51.8116 28.31 51.8536 28.3469 51.8833C28.3837 51.913 28.43 51.9283 28.4773 51.9265Z" fill="#FFBDE0"/>
<path d="M16.9267 51.9265H16.9046C16.7248 51.9233 16.5852 51.7766 16.6031 51.6075L17.8025 39.6406L18.8493 39.7338L17.127 51.7651C17.1188 51.8116 17.094 51.8537 17.0572 51.8834C17.0203 51.9131 16.974 51.9284 16.9267 51.9265Z" fill="#FFBDE0"/>
<path d="M36.9402 51.9265H36.9622C37.142 51.9233 37.2816 51.7766 37.2637 51.6075L36.0643 39.6406L35.0176 39.7338L36.7402 51.7651C36.7483 51.8116 36.773 51.8536 36.8098 51.8833C36.8466 51.913 36.8929 51.9284 36.9402 51.9265Z" fill="#FFBDE0"/>
<path d="M17.2823 37.8988L15.1528 27.3951C14.8796 25.9731 16.0593 24.6729 17.5912 24.7077L21.6977 24.8015C22.3882 24.8169 23.0558 25.052 23.6033 25.4727C24.1507 25.8934 24.5493 26.4777 24.7411 27.1405L27.8568 37.8988H17.2823Z" fill="#FFBDE0"/>
<path d="M18.5714 37.8988L16.4418 27.3951C16.1687 25.9731 17.3483 24.6729 18.8803 24.7077L22.9868 24.8015C23.6771 24.8172 24.3444 25.0524 24.8916 25.4731C25.4389 25.8938 25.8374 26.4779 26.0292 27.1405L29.1446 37.8988H18.5714Z" fill="#FFBDE0"/>
<path d="M34.1253 39.8145H17.8776C17.7202 39.8145 17.5692 39.752 17.4579 39.6408C17.3466 39.5297 17.2841 39.3789 17.2841 39.2216V37.8972H34.1253C34.2827 37.8972 34.4336 37.9597 34.5449 38.0709C34.6562 38.182 34.7187 38.3328 34.7187 38.4901V39.2201C34.719 39.298 34.7038 39.3753 34.674 39.4474C34.6443 39.5195 34.6006 39.585 34.5455 39.6403C34.4904 39.6955 34.4249 39.7393 34.3527 39.7692C34.2806 39.7991 34.2033 39.8145 34.1253 39.8145Z" fill="#FFBDE0"/>
<path d="M25.5005 39.8145H35.8578C36.1219 39.8145 36.3359 39.6006 36.3359 39.3368V38.3765C36.3359 38.1127 36.1219 37.8988 35.8578 37.8988H25.5005C25.2364 37.8988 25.0224 38.1127 25.0224 38.3765V39.3368C25.0224 39.6006 25.2364 39.8145 25.5005 39.8145Z" fill="#FFBDE0"/>
<path d="M31.4377 35.7004C30.5587 37.2283 29.4532 37.8183 29.4532 37.8183H24.8535C24.8535 37.8183 32.1082 34.5352 31.4377 35.7004Z" fill="#233862"/>
<path d="M37.1108 50.8828C37.0613 51.3646 37.7324 51.489 38.5109 51.5362C39.2893 51.5835 39.0539 51.7401 40.1176 51.9446C41.1812 52.1491 41.6137 51.862 41.6923 51.7187C41.7626 51.5911 41.2684 51.3866 40.742 51.155C40.6759 51.1263 40.6095 51.0963 40.543 51.0666C39.9508 50.7986 39.6224 50.2619 39.1638 49.7626C38.7293 49.2898 38.3282 47.7845 38.3282 47.7845L36.8809 47.4609C36.8809 47.4609 37.2737 48.8147 37.4089 49.3922C37.4884 49.732 37.3616 50.1094 37.2492 50.3966C37.1891 50.5529 37.1281 50.7128 37.1108 50.8828Z" fill="#FDBAA0"/>
<path d="M38.5099 51.5362C39.2884 51.5834 39.0529 51.74 40.1166 51.9445C41.1803 52.1491 41.6128 51.8619 41.6914 51.7187C41.7616 51.591 41.2675 51.3865 40.7411 51.1549L40.7328 51.1638C40.2039 51.3104 39.6451 51.311 39.1159 51.1657C38.4131 50.9666 37.7337 50.5378 37.2485 50.3965C37.1882 50.5528 37.1272 50.7127 37.1099 50.8827C37.0614 51.3645 37.7325 51.4889 38.5099 51.5362Z" fill="#445D78"/>
<path d="M34.9175 34.1374C34.1388 33.5911 28.9881 32.6174 26.3593 32.336L23.4525 29.8154C23.4525 29.8154 20.9796 33.474 20.961 36.2731C20.9518 37.5781 21.5536 37.7089 21.5539 37.7089C21.5542 37.7089 30.8676 37.7778 31.2761 37.8199C31.9443 37.8885 32.8256 39.5514 33.046 41.066C33.2664 42.5805 37.1503 48.7406 37.1503 48.7406C37.1503 48.7406 37.96 49 38.3347 48.9779C38.7375 48.9543 38.924 48.8184 38.924 48.8184C38.924 48.8184 36.6737 35.3676 34.9175 34.1374Z" fill="#566D85"/>
<path d="M34.7007 50.8825C34.6509 51.3642 35.3223 51.4887 36.1007 51.5359C36.8791 51.5831 36.6437 51.7398 37.7074 51.9443C38.7711 52.1488 39.2036 51.8616 39.2821 51.7184C39.3524 51.5908 38.8583 51.3862 38.3319 51.1546C38.2657 51.1259 38.1993 51.0959 38.1329 51.0662C37.5407 50.7982 37.2123 50.2616 36.7536 49.7622C36.3192 49.2894 35.9177 47.7841 35.9177 47.7841L34.4707 47.459C34.4707 47.459 34.8636 48.8127 34.9987 49.3902C35.0782 49.73 34.9514 50.1075 34.839 50.3946C34.7789 50.5526 34.7179 50.7124 34.7007 50.8825Z" fill="#FDBAA0"/>
<path d="M36.1018 51.5362C36.8803 51.5834 36.6449 51.74 37.7085 51.9445C38.7722 52.1491 39.2047 51.8619 39.2833 51.7187C39.3536 51.591 38.8594 51.3865 38.333 51.1549L38.3247 51.1638C37.7958 51.3104 37.237 51.311 36.7078 51.1657C36.0051 50.9666 35.3257 50.5378 34.8405 50.3965C34.7801 50.5528 34.7191 50.7127 34.7018 50.8827C34.652 51.3645 35.3234 51.4889 36.1018 51.5362Z" fill="#445D78"/>
<path d="M32.4882 34.1377C31.812 33.6632 29.7773 33.2954 27.5311 33.021C27.2277 32.9839 26.9428 32.8557 26.7138 32.6535C26.4848 32.4513 26.3226 32.1845 26.2486 31.8883L21.0248 29.8145C21.0248 29.8145 18.5515 33.4731 18.5333 36.2721C18.524 37.5771 19.1262 37.7079 19.1262 37.7079C19.1262 37.7079 28.4402 37.7768 28.8484 37.8189C29.5166 37.8875 30.3979 39.5504 30.6183 41.065C30.8387 42.5796 34.7225 48.7396 34.7225 48.7396C34.7225 48.7396 35.5326 48.999 35.9069 48.977C36.3097 48.9534 36.4963 48.8174 36.4963 48.8174C36.4963 48.8174 34.2444 35.3679 32.4882 34.1377Z" fill="#627A93"/>
<path d="M25.4975 14.6135C24.7795 14.2371 23.6874 14.186 23.5098 14.1621C21.3863 13.8772 20.1083 16.9592 20.0329 17.895C19.8946 19.6179 18.9826 19.8789 17.7011 20.958C15.1279 23.1199 15.8826 25.6318 17.2894 26.5651C18.1336 27.125 19.6211 26.5651 19.6211 26.5651C19.6419 26.5797 23.6903 24.3046 25.686 23.207C28.6767 22.7785 27.3269 15.5729 25.4975 14.6135Z" fill="#FF9BD0"/>
<path d="M25.0543 22.144C25.0635 22.1488 24.1107 22.5817 23.423 22.3549C22.7759 22.1418 22.206 21.1686 22.2149 21.1674C22.4957 21.1265 22.7813 20.8483 22.8611 19.21L22.9854 19.2419L25.0766 19.7696C25.0766 19.7696 24.9939 20.4313 24.9597 21.057C24.931 21.5818 24.9367 22.0818 25.0543 22.144Z" fill="#FDBAA0"/>
<path d="M25.5225 19.8524C25.5225 19.8524 22.7569 20.302 22.503 18.5762C22.2491 16.8504 21.7214 15.7484 23.4763 15.3885C25.2312 15.0286 25.6717 15.6358 25.8965 16.1909C26.1214 16.7461 26.2351 19.691 25.5225 19.8524Z" fill="#FDBAA0"/>
<path d="M25.5252 15.3169C25.5252 15.3169 24.2693 17.2969 23.1484 17.7659C22.0276 18.235 21.4766 17.9969 21.4766 17.9969C21.8127 17.4441 22.0315 16.8281 22.1192 16.1873C22.1378 16.0369 22.1963 15.8943 22.2886 15.7741C22.3809 15.6539 22.5038 15.5606 22.6444 15.5038C23.449 15.1829 25.0052 14.6743 25.5252 15.3169Z" fill="#FF9BD0"/>
<path d="M24.4238 15.5085C24.4238 15.5085 25.1585 15.8869 25.4623 16.2379C25.7549 16.5786 26.0925 17.5039 26.0692 17.9193C26.0692 17.9193 26.432 15.9284 25.676 15.244C24.8733 14.5191 24.4238 15.5085 24.4238 15.5085Z" fill="#FF9BD0"/>
<path d="M27.2657 26.3567C27.1817 31.9721 27.2427 30.7983 26.6269 31.3311C26.4787 31.4587 26.0622 31.5356 25.514 31.572C23.7892 31.6862 20.7607 31.4026 20.6454 31.0845C20.2477 29.9834 20.5285 29.6414 20.1982 27.9558C20.1637 27.7768 20.1209 27.5828 20.0705 27.3713C19.7938 26.2138 19.5249 25.8201 20.5058 23.9603C21.3957 22.2757 22.4422 20.9072 22.5252 20.9564C24.8726 22.3484 24.9528 21.1816 24.9528 21.1816C24.9528 21.1816 27.3076 23.6182 27.2657 26.3567Z" fill="white"/>
<path d="M24.9531 21.1816C24.9531 21.1816 27.3555 21.5884 27.6391 22.6273C27.9228 23.6661 29.5921 29.7741 29.5921 29.7741C29.5921 29.7741 28.3642 29.9943 27.7969 29.4276C27.2296 28.861 25.8229 24.1706 25.8229 24.1706L24.9531 21.1816Z" fill="white"/>
<path d="M25.515 31.5724C23.7901 31.6866 20.7617 31.403 20.6464 31.0849C20.2487 29.9838 20.5295 29.6418 20.1992 27.9562L21.0297 25.6182C21.0297 25.6182 20.8924 28.222 21.6612 28.9067C22.4301 29.5914 24.8088 30.2288 25.1822 30.8012C25.362 31.0747 25.4805 31.351 25.515 31.5724Z" fill="white"/>
<path d="M23.541 30.4768C23.541 30.4768 25.2413 30.0987 25.5157 30.2493C25.7901 30.3999 26.4605 30.949 26.5445 31.1401C26.6285 31.3312 25.9338 30.9949 25.7076 30.9346C25.5614 30.8954 25.1761 31.0304 24.9854 31.0942C24.1831 31.3612 23.6911 31.224 23.6911 31.224L23.541 30.4768Z" fill="#FDBAA0"/>
<path d="M22.5263 20.9561C22.5263 20.9561 20.1195 21.0968 19.3292 22.1978C18.2167 23.7478 16.0095 30.3539 17.2744 31.2335C18.699 32.2258 23.7586 31.4932 23.7586 31.4932C23.7586 31.4932 23.927 30.707 23.6928 30.3271C23.4587 29.9471 19.6521 29.3326 19.4765 29.1571C19.3008 28.9816 21.6725 25.7352 21.6725 25.2088C21.6725 24.6823 22.5263 20.9561 22.5263 20.9561Z" fill="white"/>
<path d="M25.5977 30.7236C25.5977 30.7236 25.9534 31.1823 26.0702 31.2371C26.187 31.2919 26.2616 31.2779 26.2616 31.2779L26.0217 30.847L25.5977 30.7236Z" fill="#FFB27D"/>
<path d="M25.5156 30.249L26.5515 30.7515C26.5515 30.7515 26.5074 30.8236 26.38 30.8179C26.2525 30.8122 25.9306 30.6944 25.9306 30.6944L25.5156 30.249Z" fill="#FDBAA0"/>
<path d="M29.3307 31.4405H24.5195C24.5195 31.3389 24.5599 31.2416 24.6318 31.1698C24.7037 31.098 24.8012 31.0576 24.9028 31.0576H29.3307V31.4405Z" fill="#445D78"/>
<path d="M29.3185 26.207H36.7569L34.9726 31.4408H27.4863L29.3185 26.207Z" fill="#445D78"/>
<path d="M36.8663 26.207L35.082 31.4408H27.5957L29.4279 26.207H36.8663Z" fill="#445D78"/>
<path d="M32.8559 28.7748C32.8097 28.9747 32.6102 29.1366 32.4092 29.1366C32.2082 29.1366 32.0847 28.9747 32.1307 28.7748C32.1766 28.575 32.3764 28.4131 32.5774 28.4131C32.7784 28.4131 32.9019 28.575 32.8559 28.7748Z" fill="white"/>
<path d="M55.4542 31.4404H22.8576C22.7205 31.4404 22.6094 31.5514 22.6094 31.6883V32.3698C22.6094 32.5068 22.7205 32.6177 22.8576 32.6177H55.4542C55.5912 32.6177 55.7024 32.5068 55.7024 32.3698V31.6883C55.7024 31.5514 55.5912 31.4404 55.4542 31.4404Z" fill="#627A93"/>
<path d="M56.2525 52.0136H56.2665C56.3058 52.0093 56.3438 51.9972 56.3783 51.9781C56.4129 51.959 56.4433 51.9332 56.4679 51.9023C56.4925 51.8714 56.5106 51.836 56.5214 51.798C56.5322 51.76 56.5353 51.7203 56.5307 51.6812L53.6259 32.041L52.5625 32.0729L55.9803 51.819C55.9924 51.8799 56.0272 51.934 56.0778 51.9701C56.1283 52.0063 56.1908 52.0218 56.2525 52.0136Z" fill="#627A93"/>
<path d="M21.7663 52.0136H21.7526C21.7133 52.0093 21.6753 51.9972 21.6408 51.9781C21.6062 51.959 21.5757 51.9332 21.5512 51.9023C21.5266 51.8714 21.5084 51.836 21.4977 51.798C21.4869 51.76 21.4838 51.7203 21.4884 51.6812L24.3932 32.041L25.4566 32.0729L22.0388 51.819C22.0268 51.88 21.9919 51.9342 21.9413 51.9704C21.8906 52.0065 21.828 52.022 21.7663 52.0136Z" fill="#627A93"/>
<path d="M28.4912 52.0136H28.4772C28.4379 52.0092 28.3999 51.9971 28.3654 51.978C28.3308 51.9589 28.3004 51.9331 28.2759 51.9022C28.2513 51.8713 28.2331 51.8359 28.2223 51.798C28.2115 51.76 28.2084 51.7203 28.213 51.6812L31.1178 32.041L32.1812 32.0729L28.7634 51.819C28.7513 51.8799 28.7165 51.934 28.6659 51.9701C28.6153 52.0063 28.5529 52.0218 28.4912 52.0136Z" fill="#627A93"/>
<path d="M88.2327 51.8281H-2.04467C-2.11277 51.8281 -2.16797 51.8833 -2.16797 51.9513V52.0524C-2.16797 52.1204 -2.11277 52.1756 -2.04467 52.1756H88.2327C88.3008 52.1756 88.356 52.1204 88.356 52.0524V51.9513C88.356 51.8833 88.3008 51.8281 88.2327 51.8281Z" fill="#2E3552"/>
<path d="M45.627 51.9978H51.3909C51.6682 51.66 51.5663 50.4131 51.5241 50.006C51.5155 49.924 51.5097 49.8761 51.5097 49.8761C51.5097 49.8761 49.5411 48.3035 49.2709 49.5076C49.2626 49.5456 49.2527 49.5823 49.2418 49.619C48.901 50.7452 47.3732 51.257 46.491 51.3996C45.9173 51.494 45.7052 51.7901 45.627 51.9978Z" fill="#445D78"/>
<path d="M61.3545 33.29C61.1466 33.29 51.4809 35.1029 49.8822 37.0795C49.0837 38.0685 48.9648 49.4719 48.9648 49.4719C48.9648 49.4719 49.9531 50.6958 52.0872 49.9853C52.0872 49.9853 53.6523 42.1821 53.5361 39.8154C53.5041 39.161 60.1401 39.7197 61.3545 39.4067C62.569 39.0937 65.5367 36.4538 64.8829 35.168C64.229 33.8822 61.3545 33.29 61.3545 33.29Z" fill="#627A93"/>
<path d="M49.9248 30.4971C49.9248 30.4971 47.9764 30.5232 47.5142 30.7204C47.052 30.9176 46.1177 31.371 46.3681 31.4405C46.6185 31.5101 47.8128 31.4118 48.0706 31.4514C48.3284 31.4909 48.6472 31.4402 48.8053 31.4405H49.6996L49.9248 30.4971Z" fill="#FDBAA0"/>
<path d="M47.6457 25.8228C47.6457 25.8228 46.981 25.3484 46.3361 25.2562C45.9678 25.2039 45.61 25.1381 45.3938 25.0622C44.7981 24.8526 43.605 23.7821 43.6964 23.6564C43.9854 23.2541 45.3768 24.1057 45.6196 24.0144C45.8624 23.9232 45.1529 23.4191 45.3998 23.2417C45.5276 23.1491 45.8301 23.613 46.0767 23.6596C46.4102 23.7234 46.6708 24.1931 46.7714 24.2177C46.9666 24.2655 47.8227 24.9014 47.8227 24.9014L47.6457 25.8228Z" fill="#FDBAA0"/>
<path d="M60.3935 20.2822C60.3935 20.2822 58.9094 20.7417 57.4471 24.7637C55.9848 28.7857 55.4297 29.003 54.8982 29.1596C54.3666 29.3163 49.7012 30.2444 49.7012 30.2444V31.4383H56.8901C56.8901 31.4383 59.5853 28.877 60.3935 27.1528C61.2016 25.4286 60.3935 20.2822 60.3935 20.2822Z" fill="#FFA9D7"/>
<path d="M43.0801 51.9978H48.844C49.1213 51.66 49.0191 50.4131 48.9772 50.006C48.9686 49.924 48.9625 49.8761 48.9625 49.8761C48.9625 49.8761 46.9943 48.3035 46.724 49.5076C46.7157 49.5456 46.7055 49.5823 46.6946 49.619C46.3541 50.7452 44.8264 51.257 43.9441 51.3996C43.3704 51.494 43.1583 51.7901 43.0801 51.9978Z" fill="#445D78"/>
<path d="M58.5072 33.29C58.299 33.29 48.6336 35.1029 47.0346 37.0795C46.236 38.0685 46.1172 49.4719 46.1172 49.4719C46.1172 49.4719 47.1055 50.6958 49.2395 49.9853C49.2395 49.9853 50.8047 42.1821 50.6884 39.8154C50.6565 39.161 57.2925 39.7197 58.5072 39.4067C59.722 39.0937 62.6891 36.4538 62.0352 35.168C61.3814 33.8822 58.5072 33.29 58.5072 33.29Z" fill="#627A93"/>
<path d="M59.1124 21.5572C59.8078 21.5 60.5367 21.3147 61.1669 21.1105C61.9546 20.8552 62.5893 20.4823 62.1805 19.7631C61.8032 19.1004 61.1931 17.62 61.2343 16.3936L59.7685 17.5741L58.7735 18.3759C58.7735 18.3759 58.7773 18.8481 58.8863 19.676C58.9061 19.8269 58.9294 19.99 58.9569 20.1642C58.9677 20.233 58.958 20.3035 58.9289 20.3668C58.8998 20.4302 58.8526 20.4835 58.7933 20.5202L58.7706 20.5343C58.2759 20.8434 58.5304 21.6053 59.1124 21.5572Z" fill="#FDBAA0"/>
<path d="M57.951 18.3242C57.951 18.3242 61.3653 18.8905 61.6857 16.7608C62.0061 14.6311 62.6628 13.271 60.4965 12.8192C58.3302 12.3674 57.7833 13.1159 57.5035 13.8006C57.2237 14.4853 57.0713 18.1206 57.951 18.3242Z" fill="#FDBAA0"/>
<path d="M57.0053 12.8592C56.8586 13.3719 57.2509 13.9963 57.9095 14.2021C58.8873 14.5071 58.671 15.7051 59.1112 15.6889C59.5514 15.6726 59.7286 15.0003 60.1215 15.5373C60.4569 15.9955 59.8427 16.5388 59.8848 16.7899C59.9573 17.2213 60.6339 18.1038 61.2433 18.0595C61.8528 18.0151 62.9934 15.1216 62.7654 14.2263C62.5373 13.331 61.6247 12.3873 60.761 12.2571C59.8973 12.1269 58.6982 12.4993 58.4212 12.4993C58.1443 12.4993 57.0829 12.5822 57.0053 12.8592Z" fill="#627A93"/>
<path d="M64.9293 23.238C64.4358 21.2541 63.0725 19.1738 62.1497 19.1738C60.5782 19.1767 58.3192 19.5912 57.4073 21.8386C56.7365 23.4938 55.8392 33.0151 56.8521 33.6925C59.167 35.2405 64.5329 38.4005 65.4861 35.178C66.3597 32.2255 65.7857 26.6812 64.9293 23.238Z" fill="#FFBDE0"/>
<path d="M61.1125 21.263C61.0084 20.992 60.8421 20.7492 60.6271 20.5539C60.4121 20.3586 60.1543 20.2163 59.8743 20.1385C59.5943 20.0606 59.3 20.0493 59.0149 20.1054C58.7297 20.1616 58.4617 20.2837 58.2323 20.4619C57.6989 20.8767 57.0457 21.4666 56.257 22.3057C53.3244 25.4251 52.7284 25.4057 52.1777 25.3412C51.627 25.2768 46.9737 24.2902 46.9737 24.2902C46.8161 24.4146 46.687 24.5713 46.5952 24.7497C46.408 25.1287 46.5022 25.3878 46.5022 25.3878C46.3198 25.2701 48.1517 26.5313 49.0634 27.0341C50.2676 27.6984 52.0819 28.3209 52.8044 28.5573C53.0091 28.6242 53.2304 28.6209 53.433 28.548C54.5056 28.1617 58.1074 26.7546 61.0397 24.3129C61.8121 23.669 61.5281 22.343 61.1125 21.263Z" fill="#FFBDE0"/>
<path d="M62.3079 19.1931L61.9521 18.3926C61.9521 18.3926 58.7675 18.652 58.2324 20.4623C58.2324 20.4623 60.7009 19.232 62.3079 19.1931Z" fill="white"/>
<path d="M70.0398 51.9265H70.0615C70.2413 51.9233 70.3809 51.7766 70.3634 51.6075L69.1639 39.6406L68.1172 39.7338L69.8395 51.7651C69.8477 51.8116 69.8725 51.8537 69.9093 51.8834C69.9461 51.9131 69.9925 51.9284 70.0398 51.9265Z" fill="#445D78"/>
<path d="M63.866 51.9265H63.888C64.0678 51.9233 64.2074 51.7766 64.1898 51.6075L62.9901 39.6406L61.9434 39.7338L63.666 51.7651C63.6741 51.8116 63.6988 51.8536 63.7356 51.8833C63.7724 51.913 63.8187 51.9284 63.866 51.9265Z" fill="#445D78"/>
<path d="M52.2727 51.9265H52.2506C52.0708 51.9233 51.9312 51.7766 51.9488 51.6075L53.1485 39.6406L54.1952 39.7338L52.4729 51.7651C52.4647 51.8116 52.4399 51.8536 52.4031 51.8833C52.3663 51.913 52.3199 51.9283 52.2727 51.9265Z" fill="#445D78"/>
<path d="M69.7002 37.9448L70.839 27.9501C70.9881 26.5099 70.5055 25.0996 68.4248 24.9902L64.7639 24.7669C62.5944 24.6775 61.6147 26.4812 61.34 27.87L59.168 38.8567L69.7002 37.9448Z" fill="#445D78"/>
<path d="M52.8415 37.8994H69.6827V39.2222C69.6827 39.3794 69.6202 39.5302 69.5089 39.6414C69.3976 39.7526 69.2466 39.815 69.0892 39.815H52.8415C52.6841 39.815 52.5332 39.7526 52.4219 39.6414C52.3106 39.5302 52.248 39.3794 52.248 39.2222V38.4922C52.248 38.335 52.3106 38.1842 52.4219 38.073C52.5332 37.9619 52.6841 37.8994 52.8415 37.8994Z" fill="#445D78"/>
<path d="M59.6289 37.8994H69.6833V39.3546C69.6835 39.4152 69.6718 39.4753 69.6487 39.5313C69.6256 39.5873 69.5917 39.6383 69.5489 39.6812C69.5061 39.7241 69.4552 39.7582 69.3991 39.7814C69.3431 39.8047 69.2831 39.8166 69.2224 39.8166H59.6289C59.5066 39.8166 59.3894 39.7681 59.303 39.6818C59.2165 39.5954 59.168 39.4783 59.168 39.3562V38.3614C59.1678 38.3008 59.1795 38.2408 59.2026 38.1847C59.2257 38.1287 59.2596 38.0777 59.3024 38.0348C59.3452 37.9919 59.3961 37.9578 59.4521 37.9346C59.5082 37.9114 59.5682 37.8994 59.6289 37.8994Z" fill="#445D78"/>
</g>
<defs>
<clipPath id="clip0_764_823">
<rect width="87.8615" height="51.3476" fill="white" transform="translate(0.113281 0.828125)"/>
</clipPath>
</defs>
</svg>
