<svg width="1512" height="196" viewBox="0 0 1512 196" fill="none" xmlns="http://www.w3.org/2000/svg">
<path d="M350.792 0.919434H410.286L484.718 202.875H429.621L418.773 170.967H341.107L330.567 202.875H276.36L350.792 0.919434ZM403.254 124.721L380.103 56.514L356.952 124.721H403.254Z" fill="#FFFFFF"/>
<path d="M1046.79 48.3278C1075.69 48.3278 1099.2 73.0232 1099.2 101.889C1099.2 130.754 1075.69 155.449 1046.79 155.449H914.437C885.537 155.449 862.027 130.754 862.027 101.889C862.027 73.0232 885.537 48.3278 914.437 48.3278H1046.79ZM1046.79 0.919434H914.437C858.673 0.919434 813.467 46.1915 813.467 101.906C813.467 157.603 858.673 202.875 914.437 202.875H1046.79C1102.55 202.875 1147.78 157.603 1147.78 101.906C1147.78 46.2086 1102.57 0.919434 1046.79 0.919434Z" fill="#FFFFFF"/>
<path d="M1411.69 134.975L1335.5 0.919434H1392.94L1437.48 82.5766L1460.63 40.4321C1469.42 23.4615 1472.64 11.447 1472.35 0.919434H1525.98C1525.98 18.7787 1520.41 31.3572 1507.51 54.4803L1461.79 134.975V202.875H1411.68V134.975H1411.69Z" fill="#FFFFFF"/>
<path d="M133.263 14.659V0.901367L-13.9746 58.9228V73.6717L120.892 126.805V190.706H-13.9746V202.874H133.263V118.346L92.9333 102.588V30.4162L133.263 14.659ZM80.7676 97.8031L0.312873 66.5108L80.7676 35.2186V97.8202V97.8031Z" fill="#FFFFFF"/>
<path d="M162.54 0.901367H301.36V48.3097H212.948V93.1032H284.848L268.661 137.008H212.948V202.857H162.54V0.901367Z" fill="#FFFFFF"/>
<path d="M1168.81 0.919434H1261.12C1302.44 0.919434 1333.5 30.4856 1333.5 70.2887C1333.5 99.2738 1315.91 122.687 1289.83 132.053L1295.1 139.658C1302.71 150.493 1313.27 155.467 1326.75 155.467H1386.66V202.875H1321.18C1286.3 202.875 1261.97 189.698 1247.62 163.072L1232.66 137.026H1219.18V202.875H1168.77V0.919434H1168.81ZM1219.21 48.3278V93.1042H1259.95C1272.55 93.1042 1281.92 83.4482 1281.92 70.5622C1281.92 57.6761 1272.55 48.3107 1259.95 48.3107H1219.21V48.3278Z" fill="#FFFFFF"/>
<path d="M478.456 101.888C478.456 157.653 523.714 202.874 579.563 202.874H681.27V155.448H579.563C550.629 155.448 527.085 130.787 527.085 101.888C527.085 72.988 550.629 48.3268 579.563 48.3268H630.263V0.901367H579.563C523.714 0.901367 478.456 46.1051 478.456 101.888Z" fill="#FFFFFF"/>
<path d="M655.278 0.919434V48.3278H706.268V202.875H756.677V48.3278H807.667V0.919434H655.278Z" fill="#FFFFFF"/>
</svg>
