<svg width="122" height="33" viewBox="0 0 122 33" fill="none" xmlns="http://www.w3.org/2000/svg">
<path d="M119.308 3.64479C120.142 4.39232 120.731 5.26923 121.076 6.27552C121.278 6.70679 121.421 7.15243 121.508 7.61245C121.623 8.04372 121.709 8.48936 121.766 8.94938C121.824 9.66816 121.853 10.3869 121.853 11.1057C121.881 11.7957 121.881 12.5001 121.853 13.2189C121.766 14.7427 121.738 16.2234 121.766 17.661C121.795 19.0985 121.752 20.5648 121.637 22.0599L121.508 23.4831C121.45 24.4894 121.292 25.51 121.033 26.5451C120.774 27.5514 120.386 28.4714 119.869 29.3052C119.38 29.9952 118.733 30.5559 117.928 30.9871C117.152 31.3897 116.318 31.7059 115.427 31.9359C114.622 32.1659 113.802 32.3097 112.969 32.3672C112.163 32.4247 111.344 32.4247 110.51 32.3672C109.907 32.3097 109.317 32.2234 108.742 32.1084C108.196 32.0222 107.664 31.864 107.146 31.634C106.658 31.404 106.212 31.1165 105.809 30.7715C105.407 30.3977 105.076 29.9233 104.818 29.3483C104.415 28.6295 104.142 27.8676 103.998 27.0626C103.883 26.2288 103.811 25.395 103.783 24.5613C103.696 22.3187 103.596 20.0761 103.481 17.8335C103.394 15.5621 103.423 13.2908 103.567 11.0195C103.596 9.72566 103.754 8.43186 104.041 7.13806C104.358 5.81551 104.961 4.65108 105.853 3.64479C106.14 3.35728 106.471 3.09852 106.845 2.86851C107.793 2.40849 108.814 2.07786 109.907 1.8766C111.028 1.64659 112.135 1.56033 113.227 1.61784C114.349 1.67534 115.427 1.8766 116.462 2.22161C117.526 2.53787 118.474 3.01227 119.308 3.64479ZM116.462 18.8685V16.7984L116.376 13.8658C116.376 13.8371 116.347 13.5496 116.289 13.0033C116.261 12.4283 116.232 11.8964 116.203 11.4076C116.146 10.6026 115.916 9.86942 115.513 9.20814C115.139 8.54686 114.622 8.05809 113.96 7.74183C113.385 7.51182 112.796 7.4687 112.192 7.61245C111.588 7.75621 111.057 8.00059 110.597 8.34561C109.59 9.12189 108.915 10.1138 108.57 11.3214C108.34 12.4139 108.196 13.5639 108.138 14.7715C108.11 15.979 108.124 17.1866 108.181 18.3941C108.325 19.4004 108.426 20.4355 108.483 21.4993C108.541 22.5343 108.713 23.5262 109.001 24.475C109.288 25.05 109.705 25.4957 110.252 25.8119C110.798 26.1282 111.387 26.3151 112.02 26.3726C112.652 26.4013 113.285 26.3151 113.917 26.1138C114.55 25.8838 115.082 25.5244 115.513 25.0357C115.772 24.6906 115.959 24.4175 116.074 24.2162C116.189 23.9862 116.261 23.7418 116.289 23.4831C116.318 23.2243 116.318 22.9224 116.289 22.5774C116.289 22.2037 116.318 21.7149 116.376 21.1111C116.404 20.5361 116.419 20.0329 116.419 19.6017C116.447 19.1704 116.462 18.926 116.462 18.8685Z" fill="#FFCC49"/>
<path d="M102.017 27.106C102.017 27.3935 102.031 27.6523 102.06 27.8823C102.118 28.9173 102.146 29.708 102.146 30.2543C102.146 30.7718 102.103 31.1599 102.017 31.4187C101.96 31.6487 101.844 31.7781 101.672 31.8068C101.499 31.8068 101.255 31.8068 100.939 31.8068C100.623 31.7781 100.206 31.7781 99.6882 31.8068C99.1994 31.8356 98.3512 31.8643 97.1437 31.8931C95.9649 31.9218 94.3261 31.9362 92.2273 31.9362C90.1572 31.9362 87.3827 31.9074 83.9038 31.8499V31.0737C83.9901 28.9173 84.0619 26.9766 84.1194 25.2516C84.1769 23.4977 84.2057 21.8733 84.2057 20.3782C84.2344 18.8544 84.2488 17.3881 84.2488 15.9793C84.2488 14.5705 84.2344 13.1329 84.2057 11.6666C84.1769 10.2003 84.1482 8.64776 84.1194 7.00895C84.0907 5.34138 84.0619 3.50131 84.0332 1.48873C84.3207 1.37372 84.7663 1.28747 85.3701 1.22996C85.9739 1.14371 86.6208 1.10059 87.3108 1.10059C88.0008 1.10059 88.6765 1.14371 89.3378 1.22996C89.999 1.31622 90.5309 1.4456 90.9335 1.61811C90.876 3.48693 90.8472 5.41326 90.8472 7.39709C90.876 9.35217 90.9047 11.3216 90.9335 13.3054C90.9622 15.2893 90.9766 17.2731 90.9766 19.2569C91.0053 21.212 91.0053 23.1096 90.9766 24.9497V24.9928C91.1778 24.9353 91.5516 24.9209 92.0979 24.9497C92.6729 24.9497 93.3342 24.964 94.0817 24.9928C94.8292 25.0215 95.6199 25.0647 96.4537 25.1222C97.3162 25.1509 98.1212 25.1797 98.8688 25.2084C99.645 25.2372 100.321 25.2659 100.896 25.2947C101.499 25.2947 101.916 25.2803 102.146 25.2516C102.146 25.5678 102.132 25.8841 102.103 26.2003C102.075 26.4879 102.046 26.7897 102.017 27.106Z" fill="#FFCC49"/>
<path d="M78.5821 3.64479C79.4158 4.39232 80.0052 5.26923 80.3503 6.27552C80.5515 6.70679 80.6953 7.15243 80.7815 7.61245C80.8965 8.04372 80.9828 8.48936 81.0403 8.94938C81.0978 9.66816 81.1265 10.3869 81.1265 11.1057C81.1553 11.7957 81.1553 12.5001 81.1265 13.2189C81.0403 14.7427 81.0115 16.2234 81.0403 17.661C81.069 19.0985 81.0259 20.5648 80.9109 22.0599L80.7815 23.4831C80.724 24.4894 80.5659 25.51 80.3071 26.5451C80.0484 27.5514 79.6602 28.4714 79.1427 29.3052C78.6539 29.9952 78.007 30.5559 77.202 30.9871C76.4257 31.3897 75.5919 31.7059 74.7007 31.9359C73.8956 32.1659 73.0762 32.3097 72.2424 32.3672C71.4374 32.4247 70.618 32.4247 69.7842 32.3672C69.1804 32.3097 68.591 32.2234 68.016 32.1084C67.4698 32.0222 66.9379 31.864 66.4203 31.634C65.9316 31.404 65.4859 31.1165 65.0834 30.7715C64.6809 30.3977 64.3503 29.9233 64.0915 29.3483C63.689 28.6295 63.4158 27.8676 63.2721 27.0626C63.1571 26.2288 63.0852 25.395 63.0565 24.5613C62.9702 22.3187 62.8696 20.0761 62.7546 17.8335C62.6683 15.5621 62.6971 13.2908 62.8408 11.0195C62.8696 9.72566 63.0277 8.43186 63.3152 7.13806C63.6315 5.81551 64.2353 4.65108 65.1265 3.64479C65.414 3.35728 65.7447 3.09852 66.1185 2.86851C67.0672 2.40849 68.0879 2.07786 69.1804 1.8766C70.3017 1.64659 71.4087 1.56033 72.5012 1.61784C73.6225 1.67534 74.7007 1.8766 75.7357 2.22161C76.7995 2.53787 77.7483 3.01227 78.5821 3.64479ZM75.7357 18.8685V16.7984L75.6494 13.8658C75.6494 13.8371 75.6207 13.5496 75.5632 13.0033C75.5344 12.4283 75.5057 11.8964 75.4769 11.4076C75.4194 10.6026 75.1894 9.86942 74.7869 9.20814C74.4131 8.54686 73.8956 8.05809 73.2344 7.74183C72.6593 7.51182 72.0699 7.4687 71.4662 7.61245C70.8624 7.75621 70.3305 8.00059 69.8705 8.34561C68.8642 9.12189 68.1885 10.1138 67.8435 11.3214C67.6135 12.4139 67.4698 13.5639 67.4122 14.7715C67.3835 15.979 67.3979 17.1866 67.4554 18.3941C67.5991 19.4004 67.6998 20.4355 67.7573 21.4993C67.8148 22.5343 67.9873 23.5262 68.2748 24.475C68.5623 25.05 68.9792 25.4957 69.5255 25.8119C70.0717 26.1282 70.6611 26.3151 71.2936 26.3726C71.9262 26.4013 72.5587 26.3151 73.1912 26.1138C73.8237 25.8838 74.3556 25.5244 74.7869 25.0357C75.0457 24.6906 75.2326 24.4175 75.3476 24.2162C75.4626 23.9862 75.5344 23.7418 75.5632 23.4831C75.5919 23.2243 75.5919 22.9224 75.5632 22.5774C75.5632 22.2037 75.5919 21.7149 75.6494 21.1111C75.6782 20.5361 75.6926 20.0329 75.6926 19.6017C75.7213 19.1704 75.7357 18.926 75.7357 18.8685Z" fill="#FFCC49"/>
<path d="M49.7182 7.95758C49.3156 8.04383 48.9994 8.20196 48.7694 8.43197C48.7119 8.48948 48.6544 8.59011 48.5969 8.73386C48.5681 8.84887 48.5394 8.93512 48.5106 8.99262C48.4531 9.07887 48.3956 9.58202 48.3381 10.5021C48.3093 11.4221 48.2806 12.5146 48.2518 13.7797C48.2231 15.0447 48.2087 16.3673 48.2087 17.7473C48.2087 19.0986 48.2518 20.2774 48.3381 21.2837C48.4243 22.1175 48.64 22.9369 48.985 23.742C49.3588 24.5182 49.9625 25.0214 50.7963 25.2514C51.4288 25.3089 52.0182 25.2226 52.5645 24.9926C53.1395 24.7339 53.5708 24.317 53.8583 23.742C54.1746 23.0807 54.304 22.3906 54.2465 21.6719C54.2177 20.9243 54.2752 20.1912 54.419 19.4724C54.8215 19.5299 55.2671 19.5443 55.7559 19.5155C56.2734 19.4868 56.7909 19.4724 57.3084 19.4724C57.826 19.4724 58.3291 19.4868 58.8179 19.5155C59.3354 19.5443 59.7954 19.6162 60.1979 19.7312C60.6867 21.2262 60.8161 22.7213 60.5861 24.2163C60.3561 25.6827 59.8529 27.0052 59.0766 28.184C58.3004 29.3628 57.2797 30.3403 56.0146 31.1166C54.7783 31.8642 53.3695 32.2523 51.7882 32.281C50.7532 32.4248 49.6894 32.4248 48.5969 32.281C47.5043 32.166 46.4836 31.8929 45.5349 31.4616C44.5861 31.0016 43.781 30.3691 43.1198 29.5641C42.4872 28.759 42.1135 27.7527 41.9985 26.5452C41.941 25.5102 41.8978 24.432 41.8691 23.3107C41.8403 22.1894 41.8116 20.9387 41.7828 19.5587C41.7828 18.1499 41.7828 16.5685 41.7828 14.8147C41.8116 13.0322 41.8403 10.9764 41.8691 8.64761C41.8116 8.15884 41.826 7.67007 41.9122 7.1813C42.0272 6.66378 42.171 6.18938 42.3435 5.75812C42.6022 5.01059 42.9185 4.32056 43.2923 3.68804C43.6948 3.05551 44.1692 2.49486 44.7155 2.00609C45.0317 1.77608 45.3767 1.5892 45.7505 1.44545C46.1243 1.27294 46.5124 1.12918 46.9149 1.01418C48.2375 0.582914 49.5456 0.410407 50.8394 0.496661C52.1332 0.582914 53.3408 0.8848 54.4621 1.40232C55.6121 1.89109 56.6472 2.55237 57.5672 3.38615C58.4872 4.21993 59.2204 5.18309 59.7667 6.27564C60.3129 7.33943 60.6436 8.50385 60.7586 9.7689C60.8736 11.034 60.7011 12.3278 60.2411 13.6503C59.1773 13.8803 58.1279 13.9666 57.0928 13.9091C56.0865 13.8228 55.0371 13.6791 53.9446 13.4778C53.8583 12.9315 53.8008 12.3134 53.7721 11.6233C53.7721 10.9333 53.7002 10.3008 53.5564 9.72577C53.4127 9.122 53.1395 8.63323 52.737 8.25947C52.3633 7.8857 51.7595 7.7132 50.9257 7.74195C50.5519 7.79945 50.1494 7.87133 49.7182 7.95758Z" fill="#FFCC49"/>
<path d="M36.677 3.64479C37.5108 4.39232 38.1002 5.26923 38.4452 6.27552C38.6465 6.70679 38.7902 7.15243 38.8765 7.61245C38.9915 8.04372 39.0777 8.48936 39.1352 8.94938C39.1928 9.66816 39.2215 10.3869 39.2215 11.1057C39.2503 11.7957 39.2503 12.5001 39.2215 13.2189C39.1353 14.7427 39.1065 16.2234 39.1352 17.661C39.164 19.0985 39.1209 20.5648 39.0059 22.0599L38.8765 23.4831C38.819 24.4894 38.6609 25.51 38.4021 26.5451C38.1433 27.5514 37.7552 28.4714 37.2377 29.3052C36.7489 29.9952 36.102 30.5559 35.297 30.9871C34.5207 31.3897 33.6869 31.7059 32.7956 31.9359C31.9906 32.1659 31.1712 32.3097 30.3374 32.3672C29.5324 32.4247 28.713 32.4247 27.8792 32.3672C27.2754 32.3097 26.686 32.2234 26.111 32.1084C25.5647 32.0222 25.0328 31.864 24.5153 31.634C24.0265 31.404 23.5809 31.1165 23.1784 30.7715C22.7759 30.3977 22.4452 29.9233 22.1865 29.3483C21.784 28.6295 21.5108 27.8676 21.3671 27.0626C21.2521 26.2288 21.1802 25.395 21.1514 24.5613C21.0652 22.3187 20.9645 20.0761 20.8495 17.8335C20.7633 15.5621 20.792 13.2908 20.9358 11.0195C20.9645 9.72566 21.1227 8.43186 21.4102 7.13806C21.7265 5.81551 22.3302 4.65108 23.2215 3.64479C23.509 3.35728 23.8397 3.09852 24.2134 2.86851C25.1622 2.40849 26.1829 2.07786 27.2754 1.8766C28.3967 1.64659 29.5036 1.56033 30.5962 1.61784C31.7175 1.67534 32.7956 1.8766 33.8307 2.22161C34.8945 2.53787 35.8432 3.01227 36.677 3.64479ZM33.8307 18.8685V16.7984L33.7444 13.8658C33.7444 13.8371 33.7157 13.5496 33.6582 13.0033C33.6294 12.4283 33.6007 11.8964 33.5719 11.4076C33.5144 10.6026 33.2844 9.86942 32.8819 9.20814C32.5081 8.54686 31.9906 8.05809 31.3293 7.74183C30.7543 7.51182 30.1649 7.4687 29.5611 7.61245C28.9574 7.75621 28.4255 8.00059 27.9654 8.34561C26.9592 9.12189 26.2835 10.1138 25.9385 11.3214C25.7085 12.4139 25.5647 13.5639 25.5072 14.7715C25.4785 15.979 25.4928 17.1866 25.5504 18.3941C25.6941 19.4004 25.7947 20.4355 25.8522 21.4993C25.9097 22.5343 26.0822 23.5262 26.3698 24.475C26.6573 25.05 27.0742 25.4957 27.6204 25.8119C28.1667 26.1282 28.7561 26.3151 29.3886 26.3726C30.0211 26.4013 30.6537 26.3151 31.2862 26.1138C31.9187 25.8838 32.4506 25.5244 32.8819 25.0357C33.1406 24.6906 33.3275 24.4175 33.4425 24.2162C33.5575 23.9862 33.6294 23.7418 33.6582 23.4831C33.6869 23.2243 33.6869 22.9224 33.6582 22.5774C33.6582 22.2037 33.6869 21.7149 33.7444 21.1111C33.7732 20.5361 33.7875 20.0329 33.7875 19.6017C33.8163 19.1704 33.8307 18.926 33.8307 18.8685Z" fill="#FFCC49"/>
<path d="M9.22911 16.842C9.22911 16.842 9.25786 16.8276 9.31536 16.7988C9.68913 16.5688 10.2929 16.4394 11.1267 16.4107C11.9892 16.3532 12.8949 16.3388 13.8437 16.3676C14.7924 16.3963 15.6694 16.4538 16.4744 16.5401C17.3082 16.5976 17.8688 16.6263 18.1563 16.6263H18.2426L18.2857 16.6695C18.4582 18.1933 18.5732 19.8177 18.6307 21.5428C18.6882 23.2391 18.5732 24.8635 18.2857 26.4161C18.142 27.8824 17.6963 29.0037 16.9488 29.78C16.2013 30.5563 15.2812 31.1457 14.1887 31.5482C13.4699 31.7494 12.7224 31.9219 11.9461 32.0657C11.1698 32.2382 10.3792 32.3532 9.57412 32.4107C8.76909 32.497 7.97844 32.497 7.20215 32.4107C6.45463 32.3245 5.73585 32.1376 5.04582 31.8501C3.89578 31.3613 3.01887 30.7 2.41509 29.8662C1.81132 29.0325 1.33693 27.9974 0.991913 26.7611C0.90566 26.4448 0.805031 26.0136 0.690027 25.4673C0.603773 24.8923 0.531896 24.3173 0.474393 23.7422C0.38814 22.8222 0.316262 21.9884 0.25876 21.2409C0.201258 20.4934 0.143756 19.7602 0.0862534 19.0414C0.0575022 18.2939 0.0287511 17.5176 0 16.7126C0 15.8788 0.0143756 14.93 0.0431267 13.8662C0.0718778 12.9462 0.115004 12.0118 0.172507 11.063C0.230009 10.0854 0.330638 9.13665 0.474393 8.21661C0.618149 7.26782 0.862533 6.34779 1.20755 5.4565C1.58131 4.56521 2.18508 3.83206 3.01887 3.25703C3.59389 2.76827 4.24079 2.40888 4.95957 2.17887C5.67835 1.94886 6.42587 1.77635 7.20215 1.66135C8.78347 1.46009 10.2929 1.51759 11.7305 1.83385C13.168 2.12136 14.4043 2.65326 15.4393 3.42954C16.4744 4.20582 17.2507 5.24087 17.7682 6.53467C18.2857 7.79972 18.4438 9.30915 18.2426 11.063L18.1995 11.3217C18.142 11.408 18.0126 11.4511 17.8113 11.4511C17.6101 11.4511 17.2794 11.4655 16.8194 11.4942C16.3881 11.4942 16.0144 11.5086 15.6981 11.5374C15.4106 11.5374 15.1087 11.5374 14.7924 11.5374C14.5049 11.5374 14.2031 11.523 13.8868 11.4942C13.5705 11.4655 13.1968 11.4224 12.7655 11.3649C12.6792 11.0774 12.5499 10.7323 12.3774 10.3298C12.2336 9.89855 12.0323 9.51041 11.7736 9.1654C11.5436 8.79163 11.2704 8.47537 10.9542 8.21661C10.6379 7.9291 10.2641 7.78534 9.83288 7.78534C9.34411 7.75659 8.86972 7.74222 8.4097 7.74222C7.94968 7.74222 7.54717 7.91472 7.20215 8.25974C7.14465 8.31724 7.0584 8.47537 6.94339 8.73413C6.85714 8.96414 6.78526 9.19415 6.72776 9.42416C6.5265 10.1142 6.354 10.948 6.21024 11.9255C6.09524 12.9031 6.00898 13.9525 5.95148 15.0738C5.89398 16.1663 5.8796 17.302 5.90835 18.4808C5.93711 19.6596 5.99461 20.7809 6.08086 21.8447C6.13836 22.4772 6.25337 23.1672 6.42587 23.9147C6.59838 24.6623 6.95777 25.2517 7.50404 25.6829C7.7628 25.8554 8.09344 25.9848 8.49595 26.0711C8.92722 26.1286 9.37286 26.1142 9.83288 26.028C10.3217 25.9417 10.7673 25.8267 11.1698 25.6829C11.4861 25.5392 11.7592 25.3523 11.9892 25.1223C12.2192 24.8635 12.3917 24.5329 12.5067 24.1304C12.5355 24.0154 12.5642 23.8285 12.593 23.5697C12.6505 23.2822 12.6792 22.9947 12.6792 22.7072C12.708 22.4197 12.708 22.1609 12.6792 21.9309C12.6792 21.7009 12.6361 21.5715 12.5499 21.5428C12.3774 21.514 12.133 21.514 11.8167 21.5428C11.5292 21.5428 11.2129 21.5572 10.8679 21.5859C10.5517 21.5859 10.2498 21.5859 9.96226 21.5859C9.7035 21.5572 9.50224 21.514 9.35849 21.4565C9.30099 20.9965 9.25786 20.594 9.22911 20.249C9.22911 19.904 9.22911 19.5733 9.22911 19.2571C9.25786 18.912 9.27223 18.567 9.27223 18.222C9.27223 17.877 9.24348 17.4457 9.18598 16.9282V16.8851C9.18598 16.8563 9.20036 16.842 9.22911 16.842Z" fill="#FFCC49"/>
</svg>
