<svg width="61" height="61" viewBox="0 0 61 61" fill="none" xmlns="http://www.w3.org/2000/svg">
<g clip-path="url(#clip0_767_2920)">
<path d="M30.7589 60.296C47.3797 60.296 60.8536 46.8221 60.8536 30.2012C60.8536 13.5803 47.3797 0.106445 30.7589 0.106445C14.138 0.106445 0.664062 13.5803 0.664062 30.2012C0.664062 46.8221 14.138 60.296 30.7589 60.296Z" fill="#800639"/>
<g clip-path="url(#clip1_767_2920)">
<path d="M40.2271 17.5946V23.5777H38.6699V18.0938C38.1112 17.4004 35.8091 14.9517 31.2128 14.9517C31.1811 14.9517 31.1533 14.9556 31.1216 14.9556C26.6323 14.9873 23.8507 17.3687 23.1217 18.078V23.7917H21.5645V17.4717L21.7546 17.2498C21.8933 17.0953 25.1385 13.4381 31.1216 13.3984H31.2128C37.3148 13.3984 39.9814 17.234 40.0924 17.3964L40.2271 17.5946Z" fill="#445D78"/>
<path d="M23.4787 20.21H21.1172V22.5715H23.4787V20.21Z" fill="#9F2F5E"/>
<path d="M40.6037 20.1504H38.2461V22.508H40.6037V20.1504Z" fill="#9F2F5E"/>
<path d="M31.122 26.8984H13.2598V46.5754H31.122V26.8984Z" fill="#F2F2F2"/>
<path d="M47.7986 26.8984H31.1211V46.5754H47.7986V26.8984Z" fill="white"/>
<path d="M13.2559 35.14L30.9873 38.2465L47.7758 35.1756L42.6208 32.5645H23.6293L13.2559 35.14Z" fill="#445D78"/>
<path d="M11.6973 21.8506V33.3652C11.6973 35.2037 12.9771 35.1442 12.9771 35.1442L31.1207 36.5548V22.96L11.6973 21.8506Z" fill="#F2F2F2"/>
<path d="M49.1735 21.8497L31.1211 22.9591V36.55L48.1552 35.1394C48.1552 35.1394 49.3162 35.1314 49.3162 33.7129C49.3162 32.2944 49.1735 21.8457 49.1735 21.8457V21.8497Z" fill="white"/>
<path d="M43.5584 29.5247C42.4609 28.8154 41.2286 28.5737 41.0859 28.7996L45.2622 31.2483C45.4049 31.0264 44.656 30.234 43.5624 29.5287L43.5584 29.5247Z" fill="#F2F2F2"/>
<path d="M45.3179 32.5241L44.8464 31.371C44.7235 31.3116 40.6502 31.7277 40.6502 31.7277C40.6502 31.7277 32.6503 39.4542 31.4061 40.5161C30.1659 41.578 34.6077 44.6172 34.6077 44.6172C34.6077 44.6172 37.1832 39.2521 37.9479 37.4453C38.7127 35.6385 45.3139 32.5201 45.3139 32.5201L45.3179 32.5241Z" fill="#F2F2F2"/>
<path d="M41.084 28.7959C41.084 28.7959 36.3094 36.4908 31.4119 39.4823C30.9562 39.7597 30.8651 40.3778 31.2257 40.7661L33.3534 43.0603C33.7299 43.4685 34.3995 43.3773 34.6531 42.8781C35.9726 40.2946 39.7883 33.626 45.1295 31.3001C45.189 31.2961 45.2365 31.2763 45.2603 31.2446L41.084 28.7959Z" fill="#C3C9D4"/>
<path d="M38.5865 36.9862C38.5865 36.9862 38.5707 36.9782 38.5667 36.9703L36.3042 35.1041C36.2606 35.0684 36.2567 35.005 36.2884 34.9614C36.324 34.9178 36.3874 34.9099 36.431 34.9495L38.6935 36.8158C38.7371 36.8515 38.745 36.9148 38.7054 36.9584C38.6737 36.9941 38.6262 37.006 38.5826 36.9862H38.5865Z" fill="#445D78"/>
<path d="M38.3375 37.2C38.3375 37.2 38.3216 37.1921 38.3177 37.1881L36.0552 35.3218C36.0116 35.2862 36.0037 35.2228 36.0433 35.1792C36.0789 35.1356 36.1423 35.1277 36.1859 35.1673L38.4484 37.0336C38.492 37.0692 38.496 37.1326 38.4643 37.1762C38.4326 37.2119 38.385 37.2238 38.3414 37.2039L38.3375 37.2Z" fill="#445D78"/>
<path d="M38.1312 37.4383C38.1312 37.4383 38.1154 37.4303 38.1114 37.4264L35.8449 35.5601C35.8014 35.5245 35.7934 35.4611 35.8291 35.4175C35.8648 35.3739 35.9282 35.366 35.9717 35.4056L38.2342 37.2718C38.2778 37.3075 38.2858 37.3709 38.2501 37.4145C38.2184 37.4502 38.1708 37.462 38.1273 37.4422L38.1312 37.4383Z" fill="#445D78"/>
<path d="M40.2828 40.9053C40.2075 40.8697 40.1441 40.8221 40.0926 40.7587C39.8826 40.4972 39.95 40.0653 40.0253 39.5581C40.1283 38.8806 40.2432 38.1158 39.7519 37.569C39.4111 37.1847 39.0901 37.0064 38.8049 37.0341C38.472 37.0698 38.2858 37.3868 38.2818 37.3907L38.1035 37.2917C38.1035 37.2917 38.3413 36.8796 38.7771 36.832C39.1337 36.7924 39.5101 36.9945 39.8985 37.4303C40.4532 38.0485 40.3224 38.9004 40.2194 39.5859C40.152 40.0415 40.0926 40.4378 40.2432 40.6279C40.3105 40.7112 40.4215 40.7587 40.58 40.7666L40.5641 40.9687C40.4492 40.9608 40.3541 40.937 40.2709 40.9014L40.2828 40.9053Z" fill="#445D78"/>
<path d="M31.1174 38.6348H21.8613V45.4857H31.1174V38.6348Z" fill="white"/>
<path d="M40.1989 38.6348H31.1172V45.4857H40.1989V38.6348Z" fill="#F2F2F2"/>
<path d="M31.8474 35.2188H30.3496V36.3995H31.8474V35.2188Z" fill="white"/>
<path d="M31.1262 35.2188H30.3496V36.3995H31.1262V35.2188Z" fill="#F2F2F2"/>
<path d="M31.9927 35.0527H30.166V40.394H31.9927V35.0527Z" fill="#9F2F5E"/>
</g>
</g>
<defs>
<clipPath id="clip0_767_2920">
<rect width="60.1896" height="60.1896" fill="white" transform="translate(0.664062 0.106445)"/>
</clipPath>
<clipPath id="clip1_767_2920">
<rect width="37.6185" height="33.1807" fill="white" transform="translate(11.6973 13.3984)"/>
</clipPath>
</defs>
</svg>
