<svg width="120" height="120" viewBox="0 0 120 120" fill="none" xmlns="http://www.w3.org/2000/svg">
<g id="Frame" clip-path="url(#clip0_713_1327)">
<path id="Vector" d="M60 120C93.1371 120 120 93.1371 120 60C120 26.8629 93.1371 0 60 0C26.8629 0 0 26.8629 0 60C0 93.1371 26.8629 120 60 120Z" fill="#236FE0"/>
<path id="Vector_2" d="M58.8328 88.8478H29.6592C26.9791 88.8478 19.611 86.4198 19.611 83.7303V37.0377C19.5778 35.7214 20.0618 34.4444 20.9591 33.4808C21.8564 32.5171 23.0956 31.9435 24.411 31.8828H58.8328" fill="white"/>
<path id="Vector_3" d="M58.8326 86.8483H21.5625C17.9765 86.8483 15.0723 84.9806 15.0723 78.4436H58.8326" fill="#F7F7F7"/>
<g id="Group 1067">
<path id="Vector_4" d="M98.9813 84.0623C98.9999 84.6916 98.8936 85.3184 98.6684 85.9064C98.4432 86.4944 98.1037 87.0319 97.6695 87.4878C97.2353 87.9437 96.715 88.309 96.1387 88.5626C95.5624 88.8161 94.9415 88.9529 94.312 88.965H30.4925C29.8524 88.9638 29.2187 88.8364 28.6278 88.5903C28.0368 88.3442 27.5001 87.9841 27.0483 87.5306C26.5965 87.0771 26.2385 86.539 25.9947 85.9471C25.7508 85.3552 25.6259 84.7211 25.6272 84.0809L20.3789 36.8934C20.3764 35.6061 20.8822 34.3698 21.7863 33.4535C22.6904 32.5371 23.9197 32.0148 25.2069 32H94.312C94.9415 32.0121 95.5624 32.1488 96.1387 32.4024C96.715 32.6559 97.2353 33.0213 97.6695 33.4772C98.1037 33.9331 98.4432 34.4706 98.6684 35.0586C98.8936 35.6466 98.9999 36.2734 98.9813 36.9027V84.0623Z" fill="white"/>
<path id="Vector_5" d="M89.3083 36.6699H30.2142C27.9655 36.6699 26.1426 38.4928 26.1426 40.7415V79.2909C26.1426 81.5396 27.9655 83.3625 30.2142 83.3625H89.3083C91.557 83.3625 93.3799 81.5396 93.3799 79.2909V40.7415C93.3799 38.4928 91.557 36.6699 89.3083 36.6699Z" fill="#38516B"/>
<path id="Vector_6" d="M103.521 80.5608C103.521 87.0978 100.616 88.9655 96.9837 88.9655H22.4903C18.9043 88.9655 16 87.0978 16 80.5608H103.521Z" fill="white"/>
<circle id="Ellipse 4" cx="60.9277" cy="58.1172" r="14" fill="#5596F8"/>
<path id="Vector_7" d="M58.2065 51.1172C57.9863 51.1185 57.77 51.1768 57.578 51.2866C57.3813 51.4006 57.2176 51.5655 57.1034 51.7646C56.9893 51.9638 56.9287 52.1901 56.9277 52.4207V63.821C56.9277 64.0508 56.988 64.2765 57.1023 64.4746C57.2166 64.6727 57.3809 64.8361 57.578 64.9477C57.7686 65.0611 57.9858 65.1196 58.2065 65.1171C58.4347 65.117 58.6589 65.0561 58.8568 64.9404L63.589 62.0829L68.3213 59.2476C68.5066 59.1317 68.6597 58.9693 68.7658 58.7759C68.872 58.5825 68.9277 58.3645 68.9277 58.1429C68.9277 57.9213 68.872 57.7034 68.7658 57.51C68.6597 57.3166 68.5066 57.1542 68.3213 57.0382L63.5963 54.1808L58.8712 51.3013C58.6739 51.1833 58.4498 51.1199 58.221 51.1172H58.2065Z" fill="white"/>
</g>
</g>
<defs>
<clipPath id="clip0_713_1327">
<rect width="120" height="120" fill="white"/>
</clipPath>
</defs>
</svg>
