<svg width="121" height="120" viewBox="0 0 121 120" fill="none" xmlns="http://www.w3.org/2000/svg">
<g id="Frame" clip-path="url(#clip0_713_1338)">
<path id="Vector" d="M60.5 120C93.6371 120 120.5 93.1371 120.5 60C120.5 26.8629 93.6371 0 60.5 0C27.3629 0 0.5 26.8629 0.5 60C0.5 93.1371 27.3629 120 60.5 120Z" fill="#38516B"/>
<path id="Vector_2" d="M104.158 57.8984H55.5977V84.9802H104.158V57.8984Z" fill="white"/>
<path id="Vector_3" d="M85.5642 71.3739C85.5642 76.7435 82.5385 81.0953 78.8031 81.0953C75.0677 81.0953 72.042 76.7435 72.042 71.3739C72.042 66.0042 75.0677 61.6338 78.8031 61.6338C82.5385 61.6338 85.5642 66.0136 85.5642 71.3739Z" fill="#236FE0"/>
<path id="Vector_4" d="M104.157 80.6754C104.157 81.4293 103.934 82.1663 103.515 82.7931C103.095 83.4199 102.5 83.9082 101.803 84.1963C101.106 84.4844 100.34 84.5593 99.6005 84.4116C98.8611 84.2638 98.1822 83.9 97.6498 83.3662C97.1173 82.8324 96.7551 82.1526 96.6092 81.4129C96.4632 80.6732 96.54 79.9069 96.8298 79.2108C97.1196 78.5148 97.6094 77.9204 98.2372 77.5028C98.865 77.0853 99.6026 76.8634 100.357 76.8652C101.365 76.8677 102.332 77.2702 103.045 77.9845C103.757 78.6988 104.157 79.6665 104.157 80.6754Z" fill="#236FE0"/>
<path id="Vector_5" d="M104.157 62.082C104.159 62.8364 103.937 63.5743 103.519 64.2023C103.101 64.8303 102.506 65.3201 101.81 65.6097C101.113 65.8992 100.346 65.9754 99.6062 65.8287C98.8662 65.682 98.1865 65.3189 97.6531 64.7855C97.1197 64.2521 96.7566 63.5724 96.6099 62.8324C96.4632 62.0924 96.5394 61.3256 96.8289 60.629C97.1185 59.9324 97.6083 59.3374 98.2363 58.9195C98.8643 58.5015 99.6022 58.2794 100.357 58.2813C101.365 58.2813 102.331 58.6817 103.044 59.3945C103.757 60.1073 104.157 61.074 104.157 62.082Z" fill="#236FE0"/>
<path id="Vector_6" d="M62.751 80.6754C62.7491 81.4267 62.5246 82.1606 62.1059 82.7844C61.6871 83.4082 61.0929 83.8939 60.3982 84.1801C59.7036 84.4664 58.9396 84.5403 58.203 84.3926C57.4663 84.2449 56.79 83.8822 56.2593 83.3503C55.7287 82.8184 55.3677 82.1411 55.2218 81.4041C55.0759 80.6671 55.1517 79.9033 55.4396 79.2094C55.7276 78.5154 56.2147 77.9224 56.8396 77.5051C57.4644 77.0879 58.1989 76.8652 58.9502 76.8652C59.4501 76.8652 59.9451 76.9639 60.4068 77.1554C60.8686 77.347 61.288 77.6278 61.641 77.9818C61.9941 78.3357 62.2739 78.7558 62.4643 79.218C62.6548 79.6802 62.7522 80.1754 62.751 80.6754Z" fill="#236FE0"/>
<path id="Vector_7" d="M62.751 62.082C62.751 62.8338 62.5281 63.5686 62.1104 64.1936C61.6928 64.8187 61.0992 65.3058 60.4047 65.5935C59.7102 65.8812 58.946 65.9564 58.2087 65.8098C57.4714 65.6631 56.7942 65.3011 56.2626 64.7696C55.7311 64.238 55.3691 63.5608 55.2224 62.8235C55.0758 62.0862 55.1511 61.322 55.4387 60.6275C55.7264 59.933 56.2136 59.3394 56.8386 58.9218C57.4636 58.5042 58.1985 58.2812 58.9502 58.2812C59.9582 58.2812 60.925 58.6817 61.6378 59.3945C62.3505 60.1073 62.751 61.074 62.751 62.082Z" fill="#236FE0"/>
<path id="Vector_8" d="M104.158 57.8984H55.5977V60.7H104.158V57.8984Z" fill="#236FE0"/>
<path id="Vector_9" d="M104.158 82.1787H55.5977V84.9803H104.158V82.1787Z" fill="#236FE0"/>
<path id="Vector_10" d="M57.4654 57.8984H55.5977V83.1124H57.4654V57.8984Z" fill="#236FE0"/>
<path id="Vector_11" d="M104.158 57.8984H101.356V83.1124H104.158V57.8984Z" fill="#236FE0"/>
<path id="Vector_12" d="M104.158 52.2959H55.5977V79.3776H104.158V52.2959Z" fill="white"/>
<path id="Vector_13" d="M85.5642 65.5099C85.5642 70.8796 82.5385 75.2313 78.8031 75.2313C75.0677 75.2313 72.042 70.8796 72.042 65.5099C72.042 60.1403 75.0677 55.7979 78.8031 55.7979C82.5385 55.7979 85.5642 60.1403 85.5642 65.5099Z" fill="#236FE0"/>
<path id="Vector_14" d="M104.157 74.8015C104.154 75.5546 103.927 76.2898 103.505 76.9141C103.084 77.5384 102.487 78.0238 101.79 78.3091C101.093 78.5943 100.327 78.6666 99.589 78.5167C98.8509 78.3668 98.1738 78.0015 97.6432 77.467C97.1126 76.9325 96.7523 76.2527 96.6078 75.5135C96.4634 74.7743 96.5413 74.0089 96.8316 73.314C97.122 72.619 97.6118 72.0257 98.2392 71.609C98.8665 71.1923 99.6034 70.9708 100.357 70.9727C100.858 70.9739 101.354 71.074 101.816 71.2672C102.278 71.4603 102.698 71.7429 103.051 72.0985C103.404 72.4542 103.684 72.876 103.874 73.3398C104.063 73.8036 104.16 74.3003 104.157 74.8015Z" fill="#236FE0"/>
<path id="Vector_15" d="M104.157 56.2178C104.159 56.9721 103.937 57.7101 103.519 58.3381C103.101 58.9661 102.506 59.4559 101.81 59.7454C101.113 60.0349 100.346 60.1112 99.6062 59.9645C98.8662 59.8178 98.1865 59.4547 97.6531 58.9213C97.1197 58.3879 96.7566 57.7081 96.6099 56.9681C96.4632 56.2282 96.5394 55.4613 96.8289 54.7647C97.1185 54.0681 97.6083 53.4732 98.2363 53.0552C98.8643 52.6373 99.6022 52.4152 100.357 52.417C101.365 52.417 102.331 52.8174 103.044 53.5302C103.757 54.243 104.157 55.2098 104.157 56.2178Z" fill="#236FE0"/>
<path id="Vector_16" d="M62.7509 74.8014C62.7453 75.552 62.5177 76.284 62.0968 76.9054C61.6758 77.5267 61.0802 78.0095 60.3853 78.2929C59.6903 78.5763 58.927 78.6475 58.1916 78.4977C57.4561 78.3479 56.7815 77.9838 56.2528 77.4511C55.724 76.9185 55.3648 76.2412 55.2204 75.5047C55.076 74.7682 55.1529 74.0054 55.4414 73.3125C55.7299 72.6197 56.217 72.0277 56.8414 71.6113C57.4658 71.1949 58.1996 70.9727 58.9501 70.9727C59.4512 70.9739 59.9472 71.0739 60.4096 71.2671C60.872 71.4603 61.2918 71.7429 61.6448 72.0985C61.9979 72.4542 62.2773 72.876 62.4671 73.3398C62.6569 73.8036 62.7533 74.3003 62.7509 74.8014Z" fill="#236FE0"/>
<path id="Vector_17" d="M62.751 56.2178C62.751 56.9695 62.5281 57.7043 62.1104 58.3294C61.6928 58.9544 61.0992 59.4416 60.4047 59.7292C59.7102 60.0169 58.946 60.0922 58.2087 59.9455C57.4714 59.7989 56.7942 59.4369 56.2626 58.9053C55.7311 58.3738 55.3691 57.6965 55.2224 56.9593C55.0758 56.222 55.1511 55.4578 55.4387 54.7633C55.7264 54.0688 56.2136 53.4752 56.8386 53.0575C57.4636 52.6399 58.1985 52.417 58.9502 52.417C59.9582 52.417 60.925 52.8174 61.6378 53.5302C62.3505 54.243 62.751 55.2097 62.751 56.2178Z" fill="#236FE0"/>
<path id="Vector_18" d="M104.158 52.2959H55.5977V55.0975H104.158V52.2959Z" fill="#236FE0"/>
<path id="Vector_19" d="M104.158 76.5762H55.5977V79.3777H104.158V76.5762Z" fill="#236FE0"/>
<path id="Vector_20" d="M57.4654 52.2959H55.5977V77.5099H57.4654V52.2959Z" fill="#236FE0"/>
<path id="Vector_21" d="M104.158 52.2959H101.356V77.5099H104.158V52.2959Z" fill="#236FE0"/>
<path id="Vector_22" d="M104.158 46.6924H55.5977V72.8402H104.158V46.6924Z" fill="white"/>
<path id="Vector_23" d="M85.5642 59.6452C85.5642 65.0149 82.5385 69.3573 78.8031 69.3573C75.0677 69.3573 72.042 65.0149 72.042 59.6452C72.042 54.2756 75.0677 49.9238 78.8031 49.9238C82.5385 49.9238 85.5642 54.2756 85.5642 59.6452Z" fill="#236FE0"/>
<path id="Vector_24" d="M104.157 68.9365C104.159 69.6909 103.937 70.4288 103.519 71.0568C103.101 71.6848 102.506 72.1746 101.81 72.4642C101.113 72.7537 100.346 72.8299 99.6062 72.6832C98.8662 72.5365 98.1865 72.1734 97.6531 71.64C97.1197 71.1066 96.7566 70.4268 96.6099 69.6869C96.4632 68.9469 96.5394 68.1801 96.8289 67.4835C97.1185 66.7869 97.6083 66.1919 98.2363 65.774C98.8643 65.356 99.6022 65.1339 100.357 65.1358C101.365 65.1358 102.331 65.5362 103.044 66.249C103.757 66.9618 104.157 67.9285 104.157 68.9365Z" fill="#236FE0"/>
<path id="Vector_25" d="M104.157 50.3531C104.157 51.1071 103.934 51.8441 103.515 52.4709C103.095 53.0976 102.5 53.586 101.803 53.8741C101.106 54.1622 100.34 54.2371 99.6005 54.0893C98.8611 53.9415 98.1822 53.5777 97.6498 53.0439C97.1173 52.5101 96.7551 51.8304 96.6092 51.0907C96.4632 50.351 96.54 49.5846 96.8298 48.8885C97.1196 48.1925 97.6094 47.5981 98.2372 47.1806C98.865 46.763 99.6026 46.5411 100.357 46.543C101.365 46.5455 102.332 46.948 103.045 47.6622C103.757 48.3765 104.157 49.3442 104.157 50.3531Z" fill="#236FE0"/>
<path id="Vector_26" d="M62.751 68.9365C62.751 69.6882 62.5281 70.4231 62.1104 71.0481C61.6928 71.6732 61.0992 72.1603 60.4047 72.448C59.7102 72.7357 58.946 72.8109 58.2087 72.6643C57.4714 72.5176 56.7942 72.1556 56.2626 71.6241C55.7311 71.0925 55.3691 70.4153 55.2224 69.678C55.0758 68.9407 55.1511 68.1765 55.4387 67.482C55.7264 66.7875 56.2136 66.1939 56.8386 65.7763C57.4636 65.3587 58.1985 65.1357 58.9502 65.1357C59.9582 65.1357 60.925 65.5362 61.6378 66.249C62.3505 66.9618 62.751 67.9285 62.751 68.9365Z" fill="#236FE0"/>
<path id="Vector_27" d="M62.751 50.3531C62.7491 51.1044 62.5246 51.8383 62.1059 52.4621C61.6871 53.0859 61.0929 53.5716 60.3982 53.8579C59.7036 54.1441 58.9396 54.2181 58.203 54.0704C57.4663 53.9226 56.79 53.5599 56.2593 53.028C55.7287 52.4961 55.3677 51.8188 55.2218 51.0818C55.0759 50.3448 55.1517 49.5811 55.4396 48.8871C55.7276 48.1931 56.2147 47.6001 56.8396 47.1829C57.4644 46.7656 58.1989 46.543 58.9502 46.543C59.4501 46.543 59.9451 46.6416 60.4068 46.8332C60.8686 47.0248 61.288 47.3056 61.641 47.6595C61.9941 48.0134 62.2739 48.4335 62.4643 48.8957C62.6548 49.3579 62.7522 49.8532 62.751 50.3531Z" fill="#236FE0"/>
<path id="Vector_28" d="M104.158 46.6924H55.5977V48.5601H104.158V46.6924Z" fill="#236FE0"/>
<path id="Vector_29" d="M104.158 70.9727H55.5977V72.8404H104.158V70.9727Z" fill="#236FE0"/>
<path id="Vector_30" d="M57.4654 46.6924H55.5977V71.9064H57.4654V46.6924Z" fill="#236FE0"/>
<path id="Vector_31" d="M104.158 46.6924H101.356V71.9064H104.158V46.6924Z" fill="#236FE0"/>
<path id="Vector_32" d="M68.6716 57.8984H20.1113V84.9802H68.6716V57.8984Z" fill="white"/>
<path id="Vector_33" d="M50.0778 71.3739C50.0778 76.7435 47.0522 81.0953 43.3168 81.0953C39.5813 81.0953 36.5557 76.7435 36.5557 71.3739C36.5557 66.0042 39.5813 61.6338 43.3168 61.6338C47.0522 61.6338 50.0778 66.0136 50.0778 71.3739Z" fill="#236FE0"/>
<path id="Vector_34" d="M68.6713 80.6754C68.6713 81.4293 68.4476 82.1663 68.0285 82.7931C67.6094 83.4199 67.0138 83.9082 66.317 84.1963C65.6203 84.4844 64.8537 84.5593 64.1144 84.4116C63.375 84.2638 62.6962 83.9 62.1637 83.3662C61.6312 82.8324 61.2691 82.1526 61.1231 81.4129C60.9771 80.6732 61.0539 79.9069 61.3437 79.2108C61.6336 78.5148 62.1234 77.9204 62.7512 77.5028C63.379 77.0853 64.1165 76.8634 64.8705 76.8652C65.8794 76.8677 66.8461 77.2702 67.5586 77.9845C68.2711 78.6988 68.6713 79.6665 68.6713 80.6754Z" fill="#236FE0"/>
<path id="Vector_35" d="M68.671 62.082C68.6729 62.8364 68.4507 63.5743 68.0328 64.2023C67.6148 64.8303 67.0199 65.3201 66.3233 65.6097C65.6267 65.8992 64.8598 65.9754 64.1199 65.8287C63.3799 65.682 62.7002 65.3189 62.1667 64.7855C61.6333 64.2521 61.2703 63.5724 61.1235 62.8324C60.9768 62.0924 61.0531 61.3256 61.3426 60.629C61.6321 59.9324 62.1219 59.3374 62.7499 58.9195C63.3779 58.5015 64.1159 58.2794 64.8702 58.2813C65.8783 58.2813 66.845 58.6817 67.5578 59.3945C68.2706 60.1073 68.671 61.074 68.671 62.082Z" fill="#236FE0"/>
<path id="Vector_36" d="M28.198 80.6756C28.1961 81.4269 27.9717 82.1608 27.5529 82.7846C27.1341 83.4084 26.5399 83.8942 25.8452 84.1804C25.1506 84.4666 24.3867 84.5406 23.65 84.3929C22.9133 84.2452 22.237 83.8824 21.7064 83.3505C21.1757 82.8186 20.8147 82.1414 20.6688 81.4043C20.5229 80.6673 20.5987 79.9036 20.8866 79.2096C21.1746 78.5157 21.6617 77.9226 22.2866 77.5054C22.9114 77.0882 23.6459 76.8655 24.3972 76.8655C24.8971 76.8655 25.3921 76.9641 25.8539 77.1557C26.3156 77.3473 26.735 77.6281 27.0881 77.982C27.4411 78.3359 27.7209 78.756 27.9114 79.2182C28.1018 79.6804 28.1992 80.1757 28.198 80.6756Z" fill="#236FE0"/>
<path id="Vector_37" d="M27.2644 62.082C27.2644 62.5812 27.1661 63.0754 26.9751 63.5365C26.7841 63.9977 26.5041 64.4167 26.1512 64.7696C25.7982 65.1225 25.3792 65.4025 24.9181 65.5935C24.457 65.7845 23.9627 65.8828 23.4636 65.8828C21.3624 65.8828 21.5305 64.1832 21.5305 62.082C21.5305 59.9809 21.3624 58.2812 23.4636 58.2812C24.4716 58.2813 25.4384 58.6817 26.1512 59.3945C26.864 60.1073 27.2644 61.074 27.2644 62.082Z" fill="#236FE0"/>
<path id="Vector_38" d="M68.6716 57.8984H20.1113V60.7H68.6716V57.8984Z" fill="#236FE0"/>
<path id="Vector_39" d="M68.6716 82.1787H20.1113V84.9803H68.6716V82.1787Z" fill="#236FE0"/>
<path id="Vector_40" d="M21.979 57.8984H20.1113V83.1124H21.979V57.8984Z" fill="#236FE0"/>
<path id="Vector_41" d="M68.6717 57.8984H65.8701V83.1124H68.6717V57.8984Z" fill="#236FE0"/>
<path id="Vector_42" d="M68.6716 52.2959H20.1113V79.3776H68.6716V52.2959Z" fill="white"/>
<path id="Vector_43" d="M50.0778 65.5099C50.0778 70.8796 47.0522 75.2313 43.3168 75.2313C39.5813 75.2313 36.5557 70.8796 36.5557 65.5099C36.5557 60.1403 39.5813 55.7979 43.3168 55.7979C47.0522 55.7979 50.0778 60.1403 50.0778 65.5099Z" fill="#236FE0"/>
<path id="Vector_44" d="M68.6712 74.8015C68.6675 75.5546 68.4407 76.2898 68.0194 76.9141C67.5981 77.5384 67.0012 78.0238 66.3041 78.3091C65.607 78.5943 64.8411 78.6666 64.103 78.5167C63.3649 78.3668 62.6877 78.0015 62.1571 77.467C61.6265 76.9325 61.2662 76.2527 61.1218 75.5135C60.9773 74.7743 61.0552 74.0089 61.3455 73.314C61.6359 72.619 62.1257 72.0257 62.7531 71.609C63.3805 71.1923 64.1173 70.9708 64.8704 70.9727C65.3716 70.9739 65.8676 71.074 66.33 71.2672C66.7924 71.4603 67.2121 71.7429 67.5652 72.0985C67.9182 72.4542 68.1977 72.876 68.3875 73.3398C68.5772 73.8036 68.6737 74.3003 68.6712 74.8015Z" fill="#236FE0"/>
<path id="Vector_45" d="M68.6712 56.2178C68.6731 56.9721 68.451 57.7101 68.033 58.3381C67.6151 58.9661 67.0201 59.4559 66.3235 59.7454C65.6269 60.0349 64.8601 60.1112 64.1201 59.9645C63.3802 59.8178 62.7004 59.4547 62.167 58.9213C61.6336 58.3879 61.2705 57.7081 61.1238 56.9681C60.9771 56.2282 61.0533 55.4613 61.3428 54.7647C61.6324 54.0681 62.1222 53.4732 62.7502 53.0552C63.3782 52.6373 64.1161 52.4152 64.8705 52.417C65.8785 52.417 66.8452 52.8174 67.558 53.5302C68.2708 54.243 68.6712 55.2098 68.6712 56.2178Z" fill="#236FE0"/>
<path id="Vector_46" d="M28.1981 74.8014C28.1926 75.552 27.965 76.284 27.544 76.9054C27.123 77.5267 26.5275 78.0095 25.8325 78.2929C25.1376 78.5763 24.3743 78.6475 23.6388 78.4977C22.9034 78.3479 22.2288 77.9838 21.7001 77.4511C21.1713 76.9185 20.8121 76.2412 20.6677 75.5047C20.5233 74.7682 20.6002 74.0054 20.8887 73.3125C21.1771 72.6197 21.6643 72.0277 22.2887 71.6113C22.9131 71.1949 23.6468 70.9727 24.3974 70.9727C24.8985 70.9739 25.3945 71.0739 25.8569 71.2671C26.3193 71.4603 26.739 71.7429 27.0921 72.0985C27.4452 72.4542 27.7246 72.876 27.9144 73.3398C28.1042 73.8036 28.2006 74.3003 28.1981 74.8014Z" fill="#236FE0"/>
<path id="Vector_47" d="M27.2641 56.218C27.2641 56.7171 27.1658 57.2114 26.9748 57.6725C26.7838 58.1336 26.5039 58.5526 26.1509 58.9056C25.798 59.2585 25.379 59.5385 24.9179 59.7295C24.4567 59.9205 23.9625 60.0188 23.4634 60.0188C21.3622 60.0188 21.5303 58.3192 21.5303 56.218C21.5303 54.1168 21.3622 52.4172 23.4634 52.4172C24.4714 52.4172 25.4381 52.8177 26.1509 53.5305C26.8637 54.2432 27.2641 55.21 27.2641 56.218Z" fill="#236FE0"/>
<path id="Vector_48" d="M68.6716 52.2959H20.1113V55.0975H68.6716V52.2959Z" fill="#236FE0"/>
<path id="Vector_49" d="M68.6716 76.5762H20.1113V79.3777H68.6716V76.5762Z" fill="#236FE0"/>
<path id="Vector_50" d="M21.979 52.2959H20.1113V77.5099H21.979V52.2959Z" fill="#236FE0"/>
<path id="Vector_51" d="M68.6717 52.2959H65.8701V77.5099H68.6717V52.2959Z" fill="#236FE0"/>
<path id="Vector_52" d="M68.6716 46.6924H20.1113V72.8402H68.6716V46.6924Z" fill="white"/>
<path id="Vector_53" d="M50.0778 59.6452C50.0778 65.0149 47.0522 69.3573 43.3168 69.3573C39.5813 69.3573 36.5557 65.0149 36.5557 59.6452C36.5557 54.2756 39.5813 49.9238 43.3168 49.9238C47.0522 49.9238 50.0778 54.2756 50.0778 59.6452Z" fill="#236FE0"/>
<path id="Vector_54" d="M68.671 68.9365C68.6729 69.6909 68.4507 70.4288 68.0328 71.0568C67.6148 71.6848 67.0199 72.1746 66.3233 72.4642C65.6267 72.7537 64.8598 72.8299 64.1199 72.6832C63.3799 72.5365 62.7002 72.1734 62.1667 71.64C61.6333 71.1066 61.2703 70.4268 61.1235 69.6869C60.9768 68.9469 61.0531 68.1801 61.3426 67.4835C61.6321 66.7869 62.1219 66.1919 62.7499 65.774C63.3779 65.356 64.1159 65.1339 64.8702 65.1358C65.8783 65.1358 66.845 65.5362 67.5578 66.249C68.2706 66.9618 68.671 67.9285 68.671 68.9365Z" fill="#236FE0"/>
<path id="Vector_55" d="M68.6713 50.3533C68.6713 51.1073 68.4476 51.8443 68.0285 52.4711C67.6094 53.0979 67.0138 53.5862 66.317 53.8743C65.6203 54.1624 64.8537 54.2373 64.1144 54.0895C63.375 53.9418 62.6962 53.578 62.1637 53.0442C61.6312 52.5104 61.2691 51.8306 61.1231 51.0909C60.9771 50.3512 61.0539 49.5848 61.3437 48.8888C61.6336 48.1927 62.1234 47.5983 62.7512 47.1808C63.379 46.7633 64.1165 46.5414 64.8705 46.5432C65.8794 46.5457 66.8461 46.9482 67.5586 47.6625C68.2711 48.3767 68.6713 49.3444 68.6713 50.3533Z" fill="#236FE0"/>
<path id="Vector_56" d="M28.1982 68.9365C28.1982 69.6882 27.9753 70.4231 27.5577 71.0481C27.1401 71.6732 26.5465 72.1603 25.852 72.448C25.1575 72.7357 24.3932 72.8109 23.656 72.6643C22.9187 72.5176 22.2415 72.1556 21.7099 71.6241C21.1784 71.0925 20.8164 70.4153 20.6697 69.678C20.5231 68.9407 20.5983 68.1765 20.886 67.482C21.1737 66.7875 21.6608 66.1939 22.2859 65.7763C22.9109 65.3587 23.6457 65.1357 24.3975 65.1357C25.4055 65.1357 26.3722 65.5362 27.085 66.249C27.7978 66.9618 28.1982 67.9285 28.1982 68.9365Z" fill="#236FE0"/>
<path id="Vector_57" d="M27.2646 50.3531C27.2628 51.1044 27.0383 51.8383 26.6196 52.4621C26.2008 53.0859 25.6066 53.5716 24.9119 53.8579C24.2172 54.1441 23.4533 54.2181 22.7167 54.0704C21.98 53.9226 21.3036 53.5599 20.773 53.028C20.2424 52.4961 19.8813 51.8188 19.7354 51.0818C19.5895 50.3448 19.6654 49.5811 19.9533 48.8871C20.2412 48.1931 20.7284 47.6001 21.3532 47.1829C21.9781 46.7656 22.7125 46.543 23.4639 46.543C23.9638 46.543 24.4588 46.6416 24.9205 46.8332C25.3823 47.0248 25.8017 47.3056 26.1547 47.6595C26.5078 48.0134 26.7875 48.4335 26.978 48.8957C27.1685 49.3579 27.2659 49.8532 27.2646 50.3531Z" fill="#236FE0"/>
<path id="Vector_58" d="M68.6716 46.6924H20.1113V48.5601H68.6716V46.6924Z" fill="#236FE0"/>
<path id="Vector_59" d="M68.6716 70.9727H20.1113V72.8404H68.6716V70.9727Z" fill="#236FE0"/>
<path id="Vector_60" d="M21.979 46.6924H20.1113V71.9064H21.979V46.6924Z" fill="#236FE0"/>
<path id="Vector_61" d="M68.6717 46.6924H65.8701V71.9064H68.6717V46.6924Z" fill="#236FE0"/>
<path id="Vector_62" d="M68.6716 40.1553H20.1113V67.237H68.6716V40.1553Z" fill="white"/>
<path id="Vector_63" d="M50.0778 53.781C50.0778 59.1413 47.0522 63.493 43.3168 63.493C39.5813 63.493 36.5557 59.1413 36.5557 53.781C36.5557 48.4207 39.5813 44.0596 43.3168 44.0596C47.0522 44.0596 50.0778 48.4113 50.0778 53.781Z" fill="#236FE0"/>
<path id="Vector_64" d="M68.6712 63.0723C68.6731 63.8266 68.451 64.5646 68.033 65.1926C67.6151 65.8206 67.0201 66.3104 66.3235 66.5999C65.6269 66.8894 64.8601 66.9657 64.1201 66.819C63.3802 66.6722 62.7004 66.3092 62.167 65.7758C61.6336 65.2423 61.2705 64.5626 61.1238 63.8226C60.9771 63.0827 61.0533 62.3158 61.3428 61.6192C61.6324 60.9226 62.1222 60.3277 62.7502 59.9097C63.3782 59.4918 64.1161 59.2696 64.8705 59.2715C65.8785 59.2715 66.8452 59.6719 67.558 60.3847C68.2708 61.0975 68.6712 62.0642 68.6712 63.0723Z" fill="#236FE0"/>
<path id="Vector_65" d="M68.6712 44.4795C68.6731 45.2339 68.451 45.9718 68.033 46.5998C67.6151 47.2278 67.0201 47.7176 66.3235 48.0071C65.6269 48.2967 64.8601 48.3729 64.1201 48.2262C63.3802 48.0795 62.7004 47.7164 62.167 47.183C61.6336 46.6496 61.2705 45.9698 61.1238 45.2299C60.9771 44.4899 61.0533 43.723 61.3428 43.0265C61.6324 42.3299 62.1222 41.7349 62.7502 41.3169C63.3782 40.899 64.1161 40.6769 64.8705 40.6787C65.8777 40.6812 66.8431 41.0824 67.5553 41.7947C68.2676 42.5069 68.6688 43.4722 68.6712 44.4795Z" fill="#236FE0"/>
<path id="Vector_66" d="M28.198 63.0723C28.198 63.824 27.9751 64.5588 27.5574 65.1839C27.1398 65.8089 26.5462 66.296 25.8517 66.5837C25.1572 66.8714 24.393 66.9467 23.6557 66.8C22.9184 66.6534 22.2412 66.2914 21.7097 65.7598C21.1781 65.2283 20.8161 64.551 20.6695 63.8138C20.5228 63.0765 20.5981 62.3123 20.8858 61.6178C21.1734 60.9233 21.6606 60.3297 22.2856 59.912C22.9107 59.4944 23.6455 59.2715 24.3972 59.2715C25.4052 59.2715 26.372 59.6719 27.0848 60.3847C27.7976 61.0975 28.198 62.0642 28.198 63.0723Z" fill="#236FE0"/>
<path id="Vector_67" d="M27.2646 44.4795C27.2646 45.2312 27.0417 45.9661 26.6241 46.5911C26.2065 47.2161 25.6129 47.7033 24.9184 47.9909C24.2239 48.2786 23.4596 48.3539 22.7224 48.2072C21.9851 48.0606 21.3079 47.6986 20.7763 47.167C20.2448 46.6355 19.8828 45.9583 19.7361 45.221C19.5895 44.4837 19.6647 43.7195 19.9524 43.025C20.2401 42.3305 20.7272 41.7369 21.3523 41.3193C21.9773 40.9016 22.7121 40.6787 23.4639 40.6787C24.4711 40.6812 25.4364 41.0824 26.1487 41.7947C26.8609 42.5069 27.2622 43.4722 27.2646 44.4795Z" fill="#236FE0"/>
<path id="Vector_68" d="M68.6716 40.1553H20.1113V42.9568H68.6716V40.1553Z" fill="#236FE0"/>
<path id="Vector_69" d="M68.6716 64.4355H20.1113V67.2371H68.6716V64.4355Z" fill="#236FE0"/>
<path id="Vector_70" d="M21.979 40.1553H20.1113V65.3693H21.979V40.1553Z" fill="#236FE0"/>
<path id="Vector_71" d="M68.6717 40.1553H65.8701V65.3693H68.6717V40.1553Z" fill="#236FE0"/>
<path id="Vector_72" d="M68.6716 34.5527H20.1113V61.6344H68.6716V34.5527Z" fill="white"/>
<path id="Vector_73" d="M50.0778 47.9157C50.0778 53.276 47.0522 57.6278 43.3168 57.6278C39.5813 57.6278 36.5557 53.276 36.5557 47.9157C36.5557 42.5554 39.5813 38.1943 43.3168 38.1943C47.0522 38.1943 50.0778 42.5461 50.0778 47.9157Z" fill="#236FE0"/>
<path id="Vector_74" d="M68.6712 57.2078C68.6731 57.9621 68.451 58.7001 68.033 59.3281C67.6151 59.9561 67.0201 60.4459 66.3235 60.7354C65.6269 61.0249 64.8601 61.1012 64.1201 60.9545C63.3802 60.8077 62.7004 60.4447 62.167 59.9113C61.6336 59.3778 61.2705 58.6981 61.1238 57.9581C60.9771 57.2182 61.0533 56.4513 61.3428 55.7547C61.6324 55.0581 62.1222 54.4632 62.7502 54.0452C63.3782 53.6273 64.1161 53.4051 64.8705 53.407C65.8785 53.407 66.8452 53.8074 67.558 54.5202C68.2708 55.233 68.6712 56.1997 68.6712 57.2078Z" fill="#236FE0"/>
<path id="Vector_75" d="M68.671 38.6152C68.6729 39.3696 68.4507 40.1075 68.0328 40.7355C67.6148 41.3635 67.0199 41.8533 66.3233 42.1429C65.6267 42.4324 64.8598 42.5086 64.1199 42.3619C63.3799 42.2152 62.7002 41.8521 62.1667 41.3187C61.6333 40.7853 61.2703 40.1056 61.1235 39.3656C60.9768 38.6256 61.0531 37.8588 61.3426 37.1622C61.6321 36.4656 62.1219 35.8706 62.7499 35.4527C63.3779 35.0347 64.1159 34.8126 64.8702 34.8145C65.8783 34.8145 66.845 35.2149 67.5578 35.9277C68.2706 36.6405 68.671 37.6072 68.671 38.6152Z" fill="#236FE0"/>
<path id="Vector_76" d="M28.198 57.2078C28.198 57.9595 27.9751 58.6943 27.5574 59.3194C27.1398 59.9444 26.5462 60.4315 25.8517 60.7192C25.1572 61.0069 24.393 61.0822 23.6557 60.9355C22.9184 60.7889 22.2412 60.4269 21.7097 59.8953C21.1781 59.3638 20.8161 58.6865 20.6695 57.9493C20.5228 57.212 20.5981 56.4478 20.8858 55.7533C21.1734 55.0588 21.6606 54.4652 22.2856 54.0475C22.9107 53.6299 23.6455 53.407 24.3972 53.407C25.4052 53.407 26.372 53.8074 27.0848 54.5202C27.7976 55.233 28.198 56.1997 28.198 57.2078Z" fill="#236FE0"/>
<path id="Vector_77" d="M28.1982 38.6152C28.1982 39.367 27.9753 40.1018 27.5577 40.7268C27.1401 41.3519 26.5465 41.839 25.852 42.1267C25.1575 42.4144 24.3932 42.4896 23.656 42.343C22.9187 42.1963 22.2415 41.8343 21.7099 41.3028C21.1784 40.7712 20.8164 40.094 20.6697 39.3567C20.5231 38.6194 20.5983 37.8552 20.886 37.1607C21.1737 36.4662 21.6608 35.8726 22.2859 35.455C22.9109 35.0374 23.6457 34.8145 24.3975 34.8145C25.4055 34.8145 26.3722 35.2149 27.085 35.9277C27.7978 36.6405 28.1982 37.6072 28.1982 38.6152Z" fill="#236FE0"/>
<path id="Vector_78" d="M68.6716 34.5527H20.1113V37.3543H68.6716V34.5527Z" fill="#236FE0"/>
<path id="Vector_79" d="M68.6716 58.833H20.1113V61.6346H68.6716V58.833Z" fill="#236FE0"/>
<path id="Vector_80" d="M21.979 34.5527H20.1113V59.7667H21.979V34.5527Z" fill="#236FE0"/>
<path id="Vector_81" d="M68.6717 34.5527H65.8701V59.7667H68.6717V34.5527Z" fill="#236FE0"/>
</g>
<defs>
<clipPath id="clip0_713_1338">
<rect width="120" height="120" fill="white" transform="translate(0.5)"/>
</clipPath>
</defs>
</svg>
