<svg width="121" height="120" viewBox="0 0 121 120" fill="none" xmlns="http://www.w3.org/2000/svg">
<g id="Frame" clip-path="url(#clip0_713_1302)">
<path id="Vector" d="M60.5 120C93.6371 120 120.5 93.1371 120.5 60C120.5 26.8629 93.6371 0 60.5 0C27.3629 0 0.5 26.8629 0.5 60C0.5 93.1371 27.3629 120 60.5 120Z" fill="#38516B"/>
<path id="Vector_2" d="M98.5545 92.4513H28.5156V35.4863H48.1265V40.1556H98.5545V92.4513Z" fill="#236FE0"/>
<path id="Vector_3" d="M88.2818 85.9141H36.9199V18.6768H71.4538L80.6055 27.9499L88.2818 35.897V85.9141Z" fill="white"/>
<path id="Vector_4" d="M71.4727 35.4864H87.9458L71.4727 18.4062V35.4864Z" fill="#DDDCDC"/>
<path id="Vector_5" d="M42.5234 24.2803H64.002" stroke="#236FE0" stroke-width="4" stroke-linecap="round" stroke-linejoin="round"/>
<path id="Vector_6" d="M41.5898 33.6191H51.8622" stroke="#236FE0" stroke-width="2" stroke-linecap="round" stroke-linejoin="round"/>
<path id="Vector_7" d="M56.5312 33.6191H64.0021" stroke="#236FE0" stroke-width="2" stroke-linecap="round" stroke-linejoin="round"/>
<path id="Vector_8" d="M60.2656 45.7588H71.4719" stroke="#236FE0" stroke-width="2" stroke-linecap="round" stroke-linejoin="round"/>
<path id="Vector_9" d="M76.1426 45.7588H82.6795" stroke="#236FE0" stroke-width="2" stroke-linecap="round" stroke-linejoin="round"/>
<path id="Vector_10" d="M53.7305 39.2217H68.6721" stroke="#236FE0" stroke-width="2" stroke-linecap="round" stroke-linejoin="round"/>
<path id="Vector_11" d="M41.5898 45.7588H55.5976" stroke="#236FE0" stroke-width="2" stroke-linecap="round" stroke-linejoin="round"/>
<path id="Vector_12" d="M41.5898 39.2217H49.9945" stroke="#236FE0" stroke-width="2" stroke-linecap="round" stroke-linejoin="round"/>
<path id="Vector_13" d="M73.3398 39.2217H82.6784" stroke="#236FE0" stroke-width="2" stroke-linecap="round" stroke-linejoin="round"/>
<path id="Vector_14" d="M53.7305 51.3623H68.6721" stroke="#236FE0" stroke-width="2" stroke-linecap="round" stroke-linejoin="round"/>
<path id="Vector_15" d="M41.5898 51.3623H49.9945" stroke="#236FE0" stroke-width="2" stroke-linecap="round" stroke-linejoin="round"/>
<path id="Vector_16" d="M73.3398 51.3623H82.6784" stroke="#236FE0" stroke-width="2" stroke-linecap="round" stroke-linejoin="round"/>
<path id="Vector_17" d="M98.554 92.4516H28.291L18.1213 53.8928L16.375 48.5605H41.7291L43.4754 54.1637H88.3937L98.554 92.4516Z" fill="#5596F8"/>
<path id="Vector_18" d="M55.0003 85.9142H34.8011L32.0742 74.708H52.2641L55.0003 85.9142Z" fill="#236FE0"/>
<path id="Vector_19" d="M41.0098 53.2293H20.82L19.8301 50.4277H40.02L41.0098 53.2293Z" fill="#236FE0"/>
<path id="Vector_20" d="M63.0684 75.6416H84.547" stroke="#236FE0" stroke-width="2" stroke-linecap="round" stroke-linejoin="round"/>
<path id="Vector_21" d="M64.002 79.377H85.4806" stroke="#236FE0" stroke-width="2" stroke-linecap="round" stroke-linejoin="round"/>
<path id="Vector_22" d="M64.002 84.0466H86.4144" stroke="#236FE0" stroke-width="2" stroke-linecap="round" stroke-linejoin="round"/>
</g>
<defs>
<clipPath id="clip0_713_1302">
<rect width="120" height="120" fill="white" transform="translate(0.5)"/>
</clipPath>
</defs>
</svg>
