<svg width="62" height="62" viewBox="0 0 62 62" fill="none" xmlns="http://www.w3.org/2000/svg">
<g clip-path="url(#clip0_766_1982)">
<path d="M30.9024 61.0949C47.649 61.0949 61.2248 47.5191 61.2248 30.7725C61.2248 14.026 47.649 0.450195 30.9024 0.450195C14.1559 0.450195 0.580078 14.026 0.580078 30.7725C0.580078 47.5191 14.1559 61.0949 30.9024 61.0949Z" fill="#236FE0"/>
<g clip-path="url(#clip1_766_1982)">
<path d="M40.3835 27.9177H38.2421C37.9492 27.9129 37.6629 27.8305 37.4124 27.679C37.1618 27.5274 36.9559 27.3121 36.8157 27.055C36.809 27.0444 36.8023 27.032 36.7965 27.0205C36.6436 26.77 36.5599 26.4834 36.5542 26.19C36.5485 25.8966 36.6209 25.6069 36.7639 25.3506L37.8356 23.4958C37.9517 23.2939 37.983 23.0541 37.9226 22.8292C37.8622 22.6042 37.7151 22.4124 37.5135 22.2957L34.4691 20.5425C34.2674 20.426 34.0276 20.3945 33.8026 20.4547C33.5776 20.5149 33.3857 20.662 33.269 20.8636L32.2011 22.7136C32.0417 22.9615 31.8225 23.1655 31.5638 23.3067C31.305 23.4479 31.0149 23.5219 30.7202 23.5219C30.4254 23.5219 30.1353 23.4479 29.8765 23.3067C29.6178 23.1655 29.3986 22.9615 29.2392 22.7136L28.1713 20.8636C28.0547 20.662 27.8627 20.5149 27.6377 20.4547C27.4127 20.3945 27.173 20.426 26.9712 20.5425L23.9287 22.2986C23.7271 22.4152 23.58 22.6071 23.5198 22.8322C23.4596 23.0572 23.4912 23.2969 23.6076 23.4987L24.6783 25.3535C24.8213 25.6099 24.8937 25.8997 24.8882 26.1932C24.8826 26.4867 24.7993 26.7735 24.6467 27.0243L24.6265 27.0579C24.486 27.3142 24.28 27.5288 24.0297 27.6798C23.7793 27.8309 23.4935 27.9129 23.2011 27.9177H21.0597C20.8268 27.9177 20.6035 28.0102 20.4388 28.1749C20.2741 28.3395 20.1816 28.5629 20.1816 28.7957V32.3099C20.1816 32.5427 20.2741 32.7661 20.4388 32.9307C20.6035 33.0954 20.8268 33.1879 21.0597 33.1879H23.2021C23.494 33.192 23.7796 33.2733 24.03 33.4234C24.2803 33.5736 24.4865 33.7873 24.6275 34.043C24.6342 34.0545 24.6409 34.066 24.6486 34.0775C24.8012 34.3281 24.8845 34.6147 24.8901 34.9081C24.8957 35.2015 24.8232 35.4911 24.6802 35.7473L23.6085 37.5992C23.4922 37.8011 23.4608 38.0409 23.5212 38.266C23.5816 38.491 23.7288 38.6829 23.9306 38.7994L26.9731 40.5564C27.1749 40.6729 27.4146 40.7044 27.6396 40.6442C27.8646 40.584 28.0566 40.4369 28.1732 40.2353L29.242 38.3834C29.3941 38.131 29.6102 37.9234 29.8685 37.7816C30.1268 37.6399 30.418 37.569 30.7125 37.5762C31.3356 37.5762 31.9011 37.8638 32.2031 38.3834L33.2719 40.2353C33.3887 40.436 33.5802 40.5823 33.8045 40.6423C34.0288 40.7023 34.2677 40.6711 34.4691 40.5555L37.5116 38.7984C37.7136 38.6824 37.8613 38.4909 37.9223 38.2661C37.9832 38.0412 37.9524 37.8014 37.8366 37.5992L36.7697 35.7435C36.6265 35.4873 36.5539 35.1977 36.5595 34.9043C36.5651 34.6108 36.6485 34.3242 36.8013 34.0736L36.8215 34.0382C36.9628 33.7827 37.1691 33.5691 37.4196 33.4191C37.6701 33.2691 37.9559 33.188 38.2478 33.1841H40.3893C40.5046 33.1841 40.6189 33.1613 40.7255 33.1171C40.8321 33.073 40.9289 33.0082 41.0105 32.9266C41.092 32.8449 41.1567 32.748 41.2007 32.6414C41.2448 32.5347 41.2674 32.4205 41.2673 32.3051V28.7919C41.2655 28.5589 41.1715 28.3362 41.0059 28.1723C40.8403 28.0085 40.6165 27.9169 40.3835 27.9177ZM30.7221 34.0621C30.0273 34.0619 29.3481 33.8557 28.7705 33.4696C28.1929 33.0834 27.7428 32.5347 27.477 31.8927C27.2113 31.2508 27.1418 30.5444 27.2775 29.863C27.4132 29.1816 27.7478 28.5557 28.2392 28.0645C28.7306 27.5732 29.3565 27.2387 30.038 27.1032C30.7195 26.9678 31.4258 27.0374 32.0677 27.3033C32.7096 27.5693 33.2582 28.0195 33.6442 28.5973C34.0302 29.175 34.2362 29.8542 34.2362 30.549C34.2362 31.0104 34.1453 31.4673 33.9687 31.8936C33.7921 32.3199 33.5332 32.7072 33.2069 33.0335C32.8805 33.3597 32.4931 33.6185 32.0668 33.795C31.6404 33.9715 31.1835 34.0623 30.7221 34.0621Z" fill="#F2F2F2"/>
<path d="M45.9323 14.7305C46.5738 13.5275 46.7233 12.1224 46.3493 10.8114C45.9752 9.50028 45.1069 8.38557 43.9272 7.70209C42.7475 7.01861 41.3486 6.81973 40.0252 7.14735C38.7018 7.47496 37.5572 8.3035 36.8326 9.45839C34.8485 8.87953 32.7923 8.58551 30.7255 8.58513C20.4295 8.58896 11.7727 15.7131 9.40884 25.2901C8.05501 25.3508 6.77673 25.9312 5.84015 26.9107C4.90356 27.8902 4.38086 29.1932 4.38086 30.5484C4.38086 31.9036 4.90356 33.2065 5.84015 34.186C6.77673 35.1655 8.05501 35.746 9.40884 35.8066C11.7717 45.3837 20.4324 52.5078 30.7255 52.5078C32.7923 52.5074 34.8485 52.2134 36.8326 51.6345C37.5572 52.7894 38.7018 53.6179 40.0252 53.9455C41.3486 54.2732 42.7475 54.0743 43.9272 53.3908C45.1069 52.7073 45.9752 51.5926 46.3493 50.2815C46.7233 48.9705 46.5738 47.5654 45.9323 46.3624C48.0665 44.3179 49.7649 41.8627 50.9251 39.1445C52.0854 36.4263 52.6836 33.5014 52.6836 30.546C52.6836 27.5905 52.0854 24.6656 50.9251 21.9474C49.7649 19.2293 48.0665 16.774 45.9323 14.7296V14.7305ZM44.8615 44.9648C44.0378 44.1935 42.9879 43.7075 41.8668 43.5784C40.7458 43.4493 39.6129 43.684 38.6354 44.2478C37.6579 44.8117 36.8875 45.6748 36.4379 46.7098C35.9883 47.7449 35.8834 48.8971 36.1386 49.9963C34.3791 50.4941 32.5598 50.7486 30.7313 50.7526C21.3325 50.7526 13.4166 44.2995 11.1697 35.5938C12.252 35.2654 13.1999 34.5977 13.8736 33.6892C14.5472 32.7808 14.9109 31.6798 14.9109 30.5488C14.9109 29.4179 14.5472 28.3169 13.8736 27.4085C13.1999 26.5 12.252 25.8323 11.1697 25.5039C13.4118 16.7982 21.3277 10.3451 30.7265 10.3451C32.555 10.349 34.3743 10.6035 36.1338 11.1014C35.8761 12.2018 35.9795 13.3559 36.4288 14.3929C36.8781 15.43 37.6494 16.2947 38.6285 16.8593C39.6076 17.4238 40.7424 17.6581 41.865 17.5275C42.9876 17.3968 44.0383 16.9082 44.8615 16.1339C46.7825 18.0111 48.3089 20.2534 49.3511 22.729C50.3932 25.2045 50.9301 27.8634 50.9301 30.5493C50.9301 33.2353 50.3932 35.8941 49.3511 38.3697C48.3089 40.8452 46.7825 43.0875 44.8615 44.9648Z" fill="#5596F8"/>
</g>
</g>
<defs>
<clipPath id="clip0_766_1982">
<rect width="60.6447" height="60.6447" fill="white" transform="translate(0.580078 0.450195)"/>
</clipPath>
<clipPath id="clip1_766_1982">
<rect width="48.3119" height="47.0552" fill="white" transform="translate(4.36914 7.02051)"/>
</clipPath>
</defs>
</svg>
