<svg width="80" height="26" viewBox="0 0 80 26" fill="none" xmlns="http://www.w3.org/2000/svg">
<g id="Group-22">
<g id="Group">
<path id="Fill-1" fill-rule="evenodd" clip-rule="evenodd" d="M37.1116 9.34413C34.664 9.34413 33.5635 11.4985 33.5635 13.028C33.5635 15.2687 35.3953 16.6559 37.0928 16.6559C39.0803 16.6559 40.6977 15.0284 40.6977 13.028C40.6977 10.8934 39.1895 9.34413 37.1116 9.34413ZM37.1116 18.5352C35.4433 18.5352 34.0115 17.9457 32.9719 16.8305C32.04 15.831 31.5056 14.4516 31.5056 13.0471C31.5056 10.3408 33.4704 7.46484 37.1116 7.46484C38.6231 7.46484 39.9112 8.08478 40.66 9.16923V7.70595H42.718V18.2937H40.66V16.7062C39.9351 17.8699 38.6476 18.5352 37.1116 18.5352Z" fill="white"/>
<path id="Fill-3" fill-rule="evenodd" clip-rule="evenodd" d="M49.9439 16.6559C47.956 16.6559 46.3386 15.0284 46.3386 13.0283C46.3386 10.8938 47.8468 9.34413 49.9251 9.34413C52.3724 9.34413 53.4735 11.4989 53.4735 13.0283C53.4735 15.2691 51.6413 16.6559 49.9439 16.6559ZM49.9251 7.46484C48.4136 7.46484 47.1254 8.08513 46.3766 9.16958V7.7063H44.3187V18.2941V20.856H46.377V18.2941L46.3766 16.7065C47.1012 17.8699 48.3891 18.5352 49.9251 18.5352C51.5937 18.5352 53.0252 17.9461 54.0648 16.8305C54.9967 15.831 55.5311 14.452 55.5311 13.0471C55.5311 10.3411 53.5663 7.46484 49.9251 7.46484Z" fill="white"/>
<path id="Fill-5" fill-rule="evenodd" clip-rule="evenodd" d="M62.3265 9.34414H62.3276C63.6876 9.34662 64.6302 10.0133 65.1994 10.868L58.7955 13.4582C58.7802 13.3166 58.772 13.1714 58.7724 13.0223C58.7745 11.4925 59.8792 9.34025 62.3265 9.34414ZM62.334 16.6559C62.3279 16.6559 62.302 16.6559 62.2956 16.6556C61.2282 16.6538 60.1096 16.1036 59.4263 15.1388L67.78 11.7595C67.2627 9.50417 65.3907 7.46982 62.3308 7.46485C58.6899 7.45884 56.7191 10.3316 56.7144 13.0376C56.7123 14.4424 57.2438 15.8225 58.174 16.8234C59.2118 17.9404 60.6422 18.5324 62.3112 18.5352H62.3123C63.9809 18.538 65.4138 17.951 66.4549 16.8372C67.0543 16.1964 67.4895 15.398 67.7253 14.537H65.5582C64.963 15.8767 63.6097 16.6577 62.334 16.6559Z" fill="white"/>
<g id="Mask group">
<mask id="mask0_3140_15026" style="mask-type:luminance" maskUnits="userSpaceOnUse" x="68" y="7" width="12" height="12">
<g id="Group_2">
<path id="Vector" d="M68.9894 7.46484H80V18.5355H68.9894V7.46484Z" fill="white"/>
</g>
</mask>
<g mask="url(#mask0_3140_15026)">
<path id="Fill-7" fill-rule="evenodd" clip-rule="evenodd" d="M77.8335 14.5373C77.2393 15.8745 75.8893 16.6559 74.615 16.6559H74.5766C72.8788 16.6559 71.047 15.2691 71.047 13.0283C71.047 11.4985 72.1478 9.34448 74.5954 9.34448H74.5965C76.2626 9.34448 77.304 10.3429 77.7993 11.4631H79.9782C79.3684 9.32642 77.5256 7.46484 74.5965 7.46484H74.5954C70.9538 7.46484 68.9894 10.3411 68.9894 13.0471C68.9894 14.452 69.5241 15.831 70.4557 16.8308C71.4953 17.9461 72.9268 18.5355 74.5954 18.5355H74.5965C76.2651 18.5355 77.6962 17.9461 78.7366 16.8308C79.3328 16.191 79.7656 15.3951 80.0002 14.5373H77.8335Z" fill="white"/>
</g>
</g>
</g>
<g id="Group-2">
<path id="Fill-10" fill-rule="evenodd" clip-rule="evenodd" d="M7.23977 7.80371L0.000305176 25.5493H4.44297L11.0535 9.34629L7.23977 7.80371Z" fill="white"/>
<path id="Fill-12" fill-rule="evenodd" clip-rule="evenodd" d="M12.6026 5.54909L14.7644 10.8478L16.4113 14.8853L20.0853 13.0004L17.9239 7.7017L14.9657 0.451172H10.2396L8.78894 4.00651L12.6026 5.54909Z" fill="white"/>
<path id="Fill-15" fill-rule="evenodd" clip-rule="evenodd" d="M18.0384 18.8724L20.7623 25.549H25.205L21.7397 17.0547L18.0384 18.8724Z" fill="white"/>
</g>
<g id="Group-19">
<g id="Mask group_2">
<mask id="mask1_3140_15026" style="mask-type:luminance" maskUnits="userSpaceOnUse" x="0" y="0" width="15" height="11">
<g id="Group_3">
<path id="Vector_2" d="M0 0.451172H14.7644V10.8477H0V0.451172Z" fill="#FDC300"/>
</g>
</mask>
<g mask="url(#mask1_3140_15026)">
<path id="Fill-17" fill-rule="evenodd" clip-rule="evenodd" d="M12.6027 5.54909L0 0.451172V4.87499L14.7644 10.8478L12.6027 5.54909Z" fill="#FDC300"/>
</g>
</g>
</g>
<path id="Fill-20" fill-rule="evenodd" clip-rule="evenodd" d="M17.9238 7.70117L20.0855 12.9998L16.4116 14.8851L6.77639 19.8294L4.44324 25.5487L25.2052 15.3528V12.9998V10.6468L17.9238 7.70117Z" fill="#FDC300"/>
</g>
</svg>
