<svg width="104" height="326" viewBox="0 0 104 326" fill="none" xmlns="http://www.w3.org/2000/svg">
<path d="M103.924 15.3355L77.5053 232.132C76.9546 236.67 71.843 239.188 67.919 236.79C60.5184 232.269 52.0163 229.255 42.8775 228.142C33.7386 227.045 24.7718 227.953 16.4935 230.573C12.1048 231.978 7.75044 228.313 8.30118 223.774L34.7196 6.97804C35.2531 2.62807 39.246 -0.471713 43.6347 0.0591894L96.9533 6.49852C101.342 7.02942 104.474 10.9855 103.941 15.3355H103.924Z" fill="white"/>
<path d="M70.6998 294.006C68.346 313.452 50.6664 327.309 31.2258 324.944C11.7851 322.579 -2.0936 304.868 0.260204 285.422C0.417124 284.178 0.608856 283.005 0.852954 281.848C4.82826 264.295 21.5316 252.277 39.7343 254.484C57.937 256.709 71.2926 272.388 70.9788 290.397C70.9439 291.589 70.8567 292.78 70.6998 294.024V294.006Z" fill="white"/>
</svg>
