<svg width="16" height="17" viewBox="0 0 16 17" fill="#1DD6C9"  xmlns="http://www.w3.org/2000/svg">
<path d="M14.0952 0.142578H1.90476C1.39959 0.142578 0.915104 0.343258 0.557892 0.70047C0.20068 1.05768 0 1.54217 0 2.04734L0 14.2378C0 14.743 0.20068 15.2275 0.557892 15.5847C0.915104 15.9419 1.39959 16.1426 1.90476 16.1426H14.0952C14.6004 16.1426 15.0849 15.9419 15.4421 15.5847C15.7993 15.2275 16 14.743 16 14.2378V2.04734C16 1.54217 15.7993 1.05768 15.4421 0.70047C15.0849 0.343258 14.6004 0.142578 14.0952 0.142578V0.142578ZM4.95238 6.23782V13.4759H2.66667V6.23782H4.95238ZM2.66667 4.13115C2.66667 3.59782 3.12381 3.1902 3.80952 3.1902C3.9467 3.17496 4.08553 3.18738 4.21782 3.22672C4.35011 3.26607 4.47317 3.33154 4.57971 3.41926C4.68626 3.50699 4.77414 3.61519 4.83815 3.73746C4.90216 3.85974 4.941 3.9936 4.95238 4.13115C4.95238 4.66448 4.52571 5.09496 3.80952 5.09496C3.67056 5.11017 3.52996 5.09701 3.39624 5.05626C3.26251 5.01552 3.13846 4.94804 3.0316 4.85791C2.92473 4.76779 2.83729 4.65691 2.77456 4.53198C2.71183 4.40705 2.67512 4.27069 2.66667 4.13115ZM13.3333 13.4759H11.0476V9.66639C11.0476 8.90448 10.6667 8.14258 9.71429 8.14258H9.68381C8.7619 8.14258 8.38095 8.90448 8.38095 9.66639V13.4759H6.09524V6.23782H8.38095V7.21305C8.65594 6.89832 8.99671 6.64784 9.37917 6.47932C9.76164 6.3108 10.1764 6.22835 10.5943 6.23782C12.1181 6.23782 13.3333 7.27782 13.3333 9.38448V13.4759Z"/>
</svg>
