<svg width="87" height="68" viewBox="0 0 87 68" fill="none" xmlns="http://www.w3.org/2000/svg">
<path d="M80.9583 1.47972e-05C84.4783 10.0572 86.2383 20.0305 86.2383 29.92C86.2383 41.3181 83.2211 50.4534 77.1869 57.3257C71.1526 64.3657 62.3526 67.8857 50.7868 67.8857L50.7869 52.0457C59.6707 52.0457 64.1126 46.3467 64.1126 34.9486L64.1126 31.1772L48.0211 31.1772L48.0211 1.19177e-05L80.9583 1.47972e-05ZM33.4383 1.06429e-05C36.7907 10.2248 38.4669 20.1981 38.4669 29.92C38.4669 41.3181 35.5335 50.4534 29.6669 57.3257C23.6326 64.3657 14.8326 67.8857 3.26685 67.8857L3.26685 52.0457C11.983 52.0457 16.3411 46.3467 16.3411 34.9486L16.3411 31.1772L0.50114 31.1772L0.501143 7.76341e-06L33.4383 1.06429e-05Z" fill="white"/>
</svg>
