<svg width="16" height="17" viewBox="0 0 16 17" fill="none" xmlns="http://www.w3.org/2000/svg">
<path id="Vector" d="M14.0952 0.142456H1.90476C1.39959 0.142456 0.915104 0.343136 0.557892 0.700348C0.20068 1.05756 0 1.54204 0 2.04722L0 14.2377C0 14.7429 0.20068 15.2274 0.557892 15.5846C0.915104 15.9418 1.39959 16.1425 1.90476 16.1425H14.0952C14.6004 16.1425 15.0849 15.9418 15.4421 15.5846C15.7993 15.2274 16 14.7429 16 14.2377V2.04722C16 1.54204 15.7993 1.05756 15.4421 0.700348C15.0849 0.343136 14.6004 0.142456 14.0952 0.142456V0.142456ZM4.95238 6.23769V13.4758H2.66667V6.23769H4.95238ZM2.66667 4.13103C2.66667 3.59769 3.12381 3.19008 3.80952 3.19008C3.9467 3.17484 4.08553 3.18726 4.21782 3.2266C4.35011 3.26595 4.47317 3.33142 4.57971 3.41914C4.68626 3.50687 4.77414 3.61506 4.83815 3.73734C4.90216 3.85961 4.941 3.99348 4.95238 4.13103C4.95238 4.66436 4.52571 5.09484 3.80952 5.09484C3.67056 5.11005 3.52996 5.09689 3.39624 5.05614C3.26251 5.01539 3.13846 4.94791 3.0316 4.85779C2.92473 4.76767 2.83729 4.65678 2.77456 4.53186C2.71183 4.40693 2.67512 4.27056 2.66667 4.13103ZM13.3333 13.4758H11.0476V9.66627C11.0476 8.90436 10.6667 8.14246 9.71429 8.14246H9.68381C8.7619 8.14246 8.38095 8.90436 8.38095 9.66627V13.4758H6.09524V6.23769H8.38095V7.21293C8.65594 6.8982 8.99671 6.64771 9.37917 6.47919C9.76164 6.31067 10.1764 6.22823 10.5943 6.23769C12.1181 6.23769 13.3333 7.27769 13.3333 9.38436V13.4758Z" fill="#800639"/>
</svg>
