<svg width="293" height="167" viewBox="0 0 293 167" fill="none" xmlns="http://www.w3.org/2000/svg">
<path d="M17.3143 178.334V41.7217H0.178281V18.8737C13.5063 17.9217 18.7423 14.1137 21.8363 0.309734H47.7783V178.334H17.3143ZM91.0013 79.8017C89.5733 79.8017 87.9073 80.9917 86.7173 83.8477L57.6813 78.1357V0.0717372H124.321V27.6797H88.1453V63.3797C92.4293 56.7157 99.3313 53.8597 104.805 53.8597C118.609 53.8597 125.035 63.6177 125.035 81.2297V144.3C125.035 167.624 114.325 180.714 90.5253 180.714C67.4393 180.714 56.0153 166.91 56.0153 144.538V97.1757H86.9553V146.918C86.9553 152.868 87.9073 154.534 90.7633 154.534C93.1433 154.534 94.3333 152.868 94.3333 147.394V85.2757C94.3333 81.2297 92.9053 79.8017 91.0013 79.8017ZM165.559 106.458H164.607V178.334H132.953V0.309734H164.607V58.3817H166.035L180.077 0.309734H211.493L189.359 81.9437L211.017 178.334H178.649L165.559 106.458ZM264.031 115.026V148.108H240.707V115.026H212.861V94.5577H240.707V61.7137H264.031V94.5577H292.115V115.026H264.031Z" fill="white"/>
</svg>
