<svg width="390" height="170" viewBox="0 0 390 170" fill="none" xmlns="http://www.w3.org/2000/svg">
<path d="M35.9525 82.8017C34.5245 82.8017 32.8585 83.9917 31.6685 86.8477L2.63248 81.1357V3.07174H69.2725V30.6797H33.0965V66.3797C37.3805 59.7157 44.2825 56.8597 49.7565 56.8597C63.5605 56.8597 69.9865 66.6177 69.9865 84.2297V147.3C69.9865 170.624 59.2765 183.714 35.4765 183.714C12.3905 183.714 0.966485 169.91 0.966485 147.538V100.176H31.9065V149.918C31.9065 155.868 32.8585 157.534 35.7145 157.534C38.0945 157.534 39.2845 155.868 39.2845 150.394V88.2757C39.2845 84.2297 37.8565 82.8017 35.9525 82.8017ZM112.414 184.19C89.5657 184.19 77.6657 170.624 77.6657 147.3V37.1057C77.6657 13.7817 89.5657 0.215731 112.414 0.215731C135.024 0.215731 146.924 13.7817 146.924 37.1057V147.3C146.924 170.624 135.024 184.19 112.414 184.19ZM116.222 149.918V33.5357C116.222 28.0617 115.27 25.4437 112.414 25.4437C109.558 25.4437 108.844 27.8237 108.844 33.5357V149.918C108.844 155.868 109.796 158.01 112.414 158.01C115.27 158.01 116.222 155.63 116.222 149.918ZM188.881 184.19C166.033 184.19 154.133 170.624 154.133 147.3V37.1057C154.133 13.7817 166.033 0.215731 188.881 0.215731C211.491 0.215731 223.391 13.7817 223.391 37.1057V147.3C223.391 170.624 211.491 184.19 188.881 184.19ZM192.689 149.918V33.5357C192.689 28.0617 191.737 25.4437 188.881 25.4437C186.025 25.4437 185.311 27.8237 185.311 33.5357V149.918C185.311 155.868 186.263 158.01 188.881 158.01C191.737 158.01 192.689 155.63 192.689 149.918ZM263.443 109.458H262.491V181.334H230.837V3.30973H262.491V61.3817H263.919L277.961 3.30973H309.377L287.243 84.9437L308.901 181.334H276.533L263.443 109.458ZM361.916 118.026V151.108H338.592V118.026H310.746V97.5577H338.592V64.7137H361.916V97.5577H390V118.026H361.916Z" fill="#633ADE"/>
</svg>
