<svg width="234" height="264" viewBox="0 0 234 264" fill="none" xmlns="http://www.w3.org/2000/svg">
<path d="M52.3695 277.336C17.8095 277.336 0.169531 257.896 0.169531 224.776V159.256C0.169531 137.656 5.20953 127.216 18.5295 120.736C4.84953 113.536 0.529532 101.296 0.529532 85.4559V53.0559C0.529532 19.5759 17.8095 0.495929 52.3695 0.495929C85.8495 0.495929 104.57 19.5759 104.57 53.0559V83.2959C104.57 99.8559 100.25 114.256 85.8495 120.376C101.69 126.496 104.93 139.816 104.93 158.536V224.776C104.93 257.896 86.2095 277.336 52.3695 277.336ZM58.4895 152.416C58.4895 144.856 56.6895 141.256 52.7295 141.256C48.7695 141.256 47.3295 144.856 47.3295 152.416V227.656C47.3295 235.216 48.7695 238.456 52.7295 238.456C57.0495 238.456 58.4895 234.856 58.4895 227.656V152.416ZM58.4895 48.3759C58.4895 41.5359 56.6895 38.2959 52.7295 38.2959C48.7695 38.2959 47.3295 42.2559 47.3295 48.3759V90.1359C47.3295 97.3359 48.7695 100.576 52.7295 100.576C56.6895 100.576 58.4895 97.3359 58.4895 90.1359V48.3759ZM190.714 178.336V228.376H155.434V178.336H113.314V147.376H155.434V97.6959H190.714V147.376H233.194V178.336H190.714Z" fill="white"/>
</svg>
