<svg width="307" height="176" viewBox="0 0 307 176" fill="none" xmlns="http://www.w3.org/2000/svg">
<path d="M38.1835 183.238C15.3355 183.238 3.67352 170.386 3.67352 148.49V105.174C3.67352 90.8939 7.00552 83.9919 15.8115 79.7079C6.76752 74.9479 3.91152 66.8559 3.91152 56.3839V34.9639C3.91152 12.8299 15.3355 0.215935 38.1835 0.215935C60.3175 0.215935 72.6935 12.8299 72.6935 34.9639V54.9559C72.6935 65.9039 69.8375 75.4239 60.3175 79.4699C70.7895 83.5159 72.9315 92.3219 72.9315 104.698V148.49C72.9315 170.386 60.5555 183.238 38.1835 183.238ZM42.2295 100.652C42.2295 95.6539 41.0395 93.2739 38.4215 93.2739C35.8035 93.2739 34.8515 95.6539 34.8515 100.652V150.394C34.8515 155.392 35.8035 157.534 38.4215 157.534C41.2775 157.534 42.2295 155.154 42.2295 150.394V100.652ZM42.2295 31.8699C42.2295 27.3479 41.0395 25.2059 38.4215 25.2059C35.8035 25.2059 34.8515 27.8239 34.8515 31.8699V59.4779C34.8515 64.2379 35.8035 66.3799 38.4215 66.3799C41.0395 66.3799 42.2295 64.2379 42.2295 59.4779V31.8699Z" fill="white"/>
<path d="M118.424 181.096H99.1835V83.7259H116.994C131.294 83.7259 137.534 89.3159 137.534 102.966V159.776C137.534 172.256 133.634 181.096 118.424 181.096ZM120.244 101.666C120.244 98.1559 119.334 97.2459 117.124 97.2459H116.214V167.316H117.124C119.334 167.186 120.244 166.276 120.244 162.766V101.666ZM141.846 181.096V83.7259H158.876V181.096H141.846ZM190.465 181.096L189.035 175.376C186.695 180.056 182.275 182.396 177.855 182.396C167.715 182.396 163.295 175.506 163.295 163.676V102.446C163.295 89.7059 170.055 82.2959 182.795 82.2959C195.405 82.2959 202.165 89.7059 202.165 102.446V116.486H184.875V100.626C184.875 97.5059 184.355 96.2059 182.795 96.2059C181.235 96.2059 180.715 97.5059 180.715 100.626V164.326C180.715 167.576 181.495 168.486 182.925 168.486C184.485 168.486 185.135 167.446 185.135 164.326V138.196H182.405V125.456H202.165V181.096H190.465ZM206.465 181.096V83.7259H223.495V181.096H206.465ZM253.654 97.6359V181.096H236.364V97.6359H225.704V83.7259H264.314V97.6359H253.654ZM285.104 182.396C272.494 182.396 265.734 175.376 265.734 163.156V145.736H283.024V165.366C283.024 167.186 283.804 168.356 285.104 168.356C286.534 168.356 287.184 167.186 287.184 164.196V150.416C287.184 144.696 285.234 142.096 281.984 138.716L271.844 128.576C267.294 123.896 265.864 119.086 265.864 112.326V100.366C265.864 88.7959 273.274 82.1659 285.364 82.1659C296.544 82.1659 303.954 89.5759 303.954 102.316V115.056H287.314V99.7159C287.314 97.3759 286.924 95.9459 285.234 95.9459C283.544 95.9459 283.154 98.2859 283.154 99.5859V110.116C283.154 113.756 283.674 115.966 286.014 118.566L298.234 131.306C303.304 136.766 304.344 142.356 304.344 148.856V162.246C304.344 174.986 296.674 182.396 285.104 182.396Z" fill="white"/>
</svg>
