<svg xmlns="http://www.w3.org/2000/svg" xmlns:xlink="http://www.w3.org/1999/xlink" width="158" height="158" viewBox="0 0 158 158">
  <defs>
    <linearGradient id="linear-gradient" y1="1" x2="1" gradientUnits="objectBoundingBox">
      <stop offset="0" stop-color="#038ca6"/>
      <stop offset="1" stop-color="#48b471"/>
    </linearGradient>
  </defs>
  <g id="Groupe_3649" data-name="Groupe 3649" transform="translate(-172 -1349.035)">
    <rect id="BD_2022_Livry_Gargan-76_0" data-name="BD_2022_Livry Gargan-76_0" width="158" height="158" rx="20" transform="translate(172 1349.035)" fill="url(#linear-gradient)"/>
    <g id="Groupe_2835" data-name="Groupe 2835" transform="translate(210 1371.035)">
      <path id="Tracé_35989" data-name="Tracé 35989" d="M498.992,199.226H474.6a5.273,5.273,0,0,0-5.5,5.01V224.01a1.977,1.977,0,1,0,3.955,0V204.236c0-.5.635-1.052,1.541-1.052h24.394c.908,0,1.541.554,1.541,1.052v19.7a1.977,1.977,0,1,0,3.955,0v-19.7A5.275,5.275,0,0,0,498.992,199.226Z" transform="translate(-446.216 -111.231)" fill="#fff"/>
      <path id="Tracé_35990" data-name="Tracé 35990" d="M477.624,204.268a1.977,1.977,0,0,0-1.978,1.978v10.5a1.979,1.979,0,0,0,3.955.09V206.155A1.981,1.981,0,0,0,477.624,204.268Z" transform="translate(-436.785 -103.964)" fill="#fff"/>
      <path id="Tracé_35991" data-name="Tracé 35991" d="M526.606,176.429h-9.67a17.375,17.375,0,0,0-16.582-13.247h-.522a17.374,17.374,0,0,0-16.579,13.247H474.01a14.3,14.3,0,0,0-14.282,14.282v84.88a1.979,1.979,0,0,0,3.957,0V190.71a10.334,10.334,0,0,1,10.324-10.324h8.738c0,.049,0,.1,0,.146a17.352,17.352,0,0,0,34.7,0c0-.051,0-.1-.007-.146h9.167A10.336,10.336,0,0,1,536.93,190.71v84.743a1.977,1.977,0,1,0,3.955,0V190.71A14.3,14.3,0,0,0,526.606,176.429Zm-26.513,17.5a13.394,13.394,0,1,1,13.4-13.393A13.407,13.407,0,0,1,500.093,193.926Z" transform="translate(-459.728 -163.182)" fill="#fff"/>
      <path id="Tracé_35992" data-name="Tracé 35992" d="M487.909,173.259H483.3v-4.231a1.979,1.979,0,0,0-3.957,0v4.231h-4.609a1.977,1.977,0,1,0,0,3.955h4.609v4.88a1.979,1.979,0,0,0,3.957,0v-4.88h4.609a1.977,1.977,0,0,0,0-3.955Z" transform="translate(-440.955 -157.606)" fill="#fff"/>
      <path id="Tracé_35993" data-name="Tracé 35993" d="M494.987,179.15H481.2a1.981,1.981,0,0,0-1.977,1.98v12.194A1.979,1.979,0,0,0,481.2,195.3h13.786a1.978,1.978,0,0,0,1.977-1.977V181.13A1.981,1.981,0,0,0,494.987,179.15Zm-1.977,12.194H483.18v-8.237h9.829Z" transform="translate(-431.629 -140.167)" fill="#fff"/>
      <path id="Tracé_35994" data-name="Tracé 35994" d="M467.939,195.3h13.784a1.977,1.977,0,0,0,1.978-1.977V181.13a1.979,1.979,0,0,0-1.978-1.98H467.939a1.981,1.981,0,0,0-1.98,1.98v12.194A1.979,1.979,0,0,0,467.939,195.3Zm1.977-12.194h9.831v8.237h-9.831Z" transform="translate(-450.747 -140.167)" fill="#fff"/>
      <path id="Tracé_35995" data-name="Tracé 35995" d="M494.987,188.874H481.2a1.979,1.979,0,0,0-1.977,1.978v12.194a1.979,1.979,0,0,0,1.977,1.977h13.786a1.978,1.978,0,0,0,1.977-1.977V190.852A1.979,1.979,0,0,0,494.987,188.874Zm-1.977,12.192H483.18v-8.237h9.829Z" transform="translate(-431.629 -126.152)" fill="#fff"/>
      <path id="Tracé_35996" data-name="Tracé 35996" d="M483.7,203.046V190.852a1.977,1.977,0,0,0-1.978-1.978H467.939a1.979,1.979,0,0,0-1.98,1.978v12.194a1.979,1.979,0,0,0,1.98,1.977h13.784A1.977,1.977,0,0,0,483.7,203.046Zm-3.953-1.98h-9.831v-8.237h9.831Z" transform="translate(-450.747 -126.152)" fill="#fff"/>
    </g>
  </g>
</svg>
