<svg xmlns="http://www.w3.org/2000/svg" xmlns:xlink="http://www.w3.org/1999/xlink" width="159" height="159" viewBox="0 0 159 159">
  <defs>
    <linearGradient id="linear-gradient" y1="1" x2="1" y2="0.451" gradientUnits="objectBoundingBox">
      <stop offset="0" stop-color="#4bb46e"/>
      <stop offset="1" stop-color="#c5c712"/>
    </linearGradient>
  </defs>
  <g id="Groupe_3651" data-name="Groupe 3651" transform="translate(-485.5 -1310.525)">
    <rect id="BD_2022_Livry_Gargan-76_0" data-name="BD_2022_Livry Gargan-76_0" width="158" height="158" rx="20" transform="translate(486 1311.025)" stroke="rgba(0,0,0,0)" stroke-width="1" fill="url(#linear-gradient)"/>
    <g id="Groupe_2836" data-name="Groupe 2836" transform="translate(510.086 1339.196)">
      <path id="Tracé_35997" data-name="Tracé 35997" d="M1036.967,210.179,998.3,173.727a20.707,20.707,0,0,0-14.125-5.672c-.468,0-.941.017-1.41.051l-.223.017a16.7,16.7,0,0,0-9.667,4.153l-43.444,38.588a1.967,1.967,0,0,0,1.306,3.437h8.3v13.407a1.967,1.967,0,0,0,3.934,0V212.334a1.967,1.967,0,0,0-1.966-1.968h-5.1l39.578-35.151a12.73,12.73,0,0,1,7.393-3.172l.165-.015a16.7,16.7,0,0,1,12.553,4.563l35.063,33.052h-3.641a1.967,1.967,0,0,0-1.966,1.968v16.1a1.966,1.966,0,1,0,3.932,0v-14.13h6.626a1.967,1.967,0,0,0,1.349-3.4Z" transform="translate(-928.774 -168.055)" fill="#fff"/>
      <path id="Tracé_35998" data-name="Tracé 35998" d="M948.54,198.144a6.61,6.61,0,0,0,6.6-6.432v-.342a6.6,6.6,0,1,0-6.6,6.774Zm0-9.269a2.669,2.669,0,1,1-2.67,2.667A2.672,2.672,0,0,1,948.54,188.875Z" transform="translate(-909.986 -143.955)" fill="#fff"/>
      <path id="Tracé_35999" data-name="Tracé 35999" d="M959.98,192.267a15.008,15.008,0,0,0-6.446-1.41c-.4,0-.7.017-.854.027a18.16,18.16,0,0,0-4.905.6c-.318.09-.622.192-.908.3A9.163,9.163,0,0,0,941.02,199l-2,11a1.967,1.967,0,1,0,3.871.7l2-11.058a5.253,5.253,0,0,1,3.332-4.177c.2-.073.413-.143.629-.206a13.528,13.528,0,0,1,3.854-.449c.073,0,.146,0,.219-.007a11.253,11.253,0,0,1,5.31.983,4.8,4.8,0,0,1,2.612,4.221l.252,13.858a2.272,2.272,0,0,1-.393-.01,1.986,1.986,0,0,0-1.529.49,1.965,1.965,0,0,0-.655,1.466V236.2a1.967,1.967,0,0,0,3.934,0V217.584a3.756,3.756,0,0,0,1.333-.755,3.843,3.843,0,0,0,1.247-2.682v-.2l-.255-14A8.66,8.66,0,0,0,959.98,192.267Z" transform="translate(-914.191 -135.515)" fill="#fff"/>
      <path id="Tracé_36000" data-name="Tracé 36000" d="M943.509,200.238a6.456,6.456,0,0,0-2.752-.614,6.639,6.639,0,0,0-2.769.609c-3.31,1.536-3.806,5.235-3.577,7.179a1.966,1.966,0,0,0,3.907-.447c0-.024-.231-2.444,1.323-3.162a2.625,2.625,0,0,1,2.194-.007,2.522,2.522,0,0,1,1.384,2.107,2.331,2.331,0,0,1,.029.393v17.395a1.966,1.966,0,0,0,3.932,0V206.3a6.379,6.379,0,0,0-.078-1.012A6.446,6.446,0,0,0,943.509,200.238Z" transform="translate(-920.799 -123.004)" fill="#fff"/>
      <path id="Tracé_36001" data-name="Tracé 36001" d="M945.112,200.223H942.17a1.966,1.966,0,0,0,0,3.932h.976v18.681a1.966,1.966,0,0,0,3.932,0V202.189A1.967,1.967,0,0,0,945.112,200.223Z" transform="translate(-912.462 -122.15)" fill="#fff"/>
      <path id="Tracé_36002" data-name="Tracé 36002" d="M946.119,203.43a1.965,1.965,0,0,0-1.966,1.966v12.863a1.967,1.967,0,0,0,3.934,0V205.4A1.968,1.968,0,0,0,946.119,203.43Z" transform="translate(-906.827 -117.573)" fill="#fff"/>
      <path id="Tracé_36003" data-name="Tracé 36003" d="M958.75,196.543a2.051,2.051,0,0,0-1.524-2.568,2.259,2.259,0,0,0-.464-.049,2.462,2.462,0,0,0-1.784.774,2.2,2.2,0,0,0-2.6-.5,2.355,2.355,0,0,0-1.031,2.942,5.767,5.767,0,0,0,3.466,3.405.643.643,0,0,0,.478,0A5.739,5.739,0,0,0,958.75,196.543Z" transform="translate(-896.779 -131.134)" fill="#fff"/>
      <path id="Tracé_36004" data-name="Tracé 36004" d="M952.351,203.43a1.966,1.966,0,0,0-1.968,1.966v12.863a1.967,1.967,0,0,0,3.934,0V205.4A1.966,1.966,0,0,0,952.351,203.43Z" transform="translate(-897.936 -117.573)" fill="#fff"/>
      <path id="Tracé_36005" data-name="Tracé 36005" d="M956.088,198.144a6.6,6.6,0,1,0-6.6-6.6A6.608,6.608,0,0,0,956.088,198.144Zm0-9.269a2.669,2.669,0,1,1-2.67,2.667A2.67,2.67,0,0,1,956.088,188.875Z" transform="translate(-899.216 -143.955)" fill="#fff"/>
      <path id="Tracé_36006" data-name="Tracé 36006" d="M962.532,192.188a16.484,16.484,0,0,0-6.7-1.092,40.538,40.538,0,0,0-4.507.26,1.967,1.967,0,0,0,.476,3.905c2.507-.3,7.16-.447,8.995.454a4.817,4.817,0,0,1,2.614,4.221l.221,12.468a1.237,1.237,0,0,1-.352.927,1.63,1.63,0,0,1-1.182.449l-1.121,0a2.073,2.073,0,0,0-1.4.57,1.968,1.968,0,0,0-.58,1.4v20.382a1.967,1.967,0,1,0,3.935,0V217.655a5.442,5.442,0,0,0,3.158-1.568,5.178,5.178,0,0,0,1.478-3.755l-.223-12.468A8.665,8.665,0,0,0,962.532,192.188Z" transform="translate(-899.056 -135.174)" fill="#fff"/>
      <path id="Tracé_36007" data-name="Tracé 36007" d="M972.658,200.334a6.572,6.572,0,0,0-2.762-.612,6.66,6.66,0,0,0-6.427,6.672v17.4a1.966,1.966,0,1,0,3.932,0v-17.4a2.412,2.412,0,0,1,.027-.4,2.554,2.554,0,0,1,1.386-2.1,2.616,2.616,0,0,1,2.194.007c1.536.711,1.33,3.087,1.32,3.16a1.967,1.967,0,0,0,3.907.449C976.466,205.569,975.971,201.868,972.658,200.334Z" transform="translate(-879.262 -122.865)" fill="#fff"/>
      <path id="Tracé_36008" data-name="Tracé 36008" d="M962.766,198.244a6.6,6.6,0,1,0-6.6-6.6A6.61,6.61,0,0,0,962.766,198.244Zm0-9.269a2.667,2.667,0,1,1-2.67,2.667A2.67,2.67,0,0,1,962.766,188.975Z" transform="translate(-889.686 -143.815)" fill="#fff"/>
      <path id="Tracé_36009" data-name="Tracé 36009" d="M975.06,209.963l-1.985-10.944a9.193,9.193,0,0,0-5.852-7.279c-.291-.107-.595-.206-.917-.3a27.355,27.355,0,0,0-5.891-.386c-.577,0-1.2,0-1.852.015a1.966,1.966,0,1,0,.058,3.932,40.6,40.6,0,0,1,6.6.218c.221.065.432.133.633.206a5.3,5.3,0,0,1,3.344,4.235l1.993,11a1.966,1.966,0,0,0,1.932,1.616,2.009,2.009,0,0,0,.354-.034A1.963,1.963,0,0,0,975.06,209.963Z" transform="translate(-889.03 -135.231)" fill="#fff"/>
      <path id="Tracé_36010" data-name="Tracé 36010" d="M964.862,200.321h-2.944a1.971,1.971,0,0,0-1.968,1.968v20.647a1.967,1.967,0,0,0,3.934,0V204.255h.978a1.967,1.967,0,0,0,0-3.934Z" transform="translate(-884.284 -122.01)" fill="#fff"/>
      <path id="Tracé_36011" data-name="Tracé 36011" d="M959.028,203.529a1.964,1.964,0,0,0-1.966,1.966v12.863a1.966,1.966,0,0,0,3.932,0V205.495A1.965,1.965,0,0,0,959.028,203.529Z" transform="translate(-888.405 -117.432)" fill="#fff"/>
    </g>
  </g>
</svg>
