<svg xmlns="http://www.w3.org/2000/svg" xmlns:xlink="http://www.w3.org/1999/xlink" width="159" height="159" viewBox="0 0 159 159">
  <defs>
    <linearGradient id="linear-gradient" y1="1" x2="1" gradientUnits="objectBoundingBox">
      <stop offset="0" stop-color="#FFD205"/>
      <stop offset="1" stop-color="#EF7D00"/>
    </linearGradient>
  </defs>
  <g id="Groupe_3652" data-name="Groupe 3652" transform="translate(-718.5 -1347.525)">
    <rect id="BD_2022_Livry_Gargan-76_0" data-name="BD_2022_Livry Gargan-76_0" width="158" height="158" rx="20" transform="translate(719 1348.025)" stroke="rgba(0,0,0,0)" stroke-miterlimit="10" stroke-width="1" fill="url(#linear-gradient)"/>
    <g id="Groupe_3501" data-name="Groupe 3501" transform="translate(734.578 1379.18)">
      <g id="Groupe_3500" data-name="Groupe 3500" transform="translate(0 0)">
        <path id="Tracé_36020" data-name="Tracé 36020" d="M608.692,202.048a1.8,1.8,0,0,0-1.8,1.8v14.81a1.8,1.8,0,0,0,3.607,0v-14.81A1.8,1.8,0,0,0,608.692,202.048Z" transform="translate(-555.079 -126.402)" fill="#fff"/>
        <path id="Tracé_36021" data-name="Tracé 36021" d="M594.826,206.85h-4.673l36.287-32.23a11.673,11.673,0,0,1,6.781-2.909l.149-.013a15.326,15.326,0,0,1,11.514,4.184l32.147,30.3h-3.34a1.805,1.805,0,0,0-1.8,1.8v2.555a1.8,1.8,0,0,0,3.607,0v-.752h6.078a1.8,1.8,0,0,0,1.237-3.116l-35.454-33.423a18.972,18.972,0,0,0-12.949-5.2c-.429,0-.861.016-1.293.047l-.2.016a15.31,15.31,0,0,0-8.861,3.808l-39.836,35.381a1.8,1.8,0,0,0,1.2,3.151h7.615V259.7a1.8,1.8,0,0,0,3.607,0V208.654A1.806,1.806,0,0,0,594.826,206.85Z" transform="translate(-583.606 -168.055)" fill="#fff"/>
        <path id="Tracé_36022" data-name="Tracé 36022" d="M604.107,185.977a7.139,7.139,0,1,0,7.137-7.139A7.146,7.146,0,0,0,604.107,185.977Zm10.671,0a3.532,3.532,0,1,1-3.534-3.534A3.536,3.536,0,0,1,614.777,185.977Z" transform="translate(-558.485 -154.842)" fill="#fff"/>
        <path id="Tracé_36023" data-name="Tracé 36023" d="M605.143,197.934a6.963,6.963,0,0,0-2.971-.665,7.144,7.144,0,0,0-2.993.663c-3.572,1.656-4.1,5.677-3.852,7.791a1.8,1.8,0,0,0,3.583-.412c0-.033-.309-3.138,1.787-4.106a3.479,3.479,0,0,1,2.913-.009,3.368,3.368,0,0,1,1.851,2.764,3.228,3.228,0,0,1,.04.53v20.026a1.8,1.8,0,1,0,3.605,0V204.49a7.419,7.419,0,0,0-3.963-6.556Z" transform="translate(-569.309 -132.258)" fill="#fff"/>
        <path id="Tracé_36024" data-name="Tracé 36024" d="M623.9,187.837a16.843,16.843,0,0,0-7.221-1.573c-.465,0-.8.018-.968.029a19.036,19.036,0,0,0-5.523.677c-.358.1-.7.214-1.019.334a10.092,10.092,0,0,0-6.436,7.962l-2.3,12.662a1.8,1.8,0,1,0,3.547.643l2.305-12.713a6.52,6.52,0,0,1,4.135-5.176c.238-.087.49-.169.756-.245a16.457,16.457,0,0,1,4.569-.536,1.442,1.442,0,0,0,.194-.007,13.454,13.454,0,0,1,6.367,1.182,5.913,5.913,0,0,1,3.265,5.259l.294,16.145a.329.329,0,0,1-.073.18,1.412,1.412,0,0,1-.895.085,1.8,1.8,0,0,0-2,1.791V238a1.8,1.8,0,0,0,3.607,0v-21.78a3.823,3.823,0,0,0,2.969-3.692l-.292-16.261A9.513,9.513,0,0,0,623.9,187.837Z" transform="translate(-563.016 -145.743)" fill="#fff"/>
        <path id="Tracé_36025" data-name="Tracé 36025" d="M607.121,198.021h-3.389a1.8,1.8,0,0,0,0,3.605h1.587v21.969a1.8,1.8,0,1,0,3.605,0V199.824A1.8,1.8,0,0,0,607.121,198.021Z" transform="translate(-561.154 -131.336)" fill="#fff"/>
        <path id="Tracé_36026" data-name="Tracé 36026" d="M624.828,197.484a1.8,1.8,0,0,0-1.8,1.8v24.354a1.8,1.8,0,1,0,3.6,0V199.287A1.8,1.8,0,0,0,624.828,197.484Z" transform="translate(-535.304 -131.994)" fill="#fff"/>
        <path id="Tracé_36027" data-name="Tracé 36027" d="M639,190.241a2.477,2.477,0,0,0-.5-.051,2.652,2.652,0,0,0-1.918.832,2.357,2.357,0,0,0-2.793-.532,2.529,2.529,0,0,0-1.108,3.162,6.2,6.2,0,0,0,3.725,3.661.7.7,0,0,0,.263.051.708.708,0,0,0,.251-.047A6.17,6.17,0,0,0,640.635,193,2.206,2.206,0,0,0,639,190.241Z" transform="translate(-523.677 -140.932)" fill="#fff"/>
        <path id="Tracé_36028" data-name="Tracé 36028" d="M638.191,193.116a7.139,7.139,0,1,0-7.141-7.139A7.146,7.146,0,0,0,638.191,193.116Zm0-10.673a3.533,3.533,0,1,1-3.536,3.534A3.537,3.537,0,0,1,638.191,182.443Z" transform="translate(-525.47 -154.842)" fill="#fff"/>
        <path id="Tracé_36029" data-name="Tracé 36029" d="M666.362,201.6c-.076-4.179-.619-8.839-4.075-11.719a16.018,16.018,0,0,0-10.27-3.618,16.27,16.27,0,0,0-11.512,4.642,20.669,20.669,0,0,0-3.147,4.382,18.9,18.9,0,0,1-2.239,3.278q-.541-.514-1.077-1.039c-.654-.636-1.313-1.273-1.985-1.894-1.427-1.311-5.21-4.789-8.884-2.946a5.2,5.2,0,0,0-2.853,3.716,5.7,5.7,0,0,0,1.558,4.9c.9.964,1.876,1.856,2.819,2.722.89.814,1.734,1.587,2.577,2.475l1.843,1.714c.243.22.47.456.7.692a11.579,11.579,0,0,0,1.7,1.515c3,2.067,5.635.323,7.555-.95l.145-.1c.26-.174.532-.347.81-.525v30.047a1.638,1.638,0,0,0,3.276,0V205.965a1.64,1.64,0,0,0-2.446-1.424c-1.3.732-2.423,1.422-3.452,2.1l-.145.1c-2.1,1.393-2.859,1.689-3.883.981a8.632,8.632,0,0,1-1.213-1.1c-.278-.283-.554-.565-.828-.817l-1.756-1.627c-.848-.9-1.776-1.747-2.67-2.566-.939-.859-1.825-1.669-2.635-2.539a2.469,2.469,0,0,1-.73-2.085,1.9,1.9,0,0,1,1.1-1.366c1.653-.832,4.317,1.624,5.2,2.43.65.6,1.284,1.217,1.92,1.834.743.719,1.487,1.44,2.25,2.134a1.634,1.634,0,0,0,2.105.078,16.647,16.647,0,0,0,4.066-5.143,17.9,17.9,0,0,1,2.639-3.727,13.152,13.152,0,0,1,17.367-.821c2.443,2.034,2.837,5.824,2.9,9.26l.287,10.323a.883.883,0,0,1-.269.563,2.028,2.028,0,0,1-1.458.218,1.662,1.662,0,0,0-1.273.409,1.637,1.637,0,0,0-.547,1.22v24.686a1.639,1.639,0,0,0,3.278,0V215.992a4.253,4.253,0,0,0,2.19-1.008,4.209,4.209,0,0,0,1.355-2.98Z" transform="translate(-538.718 -145.743)" fill="#fff"/>
        <path id="Tracé_36030" data-name="Tracé 36030" d="M635.255,202.375a1.8,1.8,0,0,0-1.8,1.8v14.81a1.8,1.8,0,0,0,3.607,0v-14.81A1.8,1.8,0,0,0,635.255,202.375Z" transform="translate(-522.53 -126.001)" fill="#fff"/>
      </g>
    </g>
  </g>
</svg>
