<svg xmlns="http://www.w3.org/2000/svg" xmlns:xlink="http://www.w3.org/1999/xlink" width="158" height="158" viewBox="0 0 158 158">
  <defs>
    <linearGradient id="linear-gradient" x1="0.006" y1="0.994" x2="0.972" y2="0.029" gradientUnits="objectBoundingBox">
      <stop offset="0" stop-color="#003e5c"/>
      <stop offset="1" stop-color="#038ba6"/>
    </linearGradient>
  </defs>
  <g id="Groupe_3650" data-name="Groupe 3650" transform="translate(-86 -1348.025)">
    <rect id="BD_2022_Livry_Gargan-76_0" data-name="BD_2022_Livry Gargan-76_0" width="158" height="158" rx="20" transform="translate(86 1348.025)" fill="url(#linear-gradient)"/>
    <g id="Groupe_3496" data-name="Groupe 3496" transform="translate(106.289 1380.519)">
      <path id="Tracé_35972" data-name="Tracé 35972" d="M379.184,186.644a6.371,6.371,0,1,0,6.371,6.371A6.378,6.378,0,0,0,379.184,186.644Zm0,8.677a2.3,2.3,0,1,1,2.3-2.306A2.306,2.306,0,0,1,379.184,195.321Z" transform="translate(-273.469 -151.07)" fill="#fff"/>
      <path id="Tracé_35973" data-name="Tracé 35973" d="M376.947,204.181a2.034,2.034,0,0,0-2.033,2.033v12.038a2.033,2.033,0,1,0,4.065,0V206.214A2.031,2.031,0,0,0,376.947,204.181Z" transform="translate(-270.539 -126.619)" fill="#fff"/>
      <path id="Tracé_35974" data-name="Tracé 35974" d="M393.2,200.944a8.293,8.293,0,0,0-4.609-7.35,14.33,14.33,0,0,0-6.132-1.338c-.093,0-.163,0-.244,0s-.148,0-.244,0a14.321,14.321,0,0,0-6.129,1.338,8.291,8.291,0,0,0-4.611,7.35l-.239,13.219a3.774,3.774,0,0,0,1.233,2.732,3.67,3.67,0,0,0,1.18.7V234.88a2.034,2.034,0,0,0,4.068,0V215.8a2.033,2.033,0,0,0-2.258-2.021c-.053,0-.1.01-.146.01l.23-12.773a4.24,4.24,0,0,1,2.334-3.778,9.363,9.363,0,0,1,3.1-.848c.319-.024.632-.05.977-.045.065,0,.148,0,.22-.01,0,0,.122-.007.29-.012s.287.012.292.012c.069,0,.156,0,.218.01.345,0,.661.022.979.045a9.35,9.35,0,0,1,3.093.848,4.235,4.235,0,0,1,2.334,3.778l.232,12.773c-.043,0-.093,0-.146-.01a2.033,2.033,0,0,0-2.26,2.021V234.88a2.035,2.035,0,0,0,4.07,0V217.6a3.658,3.658,0,0,0,1.178-.7,3.764,3.764,0,0,0,1.233-2.732Z" transform="translate(-276.014 -143.247)" fill="#fff"/>
      <path id="Tracé_35975" data-name="Tracé 35975" d="M348.919,188.5h-11.66a2.038,2.038,0,0,0-2.035,2.035V208.09a2.034,2.034,0,0,0,2.035,2.033h11.66a2.033,2.033,0,0,0,2.035-2.033V190.533A2.036,2.036,0,0,0,348.919,188.5Zm-2.03,17.557h-7.6V192.566h7.6Z" transform="translate(-325.877 -148.485)" fill="#fff"/>
      <path id="Tracé_35976" data-name="Tracé 35976" d="M369.077,199.386a6.371,6.371,0,1,0-6.371-6.371A6.379,6.379,0,0,0,369.077,199.386Zm0-8.674a2.3,2.3,0,1,1-2.3,2.3A2.306,2.306,0,0,1,369.077,190.712Z" transform="translate(-287.56 -151.07)" fill="#fff"/>
      <path id="Tracé_35977" data-name="Tracé 35977" d="M376.838,193.593a14.329,14.329,0,0,0-6.132-1.338c-.366,0-.642.014-.79.026a17.673,17.673,0,0,0-4.635.567c-.3.089-.594.182-.867.285-.3.11-.795.342-1.075.481a2.054,2.054,0,0,0,.838,3.955,2.008,2.008,0,0,0,.931-.28,5.693,5.693,0,0,1,.721-.345c.182-.065.374-.129.572-.187a12.374,12.374,0,0,1,3.551-.409c.062,0,.148,0,.218-.01a10.46,10.46,0,0,1,4.875.9,4.236,4.236,0,0,1,2.334,3.778l.232,12.773c-.043,0-.093,0-.146-.01a2.057,2.057,0,0,0-1.583.505,2.036,2.036,0,0,0-.677,1.516V234.88a2.035,2.035,0,0,0,4.07,0V217.6a3.683,3.683,0,0,0,1.178-.7,3.763,3.763,0,0,0,1.233-2.729l-.239-13.221A8.294,8.294,0,0,0,376.838,193.593Z" transform="translate(-288.464 -143.247)" fill="#fff"/>
      <path id="Tracé_35978" data-name="Tracé 35978" d="M366.84,204.181a2.034,2.034,0,0,0-2.033,2.033v12.038a2.033,2.033,0,1,0,4.065,0V206.214A2.031,2.031,0,0,0,366.84,204.181Z" transform="translate(-284.631 -126.619)" fill="#fff"/>
      <path id="Tracé_35979" data-name="Tracé 35979" d="M363.878,202.633a2.032,2.032,0,0,0-2.033,2.033V220.41a2.034,2.034,0,0,0,4.068,0V204.666A2.031,2.031,0,0,0,363.878,202.633Z" transform="translate(-288.761 -128.778)" fill="#fff"/>
      <path id="Tracé_35980" data-name="Tracé 35980" d="M361,199.386a6.371,6.371,0,1,0-6.369-6.371A6.38,6.38,0,0,0,361,199.386Zm0-8.674a2.3,2.3,0,1,1-2.3,2.3A2.3,2.3,0,0,1,361,190.712Z" transform="translate(-298.816 -151.07)" fill="#fff"/>
      <path id="Tracé_35981" data-name="Tracé 35981" d="M356.224,201.164a6.237,6.237,0,0,0-2.658-.594,6.368,6.368,0,0,0-2.667.591c-3.2,1.484-3.68,5.045-3.462,6.915a2.034,2.034,0,0,0,4.042-.46c0-.024-.2-2.148,1.128-2.763a2.264,2.264,0,0,1,1.889-.01,2.135,2.135,0,0,1,1.188,1.822,2.341,2.341,0,0,1,.022.342v16.278a2.034,2.034,0,0,0,4.068,0V207.008a6.326,6.326,0,0,0-.072-.977A6.236,6.236,0,0,0,356.224,201.164Z" transform="translate(-308.911 -131.654)" fill="#fff"/>
      <path id="Tracé_35982" data-name="Tracé 35982" d="M376.365,200.944a8.292,8.292,0,0,0-4.611-7.35,14.323,14.323,0,0,0-6.132-1.338c-.366,0-.639.014-.79.026a17.641,17.641,0,0,0-4.633.567c-.306.089-.6.182-.869.285a8.769,8.769,0,0,0-5.59,6.9l-1.867,10.3a2.033,2.033,0,1,0,4,.725l1.877-10.353a4.734,4.734,0,0,1,3-3.761c.184-.065.376-.129.572-.187a12.381,12.381,0,0,1,3.553-.409c.062,0,.148,0,.218-.01a10.463,10.463,0,0,1,4.875.9,4.234,4.234,0,0,1,2.332,3.778l.232,12.773c-.043,0-.093,0-.146-.01a2.048,2.048,0,0,0-1.58.505,2.027,2.027,0,0,0-.678,1.516V234.88a2.034,2.034,0,0,0,4.068,0V217.6a3.7,3.7,0,0,0,1.18-.7,3.767,3.767,0,0,0,1.231-2.729Z" transform="translate(-302.711 -143.247)" fill="#fff"/>
      <path id="Tracé_35983" data-name="Tracé 35983" d="M357.773,201.138H355.02a2.034,2.034,0,0,0,0,4.068h.721v17.289a2.033,2.033,0,1,0,4.065,0V203.171A2.032,2.032,0,0,0,357.773,201.138Z" transform="translate(-301.111 -130.862)" fill="#fff"/>
      <path id="Tracé_35984" data-name="Tracé 35984" d="M358.768,204.181a2.035,2.035,0,0,0-2.035,2.033v12.038a2.034,2.034,0,0,0,4.068,0V206.214A2.033,2.033,0,0,0,358.768,204.181Z" transform="translate(-295.888 -126.619)" fill="#fff"/>
      <path id="Tracé_35985" data-name="Tracé 35985" d="M428.4,175.856a10.625,10.625,0,0,1,10.614,10.614v15.9a2.033,2.033,0,1,0,4.065,0v-15.9A14.7,14.7,0,0,0,428.4,171.786H374.831a14.7,14.7,0,0,0-14.679,14.684v10.195H346a14.7,14.7,0,0,0-14.679,14.681v49.745a2.032,2.032,0,1,0,4.063,0V211.346A10.629,10.629,0,0,1,346,200.732h14.152v60.359a2.032,2.032,0,1,0,4.063,0V186.47a10.626,10.626,0,0,1,10.616-10.614Z" transform="translate(-331.32 -171.786)" fill="#fff"/>
      <path id="Tracé_35986" data-name="Tracé 35986" d="M371.827,192.922V178.109a2.4,2.4,0,0,0-2.4-2.4H352.675a2.407,2.407,0,0,0-2.406,2.4v14.813a2.406,2.406,0,0,0,2.406,2.406h16.748A2.4,2.4,0,0,0,371.827,192.922Zm-4.209-1.9H354.483V180.01h13.135Z" transform="translate(-304.9 -166.322)" fill="#fff"/>
      <path id="Tracé_35987" data-name="Tracé 35987" d="M384.036,192.922V178.109a2.4,2.4,0,0,0-2.4-2.4H364.884a2.407,2.407,0,0,0-2.406,2.4v14.813a2.406,2.406,0,0,0,2.406,2.406h16.748A2.4,2.4,0,0,0,384.036,192.922Zm-4.209-1.9H366.692V180.01h13.135Z" transform="translate(-287.878 -166.322)" fill="#fff"/>
      <path id="Tracé_35988" data-name="Tracé 35988" d="M381.169,197.91a1.017,1.017,0,0,0-1.02-1.018h-.84v-.737a1.019,1.019,0,0,0-2.037,0v.737h-.843a1.019,1.019,0,1,0,0,2.037h.843v.919a1.019,1.019,0,0,0,2.037,0v-.919h.84A1.019,1.019,0,0,0,381.169,197.91Z" transform="translate(-269.849 -139.229)" fill="#fff"/>
    </g>
  </g>
</svg>
