<svg xmlns="http://www.w3.org/2000/svg" xmlns:xlink="http://www.w3.org/1999/xlink" width="253.811" height="269.484" viewBox="0 0 253.811 269.484">
  <defs>
    <linearGradient id="linear-gradient" x1="0.006" y1="0.994" x2="0.972" y2="0.029" gradientUnits="objectBoundingBox">
      <stop offset="0" stop-color="#00aac3"/>
      <stop offset="1" stop-color="#91be1e"/>
    </linearGradient>
  </defs>
  <g id="Groupe_3748" data-name="Groupe 3748" transform="translate(-197.971 -174.406)">
    <path id="Union_9" data-name="Union 9" d="M6774.621-16884.09c-7.577-.139-13.285-2.023-17.964-5.928-.508-.428-1.085-.879-1.7-1.357-3.5-2.742-7.856-6.15-8.209-10.533a7.167,7.167,0,0,1,2.041-5.537c6.634-7.2,35.395-3.477,39.092-2.965a5.969,5.969,0,0,0,2.514-3.543c.172-.551.646-2.359-.138-3.385-1.477-.727-8.192-1.975-38.567.535-3.271.271-3.831.318-4.718-.375a12.061,12.061,0,0,1-5.915-8.648,13.5,13.5,0,0,1,3.3-10.787c3.083-3.406,11.425-3.672,30.181-3.01,2.428.09,4.727.172,6.75.211h7.865c1.339,0,2.721-.014,4.111.035.021-.564-.008-1.3-.03-1.762a16.339,16.339,0,0,1,0-2.432,29.194,29.194,0,0,1,4.507-12.828c.87-1.344,2.152-3.1,3.775-5.33,8.864-12.178,27.306-37.521,28.726-63.971.568-10.576-3.792-26.479-14.817-38.156-9.991-10.592-23.448-15.994-39.992-16.062h-.387c-19.7,0-35.782,6.281-46.518,18.172-10.009,11.084-14.766,26.643-13.052,42.689,1.188,11.146,7.641,21.555,13.883,31.623,2.355,3.8,4.581,7.393,6.479,10.953a138.164,138.164,0,0,1,10.908,26.818,5.78,5.78,0,0,1,.073,3.582,5.664,5.664,0,0,1-1.713,2.385,3.183,3.183,0,0,1-4.5-.232,3.2,3.2,0,0,1-.056-4.211,132.127,132.127,0,0,0-10.34-25.346c-1.8-3.375-3.974-6.879-6.272-10.586-6.307-10.182-13.461-21.719-14.8-34.311-1.9-17.848,3.439-35.213,14.663-47.641,11.98-13.271,29.694-20.275,51.249-20.275h.422c18.1.072,33.521,6.318,44.6,18.063,13.165,13.947,17.142,31.813,16.548,42.877-1.524,28.338-20.715,54.705-29.94,67.383-1.567,2.148-2.807,3.848-3.582,5.049a22.808,22.808,0,0,0-3.513,10.014,13.767,13.767,0,0,0,.021,1.484c.095,2.123.228,5.029-1.713,6.961a5.286,5.286,0,0,1-3.835,1.5c-.112,0-.229,0-.345-.008-1.481-.072-2.961-.064-4.529-.061l-7.882,0,0,.006-.039-.006-1.331.006a2.814,2.814,0,0,1-.426-.049c-1.619-.043-3.367-.1-5.192-.168-7.378-.262-22.695-.809-25.282.979a7.19,7.19,0,0,0-1.662,5.506,5.6,5.6,0,0,0,2.32,3.719c.392-.029.887-.072,1.477-.121,36.251-3,41.516-.895,43.6,1.3,2.759,2.906,3.061,7.654.775,12.1-2.032,3.951-5.269,6.125-8.459,5.682-15.17-2.123-31.188-1.666-33.6.955-.4.432-.379.625-.375.7.129,1.6,3.806,4.482,5.786,6.027.667.525,1.3,1.02,1.851,1.48,3.547,2.967,7.865,4.336,13.991,4.447a51.573,51.573,0,0,0,14.4-1.8,3.189,3.189,0,0,1,3.913,2.242,3.187,3.187,0,0,1-2.243,3.912,57.534,57.534,0,0,1-15.14,2.037C6775.318-16884.082,6774.969-16884.086,6774.621-16884.09Zm-94.129-168.549q-3.513-1.638-6.888-3.219c-11.572-5.42-22.5-10.539-34.542-15.494a3.189,3.189,0,0,1-1.735-4.162,3.19,3.19,0,0,1,4.167-1.734c12.174,5.01,23.173,10.158,34.817,15.613q3.377,1.582,6.875,3.211a3.193,3.193,0,0,1,1.545,4.24,3.189,3.189,0,0,1-2.893,1.842A3.177,3.177,0,0,1,6680.491-17052.639Zm167.191-15.721a3.187,3.187,0,0,1,1.348-4.3c4.339-2.277,11.528-7.186,19.854-12.867,4.765-3.254,10.168-6.943,15.743-10.619a3.191,3.191,0,0,1,4.417.908,3.187,3.187,0,0,1-.909,4.416c-5.527,3.65-10.908,7.318-15.652,10.564-8.842,6.035-15.825,10.8-20.5,13.246a3.146,3.146,0,0,1-1.477.365A3.188,3.188,0,0,1,6847.682-17068.359Zm-116.286-31.176c-2.4-5.428-4.495-10.361-6.522-15.135-3.319-7.811-6.453-15.187-10.155-22.885a3.185,3.185,0,0,1,1.49-4.258,3.185,3.185,0,0,1,4.257,1.49c3.767,7.834,6.931,15.277,10.28,23.158,2.019,4.754,4.107,9.666,6.483,15.055a3.182,3.182,0,0,1-1.627,4.2,3.169,3.169,0,0,1-1.287.275A3.188,3.188,0,0,1,6731.4-17099.535Zm69.794-1.467a3.193,3.193,0,0,1-1.847-4.117c6.122-16.035,12.183-30.111,19.656-45.631a3.185,3.185,0,0,1,4.258-1.488,3.192,3.192,0,0,1,1.489,4.256c-7.391,15.352-13.388,29.273-19.44,45.137a3.2,3.2,0,0,1-2.979,2.055A3.213,3.213,0,0,1,6801.19-17101Z" transform="translate(-6438.485 17327.473)" stroke="rgba(0,0,0,0)" stroke-width="1" fill="url(#linear-gradient)"/>
  </g>
</svg>
