<svg xmlns="http://www.w3.org/2000/svg" xmlns:xlink="http://www.w3.org/1999/xlink" width="158" height="158" viewBox="0 0 158 158">
  <defs>
    <linearGradient id="linear-gradient" x1="0.006" y1="0.994" x2="0.972" y2="0.029" gradientUnits="objectBoundingBox">
      <stop offset="0" stop-color="#003E5C"/>
      <stop offset="1" stop-color="#00AEC7"/>
    </linearGradient>
  </defs>
  <g id="Groupe_3653" data-name="Groupe 3653" transform="translate(-929 -1311.025)">
    <rect id="BD_2022_Livry_Gargan-76_0" data-name="BD_2022_Livry Gargan-76_0" width="158" height="158" rx="20" transform="translate(929 1311.025)" fill="url(#linear-gradient)"/>
    <g id="Groupe_3648" data-name="Groupe 3648" transform="translate(957.545 1348.046)">
      <path id="Tracé_36308" data-name="Tracé 36308" d="M783.52,187.932h-9.129a1.594,1.594,0,0,0-1.593,1.593v13.746a1.592,1.592,0,0,0,1.593,1.591h9.129a1.59,1.59,0,0,0,1.591-1.591V189.525A1.593,1.593,0,0,0,783.52,187.932Zm-1.59,13.746h-5.948V191.119h5.948Z" transform="translate(-765.397 -134.96)" fill="#fff"/>
      <path id="Tracé_36309" data-name="Tracé 36309" d="M802.013,190.4a6.021,6.021,0,0,0,6.012-5.875v-.279a6.013,6.013,0,1,0-6.012,6.154Zm0-8.99a2.976,2.976,0,1,1-2.977,2.977A2.979,2.979,0,0,1,802.013,181.407Z" transform="translate(-745.107 -143.322)" fill="#fff"/>
      <path id="Tracé_36310" data-name="Tracé 36310" d="M811.488,190.4a6.013,6.013,0,1,0-6.012-6.013A6.02,6.02,0,0,0,811.488,190.4Zm0-8.99a2.976,2.976,0,1,1-2.975,2.977A2.98,2.98,0,0,1,811.488,181.407Z" transform="translate(-736.82 -143.322)" fill="#fff"/>
      <path id="Tracé_36311" data-name="Tracé 36311" d="M795.482,197.362a5.868,5.868,0,0,0-2.5-.561,6.016,6.016,0,0,0-2.519.559c-3.01,1.395-3.457,4.78-3.247,6.563a1.518,1.518,0,0,0,3.014-.356c0-.026-.255-2.632,1.509-3.449a2.93,2.93,0,0,1,2.454-.008,2.839,2.839,0,0,1,1.561,2.328,2.945,2.945,0,0,1,.03.446v16.869a1.519,1.519,0,0,0,3.039,0V202.884a6.25,6.25,0,0,0-3.336-5.522Z" transform="translate(-752.831 -127.204)" fill="#fff"/>
      <path id="Tracé_36312" data-name="Tracé 36312" d="M822.329,197.36a6,6,0,0,0-2.519-.559,5.888,5.888,0,0,0-2.506.561,5.772,5.772,0,0,0-3.266,4.6,5.832,5.832,0,0,0-.069.92v16.869a1.518,1.518,0,0,0,3.037,0V202.884a2.727,2.727,0,0,1,.032-.446,2.837,2.837,0,0,1,1.56-2.328,2.934,2.934,0,0,1,2.456.008c1.747.81,1.511,3.387,1.505,3.457a1.518,1.518,0,0,0,3.016.349C825.784,202.141,825.338,198.754,822.329,197.36Z" transform="translate(-729.393 -127.204)" fill="#fff"/>
      <path id="Tracé_36313" data-name="Tracé 36313" d="M812.093,187.121a14.184,14.184,0,0,0-6.083-1.325c-.39,0-.675.015-.815.024a15.98,15.98,0,0,0-4.651.57q-.455.129-.86.281a8.5,8.5,0,0,0-5.421,6.707l-1.934,10.666a1.518,1.518,0,1,0,2.988.542l1.942-10.709a5.5,5.5,0,0,1,3.483-4.36c.2-.073.412-.142.637-.206a13.85,13.85,0,0,1,3.846-.452,1.25,1.25,0,0,0,.165-.006,11.338,11.338,0,0,1,5.365,1,4.988,4.988,0,0,1,2.75,4.43l.247,13.6a.3.3,0,0,1-.064.152,1.2,1.2,0,0,1-.755.071,1.517,1.517,0,0,0-1.685,1.509v19.767a1.518,1.518,0,0,0,3.037,0V211.031a3.214,3.214,0,0,0,2.5-3.11l-.246-13.7A8.013,8.013,0,0,0,812.093,187.121Z" transform="translate(-748.34 -136.828)" fill="#fff"/>
      <path id="Tracé_36314" data-name="Tracé 36314" d="M821.937,205.7a1.518,1.518,0,0,0,1.222-1.766l-1.925-10.621a8.53,8.53,0,0,0-5.427-6.752c-.274-.1-.56-.195-.862-.281a26.309,26.309,0,0,0-5.6-.36q-.838,0-1.79.013a1.519,1.519,0,0,0,.023,3.039h.022a37.7,37.7,0,0,1,6.516.229c.223.064.435.133.639.208a5.511,5.511,0,0,1,3.486,4.4l1.935,10.666a1.518,1.518,0,0,0,1.492,1.248A1.534,1.534,0,0,0,821.937,205.7Z" transform="translate(-736.315 -136.719)" fill="#fff"/>
      <path id="Tracé_36315" data-name="Tracé 36315" d="M798.194,197.553h-2.853a1.518,1.518,0,1,0,0,3.037h1.335v18.505a1.519,1.519,0,0,0,3.039,0V199.071A1.52,1.52,0,0,0,798.194,197.553Z" transform="translate(-747.012 -126.546)" fill="#fff"/>
      <path id="Tracé_36316" data-name="Tracé 36316" d="M814.6,197.553h-2.853a1.519,1.519,0,0,0-1.518,1.518v20.024a1.518,1.518,0,0,0,3.037,0V200.59H814.6a1.518,1.518,0,1,0,0-3.037Z" transform="translate(-732.662 -126.546)" fill="#fff"/>
      <path id="Tracé_36317" data-name="Tracé 36317" d="M800.3,201.58a1.519,1.519,0,0,0-1.518,1.518v12.475a1.518,1.518,0,0,0,3.037,0V203.1A1.518,1.518,0,0,0,800.3,201.58Z" transform="translate(-742.676 -123.025)" fill="#fff"/>
      <path id="Tracé_36318" data-name="Tracé 36318" d="M808.12,201.58A1.519,1.519,0,0,0,806.6,203.1v12.475a1.518,1.518,0,0,0,3.037,0V203.1A1.518,1.518,0,0,0,808.12,201.58Z" transform="translate(-735.835 -123.025)" fill="#fff"/>
      <path id="Tracé_36319" data-name="Tracé 36319" d="M869.99,187l-.017-.088-.495-.495-27.538-23.043a12.669,12.669,0,0,0-17.9,0L796.5,186.419h-.032c-.141.139-.268.287-.4.431l-.1.1,0,.008a12.59,12.59,0,0,0-3.252,8.443V200.8H780.343a11.505,11.505,0,0,0-11.493,11.495v38.947a1.591,1.591,0,1,0,3.181,0V212.291a8.322,8.322,0,0,1,8.312-8.31H792.72v47.1a1.752,1.752,0,1,0,3.5,0V195.4a9.1,9.1,0,0,1,2.632-6.4h.023l.013-.015,27.627-23.13a9.16,9.16,0,0,1,12.942,0l27.231,22.734-.092,0c.156.137.323.259.469.407a9.109,9.109,0,0,1,2.63,6.4v55.675a1.753,1.753,0,0,0,3.505,0V195.4A12.6,12.6,0,0,0,869.99,187Z" transform="translate(-768.85 -159.673)" fill="#fff"/>
    </g>
  </g>
</svg>
