<svg width="459" height="459" viewBox="0 0 459 459" fill="none" xmlns="http://www.w3.org/2000/svg">
<g filter="url(#filter0_d_298_734)">
<circle cx="229.112" cy="229.888" r="211.112" fill="white"/>
</g>
<g clip-path="url(#clip0_298_734)">
<path d="M178.831 100.252H136.986V118.687H178.831V100.252Z" fill="#E8505B"/>
<g opacity="0.7">
<path d="M178.831 100.252H136.986V118.687H178.831V100.252Z" fill="#FF9BD0"/>
</g>
<path d="M193.817 100.252H151.973V118.687H193.817V100.252Z" fill="#FFBDE0"/>
<path d="M180.244 117.815H104.094V346.908H180.244V117.815Z" fill="#FFBDE0"/>
<g opacity="0.7">
<path d="M132.92 117.815H104.094V346.908H132.92V117.815Z" fill="#FF9BD0"/>
</g>
<path d="M229.301 117.815H153.15V346.908H229.301V117.815Z" fill="#FFBDE0"/>
<path d="M172.378 133.787H146.736V198.86H172.378V133.787Z" fill="#FAFAFA"/>
<path d="M218.638 133.787H192.996V198.86H218.638V133.787Z" fill="#FAFAFA"/>
<path d="M172.378 213.016H146.736V278.088H172.378V213.016Z" fill="#FAFAFA"/>
<path d="M159.832 277.59C159.726 277.59 159.635 266.155 159.635 252.049C159.635 237.943 159.726 226.508 159.832 226.508C159.939 226.508 160.03 237.943 160.03 252.049C160.03 266.155 159.962 277.59 159.832 277.59Z" fill="#263238"/>
<path d="M218.638 213.016H192.996V278.088H218.638V213.016Z" fill="#FAFAFA"/>
<path d="M183.39 346.908C183.384 346.823 183.384 346.737 183.39 346.651C183.39 346.46 183.39 346.211 183.39 345.896C183.39 345.225 183.39 344.238 183.39 343.011C183.39 340.523 183.39 336.833 183.337 332.23C183.337 323.034 183.284 310.089 183.246 294.996L183.436 295.203H160.636C160.583 295.203 161.009 294.805 160.826 294.996V309.716C160.826 314.467 160.826 319.061 160.826 323.448C160.826 332.222 160.826 340.174 160.826 346.941L160.682 346.784L177.303 346.875H181.863H183.056H183.474C183.345 346.882 183.215 346.882 183.086 346.875H181.916L177.402 346.916L160.682 347.008H160.538V346.842C160.538 340.075 160.538 332.122 160.538 323.349C160.538 318.962 160.538 314.368 160.538 309.616C160.538 307.244 160.538 304.831 160.538 302.377V294.913C160.363 295.104 160.773 294.64 160.743 294.689H183.702V294.897C183.702 310.039 183.634 323.034 183.611 332.263C183.611 336.841 183.611 340.473 183.565 342.994C183.565 344.221 183.565 345.175 183.565 345.838C183.565 346.145 183.565 346.386 183.565 346.568C183.516 346.687 183.458 346.801 183.39 346.908Z" fill="#263238"/>
<path d="M206.168 346.908C206.168 346.908 206.168 346.817 206.168 346.651C206.168 346.485 206.168 346.212 206.168 345.897C206.168 345.225 206.168 344.238 206.168 343.011C206.168 340.523 206.168 336.833 206.115 332.23C206.115 323.034 206.061 310.089 206.023 294.996L206.213 295.204H183.414L183.612 294.996V302.46C183.612 304.914 183.612 307.328 183.612 309.699C183.612 314.451 183.612 319.045 183.612 323.432C183.612 332.205 183.612 340.158 183.612 346.925L183.467 346.767L200.08 346.859H204.64H205.833H206.251C206.122 346.866 205.993 346.866 205.864 346.859H204.701L200.179 346.9L183.46 346.991H183.315V346.825C183.315 340.059 183.315 332.106 183.27 323.332C183.27 318.946 183.27 314.351 183.27 309.6V295.013L183.467 294.789H206.434V294.996C206.396 310.139 206.365 323.133 206.343 332.363C206.343 336.941 206.305 340.573 206.289 343.094C206.289 344.321 206.289 345.275 206.289 345.938V346.668C206.258 346.753 206.217 346.834 206.168 346.908Z" fill="#263238"/>
<path d="M186.377 320.09C186.377 320.09 186.673 319.758 187.228 320.007C187.39 320.086 187.529 320.212 187.63 320.371C187.73 320.531 187.789 320.717 187.798 320.91C187.81 321.151 187.752 321.39 187.631 321.593C187.511 321.795 187.336 321.951 187.129 322.038C186.916 322.111 186.686 322.105 186.476 322.021C186.266 321.937 186.087 321.78 185.967 321.574C185.89 321.437 185.847 321.281 185.841 321.12C185.834 320.96 185.865 320.8 185.93 320.657C185.995 320.513 186.093 320.389 186.213 320.297C186.334 320.205 186.474 320.148 186.62 320.131C186.78 320.131 186.856 320.181 186.856 320.206C186.856 320.23 186.506 320.206 186.271 320.653C186.206 320.756 186.171 320.877 186.171 321.002C186.171 321.126 186.206 321.248 186.271 321.35C186.355 321.477 186.473 321.573 186.609 321.624C186.746 321.674 186.893 321.677 187.031 321.632C187.159 321.572 187.268 321.473 187.345 321.346C187.422 321.219 187.463 321.071 187.464 320.919C187.463 320.789 187.43 320.662 187.37 320.55C187.31 320.438 187.225 320.345 187.122 320.28C186.711 320.023 186.392 320.156 186.377 320.09Z" fill="#263238"/>
<path d="M178.338 320.09C178.292 320.09 178.634 319.758 179.181 320.007C179.345 320.082 179.486 320.208 179.587 320.368C179.688 320.528 179.745 320.716 179.751 320.91C179.764 321.152 179.706 321.391 179.586 321.594C179.466 321.797 179.29 321.952 179.083 322.038C178.87 322.11 178.642 322.104 178.433 322.02C178.224 321.936 178.046 321.779 177.927 321.574C177.829 321.406 177.783 321.209 177.795 321.01C177.807 320.812 177.878 320.623 177.996 320.471C178.068 320.375 178.157 320.295 178.257 320.237C178.358 320.179 178.468 320.142 178.581 320.131C178.741 320.131 178.817 320.181 178.809 320.206C178.801 320.23 178.467 320.206 178.224 320.653C178.157 320.755 178.121 320.877 178.121 321.002C178.121 321.127 178.157 321.248 178.224 321.35C178.306 321.48 178.424 321.578 178.561 321.629C178.698 321.68 178.846 321.681 178.984 321.632C179.113 321.574 179.223 321.475 179.301 321.348C179.378 321.221 179.418 321.071 179.417 320.919C179.419 320.789 179.389 320.662 179.33 320.55C179.271 320.437 179.186 320.344 179.083 320.28C178.672 320.023 178.353 320.156 178.338 320.09Z" fill="#263238"/>
<path d="M341.642 90.79H286.141V346.892H341.642V90.79Z" fill="#236FE0"/>
<path d="M313.356 108.743H296.484V144.211H313.356V108.743Z" fill="#E0E0E0"/>
<path d="M365.249 90.79H324.811V346.892H365.249V90.79Z" fill="#236FE0"/>
<path d="M353.225 108.743H336.354V144.211H353.225V108.743Z" fill="#E0E0E0"/>
<path d="M353.225 152.38H336.354V187.848H353.225V152.38Z" fill="#E0E0E0"/>
<path d="M353.307 177.39C353.307 177.507 349.507 177.606 344.803 177.606C340.099 177.606 336.299 177.507 336.299 177.39C336.299 177.274 340.099 177.175 344.803 177.175C349.507 177.175 353.307 177.274 353.307 177.39Z" fill="#E8505B"/>
<path d="M305.399 142.13H277.561V186.031H305.399V142.13Z" fill="#2D4257"/>
<path d="M330.44 142.13H302.602V186.031H330.44V142.13Z" fill="#38516B"/>
<path d="M359.091 177.166H243.664V346.925H359.091V177.166Z" fill="#38516B"/>
<path d="M289.895 177.166H227.986V346.925H289.895V177.166Z" fill="#2D4257"/>
<path d="M350.626 269.272H329.514V292.309H350.626V269.272Z" fill="#EBEBEB"/>
<path d="M320.515 269.272H299.402V292.309H320.515V269.272Z" fill="#EBEBEB"/>
<path d="M350.626 232.885H329.514V255.922H350.626V232.885Z" fill="#EBEBEB"/>
<path d="M320.515 232.885H299.402V255.922H320.515V232.885Z" fill="#EBEBEB"/>
<path d="M350.626 196.405H329.514V219.442H350.626V196.405Z" fill="#EBEBEB"/>
<path d="M320.515 196.405H299.402V219.442H320.515V196.405Z" fill="#EBEBEB"/>
<g opacity="0.7">
<path d="M268.683 196.405H247.57V219.442H268.683V196.405Z" fill="white"/>
</g>
<g opacity="0.7">
<path d="M268.683 233.241H247.57V256.278H268.683V233.241Z" fill="white"/>
</g>
<g opacity="0.7">
<path d="M268.683 270.077H247.57V293.114H268.683V270.077Z" fill="white"/>
</g>
<path d="M185.696 266.038H153.389V346.925H185.696V266.038Z" fill="#FFBDE0"/>
<path d="M145.834 265.707H225.541L240.429 242.637L256.039 266.362L274.385 266.047L254.611 236.989L170.328 237.371L145.834 265.707Z" fill="#236FE0"/>
<path d="M185.695 266.047V346.925H265.288V266.047H256.161L240.429 242.637L225.488 265.69L185.695 266.047Z" fill="#FFBDE0"/>
<path d="M256.041 271.196H226.713V291.016H256.041V271.196Z" fill="white"/>
<path d="M213.617 271.379H195.119V290.485H213.617V271.379Z" fill="white"/>
<path d="M244.321 258.077C244.323 258.925 244.093 259.755 243.663 260.461C243.232 261.167 242.619 261.718 241.901 262.044C241.183 262.369 240.393 262.456 239.63 262.291C238.867 262.127 238.167 261.719 237.616 261.12C237.066 260.52 236.691 259.756 236.539 258.925C236.387 258.093 236.464 257.23 236.761 256.446C237.058 255.662 237.562 254.992 238.208 254.521C238.855 254.05 239.615 253.798 240.392 253.798C241.433 253.798 242.431 254.248 243.168 255.051C243.904 255.853 244.319 256.941 244.321 258.077Z" fill="white"/>
<path d="M212.407 252.828L217.362 246.169V230.147H206.996V252.952L212.407 252.828Z" fill="#FFBDE0"/>
<path d="M218.064 227.784H205.844V230.139H218.064V227.784Z" fill="#FFBDE0"/>
<path d="M145.834 265.706V268.053H225.488V265.689L145.834 265.706Z" fill="#236FE0"/>
<path d="M225.488 268.054L240.384 245.232L240.43 242.637L225.541 265.707L225.488 268.054Z" fill="#236FE0"/>
<path d="M274.005 266.038H256.16V267.547H274.005V266.038Z" fill="#236FE0"/>
<path d="M256.041 310.942H226.713V330.762H256.041V310.942Z" fill="white"/>
<path d="M131.904 139.194H119.919L77.0254 184.48V346.925H105.046L131.904 139.194Z" fill="#2D4257"/>
<path d="M159.695 346.834V184.481L131.834 144.146L105.045 184.481V346.926H159.695" fill="#38516B"/>
<path d="M131.044 248.633H114.172V284.1H131.044V248.633Z" fill="#E0E0E0"/>
<path d="M152.872 248.633H136V284.1H152.872V248.633Z" fill="#E0E0E0"/>
<path d="M131.044 198.13H114.172V233.598H131.044V198.13Z" fill="#E0E0E0"/>
<path d="M152.872 198.13H136V233.598H152.872V198.13Z" fill="#E0E0E0"/>
<path d="M139.71 182.691C142.934 178.643 142.54 172.51 138.83 168.992C135.12 165.474 129.499 165.904 126.275 169.952C123.051 174.001 123.445 180.134 127.155 183.652C130.865 187.17 136.486 186.74 139.71 182.691Z" fill="#E0E0E0"/>
<path d="M105.046 184.48H100.76L131.904 139.194L163.041 184.48H159.697L131.836 144.145L105.046 184.48Z" fill="#2D4257"/>
<path d="M91.7531 184.48H70.7852L103.1 139.194H131.903L91.7531 184.48Z" fill="#2D4257"/>
<path d="M106.595 184.498C106.595 184.614 98.6226 184.663 88.7808 184.605C78.939 184.547 70.9668 184.39 70.9668 184.274C70.9668 184.158 78.9466 184.099 88.7808 184.158C98.615 184.216 106.595 184.357 106.595 184.498Z" fill="#455A64"/>
<path d="M121.203 303.911H144.003V347.033H121.203V303.911Z" fill="#D9D9D9"/>
<path d="M192.641 303.911H215.44V347.033H192.641V303.911Z" fill="white"/>
<path d="M313.479 303.911H336.278V347.033H313.479V303.911Z" fill="white"/>
</g>
<defs>
<filter id="filter0_d_298_734" x="0" y="0.775391" width="458.225" height="458.225" filterUnits="userSpaceOnUse" color-interpolation-filters="sRGB">
<feFlood flood-opacity="0" result="BackgroundImageFix"/>
<feColorMatrix in="SourceAlpha" type="matrix" values="0 0 0 0 0 0 0 0 0 0 0 0 0 0 0 0 0 0 127 0" result="hardAlpha"/>
<feOffset/>
<feGaussianBlur stdDeviation="9"/>
<feComposite in2="hardAlpha" operator="out"/>
<feColorMatrix type="matrix" values="0 0 0 0 0 0 0 0 0 0 0 0 0 0 0 0 0 0 0.08 0"/>
<feBlend mode="normal" in2="BackgroundImageFix" result="effect1_dropShadow_298_734"/>
<feBlend mode="normal" in="SourceGraphic" in2="effect1_dropShadow_298_734" result="shape"/>
</filter>
<clipPath id="clip0_298_734">
<rect width="294.965" height="256.491" fill="white" transform="translate(70.2832 90.79)"/>
</clipPath>
</defs>
</svg>
