<svg width="526" height="503" viewBox="0 0 526 503" fill="none" xmlns="http://www.w3.org/2000/svg">
<path d="M110.033 383.369L194.615 18.1162L480.668 92.9535L386.045 432.415L110.033 383.369Z" fill="#1DD6C9"/>
<g filter="url(#filter0_d_722_343)">
<path d="M212.901 6.20044L503.437 75.5583L524.865 120.206L433.869 499.243L112.927 422.623L212.901 6.20044Z" fill="white"/>
</g>
<path d="M503.437 75.558L524.865 120.206L503.555 208.991C465.183 124.637 386.11 67.2078 310.916 29.5991L503.437 75.558Z" fill="#F2F2F2"/>
<path d="M524.865 120.206L487.189 103.427L503.437 75.5583L524.865 120.206Z" fill="white"/>
<path d="M232.537 86.0001L339.371 111.478L310.834 230.465L204 204.988L232.537 86.0001Z" fill="#4DB5AE"/>
<path d="M247.252 179.313L253.483 179.248L261.121 181.437L262.462 187.27L266.234 182.63L274.056 184.032L279.617 186.851L297.863 202.804L292.539 225.548L269.994 220.291L241.034 213.553L218.489 208.297L223.813 185.566L247.252 179.313Z" fill="#3E3D5E"/>
<path d="M264.011 218.901L245.357 214.563L245.042 181.686L262.092 185.658L262.46 187.27L263.499 185.986L280.154 189.866L264.011 218.901Z" fill="#E8E7F7"/>
<path d="M266.201 200.79L263.877 197.06C263.083 195.787 261.816 194.881 260.352 194.54C258.889 194.199 257.35 194.452 256.074 195.243L252.333 197.561L257.649 206.09L266.201 200.79Z" fill="#3E3D5E"/>
<path d="M249.42 215.506L258.635 201.913L260.857 218.167L249.42 215.506Z" fill="#3E3D5E"/>
<path d="M248.356 184.622C247.396 188.751 252.812 193.562 260.476 195.345C268.14 197.128 275.121 195.214 276.093 191.072C277.066 186.929 271.637 182.131 263.973 180.349C256.309 178.566 249.328 180.48 248.356 184.622Z" fill="#EDB29A"/>
<path d="M276.081 174.345L273.662 184.688C273.352 186.036 272.778 187.311 271.972 188.437C271.167 189.564 270.145 190.52 268.967 191.251C267.789 191.982 266.478 192.473 265.109 192.697C263.739 192.92 262.339 192.871 260.989 192.553C259.638 192.244 258.361 191.672 257.233 190.869C256.104 190.067 255.146 189.05 254.413 187.877C253.68 186.704 253.187 185.397 252.962 184.034C252.737 182.67 252.784 181.275 253.102 179.929L255.494 169.573L276.081 174.345Z" fill="#EDB29A"/>
<path d="M275.068 178.671C266.234 183.338 258.767 184.373 252.97 183.914C252.767 182.584 252.821 181.227 253.128 179.916L255.494 169.573L276.081 174.345L275.068 178.671Z" fill="#D88D87"/>
<path d="M247.79 142.884C243.846 159.925 250.485 175.918 264.616 179.208C278.748 182.498 291.881 171.042 295.851 154.066C299.821 137.09 291.684 127.285 277.552 123.995C263.42 120.704 251.76 125.843 247.79 142.884Z" fill="#EDB29A"/>
<path d="M252.102 132.397C257.728 123.89 266.93 121.57 277.552 124.047C286.925 126.223 293.642 131.27 295.956 139.371C273.713 152.506 259.437 141.573 252.102 132.397Z" fill="#D88D87"/>
<path d="M298.388 152.716C298.388 152.716 300.938 140.013 295.272 133.616L284.584 136.54L294.049 142.727V154.04L298.388 152.716Z" fill="#3E3D5E"/>
<path d="M247.54 140.879C247.54 140.879 250.892 128.36 258.819 125.148L267.101 132.476L255.861 133.787L250.813 143.92L247.54 140.879Z" fill="#3E3D5E"/>
<path d="M277.302 152.06C277.162 152.659 277.204 153.285 277.421 153.86C277.638 154.434 278.021 154.932 278.522 155.29C279.022 155.648 279.618 155.849 280.234 155.87C280.849 155.89 281.457 155.728 281.98 155.404C282.504 155.08 282.919 154.608 283.173 154.049C283.428 153.49 283.511 152.868 283.411 152.262C283.311 151.656 283.034 151.093 282.613 150.644C282.193 150.195 281.648 149.881 281.049 149.74C280.65 149.647 280.237 149.633 279.832 149.699C279.428 149.765 279.041 149.91 278.693 150.126C278.345 150.341 278.043 150.623 277.804 150.955C277.566 151.287 277.395 151.663 277.302 152.06Z" fill="#34344F"/>
<path d="M259.135 147.892C258.995 148.49 259.036 149.116 259.253 149.691C259.47 150.266 259.853 150.763 260.354 151.121C260.855 151.479 261.451 151.681 262.066 151.701C262.682 151.721 263.29 151.559 263.813 151.235C264.336 150.911 264.751 150.44 265.006 149.88C265.261 149.321 265.343 148.699 265.244 148.093C265.144 147.487 264.866 146.924 264.446 146.475C264.025 146.026 263.481 145.712 262.881 145.571C262.482 145.478 262.069 145.464 261.665 145.53C261.261 145.596 260.873 145.741 260.525 145.957C260.177 146.172 259.875 146.454 259.637 146.786C259.398 147.118 259.228 147.494 259.135 147.892Z" fill="#34344F"/>
<path d="M270.309 146.646L270.848 154.892L275.699 155.665C275.699 155.665 274.621 160.266 270.257 160.266L273.215 156.937L268.85 156.609L270.309 146.646Z" fill="#D88D87"/>
<path d="M252.154 148.128C251.812 152.978 248.894 156.793 245.581 156.662C242.268 156.53 239.941 152.493 240.323 147.643C240.704 142.793 243.57 138.978 246.83 139.122C250.09 139.266 252.483 143.278 252.154 148.128Z" fill="#EDB29A"/>
<path d="M248.736 147.826C249.206 147.859 249.659 148.013 250.051 148.272C250.051 148.193 250.051 148.115 250.051 148.036C250.261 144.837 248.736 142.163 246.541 142.085C244.346 142.006 242.453 144.51 242.229 147.708C242.088 148.731 242.209 149.772 242.581 150.735C242.954 151.698 243.565 152.551 244.359 153.214C244.753 150.133 246.633 147.734 248.736 147.826Z" fill="#D88D87"/>
<path d="M290.304 157.002C288.45 161.499 289.37 166.178 292.354 167.489C295.339 168.8 299.269 166.178 301.123 161.748C302.976 157.317 302.056 152.572 299.072 151.261C296.088 149.95 292.157 152.519 290.304 157.002Z" fill="#EDB29A"/>
<path d="M293.498 158.248C293.044 158.048 292.544 157.975 292.052 158.038C292.052 158.038 292.052 157.894 292.144 157.815C293.367 154.853 295.956 153.148 297.928 154.027C299.9 154.905 300.557 157.959 299.243 160.974C298.915 161.943 298.344 162.813 297.585 163.501C296.826 164.189 295.903 164.673 294.905 164.907C296.048 162.075 295.431 159.1 293.498 158.248Z" fill="#D88D87"/>
<path d="M261.396 160.791C266.33 162.971 271.7 163.993 277.092 163.78C276.245 165.486 274.848 166.858 273.124 167.676C271.4 168.494 269.45 168.71 267.588 168.289C265.793 168.059 264.153 167.156 263.003 165.763C261.852 164.37 261.278 162.592 261.396 160.791Z" fill="#34344F"/>
<path d="M275.514 165.956L275.278 164.972L276.106 163.806C271.283 163.847 266.5 162.924 262.04 161.092L262.605 162.941L261.869 163.845C262.336 165.028 263.113 166.065 264.119 166.846C265.125 167.628 266.323 168.126 267.587 168.289C268.997 168.639 270.475 168.607 271.869 168.197C273.262 167.786 274.521 167.013 275.514 165.956Z" fill="#FBF2EB"/>
<path d="M262.302 163.307C263.998 164.421 265.911 165.162 267.915 165.484C272.28 166.414 274.488 165.733 275.356 165.313L275.277 164.972C269.572 166.401 262.604 162.94 262.604 162.94L262.302 163.307Z" fill="#DACEEA"/>
<path d="M285.886 147.984C283.368 146.201 280.454 145.054 277.394 144.641L278.893 141.18C278.893 141.18 284.151 143.081 286.938 146.188L285.886 147.984Z" fill="#3E3D5E"/>
<path d="M259.53 141.836C262.58 141.353 265.701 141.614 268.627 142.596L268.824 138.834C268.824 138.834 263.264 138.218 259.386 139.764L259.53 141.836Z" fill="#3E3D5E"/>
<path d="M254.27 128.281C254.27 128.281 266.995 138.44 283.362 139.292C299.728 140.145 303.146 133.918 303.081 132.03C303.015 130.143 300.451 128.819 298.374 129.566C298.374 129.566 304.053 122.776 300.57 118.253C297.086 113.731 289.869 115.71 286.819 120.442C286.819 120.442 289.291 116.575 286.951 115.055C284.611 113.534 281.429 114.727 280.102 118.581C280.128 118.581 257.951 112.262 254.27 128.281Z" fill="#4C4C72"/>
<path d="M254.889 126.21C271.821 132.371 277.855 124.296 279.984 118.542C277.325 117.871 274.602 117.48 271.86 117.375C269.599 121.517 265.077 126.053 256.545 123.117C255.854 124.067 255.296 125.108 254.889 126.21Z" fill="#60608C"/>
<path d="M245.042 181.686L250.984 178.107L253.442 178.959L260.659 194.048L273.831 183.705L276.408 184.033L280.154 189.866L267.968 205.36L260.225 195.896L249.091 200.956L245.042 181.686Z" fill="#F6F4FF"/>
<path d="M361.045 118.662L484.985 148.219L480.5 166.922L356.559 137.365L361.045 118.662Z" fill="#1DD6C9"/>
<path d="M352.304 152.837L476.245 182.395L474.863 188.157L350.922 158.6L352.304 152.837Z" fill="#1DD6C9"/>
<path d="M347.937 171.794L471.877 201.351L470.495 207.114L346.555 177.556L347.937 171.794Z" fill="#1DD6C9"/>
<path d="M343.583 190.751L467.523 220.308L466.141 226.07L342.201 196.513L343.583 190.751Z" fill="#1DD6C9"/>
<path d="M339.212 209.72L463.153 239.277L461.771 245.04L337.83 215.483L339.212 209.72Z" fill="#1DD6C9"/>
<path d="M334.845 228.677L458.785 258.234L457.403 263.996L333.462 234.439L334.845 228.677Z" fill="#1DD6C9"/>
<path d="M193.944 235.392L296.85 259.499L292.367 278.192L189.461 254.098L193.944 235.392Z" fill="#AEAED6"/>
<path d="M185.215 269.593L288.121 293.686L286.753 299.441L183.835 275.347L185.215 269.593Z" fill="#F2F2F2"/>
<path d="M180.851 288.548L283.77 312.641L282.389 318.409L179.47 294.302L180.851 288.548Z" fill="#F2F2F2"/>
<path d="M176.486 307.503L279.405 331.609L278.011 337.364L175.106 313.27L176.486 307.503Z" fill="#F2F2F2"/>
<path d="M172.122 326.471L275.041 350.565L273.66 356.319L170.741 332.226L172.122 326.471Z" fill="#F2F2F2"/>
<path d="M167.757 345.426L270.676 369.52L269.295 375.288L166.377 351.194L167.757 345.426Z" fill="#F2F2F2"/>
<path d="M417.513 279.66L446.618 287.015L439.243 316.038L410.138 308.683L417.513 279.66Z" fill="white"/>
<path d="M439.246 319.313C439.977 319.312 440.687 319.068 441.263 318.619C441.839 318.17 442.249 317.543 442.428 316.836L449.802 287.813C450.002 286.978 449.864 286.097 449.419 285.362C448.974 284.626 448.257 284.095 447.423 283.881L418.331 276.527C417.483 276.316 416.585 276.448 415.834 276.894C415.463 277.113 415.14 277.403 414.883 277.747C414.626 278.091 414.44 278.483 414.335 278.899L406.96 307.922C406.761 308.758 406.898 309.638 407.343 310.374C407.788 311.109 408.505 311.641 409.339 311.855L438.444 319.209C438.706 319.276 438.976 319.311 439.246 319.313ZM442.625 289.386L436.906 312.051L414.177 306.31L419.935 283.645L442.625 289.386Z" fill="#1DD6C9"/>
<path d="M405.028 288.692C405.834 288.699 406.616 288.41 407.223 287.88C407.83 287.35 408.22 286.616 408.319 285.817C408.418 285.019 408.219 284.212 407.76 283.55C407.301 282.888 406.614 282.418 405.829 282.229L331.74 263.563C331.314 263.432 330.866 263.389 330.423 263.436C329.981 263.484 329.552 263.62 329.164 263.838C328.775 264.055 328.436 264.349 328.165 264.701C327.894 265.054 327.698 265.457 327.588 265.888C327.478 266.318 327.457 266.766 327.527 267.205C327.596 267.643 327.754 268.064 327.991 268.439C328.228 268.815 328.539 269.139 328.906 269.392C329.272 269.644 329.686 269.819 330.123 269.907L404.16 288.587C404.444 288.658 404.735 288.694 405.028 288.692Z" fill="#1DD6C9"/>
<path d="M402.582 298.287C403.38 298.282 404.148 297.987 404.744 297.459C405.34 296.93 405.723 296.203 405.821 295.414C405.919 294.624 405.726 293.826 405.278 293.168C404.829 292.51 404.156 292.038 403.384 291.838L338.693 275.518C337.848 275.306 336.953 275.437 336.204 275.883C335.456 276.33 334.916 277.054 334.704 277.897C334.491 278.74 334.623 279.633 335.07 280.379C335.518 281.125 336.244 281.663 337.09 281.875L401.767 298.196C402.034 298.258 402.308 298.289 402.582 298.287Z" fill="#1DD6C9"/>
<path d="M424.062 305.877L432.936 299.323C433.213 299.117 433.446 298.859 433.623 298.563C433.8 298.268 433.917 297.94 433.967 297.599C434.017 297.258 434 296.911 433.915 296.577C433.831 296.243 433.681 295.929 433.475 295.653C433.268 295.376 433.009 295.143 432.713 294.967C432.416 294.79 432.088 294.674 431.746 294.624C431.404 294.574 431.056 294.591 430.721 294.676C430.386 294.76 430.071 294.909 429.794 295.115L425.85 298.091L406.946 263.484C406.774 263.182 406.543 262.917 406.268 262.703C405.992 262.49 405.677 262.333 405.341 262.241C405.005 262.149 404.653 262.124 404.307 262.168C403.962 262.211 403.628 262.322 403.325 262.494C403.022 262.666 402.756 262.896 402.542 263.171C402.328 263.446 402.17 263.76 402.078 264.095C401.986 264.43 401.961 264.78 402.005 265.125C402.048 265.47 402.159 265.804 402.332 266.106L424.062 305.877Z" fill="#38516B"/>
<path d="M404.286 335.594L433.391 342.948L426.015 371.971L396.91 364.617L404.286 335.594Z" fill="white"/>
<path d="M426.008 375.235C426.737 375.235 427.446 374.992 428.022 374.546C428.598 374.1 429.008 373.475 429.189 372.771L436.564 343.748C436.763 342.913 436.626 342.032 436.181 341.297C435.736 340.561 435.019 340.029 434.185 339.816L405.08 332.462C404.236 332.251 403.342 332.383 402.595 332.829C401.848 333.275 401.306 333.995 401.083 334.834L393.709 363.857C393.509 364.693 393.647 365.573 394.092 366.308C394.537 367.044 395.254 367.576 396.088 367.789L425.193 375.143C425.46 375.206 425.734 375.237 426.008 375.235ZM429.386 345.308L423.629 367.986L400.886 362.231L406.67 339.514L429.386 345.308Z" fill="#1DD6C9"/>
<path d="M391.776 344.627C392.583 344.634 393.364 344.345 393.971 343.815C394.579 343.285 394.969 342.551 395.068 341.752C395.167 340.953 394.968 340.146 394.509 339.485C394.05 338.823 393.362 338.353 392.578 338.164L318.593 319.484C317.748 319.27 316.852 319.4 316.102 319.845C315.353 320.29 314.811 321.014 314.597 321.857C314.382 322.7 314.513 323.593 314.959 324.341C315.405 325.088 316.131 325.628 316.976 325.842L391.014 344.522C391.263 344.586 391.519 344.621 391.776 344.627Z" fill="#1DD6C9"/>
<path d="M389.344 354.222C390.142 354.217 390.911 353.922 391.507 353.393C392.103 352.864 392.485 352.138 392.583 351.348C392.682 350.559 392.488 349.761 392.04 349.103C391.592 348.445 390.919 347.972 390.146 347.773L325.456 331.452C325.03 331.322 324.582 331.279 324.14 331.326C323.697 331.373 323.268 331.51 322.88 331.727C322.492 331.945 322.152 332.238 321.881 332.591C321.61 332.943 321.414 333.347 321.304 333.777C321.194 334.208 321.174 334.656 321.243 335.094C321.312 335.533 321.47 335.953 321.707 336.329C321.944 336.705 322.255 337.029 322.622 337.281C322.988 337.534 323.402 337.709 323.839 337.797L388.529 354.117C388.795 354.191 389.069 354.226 389.344 354.222Z" fill="#1DD6C9"/>
<path d="M410.824 361.799L419.685 355.244C419.962 355.039 420.195 354.781 420.372 354.485C420.549 354.189 420.666 353.861 420.716 353.521C420.766 353.18 420.749 352.832 420.664 352.498C420.58 352.164 420.43 351.85 420.224 351.574C420.017 351.298 419.758 351.065 419.462 350.888C419.165 350.712 418.837 350.595 418.495 350.545C418.153 350.495 417.805 350.513 417.47 350.597C417.135 350.682 416.82 350.831 416.543 351.037L412.599 354.012L393.761 319.484C393.596 319.181 393.373 318.913 393.104 318.696C392.836 318.479 392.527 318.317 392.196 318.219C391.864 318.121 391.517 318.089 391.173 318.125C390.829 318.161 390.496 318.264 390.192 318.429C389.888 318.593 389.62 318.816 389.402 319.084C389.184 319.351 389.022 319.659 388.924 319.99C388.825 320.32 388.793 320.667 388.829 321.01C388.865 321.352 388.969 321.685 389.134 321.988L410.824 361.799Z" fill="#38516B"/>
<path d="M391.043 391.527L420.148 398.882L412.772 427.904L383.667 420.55L391.043 391.527Z" fill="white"/>
<path d="M412.757 431.17C413.482 431.154 414.182 430.898 414.746 430.443C415.31 429.987 415.706 429.357 415.872 428.653L423.247 399.643C423.447 398.809 423.311 397.931 422.869 397.196C422.426 396.46 421.713 395.927 420.881 395.711L391.776 388.357C390.937 388.151 390.051 388.285 389.312 388.73C388.572 389.175 388.04 389.894 387.832 390.729L380.457 419.739C380.258 420.575 380.395 421.455 380.84 422.19C381.285 422.926 382.002 423.458 382.837 423.672L411.928 431.065C412.198 431.141 412.477 431.176 412.757 431.17ZM416.135 401.243L410.377 423.907L387.648 418.166L393.406 395.501L416.135 401.243Z" fill="#1DD6C9"/>
<path d="M378.539 400.548C379.337 400.542 380.105 400.248 380.701 399.719C381.297 399.19 381.68 398.463 381.778 397.674C381.876 396.885 381.683 396.087 381.235 395.429C380.786 394.771 380.113 394.298 379.341 394.098L305.304 375.419C304.885 375.314 304.45 375.292 304.023 375.355C303.596 375.417 303.185 375.563 302.815 375.784C302.444 376.005 302.121 376.297 301.864 376.642C301.606 376.988 301.419 377.38 301.314 377.798C301.209 378.215 301.187 378.649 301.25 379.075C301.313 379.501 301.459 379.91 301.681 380.28C301.902 380.649 302.195 380.972 302.541 381.228C302.888 381.485 303.281 381.671 303.7 381.776L377.751 400.456C378.009 400.516 378.274 400.547 378.539 400.548Z" fill="#1DD6C9"/>
<path d="M376.093 410.157C376.9 410.164 377.682 409.875 378.289 409.345C378.896 408.815 379.286 408.081 379.385 407.282C379.484 406.483 379.285 405.676 378.826 405.015C378.367 404.353 377.68 403.883 376.895 403.694L312.218 387.374C311.372 387.16 310.476 387.29 309.727 387.735C308.977 388.18 308.436 388.903 308.222 389.747C308.007 390.59 308.137 391.483 308.584 392.23C309.03 392.978 309.755 393.518 310.601 393.732L375.292 410.052C375.554 410.119 375.823 410.154 376.093 410.157Z" fill="#1DD6C9"/>
<path d="M397.574 417.733L406.448 411.179C406.745 410.982 406.999 410.726 407.194 410.427C407.39 410.129 407.522 409.794 407.583 409.443C407.644 409.092 407.632 408.732 407.549 408.385C407.466 408.039 407.312 407.713 407.098 407.427C406.885 407.141 406.615 406.902 406.305 406.724C405.995 406.546 405.653 406.433 405.298 406.392C404.943 406.35 404.583 406.382 404.24 406.483C403.898 406.585 403.58 406.756 403.306 406.984L399.362 409.96L380.524 375.432C380.174 374.854 379.614 374.433 378.961 374.256C378.307 374.079 377.611 374.161 377.016 374.483C376.422 374.806 375.975 375.345 375.769 375.988C375.562 376.631 375.613 377.329 375.91 377.936L397.574 417.733Z" fill="#38516B"/>
<path d="M221.314 4.75833C222.511 2.96321 224.218 1.5653 226.217 0.743618C228.216 -0.0780595 230.415 -0.286091 232.533 0.146168C234.651 0.578427 236.591 1.6313 238.105 3.16993C239.62 4.70857 240.639 6.66292 241.032 8.78269L241.821 13.1085L239.021 12.44L238.403 9.28082C237.988 7.14368 236.74 5.25794 234.933 4.03736C233.125 2.82149 230.909 2.3692 228.768 2.77949C226.627 3.18978 224.736 4.42922 223.509 6.2265C222.893 7.11618 222.46 8.11861 222.234 9.17602C222.009 10.2334 221.995 11.3249 222.194 12.3876L227.282 38.6966L230.24 53.9944C230.501 55.334 231.284 56.5157 232.418 57.28C233.551 58.0444 234.943 58.3289 236.287 58.0712C237.63 57.811 238.815 57.03 239.582 55.8994C240.348 54.7689 240.634 53.3813 240.375 52.0412L235.025 24.3558L237.654 23.8576L243.004 51.5562C243.394 53.5795 242.962 55.6741 241.803 57.3799C240.645 59.0858 238.854 60.2632 236.826 60.6536C236.34 60.7427 235.847 60.7866 235.353 60.7847C233.545 60.7818 231.793 60.1529 230.398 59.0053C229.002 57.8577 228.05 56.2627 227.703 54.4926L224.482 37.7659L219.67 12.8595C219.393 11.4679 219.396 10.0353 219.678 8.64468C219.96 7.25408 220.516 5.93311 221.314 4.75833Z" fill="#445D78"/>
<g style="mix-blend-mode:multiply" opacity="0.14">
<path d="M351.168 365.836C332.894 378.737 311.575 386.684 289.296 388.902C267.017 391.119 244.543 387.529 224.073 378.485C203.603 369.44 185.839 355.251 172.52 337.305C159.201 319.359 150.783 298.272 148.091 276.108L169.019 188.987C179.565 173.281 193.447 160.079 209.68 150.319C225.913 140.559 244.1 134.478 262.953 132.509C281.805 130.539 300.861 132.729 318.771 138.923C336.68 145.116 353.004 155.162 366.585 168.349C380.167 181.535 390.673 197.539 397.36 215.225C404.047 232.912 406.751 251.849 405.28 270.694C403.808 289.54 398.198 307.831 388.847 324.273C379.496 340.715 366.632 354.905 351.168 365.836Z" fill="#7991A5"/>
</g>
<g filter="url(#filter1_d_722_343)">
<path d="M154.309 323.475L15.2717 398.91C8.80367 402.42 3.99596 408.352 1.90625 415.403C-0.183472 422.454 0.615958 430.045 4.12868 436.507C7.64139 442.969 13.5797 447.772 20.6371 449.86C27.6946 451.948 35.2932 451.15 41.7612 447.64C42.9848 446.962 44.1595 446.198 45.2767 445.356L171.271 349.73C174.437 347.347 176.582 343.855 177.275 339.956C177.968 336.058 177.158 332.041 175.008 328.715C172.857 325.389 169.526 322.999 165.684 322.027C161.841 321.055 157.773 321.572 154.297 323.475L154.309 323.475Z" fill="#445D78"/>
</g>
<path d="M103.614 369.408L20.5426 418.838" stroke="#ECF0F2" stroke-width="8.15235" stroke-miterlimit="10" stroke-linecap="round"/>
<path d="M205.395 342.005L170.532 366.492C168.549 367.876 166.098 368.426 163.711 368.021C161.324 367.616 159.193 366.29 157.781 364.329L137.037 335.149C135.649 333.169 135.1 330.725 135.509 328.344C135.917 325.964 137.25 323.84 139.219 322.433L174.081 297.933C176.066 296.55 178.518 296.002 180.905 296.41C183.292 296.817 185.422 298.146 186.833 300.109L207.577 329.289C208.964 331.269 209.513 333.714 209.105 336.094C208.696 338.474 207.363 340.598 205.395 342.005Z" fill="#4DB5AE"/>
<path d="M236.024 360.488C235.847 361.541 235.452 362.546 234.864 363.439C234.276 364.331 233.508 365.091 232.608 365.671C231.709 366.251 230.698 366.637 229.641 366.806C228.583 366.974 227.502 366.921 226.467 366.649C205.441 361.087 187.038 348.347 174.461 330.649C161.883 312.95 155.929 291.414 157.635 269.789C157.722 268.726 158.03 267.692 158.539 266.753C159.049 265.815 159.749 264.992 160.595 264.339C161.441 263.685 162.414 263.214 163.453 262.957C164.491 262.699 165.572 262.66 166.627 262.842L250.234 277.052L236.024 360.488Z" fill="#38516B"/>
<path d="M194.194 307.896C193.623 307.096 192.757 306.554 191.786 306.389C190.815 306.225 189.819 306.451 189.014 307.018L178.209 314.647C180.01 317.767 181.968 320.834 184.098 323.823C186.228 326.812 188.541 329.748 190.921 332.514L201.726 324.898C202.529 324.328 203.072 323.465 203.237 322.497C203.402 321.529 203.176 320.535 202.607 319.733L194.194 307.896Z" fill="#706E6E"/>
<path d="M197.122 339.196C150.41 292.616 150.41 217.095 197.122 170.515C243.834 123.935 319.57 123.935 366.282 170.515C412.994 217.095 412.994 292.616 366.282 339.196C319.57 385.776 243.834 385.776 197.122 339.196Z" fill="#445D78"/>
<path d="M201.881 334.451C157.797 290.492 157.797 219.22 201.881 175.261C245.964 131.302 317.438 131.302 361.522 175.261C405.605 219.22 405.605 290.492 361.522 334.451C317.438 378.41 245.964 378.41 201.881 334.451Z" fill="#38516B"/>
<path d="M209.419 326.933C169.499 287.126 169.499 222.586 209.419 182.779C249.339 142.971 314.063 142.971 353.983 182.779C393.903 222.586 393.903 287.126 353.983 326.933C314.063 366.741 249.339 366.741 209.419 326.933Z" fill="#E8E7F7"/>
<path d="M214.44 321.928C177.292 284.885 177.292 224.827 214.44 187.784C251.588 150.741 311.816 150.741 348.964 187.784C386.112 224.827 386.112 284.885 348.964 321.928C311.816 358.971 251.588 358.971 214.44 321.928Z" fill="#F6F4FF"/>
<g style="mix-blend-mode:color-dodge" opacity="0.2">
<path d="M325.377 320.952C323.581 331.507 320.125 341.714 315.136 351.194C295.773 357.869 274.845 358.591 255.066 353.264C235.287 347.937 217.569 336.808 204.209 321.32C190.848 305.832 182.462 286.699 180.138 266.401C177.813 246.103 181.657 225.577 191.171 207.484C207.952 201.699 225.955 200.371 243.407 203.632C260.859 206.893 277.159 214.629 290.702 226.079C304.245 237.53 314.565 252.299 320.645 268.935C326.724 285.57 328.355 303.497 325.377 320.952Z" fill="#E0E5E8"/>
</g>
<path d="M156.347 326.628L146.225 333.786" stroke="white" stroke-width="8.15235" stroke-linecap="round" stroke-linejoin="round"/>
<g style="mix-blend-mode:color-dodge" opacity="0.62">
<path d="M233.066 188.987C235.091 196.853 250.59 199.71 267.692 195.332C284.795 190.954 296.994 181.044 294.931 173.165C292.867 165.287 277.407 162.442 260.318 166.821C243.228 171.199 231.042 181.109 233.066 188.987Z" fill="#E0E5E8"/>
</g>
<mask id="mask0_722_343" style="mask-type:luminance" maskUnits="userSpaceOnUse" x="179" y="152" width="205" height="205">
<path d="M209.419 326.933C169.499 287.126 169.499 222.586 209.419 182.778C249.339 142.971 314.063 142.971 353.983 182.778C393.903 222.586 393.903 287.126 353.983 326.933C314.063 366.74 249.339 366.74 209.419 326.933Z" fill="white"/>
</mask>
<g mask="url(#mask0_722_343)">
<path d="M220.394 104.082L361.837 137.813L324.051 295.367L182.607 261.635L220.394 104.082Z" fill="#4DB5AE"/>
<path d="M240.453 227.999L248.696 227.907L258.818 230.817L260.579 238.525L265.588 232.39L275.947 234.252L283.309 237.974L307.444 259.106L300.398 289.216L270.557 282.255L232.211 273.328L202.356 266.381L209.416 236.283L240.453 227.999Z" fill="#38516B"/>
<path d="M262.643 280.42L237.942 274.665L237.509 231.145L260.093 236.401L260.58 238.525L261.96 236.834L284.019 241.973L262.643 280.42Z" fill="#F2F2F2"/>
<path d="M257.949 249.236C247.81 246.875 240.631 240.521 241.913 235.043C243.195 229.566 252.454 227.038 262.593 229.398C272.731 231.758 279.911 238.112 278.628 243.59C277.346 249.068 268.087 251.596 257.949 249.236Z" fill="#EDB29A"/>
<path d="M278.616 221.431L275.409 235.13C274.567 238.724 272.329 241.838 269.186 243.787C266.043 245.737 262.253 246.362 258.648 245.525C255.043 244.686 251.92 242.454 249.965 239.32C248.011 236.186 247.384 232.406 248.223 228.811L251.431 215.113L278.616 221.431Z" fill="#EDB29A"/>
<path d="M277.275 227.147C265.589 233.334 255.703 234.697 248.026 234.081C247.754 232.337 247.821 230.557 248.223 228.838L251.431 215.139L278.616 221.458L277.275 227.147Z" fill="#D88D87"/>
<path d="M241.163 179.746C235.905 202.214 244.726 223.489 263.511 227.854C282.297 232.22 299.597 217.04 304.855 194.558C310.113 172.077 299.347 159.165 280.627 154.734C261.907 150.304 246.422 157.304 241.163 179.746Z" fill="#EDB29A"/>
<path d="M308.076 192.789C308.076 192.789 311.467 175.971 303.961 167.502L289.803 171.356L302.41 179.589V194.572L308.076 192.789Z" fill="#38516B"/>
<path d="M240.834 177.111C240.834 177.111 245.264 160.529 255.755 156.255L266.731 165.969L251.85 167.791L245.172 181.214L240.834 177.111Z" fill="#38516B"/>
<path d="M280.232 191.989C280.045 192.782 280.099 193.612 280.385 194.375C280.672 195.137 281.179 195.798 281.842 196.273C282.505 196.748 283.295 197.016 284.111 197.044C284.928 197.071 285.734 196.857 286.427 196.427C287.121 195.998 287.672 195.373 288.009 194.631C288.347 193.89 288.456 193.065 288.324 192.261C288.191 191.458 287.822 190.712 287.264 190.117C286.706 189.523 285.983 189.107 285.188 188.922C284.123 188.674 283.003 188.858 282.074 189.433C281.145 190.008 280.482 190.927 280.232 191.989Z" fill="#34344F"/>
<path d="M256.175 186.392C255.988 187.185 256.042 188.015 256.328 188.777C256.615 189.54 257.122 190.201 257.785 190.676C258.448 191.151 259.238 191.419 260.054 191.447C260.87 191.474 261.676 191.26 262.37 190.83C263.064 190.401 263.615 189.776 263.952 189.034C264.29 188.292 264.399 187.468 264.266 186.664C264.134 185.861 263.765 185.114 263.207 184.52C262.649 183.925 261.926 183.509 261.131 183.324C260.066 183.077 258.946 183.261 258.017 183.836C257.087 184.411 256.425 185.33 256.175 186.392Z" fill="#34344F"/>
<path d="M246.934 186.693C246.487 193.116 242.636 198.163 238.311 197.993C233.986 197.822 230.831 192.461 231.264 186.051C231.698 179.641 235.563 174.581 239.888 174.764C244.213 174.948 247.368 180.283 246.934 186.693Z" fill="#EDB29A"/>
<path d="M297.454 198.465C294.996 204.403 296.205 210.643 300.162 212.399C304.119 214.156 309.364 210.748 311.783 204.796C314.202 198.845 313.019 192.618 309.062 190.875C305.105 189.132 299.899 192.514 297.454 198.465Z" fill="#EDB29A"/>
<path d="M291.603 186.51C288.266 184.152 284.404 182.636 280.35 182.092L282.335 177.504C282.335 177.504 289.303 180.034 292.983 184.137L291.603 186.51Z" fill="#38516B"/>
<path d="M256.701 178.382C260.738 177.741 264.87 178.087 268.743 179.392L269.006 174.411C269.006 174.411 261.644 173.585 256.504 175.643L256.701 178.382Z" fill="#38516B"/>
<path d="M249.734 160.436C249.734 160.436 266.587 173.886 288.252 175.013C309.916 176.141 314.464 167.895 314.399 165.392C314.333 162.888 310.981 161.144 308.168 162.127C308.168 162.127 315.687 153.148 311.073 147.157C306.459 141.167 296.915 143.775 292.866 150.054C292.866 150.054 296.152 144.929 293.05 142.923C289.947 140.918 285.728 142.491 283.979 147.59C283.979 147.59 254.611 139.214 249.734 160.436Z" fill="#4C4C72"/>
<path d="M250.563 157.684C272.976 165.851 280.969 155.167 283.782 147.538C280.263 146.643 276.658 146.124 273.029 145.991C270.032 151.47 264.05 157.474 252.745 153.594C251.837 154.853 251.103 156.229 250.563 157.684Z" fill="#60608C"/>
<path d="M237.509 231.145L245.396 226.412L248.656 227.527L258.2 247.504L275.632 233.819L279.049 234.251L284.019 241.972L267.862 262.474L257.622 249.955L242.885 256.654L237.509 231.145Z" fill="white"/>
<path d="M379.523 192.948L543.635 232.085L541.807 239.709L377.695 200.572L379.523 192.948Z" fill="#F2F2F2"/>
<path d="M373.761 218.056L537.873 257.193L536.044 264.817L371.932 225.68L373.761 218.056Z" fill="#1DD6C9"/>
<path d="M367.971 243.161L532.083 282.298L530.255 289.922L366.143 250.785L367.971 243.161Z" fill="#1DD6C9"/>
<path d="M362.195 268.256L526.307 307.393L524.479 315.017L360.367 275.88L362.195 268.256Z" fill="#1DD6C9"/>
<path d="M356.407 293.36L520.519 332.498L518.69 340.122L354.578 300.984L356.407 293.36Z" fill="#1DD6C9"/>
<path d="M169.873 302.259L306.13 334.165L303.683 343.96L167.427 312.053L169.873 302.259Z" fill="#1DD6C9"/>
<path d="M158.305 347.523L294.562 379.43L292.734 387.059L156.478 355.153L158.305 347.523Z" fill="#F2F2F2"/>
<path d="M449.34 372.823C450.402 372.824 451.427 372.437 452.223 371.737C453.019 371.036 453.531 370.07 453.662 369.019C453.793 367.968 453.534 366.906 452.934 366.033C452.334 365.159 451.435 364.534 450.405 364.276L352.39 339.514C351.836 339.374 351.259 339.343 350.693 339.425C350.127 339.507 349.583 339.699 349.092 339.991C348.601 340.282 348.172 340.668 347.83 341.124C347.488 341.581 347.239 342.101 347.098 342.653C346.958 343.206 346.928 343.781 347.01 344.345C347.092 344.909 347.284 345.452 347.577 345.942C347.869 346.432 348.255 346.859 348.714 347.2C349.172 347.542 349.693 347.789 350.247 347.93L448.262 372.692C448.615 372.78 448.977 372.824 449.34 372.823Z" fill="#F2F2F2"/>
<path d="M446.107 385.538C447.169 385.539 448.194 385.153 448.99 384.452C449.786 383.752 450.298 382.785 450.429 381.734C450.56 380.684 450.301 379.622 449.701 378.748C449.101 377.875 448.202 377.25 447.172 376.992L361.527 355.375C360.408 355.092 359.222 355.264 358.229 355.852C357.237 356.441 356.52 357.399 356.236 358.515C355.952 359.631 356.124 360.814 356.714 361.803C357.305 362.793 358.265 363.508 359.384 363.791L445.042 385.394C445.39 385.487 445.748 385.536 446.107 385.538Z" fill="#F2F2F2"/>
<path fill-rule="evenodd" clip-rule="evenodd" d="M258.453 206.092C262.15 206.749 265.829 207.432 269.491 208.141C273.169 208.847 276.837 209.552 280.51 210.328C279.382 215.908 273.27 216.831 267.968 215.812C262.625 214.769 257.325 211.672 258.453 206.092Z" fill="white"/>
<path fill-rule="evenodd" clip-rule="evenodd" d="M259.005 210.223C258.889 210.201 258.787 210.135 258.721 210.04C258.655 209.945 258.631 209.829 258.653 209.717C258.676 209.605 258.744 209.507 258.842 209.443C258.94 209.38 259.06 209.357 259.176 209.379L278.559 213.102C278.675 213.124 278.777 213.19 278.843 213.285C278.909 213.379 278.933 213.496 278.91 213.608C278.888 213.72 278.82 213.818 278.722 213.882C278.624 213.945 278.504 213.968 278.388 213.946L259.005 210.223Z" fill="#AFB0B0"/>
<path fill-rule="evenodd" clip-rule="evenodd" d="M266.633 204.019C266.46 204.009 266.298 203.931 266.183 203.801C266.068 203.672 266.009 203.502 266.02 203.329C266.03 203.156 266.108 202.994 266.238 202.879C266.368 202.764 266.538 202.705 266.711 202.716C268.326 202.852 269.949 202.861 271.566 202.742C272.765 202.617 273.645 202.343 273.677 201.808C273.788 199.944 272.584 188.269 272.586 188.23C272.578 188.146 272.587 188.061 272.611 187.981C272.636 187.9 272.676 187.826 272.73 187.761C272.784 187.696 272.85 187.642 272.924 187.603C272.999 187.564 273.08 187.539 273.164 187.532C273.335 187.515 273.506 187.567 273.639 187.675C273.772 187.783 273.857 187.94 273.876 188.11C273.876 188.11 275.083 199.956 274.968 201.885C274.891 203.189 273.543 203.828 271.712 204.033C270.021 204.16 268.323 204.156 266.633 204.019Z" fill="#D88D87"/>
<path fill-rule="evenodd" clip-rule="evenodd" d="M310.723 199.626C310.753 199.796 310.713 199.972 310.614 200.114C310.514 200.255 310.362 200.352 310.192 200.382C310.021 200.412 309.846 200.373 309.704 200.273C309.562 200.174 309.465 200.022 309.435 199.851C309.338 198.48 308.793 197.178 307.883 196.146C307.712 195.989 307.507 195.873 307.284 195.806C307.06 195.739 306.825 195.724 306.595 195.761C305.981 195.888 305.413 196.18 304.952 196.606C303.225 198.182 302.014 200.242 301.478 202.518C301.22 203.554 301.028 204.606 300.903 205.668C301.658 204.89 302.66 204.4 303.738 204.283C304.24 204.25 304.743 204.339 305.203 204.543C305.665 204.77 306.038 205.143 306.265 205.604C306.491 206.186 306.584 206.812 306.537 207.435C306.491 208.057 306.305 208.662 305.994 209.204C305.925 209.362 305.795 209.485 305.635 209.548C305.475 209.611 305.296 209.608 305.138 209.54C305.059 209.506 304.989 209.456 304.93 209.394C304.871 209.332 304.825 209.259 304.795 209.179C304.765 209.099 304.751 209.014 304.754 208.928C304.758 208.843 304.778 208.759 304.815 208.682C305.039 208.309 305.181 207.893 305.232 207.461C305.282 207.029 305.239 206.592 305.105 206.178C305.01 205.97 304.844 205.802 304.637 205.703C304.384 205.593 304.107 205.55 303.833 205.579C303.318 205.648 302.825 205.828 302.388 206.109C301.951 206.389 301.581 206.762 301.305 207.201C301.169 207.426 300.969 207.604 300.731 207.713C300.636 207.767 300.531 207.798 300.422 207.804C300.313 207.81 300.205 207.791 300.105 207.748C300.005 207.705 299.916 207.64 299.846 207.557C299.775 207.474 299.725 207.376 299.698 207.271C299.61 207.032 299.566 206.779 299.567 206.525C299.641 205.087 299.866 203.661 300.241 202.27C300.847 199.723 302.209 197.419 304.15 195.659C304.793 195.089 305.576 194.7 306.42 194.533C306.836 194.465 307.263 194.492 307.667 194.612C308.072 194.732 308.444 194.941 308.757 195.224C309.887 196.43 310.579 197.98 310.723 199.626Z" fill="#D88D87"/>
<path fill-rule="evenodd" clip-rule="evenodd" d="M236.666 181.316C236.534 181.428 236.363 181.483 236.19 181.469C236.017 181.454 235.857 181.372 235.745 181.24C235.633 181.108 235.578 180.937 235.592 180.764C235.607 180.592 235.689 180.432 235.821 180.32C236.99 179.143 238.521 178.394 240.168 178.194C240.587 178.184 241.002 178.267 241.384 178.438C241.766 178.609 242.106 178.863 242.377 179.182C242.918 179.849 243.272 180.649 243.401 181.499C243.765 184.081 243.342 186.713 242.186 189.052C241.577 190.36 240.832 191.6 239.962 192.751C239.796 192.943 239.601 193.108 239.384 193.241C239.298 193.307 239.198 193.351 239.092 193.371C238.985 193.39 238.876 193.385 238.772 193.355C238.668 193.325 238.573 193.271 238.494 193.197C238.414 193.123 238.353 193.032 238.316 192.931C238.198 192.693 238.155 192.424 238.194 192.161C238.258 191.65 238.21 191.131 238.052 190.641C237.893 190.151 237.629 189.702 237.277 189.325C237.086 189.125 236.845 188.981 236.579 188.906C236.355 188.852 236.119 188.872 235.907 188.962C235.544 189.201 235.234 189.513 234.998 189.878C234.762 190.243 234.605 190.653 234.537 191.082C234.487 191.246 234.377 191.384 234.228 191.468C234.08 191.552 233.905 191.577 233.739 191.536C233.574 191.487 233.435 191.375 233.351 191.224C233.268 191.073 233.248 190.896 233.295 190.73C233.406 190.116 233.65 189.532 234.011 189.023C234.371 188.513 234.84 188.088 235.383 187.779C235.857 187.574 236.385 187.529 236.886 187.653C237.374 187.786 237.821 188.036 238.19 188.381C238.941 189.156 239.396 190.171 239.474 191.247C240.06 190.355 240.589 189.427 241.057 188.468C242.097 186.375 242.484 184.019 242.169 181.703C242.067 181.091 241.8 180.519 241.397 180.046C241.244 179.871 241.054 179.732 240.84 179.641C240.626 179.549 240.394 179.507 240.161 179.518C238.834 179.729 237.609 180.359 236.666 181.316Z" fill="#D88D87"/>
</g>
<defs>
<filter id="filter0_d_722_343" x="90.1002" y="-13.3652" width="457.591" height="538.696" filterUnits="userSpaceOnUse" color-interpolation-filters="sRGB">
<feFlood flood-opacity="0" result="BackgroundImageFix"/>
<feColorMatrix in="SourceAlpha" type="matrix" values="0 0 0 0 0 0 0 0 0 0 0 0 0 0 0 0 0 0 127 0" result="hardAlpha"/>
<feOffset dy="3.26094"/>
<feGaussianBlur stdDeviation="11.4133"/>
<feComposite in2="hardAlpha" operator="out"/>
<feColorMatrix type="matrix" values="0 0 0 0 0 0 0 0 0 0 0 0 0 0 0 0 0 0 0.04 0"/>
<feBlend mode="normal" in2="BackgroundImageFix" result="effect1_dropShadow_722_343"/>
<feBlend mode="normal" in="SourceGraphic" in2="effect1_dropShadow_722_343" result="shape"/>
</filter>
<filter id="filter1_d_722_343" x="-4.23584" y="316.548" width="194.752" height="147.454" filterUnits="userSpaceOnUse" color-interpolation-filters="sRGB">
<feFlood flood-opacity="0" result="BackgroundImageFix"/>
<feColorMatrix in="SourceAlpha" type="matrix" values="0 0 0 0 0 0 0 0 0 0 0 0 0 0 0 0 0 0 127 0" result="hardAlpha"/>
<feOffset dx="4" dy="4"/>
<feGaussianBlur stdDeviation="4.5"/>
<feComposite in2="hardAlpha" operator="out"/>
<feColorMatrix type="matrix" values="0 0 0 0 0 0 0 0 0 0 0 0 0 0 0 0 0 0 0.1 0"/>
<feBlend mode="normal" in2="BackgroundImageFix" result="effect1_dropShadow_722_343"/>
<feBlend mode="normal" in="SourceGraphic" in2="effect1_dropShadow_722_343" result="shape"/>
</filter>
</defs>
</svg>
