<svg xmlns="http://www.w3.org/2000/svg" xmlns:xlink="http://www.w3.org/1999/xlink" width="1280" height="95" viewBox="0 0 1280 95">
  <defs>
    <linearGradient id="linear-gradient" y1="0.5" x2="1" y2="0.5" gradientUnits="objectBoundingBox">
      <stop offset="0" stop-color="#003e5c"/>
      <stop offset="0.3" stop-color="#00aac3"/>
      <stop offset="0.5" stop-color="#91be1e"/>
      <stop offset="0.75" stop-color="#ffd205"/>
      <stop offset="1" stop-color="#ef7d00"/>
    </linearGradient>
    <clipPath id="clip-path">
      <rect id="Rectangle_10987" data-name="Rectangle 10987" width="1280" height="95" transform="translate(0 679)" fill="red" opacity="0.281"/>
    </clipPath>
    <clipPath id="clip-path-2">
      <rect id="Rectangle_10986" data-name="Rectangle 10986" width="1282" height="1119.744" stroke="#707070" stroke-miterlimit="10" stroke-width="2" fill="url(#linear-gradient)"/>
    </clipPath>
  </defs>
  <g id="Pattern" transform="translate(0 -679)" clip-path="url(#clip-path)">
    <g id="Groupe_3674" data-name="Groupe 3674" transform="translate(196 146)">
      <g id="Groupe_3673" data-name="Groupe 3673" transform="translate(-197 42)" clip-path="url(#clip-path-2)">
        <path id="Tracé_36033_-_Contour" data-name="Tracé 36033 - Contour" d="M81.753,138.678v2a237.98,237.98,0,0,0-39.867,3.377A254.506,254.506,0,0,0,.5,154.842l-.662-1.887A256.489,256.489,0,0,1,41.55,142.084,240.01,240.01,0,0,1,81.753,138.678Zm0,0a250,250,0,0,1,31.941,2.084,280.479,280.479,0,0,1,31.15,5.888c9.9,2.447,20.155,5.523,30.468,9.144,9.635,3.382,19.693,7.37,29.895,11.852,9.5,4.172,19.125,8.757,29.433,14.015,9.181,4.683,18.694,9.8,29.085,15.633,19.294,10.838,38.754,22.588,57.573,33.951,18.8,11.353,38.244,23.092,57.505,33.913,21.588,12.127,40.666,21.794,58.325,29.552,10.152,4.46,20.158,8.428,29.741,11.792,10.248,3.6,20.433,6.655,30.271,9.086a278.284,278.284,0,0,0,30.913,5.844A247.835,247.835,0,0,0,559.72,323.5a237.758,237.758,0,0,0,38.49-3.148c7.5-1.233,15.045-2.849,22.581-4.83l.04-.011.045-.012q8.645-2.276,17.237-5.185l.519-.176,1.038-.356.363-.126.622-.217a254.294,254.294,0,0,1,41.523-10.753,242.613,242.613,0,0,1,40.265-3.369,256.393,256.393,0,0,1,32.722,2.137,290.755,290.755,0,0,1,32.015,6.033c10.19,2.505,20.752,5.654,31.39,9.359,9.934,3.46,20.314,7.537,30.852,12.118,18.3,7.956,38.068,17.85,60.437,30.249,19.918,11.04,39.955,22.97,59.332,34.506,18.845,11.22,38.332,22.822,57.512,33.481,21.48,11.937,40.369,21.444,57.748,29.065a366.92,366.92,0,0,0,58.6,20.478,268.177,268.177,0,0,0,29.818,5.722,232.557,232.557,0,0,0,30.271,2.022,216.724,216.724,0,0,0,38.642-3.469,226.708,226.708,0,0,0,39.665-11.091l.709,1.87a228.71,228.71,0,0,1-40.016,11.188,218.731,218.731,0,0,1-39,3.5,234.568,234.568,0,0,1-30.532-2.039,270.217,270.217,0,0,1-30.042-5.765,368.893,368.893,0,0,1-58.922-20.587c-17.436-7.646-36.381-17.181-57.916-29.148-19.206-10.674-38.706-22.283-57.564-33.511-19.364-11.529-39.387-23.45-59.279-34.476-22.313-12.368-42.026-22.235-60.265-30.164-10.492-4.561-20.825-8.62-30.712-12.064-10.579-3.685-21.08-6.815-31.21-9.306a288.763,288.763,0,0,0-31.793-5.991,254.4,254.4,0,0,0-32.466-2.121,240.6,240.6,0,0,0-39.932,3.341,252.312,252.312,0,0,0-41.2,10.668l-.626.218-.366.127c-.519.18-1.047.36-1.568.536a254.7,254.7,0,0,1-40.214,10.117,239.692,239.692,0,0,1-38.81,3.176h-.011a249.835,249.835,0,0,1-31.924-2.083,280.309,280.309,0,0,1-31.136-5.886c-9.9-2.446-20.146-5.521-30.454-9.141-9.631-3.381-19.685-7.367-29.883-11.848-9.494-4.171-19.119-8.754-29.424-14.011-9.178-4.681-18.689-9.794-29.077-15.629-19.289-10.836-38.745-22.583-57.56-33.944s-38.251-23.1-57.518-33.92c-21.594-12.131-40.678-21.8-58.343-29.561-10.156-4.462-20.166-8.43-29.752-11.8-10.253-3.6-20.442-6.657-30.285-9.089a278.46,278.46,0,0,0-30.927-5.846,247.991,247.991,0,0,0-31.684-2.068Z" transform="translate(0.009 7.827)" fill="url(#linear-gradient)"/>
        <path id="Tracé_36034_-_Contour" data-name="Tracé 36034 - Contour" d="M81.753,158.561v2a238.02,238.02,0,0,0-39.867,3.376A254.478,254.478,0,0,0,.5,174.724l-.662-1.887A256.461,256.461,0,0,1,41.55,161.966,240.031,240.031,0,0,1,81.753,158.561Zm0,0a250,250,0,0,1,31.941,2.084,280.479,280.479,0,0,1,31.15,5.888c9.9,2.447,20.155,5.523,30.468,9.144,9.635,3.382,19.693,7.37,29.895,11.852,9.5,4.172,19.125,8.757,29.433,14.015,9.181,4.683,18.694,9.8,29.085,15.633,19.294,10.838,38.754,22.588,57.573,33.951,18.8,11.353,38.244,23.092,57.505,33.913,21.588,12.127,40.666,21.794,58.325,29.552,10.152,4.46,20.158,8.428,29.741,11.792,10.248,3.6,20.433,6.655,30.271,9.086a278.284,278.284,0,0,0,30.913,5.844,247.835,247.835,0,0,0,31.668,2.067,237.815,237.815,0,0,0,39.712-3.353,254.087,254.087,0,0,0,41.222-10.71,254.3,254.3,0,0,1,41.523-10.753,242.616,242.616,0,0,1,40.265-3.369,256.393,256.393,0,0,1,32.722,2.137,290.762,290.762,0,0,1,32.015,6.033c10.19,2.506,20.752,5.654,31.39,9.359,9.934,3.46,20.314,7.537,30.852,12.118,18.3,7.956,38.068,17.85,60.437,30.249,19.918,11.04,39.955,22.97,59.332,34.507,18.845,11.22,38.332,22.822,57.512,33.481,21.48,11.938,40.369,21.445,57.748,29.065a366.928,366.928,0,0,0,58.6,20.479,268.2,268.2,0,0,0,29.818,5.722,232.557,232.557,0,0,0,30.271,2.022l.9,0,.008,2-.9,0a234.568,234.568,0,0,1-30.532-2.039,270.176,270.176,0,0,1-30.042-5.765,368.878,368.878,0,0,1-58.922-20.587c-17.436-7.646-36.381-17.181-57.916-29.149-19.206-10.674-38.706-22.283-57.564-33.511-19.364-11.529-39.387-23.451-59.279-34.476-22.313-12.368-42.026-22.235-60.265-30.164-10.492-4.561-20.825-8.62-30.712-12.064-10.579-3.684-21.08-6.815-31.21-9.306a288.777,288.777,0,0,0-31.793-5.991,254.4,254.4,0,0,0-32.466-2.121,240.588,240.588,0,0,0-39.932,3.341,252.3,252.3,0,0,0-41.2,10.668A256.079,256.079,0,0,1,599.768,342a239.811,239.811,0,0,1-40.047,3.381A249.833,249.833,0,0,1,527.8,343.3a280.31,280.31,0,0,1-31.136-5.886c-9.9-2.446-20.146-5.521-30.455-9.141-9.631-3.381-19.685-7.367-29.883-11.848-9.494-4.171-19.118-8.754-29.423-14.011-9.178-4.681-18.689-9.794-29.077-15.629-19.289-10.836-38.744-22.583-57.56-33.944s-38.251-23.1-57.518-33.92c-21.594-12.13-40.679-21.8-58.343-29.56-10.156-4.462-20.166-8.43-29.753-11.8-10.253-3.6-20.442-6.657-30.285-9.089a278.46,278.46,0,0,0-30.927-5.846,247.994,247.994,0,0,0-31.684-2.068Zm1199.7,327.248.709,1.87a228.805,228.805,0,0,1-39.553,11.1,218.618,218.618,0,0,1-38.559,3.585l-.008-2a216.594,216.594,0,0,0,38.2-3.552A226.845,226.845,0,0,0,1281.449,485.809Z" transform="translate(0.009 8.941)" fill="url(#linear-gradient)"/>
        <path id="Tracé_36035_-_Contour" data-name="Tracé 36035 - Contour" d="M81.753,178.444v2a238.023,238.023,0,0,0-39.867,3.377A254.475,254.475,0,0,0,.5,194.607l-.662-1.887A256.458,256.458,0,0,1,41.55,181.849,240.031,240.031,0,0,1,81.753,178.444Zm0,0a250,250,0,0,1,31.941,2.084,280.494,280.494,0,0,1,31.15,5.888c9.9,2.447,20.155,5.523,30.468,9.143,9.635,3.382,19.693,7.37,29.895,11.852,9.5,4.172,19.125,8.757,29.433,14.015,9.181,4.683,18.694,9.8,29.085,15.633,19.294,10.838,38.754,22.588,57.573,33.951,18.8,11.353,38.244,23.092,57.505,33.913,21.588,12.127,40.666,21.794,58.325,29.552,10.152,4.46,20.158,8.428,29.741,11.792,10.248,3.6,20.433,6.655,30.271,9.086a278.284,278.284,0,0,0,30.913,5.844,247.835,247.835,0,0,0,31.668,2.067l.915,0,.008,2-.923,0a249.833,249.833,0,0,1-31.924-2.083A280.31,280.31,0,0,1,496.66,357.3c-9.9-2.446-20.146-5.521-30.455-9.141-9.631-3.381-19.685-7.367-29.883-11.848-9.494-4.171-19.118-8.754-29.423-14.011-9.178-4.681-18.689-9.794-29.077-15.629-19.289-10.836-38.744-22.583-57.56-33.944s-38.251-23.1-57.518-33.92c-21.594-12.13-40.679-21.8-58.343-29.56-10.156-4.462-20.166-8.43-29.753-11.8-10.253-3.6-20.442-6.657-30.285-9.089a278.453,278.453,0,0,0-30.927-5.846,247.994,247.994,0,0,0-31.684-2.068ZM722.443,335.08a256.393,256.393,0,0,1,32.722,2.137,290.762,290.762,0,0,1,32.015,6.033c10.19,2.506,20.752,5.654,31.39,9.359,9.934,3.46,20.314,7.537,30.852,12.118,18.3,7.956,38.068,17.85,60.437,30.249,19.918,11.04,39.955,22.97,59.332,34.507,18.845,11.22,38.332,22.822,57.512,33.481,21.48,11.938,40.369,21.445,57.748,29.065a366.928,366.928,0,0,0,58.6,20.479,268.19,268.19,0,0,0,29.818,5.722,232.552,232.552,0,0,0,30.271,2.022,216.7,216.7,0,0,0,38.642-3.47,226.73,226.73,0,0,0,39.665-11.091l.709,1.87a228.733,228.733,0,0,1-40.016,11.189,218.714,218.714,0,0,1-39,3.5,234.562,234.562,0,0,1-30.532-2.039,270.176,270.176,0,0,1-30.042-5.765,368.878,368.878,0,0,1-58.922-20.587c-17.436-7.646-36.381-17.181-57.916-29.149-19.206-10.674-38.706-22.283-57.564-33.511-19.364-11.529-39.387-23.451-59.279-34.476-22.313-12.368-42.026-22.235-60.265-30.164C838.132,362,827.8,357.941,817.912,354.5c-10.579-3.684-21.08-6.815-31.21-9.306a288.777,288.777,0,0,0-31.793-5.991,254.4,254.4,0,0,0-32.466-2.121,240.588,240.588,0,0,0-39.932,3.341,252.3,252.3,0,0,0-41.2,10.668,256.234,256.234,0,0,1-41.07,10.712,239.822,239.822,0,0,1-39.6,3.461l-.008-2a237.816,237.816,0,0,0,39.271-3.432A254.3,254.3,0,0,0,640.655,349.2a254.3,254.3,0,0,1,41.523-10.753A242.616,242.616,0,0,1,722.443,335.08Z" transform="translate(0.009 10.055)" fill="url(#linear-gradient)"/>
        <path id="Tracé_36036_-_Contour" data-name="Tracé 36036 - Contour" d="M81.753,198.326v2A237.984,237.984,0,0,0,41.886,203.7,254.513,254.513,0,0,0,.5,214.49L-.165,212.6A256.5,256.5,0,0,1,41.55,201.732,239.991,239.991,0,0,1,81.753,198.326Zm0,0a250,250,0,0,1,31.941,2.084,280.479,280.479,0,0,1,31.15,5.888c9.9,2.447,20.155,5.523,30.468,9.143,9.635,3.382,19.693,7.37,29.895,11.852,9.5,4.172,19.125,8.757,29.433,14.015,9.181,4.682,18.694,9.8,29.085,15.633,19.294,10.838,38.754,22.588,57.573,33.951,18.8,11.353,38.244,23.092,57.505,33.913,21.588,12.127,40.666,21.794,58.325,29.552,10.152,4.46,20.158,8.428,29.741,11.792,10.248,3.6,20.433,6.655,30.271,9.086a278.284,278.284,0,0,0,30.913,5.844,247.835,247.835,0,0,0,31.668,2.067,237.8,237.8,0,0,0,39.072-3.245,253.366,253.366,0,0,0,40.53-10.354l.043-.015.63-.218.27.779-.27-.779.658,1.889h0l-.678.234a255.384,255.384,0,0,1-40.847,10.436,239.726,239.726,0,0,1-39.4,3.273h-.009a249.835,249.835,0,0,1-31.924-2.083,280.268,280.268,0,0,1-31.136-5.886c-9.9-2.446-20.146-5.521-30.454-9.14-9.631-3.381-19.685-7.367-29.883-11.848-9.494-4.171-19.118-8.754-29.424-14.01-9.178-4.682-18.689-9.794-29.076-15.629-19.289-10.836-38.745-22.583-57.56-33.944s-38.251-23.1-57.518-33.92c-21.594-12.13-40.679-21.8-58.343-29.56-10.156-4.462-20.166-8.431-29.752-11.8-10.253-3.6-20.442-6.657-30.285-9.089a278.467,278.467,0,0,0-30.927-5.846,248,248,0,0,0-31.684-2.068Zm640.69,156.637a256.393,256.393,0,0,1,32.722,2.137,290.755,290.755,0,0,1,32.015,6.033c10.19,2.505,20.752,5.654,31.39,9.359,9.934,3.46,20.314,7.537,30.852,12.118,18.3,7.956,38.068,17.85,60.437,30.249,19.918,11.04,39.955,22.97,59.332,34.507,18.845,11.22,38.332,22.822,57.512,33.481,21.48,11.937,40.369,21.445,57.748,29.065a366.926,366.926,0,0,0,58.6,20.479,268.2,268.2,0,0,0,29.818,5.722,232.562,232.562,0,0,0,30.271,2.022,216.7,216.7,0,0,0,38.642-3.469,226.678,226.678,0,0,0,39.665-11.091l.709,1.87a228.7,228.7,0,0,1-40.016,11.188,218.714,218.714,0,0,1-39,3.5,234.573,234.573,0,0,1-30.532-2.039,270.217,270.217,0,0,1-30.042-5.765,368.9,368.9,0,0,1-58.922-20.587c-17.436-7.646-36.381-17.18-57.916-29.148-19.206-10.674-38.706-22.283-57.564-33.511-19.364-11.529-39.387-23.45-59.279-34.476-22.313-12.368-42.026-22.235-60.265-30.164-10.492-4.561-20.825-8.62-30.712-12.064-10.579-3.685-21.08-6.815-31.21-9.306a288.763,288.763,0,0,0-31.793-5.991,254.4,254.4,0,0,0-32.466-2.121,240.6,240.6,0,0,0-39.932,3.341,252.312,252.312,0,0,0-41.2,10.668l-.662.231L640,369.314l.657-.229a254.294,254.294,0,0,1,41.523-10.753A242.613,242.613,0,0,1,722.443,354.963Z" transform="translate(0.009 11.169)" fill="url(#linear-gradient)"/>
        <path id="Tracé_36037_-_Contour" data-name="Tracé 36037 - Contour" d="M81.753,218.209v2a238.016,238.016,0,0,0-39.867,3.377A254.472,254.472,0,0,0,.5,234.372l-.662-1.887A256.461,256.461,0,0,1,41.55,221.614,240.037,240.037,0,0,1,81.753,218.209Zm0,0a250,250,0,0,1,31.941,2.084,280.479,280.479,0,0,1,31.15,5.888c9.9,2.447,20.155,5.523,30.468,9.143,9.635,3.382,19.693,7.37,29.895,11.852,9.5,4.172,19.125,8.757,29.433,14.014,9.181,4.683,18.694,9.8,29.085,15.633,19.294,10.838,38.754,22.588,57.573,33.951,18.8,11.353,38.244,23.092,57.505,33.913,21.588,12.127,40.666,21.794,58.325,29.552,10.152,4.46,20.158,8.428,29.741,11.792,10.248,3.6,20.433,6.655,30.271,9.086a278.284,278.284,0,0,0,30.913,5.844,247.835,247.835,0,0,0,31.668,2.067,237.815,237.815,0,0,0,39.712-3.353,254.087,254.087,0,0,0,41.222-10.71,254.3,254.3,0,0,1,41.523-10.753,242.616,242.616,0,0,1,40.265-3.369,256.393,256.393,0,0,1,32.722,2.137,290.762,290.762,0,0,1,32.015,6.033c10.19,2.506,20.752,5.654,31.39,9.359,9.934,3.46,20.314,7.537,30.852,12.118,18.3,7.956,38.068,17.85,60.437,30.249,19.918,11.04,39.955,22.97,59.332,34.507,18.845,11.22,38.332,22.822,57.512,33.481,21.48,11.937,40.369,21.445,57.748,29.065a366.921,366.921,0,0,0,58.6,20.479A268.177,268.177,0,0,0,1172.872,558a232.563,232.563,0,0,0,30.271,2.022,216.7,216.7,0,0,0,38.642-3.469,226.665,226.665,0,0,0,39.665-11.092l.709,1.87a228.689,228.689,0,0,1-40.016,11.189,218.712,218.712,0,0,1-39,3.5,234.562,234.562,0,0,1-30.532-2.039,270.19,270.19,0,0,1-30.042-5.765,368.881,368.881,0,0,1-58.922-20.587c-17.436-7.646-36.381-17.181-57.916-29.149-19.206-10.673-38.706-22.283-57.564-33.511-19.364-11.529-39.387-23.451-59.279-34.476-22.313-12.368-42.026-22.235-60.265-30.164-10.492-4.561-20.825-8.62-30.712-12.064-10.579-3.684-21.08-6.815-31.21-9.306a288.777,288.777,0,0,0-31.793-5.991,254.4,254.4,0,0,0-32.466-2.121,240.588,240.588,0,0,0-39.932,3.341,252.3,252.3,0,0,0-41.2,10.668,256.079,256.079,0,0,1-41.547,10.794,239.811,239.811,0,0,1-40.047,3.381,249.833,249.833,0,0,1-31.924-2.083,280.31,280.31,0,0,1-31.136-5.886c-9.9-2.446-20.146-5.521-30.455-9.141-9.631-3.381-19.685-7.367-29.883-11.848-9.494-4.171-19.118-8.754-29.423-14.011-9.178-4.681-18.689-9.794-29.077-15.629-19.289-10.836-38.744-22.583-57.56-33.944s-38.251-23.1-57.518-33.92c-21.594-12.13-40.679-21.8-58.343-29.56-10.156-4.462-20.166-8.43-29.753-11.8-10.253-3.6-20.442-6.657-30.285-9.089a278.467,278.467,0,0,0-30.927-5.846,247.994,247.994,0,0,0-31.684-2.068Z" transform="translate(0.009 12.283)" fill="url(#linear-gradient)"/>
        <path id="Tracé_36038_-_Contour" data-name="Tracé 36038 - Contour" d="M81.753,238.092v2a238.016,238.016,0,0,0-39.867,3.377A254.472,254.472,0,0,0,.5,254.255l-.662-1.887A256.455,256.455,0,0,1,41.55,241.5,240.031,240.031,0,0,1,81.753,238.092Zm0,0a250,250,0,0,1,31.941,2.084,280.479,280.479,0,0,1,31.15,5.888c9.9,2.447,20.155,5.523,30.468,9.143,9.635,3.382,19.693,7.37,29.895,11.852,9.5,4.172,19.125,8.757,29.433,14.014,9.181,4.683,18.694,9.8,29.085,15.633,19.294,10.838,38.754,22.588,57.573,33.951,18.8,11.353,38.244,23.092,57.505,33.913,21.588,12.127,40.666,21.794,58.325,29.552,10.152,4.46,20.158,8.428,29.741,11.792,10.248,3.6,20.433,6.655,30.271,9.086a278.284,278.284,0,0,0,30.913,5.844,247.835,247.835,0,0,0,31.668,2.067,237.791,237.791,0,0,0,39.712-3.353,254.146,254.146,0,0,0,41.222-10.71A254.3,254.3,0,0,1,682.178,398.1a242.613,242.613,0,0,1,40.265-3.369,256.393,256.393,0,0,1,32.722,2.137,290.755,290.755,0,0,1,32.015,6.033c10.19,2.505,20.752,5.654,31.39,9.359,9.934,3.46,20.314,7.537,30.852,12.118,18.3,7.956,38.068,17.85,60.437,30.249,19.918,11.04,39.955,22.97,59.332,34.507,18.845,11.22,38.332,22.822,57.512,33.481,21.48,11.937,40.369,21.445,57.748,29.065a366.926,366.926,0,0,0,58.6,20.479,268.2,268.2,0,0,0,29.818,5.722,232.563,232.563,0,0,0,30.271,2.022,216.724,216.724,0,0,0,38.642-3.469,226.708,226.708,0,0,0,39.665-11.091l.709,1.87a228.71,228.71,0,0,1-40.016,11.188,218.729,218.729,0,0,1-39,3.5,234.573,234.573,0,0,1-30.532-2.039,270.231,270.231,0,0,1-30.042-5.765,368.911,368.911,0,0,1-58.922-20.587c-17.436-7.646-36.381-17.18-57.916-29.149-19.206-10.673-38.706-22.283-57.564-33.511-19.364-11.529-39.387-23.45-59.279-34.476-22.313-12.368-42.026-22.235-60.265-30.164-10.492-4.561-20.825-8.62-30.712-12.064-10.579-3.684-21.08-6.815-31.21-9.306a288.763,288.763,0,0,0-31.793-5.991,254.4,254.4,0,0,0-32.466-2.121,240.585,240.585,0,0,0-39.932,3.341,252.3,252.3,0,0,0-41.2,10.668,256.131,256.131,0,0,1-41.547,10.794,239.809,239.809,0,0,1-40.047,3.382,249.833,249.833,0,0,1-31.924-2.083,280.31,280.31,0,0,1-31.136-5.886c-9.9-2.446-20.146-5.521-30.455-9.141-9.631-3.381-19.685-7.367-29.883-11.848-9.494-4.171-19.118-8.754-29.423-14.011-9.178-4.681-18.689-9.794-29.077-15.629-19.289-10.836-38.744-22.583-57.56-33.944s-38.251-23.1-57.518-33.92c-21.594-12.13-40.679-21.8-58.343-29.56-10.156-4.462-20.166-8.43-29.753-11.8-10.253-3.6-20.442-6.657-30.285-9.089a278.453,278.453,0,0,0-30.927-5.846,247.994,247.994,0,0,0-31.684-2.068Z" transform="translate(0.009 13.397)" fill="url(#linear-gradient)"/>
        <path id="Tracé_36039_-_Contour" data-name="Tracé 36039 - Contour" d="M81.753,257.974v2a238.016,238.016,0,0,0-39.867,3.377A254.447,254.447,0,0,0,.5,274.138l-.663-1.887A256.441,256.441,0,0,1,41.55,261.379,240.008,240.008,0,0,1,81.753,257.974Zm0,0a250,250,0,0,1,31.941,2.084,280.494,280.494,0,0,1,31.15,5.888c9.9,2.447,20.155,5.523,30.468,9.143,9.635,3.382,19.693,7.37,29.895,11.852,9.5,4.172,19.125,8.757,29.433,14.015,9.181,4.682,18.694,9.8,29.085,15.633,19.294,10.838,38.754,22.588,57.573,33.951,18.8,11.353,38.244,23.092,57.505,33.913,21.588,12.127,40.666,21.794,58.325,29.552,10.152,4.46,20.158,8.428,29.741,11.792,10.248,3.6,20.433,6.655,30.271,9.086a278.284,278.284,0,0,0,30.913,5.844,247.835,247.835,0,0,0,31.668,2.067,237.819,237.819,0,0,0,39.712-3.353,254.108,254.108,0,0,0,41.222-10.709,254.328,254.328,0,0,1,41.523-10.753,242.589,242.589,0,0,1,40.265-3.369,256.393,256.393,0,0,1,32.722,2.137,290.755,290.755,0,0,1,32.015,6.033c10.19,2.505,20.752,5.654,31.39,9.359,9.934,3.46,20.314,7.537,30.852,12.118,18.3,7.955,38.068,17.85,60.437,30.249,19.918,11.04,39.955,22.97,59.332,34.507,18.157,10.811,36.933,21.989,55.408,32.309,20.692,11.558,38.881,20.832,55.606,28.352a384.765,384.765,0,0,0,56.358,20.664,280.085,280.085,0,0,0,28.635,6.289,240.2,240.2,0,0,0,29.036,2.977c2.966.118,5.964.178,8.909.178a216.724,216.724,0,0,0,38.642-3.469,226.713,226.713,0,0,0,39.665-11.091l.709,1.87a228.71,228.71,0,0,1-40.016,11.188,218.729,218.729,0,0,1-39,3.5c-2.972,0-6-.06-8.989-.18a242.172,242.172,0,0,1-29.279-3,282.07,282.07,0,0,1-28.841-6.334,386.738,386.738,0,0,1-56.651-20.769c-16.778-7.544-35.018-16.843-55.761-28.43-18.5-10.334-37.287-21.519-55.456-32.337-19.364-11.529-39.387-23.45-59.279-34.476-22.313-12.368-42.026-22.235-60.265-30.164-10.492-4.561-20.825-8.62-30.712-12.064-10.579-3.684-21.08-6.815-31.21-9.306a288.759,288.759,0,0,0-31.794-5.992,254.394,254.394,0,0,0-32.466-2.121,240.56,240.56,0,0,0-39.932,3.341,252.32,252.32,0,0,0-41.2,10.669,256.108,256.108,0,0,1-41.547,10.793,239.836,239.836,0,0,1-40.047,3.381,249.833,249.833,0,0,1-31.924-2.083,280.3,280.3,0,0,1-31.136-5.886c-9.9-2.446-20.146-5.521-30.455-9.141-9.631-3.381-19.685-7.367-29.883-11.848-9.494-4.171-19.118-8.754-29.423-14.011-9.178-4.681-18.689-9.794-29.077-15.629-19.289-10.836-38.744-22.583-57.56-33.944s-38.251-23.1-57.518-33.92c-21.594-12.13-40.679-21.8-58.343-29.561-10.156-4.462-20.166-8.43-29.753-11.8-10.253-3.6-20.442-6.657-30.285-9.089a278.453,278.453,0,0,0-30.927-5.846,247.994,247.994,0,0,0-31.684-2.068Z" transform="translate(0.009 14.511)" fill="url(#linear-gradient)"/>
        <path id="Tracé_36040_-_Contour" data-name="Tracé 36040 - Contour" d="M81.753,277.857v2a238.023,238.023,0,0,0-39.867,3.377A254.478,254.478,0,0,0,.5,294.02l-.662-1.887A256.461,256.461,0,0,1,41.55,281.262,240.031,240.031,0,0,1,81.753,277.857Zm0,0a250,250,0,0,1,31.941,2.084,280.494,280.494,0,0,1,31.15,5.888c9.9,2.447,20.155,5.523,30.468,9.143,9.635,3.382,19.693,7.37,29.895,11.852,9.5,4.172,19.125,8.757,29.433,14.015,9.181,4.683,18.694,9.8,29.085,15.633,19.294,10.838,38.754,22.588,57.573,33.951,18.8,11.353,38.244,23.092,57.505,33.913,21.588,12.127,40.666,21.794,58.325,29.552,10.152,4.46,20.158,8.428,29.741,11.792,10.248,3.6,20.433,6.655,30.271,9.086a278.284,278.284,0,0,0,30.913,5.844,247.835,247.835,0,0,0,31.668,2.067,237.815,237.815,0,0,0,39.712-3.353,254.087,254.087,0,0,0,41.222-10.71,254.3,254.3,0,0,1,41.523-10.753,242.616,242.616,0,0,1,40.265-3.369,256.393,256.393,0,0,1,32.722,2.137,290.762,290.762,0,0,1,32.015,6.033c10.19,2.506,20.752,5.654,31.39,9.359,9.934,3.46,20.314,7.537,30.852,12.118,18.3,7.956,38.068,17.85,60.437,30.249,19.918,11.04,39.955,22.97,59.332,34.507,18.845,11.22,38.332,22.822,57.512,33.481,21.48,11.938,40.369,21.445,57.748,29.065a366.921,366.921,0,0,0,58.6,20.479,268.191,268.191,0,0,0,29.818,5.722,232.562,232.562,0,0,0,30.271,2.022,216.7,216.7,0,0,0,38.642-3.47,226.73,226.73,0,0,0,39.665-11.091l.709,1.87a228.739,228.739,0,0,1-40.016,11.189,218.719,218.719,0,0,1-39,3.5,234.573,234.573,0,0,1-30.532-2.039,270.176,270.176,0,0,1-30.042-5.765,368.881,368.881,0,0,1-58.922-20.587c-17.436-7.646-36.381-17.181-57.916-29.149-19.206-10.674-38.706-22.283-57.564-33.511-19.364-11.529-39.387-23.451-59.279-34.476-22.313-12.368-42.026-22.235-60.265-30.164-10.492-4.561-20.825-8.62-30.712-12.064-10.579-3.684-21.08-6.815-31.21-9.306a288.777,288.777,0,0,0-31.793-5.991,254.4,254.4,0,0,0-32.466-2.121,240.588,240.588,0,0,0-39.932,3.341,252.3,252.3,0,0,0-41.2,10.668A256.079,256.079,0,0,1,599.768,461.3a239.811,239.811,0,0,1-40.047,3.381,249.833,249.833,0,0,1-31.924-2.083,280.31,280.31,0,0,1-31.136-5.886c-9.9-2.446-20.146-5.521-30.455-9.141-9.631-3.381-19.685-7.367-29.883-11.848-9.494-4.171-19.118-8.754-29.423-14.011-9.178-4.681-18.689-9.794-29.077-15.629-19.289-10.836-38.744-22.583-57.56-33.944s-38.251-23.1-57.518-33.92c-21.594-12.13-40.679-21.8-58.343-29.561-10.156-4.462-20.166-8.43-29.753-11.8-10.253-3.6-20.442-6.657-30.285-9.089a278.453,278.453,0,0,0-30.927-5.846,247.994,247.994,0,0,0-31.684-2.068Z" transform="translate(0.009 15.625)" fill="url(#linear-gradient)"/>
        <path id="Tracé_36041_-_Contour" data-name="Tracé 36041 - Contour" d="M81.753,297.74v2a238.006,238.006,0,0,0-39.867,3.377A254.481,254.481,0,0,0,.5,313.9l-.662-1.887A256.458,256.458,0,0,1,41.55,301.145,240.033,240.033,0,0,1,81.753,297.74Zm0,0a250,250,0,0,1,31.941,2.084,280.479,280.479,0,0,1,31.15,5.888c9.9,2.447,20.155,5.523,30.468,9.143,9.635,3.382,19.693,7.37,29.895,11.852,9.5,4.172,19.125,8.757,29.433,14.015,9.181,4.682,18.694,9.8,29.085,15.633,19.294,10.838,38.754,22.588,57.573,33.951,18.8,11.353,38.244,23.092,57.505,33.913,21.588,12.127,40.666,21.794,58.325,29.552,10.152,4.46,20.158,8.428,29.741,11.792,10.248,3.6,20.433,6.655,30.271,9.086a278.277,278.277,0,0,0,30.913,5.844,247.83,247.83,0,0,0,31.668,2.067,237.794,237.794,0,0,0,39.712-3.354,254.149,254.149,0,0,0,41.222-10.71,254.3,254.3,0,0,1,41.523-10.753,242.613,242.613,0,0,1,40.265-3.369,256.387,256.387,0,0,1,32.722,2.137,290.755,290.755,0,0,1,32.015,6.033c10.19,2.505,20.752,5.654,31.39,9.359,9.934,3.46,20.314,7.537,30.852,12.118,18.3,7.955,38.068,17.85,60.437,30.249,19.918,11.041,39.955,22.97,59.332,34.507C988.036,560,1007.523,571.6,1026.7,582.26c21.48,11.937,40.369,21.444,57.748,29.065a366.926,366.926,0,0,0,58.6,20.479,268.19,268.19,0,0,0,29.818,5.722,232.541,232.541,0,0,0,30.271,2.022,216.724,216.724,0,0,0,38.642-3.469,226.708,226.708,0,0,0,39.665-11.091l.709,1.87a228.715,228.715,0,0,1-40.016,11.188,218.734,218.734,0,0,1-39,3.5,234.573,234.573,0,0,1-30.532-2.039,270.217,270.217,0,0,1-30.042-5.765,368.9,368.9,0,0,1-58.922-20.587c-17.436-7.646-36.381-17.18-57.916-29.148-19.206-10.674-38.706-22.283-57.564-33.511-19.364-11.529-39.387-23.45-59.279-34.476-22.313-12.368-42.026-22.235-60.265-30.164-10.492-4.562-20.825-8.62-30.712-12.064-10.579-3.685-21.08-6.815-31.21-9.306a288.777,288.777,0,0,0-31.793-5.991,254.4,254.4,0,0,0-32.466-2.121,240.6,240.6,0,0,0-39.932,3.341,252.309,252.309,0,0,0-41.2,10.668,256.156,256.156,0,0,1-41.547,10.794,239.81,239.81,0,0,1-40.047,3.382,249.833,249.833,0,0,1-31.924-2.083,280.31,280.31,0,0,1-31.136-5.886c-9.9-2.446-20.146-5.521-30.455-9.141-9.631-3.381-19.685-7.367-29.883-11.848-9.494-4.171-19.118-8.754-29.423-14.011-9.178-4.681-18.689-9.794-29.077-15.629-19.289-10.836-38.744-22.583-57.56-33.944s-38.251-23.1-57.518-33.92c-21.594-12.13-40.679-21.8-58.343-29.561-10.156-4.462-20.166-8.43-29.753-11.8-10.253-3.6-20.442-6.657-30.285-9.089a278.453,278.453,0,0,0-30.927-5.846,247.994,247.994,0,0,0-31.684-2.068Z" transform="translate(0.009 16.739)" fill="url(#linear-gradient)"/>
        <path id="Tracé_36042_-_Contour" data-name="Tracé 36042 - Contour" d="M81.753,317.622v2A238,238,0,0,0,41.886,323,254.422,254.422,0,0,0,.5,333.786L-.165,331.9A256.447,256.447,0,0,1,41.55,321.027,240.014,240.014,0,0,1,81.753,317.622Zm0,0a250,250,0,0,1,31.941,2.084,280.479,280.479,0,0,1,31.15,5.888c9.9,2.447,20.155,5.523,30.468,9.143,9.635,3.382,19.693,7.37,29.895,11.852,9.5,4.172,19.125,8.757,29.433,14.014,9.181,4.683,18.694,9.8,29.085,15.633,19.294,10.838,38.754,22.588,57.573,33.951,18.8,11.353,38.244,23.092,57.505,33.913,21.588,12.127,40.666,21.794,58.325,29.552,10.152,4.46,20.158,8.428,29.741,11.792,10.248,3.6,20.433,6.655,30.271,9.086a278.284,278.284,0,0,0,30.913,5.844,247.835,247.835,0,0,0,31.668,2.067,237.817,237.817,0,0,0,39.712-3.353,254.124,254.124,0,0,0,41.222-10.709l.661,1.888a256.126,256.126,0,0,1-41.547,10.793,239.819,239.819,0,0,1-40.047,3.381,249.833,249.833,0,0,1-31.924-2.083,280.31,280.31,0,0,1-31.136-5.886c-9.9-2.446-20.146-5.521-30.455-9.141-9.631-3.381-19.685-7.367-29.883-11.848-9.494-4.171-19.118-8.754-29.423-14.011-9.178-4.681-18.689-9.794-29.077-15.629-19.289-10.836-38.744-22.583-57.56-33.944s-38.251-23.1-57.518-33.92c-21.594-12.13-40.679-21.8-58.343-29.56-10.156-4.462-20.166-8.43-29.753-11.8-10.253-3.6-20.442-6.657-30.285-9.089a278.467,278.467,0,0,0-30.927-5.846,247.994,247.994,0,0,0-31.684-2.068Zm640.69,156.636a256.393,256.393,0,0,1,32.722,2.137,290.762,290.762,0,0,1,32.015,6.033c10.19,2.506,20.752,5.654,31.39,9.359,9.934,3.46,20.314,7.537,30.852,12.118,18.3,7.956,38.068,17.85,60.437,30.249,19.918,11.04,39.955,22.97,59.332,34.507,18.157,10.81,36.933,21.989,55.408,32.309,20.692,11.559,38.881,20.833,55.606,28.352a384.745,384.745,0,0,0,56.358,20.664,280.069,280.069,0,0,0,28.635,6.289,240.186,240.186,0,0,0,29.036,2.977c2.966.118,5.964.178,8.909.178a216.724,216.724,0,0,0,38.642-3.469,226.708,226.708,0,0,0,39.665-11.091l.709,1.87a228.715,228.715,0,0,1-40.016,11.188,218.734,218.734,0,0,1-39,3.5c-2.972,0-6-.06-8.989-.18a242.172,242.172,0,0,1-29.279-3,282.086,282.086,0,0,1-28.841-6.334,386.721,386.721,0,0,1-56.651-20.769c-16.778-7.544-35.018-16.843-55.761-28.43-18.5-10.334-37.287-21.519-55.456-32.337-19.364-11.529-39.387-23.45-59.278-34.476-22.313-12.368-42.026-22.234-60.265-30.164-10.492-4.561-20.825-8.62-30.712-12.064-10.58-3.684-21.08-6.815-31.21-9.306a288.775,288.775,0,0,0-31.794-5.991,254.4,254.4,0,0,0-32.466-2.121l-1.076,0a240.505,240.505,0,0,0-39.41,3.433,252.5,252.5,0,0,0-40.641,10.575l-.661-1.888a254.438,254.438,0,0,1,40.964-10.659,242.518,242.518,0,0,1,39.739-3.462Z" transform="translate(0.009 17.853)" fill="url(#linear-gradient)"/>
        <path id="Tracé_36043_-_Contour" data-name="Tracé 36043 - Contour" d="M81.753,337.505v2a238.006,238.006,0,0,0-39.867,3.377A254.481,254.481,0,0,0,.5,353.668l-.662-1.887A256.464,256.464,0,0,1,41.55,340.91,240.033,240.033,0,0,1,81.753,337.505Zm0,0a250,250,0,0,1,31.941,2.084,280.494,280.494,0,0,1,31.15,5.888c9.9,2.447,20.155,5.523,30.468,9.143,9.635,3.382,19.693,7.37,29.895,11.852,9.5,4.172,19.125,8.757,29.433,14.015,9.181,4.683,18.694,9.8,29.085,15.633,19.294,10.838,38.754,22.588,57.573,33.951,18.8,11.353,38.244,23.092,57.505,33.912,21.588,12.127,40.666,21.794,58.325,29.552,10.152,4.46,20.158,8.428,29.741,11.792,10.248,3.6,20.433,6.655,30.271,9.086a278.3,278.3,0,0,0,30.913,5.844,247.841,247.841,0,0,0,31.668,2.067,237.812,237.812,0,0,0,39.712-3.353,254.087,254.087,0,0,0,41.222-10.71,254.3,254.3,0,0,1,41.523-10.753,242.613,242.613,0,0,1,40.265-3.369,256.393,256.393,0,0,1,32.722,2.137,290.748,290.748,0,0,1,32.015,6.033c10.19,2.505,20.752,5.654,31.39,9.359,9.934,3.46,20.314,7.537,30.852,12.118,18.3,7.956,38.068,17.85,60.437,30.249,19.918,11.04,39.955,22.97,59.332,34.507,18.845,11.22,38.332,22.822,57.512,33.481,21.48,11.938,40.369,21.445,57.748,29.065a366.921,366.921,0,0,0,58.6,20.479,268.191,268.191,0,0,0,29.818,5.722,232.562,232.562,0,0,0,30.271,2.022,216.7,216.7,0,0,0,38.642-3.47,226.73,226.73,0,0,0,39.665-11.091l.709,1.87a228.739,228.739,0,0,1-40.016,11.189,218.719,218.719,0,0,1-39,3.5,234.573,234.573,0,0,1-30.532-2.039,270.176,270.176,0,0,1-30.042-5.765,368.881,368.881,0,0,1-58.922-20.587c-17.436-7.646-36.381-17.181-57.916-29.149-19.206-10.674-38.706-22.283-57.564-33.511-19.364-11.529-39.387-23.451-59.279-34.476-22.313-12.368-42.026-22.235-60.265-30.164-10.492-4.562-20.825-8.62-30.712-12.064-10.579-3.684-21.08-6.815-31.21-9.306a288.756,288.756,0,0,0-31.793-5.991,254.4,254.4,0,0,0-32.466-2.121,240.581,240.581,0,0,0-39.932,3.341,252.3,252.3,0,0,0-41.2,10.668,256.083,256.083,0,0,1-41.547,10.794,239.814,239.814,0,0,1-40.047,3.381,249.844,249.844,0,0,1-31.924-2.083,280.318,280.318,0,0,1-31.136-5.886c-9.9-2.446-20.146-5.521-30.455-9.141-9.631-3.381-19.685-7.367-29.883-11.848-9.494-4.171-19.118-8.754-29.423-14.011-9.178-4.681-18.689-9.794-29.077-15.629-19.289-10.836-38.744-22.583-57.56-33.944s-38.251-23.1-57.518-33.92c-21.594-12.13-40.679-21.8-58.343-29.561-10.156-4.462-20.166-8.43-29.753-11.8-10.253-3.6-20.442-6.657-30.285-9.089a278.453,278.453,0,0,0-30.927-5.846,247.994,247.994,0,0,0-31.684-2.068Z" transform="translate(0.009 18.967)" fill="url(#linear-gradient)"/>
        <path id="Tracé_36044_-_Contour" data-name="Tracé 36044 - Contour" d="M81.753,357.387v2a237.983,237.983,0,0,0-39.867,3.377,254.1,254.1,0,0,0-40.2,10.372q-.6.206-1.19.415h0l-.662-1.887A256.447,256.447,0,0,1,41.55,360.792,240.014,240.014,0,0,1,81.753,357.387Zm0,0a250,250,0,0,1,31.941,2.084,280.479,280.479,0,0,1,31.15,5.888c9.9,2.447,20.155,5.523,30.468,9.143,9.635,3.382,19.693,7.37,29.895,11.852,9.5,4.172,19.125,8.757,29.433,14.014,9.181,4.683,18.694,9.8,29.085,15.633,19.294,10.838,38.754,22.588,57.573,33.951,18.8,11.353,38.244,23.092,57.505,33.913,21.588,12.127,40.666,21.794,58.325,29.552,10.152,4.46,20.158,8.428,29.741,11.792,10.248,3.6,20.433,6.655,30.271,9.086a278.284,278.284,0,0,0,30.913,5.844,247.83,247.83,0,0,0,31.668,2.067,237.817,237.817,0,0,0,39.712-3.353,254.122,254.122,0,0,0,41.222-10.709,254.319,254.319,0,0,1,41.523-10.753,242.616,242.616,0,0,1,40.265-3.369,256.382,256.382,0,0,1,32.722,2.137,290.748,290.748,0,0,1,32.015,6.033c10.19,2.505,20.752,5.654,31.39,9.359,9.934,3.46,20.314,7.537,30.852,12.118,18.3,7.956,38.068,17.85,60.437,30.249,19.918,11.04,39.955,22.97,59.332,34.507,18.845,11.22,38.332,22.822,57.512,33.481,21.48,11.937,40.369,21.444,57.748,29.065a366.926,366.926,0,0,0,58.6,20.479,268.2,268.2,0,0,0,29.818,5.722,232.552,232.552,0,0,0,30.271,2.022,216.724,216.724,0,0,0,38.642-3.469,226.708,226.708,0,0,0,39.665-11.091l.709,1.87a228.715,228.715,0,0,1-40.016,11.188,218.734,218.734,0,0,1-39,3.5,234.573,234.573,0,0,1-30.532-2.039,270.231,270.231,0,0,1-30.042-5.765,368.906,368.906,0,0,1-58.922-20.587c-17.436-7.646-36.381-17.18-57.916-29.148-19.206-10.674-38.706-22.283-57.564-33.511C948.8,598.617,928.78,586.7,908.889,575.67c-22.313-12.368-42.026-22.235-60.265-30.164-10.492-4.561-20.825-8.62-30.712-12.063-10.579-3.685-21.08-6.815-31.21-9.306a288.784,288.784,0,0,0-31.793-5.991,254.4,254.4,0,0,0-32.466-2.121,240.608,240.608,0,0,0-39.932,3.341,252.312,252.312,0,0,0-41.2,10.668,256.106,256.106,0,0,1-41.547,10.793,239.819,239.819,0,0,1-40.047,3.381,249.833,249.833,0,0,1-31.924-2.083,280.3,280.3,0,0,1-31.136-5.886c-9.9-2.446-20.146-5.521-30.455-9.14-9.631-3.381-19.685-7.368-29.883-11.848-9.494-4.171-19.118-8.754-29.423-14.011-9.178-4.681-18.689-9.794-29.077-15.629-19.289-10.836-38.744-22.583-57.56-33.944s-38.251-23.1-57.518-33.92c-21.594-12.13-40.679-21.8-58.343-29.56-10.156-4.462-20.166-8.43-29.753-11.8-10.253-3.6-20.442-6.657-30.285-9.089a278.467,278.467,0,0,0-30.927-5.846,247.994,247.994,0,0,0-31.684-2.068Z" transform="translate(0.009 20.081)" fill="url(#linear-gradient)"/>
        <path id="Tracé_36045_-_Contour" data-name="Tracé 36045 - Contour" d="M81.753,377.27v2a238.016,238.016,0,0,0-39.867,3.377A254.472,254.472,0,0,0,.5,393.433l-.662-1.887A256.461,256.461,0,0,1,41.55,380.675,240.037,240.037,0,0,1,81.753,377.27Zm0,0a250,250,0,0,1,31.941,2.084,280.479,280.479,0,0,1,31.15,5.888c9.9,2.447,20.155,5.523,30.468,9.143,9.635,3.382,19.693,7.37,29.895,11.852,9.5,4.172,19.125,8.757,29.433,14.014,9.181,4.683,18.694,9.8,29.085,15.633,19.294,10.838,38.754,22.588,57.573,33.951,18.8,11.353,38.244,23.092,57.505,33.913,21.588,12.127,40.666,21.794,58.325,29.552,10.152,4.46,20.158,8.428,29.741,11.792,10.248,3.6,20.433,6.655,30.271,9.086a278.284,278.284,0,0,0,30.913,5.844,247.83,247.83,0,0,0,31.668,2.067,237.812,237.812,0,0,0,39.712-3.353,254.078,254.078,0,0,0,41.222-10.71,254.3,254.3,0,0,1,41.523-10.753,242.613,242.613,0,0,1,40.265-3.369,256.382,256.382,0,0,1,32.722,2.137,290.748,290.748,0,0,1,32.015,6.033c10.19,2.505,20.752,5.654,31.39,9.359,9.934,3.46,20.314,7.537,30.852,12.118,18.3,7.956,38.068,17.85,60.437,30.249,19.918,11.041,39.955,22.97,59.332,34.507,18.845,11.22,38.332,22.822,57.512,33.481,21.48,11.938,40.369,21.445,57.748,29.065a366.916,366.916,0,0,0,58.6,20.479,268.177,268.177,0,0,0,29.818,5.722,232.563,232.563,0,0,0,30.271,2.022,216.7,216.7,0,0,0,38.642-3.469,226.665,226.665,0,0,0,39.665-11.092l.709,1.87a228.689,228.689,0,0,1-40.016,11.189,218.712,218.712,0,0,1-39,3.5,234.562,234.562,0,0,1-30.532-2.039,270.176,270.176,0,0,1-30.042-5.765,368.876,368.876,0,0,1-58.922-20.587c-17.436-7.646-36.381-17.181-57.916-29.149-19.206-10.673-38.706-22.283-57.564-33.511C948.8,618.5,928.78,606.578,908.889,595.552c-22.313-12.368-42.026-22.235-60.265-30.164-10.492-4.562-20.825-8.62-30.712-12.064-10.579-3.684-21.08-6.815-31.21-9.306a288.784,288.784,0,0,0-31.793-5.991,254.4,254.4,0,0,0-32.466-2.121,240.588,240.588,0,0,0-39.932,3.341,252.3,252.3,0,0,0-41.2,10.668,256.083,256.083,0,0,1-41.547,10.794,239.814,239.814,0,0,1-40.047,3.381,249.833,249.833,0,0,1-31.924-2.083,280.3,280.3,0,0,1-31.136-5.886c-9.9-2.446-20.146-5.521-30.455-9.14-9.631-3.381-19.685-7.368-29.883-11.848-9.494-4.171-19.118-8.754-29.423-14.011-9.178-4.681-18.689-9.794-29.077-15.629-19.289-10.836-38.744-22.583-57.56-33.944s-38.251-23.1-57.518-33.92c-21.594-12.13-40.679-21.8-58.343-29.56-10.156-4.462-20.166-8.43-29.753-11.8-10.253-3.6-20.442-6.657-30.285-9.089a278.467,278.467,0,0,0-30.927-5.846,247.994,247.994,0,0,0-31.684-2.068Z" transform="translate(0.009 21.196)" fill="url(#linear-gradient)"/>
        <path id="Tracé_36046_-_Contour" data-name="Tracé 36046 - Contour" d="M81.753,397.153v2a238.016,238.016,0,0,0-39.867,3.377A254.472,254.472,0,0,0,.5,413.316l-.662-1.887A256.455,256.455,0,0,1,41.55,400.558,240.031,240.031,0,0,1,81.753,397.153Zm0,0a250,250,0,0,1,31.941,2.084,280.479,280.479,0,0,1,31.15,5.888c9.9,2.447,20.155,5.523,30.468,9.143,9.635,3.382,19.693,7.37,29.895,11.852,9.5,4.172,19.125,8.757,29.433,14.014,9.181,4.683,18.694,9.8,29.085,15.633,19.294,10.838,38.754,22.588,57.573,33.951,18.8,11.353,38.244,23.092,57.505,33.912,21.588,12.127,40.666,21.794,58.325,29.552,10.152,4.46,20.158,8.428,29.741,11.792,10.248,3.6,20.433,6.655,30.271,9.086a278.27,278.27,0,0,0,30.913,5.844,247.83,247.83,0,0,0,31.668,2.067,237.794,237.794,0,0,0,39.712-3.353,254.153,254.153,0,0,0,41.222-10.71,254.312,254.312,0,0,1,41.523-10.753,242.609,242.609,0,0,1,40.265-3.369,256.393,256.393,0,0,1,32.722,2.137,290.763,290.763,0,0,1,32.015,6.033c10.19,2.505,20.752,5.654,31.39,9.359,9.934,3.46,20.314,7.537,30.852,12.118,18.3,7.956,38.068,17.85,60.437,30.249,19.918,11.04,39.955,22.97,59.332,34.506,18.845,11.22,38.332,22.822,57.512,33.481,21.48,11.937,40.369,21.445,57.748,29.065a366.914,366.914,0,0,0,58.6,20.479,268.177,268.177,0,0,0,29.818,5.722,232.563,232.563,0,0,0,30.271,2.022,216.724,216.724,0,0,0,38.642-3.469,226.714,226.714,0,0,0,39.665-11.091l.709,1.87a228.7,228.7,0,0,1-40.016,11.188,218.729,218.729,0,0,1-39,3.5,234.573,234.573,0,0,1-30.532-2.039,270.217,270.217,0,0,1-30.042-5.765,368.893,368.893,0,0,1-58.922-20.587c-17.436-7.646-36.381-17.181-57.916-29.149-19.206-10.674-38.706-22.283-57.564-33.511-19.364-11.529-39.387-23.45-59.279-34.476-22.313-12.368-42.026-22.235-60.265-30.164-10.492-4.561-20.825-8.62-30.712-12.063-10.579-3.685-21.08-6.815-31.21-9.306a288.77,288.77,0,0,0-31.793-5.991,254.4,254.4,0,0,0-32.466-2.121,240.608,240.608,0,0,0-39.932,3.341,252.312,252.312,0,0,0-41.2,10.668,256.131,256.131,0,0,1-41.547,10.794,239.809,239.809,0,0,1-40.047,3.382A249.833,249.833,0,0,1,527.8,581.89,280.317,280.317,0,0,1,496.66,576c-9.9-2.446-20.146-5.521-30.455-9.141-9.631-3.381-19.685-7.367-29.883-11.848C426.829,550.844,417.2,546.261,406.9,541c-9.178-4.681-18.689-9.794-29.077-15.629-19.289-10.836-38.744-22.583-57.56-33.944s-38.251-23.1-57.518-33.92c-21.594-12.13-40.679-21.8-58.343-29.56-10.156-4.462-20.166-8.43-29.753-11.8-10.253-3.6-20.442-6.657-30.285-9.089a278.453,278.453,0,0,0-30.927-5.846,247.994,247.994,0,0,0-31.684-2.068Z" transform="translate(0.009 22.31)" fill="url(#linear-gradient)"/>
        <path id="Tracé_36047_-_Contour" data-name="Tracé 36047 - Contour" d="M81.753,417.035v2a238,238,0,0,0-39.867,3.377A254.422,254.422,0,0,0,.5,433.2l-.663-1.887A256.447,256.447,0,0,1,41.55,420.44,240.014,240.014,0,0,1,81.753,417.035Zm0,0a250,250,0,0,1,31.941,2.084,280.479,280.479,0,0,1,31.15,5.888c9.9,2.447,20.155,5.523,30.468,9.143,9.635,3.382,19.693,7.37,29.895,11.852,9.5,4.172,19.125,8.757,29.433,14.014,9.181,4.683,18.694,9.8,29.085,15.633,19.294,10.838,38.754,22.588,57.573,33.951,18.8,11.353,38.244,23.092,57.505,33.913,21.588,12.127,40.666,21.794,58.325,29.552,10.152,4.46,20.158,8.428,29.741,11.792,10.248,3.6,20.433,6.655,30.271,9.086a278.284,278.284,0,0,0,30.913,5.844,247.83,247.83,0,0,0,31.668,2.067,237.817,237.817,0,0,0,39.712-3.353,254.122,254.122,0,0,0,41.222-10.709,254.328,254.328,0,0,1,41.523-10.753,242.619,242.619,0,0,1,40.265-3.369,256.382,256.382,0,0,1,32.722,2.137,290.748,290.748,0,0,1,32.015,6.033c10.19,2.505,20.752,5.654,31.39,9.359,9.934,3.46,20.314,7.537,30.852,12.118,18.3,7.956,38.068,17.85,60.437,30.249,19.918,11.04,39.955,22.97,59.332,34.506,18.845,11.22,38.332,22.822,57.512,33.481,21.48,11.937,40.369,21.445,57.748,29.065a366.92,366.92,0,0,0,58.6,20.478,268.177,268.177,0,0,0,29.818,5.722,232.563,232.563,0,0,0,30.271,2.022,216.724,216.724,0,0,0,38.642-3.469,226.719,226.719,0,0,0,39.665-11.091l.709,1.87a228.71,228.71,0,0,1-40.016,11.188,218.729,218.729,0,0,1-39,3.5,234.562,234.562,0,0,1-30.532-2.039,270.2,270.2,0,0,1-30.042-5.765,368.893,368.893,0,0,1-58.922-20.587c-17.436-7.646-36.381-17.181-57.916-29.149-19.206-10.674-38.706-22.283-57.564-33.511-19.364-11.529-39.387-23.45-59.279-34.476-22.313-12.368-42.026-22.235-60.265-30.164-10.492-4.561-20.825-8.62-30.712-12.063-10.579-3.685-21.08-6.815-31.21-9.306a288.784,288.784,0,0,0-31.793-5.991,254.4,254.4,0,0,0-32.466-2.121,240.59,240.59,0,0,0-39.932,3.341,252.316,252.316,0,0,0-41.2,10.668,256.106,256.106,0,0,1-41.547,10.793,239.819,239.819,0,0,1-40.047,3.381,249.833,249.833,0,0,1-31.924-2.083,280.3,280.3,0,0,1-31.136-5.886c-9.9-2.446-20.146-5.521-30.455-9.14-9.631-3.381-19.685-7.368-29.883-11.848-9.494-4.171-19.118-8.754-29.423-14.011-9.178-4.681-18.689-9.794-29.077-15.629-19.289-10.836-38.744-22.583-57.56-33.944s-38.251-23.1-57.518-33.92c-21.594-12.13-40.679-21.8-58.343-29.56-10.156-4.462-20.166-8.43-29.753-11.8-10.253-3.6-20.442-6.657-30.285-9.089a278.467,278.467,0,0,0-30.927-5.846,247.994,247.994,0,0,0-31.684-2.068Z" transform="translate(0.009 23.424)" fill="url(#linear-gradient)"/>
        <path id="Tracé_36048_-_Contour" data-name="Tracé 36048 - Contour" d="M81.753,436.918v2a238.017,238.017,0,0,0-39.867,3.377A254.474,254.474,0,0,0,.5,453.081l-.662-1.887A256.482,256.482,0,0,1,41.55,440.323,240.037,240.037,0,0,1,81.753,436.918Zm0,0A250,250,0,0,1,113.693,439a280.479,280.479,0,0,1,31.15,5.888c9.9,2.447,20.155,5.523,30.468,9.143,9.635,3.382,19.693,7.37,29.895,11.852,9.5,4.172,19.125,8.757,29.433,14.014,9.181,4.683,18.694,9.8,29.085,15.633,19.294,10.838,38.754,22.588,57.573,33.951,18.8,11.353,38.244,23.092,57.505,33.913,21.588,12.127,40.666,21.794,58.325,29.552,10.152,4.46,20.158,8.428,29.741,11.792,10.248,3.6,20.433,6.655,30.271,9.086a278.284,278.284,0,0,0,30.913,5.844,247.83,247.83,0,0,0,31.668,2.067,237.812,237.812,0,0,0,39.712-3.353,254.078,254.078,0,0,0,41.222-10.71,254.3,254.3,0,0,1,41.523-10.753,242.613,242.613,0,0,1,40.265-3.369,256.382,256.382,0,0,1,32.722,2.137,290.748,290.748,0,0,1,32.015,6.033c10.19,2.505,20.752,5.654,31.39,9.359,9.934,3.46,20.314,7.537,30.852,12.118,18.3,7.956,38.068,17.85,60.437,30.249,19.918,11.041,39.955,22.97,59.332,34.507,18.845,11.22,38.332,22.822,57.512,33.481,21.48,11.938,40.369,21.445,57.748,29.065a366.928,366.928,0,0,0,58.6,20.479,268.2,268.2,0,0,0,29.818,5.722,232.552,232.552,0,0,0,30.271,2.022,216.7,216.7,0,0,0,38.642-3.47,226.725,226.725,0,0,0,39.665-11.091l.709,1.87a228.739,228.739,0,0,1-40.016,11.189,218.719,218.719,0,0,1-39,3.5,234.573,234.573,0,0,1-30.532-2.039,270.176,270.176,0,0,1-30.042-5.765,368.881,368.881,0,0,1-58.922-20.587c-17.436-7.646-36.381-17.181-57.916-29.149-19.206-10.674-38.706-22.283-57.564-33.511C948.8,678.147,928.78,666.226,908.889,655.2c-22.313-12.368-42.026-22.235-60.265-30.164-10.492-4.562-20.825-8.62-30.712-12.064-10.579-3.684-21.08-6.815-31.21-9.306a288.784,288.784,0,0,0-31.793-5.991,254.4,254.4,0,0,0-32.466-2.121,240.588,240.588,0,0,0-39.932,3.341,252.3,252.3,0,0,0-41.2,10.668,256.083,256.083,0,0,1-41.547,10.794,239.814,239.814,0,0,1-40.047,3.381,249.833,249.833,0,0,1-31.924-2.083,280.3,280.3,0,0,1-31.136-5.886c-9.9-2.446-20.146-5.521-30.455-9.14-9.631-3.381-19.685-7.368-29.883-11.848-9.494-4.171-19.118-8.754-29.423-14.011-9.178-4.681-18.689-9.794-29.077-15.629-19.289-10.836-38.744-22.583-57.56-33.944s-38.251-23.1-57.518-33.92c-21.594-12.13-40.679-21.8-58.343-29.56-10.156-4.462-20.166-8.43-29.753-11.8-10.253-3.6-20.442-6.657-30.285-9.089a278.467,278.467,0,0,0-30.927-5.846,247.994,247.994,0,0,0-31.684-2.068Z" transform="translate(0.009 24.538)" fill="url(#linear-gradient)"/>
        <path id="Tracé_36049_-_Contour" data-name="Tracé 36049 - Contour" d="M81.753,456.8v2a238.016,238.016,0,0,0-39.867,3.377A254.472,254.472,0,0,0,.5,472.964l-.662-1.887A256.455,256.455,0,0,1,41.55,460.206,240.031,240.031,0,0,1,81.753,456.8Zm0,0a250,250,0,0,1,31.941,2.084,280.451,280.451,0,0,1,31.15,5.888c9.9,2.447,20.155,5.523,30.468,9.143,9.635,3.382,19.693,7.37,29.895,11.852,9.5,4.172,19.125,8.757,29.433,14.015,9.181,4.683,18.694,9.8,29.085,15.633C283.018,526.254,302.478,538,321.3,549.367c18.8,11.353,38.244,23.092,57.505,33.912,21.588,12.127,40.667,21.794,58.325,29.552,10.152,4.46,20.158,8.428,29.741,11.792,10.249,3.6,20.433,6.655,30.272,9.086a278.283,278.283,0,0,0,30.913,5.844,247.83,247.83,0,0,0,31.668,2.067,237.758,237.758,0,0,0,38.49-3.148c7.5-1.234,15.045-2.849,22.581-4.83l.04-.011.045-.012q8.645-2.276,17.237-5.185l.519-.176,1.038-.356.363-.126.622-.217a254.3,254.3,0,0,1,41.523-10.753,242.613,242.613,0,0,1,40.265-3.369,256.393,256.393,0,0,1,32.722,2.137,290.763,290.763,0,0,1,32.015,6.033c10.19,2.505,20.752,5.654,31.39,9.359,9.934,3.46,20.314,7.537,30.852,12.118,18.3,7.956,38.068,17.85,60.437,30.249,19.918,11.04,39.955,22.97,59.332,34.506,18.845,11.22,38.332,22.822,57.512,33.481,21.48,11.937,40.369,21.445,57.748,29.065a366.926,366.926,0,0,0,58.6,20.479,268.19,268.19,0,0,0,29.818,5.722,232.541,232.541,0,0,0,30.271,2.022,216.724,216.724,0,0,0,38.642-3.469,226.708,226.708,0,0,0,39.665-11.091l.709,1.87a228.715,228.715,0,0,1-40.016,11.188,218.734,218.734,0,0,1-39,3.5,234.573,234.573,0,0,1-30.532-2.039,270.217,270.217,0,0,1-30.042-5.765,368.9,368.9,0,0,1-58.922-20.587c-17.436-7.646-36.381-17.18-57.916-29.148-19.206-10.674-38.706-22.283-57.564-33.511-19.364-11.529-39.387-23.45-59.279-34.476-22.313-12.368-42.026-22.235-60.265-30.164-10.492-4.561-20.825-8.62-30.712-12.063-10.579-3.685-21.08-6.815-31.21-9.306a288.77,288.77,0,0,0-31.793-5.991,254.4,254.4,0,0,0-32.466-2.121,240.588,240.588,0,0,0-39.932,3.341,252.3,252.3,0,0,0-41.2,10.668l-.626.218-.366.127c-.519.18-1.047.36-1.568.537a254.7,254.7,0,0,1-40.214,10.117,239.689,239.689,0,0,1-38.81,3.176h-.011a249.835,249.835,0,0,1-31.924-2.083,280.274,280.274,0,0,1-31.136-5.886c-9.9-2.446-20.146-5.521-30.454-9.14-9.631-3.381-19.685-7.368-29.883-11.848-9.494-4.171-19.119-8.754-29.424-14.011-9.178-4.681-18.689-9.794-29.077-15.629-19.289-10.836-38.745-22.583-57.56-33.944s-38.251-23.1-57.518-33.919c-21.594-12.131-40.678-21.8-58.343-29.561-10.156-4.461-20.166-8.43-29.752-11.8-10.253-3.6-20.442-6.657-30.285-9.089a278.411,278.411,0,0,0-30.927-5.846A247.991,247.991,0,0,0,81.753,458.8Z" transform="translate(0.009 25.652)" fill="url(#linear-gradient)"/>
        <path id="Tracé_36050_-_Contour" data-name="Tracé 36050 - Contour" d="M81.753,476.683v2a238,238,0,0,0-39.867,3.377A254.422,254.422,0,0,0,.5,492.847l-.663-1.887A256.447,256.447,0,0,1,41.55,480.088,240.014,240.014,0,0,1,81.753,476.683Zm0,0a250,250,0,0,1,31.941,2.084,280.479,280.479,0,0,1,31.15,5.888c9.9,2.447,20.155,5.523,30.468,9.143,9.635,3.382,19.693,7.37,29.895,11.852,9.5,4.172,19.125,8.757,29.433,14.014,9.181,4.683,18.694,9.8,29.085,15.633,19.294,10.838,38.754,22.588,57.573,33.951,18.8,11.353,38.244,23.092,57.505,33.913,21.588,12.127,40.666,21.794,58.325,29.552,10.152,4.46,20.158,8.428,29.741,11.792,10.248,3.6,20.433,6.655,30.271,9.086a278.284,278.284,0,0,0,30.913,5.844A247.83,247.83,0,0,0,559.72,661.5a237.817,237.817,0,0,0,39.712-3.353,254.122,254.122,0,0,0,41.222-10.709,254.332,254.332,0,0,1,41.523-10.753,242.589,242.589,0,0,1,40.265-3.369h.629a256.65,256.65,0,0,1,32.093,2.136,290.75,290.75,0,0,1,32.015,6.033c10.191,2.505,20.752,5.654,31.39,9.359,9.934,3.46,20.314,7.537,30.851,12.118,18.3,7.956,38.068,17.85,60.437,30.249,19.918,11.041,39.955,22.97,59.332,34.507,18.157,10.811,36.933,21.989,55.409,32.309,20.692,11.558,38.881,20.832,55.606,28.352a384.762,384.762,0,0,0,56.359,20.664,280.05,280.05,0,0,0,28.636,6.289,242.353,242.353,0,0,0,25.127,2.787q1.962.112,3.909.19c2.966.118,5.964.178,8.909.178a216.717,216.717,0,0,0,38.641-3.469,226.707,226.707,0,0,0,39.665-11.091l.709,1.87a228.713,228.713,0,0,1-40.016,11.188,218.729,218.729,0,0,1-39,3.5c-2.972,0-6-.06-8.989-.18a242.172,242.172,0,0,1-29.279-3,282.076,282.076,0,0,1-28.841-6.334,386.721,386.721,0,0,1-56.651-20.769c-16.778-7.544-35.018-16.843-55.761-28.43-18.5-10.334-37.288-21.52-55.457-32.337-19.364-11.529-39.387-23.45-59.278-34.476-22.313-12.368-42.026-22.234-60.265-30.164-10.492-4.561-20.825-8.62-30.712-12.064-10.579-3.684-21.08-6.815-31.21-9.306a288.764,288.764,0,0,0-31.793-5.992,254.4,254.4,0,0,0-32.466-2.121,240.566,240.566,0,0,0-39.932,3.341,252.321,252.321,0,0,0-41.2,10.669,256.106,256.106,0,0,1-41.547,10.793A239.819,239.819,0,0,1,559.72,663.5,249.833,249.833,0,0,1,527.8,661.42a280.3,280.3,0,0,1-31.136-5.886c-9.9-2.446-20.146-5.521-30.455-9.14-9.631-3.381-19.685-7.368-29.883-11.848-9.494-4.171-19.118-8.754-29.423-14.011-9.178-4.681-18.689-9.794-29.077-15.629-19.289-10.836-38.744-22.583-57.56-33.944s-38.251-23.1-57.518-33.92c-21.594-12.13-40.679-21.8-58.343-29.56-10.156-4.462-20.166-8.43-29.753-11.8-10.253-3.6-20.442-6.657-30.285-9.089a278.467,278.467,0,0,0-30.927-5.846,247.994,247.994,0,0,0-31.684-2.068Z" transform="translate(0.009 26.766)" fill="url(#linear-gradient)"/>
        <path id="Tracé_36051_-_Contour" data-name="Tracé 36051 - Contour" d="M81.753,496.566v2a238.016,238.016,0,0,0-39.867,3.377A254.472,254.472,0,0,0,.5,512.729l-.662-1.887A256.461,256.461,0,0,1,41.55,499.971,240.037,240.037,0,0,1,81.753,496.566Zm0,0a250,250,0,0,1,31.941,2.084,280.479,280.479,0,0,1,31.15,5.888c9.9,2.447,20.155,5.523,30.468,9.143,9.635,3.382,19.693,7.37,29.895,11.852,9.5,4.172,19.125,8.757,29.433,14.014,9.181,4.683,18.694,9.8,29.085,15.633,19.294,10.838,38.754,22.588,57.573,33.951,18.8,11.353,38.244,23.092,57.505,33.913,21.588,12.127,40.666,21.794,58.325,29.552,10.152,4.46,20.158,8.428,29.741,11.792,10.248,3.6,20.433,6.655,30.271,9.086a278.284,278.284,0,0,0,30.913,5.844,247.83,247.83,0,0,0,31.668,2.067,237.814,237.814,0,0,0,39.712-3.353,254.071,254.071,0,0,0,41.222-10.71,254.3,254.3,0,0,1,41.523-10.753,242.613,242.613,0,0,1,40.265-3.369l.881,0a256.754,256.754,0,0,1,31.841,2.136,290.75,290.75,0,0,1,32.015,6.033c10.191,2.505,20.752,5.654,31.39,9.359,9.934,3.46,20.314,7.537,30.851,12.118,18.3,7.956,38.068,17.85,60.437,30.249,19.918,11.041,39.955,22.97,59.332,34.507,18.845,11.22,38.332,22.822,57.512,33.481,21.48,11.937,40.37,21.445,57.748,29.065a366.932,366.932,0,0,0,58.6,20.479,268.2,268.2,0,0,0,29.818,5.722,233.1,233.1,0,0,0,29.109,2.019q.582,0,1.162,0a216.728,216.728,0,0,0,37.873-3.331,225.969,225.969,0,0,0,38.854-10.637l.352.936-.344-.939.448-.167.367-.138.406-.153.349-.132.709,1.87-.352.133-.409.154-.371.139-.452.168,0,0-.7-1.874.7,1.875a227.954,227.954,0,0,1-39.194,10.73,218.659,218.659,0,0,1-38.219,3.363h-.009a234.567,234.567,0,0,1-30.533-2.039,270.207,270.207,0,0,1-30.042-5.765,368.892,368.892,0,0,1-58.923-20.587c-17.436-7.646-36.381-17.181-57.916-29.149-19.206-10.674-38.706-22.284-57.564-33.511-19.364-11.529-39.387-23.45-59.278-34.476-22.313-12.368-42.026-22.234-60.265-30.164-10.492-4.561-20.825-8.62-30.712-12.063-10.579-3.685-21.08-6.815-31.21-9.306a288.777,288.777,0,0,0-31.793-5.991,254.394,254.394,0,0,0-32.466-2.121,240.588,240.588,0,0,0-39.932,3.341,252.317,252.317,0,0,0-41.2,10.668,256.083,256.083,0,0,1-41.547,10.794,239.833,239.833,0,0,1-40.047,3.381A249.833,249.833,0,0,1,527.8,681.3a280.3,280.3,0,0,1-31.136-5.886c-9.9-2.446-20.146-5.521-30.455-9.14-9.631-3.381-19.685-7.368-29.883-11.848-9.494-4.171-19.118-8.754-29.423-14.011-9.178-4.681-18.689-9.794-29.077-15.629-19.289-10.836-38.744-22.583-57.56-33.944s-38.251-23.1-57.518-33.92c-21.594-12.13-40.679-21.8-58.343-29.56-10.156-4.462-20.166-8.43-29.753-11.8-10.253-3.6-20.442-6.657-30.285-9.089a278.467,278.467,0,0,0-30.927-5.846,247.994,247.994,0,0,0-31.684-2.068Z" transform="translate(0.009 27.88)" fill="url(#linear-gradient)"/>
        <path id="Tracé_36052_-_Contour" data-name="Tracé 36052 - Contour" d="M81.753,516.448a250,250,0,0,1,31.941,2.084,280.479,280.479,0,0,1,31.15,5.888c9.9,2.447,20.155,5.523,30.468,9.143,9.635,3.382,19.693,7.37,29.895,11.852,9.5,4.172,19.125,8.757,29.433,14.014,9.181,4.683,18.694,9.8,29.085,15.633,19.294,10.838,38.754,22.588,57.573,33.951,18.251,11.02,37.124,22.416,55.813,32.96,20.947,11.818,39.449,21.294,56.561,28.971a381.09,381.09,0,0,0,58.1,21.035,286.641,286.641,0,0,0,29.88,6.313A254.281,254.281,0,0,0,548.447,701q1.893.089,3.776.148c2.492.078,5.014.117,7.5.117a237.817,237.817,0,0,0,39.712-3.353,254.127,254.127,0,0,0,41.222-10.709,254.31,254.31,0,0,1,41.523-10.753,242.619,242.619,0,0,1,40.265-3.369,256.382,256.382,0,0,1,32.722,2.137,290.748,290.748,0,0,1,32.015,6.033c10.19,2.505,20.752,5.654,31.39,9.359,9.934,3.46,20.314,7.537,30.852,12.118,18.3,7.956,38.068,17.85,60.437,30.249,19.918,11.04,39.955,22.97,59.332,34.506,18.845,11.22,38.332,22.822,57.512,33.481,21.48,11.937,40.369,21.445,57.748,29.065a366.914,366.914,0,0,0,58.6,20.479,268.177,268.177,0,0,0,29.818,5.722,232.563,232.563,0,0,0,30.271,2.022,216.73,216.73,0,0,0,38.642-3.469,226.708,226.708,0,0,0,39.665-11.091l.709,1.87a228.7,228.7,0,0,1-40.016,11.188,218.729,218.729,0,0,1-39,3.5,234.573,234.573,0,0,1-30.532-2.039,270.231,270.231,0,0,1-30.042-5.765,368.887,368.887,0,0,1-58.922-20.587c-17.436-7.646-36.381-17.18-57.916-29.148-19.206-10.674-38.706-22.283-57.564-33.511-19.364-11.529-39.387-23.45-59.279-34.476-22.313-12.368-42.026-22.235-60.265-30.164-10.492-4.561-20.825-8.62-30.712-12.063-10.579-3.685-21.08-6.815-31.21-9.306a288.784,288.784,0,0,0-31.793-5.991,254.4,254.4,0,0,0-32.466-2.121,240.588,240.588,0,0,0-39.932,3.341,252.3,252.3,0,0,0-41.2,10.668,256.123,256.123,0,0,1-41.547,10.793,239.819,239.819,0,0,1-40.047,3.381c-2.5,0-5.047-.04-7.559-.118a254.678,254.678,0,0,1-30.812-2.88,288.622,288.622,0,0,1-30.089-6.357,383.062,383.062,0,0,1-58.408-21.143c-17.169-7.7-35.724-17.205-56.726-29.054-18.715-10.558-37.6-21.962-55.864-32.99-18.806-11.355-38.251-23.1-57.518-33.919-21.594-12.131-40.679-21.8-58.343-29.561-10.156-4.462-20.166-8.43-29.752-11.8-10.253-3.6-20.442-6.657-30.285-9.089a278.469,278.469,0,0,0-30.927-5.846,247.991,247.991,0,0,0-31.684-2.068,237.983,237.983,0,0,0-39.867,3.377A254.509,254.509,0,0,0,.5,532.612l-.662-1.887A256.486,256.486,0,0,1,41.55,519.854,240,240,0,0,1,81.753,516.448Z" transform="translate(0.009 28.994)" fill="url(#linear-gradient)"/>
        <path id="Tracé_36053_-_Contour" data-name="Tracé 36053 - Contour" d="M81.753,536.331v2a238,238,0,0,0-39.867,3.377A254.422,254.422,0,0,0,.5,552.5l-.663-1.887A256.447,256.447,0,0,1,41.55,539.736,240.014,240.014,0,0,1,81.753,536.331Zm0,0a250,250,0,0,1,31.941,2.084,280.479,280.479,0,0,1,31.15,5.888c9.9,2.447,20.155,5.523,30.468,9.143,9.635,3.382,19.693,7.37,29.895,11.852,9.5,4.172,19.125,8.757,29.433,14.014,9.181,4.683,18.694,9.8,29.085,15.633,19.294,10.838,38.754,22.588,57.573,33.951,18.8,11.353,38.244,23.092,57.505,33.913,21.588,12.127,40.666,21.794,58.325,29.552,10.152,4.46,20.158,8.428,29.741,11.792,10.248,3.6,20.433,6.655,30.271,9.086a278.284,278.284,0,0,0,30.913,5.844,247.83,247.83,0,0,0,31.668,2.067,237.817,237.817,0,0,0,39.712-3.353,254.127,254.127,0,0,0,41.222-10.709l.661,1.888a256.123,256.123,0,0,1-41.547,10.793,239.819,239.819,0,0,1-40.047,3.381,249.833,249.833,0,0,1-31.924-2.083,280.3,280.3,0,0,1-31.136-5.886c-9.9-2.446-20.146-5.521-30.455-9.14-9.631-3.381-19.685-7.368-29.883-11.848-9.494-4.171-19.118-8.754-29.423-14.011-9.178-4.681-18.689-9.794-29.077-15.629-19.289-10.836-38.744-22.583-57.56-33.944s-38.251-23.1-57.518-33.92c-21.594-12.13-40.679-21.8-58.343-29.56-10.156-4.462-20.166-8.43-29.753-11.8-10.253-3.6-20.442-6.657-30.285-9.089a278.467,278.467,0,0,0-30.927-5.846,247.994,247.994,0,0,0-31.684-2.068Zm640.69,156.636a256.382,256.382,0,0,1,32.722,2.137,290.748,290.748,0,0,1,32.015,6.033c10.19,2.505,20.752,5.654,31.39,9.359,9.934,3.46,20.314,7.537,30.852,12.118,18.3,7.956,38.068,17.85,60.437,30.249,19.918,11.041,39.955,22.97,59.332,34.507,18.845,11.22,38.332,22.822,57.512,33.481,21.48,11.938,40.369,21.445,57.748,29.065a366.921,366.921,0,0,0,58.6,20.479,268.177,268.177,0,0,0,29.818,5.722,232.563,232.563,0,0,0,30.271,2.022,216.73,216.73,0,0,0,38.642-3.469,226.708,226.708,0,0,0,39.665-11.091l.709,1.87a228.7,228.7,0,0,1-40.016,11.188,218.729,218.729,0,0,1-39,3.5,234.573,234.573,0,0,1-30.532-2.039,270.2,270.2,0,0,1-30.042-5.765,368.881,368.881,0,0,1-58.922-20.587c-17.436-7.646-36.381-17.181-57.916-29.149-19.206-10.673-38.706-22.283-57.564-33.511-19.364-11.529-39.387-23.451-59.279-34.476-22.313-12.368-42.026-22.235-60.265-30.164-10.492-4.562-20.825-8.62-30.712-12.064-10.579-3.684-21.08-6.815-31.21-9.306a288.784,288.784,0,0,0-31.793-5.991,254.4,254.4,0,0,0-32.466-2.121l-1.076,0a240.507,240.507,0,0,0-39.41,3.434,252.5,252.5,0,0,0-40.641,10.574l-.661-1.888a254.442,254.442,0,0,1,40.964-10.659,242.521,242.521,0,0,1,39.739-3.462Z" transform="translate(0.009 30.108)" fill="url(#linear-gradient)"/>
        <path id="Tracé_36054_-_Contour" data-name="Tracé 36054 - Contour" d="M81.753,556.214v2a238.006,238.006,0,0,0-39.867,3.377A254.481,254.481,0,0,0,.5,572.377l-.662-1.887A256.458,256.458,0,0,1,41.55,559.619,240.033,240.033,0,0,1,81.753,556.214Zm0,0a250,250,0,0,1,31.941,2.084,280.479,280.479,0,0,1,31.15,5.888c9.9,2.447,20.155,5.523,30.468,9.143,9.635,3.382,19.693,7.37,29.895,11.852,9.5,4.172,19.125,8.757,29.433,14.015,9.181,4.682,18.694,9.8,29.085,15.633,19.294,10.838,38.754,22.588,57.573,33.951,18.8,11.353,38.244,23.092,57.505,33.913,21.588,12.127,40.666,21.794,58.325,29.552,10.152,4.46,20.158,8.428,29.741,11.792,10.248,3.6,20.433,6.655,30.271,9.086a278.284,278.284,0,0,0,30.913,5.844,247.83,247.83,0,0,0,31.668,2.067,237.8,237.8,0,0,0,39.712-3.353,254.072,254.072,0,0,0,41.222-10.71,254.312,254.312,0,0,1,41.523-10.753,242.609,242.609,0,0,1,40.265-3.369,256.393,256.393,0,0,1,32.722,2.137,290.763,290.763,0,0,1,32.015,6.033c10.19,2.505,20.752,5.654,31.39,9.359,9.934,3.46,20.314,7.537,30.852,12.118,18.3,7.956,38.068,17.85,60.437,30.249,19.918,11.04,39.955,22.97,59.332,34.506,18.845,11.22,38.332,22.822,57.512,33.481,21.48,11.937,40.369,21.445,57.748,29.065a366.92,366.92,0,0,0,58.6,20.479A268.191,268.191,0,0,0,1172.872,896a232.563,232.563,0,0,0,30.271,2.022,216.724,216.724,0,0,0,38.642-3.469,226.713,226.713,0,0,0,39.665-11.091l.709,1.87a228.71,228.71,0,0,1-40.016,11.188,218.729,218.729,0,0,1-39,3.5,234.562,234.562,0,0,1-30.532-2.039,270.217,270.217,0,0,1-30.042-5.765,368.893,368.893,0,0,1-58.922-20.587c-17.436-7.646-36.381-17.18-57.916-29.148-19.206-10.674-38.706-22.283-57.564-33.511-19.364-11.529-39.387-23.45-59.279-34.476-22.313-12.368-42.026-22.235-60.265-30.164-10.492-4.561-20.825-8.62-30.712-12.063-10.579-3.685-21.08-6.815-31.21-9.306a288.77,288.77,0,0,0-31.793-5.991,254.4,254.4,0,0,0-32.466-2.121,240.608,240.608,0,0,0-39.932,3.341,252.312,252.312,0,0,0-41.2,10.668,256.071,256.071,0,0,1-41.547,10.794,239.816,239.816,0,0,1-40.047,3.381,249.833,249.833,0,0,1-31.924-2.083,280.3,280.3,0,0,1-31.136-5.886c-9.9-2.446-20.146-5.521-30.455-9.141-9.631-3.381-19.685-7.367-29.883-11.848-9.494-4.171-19.118-8.754-29.423-14.011-9.178-4.681-18.689-9.794-29.077-15.629-19.289-10.836-38.744-22.583-57.56-33.944s-38.251-23.1-57.518-33.92c-21.594-12.13-40.679-21.8-58.343-29.561-10.156-4.462-20.166-8.43-29.753-11.8-10.253-3.6-20.442-6.657-30.285-9.089a278.453,278.453,0,0,0-30.927-5.846,247.994,247.994,0,0,0-31.684-2.068Z" transform="translate(0.009 31.222)" fill="url(#linear-gradient)"/>
        <path id="Tracé_36055_-_Contour" data-name="Tracé 36055 - Contour" d="M81.753,576.1v2a238,238,0,0,0-39.867,3.377A254.422,254.422,0,0,0,.5,592.26l-.663-1.887A256.447,256.447,0,0,1,41.55,579.5,240.014,240.014,0,0,1,81.753,576.1Zm0,0a250,250,0,0,1,31.941,2.084,280.479,280.479,0,0,1,31.15,5.888c9.9,2.447,20.155,5.523,30.468,9.143,9.635,3.382,19.693,7.37,29.895,11.852,9.5,4.172,19.125,8.757,29.433,14.014,9.181,4.683,18.694,9.8,29.085,15.633,19.294,10.838,38.754,22.588,57.573,33.951,18.8,11.353,38.244,23.092,57.505,33.913,21.588,12.127,40.666,21.794,58.325,29.552,10.152,4.46,20.158,8.428,29.741,11.792,10.248,3.6,20.433,6.655,30.271,9.086a278.284,278.284,0,0,0,30.913,5.844,247.83,247.83,0,0,0,31.668,2.067,237.817,237.817,0,0,0,39.712-3.353,254.127,254.127,0,0,0,41.222-10.709A254.3,254.3,0,0,1,682.178,736.1a242.616,242.616,0,0,1,40.265-3.369,256.383,256.383,0,0,1,32.722,2.137,290.75,290.75,0,0,1,32.015,6.033c10.191,2.505,20.752,5.654,31.39,9.359,9.934,3.46,20.314,7.537,30.851,12.118,18.3,7.956,38.068,17.85,60.437,30.249,19.918,11.04,39.955,22.97,59.332,34.507,18.845,11.22,38.332,22.822,57.512,33.481,21.48,11.937,40.37,21.444,57.748,29.065a366.926,366.926,0,0,0,58.6,20.479,268.183,268.183,0,0,0,29.818,5.722,232.563,232.563,0,0,0,30.271,2.022,216.723,216.723,0,0,0,38.641-3.469,226.707,226.707,0,0,0,39.665-11.091l.709,1.87a228.7,228.7,0,0,1-40.016,11.188,218.724,218.724,0,0,1-39,3.5,234.578,234.578,0,0,1-30.533-2.039,270.2,270.2,0,0,1-30.042-5.765,368.9,368.9,0,0,1-58.923-20.587c-17.436-7.646-36.381-17.181-57.916-29.149-19.206-10.674-38.706-22.284-57.564-33.511-19.364-11.529-39.388-23.45-59.279-34.476-22.313-12.368-42.026-22.234-60.265-30.164-10.492-4.561-20.825-8.62-30.712-12.063-10.579-3.685-21.08-6.815-31.21-9.306a288.777,288.777,0,0,0-31.793-5.991,254.4,254.4,0,0,0-32.466-2.121,240.606,240.606,0,0,0-39.932,3.341,252.318,252.318,0,0,0-41.2,10.668,256.123,256.123,0,0,1-41.547,10.793,239.819,239.819,0,0,1-40.047,3.381,249.833,249.833,0,0,1-31.924-2.083,280.3,280.3,0,0,1-31.136-5.886c-9.9-2.446-20.146-5.521-30.455-9.14-9.631-3.381-19.685-7.368-29.883-11.848-9.494-4.171-19.118-8.754-29.423-14.011-9.178-4.681-18.689-9.794-29.077-15.629-19.289-10.836-38.744-22.583-57.56-33.944s-38.251-23.1-57.518-33.92c-21.594-12.13-40.679-21.8-58.343-29.56-10.156-4.462-20.166-8.43-29.753-11.8-10.253-3.6-20.442-6.657-30.285-9.089a278.467,278.467,0,0,0-30.927-5.846A247.994,247.994,0,0,0,81.753,578.1Z" transform="translate(0.009 32.336)" fill="url(#linear-gradient)"/>
        <path id="Tracé_36056_-_Contour" data-name="Tracé 36056 - Contour" d="M81.753,595.979v2a238.017,238.017,0,0,0-39.867,3.377A254.474,254.474,0,0,0,.5,612.142l-.662-1.887A256.482,256.482,0,0,1,41.55,599.384,240.037,240.037,0,0,1,81.753,595.979Zm0,0a250,250,0,0,1,31.941,2.084,280.479,280.479,0,0,1,31.15,5.888c9.9,2.447,20.155,5.523,30.468,9.143,9.635,3.382,19.693,7.37,29.895,11.852,9.5,4.172,19.125,8.757,29.433,14.014,9.181,4.683,18.694,9.8,29.085,15.633,19.294,10.838,38.754,22.588,57.573,33.951,18.8,11.353,38.244,23.092,57.505,33.913,21.588,12.127,40.666,21.794,58.325,29.552,10.152,4.46,20.158,8.428,29.741,11.792,10.248,3.6,20.433,6.655,30.271,9.086a278.284,278.284,0,0,0,30.913,5.844A247.83,247.83,0,0,0,559.72,780.8a237.812,237.812,0,0,0,39.712-3.353,254.078,254.078,0,0,0,41.222-10.71,254.3,254.3,0,0,1,41.523-10.753,242.613,242.613,0,0,1,40.265-3.369,256.383,256.383,0,0,1,32.722,2.137,290.75,290.75,0,0,1,32.015,6.033c10.191,2.505,20.752,5.654,31.39,9.359,9.934,3.46,20.314,7.537,30.851,12.118,18.3,7.956,38.068,17.85,60.437,30.249,19.918,11.041,39.955,22.97,59.332,34.507,18.845,11.22,38.332,22.822,57.512,33.481,21.48,11.938,40.37,21.445,57.748,29.065a366.933,366.933,0,0,0,58.6,20.479,268.183,268.183,0,0,0,29.818,5.722,232.563,232.563,0,0,0,30.271,2.022,216.693,216.693,0,0,0,38.641-3.47,226.726,226.726,0,0,0,39.665-11.091l.709,1.87a228.741,228.741,0,0,1-40.016,11.189,218.7,218.7,0,0,1-39,3.5,234.578,234.578,0,0,1-30.533-2.039,270.2,270.2,0,0,1-30.042-5.765,368.889,368.889,0,0,1-58.923-20.588c-17.436-7.646-36.381-17.181-57.916-29.149-19.206-10.674-38.706-22.284-57.564-33.511-19.364-11.529-39.388-23.45-59.279-34.476-22.313-12.368-42.026-22.235-60.265-30.164-10.492-4.561-20.825-8.62-30.712-12.063-10.579-3.684-21.08-6.815-31.21-9.306a288.777,288.777,0,0,0-31.793-5.991,254.4,254.4,0,0,0-32.466-2.121,240.588,240.588,0,0,0-39.932,3.341,252.3,252.3,0,0,0-41.2,10.668,256.083,256.083,0,0,1-41.547,10.794A239.814,239.814,0,0,1,559.72,782.8a249.833,249.833,0,0,1-31.924-2.083,280.3,280.3,0,0,1-31.136-5.886c-9.9-2.446-20.146-5.521-30.455-9.14-9.631-3.381-19.685-7.368-29.883-11.848-9.494-4.171-19.118-8.754-29.423-14.011-9.178-4.681-18.689-9.794-29.077-15.629-19.289-10.836-38.744-22.583-57.56-33.944s-38.251-23.1-57.518-33.92c-21.594-12.13-40.679-21.8-58.343-29.56-10.156-4.462-20.166-8.43-29.753-11.8-10.253-3.6-20.442-6.657-30.285-9.089a278.467,278.467,0,0,0-30.927-5.846,247.994,247.994,0,0,0-31.684-2.068Z" transform="translate(0.009 33.451)" fill="url(#linear-gradient)"/>
        <path id="Tracé_36057_-_Contour" data-name="Tracé 36057 - Contour" d="M81.753,615.862v2a238.016,238.016,0,0,0-39.867,3.377A254.472,254.472,0,0,0,.5,632.025l-.662-1.887A256.455,256.455,0,0,1,41.55,619.267,240.031,240.031,0,0,1,81.753,615.862Zm0,0a250,250,0,0,1,31.941,2.084,280.479,280.479,0,0,1,31.15,5.888c9.9,2.447,20.155,5.523,30.468,9.143,9.635,3.382,19.693,7.37,29.895,11.852,9.5,4.172,19.125,8.757,29.433,14.014,9.181,4.683,18.694,9.8,29.085,15.633,19.294,10.838,38.754,22.588,57.573,33.951,18.8,11.353,38.244,23.092,57.505,33.912,21.588,12.127,40.666,21.794,58.325,29.552,10.152,4.46,20.158,8.428,29.741,11.792,10.248,3.6,20.433,6.655,30.271,9.086a278.27,278.27,0,0,0,30.913,5.844,247.83,247.83,0,0,0,31.668,2.067,237.794,237.794,0,0,0,39.712-3.353,254.153,254.153,0,0,0,41.222-10.71,254.312,254.312,0,0,1,41.523-10.753,242.609,242.609,0,0,1,40.265-3.369,256.394,256.394,0,0,1,32.722,2.137,290.765,290.765,0,0,1,32.015,6.033c10.191,2.505,20.752,5.654,31.39,9.359,9.934,3.46,20.314,7.537,30.851,12.118,18.3,7.955,38.068,17.85,60.437,30.249,19.918,11.04,39.955,22.97,59.332,34.506,18.845,11.22,38.332,22.822,57.512,33.481,21.48,11.937,40.37,21.444,57.748,29.065a366.932,366.932,0,0,0,58.6,20.479,268.2,268.2,0,0,0,29.818,5.722,232.563,232.563,0,0,0,30.271,2.022,216.717,216.717,0,0,0,38.641-3.469,226.712,226.712,0,0,0,39.665-11.091l.709,1.87a228.707,228.707,0,0,1-40.016,11.188,218.724,218.724,0,0,1-39,3.5,234.567,234.567,0,0,1-30.533-2.039,270.171,270.171,0,0,1-30.042-5.765,368.9,368.9,0,0,1-58.923-20.587c-17.436-7.646-36.381-17.181-57.916-29.149-19.206-10.674-38.706-22.284-57.564-33.511-19.364-11.529-39.388-23.45-59.279-34.476-22.313-12.368-42.026-22.234-60.265-30.164-10.492-4.561-20.825-8.62-30.712-12.063-10.579-3.685-21.08-6.815-31.21-9.306a288.762,288.762,0,0,0-31.793-5.991,254.4,254.4,0,0,0-32.466-2.121,240.608,240.608,0,0,0-39.932,3.341,252.312,252.312,0,0,0-41.2,10.668A256.131,256.131,0,0,1,599.768,799.3a239.809,239.809,0,0,1-40.047,3.382A249.833,249.833,0,0,1,527.8,800.6a280.317,280.317,0,0,1-31.136-5.886c-9.9-2.446-20.146-5.521-30.455-9.141-9.631-3.381-19.685-7.367-29.883-11.848-9.494-4.171-19.118-8.754-29.423-14.011-9.178-4.681-18.689-9.794-29.077-15.629-19.289-10.836-38.744-22.583-57.56-33.944s-38.251-23.1-57.518-33.92c-21.594-12.13-40.679-21.8-58.343-29.56-10.156-4.462-20.166-8.43-29.753-11.8-10.253-3.6-20.442-6.657-30.285-9.089a278.453,278.453,0,0,0-30.927-5.846,247.994,247.994,0,0,0-31.684-2.068Z" transform="translate(0.009 34.565)" fill="url(#linear-gradient)"/>
      </g>
    </g>
  </g>
</svg>
