<svg width="61" height="60" viewBox="0 0 61 60" fill="none" xmlns="http://www.w3.org/2000/svg">
<path id="Vector" d="M44.7681 38.7871C48.4596 33.8316 50.113 27.6877 49.3975 21.5846C48.682 15.4814 45.6503 9.86909 40.9091 5.8704C36.1679 1.8717 30.0667 -0.218457 23.8262 0.0180922C17.5857 0.254641 11.6661 2.80045 7.25174 7.14619C2.83734 11.4919 0.253706 17.3171 0.0177142 23.4564C-0.218278 29.5956 1.91078 35.5961 5.97894 40.2574C10.0471 44.9187 15.7543 47.897 21.9589 48.5965C28.1634 49.296 34.4076 47.6651 39.4423 44.0301H39.4384C39.5528 44.1801 39.6748 44.3226 39.8121 44.4614L54.4896 58.9004C55.2045 59.6041 56.1742 59.9996 57.1855 60C58.1968 60.0004 59.1669 59.6055 59.8822 58.9023C60.5976 58.199 60.9996 57.245 61 56.2502C61.0004 55.2553 60.599 54.3011 59.8841 53.5973L45.2065 39.1583C45.0702 39.0226 44.9237 38.8972 44.7681 38.7833V38.7871ZM45.7517 24.3706C45.7517 27.0794 45.2094 29.7616 44.1556 32.2642C43.1019 34.7668 41.5574 37.0407 39.6103 38.9562C37.6633 40.8716 35.3518 42.3909 32.8078 43.4275C30.2639 44.4642 27.5373 44.9977 24.7837 44.9977C22.0302 44.9977 19.3036 44.4642 16.7597 43.4275C14.2157 42.3909 11.9042 40.8716 9.95715 38.9562C8.0101 37.0407 6.46561 34.7668 5.41187 32.2642C4.35813 29.7616 3.81578 27.0794 3.81578 24.3706C3.81578 18.8999 6.0249 13.6533 9.95715 9.78499C13.8894 5.91665 19.2227 3.74344 24.7837 3.74344C30.3448 3.74344 35.6781 5.91665 39.6103 9.78499C43.5426 13.6533 45.7517 18.8999 45.7517 24.3706Z" fill="#949494"/>
</svg>
