<svg width="508" height="262" viewBox="0 0 508 262" fill="none" xmlns="http://www.w3.org/2000/svg">
<rect width="508" height="262" fill="white"/>
<g clip-path="url(#clip0_146_10574)">
<g opacity="0.5">
<path d="M146.662 128.312L152.59 124.852L131.925 117.038L125.988 120.498L146.662 128.312Z" fill="url(#paint0_linear_146_10574)"/>
</g>
<path d="M186.806 124.78L192.776 121.308L151.436 105.677L145.469 109.152L186.806 124.78Z" fill="url(#paint1_linear_146_10574)"/>
<path d="M211.08 124.582L217.017 121.119L161.168 100L155.232 103.463L211.08 124.582Z" fill="url(#paint2_linear_146_10574)"/>
<path d="M210.127 133.605L216.098 130.133L198.469 123.46L192.504 126.934L210.127 133.605Z" fill="url(#paint3_linear_146_10574)"/>
<path d="M157.555 141.824L163.521 138.342L122.186 122.709L116.221 126.189L157.555 141.824Z" fill="url(#paint4_linear_146_10574)"/>
<path d="M203.01 140.272L208.944 136.807L141.658 111.363L135.723 114.827L203.01 140.272Z" fill="url(#paint5_linear_146_10574)"/>
<path d="M180.887 150.644L186.848 147.165L169.225 140.497L163.254 143.974L180.887 150.644Z" fill="url(#paint6_linear_146_10574)"/>
<path d="M213.511 153.594L219.451 150.14L159.134 127.329L153.195 130.788L213.511 153.594Z" fill="url(#paint7_linear_146_10574)"/>
<path d="M171.145 156.315L177.084 152.856L112.421 128.407L106.486 131.863L171.145 156.315Z" fill="url(#paint8_linear_146_10574)"/>
<path d="M208.905 161.24L214.865 157.76L194.892 150.211L188.93 153.683L208.905 161.24Z" fill="url(#paint9_linear_146_10574)"/>
<path d="M177.341 168.014L183.28 164.555L123.345 141.895L117.412 145.356L177.341 168.014Z" fill="url(#paint10_linear_146_10574)"/>
<path d="M208.794 170.548L214.728 167.09L185.127 155.895L179.191 159.359L208.794 170.548Z" fill="url(#paint11_linear_146_10574)"/>
<path d="M199.603 185.811L205.562 182.34L165.651 167.245L159.686 170.718L199.603 185.811Z" fill="url(#paint12_linear_146_10574)"/>
<path d="M169.808 193.261L175.737 189.799L146.14 178.611L140.205 182.064L169.808 193.261Z" fill="url(#paint13_linear_146_10574)"/>
<path d="M193.439 192.843L199.405 189.364L155.913 172.922L149.939 176.392L193.439 192.843Z" fill="url(#paint14_linear_146_10574)"/>
<path d="M170.35 202.852L176.316 199.375L136.397 184.279L130.439 187.758L170.35 202.852Z" fill="url(#paint15_linear_146_10574)"/>
<g opacity="0.8">
<path d="M112.443 143.475L118.387 140.019L102.676 134.076L96.7422 137.535L112.443 143.475Z" fill="url(#paint16_linear_146_10574)"/>
<path d="M128.315 158.854L134.286 155.386L92.942 139.748L86.9746 143.224L128.315 158.854Z" fill="url(#paint17_linear_146_10574)"/>
<path d="M133.087 170.016L139.056 166.542L83.1992 145.423L77.2344 148.896L133.087 170.016Z" fill="url(#paint18_linear_146_10574)"/>
</g>
<g opacity="0.5">
<path d="M108.838 170.206L114.77 166.745L73.4339 151.118L67.4922 154.567L108.838 170.206Z" fill="url(#paint19_linear_146_10574)"/>
</g>
<g opacity="0.5">
<path d="M132.16 179.025L138.102 175.567L120.469 168.9L114.529 172.359L132.16 179.025Z" fill="url(#paint20_linear_146_10574)"/>
</g>
<path d="M68.6566 173.752L74.619 170.276L53.9547 162.457L47.9902 165.937L68.6566 173.752Z" fill="url(#paint21_linear_146_10574)"/>
<path d="M79.5854 187.24L85.529 183.785L44.1846 168.15L38.25 171.613L79.5854 187.24Z" fill="url(#paint22_linear_146_10574)"/>
<path d="M125.008 185.703L130.972 182.23L63.6947 156.787L57.7305 160.261L125.008 185.703Z" fill="url(#paint23_linear_146_10574)"/>
<path d="M34.4473 188.912L40.4124 185.438L24.7136 179.496L18.7441 182.973L34.4473 188.912Z" fill="url(#paint24_linear_146_10574)"/>
<path d="M102.914 196.062L108.856 192.605L91.2204 185.933L85.2852 189.397L102.914 196.062Z" fill="url(#paint25_linear_146_10574)"/>
<path d="M135.518 199.037L141.484 195.561L81.1638 172.749L75.1973 176.226L135.518 199.037Z" fill="url(#paint26_linear_146_10574)"/>
<path d="M93.1485 201.757L99.1111 198.276L34.4448 173.825L28.4805 177.299L93.1485 201.757Z" fill="url(#paint27_linear_146_10574)"/>
<path d="M50.3436 204.279L56.2809 200.821L14.9349 185.187L9 188.648L50.3436 204.279Z" fill="url(#paint28_linear_146_10574)"/>
<path d="M130.935 206.658L136.873 203.198L116.896 195.648L110.955 199.102L130.935 206.658Z" fill="url(#paint29_linear_146_10574)"/>
<path d="M99.343 213.453L105.307 209.978L45.3754 187.313L39.4102 190.787L99.343 213.453Z" fill="url(#paint30_linear_146_10574)"/>
<path d="M130.791 215.991L136.758 212.511L107.161 201.316L101.186 204.793L130.791 215.991Z" fill="url(#paint31_linear_146_10574)"/>
<path d="M121.63 231.236L127.562 227.776L87.6518 212.683L81.7129 216.143L121.63 231.236Z" fill="url(#paint32_linear_146_10574)"/>
<g opacity="0.9">
<path d="M73.6695 213.097L79.6038 209.641L61.9772 202.975L56.0391 206.431L73.6695 213.097Z" fill="url(#paint33_linear_146_10574)"/>
</g>
<g opacity="0.8">
<path d="M201.301 242.655L207.268 239.177L174.862 226.923L168.895 230.396L201.301 242.655Z" fill="url(#paint34_linear_146_10574)"/>
</g>
<g opacity="0.8">
<path d="M220.812 231.288L226.782 227.814L203.182 218.894L197.221 222.369L220.812 231.288Z" fill="url(#paint35_linear_146_10574)"/>
</g>
<g opacity="0.5">
<path d="M211.071 236.961L217.01 233.502L156.81 210.739L150.875 214.198L211.071 236.961Z" fill="url(#paint36_linear_146_10574)"/>
</g>
<g opacity="0.5">
<path d="M191.568 248.328L197.535 244.854L176.863 237.033L170.898 240.508L191.568 248.328Z" fill="url(#paint37_linear_146_10574)"/>
</g>
<path d="M181.826 254L187.763 250.541L146.427 234.909L140.488 238.367L181.826 254Z" fill="url(#paint38_linear_146_10574)"/>
<g opacity="0.81">
<path d="M247.777 147.839L253.739 144.361L224.141 133.17L218.172 136.646L247.777 147.839Z" fill="url(#paint39_linear_146_10574)"/>
<path d="M271.442 147.4L277.378 143.946L233.883 127.496L227.943 130.956L271.442 147.4Z" fill="url(#paint40_linear_146_10574)"/>
<path d="M248.347 157.412L254.288 153.952L214.369 138.855L208.439 142.317L248.347 157.412Z" fill="url(#paint41_linear_146_10574)"/>
</g>
<g opacity="0.81">
<path d="M289.041 191.539L295.008 188.067L234.811 165.299L228.844 168.777L289.041 191.539Z" fill="url(#paint42_linear_146_10574)"/>
</g>
<g opacity="0.5">
<path d="M269.56 202.888L275.497 199.43L254.839 191.613L248.889 195.073L269.56 202.888Z" fill="url(#paint43_linear_146_10574)"/>
</g>
<g opacity="0.5">
<path d="M259.796 208.577L265.765 205.104L224.426 189.47L218.455 192.941L259.796 208.577Z" fill="url(#paint44_linear_146_10574)"/>
<path d="M250.057 214.253L256.023 210.773L214.685 195.146L208.719 198.622L250.057 214.253Z" fill="url(#paint45_linear_146_10574)"/>
<path d="M240.315 219.924L246.251 216.466L230.056 210.336L224.117 213.797L240.315 219.924Z" fill="url(#paint46_linear_146_10574)"/>
</g>
<path d="M230.556 225.617L236.514 222.14L183.664 202.156L177.699 205.627L230.556 225.617Z" fill="url(#paint47_linear_146_10574)"/>
<g opacity="0.5">
<path d="M151.637 167.676L157.602 164.201L139.975 157.538L134.008 161.015L151.637 167.676Z" fill="url(#paint48_linear_146_10574)"/>
</g>
<g opacity="0.81">
<path d="M279.303 197.214L285.239 193.753L252.835 181.502L246.898 184.959L279.303 197.214Z" fill="url(#paint49_linear_146_10574)"/>
</g>
<path d="M298.813 185.854L304.748 182.395L281.156 173.472L275.219 176.931L298.813 185.854Z" fill="url(#paint50_linear_146_10574)"/>
<g opacity="0.81">
<path d="M328.053 168.818L333.999 165.355L292.658 149.722L286.715 153.183L328.053 168.818Z" fill="url(#paint51_linear_146_10574)"/>
<path d="M318.287 174.503L324.261 171.027L308.049 164.895L302.084 168.374L318.287 174.503Z" fill="url(#paint52_linear_146_10574)"/>
<path d="M308.547 180.175L314.49 176.714L261.635 156.731L255.699 160.193L308.547 180.175Z" fill="url(#paint53_linear_146_10574)"/>
</g>
</g>
<g clip-path="url(#clip1_146_10574)">
<g opacity="0.5">
<path d="M302.662 36.3116L308.59 32.8518L287.925 25.0375L281.988 28.4981L302.662 36.3116Z" fill="url(#paint54_linear_146_10574)"/>
</g>
<path d="M342.806 32.78L348.776 29.3075L307.436 13.6773L301.469 17.1525L342.806 32.78Z" fill="url(#paint55_linear_146_10574)"/>
<path d="M367.08 32.5821L373.017 29.1192L317.168 8L311.232 11.4631L367.08 32.5821Z" fill="url(#paint56_linear_146_10574)"/>
<path d="M366.127 41.6048L372.098 38.1332L354.469 31.4601L348.504 34.934L366.127 41.6048Z" fill="url(#paint57_linear_146_10574)"/>
<path d="M313.555 49.824L319.521 46.3425L278.186 30.7093L272.221 34.1893L313.555 49.824Z" fill="url(#paint58_linear_146_10574)"/>
<path d="M359.01 48.272L364.944 44.8071L297.658 19.3629L291.723 22.8268L359.01 48.272Z" fill="url(#paint59_linear_146_10574)"/>
<path d="M336.887 58.6437L342.848 55.1651L325.225 48.4969L319.254 51.9745L336.887 58.6437Z" fill="url(#paint60_linear_146_10574)"/>
<path d="M369.511 61.5941L375.451 58.1402L315.134 35.3293L309.195 38.788L369.511 61.5941Z" fill="url(#paint61_linear_146_10574)"/>
<path d="M327.145 64.3149L333.084 60.8562L268.421 36.4068L262.486 39.8629L327.145 64.3149Z" fill="url(#paint62_linear_146_10574)"/>
<path d="M364.905 69.2397L370.865 65.7602L350.892 58.2105L344.93 61.6828L364.905 69.2397Z" fill="url(#paint63_linear_146_10574)"/>
<path d="M333.341 76.0136L339.28 72.5548L279.345 49.895L273.412 53.3562L333.341 76.0136Z" fill="url(#paint64_linear_146_10574)"/>
<path d="M364.794 78.5485L370.728 75.0898L341.127 63.8951L335.191 67.3591L364.794 78.5485Z" fill="url(#paint65_linear_146_10574)"/>
<path d="M355.603 93.8106L361.562 90.3401L321.651 75.2445L315.686 78.7185L355.603 93.8106Z" fill="url(#paint66_linear_146_10574)"/>
<path d="M325.808 101.261L331.737 97.7991L302.14 86.6107L296.205 90.0643L325.808 101.261Z" fill="url(#paint67_linear_146_10574)"/>
<path d="M349.439 100.843L355.405 97.3638L311.913 80.9219L305.939 84.3922L349.439 100.843Z" fill="url(#paint68_linear_146_10574)"/>
<path d="M326.35 110.852L332.316 107.375L292.397 92.2787L286.439 95.7583L326.35 110.852Z" fill="url(#paint69_linear_146_10574)"/>
<g opacity="0.8">
<path d="M268.443 51.4746L274.387 48.019L258.676 42.0761L252.742 45.5346L268.443 51.4746Z" fill="url(#paint70_linear_146_10574)"/>
<path d="M284.315 66.854L290.286 63.3857L248.942 47.7476L242.975 51.2243L284.315 66.854Z" fill="url(#paint71_linear_146_10574)"/>
<path d="M289.087 78.0158L295.056 74.5424L239.199 53.4226L233.234 56.8963L289.087 78.0158Z" fill="url(#paint72_linear_146_10574)"/>
</g>
<g opacity="0.5">
<path d="M264.838 78.2065L270.77 74.7446L229.434 59.118L223.492 62.5668L264.838 78.2065Z" fill="url(#paint73_linear_146_10574)"/>
</g>
<g opacity="0.5">
<path d="M288.16 87.0249L294.102 83.5675L276.469 76.8997L270.529 80.3587L288.16 87.0249Z" fill="url(#paint74_linear_146_10574)"/>
</g>
<path d="M224.657 81.7517L230.619 78.2764L209.955 70.4573L203.99 73.9367L224.657 81.7517Z" fill="url(#paint75_linear_146_10574)"/>
<path d="M235.585 95.2402L241.529 91.7846L200.185 76.1497L194.25 79.6132L235.585 95.2402Z" fill="url(#paint76_linear_146_10574)"/>
<path d="M281.008 93.7035L286.972 90.2302L219.695 64.7866L213.73 68.2615L281.008 93.7035Z" fill="url(#paint77_linear_146_10574)"/>
<path d="M190.447 96.9116L196.412 93.4375L180.714 87.4963L174.744 90.9727L190.447 96.9116Z" fill="url(#paint78_linear_146_10574)"/>
<path d="M258.914 104.062L264.856 100.605L247.22 93.9332L241.285 97.3971L258.914 104.062Z" fill="url(#paint79_linear_146_10574)"/>
<path d="M291.518 107.037L297.484 103.561L237.164 80.7485L231.197 84.2261L291.518 107.037Z" fill="url(#paint80_linear_146_10574)"/>
<path d="M249.149 109.757L255.111 106.276L190.445 81.8254L184.48 85.2989L249.149 109.757Z" fill="url(#paint81_linear_146_10574)"/>
<path d="M206.344 112.279L212.281 108.821L170.935 93.1874L165 96.6483L206.344 112.279Z" fill="url(#paint82_linear_146_10574)"/>
<path d="M286.935 114.658L292.873 111.198L272.896 103.648L266.955 107.102L286.935 114.658Z" fill="url(#paint83_linear_146_10574)"/>
<path d="M255.343 121.453L261.307 117.978L201.375 95.313L195.41 98.787L255.343 121.453Z" fill="url(#paint84_linear_146_10574)"/>
<path d="M286.791 123.991L292.758 120.511L263.161 109.316L257.186 112.793L286.791 123.991Z" fill="url(#paint85_linear_146_10574)"/>
<path d="M277.63 139.236L283.562 135.776L243.652 120.683L237.713 124.143L277.63 139.236Z" fill="url(#paint86_linear_146_10574)"/>
<g opacity="0.9">
<path d="M229.669 121.097L235.604 117.641L217.977 110.975L212.039 114.431L229.669 121.097Z" fill="url(#paint87_linear_146_10574)"/>
</g>
<g opacity="0.8">
<path d="M357.301 150.655L363.268 147.177L330.862 134.923L324.895 138.396L357.301 150.655Z" fill="url(#paint88_linear_146_10574)"/>
</g>
<g opacity="0.8">
<path d="M376.812 139.288L382.782 135.814L359.182 126.894L353.221 130.369L376.812 139.288Z" fill="url(#paint89_linear_146_10574)"/>
</g>
<g opacity="0.5">
<path d="M367.071 144.961L373.01 141.502L312.81 118.739L306.875 122.198L367.071 144.961Z" fill="url(#paint90_linear_146_10574)"/>
</g>
<g opacity="0.5">
<path d="M347.568 156.328L353.535 152.853L332.863 145.033L326.898 148.508L347.568 156.328Z" fill="url(#paint91_linear_146_10574)"/>
</g>
<path d="M337.826 162L343.763 158.541L302.427 142.909L296.488 146.367L337.826 162Z" fill="url(#paint92_linear_146_10574)"/>
<g opacity="0.81">
<path d="M403.777 55.8387L409.739 52.3611L380.141 41.1701L374.172 44.6465L403.777 55.8387Z" fill="url(#paint93_linear_146_10574)"/>
<path d="M427.442 55.4002L433.378 51.9463L389.883 35.4957L383.943 38.9565L427.442 55.4002Z" fill="url(#paint94_linear_146_10574)"/>
<path d="M404.347 65.4121L410.288 61.9522L370.369 46.8552L364.439 50.3172L404.347 65.4121Z" fill="url(#paint95_linear_146_10574)"/>
</g>
<g opacity="0.81">
<path d="M445.041 99.5391L451.008 96.0668L390.811 73.2991L384.844 76.7773L445.041 99.5391Z" fill="url(#paint96_linear_146_10574)"/>
</g>
<g opacity="0.5">
<path d="M425.56 110.888L431.497 107.43L410.839 99.6132L404.889 103.073L425.56 110.888Z" fill="url(#paint97_linear_146_10574)"/>
</g>
<g opacity="0.5">
<path d="M415.796 116.577L421.765 113.104L380.426 97.4699L374.455 100.941L415.796 116.577Z" fill="url(#paint98_linear_146_10574)"/>
<path d="M406.057 122.253L412.023 118.773L370.685 103.146L364.719 106.622L406.057 122.253Z" fill="url(#paint99_linear_146_10574)"/>
<path d="M396.315 127.924L402.251 124.466L386.056 118.336L380.117 121.796L396.315 127.924Z" fill="url(#paint100_linear_146_10574)"/>
</g>
<path d="M386.556 133.617L392.514 130.14L339.664 110.156L333.699 113.627L386.556 133.617Z" fill="url(#paint101_linear_146_10574)"/>
<g opacity="0.5">
<path d="M307.637 75.6757L313.602 72.2007L295.975 65.5379L290.008 69.0146L307.637 75.6757Z" fill="url(#paint102_linear_146_10574)"/>
</g>
<g opacity="0.81">
<path d="M435.303 105.214L441.239 101.753L408.835 89.5018L402.898 92.9594L435.303 105.214Z" fill="url(#paint103_linear_146_10574)"/>
</g>
<path d="M454.813 93.8539L460.748 90.3945L437.156 81.4717L431.219 84.9308L454.813 93.8539Z" fill="url(#paint104_linear_146_10574)"/>
<g opacity="0.81">
<path d="M484.053 76.8183L489.999 73.3554L448.658 57.7219L442.715 61.1829L484.053 76.8183Z" fill="url(#paint105_linear_146_10574)"/>
<path d="M474.287 82.5028L480.261 79.0271L464.049 72.895L458.084 76.3745L474.287 82.5028Z" fill="url(#paint106_linear_146_10574)"/>
<path d="M464.547 88.1752L470.49 84.7142L417.635 64.7313L411.699 68.1929L464.547 88.1752Z" fill="url(#paint107_linear_146_10574)"/>
</g>
</g>
<path style="mix-blend-mode:multiply" d="M261.567 76.4098C274.802 69.1466 274.818 57.3708 261.596 50.1159C248.375 42.8592 226.926 42.8677 213.686 50.1294C200.451 57.3945 200.438 69.1685 213.662 76.4285C226.883 83.6852 248.331 83.6767 261.567 76.4098Z" fill="url(#paint108_linear_146_10574)"/>
<path d="M197 60.2989C197.013 54.597 200.983 48.8953 208.916 44.542C224.794 35.8286 250.516 35.8168 266.374 44.5217C274.309 48.8767 278.268 54.5887 278.256 60.2989V66.1107C278.245 71.8157 274.273 77.5174 266.338 81.8724C250.464 90.5841 224.74 90.5926 208.884 81.8894C200.947 77.5344 196.989 71.8224 197 66.1107V60.2989ZM213.662 73.4569C226.883 80.7135 248.33 80.705 261.567 73.4382C266.838 70.5433 269.974 66.9344 271.052 63.1818C269.979 59.4394 266.852 55.8373 261.596 52.9542C248.375 45.6993 226.926 45.706 213.685 52.9712C208.418 55.8643 205.279 59.4749 204.204 63.2276C205.279 66.9735 208.405 70.5705 213.662 73.4569Z" fill="#66C3FF"/>
<path d="M270.565 64.5437C270.755 64.0936 270.923 63.635 271.053 63.1816C269.98 59.4392 266.853 55.8371 261.596 52.954C258.532 51.2723 255.008 49.9966 251.264 49.0964V43.2847C255.008 44.1849 258.532 45.4588 261.596 47.144C270.195 51.861 273.156 58.4867 270.565 64.5437Z" fill="#3375B0"/>
<path d="M252.027 44.2271C255.476 45.1254 258.562 46.3149 261.21 47.7734C267.456 51.1994 270.795 55.6863 270.71 60.3781C269.047 57.3225 266.079 54.5747 261.975 52.3245C259.108 50.751 255.765 49.4754 252.027 48.5346V44.2271Z" fill="#3375B0"/>
<path d="M197 60.2987C196.989 66.0122 200.947 71.7242 208.884 76.0792C209.948 76.6611 211.064 77.2026 212.214 77.7067V83.5168C211.064 83.0126 209.948 82.4729 208.884 81.8892C200.947 77.5342 196.989 71.8222 197 66.1105V60.2987Z" fill="#3375B0"/>
<path d="M208.916 44.542C224.794 35.8286 250.516 35.8168 266.374 44.5217C282.231 53.225 282.215 67.3473 266.338 76.0589C250.464 84.7723 224.74 84.7808 208.884 76.0794C193.024 67.3728 193.042 53.2538 208.916 44.542ZM261.567 73.4381C274.802 66.1749 274.818 54.3991 261.595 47.1442C248.375 39.8876 226.925 39.896 213.685 47.1577C200.451 54.4229 200.438 66.1969 213.662 73.4569C226.883 80.7135 248.33 80.705 261.567 73.4381Z" fill="white"/>
<path d="M274.135 84.644C275.43 85.3597 277.094 84.9351 277.843 83.6999C278.594 82.4648 278.15 80.8879 276.847 80.1774L269.198 75.9781C267.903 75.2624 266.242 75.6853 265.489 76.9222C264.742 78.1573 265.187 79.734 266.486 80.448L274.135 84.644Z" fill="white"/>
<path d="M310.141 109.664L274.331 87.8143C273.631 87.4285 273.197 86.5962 273.193 85.4203C273.193 83.0601 274.936 80.1872 277.084 79.0112C278.155 78.4208 279.13 78.3667 279.835 78.7576V78.7541L317.63 97.3162H317.639V97.3195C318.598 97.8441 319.187 98.9759 319.192 100.585C319.192 103.796 316.818 107.708 313.894 109.312C312.43 110.117 311.106 110.19 310.145 109.664H310.141Z" fill="white"/>
<path d="M317.64 97.3161V97.3194C318.6 97.844 319.189 98.9758 319.194 100.585C319.194 103.796 316.82 107.708 313.896 109.312C312.431 110.117 311.107 110.19 310.147 109.664H310.143L304.416 106.168C303.836 105.566 303.477 104.662 303.477 103.459C303.482 100.314 305.797 96.4938 308.659 94.9236C309.75 94.3214 310.748 94.1674 311.581 94.3417L317.631 97.3161H317.64Z" fill="#66C3FF"/>
<path d="M274.331 87.8144C273.631 87.4285 273.197 86.5962 273.193 85.4204C273.193 85.2054 273.225 84.9855 273.252 84.7622L314.734 108.757C314.455 108.956 314.181 109.153 313.894 109.312C312.43 110.117 311.106 110.19 310.145 109.664H310.141L274.331 87.8144Z" fill="#3375B0"/>
<path d="M308.594 106.398C308.594 103.184 310.966 99.272 313.89 97.6664C316.819 96.0624 319.193 97.367 319.193 100.585C319.193 103.796 316.819 107.708 313.895 109.312C310.966 110.919 308.594 109.615 308.594 106.398Z" fill="white"/>
<defs>
<linearGradient id="paint0_linear_146_10574" x1="133.317" y1="260.325" x2="133.12" y2="46.2637" gradientUnits="userSpaceOnUse">
<stop offset="0.00341" stop-color="#C2E7FF"/>
<stop offset="1" stop-color="#A2C8E5"/>
</linearGradient>
<linearGradient id="paint1_linear_146_10574" x1="158.612" y1="266.921" x2="158.408" y2="45.9177" gradientUnits="userSpaceOnUse">
<stop offset="0.00341" stop-color="#C2E7FF"/>
<stop offset="1" stop-color="#A2C8E5"/>
</linearGradient>
<linearGradient id="paint2_linear_146_10574" x1="173.34" y1="269.968" x2="173.134" y2="46.355" gradientUnits="userSpaceOnUse">
<stop offset="0.00341" stop-color="#C2E7FF"/>
<stop offset="1" stop-color="#A2C8E5"/>
</linearGradient>
<linearGradient id="paint3_linear_146_10574" x1="193.781" y1="262.194" x2="193.585" y2="49.9253" gradientUnits="userSpaceOnUse">
<stop offset="0.00341" stop-color="#C2E7FF"/>
<stop offset="1" stop-color="#A2C8E5"/>
</linearGradient>
<linearGradient id="paint4_linear_146_10574" x1="135.206" y1="263.5" x2="135.002" y2="42.4368" gradientUnits="userSpaceOnUse">
<stop offset="0.00341" stop-color="#C2E7FF"/>
<stop offset="1" stop-color="#A2C8E5"/>
</linearGradient>
<linearGradient id="paint5_linear_146_10574" x1="163.283" y1="268.381" x2="163.075" y2="43.3776" gradientUnits="userSpaceOnUse">
<stop offset="0.00341" stop-color="#C2E7FF"/>
<stop offset="1" stop-color="#A2C8E5"/>
</linearGradient>
<linearGradient id="paint6_linear_146_10574" x1="170.275" y1="259.676" x2="170.078" y2="47.467" gradientUnits="userSpaceOnUse">
<stop offset="0.00341" stop-color="#C2E7FF"/>
<stop offset="1" stop-color="#A2C8E5"/>
</linearGradient>
<linearGradient id="paint7_linear_146_10574" x1="178.894" y1="266.891" x2="178.687" y2="42.7326" gradientUnits="userSpaceOnUse">
<stop offset="0.00341" stop-color="#C2E7FF"/>
<stop offset="1" stop-color="#A2C8E5"/>
</linearGradient>
<linearGradient id="paint8_linear_146_10574" x1="138.672" y1="264.311" x2="138.464" y2="39.6331" gradientUnits="userSpaceOnUse">
<stop offset="0.00341" stop-color="#C2E7FF"/>
<stop offset="1" stop-color="#A2C8E5"/>
</linearGradient>
<linearGradient id="paint9_linear_146_10574" x1="196.55" y1="261.089" x2="196.353" y2="47.4519" gradientUnits="userSpaceOnUse">
<stop offset="0.00341" stop-color="#C2E7FF"/>
<stop offset="1" stop-color="#A2C8E5"/>
</linearGradient>
<linearGradient id="paint10_linear_146_10574" x1="148.919" y1="262.989" x2="148.712" y2="38.8731" gradientUnits="userSpaceOnUse">
<stop offset="0.00341" stop-color="#C2E7FF"/>
<stop offset="1" stop-color="#A2C8E5"/>
</linearGradient>
<linearGradient id="paint11_linear_146_10574" x1="193.247" y1="262.1" x2="193.046" y2="44.2178" gradientUnits="userSpaceOnUse">
<stop offset="0.00341" stop-color="#C2E7FF"/>
<stop offset="1" stop-color="#A2C8E5"/>
</linearGradient>
<linearGradient id="paint12_linear_146_10574" x1="182.586" y1="261.083" x2="182.382" y2="40.3812" gradientUnits="userSpaceOnUse">
<stop offset="0.00341" stop-color="#C2E7FF"/>
<stop offset="1" stop-color="#A2C8E5"/>
</linearGradient>
<linearGradient id="paint13_linear_146_10574" x1="162.004" y1="257.943" x2="161.803" y2="40.113" gradientUnits="userSpaceOnUse">
<stop offset="0.00341" stop-color="#C2E7FF"/>
<stop offset="1" stop-color="#A2C8E5"/>
</linearGradient>
<linearGradient id="paint14_linear_146_10574" x1="176.525" y1="260.199" x2="176.32" y2="38.7391" gradientUnits="userSpaceOnUse">
<stop offset="0.00341" stop-color="#C2E7FF"/>
<stop offset="1" stop-color="#A2C8E5"/>
</linearGradient>
<linearGradient id="paint15_linear_146_10574" x1="159.185" y1="257.664" x2="158.981" y2="36.9466" gradientUnits="userSpaceOnUse">
<stop offset="0.00341" stop-color="#C2E7FF"/>
<stop offset="1" stop-color="#A2C8E5"/>
</linearGradient>
<linearGradient id="paint16_linear_146_10574" x1="107.569" y1="256.075" x2="107.374" y2="45.0815" gradientUnits="userSpaceOnUse">
<stop offset="0.00341" stop-color="#C2E7FF"/>
<stop offset="1" stop-color="#A2C8E5"/>
</linearGradient>
<linearGradient id="paint17_linear_146_10574" x1="111.817" y1="260.018" x2="111.613" y2="39.0023" gradientUnits="userSpaceOnUse">
<stop offset="0.00341" stop-color="#C2E7FF"/>
<stop offset="1" stop-color="#A2C8E5"/>
</linearGradient>
<linearGradient id="paint18_linear_146_10574" x1="111.044" y1="259.972" x2="110.838" y2="36.4038" gradientUnits="userSpaceOnUse">
<stop offset="0.00341" stop-color="#C2E7FF"/>
<stop offset="1" stop-color="#A2C8E5"/>
</linearGradient>
<linearGradient id="paint19_linear_146_10574" x1="96.2135" y1="257.739" x2="96.0093" y2="36.659" gradientUnits="userSpaceOnUse">
<stop offset="0.00341" stop-color="#C2E7FF"/>
<stop offset="1" stop-color="#A2C8E5"/>
</linearGradient>
<linearGradient id="paint20_linear_146_10574" x1="131.102" y1="255.563" x2="130.906" y2="43.2597" gradientUnits="userSpaceOnUse">
<stop offset="0.00341" stop-color="#C2E7FF"/>
<stop offset="1" stop-color="#A2C8E5"/>
</linearGradient>
<linearGradient id="paint21_linear_146_10574" x1="70.7013" y1="253.146" x2="70.5035" y2="39.11" gradientUnits="userSpaceOnUse">
<stop offset="0.00341" stop-color="#C2E7FF"/>
<stop offset="1" stop-color="#A2C8E5"/>
</linearGradient>
<linearGradient id="paint22_linear_146_10574" x1="72.8223" y1="254.277" x2="72.618" y2="33.1846" gradientUnits="userSpaceOnUse">
<stop offset="0.00341" stop-color="#C2E7FF"/>
<stop offset="1" stop-color="#A2C8E5"/>
</linearGradient>
<linearGradient id="paint23_linear_146_10574" x1="101.031" y1="257.961" x2="100.823" y2="33.059" gradientUnits="userSpaceOnUse">
<stop offset="0.00341" stop-color="#C2E7FF"/>
<stop offset="1" stop-color="#A2C8E5"/>
</linearGradient>
<linearGradient id="paint24_linear_146_10574" x1="44.8483" y1="249.811" x2="44.6533" y2="38.7923" gradientUnits="userSpaceOnUse">
<stop offset="0.00341" stop-color="#C2E7FF"/>
<stop offset="1" stop-color="#A2C8E5"/>
</linearGradient>
<linearGradient id="paint25_linear_146_10574" x1="107.597" y1="253.078" x2="107.401" y2="40.7288" gradientUnits="userSpaceOnUse">
<stop offset="0.00341" stop-color="#C2E7FF"/>
<stop offset="1" stop-color="#A2C8E5"/>
</linearGradient>
<linearGradient id="paint26_linear_146_10574" x1="116.61" y1="256.761" x2="116.403" y2="32.5607" gradientUnits="userSpaceOnUse">
<stop offset="0.00341" stop-color="#C2E7FF"/>
<stop offset="1" stop-color="#A2C8E5"/>
</linearGradient>
<linearGradient id="paint27_linear_146_10574" x1="76.3996" y1="254.016" x2="76.192" y2="29.3556" gradientUnits="userSpaceOnUse">
<stop offset="0.00341" stop-color="#C2E7FF"/>
<stop offset="1" stop-color="#A2C8E5"/>
</linearGradient>
<linearGradient id="paint28_linear_146_10574" x1="49.4233" y1="250.81" x2="49.219" y2="29.7294" gradientUnits="userSpaceOnUse">
<stop offset="0.00341" stop-color="#C2E7FF"/>
<stop offset="1" stop-color="#A2C8E5"/>
</linearGradient>
<linearGradient id="paint29_linear_146_10574" x1="133.919" y1="254.049" x2="133.722" y2="40.3815" gradientUnits="userSpaceOnUse">
<stop offset="0.00341" stop-color="#C2E7FF"/>
<stop offset="1" stop-color="#A2C8E5"/>
</linearGradient>
<linearGradient id="paint30_linear_146_10574" x1="86.6295" y1="252.864" x2="86.4224" y2="28.742" gradientUnits="userSpaceOnUse">
<stop offset="0.00341" stop-color="#C2E7FF"/>
<stop offset="1" stop-color="#A2C8E5"/>
</linearGradient>
<linearGradient id="paint31_linear_146_10574" x1="130.752" y1="253.803" x2="130.551" y2="35.9747" gradientUnits="userSpaceOnUse">
<stop offset="0.00341" stop-color="#C2E7FF"/>
<stop offset="1" stop-color="#A2C8E5"/>
</linearGradient>
<linearGradient id="paint32_linear_146_10574" x1="120.186" y1="251.962" x2="119.982" y2="31.1967" gradientUnits="userSpaceOnUse">
<stop offset="0.00341" stop-color="#C2E7FF"/>
<stop offset="1" stop-color="#A2C8E5"/>
</linearGradient>
<linearGradient id="paint33_linear_146_10574" x1="84.0908" y1="250.568" x2="83.8946" y2="38.3166" gradientUnits="userSpaceOnUse">
<stop offset="0.00341" stop-color="#C2E7FF"/>
<stop offset="1" stop-color="#A2C8E5"/>
</linearGradient>
<linearGradient id="paint34_linear_146_10574" x1="198.639" y1="255.248" x2="198.437" y2="36.5309" gradientUnits="userSpaceOnUse">
<stop offset="0.00341" stop-color="#C2E7FF"/>
<stop offset="1" stop-color="#A2C8E5"/>
</linearGradient>
<linearGradient id="paint35_linear_146_10574" x1="218.635" y1="257.15" x2="218.436" y2="41.733" gradientUnits="userSpaceOnUse">
<stop offset="0.00341" stop-color="#C2E7FF"/>
<stop offset="1" stop-color="#A2C8E5"/>
</linearGradient>
<linearGradient id="paint36_linear_146_10574" x1="192.75" y1="256.507" x2="192.543" y2="32.3576" gradientUnits="userSpaceOnUse">
<stop offset="0.00341" stop-color="#C2E7FF"/>
<stop offset="1" stop-color="#A2C8E5"/>
</linearGradient>
<linearGradient id="paint37_linear_146_10574" x1="196.601" y1="254.367" x2="196.403" y2="40.3263" gradientUnits="userSpaceOnUse">
<stop offset="0.00341" stop-color="#C2E7FF"/>
<stop offset="1" stop-color="#A2C8E5"/>
</linearGradient>
<linearGradient id="paint38_linear_146_10574" x1="178.651" y1="252.937" x2="178.446" y2="31.872" gradientUnits="userSpaceOnUse">
<stop offset="0.00341" stop-color="#C2E7FF"/>
<stop offset="1" stop-color="#A2C8E5"/>
</linearGradient>
<linearGradient id="paint39_linear_146_10574" x1="224.5" y1="266.199" x2="224.299" y2="48.407" gradientUnits="userSpaceOnUse">
<stop offset="0.00341" stop-color="#C2E7FF"/>
<stop offset="1" stop-color="#A2C8E5"/>
</linearGradient>
<linearGradient id="paint40_linear_146_10574" x1="238.898" y1="269.583" x2="238.693" y2="48.0565" gradientUnits="userSpaceOnUse">
<stop offset="0.00341" stop-color="#C2E7FF"/>
<stop offset="1" stop-color="#A2C8E5"/>
</linearGradient>
<linearGradient id="paint41_linear_146_10574" x1="221.581" y1="266.82" x2="221.377" y2="46.0487" gradientUnits="userSpaceOnUse">
<stop offset="0.00341" stop-color="#C2E7FF"/>
<stop offset="1" stop-color="#A2C8E5"/>
</linearGradient>
<linearGradient id="paint42_linear_146_10574" x1="255.035" y1="266.644" x2="254.828" y2="42.4953" gradientUnits="userSpaceOnUse">
<stop offset="0.00341" stop-color="#C2E7FF"/>
<stop offset="1" stop-color="#A2C8E5"/>
</linearGradient>
<linearGradient id="paint43_linear_146_10574" x1="259.214" y1="261.516" x2="259.016" y2="47.5266" gradientUnits="userSpaceOnUse">
<stop offset="0.00341" stop-color="#C2E7FF"/>
<stop offset="1" stop-color="#A2C8E5"/>
</linearGradient>
<linearGradient id="paint44_linear_146_10574" x1="241.039" y1="262.146" x2="240.835" y2="41.1652" gradientUnits="userSpaceOnUse">
<stop offset="0.00341" stop-color="#C2E7FF"/>
<stop offset="1" stop-color="#A2C8E5"/>
</linearGradient>
<linearGradient id="paint45_linear_146_10574" x1="233.248" y1="260.999" x2="233.044" y2="40.0081" gradientUnits="userSpaceOnUse">
<stop offset="0.00341" stop-color="#C2E7FF"/>
<stop offset="1" stop-color="#A2C8E5"/>
</linearGradient>
<linearGradient id="paint46_linear_146_10574" x1="237.976" y1="258.449" x2="237.78" y2="47.1495" gradientUnits="userSpaceOnUse">
<stop offset="0.00341" stop-color="#C2E7FF"/>
<stop offset="1" stop-color="#A2C8E5"/>
</linearGradient>
<linearGradient id="paint47_linear_146_10574" x1="211.947" y1="258.928" x2="211.741" y2="35.8118" gradientUnits="userSpaceOnUse">
<stop offset="0.00341" stop-color="#C2E7FF"/>
<stop offset="1" stop-color="#A2C8E5"/>
</linearGradient>
<linearGradient id="paint48_linear_146_10574" x1="146.77" y1="257.177" x2="146.574" y2="45.001" gradientUnits="userSpaceOnUse">
<stop offset="0.00341" stop-color="#C2E7FF"/>
<stop offset="1" stop-color="#A2C8E5"/>
</linearGradient>
<linearGradient id="paint49_linear_146_10574" x1="261.105" y1="263.797" x2="260.902" y2="45.0571" gradientUnits="userSpaceOnUse">
<stop offset="0.00341" stop-color="#C2E7FF"/>
<stop offset="1" stop-color="#A2C8E5"/>
</linearGradient>
<linearGradient id="paint50_linear_146_10574" x1="281.205" y1="264.729" x2="281.006" y2="49.2884" gradientUnits="userSpaceOnUse">
<stop offset="0.00341" stop-color="#C2E7FF"/>
<stop offset="1" stop-color="#A2C8E5"/>
</linearGradient>
<linearGradient id="paint51_linear_146_10574" x1="295.634" y1="270.249" x2="295.43" y2="49.1763" gradientUnits="userSpaceOnUse">
<stop offset="0.00341" stop-color="#C2E7FF"/>
<stop offset="1" stop-color="#A2C8E5"/>
</linearGradient>
<linearGradient id="paint52_linear_146_10574" x1="300.681" y1="264.861" x2="300.486" y2="53.4395" gradientUnits="userSpaceOnUse">
<stop offset="0.00341" stop-color="#C2E7FF"/>
<stop offset="1" stop-color="#A2C8E5"/>
</linearGradient>
<linearGradient id="paint53_linear_146_10574" x1="274.268" y1="268.774" x2="274.061" y2="45.6249" gradientUnits="userSpaceOnUse">
<stop offset="0.00341" stop-color="#C2E7FF"/>
<stop offset="1" stop-color="#A2C8E5"/>
</linearGradient>
<linearGradient id="paint54_linear_146_10574" x1="289.317" y1="168.325" x2="289.12" y2="-45.7363" gradientUnits="userSpaceOnUse">
<stop offset="0.00341" stop-color="#C2E7FF"/>
<stop offset="1" stop-color="#A2C8E5"/>
</linearGradient>
<linearGradient id="paint55_linear_146_10574" x1="314.612" y1="174.921" x2="314.408" y2="-46.0823" gradientUnits="userSpaceOnUse">
<stop offset="0.00341" stop-color="#C2E7FF"/>
<stop offset="1" stop-color="#A2C8E5"/>
</linearGradient>
<linearGradient id="paint56_linear_146_10574" x1="329.34" y1="177.968" x2="329.134" y2="-45.645" gradientUnits="userSpaceOnUse">
<stop offset="0.00341" stop-color="#C2E7FF"/>
<stop offset="1" stop-color="#A2C8E5"/>
</linearGradient>
<linearGradient id="paint57_linear_146_10574" x1="349.781" y1="170.194" x2="349.585" y2="-42.0747" gradientUnits="userSpaceOnUse">
<stop offset="0.00341" stop-color="#C2E7FF"/>
<stop offset="1" stop-color="#A2C8E5"/>
</linearGradient>
<linearGradient id="paint58_linear_146_10574" x1="291.206" y1="171.5" x2="291.002" y2="-49.5632" gradientUnits="userSpaceOnUse">
<stop offset="0.00341" stop-color="#C2E7FF"/>
<stop offset="1" stop-color="#A2C8E5"/>
</linearGradient>
<linearGradient id="paint59_linear_146_10574" x1="319.283" y1="176.381" x2="319.075" y2="-48.6224" gradientUnits="userSpaceOnUse">
<stop offset="0.00341" stop-color="#C2E7FF"/>
<stop offset="1" stop-color="#A2C8E5"/>
</linearGradient>
<linearGradient id="paint60_linear_146_10574" x1="326.275" y1="167.676" x2="326.078" y2="-44.533" gradientUnits="userSpaceOnUse">
<stop offset="0.00341" stop-color="#C2E7FF"/>
<stop offset="1" stop-color="#A2C8E5"/>
</linearGradient>
<linearGradient id="paint61_linear_146_10574" x1="334.894" y1="174.891" x2="334.687" y2="-49.2674" gradientUnits="userSpaceOnUse">
<stop offset="0.00341" stop-color="#C2E7FF"/>
<stop offset="1" stop-color="#A2C8E5"/>
</linearGradient>
<linearGradient id="paint62_linear_146_10574" x1="294.672" y1="172.311" x2="294.464" y2="-52.3669" gradientUnits="userSpaceOnUse">
<stop offset="0.00341" stop-color="#C2E7FF"/>
<stop offset="1" stop-color="#A2C8E5"/>
</linearGradient>
<linearGradient id="paint63_linear_146_10574" x1="352.55" y1="169.089" x2="352.353" y2="-44.5481" gradientUnits="userSpaceOnUse">
<stop offset="0.00341" stop-color="#C2E7FF"/>
<stop offset="1" stop-color="#A2C8E5"/>
</linearGradient>
<linearGradient id="paint64_linear_146_10574" x1="304.919" y1="170.989" x2="304.712" y2="-53.1269" gradientUnits="userSpaceOnUse">
<stop offset="0.00341" stop-color="#C2E7FF"/>
<stop offset="1" stop-color="#A2C8E5"/>
</linearGradient>
<linearGradient id="paint65_linear_146_10574" x1="349.247" y1="170.1" x2="349.046" y2="-47.7822" gradientUnits="userSpaceOnUse">
<stop offset="0.00341" stop-color="#C2E7FF"/>
<stop offset="1" stop-color="#A2C8E5"/>
</linearGradient>
<linearGradient id="paint66_linear_146_10574" x1="338.586" y1="169.083" x2="338.382" y2="-51.6188" gradientUnits="userSpaceOnUse">
<stop offset="0.00341" stop-color="#C2E7FF"/>
<stop offset="1" stop-color="#A2C8E5"/>
</linearGradient>
<linearGradient id="paint67_linear_146_10574" x1="318.004" y1="165.943" x2="317.803" y2="-51.887" gradientUnits="userSpaceOnUse">
<stop offset="0.00341" stop-color="#C2E7FF"/>
<stop offset="1" stop-color="#A2C8E5"/>
</linearGradient>
<linearGradient id="paint68_linear_146_10574" x1="332.525" y1="168.199" x2="332.32" y2="-53.2609" gradientUnits="userSpaceOnUse">
<stop offset="0.00341" stop-color="#C2E7FF"/>
<stop offset="1" stop-color="#A2C8E5"/>
</linearGradient>
<linearGradient id="paint69_linear_146_10574" x1="315.185" y1="165.664" x2="314.981" y2="-55.0534" gradientUnits="userSpaceOnUse">
<stop offset="0.00341" stop-color="#C2E7FF"/>
<stop offset="1" stop-color="#A2C8E5"/>
</linearGradient>
<linearGradient id="paint70_linear_146_10574" x1="263.569" y1="164.075" x2="263.374" y2="-46.9185" gradientUnits="userSpaceOnUse">
<stop offset="0.00341" stop-color="#C2E7FF"/>
<stop offset="1" stop-color="#A2C8E5"/>
</linearGradient>
<linearGradient id="paint71_linear_146_10574" x1="267.817" y1="168.018" x2="267.613" y2="-52.9977" gradientUnits="userSpaceOnUse">
<stop offset="0.00341" stop-color="#C2E7FF"/>
<stop offset="1" stop-color="#A2C8E5"/>
</linearGradient>
<linearGradient id="paint72_linear_146_10574" x1="267.044" y1="167.972" x2="266.838" y2="-55.5962" gradientUnits="userSpaceOnUse">
<stop offset="0.00341" stop-color="#C2E7FF"/>
<stop offset="1" stop-color="#A2C8E5"/>
</linearGradient>
<linearGradient id="paint73_linear_146_10574" x1="252.214" y1="165.739" x2="252.009" y2="-55.341" gradientUnits="userSpaceOnUse">
<stop offset="0.00341" stop-color="#C2E7FF"/>
<stop offset="1" stop-color="#A2C8E5"/>
</linearGradient>
<linearGradient id="paint74_linear_146_10574" x1="287.102" y1="163.563" x2="286.906" y2="-48.7403" gradientUnits="userSpaceOnUse">
<stop offset="0.00341" stop-color="#C2E7FF"/>
<stop offset="1" stop-color="#A2C8E5"/>
</linearGradient>
<linearGradient id="paint75_linear_146_10574" x1="226.701" y1="161.146" x2="226.504" y2="-52.89" gradientUnits="userSpaceOnUse">
<stop offset="0.00341" stop-color="#C2E7FF"/>
<stop offset="1" stop-color="#A2C8E5"/>
</linearGradient>
<linearGradient id="paint76_linear_146_10574" x1="228.822" y1="162.277" x2="228.618" y2="-58.8154" gradientUnits="userSpaceOnUse">
<stop offset="0.00341" stop-color="#C2E7FF"/>
<stop offset="1" stop-color="#A2C8E5"/>
</linearGradient>
<linearGradient id="paint77_linear_146_10574" x1="257.031" y1="165.961" x2="256.823" y2="-58.941" gradientUnits="userSpaceOnUse">
<stop offset="0.00341" stop-color="#C2E7FF"/>
<stop offset="1" stop-color="#A2C8E5"/>
</linearGradient>
<linearGradient id="paint78_linear_146_10574" x1="200.848" y1="157.811" x2="200.653" y2="-53.2077" gradientUnits="userSpaceOnUse">
<stop offset="0.00341" stop-color="#C2E7FF"/>
<stop offset="1" stop-color="#A2C8E5"/>
</linearGradient>
<linearGradient id="paint79_linear_146_10574" x1="263.597" y1="161.078" x2="263.401" y2="-51.2712" gradientUnits="userSpaceOnUse">
<stop offset="0.00341" stop-color="#C2E7FF"/>
<stop offset="1" stop-color="#A2C8E5"/>
</linearGradient>
<linearGradient id="paint80_linear_146_10574" x1="272.61" y1="164.761" x2="272.403" y2="-59.4393" gradientUnits="userSpaceOnUse">
<stop offset="0.00341" stop-color="#C2E7FF"/>
<stop offset="1" stop-color="#A2C8E5"/>
</linearGradient>
<linearGradient id="paint81_linear_146_10574" x1="232.4" y1="162.016" x2="232.192" y2="-62.6444" gradientUnits="userSpaceOnUse">
<stop offset="0.00341" stop-color="#C2E7FF"/>
<stop offset="1" stop-color="#A2C8E5"/>
</linearGradient>
<linearGradient id="paint82_linear_146_10574" x1="205.423" y1="158.81" x2="205.219" y2="-62.2706" gradientUnits="userSpaceOnUse">
<stop offset="0.00341" stop-color="#C2E7FF"/>
<stop offset="1" stop-color="#A2C8E5"/>
</linearGradient>
<linearGradient id="paint83_linear_146_10574" x1="289.919" y1="162.049" x2="289.722" y2="-51.6185" gradientUnits="userSpaceOnUse">
<stop offset="0.00341" stop-color="#C2E7FF"/>
<stop offset="1" stop-color="#A2C8E5"/>
</linearGradient>
<linearGradient id="paint84_linear_146_10574" x1="242.63" y1="160.864" x2="242.422" y2="-63.258" gradientUnits="userSpaceOnUse">
<stop offset="0.00341" stop-color="#C2E7FF"/>
<stop offset="1" stop-color="#A2C8E5"/>
</linearGradient>
<linearGradient id="paint85_linear_146_10574" x1="286.752" y1="161.803" x2="286.551" y2="-56.0253" gradientUnits="userSpaceOnUse">
<stop offset="0.00341" stop-color="#C2E7FF"/>
<stop offset="1" stop-color="#A2C8E5"/>
</linearGradient>
<linearGradient id="paint86_linear_146_10574" x1="276.186" y1="159.962" x2="275.982" y2="-60.8033" gradientUnits="userSpaceOnUse">
<stop offset="0.00341" stop-color="#C2E7FF"/>
<stop offset="1" stop-color="#A2C8E5"/>
</linearGradient>
<linearGradient id="paint87_linear_146_10574" x1="240.091" y1="158.568" x2="239.895" y2="-53.6834" gradientUnits="userSpaceOnUse">
<stop offset="0.00341" stop-color="#C2E7FF"/>
<stop offset="1" stop-color="#A2C8E5"/>
</linearGradient>
<linearGradient id="paint88_linear_146_10574" x1="354.639" y1="163.248" x2="354.437" y2="-55.4691" gradientUnits="userSpaceOnUse">
<stop offset="0.00341" stop-color="#C2E7FF"/>
<stop offset="1" stop-color="#A2C8E5"/>
</linearGradient>
<linearGradient id="paint89_linear_146_10574" x1="374.635" y1="165.15" x2="374.436" y2="-50.267" gradientUnits="userSpaceOnUse">
<stop offset="0.00341" stop-color="#C2E7FF"/>
<stop offset="1" stop-color="#A2C8E5"/>
</linearGradient>
<linearGradient id="paint90_linear_146_10574" x1="348.75" y1="164.507" x2="348.543" y2="-59.6424" gradientUnits="userSpaceOnUse">
<stop offset="0.00341" stop-color="#C2E7FF"/>
<stop offset="1" stop-color="#A2C8E5"/>
</linearGradient>
<linearGradient id="paint91_linear_146_10574" x1="352.601" y1="162.367" x2="352.403" y2="-51.6737" gradientUnits="userSpaceOnUse">
<stop offset="0.00341" stop-color="#C2E7FF"/>
<stop offset="1" stop-color="#A2C8E5"/>
</linearGradient>
<linearGradient id="paint92_linear_146_10574" x1="334.651" y1="160.937" x2="334.446" y2="-60.128" gradientUnits="userSpaceOnUse">
<stop offset="0.00341" stop-color="#C2E7FF"/>
<stop offset="1" stop-color="#A2C8E5"/>
</linearGradient>
<linearGradient id="paint93_linear_146_10574" x1="380.5" y1="174.199" x2="380.299" y2="-43.593" gradientUnits="userSpaceOnUse">
<stop offset="0.00341" stop-color="#C2E7FF"/>
<stop offset="1" stop-color="#A2C8E5"/>
</linearGradient>
<linearGradient id="paint94_linear_146_10574" x1="394.898" y1="177.583" x2="394.693" y2="-43.9435" gradientUnits="userSpaceOnUse">
<stop offset="0.00341" stop-color="#C2E7FF"/>
<stop offset="1" stop-color="#A2C8E5"/>
</linearGradient>
<linearGradient id="paint95_linear_146_10574" x1="377.581" y1="174.82" x2="377.377" y2="-45.9513" gradientUnits="userSpaceOnUse">
<stop offset="0.00341" stop-color="#C2E7FF"/>
<stop offset="1" stop-color="#A2C8E5"/>
</linearGradient>
<linearGradient id="paint96_linear_146_10574" x1="411.035" y1="174.644" x2="410.828" y2="-49.5047" gradientUnits="userSpaceOnUse">
<stop offset="0.00341" stop-color="#C2E7FF"/>
<stop offset="1" stop-color="#A2C8E5"/>
</linearGradient>
<linearGradient id="paint97_linear_146_10574" x1="415.214" y1="169.516" x2="415.016" y2="-44.4734" gradientUnits="userSpaceOnUse">
<stop offset="0.00341" stop-color="#C2E7FF"/>
<stop offset="1" stop-color="#A2C8E5"/>
</linearGradient>
<linearGradient id="paint98_linear_146_10574" x1="397.039" y1="170.146" x2="396.835" y2="-50.8348" gradientUnits="userSpaceOnUse">
<stop offset="0.00341" stop-color="#C2E7FF"/>
<stop offset="1" stop-color="#A2C8E5"/>
</linearGradient>
<linearGradient id="paint99_linear_146_10574" x1="389.248" y1="168.999" x2="389.044" y2="-51.9919" gradientUnits="userSpaceOnUse">
<stop offset="0.00341" stop-color="#C2E7FF"/>
<stop offset="1" stop-color="#A2C8E5"/>
</linearGradient>
<linearGradient id="paint100_linear_146_10574" x1="393.976" y1="166.449" x2="393.78" y2="-44.8505" gradientUnits="userSpaceOnUse">
<stop offset="0.00341" stop-color="#C2E7FF"/>
<stop offset="1" stop-color="#A2C8E5"/>
</linearGradient>
<linearGradient id="paint101_linear_146_10574" x1="367.947" y1="166.928" x2="367.741" y2="-56.1882" gradientUnits="userSpaceOnUse">
<stop offset="0.00341" stop-color="#C2E7FF"/>
<stop offset="1" stop-color="#A2C8E5"/>
</linearGradient>
<linearGradient id="paint102_linear_146_10574" x1="302.77" y1="165.177" x2="302.574" y2="-46.999" gradientUnits="userSpaceOnUse">
<stop offset="0.00341" stop-color="#C2E7FF"/>
<stop offset="1" stop-color="#A2C8E5"/>
</linearGradient>
<linearGradient id="paint103_linear_146_10574" x1="417.105" y1="171.797" x2="416.902" y2="-46.9429" gradientUnits="userSpaceOnUse">
<stop offset="0.00341" stop-color="#C2E7FF"/>
<stop offset="1" stop-color="#A2C8E5"/>
</linearGradient>
<linearGradient id="paint104_linear_146_10574" x1="437.205" y1="172.729" x2="437.006" y2="-42.7116" gradientUnits="userSpaceOnUse">
<stop offset="0.00341" stop-color="#C2E7FF"/>
<stop offset="1" stop-color="#A2C8E5"/>
</linearGradient>
<linearGradient id="paint105_linear_146_10574" x1="451.634" y1="178.249" x2="451.43" y2="-42.8237" gradientUnits="userSpaceOnUse">
<stop offset="0.00341" stop-color="#C2E7FF"/>
<stop offset="1" stop-color="#A2C8E5"/>
</linearGradient>
<linearGradient id="paint106_linear_146_10574" x1="456.681" y1="172.861" x2="456.486" y2="-38.5605" gradientUnits="userSpaceOnUse">
<stop offset="0.00341" stop-color="#C2E7FF"/>
<stop offset="1" stop-color="#A2C8E5"/>
</linearGradient>
<linearGradient id="paint107_linear_146_10574" x1="430.268" y1="176.774" x2="430.061" y2="-46.3751" gradientUnits="userSpaceOnUse">
<stop offset="0.00341" stop-color="#C2E7FF"/>
<stop offset="1" stop-color="#A2C8E5"/>
</linearGradient>
<linearGradient id="paint108_linear_146_10574" x1="203.752" y1="63.2719" x2="271.503" y2="63.2719" gradientUnits="userSpaceOnUse">
<stop offset="0.00341" stop-color="#C2E7FF"/>
<stop offset="1" stop-color="#A2C8E5"/>
</linearGradient>
<clipPath id="clip0_146_10574">
<rect width="325" height="154" fill="white" transform="translate(9 100)"/>
</clipPath>
<clipPath id="clip1_146_10574">
<rect width="325" height="154" fill="white" transform="translate(165 8)"/>
</clipPath>
</defs>
</svg>
