<svg width="124" height="44" viewBox="0 0 124 44" fill="none" xmlns="http://www.w3.org/2000/svg">
<g id="Group">
<path id="Vector" d="M102.091 0.869873C97.0212 0.869873 92.3689 2.64985 88.7194 5.61562C85.069 2.64985 80.4167 0.869873 75.3481 0.869873C70.2786 0.869873 65.6264 2.64985 61.9764 5.61519C58.3264 2.64942 53.6741 0.869873 48.6047 0.869873C43.5357 0.869873 38.8834 2.64985 35.2334 5.61519C31.583 2.64985 26.9307 0.869873 21.8613 0.869873C10.1401 0.869873 0.638672 10.3713 0.638672 22.0925C0.638672 33.8136 10.1401 43.315 21.8613 43.315C26.9307 43.315 31.583 41.5351 35.233 38.5693C38.8829 41.5351 43.5352 43.315 48.6043 43.315C53.6737 43.315 58.326 41.5351 61.976 38.5693C65.6264 41.5351 70.2786 43.315 75.3477 43.315C80.4167 43.315 85.069 41.5351 88.719 38.5693C92.3689 41.5351 97.0212 43.315 102.09 43.315C113.811 43.315 123.313 33.8136 123.313 22.0925C123.313 10.3713 113.812 0.869873 102.091 0.869873ZM88.719 31.6303C86.7975 28.9406 85.6627 25.6503 85.6627 22.0925C85.6627 18.5347 86.7975 15.2443 88.719 12.5547C90.6409 15.2443 91.7752 18.5347 91.7752 22.0925C91.7752 25.6503 90.6409 28.9406 88.719 31.6303ZM61.976 31.6303C60.054 28.9406 58.9193 25.6503 58.9193 22.0925C58.9193 18.5347 60.054 15.2439 61.976 12.5542C63.8975 15.2439 65.0322 18.5347 65.0322 22.0925C65.0322 25.6503 63.8975 28.9406 61.976 31.6303ZM35.233 31.6303C33.311 28.9406 32.1763 25.6503 32.1763 22.0925C32.1763 18.5347 33.311 15.2439 35.233 12.5542C37.2247 15.3355 38.2938 18.6716 38.2896 22.0925C38.2937 25.5132 37.2247 28.8491 35.233 31.6303ZM5.43289 22.0925C5.43289 13.019 12.7882 5.66409 21.8613 5.66409C25.4781 5.65946 28.9944 6.85404 31.86 9.0609C29.0565 12.6581 27.3817 17.1784 27.3817 22.0925C27.3817 27.0061 29.0565 31.5268 31.86 35.1236C28.9944 37.3304 25.4781 38.525 21.8613 38.5204C12.7882 38.5204 5.43289 31.1655 5.43289 22.0925ZM38.606 35.1236C41.4095 31.5264 43.0843 27.0061 43.0843 22.0925C43.0843 17.1784 41.4095 12.6581 38.606 9.0609C41.4715 6.85404 44.9878 5.65946 48.6047 5.66409C52.2215 5.65946 55.7379 6.85404 58.6034 9.0609C55.7995 12.6581 54.1251 17.1784 54.1251 22.0925C54.1251 27.0061 55.7999 31.5264 58.6034 35.1236C55.7379 37.3304 52.2215 38.525 48.6047 38.5204C44.9878 38.5251 41.4715 37.3305 38.606 35.1236ZM65.349 35.1236C68.1529 31.5264 69.8277 27.0061 69.8277 22.0925C69.8277 17.1784 68.1529 12.6581 65.349 9.0609C68.1187 6.93254 71.5843 5.66409 75.3477 5.66409C79.111 5.66409 82.5762 6.93254 85.3464 9.06133C82.5425 12.6585 80.8681 17.1784 80.8681 22.0925C80.8681 27.0061 82.5425 31.5264 85.3464 35.1236C82.4808 37.3304 78.9645 38.525 75.3477 38.5204C71.7308 38.525 68.2145 37.3304 65.349 35.1236ZM102.091 38.5204C98.4738 38.5249 94.9576 37.3303 92.092 35.1236C94.8954 31.5264 96.5703 27.0061 96.5703 22.0925C96.5703 17.1784 94.8954 12.6581 92.0915 9.06133C94.957 6.85423 98.4733 5.65948 102.09 5.66409C111.163 5.66409 118.519 13.0194 118.519 22.0925C118.519 31.1655 111.164 38.5204 102.091 38.5204Z" fill="white"/>
</g>
</svg>
