<svg width="237" height="49" viewBox="0 0 237 49" fill="none" xmlns="http://www.w3.org/2000/svg">
<g id="Group 19">
<path id="Vector" fill-rule="evenodd" clip-rule="evenodd" d="M25.5208 24.1991L26.6082 23.5765L40.2173 32.9069L25.5208 24.1991ZM24.7391 23.7015L23.7275 23.1193L24.8552 5.31104L24.7391 23.7015ZM23.5203 23.6409L19.0105 27.3728L24.4145 24.1852L23.5203 23.6409Z" fill="white"/>
<path id="Vector_2" fill-rule="evenodd" clip-rule="evenodd" d="M25.0143 0.0322266C11.5934 0.0322266 0.712158 10.9122 0.712158 24.3344C0.712158 37.7566 11.5934 48.6366 25.0143 48.6366C38.4365 48.6366 49.3178 37.7566 49.3178 24.3344C49.3178 10.9122 38.4365 0.0322266 25.0143 0.0322266ZM25.0169 47.3408C19.4638 47.3408 14.267 45.4894 10.3949 42.0909C6.62763 38.7821 3.70147 33.5246 2.97908 27.9362C4.69159 38.5636 13.907 46.6816 25.0169 46.6816C37.3454 46.6816 47.34 36.6869 47.34 24.3584C47.34 19.2436 45.4293 14.2349 42.5347 10.4714C45.4672 12.7333 47.9993 19.1754 47.9993 24.3584C47.9993 37.0506 37.7091 47.3408 25.0169 47.3408ZM22.9065 22.603L24.8716 2.45322L25.0143 2.45196H25.0648L25.2581 23.6562L28.6401 21.6343L25.2379 2.45449C37.2203 2.57446 46.8993 12.3229 46.8993 24.3344C46.8993 28.1938 45.8991 31.8184 44.1461 34.9656L28.9571 22.2569L27.5187 23.0727L44.0426 35.1474L43.9163 35.3647L25.3338 24.6741V28.4452L43.7887 35.5781C39.9634 41.9507 32.9871 46.2168 25.0131 46.2168C17.0479 46.2168 10.0766 41.9596 6.25002 35.597L24.6935 28.406V24.6362L6.08963 35.3268L5.96712 35.1146L22.4329 23.0727L20.9945 22.2569L5.84715 34.8986C4.06062 31.6645 3.12623 28.0291 3.13189 24.3344C3.13189 12.4176 12.658 2.72601 24.5104 2.45701L21.5464 21.7871L22.9065 22.603ZM25.0143 1.33807C12.3208 1.33807 2.0319 11.6283 2.0319 24.3205C2.0319 29.4757 3.90227 34.3518 6.75518 38.5636C7.72257 40.3733 8.76952 41.4936 10.1663 42.9724C4.69285 38.6002 1.15165 31.8702 1.15165 24.3192C1.15165 11.1408 11.8346 0.456562 25.0143 0.456562C38.1941 0.456562 49.0803 11.6055 48.6888 24.3192C48.358 11.9149 37.4982 1.33807 25.0143 1.33807ZM131.767 25.9433C131.767 21.681 129.883 18.2257 125.745 18.2257C121.905 18.2257 119.721 21.681 119.721 25.9433C119.721 30.2057 121.546 33.661 125.745 33.661C129.823 33.661 131.022 31.6403 131.648 28.4085L130.242 28.4035C130.124 29.602 129.342 32.3021 126.345 32.3615C122.926 32.4309 122.688 28.0436 122.746 25.9446L122.805 24.7448C122.805 23.4264 122.687 19.5278 125.864 19.5278C128.382 19.5278 128.742 22.7671 128.742 24.7448H122.805L122.746 25.9446L131.767 25.9433ZM60.8241 12.9152L60.7635 13.875H61.6627C62.3219 13.875 63.163 13.9343 63.163 14.7742L62.8637 31.0278C62.8637 31.6277 62.5632 32.2869 61.3634 32.2869H60.4642L60.4036 33.2467H66.4605V32.2869H65.4413C64.6609 32.2869 64.1216 32.047 64.1216 31.0278L64.4209 15.4347L70.8984 32.2263H71.5576L78.0944 15.2541L78.395 31.0278C78.395 31.5671 77.8545 32.2869 77.0146 32.2869H75.7555V33.2467H83.3721V32.2869H82.4729C81.8137 32.2869 81.0332 31.927 81.0332 31.0872L80.7326 15.0141C80.7326 14.4736 81.3325 13.875 81.9324 13.875H83.0716V12.9152H77.6133L71.9756 27.6685L66.338 12.9152H60.8241ZM103.013 33.2594V32.4802H102.413C101.874 32.4802 100.914 32.2996 100.914 31.2198V23.3632C100.914 20.9043 102.173 20.0051 103.432 20.0051C103.912 20.0051 104.213 20.2451 104.091 21.1443C103.971 22.0435 104.751 22.6434 105.411 22.584C106.072 22.5246 106.911 22.4034 106.79 20.725C106.669 19.0466 105.712 18.2661 104.032 18.2661C102.712 18.2661 101.633 19.1059 101.333 19.5265C100.985 20.0152 100.553 19.8258 100.493 19.2865C100.434 18.7473 100.194 18.208 99.5942 18.3874C98.4468 18.7542 97.258 18.9756 96.0555 19.0466V19.6465C98.5738 19.5265 98.3351 20.7856 98.3351 21.3855V31.221C98.3351 32.3008 97.3753 32.4814 96.8347 32.4814H95.9949V33.2606L103.013 33.2594ZM116.373 19.1792C115.489 18.5338 114.378 18.1638 113.025 18.1638C109.187 18.1638 107.002 21.6191 107.002 25.8827C107.002 30.145 108.826 33.5802 113.025 33.6004C116.743 33.6193 117.644 31.5204 118.269 28.2873L116.863 28.281C116.743 29.4795 116.324 32.2389 113.625 32.2996C110.208 32.3766 109.968 27.9804 110.027 25.8827C110.027 24.563 110.208 19.284 113.086 19.284C115.543 19.284 117.044 21.0243 117.044 23.0033H117.823V17.9655H117.164L116.373 19.1792ZM203.136 32.3602C199.718 32.4296 199.479 28.0423 199.537 25.9433H208.558C208.558 21.681 206.676 18.2257 202.536 18.2257C198.698 18.2257 196.515 21.681 196.515 25.9433C196.515 30.2057 198.337 33.661 202.536 33.661C206.614 33.661 207.815 31.6403 208.439 28.4085L207.036 28.4022C206.915 29.602 206.136 32.3021 203.136 32.3602ZM202.658 19.5265C205.176 19.5265 205.536 22.7659 205.536 24.7436H199.599C199.599 23.4251 199.479 19.5265 202.658 19.5265ZM153.831 32.3602C150.412 32.4296 150.174 28.0423 150.232 25.9433H159.253C159.253 21.681 157.369 18.2257 153.231 18.2257C149.393 18.2257 147.207 21.681 147.207 25.9433C147.207 30.2057 149.032 33.661 153.231 33.661C157.309 33.661 158.508 31.6403 159.134 28.4085L157.728 28.4022C157.61 29.602 156.831 32.3021 153.831 32.3602ZM153.35 19.5265C155.871 19.5265 156.228 22.7659 156.228 24.7436H150.291C150.291 23.4251 150.174 19.5265 153.35 19.5265ZM90.1792 32.3602C86.7618 32.4296 86.5218 28.0423 86.5812 25.9433H95.6021C95.6021 21.681 93.7179 18.2257 89.5806 18.2257C85.7413 18.2257 83.5578 21.681 83.5578 25.9433C83.5578 30.2057 85.3814 33.661 89.5806 33.661C93.6585 33.661 94.8583 31.6403 95.4834 28.4085L94.0778 28.4035C93.9578 29.602 93.1786 32.3021 90.1792 32.3602ZM89.6993 19.5265C92.2188 19.5265 92.5775 22.7659 92.5775 24.7436H86.6405C86.6405 23.4251 86.5218 19.5265 89.6993 19.5265ZM144.828 30.1274V13.3938C144.828 12.7043 144.47 12.1334 143.868 12.314C142.721 12.6812 141.533 12.9027 140.331 12.9733V13.5731C142.07 13.4532 142.25 13.9937 142.25 14.5936V19.7513C141.471 19.0314 140.571 18.3116 138.953 18.3116C136.913 18.3116 133.135 19.9306 133.135 25.6276C133.135 33.1255 137.513 33.6042 138.833 33.6042C140.153 33.6042 141.892 32.5256 142.251 31.9548C142.281 31.8348 142.461 31.6845 142.52 31.9548C142.582 32.4953 142.971 33.3036 143.571 33.1242C144.718 32.7577 145.907 32.5362 147.109 32.465V31.8651C144.589 31.9864 144.828 30.726 144.828 30.1274ZM142.25 28.3277C142.191 31.6252 140.452 32.6456 139.012 32.6456C135.774 32.5863 136.013 27.6685 136.013 25.5683C136.013 23.468 136.134 19.3307 139.071 19.6907C142.012 20.0506 142.251 23.1687 142.251 25.0277L142.25 28.3277ZM180.034 24.6741V23.295H172.119V24.6741H180.034ZM161.214 28.161V33.2581H161.872L162.472 31.9384C163.072 32.4789 164.332 33.3781 165.95 33.3781C167.57 33.3781 169.85 32.4789 170.75 30.8005C171.648 29.1208 171.229 26.3614 169.189 25.5215C167.404 24.7865 165.838 23.9063 164.632 23.3026C164.256 23.1238 163.949 22.8289 163.754 22.4614C163.56 22.094 163.489 21.6737 163.553 21.263C163.734 20.3032 164.572 19.284 166.491 19.2234C168.41 19.164 169.369 20.7831 169.611 22.6421H170.269V17.8456H169.669L169.009 18.9847C167.751 18.1449 167.21 18.0249 166.071 18.0249C164.932 18.0249 163.012 18.6248 161.933 20.3044C160.854 21.9841 161.153 24.6211 163.734 25.7021C166.311 26.7807 167.512 27.4412 168.231 27.8011C168.951 28.161 169.37 29.6007 168.891 30.4406C168.41 31.2791 167.512 32.2402 166.072 32.2402C164.633 32.2402 162.356 31.2198 161.815 28.1623L161.214 28.161ZM191.307 22.2708C192.748 21.9109 194.187 19.332 194.187 17.593C194.187 15.854 193.527 12.9152 189.328 12.9152H180.332V13.6944C181.232 13.6944 182.791 13.875 182.791 15.374V30.188C182.791 31.0278 182.732 32.4069 180.332 32.4069V33.2467H187.71C189.928 33.2467 195.026 33.0662 195.147 27.1898C195.147 25.2096 194.187 22.8707 191.307 22.2708ZM185.37 13.875H188.369C190.589 13.875 191.487 15.4928 191.487 17.593C191.487 20.1718 190.708 22.1508 188.369 22.1508H185.37V13.875ZM188.429 32.2869H185.37V23.1106H188.788C190.769 23.1106 192.508 24.4897 192.508 27.4879C192.508 30.4873 190.707 32.2869 188.429 32.2869ZM219.641 22.3441V31.2198C219.641 32.2996 218.682 32.4802 218.141 32.4802H217.781V33.2594H224.318V32.4802H223.718C223.177 32.4802 222.218 32.2996 222.218 31.2198V22.4047C222.158 18.3861 218.56 18.2661 217.301 18.2661C215.981 18.2661 214.54 19.1059 214.242 19.5265C213.893 20.0152 213.461 19.8258 213.401 19.2865C213.342 18.7473 213.103 18.208 212.501 18.3874C211.354 18.7541 210.165 18.9756 208.963 19.0466V19.6465C211.482 19.5265 211.243 20.7856 211.243 21.3855V31.221C211.243 32.3008 210.283 32.4814 209.743 32.4814H208.904V33.2606H215.92V32.4814H215.32C214.779 32.4814 213.819 32.3008 213.819 31.221V23.3645C213.819 22.046 214.3 19.9458 216.759 19.7652C219.221 19.5859 219.641 21.2049 219.641 22.3441ZM225.708 22.6446L226.788 18.5667H236.985L228.228 32.4208H232.904C233.984 32.4208 234.824 32.0003 235.963 29.2408H236.444L235.485 33.2594H225.048L233.745 19.4065H229.846C228.886 19.4065 227.809 19.4065 226.308 22.6446H225.708Z" fill="white"/>
</g>
</svg>
