<svg width="151" height="63" viewBox="0 0 151 63" fill="none" xmlns="http://www.w3.org/2000/svg">
<g id="bmw-mini-1 logo" clip-path="url(#clip0_192_1008)">
<path id="Vector" d="M103.394 15.7738C97.6525 6.04164 87.0229 0 75.5837 0C64.1444 0 53.5149 6.04164 47.7729 15.7738H0.00146484L0.420845 16.3583C0.568075 16.5641 15.5074 37.1752 39.0306 52.3159L39.1243 52.3734H51.5674C57.6841 59.1257 66.422 63 75.5859 63C84.7498 63 93.4899 59.1257 99.6066 52.3734H111.88L111.974 52.3159C135.497 37.1752 150.432 16.5619 150.581 16.3583L151.001 15.7738H103.394Z" fill="black"/>
<path id="Vector_2" d="M145.707 21.2886H105.567C106.192 23.0486 106.654 24.8817 106.948 26.7679H108.005C107.734 25.3602 107.364 23.9731 106.897 22.6169C106.897 22.6169 140.806 21.8266 145.634 21.3794C142.7 24.8506 139.622 28.1986 136.407 31.4148H107.35L107.354 31.499C107.354 33.3453 107.158 35.1408 106.843 36.8964H108.358C108.543 35.5636 108.679 34.2132 108.679 32.8295L108.677 32.7454C108.677 32.7454 132.08 31.9927 136.289 31.5322C132.73 35.0941 129.008 38.4909 125.133 41.7115H105.567C104.891 43.6172 104.028 45.4524 102.991 47.1908H105.027C105.735 45.8537 106.386 44.4833 106.897 43.0398C106.897 43.0398 121.363 42.3403 124.939 41.8709C120.707 45.3823 116.271 48.6431 111.653 51.6363H99.281L99.1694 51.7581C96.2073 55.0615 92.5742 57.7053 88.5089 59.5156C84.4437 61.326 80.0384 62.262 75.5826 62.262C71.1268 62.262 66.7215 61.326 62.6563 59.5156C58.591 57.7053 54.9579 55.0615 51.9958 51.7581L51.8842 51.6363H39.343C34.723 48.6408 30.2844 45.3786 26.05 41.8665C29.7686 42.3314 45.5311 43.0398 45.5311 43.0398C46.2226 44.5032 47.2131 45.8714 48.1031 47.1908H48.1745C47.136 45.4527 46.2723 43.6174 45.5958 41.7115H25.8648C21.9895 38.4915 18.2668 35.0947 14.7088 31.5322C19.0097 31.9993 43.4007 32.8029 43.4007 32.8295C43.4007 34.1357 43.8915 35.4153 44.2885 36.6728C43.9809 34.9648 43.8212 33.2339 43.8112 31.499L43.8156 31.4148H14.5951C11.3589 28.1746 8.25996 24.8022 5.30623 21.3063L44.7035 22.6169C44.4893 23.932 44.3711 25.34 44.206 26.7679H44.2194C44.5139 24.8817 44.9734 23.0486 45.598 21.2886H5.29284C3.97291 19.7307 2.69571 18.1376 1.46265 16.5111H48.1857L48.2927 16.3273C53.8741 6.71251 64.3318 0.739502 75.5815 0.739502C86.8311 0.739502 97.2889 6.71251 102.872 16.3273L102.98 16.5111H149.537C148.306 18.1387 147.029 19.7319 145.707 21.2886Z" fill="white"/>
<path id="Vector_3" d="M75.5836 4.35474C60.2852 4.35474 47.8822 16.5066 47.8822 31.5012C47.8822 46.4913 60.2852 58.6476 75.5836 58.6476C90.8821 58.6476 103.287 46.4913 103.287 31.5012C103.287 16.5066 90.8821 4.35474 75.5836 4.35474Z" fill="black"/>
<path id="Vector_4" d="M75.5836 56.985C61.2198 56.985 49.5753 45.5747 49.5753 31.499C49.5753 17.4232 61.2198 6.01294 75.5836 6.01294C89.9474 6.01294 101.59 17.4232 101.59 31.499C101.59 45.5747 89.9474 56.985 75.5836 56.985Z" fill="white"/>
<path id="Vector_5" d="M100.068 31.5012C100.068 44.7512 89.1065 55.4929 75.5837 55.4929C62.0609 55.4929 51.099 44.7512 51.099 31.5012C51.099 18.2512 62.0609 7.50952 75.5837 7.50952C89.1065 7.50952 100.068 18.2512 100.068 31.5012Z" fill="black"/>
<path id="Vector_6" d="M93.2913 24.948H96.5661V38.4637H93.2913V24.948ZM72.2353 24.948H75.5101V38.4637H72.2353V24.948ZM87.4869 24.948V33.1459L81.4974 24.948H78.41V38.4637H81.4974V30.2657L87.4869 38.4637H90.5765V24.948H87.4869ZM65.2598 24.948L61.6638 33.3806L58.0678 24.948H54.3291V38.4637H57.4187V30.8081L60.6154 38.4371L60.6265 38.4637H62.5762L62.5896 38.4393L66.0963 30.0709V38.4637H69.1837V24.948H65.2598Z" fill="white"/>
</g>
<defs>
<clipPath id="clip0_192_1008">
<rect width="151" height="63" fill="white"/>
</clipPath>
</defs>
</svg>
