<svg width="220" height="220" viewBox="0 0 220 220" fill="none" xmlns="http://www.w3.org/2000/svg">
<g filter="url(#filter0_d_713_986)">
<path d="M169.998 105.997C169.998 139.14 143.142 166 109.999 166C76.8557 166 50.002 139.14 50.002 105.997C50.002 72.8538 76.8669 46 109.999 46C143.131 46 169.998 72.8649 169.998 105.997Z" fill="#FFBDE0"/>
<path d="M141.436 99.4546H84.7783V145.667H141.436V99.4546Z" fill="#FFF7FB"/>
<path d="M137.791 92.0965H137.736L137.709 92.0098L113.108 92.0531L88.5067 92.0098L88.4806 92.0965H88.4249L84.7734 99.444H141.442L137.791 92.0965Z" fill="#445D78"/>
<path d="M117.068 99.4546H109.148V118.614H117.068V99.4546Z" fill="#38516B"/>
<path d="M115.979 92.0498H115.468H110.751H110.239L109.148 99.4432H117.068L115.979 92.0498Z" fill="#38516B"/>
<path d="M138.123 140.784H124.945V143.38H138.123V140.784Z" fill="#38516B"/>
<path d="M130.77 131.887L128.655 129.74L126.509 131.887H127.165V140.043H130.113V131.887H130.77Z" fill="#38516B"/>
<path d="M136.559 133.907L134.968 132.292L133.353 133.907H133.847V140.043H136.065V133.907H136.559Z" fill="#38516B"/>
<path d="M95.8383 103.099H86.7871V104.829H95.8383V103.099Z" fill="#38516B"/>
<path d="M104.356 103.099H97.4346V104.829H104.356V103.099Z" fill="#38516B"/>
<path d="M91.8461 106.698H86.7871V108.429H91.8461V106.698Z" fill="#38516B"/>
<path d="M104.356 106.698H99.2979V108.429H104.356V106.698Z" fill="#38516B"/>
<path d="M98.1007 106.698H93.043V108.429H98.1007V106.698Z" fill="#38516B"/>
<path d="M130.286 70.5254H95.9297V98.5476H130.286V70.5254Z" fill="#FFF7FB"/>
<path d="M128.074 66.0635H128.041L128.024 66.0103L113.106 66.0375L98.1895 66.0103L98.1734 66.0635H98.1399L95.9258 70.5179H130.288L128.074 66.0635Z" fill="#445D78"/>
<path d="M115.51 70.5254H110.707V82.1427H115.51V70.5254Z" fill="#38516B"/>
<path d="M114.848 66.0356H114.537H111.677H111.367L110.707 70.5185H115.51L114.848 66.0356Z" fill="#38516B"/>
<path d="M128.277 95.5867H120.286V97.1603H128.277V95.5867Z" fill="#38516B"/>
<path d="M123.818 90.1916L122.536 88.8894L121.233 90.1916H121.632V95.1367H123.419V90.1916H123.818Z" fill="#38516B"/>
<path d="M127.328 91.4171L126.363 90.437L125.384 91.4171H125.682V95.1367H127.028V91.4171H127.328Z" fill="#38516B"/>
<path d="M102.637 72.7344H97.1484V73.7838H102.637V72.7344Z" fill="#38516B"/>
<path d="M107.801 72.7346H103.604V73.7841H107.801V72.7346Z" fill="#38516B"/>
<path d="M100.216 74.918H97.1484V75.9674H100.216V74.918Z" fill="#38516B"/>
<path d="M107.801 74.9177H104.733V75.9672H107.801V74.9177Z" fill="#38516B"/>
<path d="M104.008 74.918H100.941V75.9674H104.008V74.918Z" fill="#38516B"/>
</g>
<defs>
<filter id="filter0_d_713_986" x="0.00195312" y="0" width="219.996" height="220" filterUnits="userSpaceOnUse" color-interpolation-filters="sRGB">
<feFlood flood-opacity="0" result="BackgroundImageFix"/>
<feColorMatrix in="SourceAlpha" type="matrix" values="0 0 0 0 0 0 0 0 0 0 0 0 0 0 0 0 0 0 127 0" result="hardAlpha"/>
<feOffset dy="4"/>
<feGaussianBlur stdDeviation="25"/>
<feComposite in2="hardAlpha" operator="out"/>
<feColorMatrix type="matrix" values="0 0 0 0 0.219608 0 0 0 0 0.317647 0 0 0 0 0.419608 0 0 0 0.15 0"/>
<feBlend mode="normal" in2="BackgroundImageFix" result="effect1_dropShadow_713_986"/>
<feBlend mode="normal" in="SourceGraphic" in2="effect1_dropShadow_713_986" result="shape"/>
</filter>
</defs>
</svg>
