<svg width="221" height="220" viewBox="0 0 221 220" fill="none" xmlns="http://www.w3.org/2000/svg">
<g filter="url(#filter0_d_713_947)">
<path d="M170.497 106.001C170.497 139.137 143.638 166 110.502 166C77.3665 166 50.5024 139.137 50.5024 106.001C50.5024 72.8653 77.3653 46 110.502 46C143.64 46 170.497 72.8641 170.497 106.001Z" fill="#38516B"/>
<path d="M121.853 139.904H101.821V149.063H121.853V139.904Z" fill="#38516B"/>
<path d="M93.9261 70.7578H93.9224V86.6654L93.9261 70.7578Z" fill="white"/>
<path d="M132.694 88.4271C131.865 88.4267 131.064 88.1261 130.439 87.5808C129.815 87.0355 129.408 86.2825 129.296 85.4609C129.119 86.2155 128.693 86.8881 128.085 87.3693C127.478 87.8505 126.725 88.112 125.951 88.1112H125.621C124.866 88.111 124.131 87.8616 123.532 87.4018C122.933 86.9419 122.502 86.2971 122.307 85.5675C122.257 86.442 121.874 87.2642 121.237 87.8657C120.601 88.4672 119.758 88.8024 118.882 88.8025H118.552C117.756 88.8013 116.985 88.523 116.371 88.0152C115.757 87.5075 115.339 86.802 115.189 86.0197C115.039 86.8035 114.62 87.5105 114.005 88.0191C113.391 88.5277 112.618 88.806 111.82 88.8062H111.49C110.661 88.8061 109.86 88.5056 109.235 87.9602C108.61 87.4149 108.204 86.6617 108.092 85.8401C107.915 86.5948 107.489 87.2677 106.881 87.7492C106.274 88.2306 105.521 88.4923 104.746 88.4915H104.417C103.618 88.4913 102.845 88.2128 102.23 87.704C101.615 87.1952 101.196 86.4879 101.047 85.7038C100.897 86.4879 100.479 87.1953 99.864 87.7042C99.2491 88.2131 98.4759 88.4915 97.6777 88.4915H97.3481C96.5894 88.4916 95.8521 88.2401 95.2515 87.7765C94.6509 87.3129 94.2209 86.6633 94.0288 85.9293C93.8938 87.6998 92.355 89.0962 90.5485 89.0962H90.2189C89.8964 89.0956 89.5756 89.0493 89.2661 88.9586V139.193H133.687V88.3602C133.469 88.4039 133.247 88.4263 133.024 88.4271H132.694Z" fill="white"/>
<path d="M93.9202 70.7577V70.7466H86.8579V87.2699C86.8579 87.3542 86.8579 87.4384 86.8703 87.5177C86.8703 87.5772 86.8802 87.6416 86.8876 87.6949C86.8951 87.7482 86.9062 87.8386 86.9186 87.9093C86.9099 87.9526 86.8976 87.9948 86.8876 88.0332C87.0256 88.6275 87.3194 89.1744 87.7388 89.6176C88.1582 90.0607 88.6881 90.3841 89.274 90.5545V70.7577H93.9202Z" fill="#F2F2F2"/>
<path d="M133.34 70.7578H93.925H89.27V90.5633C89.5796 90.6535 89.9004 90.6994 90.2228 90.6996H90.5524C92.3589 90.6996 93.8977 89.3045 94.0328 87.5339C94.225 88.2678 94.655 88.9173 95.2556 89.3809C95.8561 89.8445 96.5934 90.096 97.352 90.0962H97.6816C98.4802 90.0967 99.254 89.8186 99.8695 89.3096C100.485 88.8007 100.903 88.0929 101.053 87.3084C101.203 88.0925 101.621 88.7998 102.236 89.3087C102.852 89.8175 103.625 90.096 104.423 90.0962H104.753C105.528 90.0969 106.28 89.8353 106.888 89.3538C107.495 88.8724 107.922 88.1995 108.098 87.4447C108.21 88.2664 108.616 89.0196 109.241 89.5649C109.866 90.1102 110.667 90.4107 111.497 90.4109H111.826C112.624 90.4106 113.397 90.1321 114.012 89.6233C114.627 89.1144 115.045 88.4071 115.195 87.6231C115.345 88.4071 115.763 89.1144 116.378 89.6233C116.993 90.1321 117.766 90.4106 118.564 90.4109H118.893C119.769 90.4107 120.612 90.0756 121.249 89.4741C121.885 88.8726 122.268 88.0503 122.318 87.1758C122.513 87.9055 122.944 88.5502 123.543 89.0101C124.143 89.47 124.877 89.7194 125.632 89.7195H125.957C126.732 89.7203 127.485 89.4586 128.092 88.9771C128.699 88.4957 129.126 87.8228 129.302 87.0681C129.415 87.8897 129.821 88.6429 130.445 89.1882C131.07 89.7335 131.872 90.0341 132.701 90.0342H133.019C133.242 90.0338 133.464 90.0118 133.682 89.9686V70.764L133.34 70.7578Z" fill="#F2F2F2"/>
<path d="M91.1425 59.2129C89.5099 59.2178 87.9455 59.8685 86.7911 61.023C85.6366 62.1774 84.9859 63.7418 84.981 65.3745V144.267C84.9852 145.899 85.6359 147.464 86.7906 148.618C87.9453 149.772 89.51 150.421 91.1425 150.425H112.082V148.206C111.884 148.24 111.685 148.258 111.484 148.259C110.53 148.259 109.614 147.88 108.939 147.204C108.263 146.529 107.884 145.613 107.884 144.658C107.884 143.703 108.263 142.788 108.939 142.112C109.614 141.437 110.53 141.058 111.484 141.058C111.685 141.059 111.884 141.077 112.082 141.111V139.026H89.2716V68.9837H112.082V59.2129H91.1425ZM105.19 143.217C105.475 143.218 105.753 143.302 105.989 143.46C106.226 143.619 106.41 143.843 106.518 144.106C106.627 144.369 106.655 144.658 106.6 144.937C106.544 145.216 106.407 145.472 106.206 145.673C106.005 145.874 105.748 146.011 105.469 146.067C105.19 146.122 104.901 146.094 104.638 145.985C104.376 145.876 104.151 145.691 103.993 145.455C103.835 145.218 103.751 144.94 103.751 144.656C103.751 144.467 103.789 144.28 103.861 144.105C103.934 143.93 104.041 143.772 104.175 143.639C104.309 143.505 104.468 143.4 104.643 143.328C104.818 143.256 105.005 143.219 105.194 143.22L105.19 143.217Z" fill="#FFBDE0"/>
<path d="M131.81 59.2129H112.081L111.987 66.3347H112.081V68.9837H133.687V139.026H112.081V141.111C112.924 141.247 113.691 141.679 114.244 142.329C114.798 142.979 115.102 143.805 115.102 144.658C115.102 145.512 114.798 146.338 114.244 146.988C113.691 147.638 112.924 148.07 112.081 148.206V150.425H131.81C133.444 150.422 135.01 149.772 136.165 148.617C137.321 147.462 137.972 145.896 137.976 144.262V65.3745C137.972 63.7409 137.32 62.1756 136.165 61.0209C135.009 59.8662 133.443 59.2162 131.81 59.2129ZM123.749 64.5109C123.798 64.0648 123.808 63.8071 123.808 64.097C123.808 64.2371 123.788 64.3765 123.749 64.5109ZM117.764 146.097C117.48 146.097 117.202 146.012 116.965 145.854C116.729 145.696 116.544 145.472 116.435 145.209C116.326 144.946 116.298 144.657 116.353 144.378C116.409 144.099 116.546 143.842 116.747 143.641C116.948 143.44 117.205 143.303 117.484 143.247C117.763 143.192 118.052 143.22 118.315 143.329C118.578 143.438 118.802 143.623 118.96 143.859C119.118 144.096 119.203 144.374 119.203 144.658C119.203 145.04 119.051 145.406 118.781 145.675C118.512 145.945 118.146 146.097 117.764 146.097Z" fill="#FFBDE0"/>
<path d="M86.0391 85.0287C86.0317 84.9692 86.0255 84.9097 86.0205 84.8503C86.0143 84.7672 86.0081 84.683 86.0081 84.6025V68.0791H78.9458V84.6012C78.9461 85.5109 79.3077 86.3832 79.9511 87.0264C80.5945 87.6695 81.4669 88.0308 82.3766 88.0308H82.7062C83.4813 88.0307 84.2334 87.7678 84.8399 87.2851C85.4464 86.8024 85.8713 86.1284 86.0453 85.3731C86.0354 85.331 86.023 85.2876 86.0143 85.2492C86.0217 85.1736 86.0292 85.1018 86.0391 85.0287ZM85.3799 70.1272C85.37 70.0838 85.3576 70.0404 85.349 70.0033C85.3626 69.9327 85.37 69.8608 85.3799 69.7902C85.3899 69.7195 85.3663 69.6663 85.3614 69.6118C85.3552 69.5287 85.349 69.4445 85.349 69.3639C85.349 69.4482 85.349 69.5325 85.3614 69.6118C85.3663 69.6712 85.3725 69.7307 85.3799 69.7902C85.3886 69.8608 85.3973 69.9327 85.4097 70.0033C85.4022 70.0367 85.3899 70.0838 85.3799 70.1272Z" fill="#FF9BD0"/>
<path d="M86.0085 67.971L90.4119 63.5205L86.2092 63.5279L78.9399 67.971V68.0788H86.0085V67.971Z" fill="#FFBDE0"/>
<path d="M86.0083 68.0787H93.0768V67.9709L95.8943 63.5117L90.4117 63.5204L86.0083 67.9709V68.0787Z" fill="#F2F2F2"/>
<path d="M93.0768 68.0791H86.0083V84.6012C86.0083 84.6855 86.0083 84.7697 86.0207 84.849C86.0256 84.9085 86.0318 84.968 86.0393 85.0274C86.0479 85.0981 86.0566 85.1699 86.069 85.2405C86.0616 85.2839 86.0492 85.3273 86.0393 85.3644C86.213 86.1197 86.6377 86.7936 87.244 87.2763C87.8502 87.759 88.6022 88.0219 89.3772 88.0221H89.708C91.5132 88.0221 93.0533 86.627 93.1883 84.8564C93.114 84.5733 93.0766 84.2818 93.0768 83.9891V68.0791Z" fill="white"/>
<path d="M86.0083 84.6011C86.0083 84.6853 86.0145 84.7696 86.0207 84.8489C86.0133 84.7696 86.0083 84.6853 86.0083 84.6011Z" fill="white"/>
<path d="M85.3625 69.6057C85.3551 69.5227 85.3501 69.4384 85.3501 69.3579C85.3501 69.4384 85.3563 69.5227 85.3625 69.6057Z" fill="#38516B"/>
<path d="M85.3501 69.9968C85.3588 70.0402 85.3712 70.0835 85.3811 70.1207C85.391 70.0773 85.4034 70.034 85.4108 69.9968C85.3984 69.9262 85.3897 69.8543 85.3811 69.7837C85.3712 69.8543 85.3637 69.9262 85.3501 69.9968Z" fill="#38516B"/>
<path d="M100.147 68.0791H93.0845V83.9966C93.0843 84.4471 93.1729 84.8932 93.3452 85.3094C93.5175 85.7256 93.77 86.1039 94.0885 86.4225C94.407 86.741 94.7851 86.9938 95.2013 87.1662C95.6175 87.3386 96.0636 87.4274 96.514 87.4274H96.8424C97.6405 87.4271 98.4136 87.1486 99.0285 86.6398C99.6434 86.1309 100.062 85.4236 100.211 84.6396C100.171 84.4277 100.151 84.2124 100.151 83.9966L100.147 68.0791Z" fill="#FF9BD0"/>
<path d="M93.0804 68.0788H100.145V67.971L101.741 63.5032L95.9041 63.5118L93.0767 67.971L93.0804 67.9933V68.0788Z" fill="#FF9BD0"/>
<path d="M100.145 68.0794H107.212V67.9716V63.4951L101.741 63.5038L100.145 67.9716V68.0794Z" fill="#F2F2F2"/>
<path d="M107.213 68.0791H100.151V83.9966C100.151 84.9063 100.512 85.7787 101.155 86.4221C101.798 87.0655 102.671 87.4271 103.58 87.4274H103.904C104.678 87.4286 105.43 87.1677 106.038 86.6872C106.645 86.2067 107.072 85.5348 107.249 84.7809C107.228 84.6269 107.218 84.4717 107.217 84.3162L107.213 68.0791Z" fill="white"/>
<path d="M114.28 68.0794V68.0447H114.261V67.9716V63.4839L107.213 63.495V67.9716H107.211V68.0794H114.28Z" fill="#FF9BD0"/>
<path d="M114.28 68.0791H107.211V84.3101C107.213 84.4676 107.225 84.6249 107.247 84.7809C107.361 85.601 107.767 86.3525 108.391 86.8967C109.015 87.441 109.814 87.7412 110.642 87.7421H110.972C111.77 87.7421 112.543 87.4636 113.158 86.9547C113.773 86.4459 114.191 85.7384 114.341 84.9543C114.301 84.7423 114.281 84.527 114.28 84.3113V68.0791Z" fill="#FF9BD0"/>
<path d="M114.281 67.9714V68.0445V68.0792H121.349V67.9714L119.595 63.4751L114.262 63.4838V67.9714H114.281Z" fill="#F2F2F2"/>
<path d="M121.35 68.0793H114.288V84.3103C114.288 84.526 114.308 84.7413 114.348 84.9533C114.498 85.7374 114.917 86.4448 115.532 86.9536C116.147 87.4624 116.92 87.7409 117.718 87.7411H118.048C118.924 87.7412 119.767 87.4061 120.403 86.8045C121.04 86.203 121.422 85.3805 121.471 84.5061C121.395 84.2165 121.356 83.9184 121.356 83.6189L121.35 68.0793Z" fill="white"/>
<path d="M128.416 68.0793H121.354V83.6202C121.354 83.9196 121.393 84.2178 121.469 84.5073C121.665 85.2368 122.096 85.8814 122.695 86.3413C123.294 86.8012 124.028 87.0506 124.784 87.051H125.113C125.888 87.0519 126.641 86.7903 127.248 86.3089C127.856 85.8274 128.282 85.1544 128.458 84.3995C128.438 84.2459 128.427 84.0911 128.426 83.9361L128.416 68.0793Z" fill="#FF9BD0"/>
<path d="M121.351 68.0791H128.418V67.9812L126.828 65.6271L125.36 63.4663L119.596 63.475L121.351 67.9713V68.0791Z" fill="#FF9BD0"/>
<path d="M128.416 67.9811V68.079H135.485V68.0009L130.64 63.4575L125.366 63.4662L126.827 65.627L128.416 67.9712V67.9811Z" fill="#F2F2F2"/>
<path d="M135.485 68.0791H128.422V83.9384C128.423 84.0934 128.434 84.2481 128.455 84.4017C128.567 85.2234 128.973 85.9766 129.598 86.5219C130.223 87.0672 131.024 87.3678 131.853 87.3679H132.183C132.981 87.3679 133.754 87.0897 134.369 86.581C134.984 86.0724 135.402 85.3653 135.552 84.5814C135.511 84.3694 135.491 84.1541 135.491 83.9384L135.485 68.0791Z" fill="white"/>
<path d="M142.675 68.0789V67.9711L135.98 63.4487L130.67 63.4574L135.485 67.9711V68.0008V68.0789H142.675Z" fill="#FF9BD0"/>
<path d="M135.487 68.0793V83.9386C135.487 84.3891 135.575 84.8353 135.748 85.2515C135.92 85.6678 136.173 86.0459 136.491 86.3645C136.81 86.683 137.188 86.9356 137.605 87.1078C138.021 87.28 138.467 87.3685 138.918 87.3682H139.247C140.157 87.3682 141.029 87.0068 141.672 86.3637C142.315 85.7205 142.677 84.8482 142.677 83.9386V68.0793H135.487Z" fill="#FF9BD0"/>
<path d="M120.408 97.7733C122.413 98.6877 123.963 100.022 125.057 101.776C126.151 103.53 126.698 105.65 126.699 108.135C126.716 109.74 126.346 111.326 125.622 112.756C124.96 114.092 123.971 115.236 122.746 116.079C121.621 116.869 120.283 117.295 118.911 117.301C117.726 117.301 116.748 117.037 115.979 116.508C115.21 115.978 114.742 115.168 114.575 114.077C114.096 115.036 113.385 115.859 112.508 116.47C111.681 117.024 110.666 117.301 109.463 117.301C108.505 117.318 107.562 117.06 106.745 116.559C105.939 116.054 105.293 115.329 104.884 114.468C104.425 113.497 104.198 112.432 104.221 111.357C104.221 111.14 104.236 110.813 104.27 110.377C104.365 108.999 104.809 107.668 105.56 106.512C106.289 105.392 107.289 104.478 108.467 103.855C109.683 103.211 111.039 102.882 112.413 102.898C114.235 102.898 115.701 103.372 116.812 104.321C117.922 105.269 118.478 106.591 118.478 108.286C118.477 108.623 118.452 108.96 118.403 109.294L118.077 111.634C118.043 111.937 118.028 112.144 118.028 112.24C118.028 112.71 118.123 113.042 118.315 113.234C118.508 113.426 118.804 113.525 119.205 113.525C119.767 113.517 120.308 113.307 120.728 112.931C121.205 112.537 121.593 111.946 121.893 111.157C122.216 110.235 122.369 109.263 122.345 108.286C122.345 106.608 121.973 105.139 121.23 103.879C120.487 102.619 119.386 101.647 117.926 100.965C116.473 100.278 114.71 99.9336 112.638 99.9336C110.15 99.9336 108.021 100.437 106.249 101.443C104.541 102.386 103.144 103.808 102.226 105.536C101.316 107.248 100.861 109.181 100.861 111.334C100.861 114.22 101.726 116.473 103.454 118.093C105.183 119.714 107.777 120.515 111.236 120.498L110.434 124C107.477 123.966 104.975 123.437 102.928 122.412C100.881 121.388 99.3319 119.936 98.2797 118.056C97.2264 116.181 96.6997 113.94 96.6997 111.334C96.6997 108.295 97.4474 105.646 98.9428 103.389C100.438 101.13 102.53 99.334 104.984 98.2016C107.514 97.0016 110.291 96.401 113.315 96.3999C116.038 96.3999 118.403 96.8577 120.408 97.7733ZM113.567 107.329C113.041 106.867 112.36 106.624 111.662 106.649C111.098 106.649 110.544 106.801 110.059 107.089C109.528 107.415 109.101 107.887 108.83 108.449C108.491 109.159 108.328 109.941 108.353 110.729C108.353 111.651 108.604 112.348 109.106 112.819C109.61 113.291 110.278 113.545 110.967 113.525C111.535 113.524 112.093 113.372 112.582 113.083C113.124 112.757 113.559 112.28 113.836 111.711C114.163 111.091 114.326 110.319 114.325 109.394C114.324 108.47 114.071 107.781 113.567 107.329Z" fill="#38516B"/>
</g>
<defs>
<filter id="filter0_d_713_947" x="0.502441" y="0" width="219.995" height="220" filterUnits="userSpaceOnUse" color-interpolation-filters="sRGB">
<feFlood flood-opacity="0" result="BackgroundImageFix"/>
<feColorMatrix in="SourceAlpha" type="matrix" values="0 0 0 0 0 0 0 0 0 0 0 0 0 0 0 0 0 0 127 0" result="hardAlpha"/>
<feOffset dy="4"/>
<feGaussianBlur stdDeviation="25"/>
<feComposite in2="hardAlpha" operator="out"/>
<feColorMatrix type="matrix" values="0 0 0 0 0.219608 0 0 0 0 0.317647 0 0 0 0 0.419608 0 0 0 0.15 0"/>
<feBlend mode="normal" in2="BackgroundImageFix" result="effect1_dropShadow_713_947"/>
<feBlend mode="normal" in="SourceGraphic" in2="effect1_dropShadow_713_947" result="shape"/>
</filter>
</defs>
</svg>
