<svg width="123" height="80" viewBox="0 0 123 80" fill="none" xmlns="http://www.w3.org/2000/svg">
<path d="M26.3352 39.9091C26.3352 42.7642 25.794 45.1932 24.7116 47.196C23.6378 49.1989 22.1719 50.7287 20.3139 51.7855C18.4645 52.8338 16.3849 53.358 14.0753 53.358C11.7486 53.358 9.66051 52.8295 7.81108 51.7727C5.96165 50.7159 4.5 49.1861 3.42614 47.1832C2.35227 45.1804 1.81534 42.7557 1.81534 39.9091C1.81534 37.054 2.35227 34.625 3.42614 32.6222C4.5 30.6193 5.96165 29.0937 7.81108 28.0455C9.66051 26.9886 11.7486 26.4602 14.0753 26.4602C16.3849 26.4602 18.4645 26.9886 20.3139 28.0455C22.1719 29.0937 23.6378 30.6193 24.7116 32.6222C25.794 34.625 26.3352 37.054 26.3352 39.9091ZM20.723 39.9091C20.723 38.0597 20.446 36.5 19.892 35.2301C19.3466 33.9602 18.5753 32.9972 17.5781 32.3409C16.581 31.6847 15.4134 31.3565 14.0753 31.3565C12.7372 31.3565 11.5696 31.6847 10.5724 32.3409C9.57528 32.9972 8.79972 33.9602 8.24574 35.2301C7.70028 36.5 7.42756 38.0597 7.42756 39.9091C7.42756 41.7585 7.70028 43.3182 8.24574 44.5881C8.79972 45.858 9.57528 46.821 10.5724 47.4773C11.5696 48.1335 12.7372 48.4616 14.0753 48.4616C15.4134 48.4616 16.581 48.1335 17.5781 47.4773C18.5753 46.821 19.3466 45.858 19.892 44.5881C20.446 43.3182 20.723 41.7585 20.723 39.9091ZM30.3335 53V33.3636H35.6133V36.7898H35.8178C36.1758 35.571 36.7766 34.6506 37.6204 34.0284C38.4641 33.3977 39.4357 33.0824 40.5352 33.0824C40.8079 33.0824 41.1019 33.0994 41.4173 33.1335C41.7326 33.1676 42.0096 33.2145 42.2482 33.2741V38.1065C41.9925 38.0298 41.6389 37.9616 41.1871 37.902C40.7354 37.8423 40.3221 37.8125 39.9471 37.8125C39.146 37.8125 38.43 37.9872 37.7994 38.3366C37.1772 38.6776 36.6829 39.1548 36.3164 39.7685C35.9585 40.3821 35.7795 41.0895 35.7795 41.8906V53H30.3335ZM45.1662 53V26.8182H50.6122V36.6619H50.7784C51.017 36.1335 51.3622 35.5966 51.8139 35.0511C52.2741 34.4972 52.8707 34.0369 53.6037 33.6705C54.3452 33.2955 55.2656 33.108 56.3651 33.108C57.7969 33.108 59.1179 33.483 60.3281 34.233C61.5384 34.9744 62.5057 36.0952 63.2301 37.5952C63.9545 39.0866 64.3168 40.9574 64.3168 43.2074C64.3168 45.3977 63.9631 47.2472 63.2557 48.7557C62.5568 50.2557 61.6023 51.3935 60.392 52.169C59.1903 52.9361 57.8438 53.3196 56.3523 53.3196C55.2955 53.3196 54.3963 53.1449 53.6548 52.7955C52.9219 52.446 52.321 52.0071 51.8523 51.4787C51.3835 50.9418 51.0256 50.4006 50.7784 49.8551H50.5355V53H45.1662ZM50.4972 43.1818C50.4972 44.3494 50.6591 45.3679 50.983 46.2372C51.3068 47.1065 51.7756 47.7841 52.3892 48.2699C53.0028 48.7472 53.7486 48.9858 54.6264 48.9858C55.5128 48.9858 56.2628 48.7429 56.8764 48.2571C57.4901 47.7628 57.9545 47.081 58.2699 46.2116C58.5938 45.3338 58.7557 44.3239 58.7557 43.1818C58.7557 42.0483 58.598 41.0511 58.2827 40.1903C57.9673 39.3295 57.5028 38.6562 56.8892 38.1705C56.2756 37.6847 55.5213 37.4418 54.6264 37.4418C53.7401 37.4418 52.9901 37.6761 52.3764 38.1449C51.7713 38.6136 51.3068 39.2784 50.983 40.1392C50.6591 41 50.4972 42.0142 50.4972 43.1818ZM76.8995 53.3835C74.8796 53.3835 73.141 52.9744 71.6836 52.1562C70.2347 51.3295 69.1183 50.1619 68.3342 48.6534C67.5501 47.1364 67.158 45.3423 67.158 43.2713C67.158 41.2514 67.5501 39.4787 68.3342 37.9531C69.1183 36.4276 70.2219 35.2386 71.6452 34.3864C73.0771 33.5341 74.756 33.108 76.6822 33.108C77.9776 33.108 79.1836 33.3168 80.3001 33.7344C81.4251 34.1435 82.4052 34.7614 83.2404 35.5881C84.0842 36.4148 84.7404 37.4545 85.2092 38.7074C85.6779 39.9517 85.9123 41.4091 85.9123 43.0795V44.5753H69.3313V41.2003H80.7859C80.7859 40.4162 80.6154 39.7216 80.2745 39.1165C79.9336 38.5114 79.4606 38.0384 78.8555 37.6974C78.2589 37.348 77.5643 37.1733 76.7717 37.1733C75.945 37.1733 75.212 37.3651 74.5728 37.7486C73.9421 38.1236 73.4478 38.6307 73.0898 39.2699C72.7319 39.9006 72.5487 40.6037 72.5401 41.3793V44.5881C72.5401 45.5597 72.7191 46.3991 73.0771 47.1065C73.4435 47.8139 73.9592 48.3594 74.6239 48.7429C75.2887 49.1264 76.0771 49.3182 76.989 49.3182C77.5941 49.3182 78.1481 49.233 78.6509 49.0625C79.1538 48.892 79.5842 48.6364 79.9421 48.2955C80.3001 47.9545 80.5728 47.5369 80.7603 47.0426L85.7972 47.375C85.5415 48.5852 85.0174 49.642 84.2248 50.5455C83.4407 51.4403 82.4265 52.1392 81.1822 52.642C79.9464 53.1364 78.5188 53.3835 76.8995 53.3835ZM98.4151 53.3835C96.3952 53.3835 94.6566 52.9744 93.1992 52.1562C91.7504 51.3295 90.6339 50.1619 89.8498 48.6534C89.0657 47.1364 88.6737 45.3423 88.6737 43.2713C88.6737 41.2514 89.0657 39.4787 89.8498 37.9531C90.6339 36.4276 91.7376 35.2386 93.1609 34.3864C94.5927 33.5341 96.2717 33.108 98.1978 33.108C99.4933 33.108 100.699 33.3168 101.816 33.7344C102.941 34.1435 103.921 34.7614 104.756 35.5881C105.6 36.4148 106.256 37.4545 106.725 38.7074C107.194 39.9517 107.428 41.4091 107.428 43.0795V44.5753H90.8469V41.2003H102.301C102.301 40.4162 102.131 39.7216 101.79 39.1165C101.449 38.5114 100.976 38.0384 100.371 37.6974C99.7745 37.348 99.0799 37.1733 98.2873 37.1733C97.4606 37.1733 96.7276 37.3651 96.0884 37.7486C95.4577 38.1236 94.9634 38.6307 94.6055 39.2699C94.2475 39.9006 94.0643 40.6037 94.0558 41.3793V44.5881C94.0558 45.5597 94.2347 46.3991 94.5927 47.1065C94.9592 47.8139 95.4748 48.3594 96.1396 48.7429C96.8043 49.1264 97.5927 49.3182 98.5046 49.3182C99.1097 49.3182 99.6637 49.233 100.167 49.0625C100.669 48.892 101.1 48.6364 101.458 48.2955C101.816 47.9545 102.088 47.5369 102.276 47.0426L107.313 47.375C107.057 48.5852 106.533 49.642 105.74 50.5455C104.956 51.4403 103.942 52.1392 102.698 52.642C101.462 53.1364 100.034 53.3835 98.4151 53.3835ZM121.426 33.3636V37.4545H109.601V33.3636H121.426ZM112.286 28.6591H117.732V46.9659C117.732 47.4687 117.809 47.8608 117.962 48.142C118.115 48.4148 118.328 48.6065 118.601 48.7173C118.882 48.8281 119.206 48.8835 119.573 48.8835C119.828 48.8835 120.084 48.8622 120.34 48.8196C120.596 48.7685 120.792 48.7301 120.928 48.7045L121.784 52.7571C121.512 52.8423 121.128 52.9403 120.634 53.0511C120.14 53.1705 119.539 53.2429 118.831 53.2685C117.519 53.3196 116.368 53.1449 115.38 52.7443C114.4 52.3437 113.637 51.7216 113.091 50.8778C112.546 50.0341 112.277 48.9687 112.286 47.6818V28.6591Z" fill="#1E1D1D"/>
</svg>
