<svg width="438" height="249" viewBox="0 0 438 249" fill="none" xmlns="http://www.w3.org/2000/svg">
<path d="M53.6577 0.327279H384.252C387.343 0.327279 390.308 1.55199 392.493 3.73199C394.679 5.91199 395.907 8.8687 395.907 11.9517V232.616H41.9883V11.9517C41.9883 10.424 42.2902 8.9112 42.8768 7.49993C43.4635 6.08866 44.3232 4.80657 45.407 3.72695C46.4908 2.64734 47.7774 1.79139 49.1931 1.20805C50.6088 0.624704 52.1259 0.325409 53.6577 0.327279Z" fill="#38516B"/>
<path d="M381.097 14.2708H56.8081C55.8626 14.2708 55.0962 15.0352 55.0962 15.9781V217.933C55.0962 218.876 55.8626 219.64 56.8081 219.64H381.097C382.042 219.64 382.809 218.876 382.809 217.933V15.9781C382.809 15.0352 382.042 14.2708 381.097 14.2708Z" fill="white" stroke="#666666" stroke-width="0.316423" stroke-miterlimit="10"/>
<path d="M208.267 14.2708H56.2802C55.6263 14.2708 55.0962 14.7995 55.0962 15.4517V218.459C55.0962 219.111 55.6263 219.64 56.2802 219.64H208.267C208.921 219.64 209.452 219.111 209.452 218.459V15.4517C209.452 14.7995 208.921 14.2708 208.267 14.2708Z" fill="#445D78"/>
<path d="M1.77265 232.616H436.136C436.263 232.616 436.389 232.641 436.507 232.69C436.625 232.739 436.732 232.81 436.822 232.9C436.912 232.99 436.983 233.096 437.032 233.214C437.081 233.331 437.106 233.457 437.106 233.584V240.456H0.788309V233.641C0.780434 233.508 0.800176 233.375 0.846293 233.25C0.892409 233.125 0.963908 233.01 1.05631 232.914C1.14872 232.818 1.26004 232.742 1.3833 232.691C1.50656 232.639 1.63911 232.614 1.77265 232.616Z" fill="#E7E7E7"/>
<path d="M1.77096 232.616H436.134C436.262 232.616 436.388 232.641 436.506 232.69C436.623 232.739 436.73 232.81 436.82 232.9C436.91 232.99 436.982 233.096 437.031 233.214C437.079 233.331 437.104 233.457 437.104 233.584V239.745H0.786621V233.584C0.786607 233.456 0.812164 233.329 0.861804 233.21C0.911445 233.092 0.984178 232.985 1.07577 232.895C1.16737 232.805 1.276 232.734 1.39535 232.686C1.51469 232.638 1.64237 232.614 1.77096 232.616Z" fill="#38516B"/>
<path d="M415.092 248.196H22.5847C20.358 248.197 18.1397 247.924 15.9796 247.385C10.5729 246.048 0.786621 243.231 0.786621 240.399H437.104C437.104 242.974 427.489 245.863 422.068 247.3C419.791 247.896 417.447 248.197 415.092 248.196Z" fill="#38516B"/>
<path d="M177.811 72.564H91.0757C85.2061 72.564 80.4478 77.3097 80.4478 83.1639V193.461C80.4478 199.315 85.2061 204.061 91.0757 204.061H177.811C183.681 204.061 188.439 199.315 188.439 193.461V83.1639C188.439 77.3097 183.681 72.564 177.811 72.564Z" fill="white"/>
<path d="M151.292 160.465H110.449C110.044 160.46 109.652 160.315 109.341 160.056C109.029 159.797 108.816 159.439 108.738 159.042L104.329 139.507C104.274 139.262 104.272 139.009 104.324 138.763C104.376 138.518 104.48 138.286 104.629 138.084C104.78 137.886 104.971 137.721 105.19 137.601C105.408 137.481 105.65 137.408 105.899 137.387L161.178 133.361C161.478 133.339 161.779 133.394 162.051 133.521C162.323 133.648 162.558 133.843 162.733 134.086C162.909 134.328 163.018 134.611 163.051 134.908C163.083 135.205 163.038 135.505 162.919 135.779L152.933 159.398C152.795 159.717 152.566 159.989 152.274 160.179C151.982 160.369 151.641 160.468 151.292 160.465ZM111.847 156.965H150.137L158.582 137.046L108.181 140.717L111.847 156.965Z" fill="#445D78"/>
<path d="M122.017 172.73C122.02 173.423 121.816 174.102 121.431 174.68C121.047 175.257 120.499 175.708 119.857 175.975C119.215 176.242 118.508 176.312 117.826 176.177C117.144 176.043 116.518 175.709 116.026 175.219C115.534 174.729 115.2 174.104 115.065 173.423C114.93 172.743 115.001 172.038 115.268 171.398C115.535 170.758 115.987 170.211 116.567 169.828C117.146 169.444 117.826 169.241 118.522 169.244C119.449 169.244 120.338 169.611 120.993 170.265C121.649 170.919 122.017 171.805 122.017 172.73Z" fill="#445D78"/>
<path d="M146.626 172.73C146.629 173.423 146.426 174.101 146.042 174.678C145.658 175.256 145.111 175.707 144.47 175.974C143.829 176.241 143.123 176.312 142.441 176.179C141.759 176.045 141.133 175.713 140.64 175.224C140.148 174.735 139.812 174.112 139.676 173.432C139.539 172.753 139.608 172.048 139.873 171.408C140.138 170.768 140.588 170.22 141.166 169.835C141.743 169.45 142.422 169.244 143.117 169.244C143.577 169.242 144.033 169.331 144.459 169.505C144.884 169.68 145.271 169.936 145.597 170.26C145.923 170.584 146.182 170.969 146.359 171.393C146.535 171.817 146.626 172.271 146.626 172.73Z" fill="#445D78"/>
<path d="M145.37 167.181H113.871C113.406 167.181 112.96 166.997 112.631 166.668C112.302 166.34 112.117 165.895 112.117 165.431C112.117 164.967 112.302 164.522 112.631 164.193C112.96 163.865 113.406 163.681 113.871 163.681H145.37C145.839 163.682 146.298 163.549 146.693 163.296C147.088 163.044 147.401 162.683 147.596 162.258L161.248 131.127C161.925 129.594 163.033 128.29 164.438 127.373C165.844 126.456 167.486 125.966 169.165 125.962H171.277C171.742 125.962 172.188 126.146 172.517 126.475C172.847 126.803 173.031 127.248 173.031 127.712C173.031 128.176 172.847 128.621 172.517 128.95C172.188 129.278 171.742 129.462 171.277 129.462H169.165C168.166 129.46 167.187 129.75 166.351 130.296C165.514 130.842 164.856 131.621 164.458 132.535L150.748 163.624C150.291 164.671 149.541 165.564 148.586 166.195C147.632 166.826 146.515 167.169 145.37 167.181Z" fill="#445D78"/>
<path d="M173.016 198.995C171.377 198.995 169.774 198.51 168.411 197.602C167.048 196.694 165.986 195.402 165.358 193.892C164.731 192.381 164.567 190.719 164.887 189.116C165.207 187.512 165.996 186.039 167.155 184.883C168.314 183.727 169.791 182.94 171.399 182.621C173.007 182.302 174.673 182.466 176.188 183.091C177.702 183.717 178.997 184.776 179.907 186.136C180.818 187.495 181.304 189.094 181.304 190.728C181.304 192.921 180.431 195.024 178.877 196.574C177.322 198.124 175.214 198.995 173.016 198.995ZM173.016 184.553C171.788 184.553 170.588 184.917 169.567 185.598C168.546 186.278 167.751 187.246 167.281 188.377C166.812 189.509 166.69 190.754 166.931 191.955C167.171 193.156 167.764 194.259 168.633 195.124C169.502 195.989 170.609 196.578 171.814 196.815C173.019 197.052 174.267 196.927 175.401 196.457C176.534 195.986 177.502 195.191 178.183 194.171C178.863 193.151 179.224 191.953 179.222 190.728C179.218 189.089 178.562 187.519 177.399 186.361C176.236 185.204 174.659 184.553 173.016 184.553Z" fill="#FFBDE0"/>
<path d="M171.749 194.086L169.081 191.426L170.565 189.946L171.749 191.127L175.472 187.413L176.956 188.879L171.749 194.086Z" fill="#FFBDE0"/>
<path d="M144.774 190.743H93.688C93.4105 190.743 93.1441 190.634 92.9465 190.439C92.749 190.245 92.6361 189.981 92.6323 189.704C92.6323 189.425 92.7435 189.157 92.9415 188.96C93.1395 188.762 93.408 188.651 93.688 188.651H144.774C144.912 188.651 145.048 188.679 145.175 188.732C145.303 188.785 145.418 188.863 145.515 188.96C145.612 189.058 145.688 189.175 145.74 189.302C145.791 189.43 145.817 189.567 145.815 189.704C145.815 189.98 145.705 190.244 145.51 190.439C145.315 190.633 145.05 190.743 144.774 190.743Z" fill="#E6E7E8"/>
<path d="M121.52 196.164H93.688C93.55 196.166 93.4131 196.14 93.2851 196.089C93.1571 196.038 93.0406 195.961 92.9424 195.865C92.8441 195.768 92.7662 195.653 92.7129 195.526C92.6597 195.399 92.6323 195.263 92.6323 195.125C92.6361 194.849 92.749 194.584 92.9465 194.39C93.1441 194.196 93.4105 194.087 93.688 194.087H121.52C121.657 194.087 121.793 194.114 121.919 194.166C122.045 194.218 122.16 194.294 122.257 194.391C122.354 194.487 122.43 194.602 122.483 194.728C122.535 194.854 122.562 194.989 122.562 195.125C122.562 195.262 122.535 195.397 122.483 195.523C122.43 195.649 122.354 195.763 122.257 195.86C122.16 195.956 122.045 196.033 121.919 196.085C121.793 196.137 121.657 196.164 121.52 196.164Z" fill="#E6E7E8"/>
<path d="M290.054 204.074H236.715C234.337 204.071 232.059 203.126 230.379 201.448C228.699 199.77 227.756 197.496 227.756 195.125C227.756 192.754 228.699 190.48 230.379 188.802C232.059 187.124 234.337 186.179 236.715 186.175H290.054C292.434 186.175 294.717 187.118 296.399 188.797C298.082 190.475 299.028 192.751 299.028 195.125C299.028 197.498 298.082 199.775 296.399 201.453C294.717 203.132 292.434 204.074 290.054 204.074Z" fill="#445D78"/>
<path d="M344.679 134.157H229.669C229.179 134.151 228.71 133.956 228.36 133.615C228.009 133.273 227.804 132.81 227.786 132.322C227.784 132.07 227.832 131.821 227.927 131.588C228.022 131.355 228.163 131.143 228.341 130.965C228.518 130.786 228.73 130.644 228.962 130.548C229.195 130.451 229.445 130.401 229.697 130.401H344.708C345.212 130.409 345.693 130.615 346.046 130.975C346.399 131.335 346.595 131.819 346.591 132.322C346.572 132.815 346.363 133.282 346.006 133.624C345.65 133.967 345.174 134.158 344.679 134.157Z" fill="#E6E7E8"/>
<path d="M326.818 123.045H230.71C229.932 123.038 229.188 122.724 228.64 122.172C228.093 121.621 227.786 120.876 227.786 120.1C227.784 119.713 227.859 119.329 228.007 118.97C228.154 118.612 228.372 118.287 228.646 118.013C228.921 117.739 229.247 117.522 229.606 117.375C229.966 117.228 230.35 117.153 230.739 117.155H326.847C327.63 117.155 328.381 117.465 328.935 118.017C329.489 118.57 329.8 119.319 329.8 120.1C329.8 120.489 329.723 120.874 329.573 121.234C329.422 121.593 329.202 121.919 328.925 122.193C328.648 122.466 328.319 122.683 327.957 122.829C327.596 122.975 327.209 123.049 326.818 123.045Z" fill="#445D78"/>
<path d="M344.677 144.857H229.667C229.16 144.857 228.674 144.656 228.315 144.298C227.957 143.941 227.755 143.456 227.755 142.95C227.754 142.699 227.802 142.449 227.897 142.216C227.992 141.983 228.133 141.771 228.31 141.593C228.488 141.414 228.699 141.273 228.932 141.176C229.165 141.079 229.415 141.029 229.667 141.029H344.677C344.93 141.029 345.179 141.079 345.412 141.176C345.645 141.273 345.857 141.414 346.034 141.593C346.212 141.771 346.352 141.983 346.448 142.216C346.543 142.449 346.591 142.699 346.589 142.95C346.589 143.456 346.388 143.941 346.029 144.298C345.671 144.656 345.184 144.857 344.677 144.857Z" fill="#E6E7E8"/>
<path d="M344.679 155.556H229.669C229.169 155.549 228.692 155.347 228.34 154.993C227.988 154.639 227.789 154.162 227.786 153.664C227.786 153.158 227.987 152.674 228.346 152.316C228.704 151.958 229.19 151.758 229.697 151.758H344.708C345.215 151.758 345.701 151.958 346.059 152.316C346.418 152.674 346.619 153.158 346.619 153.664C346.617 153.916 346.566 154.164 346.467 154.396C346.368 154.628 346.225 154.837 346.044 155.013C345.864 155.189 345.65 155.328 345.416 155.421C345.182 155.514 344.931 155.56 344.679 155.556Z" fill="#E6E7E8"/>
<path d="M305.348 166.256H229.669C229.165 166.245 228.686 166.038 228.334 165.679C227.983 165.32 227.786 164.837 227.786 164.335C227.786 163.83 227.987 163.345 228.346 162.987C228.704 162.63 229.19 162.429 229.697 162.429H305.377C305.629 162.427 305.879 162.475 306.113 162.57C306.347 162.665 306.559 162.805 306.738 162.982C306.917 163.159 307.059 163.37 307.156 163.602C307.253 163.835 307.303 164.084 307.303 164.335C307.303 164.59 307.252 164.842 307.154 165.077C307.055 165.312 306.911 165.525 306.729 165.704C306.547 165.882 306.331 166.023 306.094 166.118C305.857 166.213 305.604 166.26 305.348 166.256Z" fill="#E6E7E8"/>
<path d="M368.531 171.62C368.531 172.434 368.289 173.229 367.836 173.905C367.383 174.581 366.74 175.108 365.986 175.419C365.233 175.73 364.404 175.812 363.604 175.653C362.804 175.495 362.07 175.103 361.493 174.528C360.917 173.953 360.524 173.22 360.365 172.422C360.206 171.625 360.287 170.798 360.599 170.047C360.912 169.295 361.44 168.653 362.118 168.201C362.796 167.749 363.593 167.508 364.408 167.508C365.502 167.508 366.551 167.942 367.324 168.713C368.097 169.484 368.531 170.53 368.531 171.62Z" fill="white"/>
<path d="M368.531 186.389C368.531 187.202 368.289 187.997 367.836 188.673C367.383 189.35 366.74 189.877 365.986 190.188C365.233 190.499 364.404 190.581 363.604 190.422C362.804 190.263 362.07 189.872 361.493 189.297C360.917 188.721 360.524 187.989 360.365 187.191C360.206 186.394 360.287 185.567 360.599 184.815C360.912 184.064 361.44 183.422 362.118 182.97C362.796 182.518 363.593 182.277 364.408 182.277C364.95 182.275 365.487 182.38 365.988 182.586C366.489 182.792 366.945 183.095 367.328 183.477C367.711 183.859 368.015 184.313 368.221 184.813C368.428 185.313 368.533 185.848 368.531 186.389Z" fill="white"/>
<path d="M368.531 201.257C368.531 202.071 368.289 202.866 367.836 203.542C367.383 204.218 366.74 204.745 365.986 205.056C365.233 205.368 364.404 205.449 363.604 205.29C362.804 205.132 362.07 204.74 361.493 204.165C360.917 203.59 360.524 202.857 360.365 202.06C360.206 201.262 360.287 200.435 360.599 199.684C360.912 198.933 361.44 198.29 362.118 197.839C362.796 197.387 363.593 197.146 364.408 197.146C365.502 197.146 366.551 197.579 367.324 198.35C368.097 199.121 368.531 200.167 368.531 201.257Z" fill="#FFBDE0"/>
<path d="M55.3128 59.2748H0.774902L55.0989 13.1755H96.0558L55.3128 59.2748Z" fill="#FF9BD0"/>
<path d="M109.865 59.2748H55.313L96.056 13.1755H137.013L109.865 59.2748Z" fill="#FFDAEE"/>
<path d="M164.4 59.2747H109.862L137.01 13.1754H177.981L164.4 59.2747Z" fill="#FF9BD0"/>
<path d="M218.939 59.2748H164.401L177.982 13.1755H218.939V59.2748Z" fill="#FFDAEE"/>
<path d="M273.476 59.2748H218.938V13.1755H259.909L273.476 59.2748Z" fill="#FF9BD0"/>
<path d="M328.028 59.2747H273.476L259.909 13.1754H300.866L328.028 59.2747Z" fill="#FFDAEE"/>
<path d="M382.569 59.2747H328.031L300.869 13.1754H341.826L382.569 59.2747Z" fill="#FF9BD0"/>
<path d="M437.107 59.2748H382.569L341.826 13.1755H382.797L437.107 59.2748Z" fill="#FFDAEE"/>
<path d="M27.8642 121.58C20.6226 121.58 13.6775 118.711 8.55691 113.604C3.4363 108.497 0.55957 101.57 0.55957 94.3472V59.2748H55.1688V94.3472C55.1688 97.9235 54.4626 101.465 53.0904 104.769C51.7182 108.073 49.707 111.075 47.1715 113.604C44.636 116.132 41.626 118.138 38.3132 119.507C35.0005 120.876 31.4499 121.58 27.8642 121.58Z" fill="#FF9BD0"/>
<path d="M82.4583 121.58C75.2192 121.576 68.2778 118.705 63.1603 113.598C58.0427 108.492 55.168 101.567 55.168 94.347V59.2745H109.749V94.347C109.751 97.9225 109.046 101.463 107.675 104.767C106.305 108.071 104.295 111.074 101.761 113.603C99.2262 116.132 96.2171 118.138 92.9052 119.506C89.5932 120.875 86.0434 121.58 82.4583 121.58Z" fill="#FFDAEE"/>
<path d="M137.056 121.58C129.814 121.58 122.869 118.711 117.748 113.604C112.628 108.497 109.751 101.57 109.751 94.3472V59.2748H164.36V94.3472C164.36 97.9235 163.654 101.465 162.282 104.769C160.91 108.073 158.898 111.075 156.363 113.604C153.827 116.132 150.817 118.138 147.505 119.507C144.192 120.876 140.641 121.58 137.056 121.58Z" fill="#FF9BD0"/>
<path d="M191.649 121.58C188.064 121.58 184.514 120.875 181.202 119.506C177.89 118.138 174.881 116.132 172.347 113.603C169.812 111.074 167.802 108.071 166.432 104.767C165.061 101.463 164.357 97.9225 164.358 94.347V59.2745H218.953V94.347C218.953 97.9232 218.247 101.464 216.875 104.768C215.503 108.072 213.492 111.075 210.956 113.603C208.421 116.132 205.411 118.138 202.098 119.507C198.785 120.875 195.234 121.58 191.649 121.58Z" fill="#FFDAEE"/>
<path d="M246.243 121.58C239.003 121.576 232.062 118.705 226.944 113.599C221.827 108.492 218.952 101.567 218.952 94.3472V59.2748H273.547V94.3472C273.547 97.9235 272.841 101.465 271.469 104.769C270.097 108.073 268.085 111.075 265.55 113.604C263.014 116.132 260.004 118.138 256.692 119.507C253.379 120.876 249.828 121.58 246.243 121.58Z" fill="#FF9BD0"/>
<path d="M273.549 59.2745H328.144V94.347C328.144 97.9232 327.438 101.464 326.065 104.768C324.693 108.072 322.682 111.075 320.147 113.603C317.611 116.132 314.601 118.138 311.288 119.507C307.976 120.875 304.425 121.58 300.839 121.58C293.598 121.58 286.653 118.711 281.532 113.603C276.411 108.496 273.535 101.57 273.535 94.347V59.2745H273.549Z" fill="#FFDAEE"/>
<path d="M328.143 59.2745H382.738V94.347C382.738 97.9232 382.031 101.464 380.659 104.768C379.287 108.072 377.276 111.075 374.74 113.603C372.205 116.132 369.195 118.138 365.882 119.507C362.569 120.875 359.019 121.58 355.433 121.58C348.191 121.58 341.246 118.711 336.126 113.603C331.005 108.496 328.128 101.57 328.128 94.347V59.2745H328.143Z" fill="#FF9BD0"/>
<path d="M382.738 59.2748H437.347V94.3472C437.347 97.9235 436.641 101.465 435.269 104.769C433.896 108.073 431.885 111.075 429.35 113.604C426.814 116.132 423.804 118.138 420.491 119.507C417.179 120.876 413.628 121.58 410.042 121.58C402.801 121.58 395.856 118.711 390.735 113.604C385.615 108.497 382.738 101.57 382.738 94.3472V59.2748Z" fill="#FFDAEE"/>
</svg>
