<svg width="231" height="136" viewBox="0 0 231 136" fill="none" xmlns="http://www.w3.org/2000/svg">
<g id="Frame" clip-path="url(#clip0_942_569)">
<path id="Vector" d="M18.2406 135.087C18.2406 135.087 -10.0037 101.103 3.80018 66.116C12.7978 43.3104 46.5461 30.8141 65.597 43.3104C73.7095 48.6328 99.7367 43.4899 113.634 21.4551C140.64 -21.3636 234.893 4.64139 217.731 70.3832C209.427 102.197 243.003 103.35 225.895 135.155L18.2406 135.087Z" fill="#EADBF2"/>
<path id="Vector_2" d="M74.5714 134.845H74.6293C75.1021 134.837 75.4691 134.451 75.4221 134.006L72.2686 102.544L69.5166 102.789L74.0448 134.421C74.0664 134.543 74.1317 134.654 74.2285 134.732C74.3253 134.81 74.4471 134.85 74.5714 134.845Z" fill="#710FAA"/>
<path id="Vector_3" d="M44.2015 134.845H44.1435C43.6707 134.837 43.3037 134.451 43.3507 134.006L46.5042 102.544L49.2562 102.789L44.728 134.421C44.7066 134.543 44.6414 134.654 44.5445 134.732C44.4477 134.81 44.3258 134.85 44.2015 134.845Z" fill="#710FAA"/>
<path id="Vector_4" d="M96.8224 134.845H96.8803C97.3531 134.837 97.7201 134.451 97.6731 134.006L94.5196 102.544L91.7676 102.789L96.2966 134.421C96.3179 134.543 96.3829 134.654 96.4796 134.732C96.5763 134.81 96.6981 134.85 96.8224 134.845Z" fill="#8CB4F4"/>
<path id="Vector_5" d="M45.1412 97.9661L39.5423 70.3506C38.8242 66.6119 41.9256 63.1936 45.9533 63.285L56.7498 63.5316C58.5653 63.5719 60.3205 64.1902 61.7598 65.2963C63.199 66.4024 64.2472 67.9386 64.7514 69.6812L72.9429 97.9661H45.1412Z" fill="#710FAA"/>
<path id="Vector_6" d="M48.5279 97.9661L42.929 70.3506C42.2109 66.6119 45.3123 63.1936 49.34 63.285L60.1365 63.5316C61.9515 63.5727 63.7061 64.1913 65.1448 65.2973C66.5835 66.4034 67.6312 67.9392 68.1356 69.6812L76.3262 97.9661H48.5279Z" fill="#710FAA"/>
<path id="Vector_7" d="M89.4182 103.002H46.7008C46.2869 103.002 45.8901 102.838 45.5974 102.545C45.3048 102.253 45.1404 101.857 45.1404 101.443V97.9613H89.4182C89.832 97.9613 90.2289 98.1256 90.5215 98.4178C90.8141 98.7101 90.9785 99.1066 90.9785 99.5199V101.439C90.9791 101.644 90.9391 101.847 90.8609 102.037C90.7828 102.226 90.6679 102.399 90.523 102.544C90.378 102.689 90.2058 102.804 90.0162 102.883C89.8267 102.962 89.6234 103.002 89.4182 103.002Z" fill="#710FAA"/>
<path id="Vector_8" d="M66.7476 103.002H93.9782C94.6725 103.002 95.2354 102.44 95.2354 101.746V99.2213C95.2354 98.5278 94.6725 97.9655 93.9782 97.9655H66.7476C66.0533 97.9655 65.4904 98.5278 65.4904 99.2213V101.746C65.4904 102.44 66.0533 103.002 66.7476 103.002Z" fill="#710FAA"/>
<path id="Vector_9" d="M82.3548 92.1851C80.0437 96.2023 77.1371 97.7533 77.1371 97.7533H65.0439C65.0439 97.7533 84.1175 89.1216 82.3548 92.1851Z" fill="#233862"/>
<path id="Vector_10" d="M97.2687 132.101C97.1385 133.368 98.903 133.695 100.95 133.819C102.996 133.943 102.377 134.355 105.174 134.893C107.97 135.43 109.107 134.675 109.314 134.299C109.499 133.963 108.2 133.426 106.816 132.817C106.642 132.741 106.467 132.662 106.292 132.584C104.735 131.88 103.872 130.469 102.666 129.156C101.524 127.913 100.469 123.955 100.469 123.955L96.6641 123.104C96.6641 123.104 97.697 126.664 98.0523 128.182C98.2614 129.075 97.928 130.068 97.6324 130.823C97.4745 131.234 97.3141 131.654 97.2687 132.101Z" fill="#FDBAA0"/>
<path id="Vector_11" d="M100.947 133.819C102.994 133.943 102.375 134.355 105.171 134.892C107.968 135.43 109.105 134.675 109.312 134.298C109.496 133.963 108.197 133.425 106.813 132.816L106.791 132.84C105.401 133.225 103.932 133.227 102.54 132.845C100.693 132.321 98.9064 131.194 97.6308 130.822C97.472 131.233 97.3116 131.654 97.2663 132.101C97.1386 133.367 98.9031 133.694 100.947 133.819Z" fill="#710FAA"/>
<path id="Vector_12" d="M91.5043 88.0749C89.4569 86.6388 75.9151 84.0786 69.0035 83.3388L61.3613 76.7119C61.3613 76.7119 54.8595 86.3309 54.8108 93.6901C54.7865 97.121 56.3687 97.4649 56.3695 97.4649C56.3703 97.4649 80.8565 97.6461 81.9306 97.7568C83.6874 97.9372 86.0044 102.309 86.5839 106.291C87.1634 110.273 97.3745 126.469 97.3745 126.469C97.3745 126.469 99.5034 127.151 100.489 127.093C101.548 127.031 102.038 126.673 102.038 126.673C102.038 126.673 96.1216 91.3095 91.5043 88.0749Z" fill="#445D78"/>
<path id="Vector_13" d="M90.9347 132.101C90.8037 133.368 92.569 133.695 94.6156 133.819C96.6622 133.943 96.0433 134.355 98.8398 134.893C101.636 135.431 102.773 134.676 102.98 134.299C103.165 133.964 101.866 133.426 100.482 132.817C100.308 132.741 100.133 132.663 99.9584 132.585C98.4014 131.88 97.5381 130.469 96.3322 129.156C95.19 127.913 94.1344 123.955 94.1344 123.955L90.3301 123.101C90.3301 123.101 91.363 126.66 91.7183 128.178C91.9274 129.071 91.594 130.064 91.2984 130.819C91.1405 131.234 90.9801 131.654 90.9347 132.101Z" fill="#FDBAA0"/>
<path id="Vector_14" d="M94.6154 133.819C96.662 133.943 96.0431 134.355 98.8397 134.892C101.636 135.43 102.773 134.675 102.98 134.298C103.165 133.963 101.865 133.425 100.481 132.816L100.46 132.84C99.0691 133.225 97.6 133.227 96.2085 132.845C94.361 132.321 92.5747 131.194 91.2991 130.822C91.1403 131.233 90.9799 131.654 90.9346 132.101C90.8036 133.367 92.5688 133.694 94.6154 133.819Z" fill="#710FAA"/>
<path id="Vector_15" d="M85.1144 88.0753C83.3365 86.8279 77.987 85.8608 72.0815 85.1394C71.2839 85.0418 70.5347 84.7049 69.9327 84.1733C69.3307 83.6416 68.9043 82.9402 68.7097 82.1615L54.9755 76.709C54.9755 76.709 48.473 86.328 48.4251 93.6872C48.4007 97.118 49.9838 97.462 49.9838 97.462C49.9838 97.462 74.4716 97.6431 75.5448 97.7539C77.3017 97.9342 79.6187 102.306 80.1982 106.288C80.7776 110.27 90.9888 126.466 90.9888 126.466C90.9888 126.466 93.1185 127.148 94.1028 127.09C95.1618 127.028 95.6522 126.67 95.6522 126.67C95.6522 126.67 89.7316 91.3099 85.1144 88.0753Z" fill="#445D78"/>
<path id="Vector_16" d="M66.736 36.7454C64.8481 35.7556 61.9768 35.6214 61.5099 35.5585C55.9269 34.8094 52.5668 42.9126 52.3686 45.3729C52.005 49.9027 49.6074 50.5889 46.2381 53.4258C39.4726 59.1098 41.4571 65.714 45.1556 68.1676C47.3752 69.6398 51.2861 68.1676 51.2861 68.1676C51.3407 68.2062 61.9844 62.2244 67.2315 59.3388C75.0945 58.2123 71.5455 39.2678 66.736 36.7454Z" fill="#445D78"/>
<path id="Vector_17" d="M65.5707 56.5431C65.5951 56.5557 63.09 57.694 61.2819 57.0976C59.5804 56.5372 58.0822 53.9788 58.1057 53.9754C58.8439 53.868 59.5947 53.1366 59.8047 48.8291L60.1313 48.913L65.6295 50.3004C65.6295 50.3004 65.412 52.0402 65.3222 53.6852C65.2466 55.0651 65.2617 56.3795 65.5707 56.5431Z" fill="#FDBAA0"/>
<path id="Vector_18" d="M66.8031 50.5189C66.8031 50.5189 59.5321 51.7008 58.8645 47.1635C58.1968 42.6262 56.8095 39.7288 61.4234 38.7826C66.0372 37.8364 67.1953 39.4327 67.7865 40.8923C68.3778 42.3519 68.6767 50.0944 66.8031 50.5189Z" fill="#FDBAA0"/>
<path id="Vector_19" d="M66.8095 38.5948C66.8095 38.5948 63.5074 43.8006 60.5606 45.0337C57.6137 46.2668 56.165 45.6411 56.165 45.6411C57.0488 44.1876 57.624 42.568 57.8547 40.8831C57.9035 40.4879 58.0573 40.1128 58.3 39.7969C58.5428 39.481 58.8657 39.2357 59.2354 39.0863C61.3508 38.2425 65.4423 36.9054 66.8095 38.5948Z" fill="#445D78"/>
<path id="Vector_20" d="M63.9121 39.0985C63.9121 39.0985 65.8437 40.0933 66.6423 41.016C67.4116 41.9119 68.2992 44.3446 68.2379 45.4368C68.2379 45.4368 69.1919 40.2024 67.2041 38.4031C65.0937 36.4972 63.9121 39.0985 63.9121 39.0985Z" fill="#445D78"/>
<path id="Vector_21" d="M71.3864 67.6196C71.1655 82.3832 71.3259 79.2971 69.7068 80.698C69.3171 81.0335 68.222 81.2357 66.7809 81.3313C62.246 81.6316 54.2838 80.8859 53.9806 80.0496C52.9351 77.1547 53.6733 76.2555 52.8049 71.8239C52.7142 71.3533 52.6017 70.8433 52.469 70.2871C51.7417 67.2438 51.0346 66.2087 53.6136 61.319C55.9533 56.89 58.7045 53.2922 58.9229 53.4213C65.0946 57.0812 65.3054 54.0136 65.3054 54.0136C65.3054 54.0136 71.4964 60.4198 71.3864 67.6196Z" fill="white"/>
<path id="Vector_22" d="M65.3066 54.0127C65.3066 54.0127 71.6228 55.0822 72.3685 57.8135C73.1143 60.5448 77.5031 76.6036 77.5031 76.6036C77.5031 76.6036 74.2749 77.1824 72.7834 75.6926C71.2919 74.2028 67.5934 61.871 67.5934 61.871L65.3066 54.0127Z" fill="white"/>
<path id="Vector_23" d="M66.7846 81.3312C62.2497 81.6315 54.2875 80.8858 53.9843 80.0495C52.9388 77.1546 53.6769 76.2554 52.8086 71.8238L54.9921 65.6768C54.9921 65.6768 54.631 72.5226 56.6524 74.3227C58.6738 76.1229 64.9278 77.7989 65.9095 79.3038C66.3823 80.0226 66.6939 80.7491 66.7846 81.3312Z" fill="white"/>
<path id="Vector_24" d="M61.5928 78.451C61.5928 78.451 66.063 77.457 66.7844 77.8529C67.5058 78.2489 69.2686 79.6925 69.4894 80.195C69.7103 80.6975 67.8837 79.8133 67.2891 79.6548C66.9045 79.5516 65.8917 79.9064 65.3904 80.0742C63.2808 80.7763 61.9875 80.4156 61.9875 80.4156L61.5928 78.451Z" fill="#FDBAA0"/>
<path id="Vector_25" d="M58.9229 53.4209C58.9229 53.4209 52.595 53.7908 50.5173 56.6857C47.5923 60.7608 41.7893 78.129 45.1149 80.4417C48.8604 83.0505 62.1629 81.1245 62.1629 81.1245C62.1629 81.1245 62.6054 79.0576 61.9899 78.0586C61.3743 77.0595 51.3664 75.4439 50.9045 74.9825C50.4426 74.5211 56.6781 65.9859 56.6781 64.6018C56.6781 63.2177 58.9229 53.4209 58.9229 53.4209Z" fill="white"/>
<path id="Vector_26" d="M67.001 79.0996C67.001 79.0996 67.9374 80.3067 68.2447 80.451C68.5521 80.5953 68.7486 80.5584 68.7486 80.5584L68.1171 79.4242L67.001 79.0996Z" fill="#FFB27D"/>
<path id="Vector_27" d="M66.7852 77.8535L69.5086 79.1747C69.5086 79.1747 69.3927 79.3643 69.0577 79.3492C68.7226 79.3341 67.8761 79.0245 67.8761 79.0245L66.7852 77.8535Z" fill="#FDBAA0"/>
<path id="Vector_28" d="M76.818 80.9851H64.1689C64.1689 80.7182 64.2751 80.4621 64.4641 80.2733C64.6531 80.0846 64.9094 79.9785 65.1767 79.9785H76.818V80.9851Z" fill="#710FAA"/>
<path id="Vector_29" d="M76.781 67.2246H96.3375L91.6463 80.985H71.9639L76.781 67.2246Z" fill="#710FAA"/>
<path id="Vector_30" d="M96.6255 67.2246L91.9344 80.985H72.252L77.0691 67.2246H96.6255Z" fill="#710FAA"/>
<path id="Vector_31" d="M86.0825 73.9775C85.9608 74.5034 85.4359 74.9296 84.9068 74.9296C84.3777 74.9296 84.0527 74.5034 84.1737 73.9775C84.2946 73.4515 84.8203 73.0254 85.3494 73.0254C85.8785 73.0254 86.2035 73.4515 86.0825 73.9775Z" fill="white"/>
<path id="Vector_32" d="M145.498 80.9854H59.7971C59.4367 80.9854 59.1445 81.2772 59.1445 81.6371V83.4289C59.1445 83.7889 59.4367 84.0807 59.7971 84.0807H145.498C145.858 84.0807 146.151 83.7889 146.151 83.4289V81.6371C146.151 81.2772 145.858 80.9854 145.498 80.9854Z" fill="#445D78"/>
<path id="Vector_33" d="M147.596 135.075H147.633C147.736 135.064 147.836 135.032 147.927 134.982C148.018 134.932 148.098 134.864 148.162 134.783C148.227 134.701 148.275 134.608 148.303 134.508C148.331 134.409 148.34 134.304 148.327 134.201L140.69 82.5645L137.895 82.6483L146.88 134.563C146.912 134.724 147.004 134.866 147.137 134.961C147.27 135.056 147.434 135.097 147.596 135.075Z" fill="#445D78"/>
<path id="Vector_34" d="M56.9266 135.075H56.8905C56.7872 135.064 56.6873 135.032 56.5964 134.982C56.5056 134.932 56.4255 134.864 56.361 134.783C56.2964 134.701 56.2486 134.608 56.2203 134.508C56.1919 134.409 56.1837 134.304 56.1959 134.201L63.8331 82.5645L66.6288 82.6483L57.6429 134.563C57.6114 134.724 57.5197 134.866 57.3865 134.961C57.2533 135.057 57.0888 135.097 56.9266 135.075Z" fill="#445D78"/>
<path id="Vector_35" d="M74.607 135.075H74.5701C74.4669 135.064 74.367 135.032 74.2762 134.982C74.1854 134.931 74.1054 134.864 74.0408 134.782C73.9763 134.701 73.9285 134.608 73.9001 134.508C73.8717 134.408 73.8634 134.304 73.8755 134.201L81.5127 82.5645L84.3084 82.6483L75.3225 134.563C75.2908 134.724 75.1992 134.866 75.0662 134.961C74.9333 135.056 74.7691 135.097 74.607 135.075Z" fill="#445D78"/>
<path id="Vector_36" d="M231.676 134.587H-5.67584C-5.85487 134.587 -6 134.732 -6 134.911V135.177C-6 135.355 -5.85487 135.5 -5.67584 135.5H231.676C231.855 135.5 232 135.355 232 135.177V134.911C232 134.732 231.855 134.587 231.676 134.587Z" fill="#2E3552"/>
<path id="Vector_37" d="M119.662 135.033H134.816C135.545 134.144 135.277 130.866 135.167 129.796C135.144 129.58 135.129 129.454 135.129 129.454C135.129 129.454 129.953 125.32 129.243 128.485C129.221 128.585 129.195 128.682 129.166 128.778C128.27 131.739 124.253 133.085 121.934 133.46C120.425 133.708 119.868 134.486 119.662 135.033Z" fill="#710FAA"/>
<path id="Vector_38" d="M161.013 85.8467C160.466 85.8467 135.054 90.613 130.85 95.8096C128.751 98.41 128.438 128.391 128.438 128.391C128.438 128.391 131.037 131.609 136.648 129.741C136.648 129.741 140.763 109.225 140.457 103.003C140.373 101.282 157.82 102.751 161.013 101.928C164.206 101.105 172.008 94.1646 170.289 90.7841C168.57 87.4036 161.013 85.8467 161.013 85.8467Z" fill="#445D78"/>
<path id="Vector_39" d="M130.959 78.5039C130.959 78.5039 125.837 78.5727 124.621 79.0911C123.406 79.6095 120.95 80.8015 121.608 80.9844C122.267 81.1672 125.407 80.9089 126.084 81.0129C126.762 81.1169 127.6 80.9835 128.016 80.9844H130.367L130.959 78.5039Z" fill="#FDBAA0"/>
<path id="Vector_40" d="M124.966 66.2167C124.966 66.2167 123.218 64.9693 121.523 64.7269C120.554 64.5893 119.614 64.4165 119.045 64.2169C117.479 63.6658 114.342 60.8514 114.582 60.5209C115.342 59.4632 119.001 61.702 119.639 61.4621C120.277 61.2222 118.412 59.8968 119.061 59.4304C119.397 59.1872 120.192 60.4068 120.841 60.5293C121.717 60.6971 122.403 61.9319 122.667 61.9965C123.18 62.1223 125.431 63.7941 125.431 63.7941L124.966 66.2167Z" fill="#FDBAA0"/>
<path id="Vector_41" d="M158.482 51.6494C158.482 51.6494 154.58 52.8573 150.735 63.4318C146.891 74.0062 145.431 74.5775 144.034 74.9894C142.636 75.4012 130.37 77.8414 130.37 77.8414V80.9804H149.271C149.271 80.9804 156.357 74.2462 158.482 69.7131C160.606 65.1799 158.482 51.6494 158.482 51.6494Z" fill="#710FAA"/>
<path id="Vector_42" d="M112.965 135.033H128.119C128.848 134.144 128.579 130.866 128.469 129.796C128.447 129.58 128.431 129.454 128.431 129.454C128.431 129.454 123.256 125.32 122.545 128.485C122.523 128.585 122.497 128.682 122.468 128.778C121.573 131.739 117.556 133.085 115.237 133.46C113.728 133.708 113.171 134.486 112.965 135.033Z" fill="#710FAA"/>
<path id="Vector_43" d="M153.525 85.8467C152.978 85.8467 127.566 90.613 123.362 95.8096C121.263 98.41 120.95 128.391 120.95 128.391C120.95 128.391 123.549 131.609 129.159 129.741C129.159 129.741 133.274 109.225 132.969 103.003C132.885 101.282 150.332 102.751 153.525 101.928C156.719 101.105 164.52 94.1646 162.801 90.7841C161.082 87.4036 153.525 85.8467 153.525 85.8467Z" fill="#445D78"/>
<path id="Vector_44" d="M155.114 55.0006C156.942 54.8505 158.859 54.3631 160.516 53.8263C162.587 53.1552 164.255 52.1746 163.18 50.2838C162.189 48.5415 160.584 44.6493 160.693 41.4248L156.839 44.5285L154.223 46.6365C154.223 46.6365 154.233 47.878 154.519 50.0548C154.571 50.4516 154.633 50.8802 154.705 51.3382C154.733 51.5192 154.708 51.7046 154.631 51.8711C154.555 52.0376 154.431 52.1779 154.275 52.2744L154.215 52.3113C152.915 53.1241 153.584 55.1273 155.114 55.0006Z" fill="#FDBAA0"/>
<path id="Vector_45" d="M152.064 46.5C152.064 46.5 161.041 47.989 161.883 42.3897C162.725 36.7904 164.452 33.2145 158.757 32.0267C153.061 30.8389 151.623 32.8068 150.888 34.6069C150.152 36.4071 149.751 45.9649 152.064 46.5Z" fill="#FDBAA0"/>
<path id="Vector_46" d="M149.572 32.1321C149.186 33.4801 150.218 35.1217 151.949 35.6627C154.52 36.4647 153.951 39.6145 155.109 39.5718C156.266 39.529 156.732 37.7615 157.765 39.1733C158.647 40.3779 157.032 41.8064 157.143 42.4666C157.333 43.6007 159.112 45.921 160.714 45.8044C162.317 45.6878 165.316 38.0803 164.716 35.7265C164.116 33.3727 161.717 30.8914 159.446 30.5492C157.175 30.2069 154.023 31.1858 153.295 31.1858C152.567 31.1858 149.776 31.4039 149.572 32.1321Z" fill="#445D78"/>
<path id="Vector_47" d="M170.41 59.4186C169.112 54.2027 165.528 48.7334 163.102 48.7334C158.97 48.7409 153.031 49.8306 150.633 55.7394C148.87 60.0913 146.511 85.1241 149.174 86.9049C155.26 90.975 169.367 99.2829 171.873 90.8106C174.17 83.0479 172.661 68.4714 170.41 59.4186Z" fill="#710FAA"/>
<path id="Vector_48" d="M160.375 54.2276C160.101 53.5151 159.664 52.8766 159.099 52.3632C158.534 51.8498 157.856 51.4757 157.12 51.271C156.384 51.0662 155.61 51.0365 154.86 51.1842C154.111 51.3318 153.406 51.6528 152.803 52.1213C151.4 53.2118 149.683 54.7628 147.609 56.969C139.899 65.1703 138.332 65.1192 136.884 64.9497C135.437 64.7803 123.202 62.1866 123.202 62.1866C122.788 62.5136 122.449 62.9255 122.207 63.3945C121.715 64.391 121.963 65.0722 121.963 65.0722C121.483 64.7627 126.299 68.0786 128.696 69.4006C131.862 71.1471 136.632 72.7837 138.532 73.4052C139.07 73.5811 139.652 73.5725 140.185 73.3809C143.005 72.3651 152.474 68.6658 160.184 62.2461C162.214 60.5533 161.468 57.0671 160.375 54.2276Z" fill="#710FAA"/>
<path id="Vector_49" d="M163.518 48.7843L162.582 46.6797C162.582 46.6797 154.209 47.3617 152.803 52.1213C152.803 52.1213 159.293 48.8867 163.518 48.7843Z" fill="white"/>
<path id="Vector_50" d="M183.846 134.845H183.903C184.376 134.837 184.743 134.451 184.697 134.006L181.543 102.544L178.791 102.789L183.319 134.421C183.341 134.543 183.406 134.654 183.503 134.732C183.6 134.81 183.721 134.85 183.846 134.845Z" fill="#710FAA"/>
<path id="Vector_51" d="M167.611 134.845H167.669C168.142 134.837 168.509 134.451 168.463 134.006L165.309 102.544L162.557 102.789L167.086 134.421C167.107 134.543 167.172 134.654 167.269 134.732C167.365 134.81 167.487 134.85 167.611 134.845Z" fill="#710FAA"/>
<path id="Vector_52" d="M137.135 134.845H137.077C136.604 134.837 136.237 134.451 136.283 134.006L139.438 102.544L142.19 102.789L137.661 134.421C137.64 134.543 137.574 134.654 137.478 134.732C137.381 134.81 137.259 134.85 137.135 134.845Z" fill="#710FAA"/>
<path id="Vector_53" d="M182.953 98.0848L185.947 71.8072C186.34 68.0207 185.071 64.313 179.6 64.0253L169.975 63.4381C164.271 63.2032 161.696 67.9452 160.973 71.5967L155.263 100.482L182.953 98.0848Z" fill="#710FAA"/>
<path id="Vector_54" d="M138.628 97.9658H182.905V101.444C182.905 101.857 182.741 102.253 182.448 102.546C182.156 102.838 181.759 103.002 181.345 103.002H138.628C138.214 103.002 137.817 102.838 137.524 102.546C137.232 102.253 137.067 101.857 137.067 101.444V99.5244C137.067 99.111 137.232 98.7146 137.524 98.4223C137.817 98.13 138.214 97.9658 138.628 97.9658Z" fill="#710FAA"/>
<path id="Vector_55" d="M156.472 97.9658H182.906V101.792C182.907 101.951 182.876 102.109 182.815 102.256C182.754 102.404 182.665 102.538 182.553 102.65C182.44 102.763 182.306 102.853 182.159 102.914C182.012 102.975 181.854 103.006 181.694 103.006H156.472C156.15 103.006 155.842 102.879 155.615 102.652C155.387 102.425 155.26 102.117 155.26 101.796V99.1805C155.259 99.0212 155.29 98.8633 155.351 98.716C155.411 98.5686 155.501 98.4347 155.613 98.3218C155.726 98.209 155.86 98.1195 156.007 98.0584C156.154 97.9973 156.312 97.9658 156.472 97.9658Z" fill="#710FAA"/>
</g>
<defs>
<clipPath id="clip0_942_569">
<rect width="231" height="135" fill="white" transform="translate(0 0.5)"/>
</clipPath>
</defs>
</svg>
