<svg width="281" height="67" viewBox="0 0 281 67" fill="none" xmlns="http://www.w3.org/2000/svg">
<g clip-path="url(#clip0_992_1557)">
<path d="M12.8057 47.962L0.0464858 1.61926C-0.178613 0.805506 0.433546 0 1.27904 0H11.0571C11.6446 0 12.1551 0.401379 12.2979 0.973206L21.0273 36.3825L30.7779 0.940216C30.9317 0.384884 31.434 0 32.0105 0H39.6501C40.2239 0 40.7289 0.384884 40.8827 0.940216L50.6388 36.3962L59.4121 0.970457C59.5549 0.401379 60.0655 0 60.6529 0H70.4337C71.2765 0 71.8886 0.805506 71.6663 1.61926L58.907 47.962C58.2537 50.3318 56.1015 51.9758 53.6447 51.9758H48.4647C46.0078 51.9758 43.8556 50.3318 43.2023 47.962L35.8289 21.1576L28.4556 47.962C27.8022 50.3345 25.6501 51.9758 23.1932 51.9758H18.0681C15.6112 51.9758 13.4591 50.3345 12.8057 47.962Z" fill="#37506B"/>
<path d="M104.213 47.3351C100.408 51.1235 95.7605 53.0149 90.273 53.0149C84.7855 53.0149 80.1408 51.1207 76.3334 47.3351C72.5259 43.5495 70.6235 38.9089 70.6235 33.4133C70.6235 27.9178 72.5259 23.2772 76.3334 19.4916C80.1381 15.7059 84.7855 13.8118 90.273 13.8118C95.7605 13.8118 100.405 15.7059 104.213 19.4916C108.017 23.2799 109.922 27.9205 109.922 33.4133C109.922 38.9062 108.02 43.5495 104.213 47.3351ZM84.1953 39.7254C85.8259 41.3584 87.8518 42.1749 90.2757 42.1749C92.6997 42.1749 94.7256 41.3584 96.3562 39.7254C97.9868 38.0924 98.8021 35.9893 98.8021 33.4133C98.8021 30.8374 97.9868 28.737 96.3562 27.1013C94.7256 25.4655 92.6969 24.6517 90.2757 24.6517C87.8546 24.6517 85.8287 25.4682 84.1953 27.1013C82.5647 28.7343 81.7494 30.8401 81.7494 33.4133C81.7494 35.9866 82.5647 38.0897 84.1953 39.7254Z" fill="#37506B"/>
<path d="M127.346 21.4572C128.037 19.0819 129.432 17.262 131.535 16.0001C133.239 14.9747 135.081 14.3671 137.063 14.1747C137.813 14.1005 138.466 14.6998 138.466 15.4558V25.3116C138.466 26.0511 137.84 26.6202 137.104 26.5817C134.897 26.4662 132.817 26.9721 130.867 28.102C128.52 29.4656 127.346 31.8271 127.346 35.1921V50.0651C127.346 51.118 126.495 51.9703 125.443 51.9703H118.127C117.076 51.9703 116.225 51.118 116.225 50.0651V16.1458C116.225 15.4311 116.804 14.8482 117.521 14.8482H126.069C126.775 14.8482 127.346 15.4201 127.346 16.1266V21.4545V21.4572Z" fill="#37506B"/>
<path d="M176.692 51.9758H167.29C166.881 51.9758 166.496 51.7806 166.255 51.4479L154.775 35.599V50.6974C154.775 51.404 154.204 51.9758 153.498 51.9758H144.931C144.225 51.9758 143.654 51.404 143.654 50.6974V1.27836C143.654 0.571827 144.225 0 144.931 0H153.498C154.204 0 154.775 0.571827 154.775 1.27836V31.1096L165.516 15.4063C165.755 15.0572 166.148 14.851 166.57 14.851H176.362C177.405 14.851 178.009 16.0387 177.394 16.8826L166.546 31.8051C165.851 32.7618 165.859 34.0595 166.568 35.0052L177.716 49.9304C178.344 50.7744 177.746 51.9758 176.692 51.9758Z" fill="#37506B"/>
<path d="M206.877 14.8511H215.99C216.871 14.8511 217.489 15.7226 217.195 16.5556L205.117 50.8624C203.042 56.7017 200.31 60.8859 196.923 63.4096C193.818 65.7244 189.936 66.8736 185.278 66.8571C184.567 66.8571 183.985 66.2853 183.985 65.576V57.6666C183.985 56.9931 184.515 56.435 185.185 56.3938C187.178 56.2701 188.756 55.8219 189.915 55.0549C191.164 54.2274 192.193 52.8418 193 50.9037C193.167 50.4995 193.157 50.0404 192.986 49.6363L179.233 16.6215C178.882 15.7775 179.5 14.8511 180.411 14.8511H189.832C190.37 14.8511 190.851 15.1892 191.032 15.6951L198.957 37.573L205.649 15.7556C205.814 15.2195 206.308 14.8511 206.871 14.8511H206.877Z" fill="#37506B"/>
<path d="M243.595 13.8118C247.548 13.8118 250.848 15.1726 253.494 17.8943C256.137 20.6187 257.461 24.3796 257.461 29.1796V50.6946C257.461 51.4011 256.89 51.973 256.184 51.973H247.617C246.911 51.973 246.34 51.4011 246.34 50.6946V30.8126C246.34 28.6353 245.734 26.9638 244.523 25.8009C243.312 24.638 241.767 24.0552 239.889 24.0552C237.762 24.0552 236.082 24.6985 234.846 25.9851C233.611 27.2717 232.993 29.1769 232.993 31.7034V50.6946C232.993 51.4011 232.422 51.973 231.717 51.973H223.15C222.444 51.973 221.873 51.4011 221.873 50.6946V16.1293C221.873 15.4228 222.444 14.851 223.15 14.851H231.717C232.422 14.851 232.993 15.4228 232.993 16.1293V18.3396C235.217 15.3211 238.75 13.8118 243.595 13.8118Z" fill="#37506B"/>
<path d="M280.992 2.5018L276.778 37.3035C276.69 38.0321 275.875 38.4362 275.249 38.0513C274.069 37.3255 272.713 36.8417 271.255 36.663C269.797 36.487 268.367 36.6327 267.047 37.0534C266.347 37.2788 265.652 36.6905 265.74 35.9619L269.954 1.1602C270.039 0.461916 270.676 -0.0356837 271.376 0.0495406L279.88 1.08323C280.58 1.16845 281.08 1.80351 280.995 2.5018H280.992Z" fill="#37506B"/>
<path d="M275.619 47.0795C275.249 50.1311 272.465 52.3057 269.405 51.9346C266.344 51.5634 264.159 48.784 264.529 45.7324C264.554 45.5372 264.584 45.353 264.623 45.1716C265.248 42.4169 267.878 40.531 270.744 40.8774C273.61 41.2265 275.713 43.6871 275.663 46.5132C275.658 46.7001 275.644 46.8871 275.619 47.0823V47.0795Z" fill="#69D186"/>
<path d="M99.2849 64.9958H102.944V66.8075H97.3936V57.2019H99.2849V64.9958Z" fill="#69D186"/>
<path d="M104.808 59.1235C104.514 59.1235 104.262 59.0163 104.048 58.8019C103.834 58.5874 103.727 58.3345 103.727 58.0403C103.727 57.7462 103.834 57.4905 104.048 57.2706C104.262 57.0506 104.517 56.9407 104.808 56.9407C105.099 56.9407 105.368 57.0506 105.582 57.2706C105.796 57.4905 105.903 57.7462 105.903 58.0403C105.903 58.3345 105.796 58.5874 105.582 58.8019C105.368 59.0163 105.11 59.1235 104.808 59.1235ZM103.932 66.8074V59.9455H105.7V66.8074H103.932Z" fill="#69D186"/>
<path d="M111.001 58.7112C110.032 58.6369 109.549 59.0273 109.549 59.8768V59.9455H111.001V61.6473H109.549V66.8075H107.781V61.6473H106.795V59.9455H107.781V59.8768C107.781 58.9064 108.05 58.1696 108.588 57.6665C109.126 57.1634 109.93 56.9435 111.001 57.0067V58.7084V58.7112Z" fill="#69D186"/>
<path d="M113.041 64.105C113.28 64.9655 113.922 65.3944 114.973 65.3944C115.649 65.3944 116.162 65.1662 116.508 64.7071L117.933 65.5319C117.257 66.5106 116.261 66.9999 114.946 66.9999C113.812 66.9999 112.904 66.6563 112.22 65.9717C111.534 65.2844 111.193 64.4212 111.193 63.3793C111.193 62.3373 111.531 61.4823 112.206 60.7923C112.882 60.1023 113.749 59.7559 114.809 59.7559C115.813 59.7559 116.642 60.105 117.296 60.7978C117.949 61.4933 118.276 62.3538 118.276 63.3765C118.276 63.6047 118.254 63.8466 118.207 64.105H113.041ZM113.013 62.7332H116.508C116.406 62.2659 116.2 61.9195 115.885 61.6913C115.569 61.4631 115.212 61.3476 114.809 61.3476C114.334 61.3476 113.941 61.4686 113.631 61.7105C113.321 61.9524 113.115 62.2933 113.013 62.7332Z" fill="#69D186"/>
<path d="M126.291 66.9999C125.342 66.9999 124.543 66.7883 123.892 66.3621C123.244 65.936 122.786 65.3587 122.522 64.6274L124.139 63.6817C124.513 64.6604 125.248 65.1497 126.346 65.1497C126.876 65.1497 127.263 65.0535 127.51 64.8611C127.757 64.6686 127.881 64.4267 127.881 64.1326C127.881 63.7944 127.73 63.5305 127.428 63.3435C127.126 63.1566 126.588 62.9532 125.811 62.7332C125.38 62.604 125.018 62.4776 124.721 62.3483C124.425 62.2191 124.128 62.0487 123.832 61.8342C123.535 61.6198 123.308 61.3476 123.154 61.0177C122.997 60.6878 122.921 60.303 122.921 59.8658C122.921 58.9971 123.228 58.3043 123.846 57.7875C124.463 57.2706 125.204 57.0122 126.072 57.0122C126.849 57.0122 127.532 57.2019 128.12 57.5813C128.71 57.9607 129.168 58.4885 129.498 59.1676L127.908 60.0858C127.524 59.261 126.912 58.8514 126.072 58.8514C125.679 58.8514 125.372 58.9394 125.147 59.1181C124.922 59.2968 124.812 59.5277 124.812 59.8109C124.812 60.1133 124.938 60.3579 125.188 60.5449C125.441 60.7318 125.921 60.9353 126.635 61.1552C126.928 61.2459 127.148 61.3174 127.299 61.3669C127.45 61.4164 127.656 61.4961 127.917 61.6006C128.177 61.705 128.378 61.804 128.521 61.8947C128.661 61.9855 128.825 62.1092 129.006 62.2659C129.19 62.4226 129.328 62.582 129.424 62.747C129.52 62.9119 129.602 63.1099 129.671 63.3435C129.739 63.5772 129.772 63.8301 129.772 64.1051C129.772 64.993 129.451 65.6968 128.806 66.2192C128.161 66.7415 127.324 67.0027 126.291 67.0027V66.9999Z" fill="#69D186"/>
<path d="M134.376 67.0001C133.344 67.0001 132.482 66.6537 131.793 65.9582C131.104 65.2626 130.758 64.4021 130.758 63.3794C130.758 62.3568 131.104 61.4963 131.793 60.8007C132.482 60.1052 133.344 59.7588 134.376 59.7588C135.043 59.7588 135.65 59.9182 136.199 60.2399C136.748 60.5615 137.162 60.9904 137.445 61.5293L135.924 62.42C135.787 62.1368 135.578 61.9114 135.301 61.7464C135.021 61.5815 134.708 61.499 134.362 61.499C133.832 61.499 133.393 61.675 133.047 62.0269C132.699 62.3787 132.526 62.8296 132.526 63.3794C132.526 63.9293 132.699 64.3664 133.047 64.7183C133.393 65.0702 133.832 65.2461 134.362 65.2461C134.719 65.2461 135.035 65.1664 135.315 65.007C135.592 64.8475 135.801 64.6248 135.938 64.3417L137.472 65.2186C137.17 65.7575 136.745 66.1918 136.199 66.5162C135.65 66.8406 135.043 67.0029 134.376 67.0029V67.0001Z" fill="#69D186"/>
<path d="M139.281 59.1235C138.988 59.1235 138.735 59.0163 138.521 58.8019C138.307 58.5874 138.2 58.3345 138.2 58.0403C138.2 57.7462 138.307 57.4905 138.521 57.2706C138.735 57.0506 138.99 56.9407 139.281 56.9407C139.572 56.9407 139.841 57.0506 140.055 57.2706C140.27 57.4905 140.377 57.7462 140.377 58.0403C140.377 58.3345 140.27 58.5874 140.055 58.8019C139.841 59.0163 139.583 59.1235 139.281 59.1235ZM138.406 66.8074V59.9455H140.173V66.8074H138.406Z" fill="#69D186"/>
<path d="M143.284 64.105C143.522 64.9655 144.165 65.3944 145.216 65.3944C145.891 65.3944 146.405 65.1662 146.751 64.7071L148.175 65.5319C147.5 66.5106 146.504 66.9999 145.189 66.9999C144.055 66.9999 143.146 66.6563 142.463 65.9717C141.776 65.2844 141.436 64.4212 141.436 63.3793C141.436 62.3373 141.774 61.4823 142.449 60.7923C143.124 60.1023 143.992 59.7559 145.051 59.7559C146.056 59.7559 146.885 60.105 147.538 60.7978C148.192 61.4933 148.518 62.3538 148.518 63.3765C148.518 63.6047 148.496 63.8466 148.45 64.105H143.284ZM143.256 62.7332H146.751C146.649 62.2659 146.443 61.9195 146.127 61.6913C145.812 61.4631 145.455 61.3476 145.051 61.3476C144.576 61.3476 144.184 61.4686 143.874 61.7105C143.563 61.9524 143.358 62.2933 143.256 62.7332Z" fill="#69D186"/>
<path d="M153.558 59.7559C154.308 59.7559 154.925 60.0088 155.414 60.5119C155.903 61.015 156.147 61.7105 156.147 62.5985V66.8102H154.379V62.8157C154.379 62.3593 154.256 62.0074 154.008 61.7655C153.761 61.5236 153.432 61.4026 153.023 61.4026C152.567 61.4026 152.199 61.5456 151.928 61.8287C151.653 62.1119 151.516 62.538 151.516 63.1043V66.8102H149.748V59.9483H151.516V60.7181C151.944 60.0775 152.625 59.7586 153.558 59.7586V59.7559Z" fill="#69D186"/>
<path d="M160.918 67.0001C159.886 67.0001 159.024 66.6537 158.335 65.9582C157.646 65.2626 157.3 64.4021 157.3 63.3794C157.3 62.3568 157.646 61.4963 158.335 60.8007C159.024 60.1052 159.886 59.7588 160.918 59.7588C161.585 59.7588 162.192 59.9182 162.741 60.2399C163.29 60.5615 163.704 60.9904 163.987 61.5293L162.466 62.42C162.329 62.1368 162.12 61.9114 161.843 61.7464C161.563 61.5815 161.25 61.499 160.904 61.499C160.374 61.499 159.935 61.675 159.589 62.0269C159.241 62.3787 159.068 62.8296 159.068 63.3794C159.068 63.9293 159.241 64.3664 159.589 64.7183C159.935 65.0702 160.374 65.2461 160.904 65.2461C161.261 65.2461 161.577 65.1664 161.857 65.007C162.134 64.8475 162.343 64.6248 162.48 64.3417L164.014 65.2186C163.712 65.7575 163.287 66.1918 162.741 66.5162C162.192 66.8406 161.585 67.0029 160.918 67.0029V67.0001Z" fill="#69D186"/>
<path d="M166.331 64.105C166.57 64.9655 167.213 65.3944 168.264 65.3944C168.939 65.3944 169.453 65.1662 169.798 64.7071L171.223 65.5319C170.548 66.5106 169.551 66.9999 168.236 66.9999C167.103 66.9999 166.194 66.6563 165.511 65.9717C164.824 65.2844 164.484 64.4212 164.484 63.3793C164.484 62.3373 164.822 61.4823 165.497 60.7923C166.172 60.1023 167.04 59.7559 168.099 59.7559C169.104 59.7559 169.933 60.105 170.586 60.7978C171.24 61.4933 171.566 62.3538 171.566 63.3765C171.566 63.6047 171.544 63.8466 171.498 64.105H166.331ZM166.304 62.7332H169.798C169.697 62.2659 169.491 61.9195 169.175 61.6913C168.86 61.4631 168.503 61.3476 168.099 61.3476C167.624 61.3476 167.232 61.4686 166.922 61.7105C166.611 61.9524 166.405 62.2933 166.304 62.7332Z" fill="#69D186"/>
<path d="M174.155 61.8947C174.155 62.0789 174.276 62.2274 174.517 62.3401C174.759 62.4555 175.053 62.5545 175.401 62.6425C175.747 62.7305 176.096 62.8404 176.442 62.9724C176.787 63.1043 177.084 63.327 177.325 63.6377C177.567 63.9483 177.688 64.3387 177.688 64.8033C177.688 65.5071 177.424 66.0487 176.9 66.4308C176.376 66.8102 175.72 66.9999 174.934 66.9999C173.529 66.9999 172.568 66.4556 172.058 65.3669L173.592 64.5037C173.793 65.0975 174.24 65.3944 174.934 65.3944C175.566 65.3944 175.879 65.1965 175.879 64.8033C175.879 64.6191 175.758 64.4707 175.516 64.358C175.275 64.2425 174.978 64.1408 174.633 64.0501C174.287 63.9593 173.938 63.8439 173.592 63.7064C173.243 63.569 172.95 63.3518 172.708 63.0549C172.467 62.758 172.346 62.3841 172.346 61.9359C172.346 61.2597 172.596 60.7263 173.093 60.3387C173.589 59.951 174.21 59.7559 174.948 59.7559C175.505 59.7559 176.013 59.8823 176.469 60.1325C176.925 60.3854 177.287 60.7428 177.551 61.2102L176.043 62.0349C175.824 61.5676 175.459 61.3339 174.948 61.3339C174.72 61.3339 174.531 61.3834 174.38 61.4851C174.229 61.5868 174.155 61.7243 174.155 61.8975V61.8947Z" fill="#69D186"/>
</g>
<defs>
<clipPath id="clip0_992_1557">
<rect width="281" height="67" fill="white"/>
</clipPath>
</defs>
</svg>
