<svg width="533" height="134" viewBox="0 0 533 134" fill="none" xmlns="http://www.w3.org/2000/svg">
<path d="M30.7452 94.0569L7.03604 9.05194C6.61767 7.5593 7.75542 6.08179 9.32685 6.08179H27.5003C28.5922 6.08179 29.5411 6.81802 29.8064 7.86691L46.0309 72.817L64.1534 7.80639C64.4391 6.78777 65.3728 6.08179 66.4442 6.08179H80.6432C81.7095 6.08179 82.6483 6.78777 82.934 7.80639L101.067 72.8423L117.373 7.86186C117.633 6.81298 118.587 6.08179 119.679 6.08179H137.857C139.424 6.08179 140.562 7.5593 140.148 9.05194L116.434 94.0569C115.22 98.4038 111.22 101.419 106.653 101.419H97.0258C92.4595 101.419 88.4595 98.4038 87.2452 94.0569L73.5411 44.8905L59.8371 94.0569C58.6228 98.4088 54.6228 101.419 50.0564 101.419H40.5309C35.9646 101.419 31.9646 98.4088 30.7503 94.0569H30.7452Z" fill="#37506B"/>
<path d="M200.633 92.9024C193.562 99.8512 184.924 103.321 174.725 103.321C164.526 103.321 155.893 99.8462 148.817 92.9024C141.74 85.9586 138.205 77.4465 138.205 67.3661C138.205 57.2857 141.74 48.7736 148.817 41.8298C155.888 34.886 164.526 31.4116 174.725 31.4116C184.924 31.4116 193.557 34.886 200.633 41.8298C207.705 48.7787 211.245 57.2908 211.245 67.3661C211.245 77.4414 207.71 85.9586 200.633 92.9024ZM163.429 78.9442C166.46 81.9395 170.225 83.4372 174.73 83.4372C179.235 83.4372 183 81.9395 186.031 78.9442C189.062 75.9488 190.577 72.0911 190.577 67.3661C190.577 62.6411 189.062 58.7884 186.031 55.788C183 52.7927 179.23 51.295 174.73 51.295C170.23 51.295 166.465 52.7927 163.429 55.788C160.398 58.7834 158.883 62.6461 158.883 67.3661C158.883 72.0861 160.398 75.9438 163.429 78.9442Z" fill="#37506B"/>
<path d="M243.626 45.4399C244.912 41.083 247.504 37.7448 251.412 35.4302C254.58 33.5492 258.004 32.4348 261.688 32.0818C263.08 31.9456 264.295 33.0449 264.295 34.4317V52.5098C264.295 53.8663 263.131 54.9102 261.764 54.8396C257.662 54.6278 253.795 55.5556 250.172 57.6282C245.81 60.1294 243.626 64.4611 243.626 70.6333V97.9144C243.626 99.8458 242.045 101.409 240.091 101.409H226.494C224.54 101.409 222.958 99.8458 222.958 97.9144V35.6924C222.958 34.3813 224.035 33.3122 225.366 33.3122H241.254C242.565 33.3122 243.626 34.3611 243.626 35.6571V45.4299V45.4399Z" fill="#37506B"/>
<path d="M335.348 101.419H317.873C317.113 101.419 316.399 101.061 315.95 100.451L294.613 71.3799V99.0744C294.613 100.37 293.552 101.419 292.241 101.419H276.317C275.006 101.419 273.945 100.37 273.945 99.0744V8.42665C273.945 7.13067 275.006 6.08179 276.317 6.08179H292.241C293.552 6.08179 294.613 7.13067 294.613 8.42665V63.1451L314.577 34.3411C315.021 33.7007 315.751 33.3225 316.537 33.3225H334.736C336.674 33.3225 337.797 35.501 336.654 37.0491L316.491 64.4209C315.2 66.1758 315.215 68.5559 316.532 70.2906L337.251 97.6675C338.419 99.2156 337.307 101.419 335.348 101.419Z" fill="#37506B"/>
<path d="M391.445 33.3227H408.384C410.021 33.3227 411.169 34.9212 410.623 36.4492L388.174 99.3772C384.317 110.088 379.241 117.763 372.945 122.392C367.174 126.638 359.96 128.746 351.302 128.716C349.98 128.716 348.899 127.667 348.899 126.366V111.858C348.899 110.622 349.884 109.599 351.128 109.523C354.833 109.296 357.766 108.474 359.919 107.067C362.241 105.549 364.154 103.008 365.654 99.4528C365.965 98.7115 365.945 97.8694 365.628 97.1281L340.067 36.5702C339.414 35.0221 340.562 33.3227 342.256 33.3227H359.766C360.766 33.3227 361.659 33.9429 361.996 34.8708L376.725 75.0007L389.164 34.9817C389.47 33.9984 390.389 33.3227 391.435 33.3227H391.445Z" fill="#37506B"/>
<path d="M459.693 31.4109C467.04 31.4109 473.173 33.907 478.091 38.8993C483.004 43.8966 485.464 50.7951 485.464 59.5996V99.0639C485.464 100.36 484.402 101.409 483.091 101.409H467.168C465.857 101.409 464.795 100.36 464.795 99.0639V62.595C464.795 58.6012 463.668 55.5352 461.418 53.4021C459.168 51.2691 456.295 50.2 452.806 50.2C448.851 50.2 445.729 51.38 443.433 53.74C441.137 56.1 439.989 59.5946 439.989 64.2288V99.0639C439.989 100.36 438.928 101.409 437.617 101.409H421.693C420.382 101.409 419.321 100.36 419.321 99.0639V35.6568C419.321 34.3609 420.382 33.312 421.693 33.312H437.617C438.928 33.312 439.989 34.3609 439.989 35.6568V39.7112C444.122 34.1743 450.688 31.4058 459.693 31.4058V31.4109Z" fill="#37506B"/>
<path d="M529.198 10.6707L521.367 74.5064C521.203 75.8427 519.688 76.584 518.525 75.878C516.331 74.5467 513.811 73.6592 511.101 73.3314C508.392 73.0087 505.734 73.276 503.28 74.0475C501.979 74.461 500.688 73.3819 500.851 72.0455L508.683 8.20984C508.841 6.92899 510.025 6.01626 511.326 6.17258L527.132 8.06864C528.433 8.22496 529.362 9.38983 529.203 10.6707H529.198Z" fill="#37506B"/>
<path d="M519.21 92.4375C518.521 98.0349 513.348 102.024 507.659 101.343C501.97 100.662 497.909 95.564 498.598 89.9666C498.644 89.6086 498.7 89.2707 498.771 88.9379C499.934 83.8851 504.822 80.4258 510.149 81.0612C515.475 81.7016 519.383 86.2148 519.292 91.3987C519.281 91.7416 519.256 92.0846 519.21 92.4426V92.4375Z" fill="#1F66E5"/>
<path d="M47.5762 111.005H51.0915V128.625H47.5762V111.005Z" fill="#1F66E5"/>
<path d="M68.3326 115.685C69.7918 115.685 70.9602 116.154 71.8326 117.092C72.7051 118.03 73.1438 119.29 73.1438 120.869V128.619H69.8581V121.096C69.8581 120.339 69.6693 119.754 69.2969 119.336C68.9244 118.917 68.3989 118.705 67.7204 118.705C66.9755 118.705 66.3938 118.947 65.9755 119.437C65.5571 119.921 65.353 120.627 65.353 121.549V128.624H62.0673V121.101C62.0673 120.344 61.8785 119.759 61.5061 119.341C61.1336 118.922 60.6081 118.71 59.9295 118.71C59.2 118.71 58.6183 118.952 58.1846 119.442C57.751 119.931 57.5367 120.632 57.5367 121.555V128.629H54.251V116.043H57.5367V117.379C58.302 116.255 59.4806 115.695 61.0775 115.695C62.6744 115.695 63.7918 116.3 64.5418 117.505C65.3887 116.295 66.654 115.695 68.3377 115.695L68.3326 115.685Z" fill="#1F66E5"/>
<path d="M90.0294 115.685C91.4886 115.685 92.6569 116.154 93.5294 117.092C94.4018 118.03 94.8406 119.29 94.8406 120.869V128.619H91.5549V121.096C91.5549 120.339 91.3661 119.754 90.9937 119.336C90.6212 118.917 90.0957 118.705 89.4171 118.705C88.6722 118.705 88.0906 118.947 87.6722 119.437C87.2539 119.921 87.0498 120.627 87.0498 121.549V128.624H83.7641V121.101C83.7641 120.344 83.5753 119.759 83.2029 119.341C82.8304 118.922 82.3049 118.71 81.6263 118.71C80.8967 118.71 80.3151 118.952 79.8814 119.442C79.4478 119.931 79.2335 120.632 79.2335 121.555V128.629H75.9478V116.043H79.2335V117.379C79.9988 116.255 81.1773 115.695 82.7743 115.695C84.3712 115.695 85.4886 116.3 86.2386 117.505C87.0855 116.295 88.3508 115.695 90.0345 115.695L90.0294 115.685Z" fill="#1F66E5"/>
<path d="M108.489 127.051C107.183 128.332 105.586 128.977 103.703 128.977C101.821 128.977 100.229 128.337 98.928 127.051C97.627 125.765 96.979 124.192 96.979 122.331C96.979 120.47 97.627 118.897 98.928 117.611C100.229 116.325 101.821 115.685 103.703 115.685C105.586 115.685 107.183 116.325 108.489 117.611C109.795 118.892 110.448 120.47 110.448 122.331C110.448 124.192 109.795 125.765 108.489 127.051ZM101.244 124.822C101.897 125.478 102.719 125.806 103.703 125.806C104.688 125.806 105.51 125.478 106.173 124.822C106.836 124.167 107.168 123.335 107.168 122.331C107.168 121.328 106.836 120.496 106.173 119.84C105.51 119.184 104.688 118.857 103.703 118.857C102.719 118.857 101.897 119.184 101.244 119.84C100.591 120.496 100.265 121.323 100.265 122.331C100.265 123.34 100.591 124.167 101.244 124.822Z" fill="#1F66E5"/>
<path d="M120.184 115.685C121.898 115.685 123.362 116.325 124.577 117.611C125.791 118.892 126.398 120.47 126.398 122.331C126.398 124.192 125.791 125.765 124.577 127.051C123.362 128.332 121.898 128.977 120.184 128.977C118.469 128.977 117.026 128.367 116.056 127.142V128.629H112.771V111.01H116.056V117.53C117.026 116.305 118.398 115.695 120.184 115.695V115.685ZM117.051 124.883C117.714 125.543 118.556 125.876 119.572 125.876C120.587 125.876 121.434 125.543 122.107 124.883C122.776 124.222 123.112 123.37 123.112 122.326C123.112 121.282 122.776 120.435 122.107 119.769C121.434 119.109 120.592 118.776 119.572 118.776C118.551 118.776 117.714 119.109 117.051 119.769C116.388 120.43 116.056 121.282 116.056 122.326C116.056 123.37 116.388 124.217 117.051 124.883Z" fill="#1F66E5"/>
<path d="M130.343 114.53C129.797 114.53 129.327 114.333 128.929 113.94C128.531 113.547 128.333 113.083 128.333 112.543C128.333 112.004 128.531 111.535 128.929 111.136C129.327 110.733 129.802 110.531 130.343 110.531C130.884 110.531 131.384 110.733 131.782 111.136C132.179 111.54 132.378 112.009 132.378 112.543C132.378 113.078 132.179 113.547 131.782 113.94C131.384 114.333 130.904 114.53 130.343 114.53ZM128.715 128.624V116.038H132.001V128.624H128.715Z" fill="#1F66E5"/>
<path d="M135.005 128.625V110.249H138.291V128.625H135.005Z" fill="#1F66E5"/>
<path d="M142.923 114.53C142.377 114.53 141.907 114.333 141.51 113.94C141.112 113.547 140.913 113.083 140.913 112.543C140.913 112.004 141.112 111.535 141.51 111.136C141.907 110.733 142.382 110.531 142.923 110.531C143.464 110.531 143.964 110.733 144.362 111.136C144.76 111.54 144.959 112.009 144.959 112.543C144.959 113.078 144.76 113.547 144.362 113.94C143.964 114.333 143.484 114.53 142.923 114.53ZM141.295 128.624V116.038H144.581V128.624H141.295Z" fill="#1F66E5"/>
<path d="M150.358 123.667C150.802 125.246 151.996 126.032 153.95 126.032C155.205 126.032 156.159 125.614 156.802 124.772L159.45 126.28C158.195 128.075 156.343 128.972 153.899 128.972C151.792 128.972 150.103 128.342 148.833 127.086C147.557 125.826 146.925 124.242 146.925 122.331C146.925 120.42 147.552 118.852 148.807 117.586C150.063 116.32 151.675 115.685 153.644 115.685C155.512 115.685 157.052 116.32 158.267 117.596C159.481 118.872 160.088 120.45 160.088 122.326C160.088 122.745 160.047 123.188 159.961 123.657H150.358V123.667ZM150.307 121.151H156.802C156.614 120.294 156.231 119.658 155.644 119.24C155.057 118.821 154.394 118.61 153.644 118.61C152.762 118.61 152.032 118.831 151.455 119.275C150.879 119.719 150.496 120.344 150.307 121.151Z" fill="#1F66E5"/>
<path d="M165.663 118.207C165.969 117.4 166.474 116.795 167.178 116.397C167.883 115.993 168.668 115.791 169.536 115.791V119.417C168.536 119.301 167.638 119.503 166.847 120.022C166.056 120.542 165.663 121.409 165.663 122.614V128.63H162.377V116.044H165.663V118.207Z" fill="#1F66E5"/>
<path d="M186.04 127.616L183.239 129.2L181.611 127.465C180.234 128.473 178.637 128.973 176.82 128.973C175.004 128.973 173.489 128.499 172.325 127.551C171.162 126.603 170.581 125.332 170.581 123.738C170.581 122.7 170.836 121.731 171.346 120.844C171.856 119.956 172.596 119.23 173.56 118.681C172.984 117.773 172.693 116.795 172.693 115.736C172.693 114.243 173.218 113.023 174.269 112.075C175.32 111.127 176.652 110.653 178.269 110.653C179.545 110.653 180.683 110.975 181.693 111.621C182.703 112.266 183.453 113.204 183.948 114.43L180.943 116.139C180.453 114.727 179.575 114.026 178.32 114.026C177.708 114.026 177.203 114.203 176.805 114.556C176.407 114.909 176.208 115.352 176.208 115.887C176.208 116.356 176.32 116.784 176.55 117.173C176.78 117.561 177.147 118.02 177.657 118.554L181.468 122.674C181.841 121.888 182.132 120.914 182.336 119.76L185.29 121.424C184.968 122.785 184.448 124.016 183.739 125.125L186.04 127.616ZM177.055 125.781C177.938 125.781 178.729 125.569 179.428 125.14L175.57 121.02C175.535 120.985 175.519 120.96 175.519 120.945C174.586 121.515 174.121 122.331 174.121 123.385C174.121 124.106 174.371 124.686 174.876 125.12C175.376 125.559 176.106 125.776 177.06 125.776L177.055 125.781Z" fill="#1F66E5"/>
<path d="M195.663 128.978C192.979 128.978 190.765 128.095 189.015 126.335C187.265 124.575 186.393 122.402 186.393 119.815C186.393 117.228 187.265 115.04 189.015 113.285C190.765 111.53 192.979 110.653 195.663 110.653C197.275 110.653 198.765 111.026 200.132 111.772C201.5 112.518 202.566 113.532 203.326 114.803L200.296 116.542C199.852 115.756 199.224 115.136 198.413 114.692C197.597 114.248 196.683 114.026 195.663 114.026C193.933 114.026 192.535 114.566 191.474 115.64C190.413 116.714 189.882 118.106 189.882 119.82C189.882 121.535 190.413 122.901 191.474 123.975C192.535 125.049 193.933 125.584 195.663 125.584C196.683 125.584 197.602 125.362 198.428 124.918C199.25 124.475 199.877 123.864 200.301 123.093L203.331 124.828C202.566 126.103 201.505 127.112 200.148 127.858C198.791 128.605 197.296 128.978 195.663 128.978Z" fill="#1F66E5"/>
<path d="M216.27 127.051C214.964 128.332 213.367 128.977 211.485 128.977C209.602 128.977 208.01 128.337 206.709 127.051C205.408 125.765 204.76 124.192 204.76 122.331C204.76 120.47 205.408 118.897 206.709 117.611C208.01 116.325 209.602 115.685 211.485 115.685C213.367 115.685 214.964 116.325 216.27 117.611C217.577 118.892 218.23 120.47 218.23 122.331C218.23 124.192 217.577 125.765 216.27 127.051ZM209.026 124.822C209.679 125.478 210.5 125.806 211.485 125.806C212.469 125.806 213.291 125.478 213.954 124.822C214.617 124.167 214.949 123.335 214.949 122.331C214.949 121.328 214.617 120.496 213.954 119.84C213.291 119.184 212.469 118.857 211.485 118.857C210.5 118.857 209.679 119.184 209.026 119.84C208.373 120.496 208.046 121.323 208.046 122.331C208.046 123.34 208.373 124.167 209.026 124.822Z" fill="#1F66E5"/>
<path d="M227.626 115.685C229.019 115.685 230.167 116.149 231.075 117.072C231.983 117.994 232.437 119.27 232.437 120.899V128.624H229.152V121.297C229.152 120.46 228.922 119.815 228.463 119.371C228.004 118.927 227.391 118.705 226.631 118.705C225.784 118.705 225.101 118.968 224.595 119.487C224.09 120.006 223.83 120.788 223.83 121.827V128.624H220.544V116.038H223.83V117.45C224.626 116.275 225.891 115.69 227.626 115.69V115.685Z" fill="#1F66E5"/>
<path d="M238.27 119.613C238.27 119.95 238.495 120.223 238.943 120.43C239.392 120.641 239.938 120.823 240.586 120.984C241.229 121.146 241.877 121.347 242.52 121.589C243.163 121.831 243.714 122.24 244.163 122.81C244.612 123.38 244.836 124.096 244.836 124.948C244.836 126.239 244.347 127.232 243.372 127.928C242.398 128.624 241.178 128.972 239.719 128.972C237.107 128.972 235.321 127.973 234.372 125.977L237.224 124.393C237.597 125.482 238.428 126.032 239.719 126.032C240.892 126.032 241.474 125.669 241.474 124.948C241.474 124.61 241.25 124.338 240.801 124.131C240.352 123.924 239.801 123.733 239.158 123.566C238.515 123.4 237.867 123.188 237.224 122.936C236.576 122.684 236.03 122.285 235.581 121.741C235.132 121.196 234.908 120.51 234.908 119.688C234.908 118.448 235.372 117.469 236.296 116.758C237.219 116.047 238.372 115.689 239.745 115.689C240.78 115.689 241.724 115.921 242.571 116.38C243.418 116.844 244.091 117.5 244.581 118.357L241.78 119.865C241.372 119.007 240.693 118.584 239.745 118.584C239.321 118.584 238.969 118.675 238.688 118.861C238.408 119.048 238.27 119.3 238.27 119.618V119.613Z" fill="#1F66E5"/>
<path d="M253.858 119.159H250.98V124.393C250.98 124.832 251.093 125.15 251.312 125.351C251.531 125.553 251.853 125.664 252.281 125.689C252.705 125.714 253.23 125.709 253.858 125.674V128.619C251.598 128.871 250.006 128.659 249.083 127.989C248.159 127.318 247.695 126.118 247.695 124.388V119.154H245.48V116.032H247.695V113.491L250.98 112.508V116.032H253.858V119.154V119.159Z" fill="#1F66E5"/>
<path d="M259.663 118.207C259.969 117.4 260.474 116.795 261.178 116.397C261.883 115.993 262.668 115.791 263.536 115.791V119.417C262.536 119.301 261.638 119.503 260.847 120.022C260.056 120.542 259.663 121.409 259.663 122.614V128.63H256.377V116.044H259.663V118.207Z" fill="#1F66E5"/>
<path d="M273.846 116.038H277.132V128.624H273.846V127.217C273.05 128.392 271.785 128.977 270.05 128.977C268.657 128.977 267.509 128.513 266.601 127.591C265.693 126.668 265.239 125.392 265.239 123.763V116.038H268.524V123.365C268.524 124.207 268.754 124.847 269.213 125.291C269.672 125.735 270.285 125.957 271.045 125.957C271.892 125.957 272.576 125.695 273.081 125.175C273.586 124.656 273.846 123.874 273.846 122.835V116.038Z" fill="#1F66E5"/>
<path d="M286.199 128.978C284.281 128.978 282.679 128.342 281.398 127.066C280.117 125.791 279.475 124.212 279.475 122.336C279.475 120.46 280.117 118.877 281.398 117.606C282.679 116.331 284.281 115.695 286.199 115.695C287.439 115.695 288.566 115.988 289.587 116.578C290.607 117.168 291.378 117.954 291.903 118.943L289.077 120.582C288.822 120.062 288.434 119.649 287.918 119.346C287.398 119.043 286.816 118.892 286.174 118.892C285.189 118.892 284.373 119.215 283.73 119.86C283.082 120.506 282.76 121.333 282.76 122.341C282.76 123.35 283.082 124.152 283.73 124.797C284.373 125.443 285.189 125.765 286.174 125.765C286.837 125.765 287.424 125.619 287.944 125.327C288.459 125.034 288.847 124.626 289.102 124.106L291.954 125.715C291.393 126.703 290.602 127.5 289.587 128.095C288.566 128.69 287.439 128.988 286.199 128.988V128.978Z" fill="#1F66E5"/>
<path d="M300.97 119.159H298.093V124.393C298.093 124.832 298.205 125.15 298.424 125.351C298.644 125.553 298.965 125.664 299.394 125.689C299.817 125.714 300.343 125.709 300.97 125.674V128.619C298.71 128.871 297.118 128.659 296.195 127.989C295.271 127.318 294.807 126.118 294.807 124.388V119.154H292.593V116.032H294.807V113.491L298.093 112.508V116.032H300.97V119.154V119.159Z" fill="#1F66E5"/>
<path d="M304.918 114.53C304.372 114.53 303.903 114.333 303.505 113.94C303.107 113.547 302.908 113.083 302.908 112.543C302.908 112.004 303.107 111.535 303.505 111.136C303.903 110.733 304.377 110.531 304.918 110.531C305.459 110.531 305.959 110.733 306.357 111.136C306.755 111.54 306.954 112.009 306.954 112.543C306.954 113.078 306.755 113.547 306.357 113.94C305.959 114.333 305.479 114.53 304.918 114.53ZM303.29 128.624V116.038H306.576V128.624H303.29Z" fill="#1F66E5"/>
<path d="M320.43 127.051C319.124 128.332 317.527 128.977 315.644 128.977C313.761 128.977 312.169 128.337 310.868 127.051C309.567 125.765 308.919 124.192 308.919 122.331C308.919 120.47 309.567 118.897 310.868 117.611C312.169 116.325 313.761 115.685 315.644 115.685C317.527 115.685 319.124 116.325 320.43 117.611C321.736 118.892 322.389 120.47 322.389 122.331C322.389 124.192 321.736 125.765 320.43 127.051ZM313.185 124.822C313.838 125.478 314.659 125.806 315.644 125.806C316.629 125.806 317.45 125.478 318.113 124.822C318.777 124.167 319.108 123.335 319.108 122.331C319.108 121.328 318.777 120.496 318.113 119.84C317.45 119.184 316.629 118.857 315.644 118.857C314.659 118.857 313.838 119.184 313.185 119.84C312.532 120.496 312.205 121.323 312.205 122.331C312.205 123.34 312.532 124.167 313.185 124.822Z" fill="#1F66E5"/>
<path d="M331.786 115.685C333.179 115.685 334.327 116.149 335.235 117.072C336.143 117.994 336.597 119.27 336.597 120.899V128.624H333.311V121.297C333.311 120.46 333.082 119.815 332.622 119.371C332.163 118.927 331.551 118.705 330.791 118.705C329.944 118.705 329.26 118.968 328.755 119.487C328.25 120.006 327.99 120.788 327.99 121.827V128.624H324.704V116.038H327.99V117.45C328.786 116.275 330.051 115.69 331.786 115.69V115.685Z" fill="#1F66E5"/>
</svg>
