<svg width="47" height="46" viewBox="0 0 47 46" fill="none" xmlns="http://www.w3.org/2000/svg">
<g id="Icons/Arrow">
<g id="Combined Shape">
<path fill-rule="evenodd" clip-rule="evenodd" d="M29.5055 22.7457L21.3393 14.1618C21.0538 13.8617 20.5791 13.8498 20.279 14.1353C19.9789 14.4208 19.967 14.8956 20.2525 15.1957L27.93 23.2659L20.2525 31.336C19.967 31.6361 19.9789 32.1109 20.279 32.3964C20.5791 32.6819 21.0538 32.67 21.3393 32.3699L29.5055 23.786C29.5631 23.7263 29.6089 23.6593 29.6428 23.5879C29.7391 23.3852 29.7396 23.1475 29.6428 22.9438C29.6089 22.8724 29.5631 22.8054 29.5055 22.7457Z" fill="white"/>
<path d="M29.5055 22.7457L29.2157 23.0214L29.2176 23.0233L29.5055 22.7457ZM21.3393 14.1618L21.0495 14.4375L21.0495 14.4375L21.3393 14.1618ZM20.279 14.1353L20.0033 13.8455L20.0033 13.8455L20.279 14.1353ZM20.2525 15.1957L20.5423 14.92L20.5423 14.92L20.2525 15.1957ZM27.93 23.2659L28.2198 23.5416C28.3668 23.3871 28.3668 23.1446 28.2198 22.9901L27.93 23.2659ZM20.2525 31.336L20.5423 31.6117H20.5423L20.2525 31.336ZM20.279 32.3964L20.0033 32.6862L20.0033 32.6862L20.279 32.3964ZM21.3393 32.3699L21.6291 32.6456H21.6291L21.3393 32.3699ZM29.5055 23.786L29.2176 23.5084L29.2157 23.5103L29.5055 23.786ZM29.6428 23.5879L29.2815 23.4163L29.2815 23.4163L29.6428 23.5879ZM29.6428 22.9438L29.2815 23.1154L29.2815 23.1156L29.6428 22.9438ZM29.7953 22.47L21.6291 13.8861L21.0495 14.4375L29.2157 23.0214L29.7953 22.47ZM21.6291 13.8861C21.1913 13.4259 20.4634 13.4078 20.0033 13.8455L20.5547 14.4251C20.6947 14.2919 20.9162 14.2974 21.0495 14.4375L21.6291 13.8861ZM20.0033 13.8455C19.5431 14.2833 19.5249 15.0112 19.9627 15.4714L20.5423 14.92C20.4091 14.7799 20.4146 14.5584 20.5547 14.4251L20.0033 13.8455ZM19.9627 15.4714L27.6402 23.5416L28.2198 22.9901L20.5423 14.92L19.9627 15.4714ZM20.5423 31.6117L28.2198 23.5416L27.6402 22.9901L19.9627 31.0603L20.5423 31.6117ZM20.5547 32.1066C20.4146 31.9733 20.4091 31.7518 20.5423 31.6117L19.9627 31.0603C19.5249 31.5205 19.5431 32.2484 20.0033 32.6862L20.5547 32.1066ZM21.0495 32.0942C20.9162 32.2343 20.6947 32.2398 20.5547 32.1066L20.0033 32.6862C20.4634 33.1239 21.1913 33.1058 21.6291 32.6456L21.0495 32.0942ZM29.2157 23.5103L21.0495 32.0942L21.6291 32.6456L29.7953 24.0617L29.2157 23.5103ZM29.7935 24.0637C29.8815 23.9724 29.9519 23.8694 30.0041 23.7596L29.2815 23.4163C29.2658 23.4492 29.2447 23.4803 29.2176 23.5084L29.7935 24.0637ZM30.0041 23.7596C30.1518 23.4486 30.1528 23.0848 30.004 22.772L29.2815 23.1156C29.3265 23.2102 29.3264 23.3218 29.2815 23.4163L30.0041 23.7596ZM29.2176 23.0233C29.2447 23.0514 29.2658 23.0825 29.2815 23.1154L30.0041 22.7721C29.9519 22.6623 29.8815 22.5593 29.7935 22.468L29.2176 23.0233Z" fill="white"/>
</g>
</g>
</svg>
