<svg width="33" height="33" viewBox="0 0 33 33" fill="none" xmlns="http://www.w3.org/2000/svg">
<path fill-rule="evenodd" clip-rule="evenodd" d="M21.1867 15.5631L15.4579 9.48428C15.1738 9.18283 14.6992 9.16876 14.3977 9.45285C14.0963 9.73693 14.0822 10.2116 14.3663 10.513L19.6139 16.0813L14.3663 21.6495C14.0822 21.951 14.0963 22.4256 14.3977 22.7097C14.6992 22.9938 15.1738 22.9797 15.4579 22.6783L21.1867 16.5995C21.2428 16.5409 21.2876 16.4752 21.321 16.4054C21.4183 16.2023 21.4193 15.9637 21.322 15.7592C21.2885 15.6886 21.2433 15.6222 21.1867 15.5631Z" fill="#01192A"/>
<path d="M21.1867 15.5631L20.8955 15.8374L20.8977 15.8397L21.1867 15.5631ZM15.4579 9.48428L15.749 9.20994L15.749 9.20994L15.4579 9.48428ZM14.3977 9.45285L14.1234 9.16175L14.1234 9.16175L14.3977 9.45285ZM14.3663 10.513L14.6574 10.2387L14.6574 10.2387L14.3663 10.513ZM19.6139 16.0813L19.905 16.3556C20.0502 16.2015 20.0502 15.961 19.905 15.8069L19.6139 16.0813ZM14.3663 21.6495L14.6574 21.9239H14.6574L14.3663 21.6495ZM14.3977 22.7097L14.1234 23.0008L14.3977 22.7097ZM15.4579 22.6783L15.1668 22.4039H15.1668L15.4579 22.6783ZM21.1867 16.5995L20.8977 16.3229L20.8956 16.3251L21.1867 16.5995ZM21.321 16.4054L20.9603 16.2327L21.321 16.4054ZM21.322 15.7592L20.9607 15.9308L20.9608 15.931L21.322 15.7592ZM21.4778 15.2887L15.749 9.20994L15.1668 9.75861L20.8956 15.8374L21.4778 15.2887ZM15.749 9.20994C15.3134 8.74773 14.5856 8.72615 14.1234 9.16175L14.6721 9.74395C14.8127 9.61137 15.0343 9.61794 15.1668 9.75861L15.749 9.20994ZM14.1234 9.16175C13.6612 9.59734 13.6396 10.3252 14.0752 10.7874L14.6574 10.2387C14.5248 10.098 14.5314 9.87652 14.6721 9.74395L14.1234 9.16175ZM14.0752 10.7874L19.3228 16.3556L19.905 15.8069L14.6574 10.2387L14.0752 10.7874ZM14.6574 21.9239L19.905 16.3556L19.3228 15.8069L14.0752 21.3752L14.6574 21.9239ZM14.6721 22.4186C14.5314 22.286 14.5248 22.0645 14.6574 21.9239L14.0752 21.3752C13.6396 21.8374 13.6612 22.5652 14.1234 23.0008L14.6721 22.4186ZM15.1668 22.4039C15.0343 22.5446 14.8127 22.5512 14.6721 22.4186L14.1234 23.0008C14.5856 23.4364 15.3134 23.4148 15.749 22.9526L15.1668 22.4039ZM20.8956 16.3251L15.1668 22.4039L15.749 22.9526L21.4778 16.8738L20.8956 16.3251ZM21.4756 16.8761C21.5615 16.7864 21.6303 16.6856 21.6818 16.5782L20.9603 16.2327C20.9448 16.2649 20.9241 16.2953 20.8977 16.3229L21.4756 16.8761ZM21.6818 16.5782C21.8309 16.2667 21.8326 15.9015 21.6832 15.5874L20.9608 15.931C21.006 16.026 21.0056 16.138 20.9603 16.2327L21.6818 16.5782ZM20.8977 15.8397C20.9244 15.8675 20.9452 15.8983 20.9607 15.9308L21.6833 15.5876C21.6317 15.4789 21.5623 15.377 21.4756 15.2864L20.8977 15.8397Z" fill="#01192A"/>
</svg>
