<svg width="17" height="19" viewBox="0 0 17 19" fill="none" xmlns="http://www.w3.org/2000/svg">
<g id="Calque 1">
<g id="Group">
<path id="Vector" d="M0.537109 10.7622C0.537109 8.28369 0.537109 5.79932 0.537109 3.3208C0.537109 2.93408 0.595703 2.87549 0.976562 2.87549C5.17773 2.87549 9.37305 2.87549 13.5742 2.87549C13.9375 2.87549 14.002 2.93994 14.002 3.30908C14.002 8.28955 14.002 13.27 14.002 18.2505C14.002 18.6196 13.9375 18.6841 13.5742 18.6841C9.36719 18.6841 5.16016 18.6841 0.958984 18.6841C0.607422 18.6841 0.537109 18.6196 0.537109 18.2563C0.537109 15.7661 0.537109 13.2642 0.537109 10.7622ZM13.4336 10.7856C13.4336 8.42432 13.4336 6.05713 13.4336 3.6958C13.4336 3.50244 13.3926 3.44385 13.1875 3.44385C9.24414 3.44971 5.29492 3.44971 1.35156 3.44385C1.14648 3.44385 1.10547 3.50244 1.10547 3.6958C1.10547 8.41846 1.10547 13.1411 1.10547 17.8579C1.10547 18.0298 1.18945 18.1157 1.35742 18.1157C5.29492 18.1157 9.23828 18.1157 13.1758 18.1157C13.3438 18.1157 13.4277 18.0298 13.4277 17.8579C13.4277 15.5024 13.4277 13.1411 13.4277 10.7856H13.4336Z" fill="white" stroke="white" stroke-width="0.1"/>
<path id="Vector_2" d="M16.3519 8.75244C16.3519 11.3306 16.3519 13.9087 16.3519 16.4868C16.3519 16.8032 16.2699 16.9263 16.0707 16.9263C15.8656 16.9263 15.7835 16.8032 15.7835 16.4868C15.7835 11.4536 15.7835 6.42041 15.7835 1.38721C15.7835 1.06494 15.8187 1.1001 15.4847 1.1001C11.2484 1.1001 7.0062 1.1001 2.76987 1.1001C2.68784 1.1001 2.59995 1.1001 2.51792 1.08838C2.37143 1.05908 2.30112 0.947754 2.30698 0.80127C2.30698 0.660645 2.38315 0.566895 2.52378 0.537598C2.57651 0.531738 2.64682 0.531738 2.71128 0.531738C7.11753 0.531738 11.5238 0.531738 15.93 0.531738C16.2816 0.531738 16.346 0.602051 16.346 0.959473C16.346 3.55518 16.346 6.15674 16.346 8.75244H16.3519Z" fill="white" stroke="white" stroke-width="0.1"/>
<path id="Vector_3" d="M7.25195 7.55119C6.13867 7.55119 5.02539 7.55119 3.91211 7.55119C3.85352 7.55119 3.79492 7.55119 3.73633 7.55119C3.56641 7.53361 3.47266 7.43986 3.47266 7.26994C3.47266 7.10002 3.56055 7.00041 3.73047 6.98283C3.78906 6.97697 3.84766 6.98283 3.90625 6.98283C6.15039 6.98283 8.39453 6.98283 10.6387 6.98283C10.6562 6.98283 10.6797 6.98283 10.6973 6.98283C10.9492 6.98283 11.0781 7.08244 11.0723 7.2758C11.0723 7.4633 10.9492 7.55705 10.709 7.55705C10.5273 7.55705 10.3457 7.55705 10.1641 7.55705C9.19727 7.55705 8.22461 7.55705 7.25781 7.55705L7.25195 7.55119Z" fill="white" stroke="white" stroke-width="0.1"/>
<path id="Vector_4" d="M7.26953 11.0668C6.15039 11.0668 5.03125 11.0668 3.91211 11.0668C3.85352 11.0668 3.79492 11.0668 3.73633 11.0668C3.56641 11.0492 3.47266 10.9555 3.47266 10.7856C3.47266 10.6156 3.56055 10.516 3.73047 10.4985C3.78906 10.4926 3.84766 10.4985 3.90625 10.4985C6.15039 10.4985 8.39453 10.4985 10.6387 10.4985C10.6562 10.4985 10.6797 10.4985 10.6973 10.4985C10.9492 10.4985 11.0781 10.5981 11.0723 10.7914C11.0723 10.9789 10.9492 11.0727 10.709 11.0727C10.5215 11.0727 10.334 11.0727 10.1406 11.0727C9.18555 11.0727 8.23047 11.0727 7.26953 11.0727V11.0668Z" fill="white" stroke="white" stroke-width="0.1"/>
<path id="Vector_5" d="M4.9082 14.5884C4.54492 14.5884 4.18164 14.5884 3.81836 14.5884C3.5957 14.5884 3.47852 14.4888 3.47266 14.3071C3.47266 14.1255 3.58984 14.02 3.80664 14.0142C4.55664 14.0142 5.30078 14.0142 6.05078 14.0142C6.27344 14.0142 6.39062 14.1255 6.38477 14.3071C6.38477 14.4888 6.26172 14.5884 6.03906 14.5884C5.66406 14.5884 5.2832 14.5884 4.9082 14.5884Z" fill="white" stroke="white" stroke-width="0.1"/>
</g>
</g>
</svg>
