<svg width="13" height="11" viewBox="0 0 13 11" fill="none" xmlns="http://www.w3.org/2000/svg">
<g id="Calque 1">
<g id="Group">
<path id="Vector" d="M6.89979 11H5.96168C6.02931 10.9947 6.09732 10.9897 6.15947 10.9851C4.59595 10.8805 3.27986 10.2609 2.24443 9.10594C1.2043 7.94559 0.765341 6.57594 0.884168 5.04549C0.992441 3.64833 1.5897 2.45972 2.63218 1.50524C3.6727 0.552674 4.91804 0.0496528 6.35334 0.0194792C6.32325 0.0160417 6.29315 0.0148958 6.26305 0.0129861C6.19856 0.00878472 6.13367 0.00420139 6.06918 0C6.35569 0 6.64259 0 6.92911 0C6.84194 0.00381944 6.75478 0.00763889 6.66761 0.0118403C6.64728 0.0126042 6.62735 0.0141319 6.60702 0.0156597C8.06813 0.0572917 9.33106 0.571007 10.3782 1.5591C11.427 2.54872 11.9918 3.76826 12.0844 5.1891C12.0887 5.1551 12.0938 5.11767 12.0985 5.07986V5.90104C12.093 5.87622 12.0875 5.85101 12.0825 5.82618C11.9851 7.21417 11.4469 8.41003 10.4349 9.39201C9.42409 10.3732 8.20064 10.8953 6.78996 10.9847C6.81927 10.9889 6.85953 10.9943 6.89979 11ZM5.42344 7.71719C5.54813 7.72406 5.64194 7.67747 5.72442 7.6049C5.9437 7.4124 6.16181 7.21913 6.38071 7.02625C6.7325 6.71611 7.08429 6.40597 7.43647 6.0966C7.73315 5.83573 8.03021 5.57601 8.32689 5.31514C8.70096 4.98628 9.07464 4.65743 9.44871 4.32858C9.59256 4.20177 9.73992 4.07878 9.87985 3.94778C9.99125 3.84351 10.0229 3.71021 9.98187 3.56583C9.94239 3.42681 9.84741 3.3359 9.70318 3.29924C9.55503 3.26142 9.42839 3.30191 9.3166 3.40122C8.9738 3.70448 8.62943 4.00622 8.28585 4.30833C7.63973 4.87667 6.9936 5.445 6.34709 6.01333C6.05549 6.27 5.7639 6.52628 5.47269 6.78333C5.4508 6.80281 5.43673 6.81198 5.40937 6.78753C5.04937 6.46976 4.6882 6.15351 4.32742 5.83611C4.09641 5.63292 3.86579 5.42896 3.63517 5.225C3.48195 5.08979 3.24351 5.08177 3.10006 5.20819C2.91517 5.3709 2.91322 5.63253 3.09771 5.79639C3.24195 5.9251 3.38853 6.05153 3.53354 6.1791C4.07335 6.65385 4.61315 7.12823 5.15178 7.60413C5.23269 7.67556 5.32299 7.71833 5.42344 7.71681V7.71719Z" fill="white"/>
<path id="Vector_2" d="M0.841797 5.15625C0.844852 5.21774 0.850582 5.27924 0.850964 5.34073C0.851727 5.51069 0.850964 5.68028 0.849818 5.85024C0.849818 5.86399 0.84447 5.87774 0.841797 5.89149C0.841797 5.64628 0.841797 5.40146 0.841797 5.15625Z" fill="white"/>
</g>
</g>
</svg>
