<svg width="17" height="22" viewBox="0 0 17 22" fill="none" xmlns="http://www.w3.org/2000/svg">
<g id="Group">
<path id="Vector" d="M0.858815 7.3687C0.854266 7.16511 0.86109 6.96152 0.875875 6.75843C0.935582 5.96099 1.1511 5.19691 1.52584 4.46766C2.41292 2.74337 4.10805 1.42177 6.16654 0.850325C6.54242 0.745792 6.92568 0.668637 7.31577 0.617366C7.73145 0.563108 8.14884 0.536726 8.56906 0.543197C8.83178 0.547179 9.09335 0.563108 9.35493 0.590486C10.0691 0.664654 10.7561 0.826432 11.4174 1.07333C13.0477 1.68211 14.3994 2.78667 15.2069 4.1685C15.5236 4.71108 15.751 5.28053 15.8887 5.87786C15.9398 6.10087 15.9774 6.32636 16.0018 6.55335C16.0314 6.82463 16.0416 7.09592 16.0331 7.36821C16.0274 7.56035 16.0217 7.75299 16.0092 7.94463C15.9956 8.1522 15.9711 8.35878 15.9404 8.56486C15.8875 8.92027 15.8108 9.2717 15.7038 9.61766C15.4809 10.3394 15.1221 11.006 14.6388 11.6212C14.4051 11.9184 14.1514 12.2021 13.887 12.4784C13.6471 12.7293 13.4048 12.9786 13.166 13.2305C12.9306 13.4789 12.7082 13.7363 12.5058 14.007C12.0679 14.5929 11.77 15.2286 11.6153 15.916C11.5584 16.1679 11.5186 16.4213 11.4936 16.6771C11.4714 16.9041 11.4623 17.1316 11.4623 17.3596C11.4623 17.476 11.4288 17.5836 11.3401 17.6727C11.1979 17.8155 11.0176 17.8693 10.8084 17.8225C10.5986 17.7757 10.4723 17.6513 10.4251 17.4666C10.4166 17.4327 10.4172 17.3964 10.4172 17.3611C10.4172 17.1176 10.4257 16.8747 10.4473 16.6323C10.4661 16.4208 10.4928 16.2097 10.5298 16.0001C10.6799 15.1479 11.0068 14.3535 11.5391 13.6257C11.7734 13.3047 12.0338 13.0005 12.3102 12.7074C12.5655 12.4361 12.8254 12.1683 13.0824 11.898C13.3423 11.6242 13.5902 11.342 13.8137 11.0443C14.276 10.428 14.5961 9.75902 14.7747 9.03824C14.8327 8.80479 14.8776 8.56984 14.9106 8.3324C14.9703 7.90132 14.9947 7.46876 14.9822 7.03519C14.9595 6.22382 14.748 5.45127 14.3482 4.71904C13.5817 3.31581 12.2129 2.25405 10.5298 1.75628C10.1943 1.65722 9.85193 1.58355 9.50221 1.53427C9.11496 1.47951 8.72487 1.45164 8.33251 1.4596C6.84892 1.48947 5.51999 1.90262 4.35939 2.71251C3.27385 3.46962 2.54257 4.43879 2.15305 5.60458C2.06548 5.86592 2.00407 6.13223 1.96142 6.40152C1.91138 6.71761 1.89659 7.03519 1.90171 7.35427C1.90626 7.6151 1.92161 7.87594 1.95061 8.13528C2.00122 8.59174 2.09334 9.04123 2.24233 9.48126C2.44988 10.095 2.76946 10.661 3.18628 11.1861C3.41715 11.4768 3.67019 11.7526 3.93177 12.0224C4.20927 12.3091 4.48904 12.5944 4.75517 12.8895C5.02641 13.1902 5.28003 13.5008 5.50066 13.8318C5.86004 14.3704 6.11423 14.9449 6.2689 15.5536C6.33827 15.8279 6.38888 16.1047 6.423 16.3839C6.46224 16.7075 6.481 17.032 6.48157 17.3571C6.48157 17.4059 6.47759 17.4541 6.46224 17.5014C6.38774 17.7224 6.1654 17.825 5.98344 17.832C5.69968 17.8429 5.44266 17.6503 5.43583 17.379C5.43185 17.2197 5.42844 17.0609 5.42105 16.9016C5.40911 16.6497 5.37669 16.3994 5.33177 16.1505C5.27263 15.8269 5.18506 15.5093 5.06394 15.1992C4.87344 14.7104 4.59993 14.2589 4.26272 13.8358C4.04891 13.567 3.81406 13.3126 3.57352 13.0618C3.31195 12.789 3.04866 12.5182 2.79107 12.2424C2.48514 11.9154 2.20423 11.5724 1.95857 11.2076C1.57701 10.6421 1.30463 10.0378 1.13063 9.39963C1.05272 9.11341 0.994153 8.8242 0.952073 8.5325C0.920797 8.31547 0.896346 8.09745 0.884973 7.87892C0.876443 7.70868 0.867914 7.53894 0.859384 7.3687H0.858815Z" fill="white"/>
<path id="Vector_2" d="M8.4413 19.7826C7.57242 19.7826 6.70353 19.7826 5.83464 19.7826C5.77152 19.7826 5.7084 19.7816 5.64699 19.7657C5.42806 19.7094 5.25974 19.5317 5.26997 19.3057C5.28021 19.0872 5.46445 18.908 5.70612 18.8752C5.74593 18.8697 5.7863 18.8672 5.82668 18.8672C7.57469 18.8672 9.32213 18.8672 11.0701 18.8672C11.1202 18.8672 11.1714 18.8707 11.2203 18.8801C11.4614 18.9259 11.6337 19.1255 11.6229 19.3421C11.6121 19.5546 11.45 19.7249 11.2134 19.7721C11.1839 19.7781 11.1537 19.7796 11.1236 19.7816C11.0957 19.7831 11.0679 19.7826 11.04 19.7826C10.174 19.7826 9.30735 19.7826 8.4413 19.7826Z" fill="white"/>
<path id="Vector_3" d="M8.44079 21.9706C7.5719 21.9706 6.70301 21.9706 5.83412 21.9706C5.771 21.9706 5.70788 21.9696 5.64647 21.9537C5.4264 21.8969 5.25922 21.7187 5.27003 21.4937C5.28026 21.2752 5.4645 21.096 5.70675 21.0636C5.74883 21.0582 5.79204 21.0557 5.83469 21.0557C7.57759 21.0557 9.31991 21.0557 11.0628 21.0552C11.1214 21.0552 11.1788 21.0587 11.2357 21.0721C11.47 21.1269 11.6303 21.3145 11.6235 21.5246C11.6161 21.7431 11.4421 21.9243 11.1981 21.9636C11.1538 21.9706 11.1077 21.9706 11.0622 21.9706C10.7466 21.9711 10.431 21.9706 10.1149 21.9706H8.44022H8.44079Z" fill="white"/>
</g>
</svg>
