<svg width="18" height="18" viewBox="0 0 18 18" fill="none" xmlns="http://www.w3.org/2000/svg">
<path fill="#01192A" fill-rule="evenodd" clip-rule="evenodd" d="M0 1.28941C0 0.57748 0.595518 0 1.33016 0H16.6698C17.4045 0 18 0.57748 18 1.28941V16.7106C18 17.4228 17.4045 18 16.6698 18H1.33016C0.595518 18 0 17.4228 0 16.7106V1.28941ZM5.45654 15.0679V6.93986H2.7378V15.0679H5.45654ZM4.09716 5.83012C5.04524 5.83012 5.63534 5.20598 5.63534 4.42599C5.61767 3.62844 5.04524 3.02161 4.11515 3.02161C3.18515 3.02161 2.57709 3.62844 2.57709 4.42599C2.57709 5.20598 3.16706 5.83012 4.07944 5.83012H4.09716ZM9.67959 15.0679H6.96088C6.96088 15.0679 6.99663 7.70254 6.96095 6.93986H9.67966V8.09064C10.041 7.53679 10.6876 6.74914 12.1298 6.74914C13.9185 6.74914 15.2598 7.91083 15.2598 10.4074V15.0679H12.5413V10.7196C12.5413 9.62691 12.1478 8.88155 11.164 8.88155C10.4129 8.88155 9.96559 9.38423 9.76905 9.86959C9.69726 10.0432 9.67959 10.2859 9.67959 10.5288V15.0679ZM9.67966 8.09064V8.11864H9.66151C9.66748 8.10937 9.67353 8.10004 9.67966 8.09064Z" />
</svg>
