<svg width="12" height="16" viewBox="0 0 12 16" fill="none" xmlns="http://www.w3.org/2000/svg">
<g id="Group 43030">
<path id="Vector" d="M10.0493 7.12305H1.91028C1.26813 7.12305 0.747559 7.67777 0.747559 8.36205V13.3181C0.747559 14.0024 1.26813 14.5571 1.91028 14.5571H10.0493C10.6915 14.5571 11.2121 14.0024 11.2121 13.3181V8.36205C11.2121 7.67777 10.6915 7.12305 10.0493 7.12305Z" stroke="white" stroke-width="1.3" stroke-linecap="round" stroke-linejoin="round"/>
<path id="Vector_2" d="M5.97766 12.0796C6.61982 12.0796 7.14039 11.5249 7.14039 10.8406C7.14039 10.1563 6.61982 9.60156 5.97766 9.60156C5.33551 9.60156 4.81494 10.1563 4.81494 10.8406C4.81494 11.5249 5.33551 12.0796 5.97766 12.0796Z" stroke="white" stroke-width="1.3" stroke-linecap="round" stroke-linejoin="round"/>
<path id="Vector_3" d="M8.88716 4.64247V4.02296C8.89475 3.2097 8.59892 2.42652 8.06471 1.84565C7.53051 1.26478 6.80168 0.933783 6.03849 0.925445H5.98035C5.21716 0.917353 4.4822 1.2326 3.9371 1.80185C3.39199 2.3711 3.08137 3.14775 3.07355 3.96101V4.64247" stroke="white" stroke-width="1.3" stroke-linecap="round" stroke-linejoin="round"/>
</g>
</svg>
