<svg width="30" height="19" viewBox="0 0 30 19" fill="none" xmlns="http://www.w3.org/2000/svg">
<g id="Calque_1">
<path id="Vector" d="M0 12.5215C0 12.5759 0 12.6848 0 12.7393V12.7937C0 12.8481 0 12.9026 0 12.957C0.108883 16.3324 2.88539 19 6.26074 19C9.74498 19 12.5215 16.2235 12.5215 12.7393C12.5215 9.58166 10.1805 6.96848 7.1318 6.53295C7.89398 4.02865 10.1805 2.23209 12.957 2.23209V0C5.9341 0 0.272206 5.55301 0 12.5215Z" fill="#C9C0B9" fill-opacity="0.3"/>
<path id="Vector_2" d="M16.2793 12.5215C16.2793 12.5759 16.2793 12.6848 16.2793 12.7393V12.7937C16.2793 12.8481 16.2793 12.9026 16.2793 12.957C16.3882 16.3324 19.1647 19 22.54 19C26.0243 19 28.8008 16.2235 28.8008 12.7393C28.8008 9.58166 26.4598 6.96848 23.4111 6.53295C24.1733 4.02865 26.4598 2.23209 29.2363 2.23209V0C22.2134 0 16.4971 5.55301 16.2793 12.5215Z" fill="#C9C0B9" fill-opacity="0.3"/>
</g>
</svg>
