<svg width="47" height="8" viewBox="0 0 47 8" fill="none" xmlns="http://www.w3.org/2000/svg">
<g id="Group 38553">
<g id="Calque 47">
<path id="Vector" d="M4.18877 0C4.33905 0.0306955 4.41072 0.144033 4.47546 0.27626C4.77602 0.909059 5.08583 1.53714 5.3887 2.16994C5.4465 2.29036 5.53436 2.34703 5.66152 2.36591C6.18403 2.43911 6.70654 2.51467 7.22905 2.59023C7.40014 2.61384 7.56892 2.64454 7.74001 2.66106C7.90647 2.67759 8.03594 2.73426 8.08912 2.91135V3.0058C8.02669 3.08844 7.97121 3.18053 7.89722 3.25372C7.39783 3.74957 6.89613 4.2407 6.39211 4.73183C6.31581 4.80739 6.28576 4.89239 6.30425 5.00101C6.43141 5.72825 6.55626 6.4555 6.68111 7.18275C6.71348 7.37164 6.6418 7.50623 6.4869 7.54873C6.40136 7.57234 6.32506 7.54873 6.25108 7.50623C5.60834 7.1615 4.96329 6.81912 4.32287 6.47439C4.2142 6.41536 4.1171 6.41536 4.01075 6.47439C3.39344 6.80732 2.77614 7.14025 2.15884 7.47081C2.1126 7.49442 2.06636 7.51804 2.02012 7.53693C1.82128 7.61248 1.6317 7.4779 1.64788 7.26067C1.65944 7.11191 1.69181 6.96552 1.71724 6.81912C1.82128 6.2123 1.92764 5.60783 2.03399 5.00101C2.05248 4.89711 2.02474 4.80975 1.94844 4.73655C1.44212 4.2407 0.933476 3.74721 0.431772 3.249C0.355476 3.18053 0.304612 3.08844 0.242188 3.00816C0.242188 2.97746 0.242188 2.94441 0.242188 2.91371C0.293052 2.73662 0.427148 2.68704 0.5913 2.66342C1.29646 2.56662 2.00162 2.46272 2.70909 2.36355C2.81082 2.34939 2.88249 2.29508 2.92873 2.20063C3.23854 1.56075 3.54835 0.918504 3.86047 0.280982C3.89515 0.212507 3.92983 0.13931 3.983 0.0850029C4.02231 0.0425015 4.08936 0.0283343 4.14484 0.00236119C4.16103 0.00236119 4.1749 0.00236119 4.19108 0.00236119L4.18877 0Z" fill="black"/>
</g>
<g id="Calque 48">
<path id="Vector_2" d="M13.7335 0C13.8837 0.0306955 13.9554 0.144033 14.0201 0.27626C14.3207 0.909059 14.6305 1.53714 14.9334 2.16994C14.9912 2.29036 15.079 2.34703 15.2062 2.36591C15.7287 2.43911 16.2512 2.51467 16.7737 2.59023C16.9448 2.61384 17.1136 2.64454 17.2847 2.66106C17.4511 2.67759 17.5806 2.73426 17.6338 2.91135V3.0058C17.5714 3.08844 17.5159 3.18053 17.4419 3.25372C16.9425 3.74957 16.4408 4.2407 15.9368 4.73183C15.8605 4.80739 15.8304 4.89239 15.8489 5.00101C15.9761 5.72825 16.1009 6.4555 16.2258 7.18275C16.2582 7.37164 16.1865 7.50623 16.0316 7.54873C15.946 7.57234 15.8697 7.54873 15.7958 7.50623C15.153 7.1615 14.508 6.81912 13.8675 6.47439C13.7589 6.41536 13.6618 6.41536 13.5554 6.47439C12.9381 6.80732 12.3208 7.14025 11.7035 7.47081C11.6573 7.49442 11.611 7.51804 11.5648 7.53693C11.366 7.61248 11.1764 7.4779 11.1926 7.26067C11.2041 7.11191 11.2365 6.96552 11.2619 6.81912C11.366 6.2123 11.4723 5.60783 11.5787 5.00101C11.5972 4.89711 11.5694 4.80975 11.4931 4.73655C10.9868 4.2407 10.4782 3.74721 9.97645 3.249C9.90015 3.18053 9.84929 3.08844 9.78687 3.00816C9.78687 2.97746 9.78687 2.94441 9.78687 2.91371C9.83773 2.73662 9.97183 2.68704 10.136 2.66342C10.8411 2.56662 11.5463 2.46272 12.2538 2.36355C12.3555 2.34939 12.4272 2.29508 12.4734 2.20063C12.7832 1.56075 13.093 0.918504 13.4051 0.280982C13.4398 0.212507 13.4745 0.13931 13.5277 0.0850029C13.567 0.0425015 13.634 0.0283343 13.6895 0.00236119C13.7057 0.00236119 13.7196 0.00236119 13.7358 0.00236119L13.7335 0Z" fill="black"/>
</g>
<g id="Calque 49">
<path id="Vector_3" d="M23.2779 0C23.4282 0.0306955 23.4998 0.144033 23.5646 0.27626C23.8651 0.909059 24.1749 1.53714 24.4778 2.16994C24.5356 2.29036 24.6235 2.34703 24.7506 2.36591C25.2731 2.43911 25.7957 2.51467 26.3182 2.59023C26.4893 2.61384 26.658 2.64454 26.8291 2.66106C26.9956 2.67759 27.1251 2.73426 27.1782 2.91135V3.0058C27.1158 3.08844 27.0603 3.18053 26.9863 3.25372C26.4869 3.74957 25.9852 4.2407 25.4812 4.73183C25.4049 4.80739 25.3749 4.89239 25.3934 5.00101C25.5205 5.72825 25.6454 6.4555 25.7702 7.18275C25.8026 7.37164 25.7309 7.50623 25.576 7.54873C25.4905 7.57234 25.4142 7.54873 25.3402 7.50623C24.6975 7.1615 24.0524 6.81912 23.412 6.47439C23.3033 6.41536 23.2062 6.41536 23.0999 6.47439C22.4826 6.80732 21.8653 7.14025 21.2479 7.47081C21.2017 7.49442 21.1555 7.51804 21.1092 7.53693C20.9104 7.61248 20.7208 7.4779 20.737 7.26067C20.7486 7.11191 20.7809 6.96552 20.8064 6.81912C20.9104 6.2123 21.0167 5.60783 21.1231 5.00101C21.1416 4.89711 21.1139 4.80975 21.0376 4.73655C20.5312 4.2407 20.0226 3.74721 19.5209 3.249C19.4446 3.18053 19.3937 3.08844 19.3313 3.00816C19.3313 2.97746 19.3313 2.94441 19.3313 2.91371C19.3822 2.73662 19.5163 2.68704 19.6804 2.66342C20.3856 2.56662 21.0907 2.46272 21.7982 2.36355C21.8999 2.34939 21.9716 2.29508 22.0178 2.20063C22.3277 1.56075 22.6375 0.918504 22.9496 0.280982C22.9843 0.212507 23.0189 0.13931 23.0721 0.0850029C23.1114 0.0425015 23.1785 0.0283343 23.234 0.00236119C23.2501 0.00236119 23.264 0.00236119 23.2802 0.00236119L23.2779 0Z" fill="black"/>
</g>
<g id="Calque 50">
<path id="Vector_4" d="M32.8204 0C32.9706 0.0306955 33.0423 0.144033 33.1071 0.27626C33.4076 0.909059 33.7174 1.53714 34.0203 2.16994C34.0781 2.29036 34.1659 2.34703 34.2931 2.36591C34.8156 2.43911 35.3381 2.51467 35.8606 2.59023C36.0317 2.61384 36.2005 2.64454 36.3716 2.66106C36.5381 2.67759 36.6675 2.73426 36.7207 2.91135V3.0058C36.6583 3.08844 36.6028 3.18053 36.5288 3.25372C36.0294 3.74957 35.5277 4.2407 35.0237 4.73183C34.9474 4.80739 34.9173 4.89239 34.9358 5.00101C35.063 5.72825 35.1879 6.4555 35.3127 7.18275C35.3451 7.37164 35.2734 7.50623 35.1185 7.54873C35.0329 7.57234 34.9567 7.54873 34.8827 7.50623C34.2399 7.1615 33.5949 6.81912 32.9545 6.47439C32.8458 6.41536 32.7487 6.41536 32.6423 6.47439C32.025 6.80732 31.4077 7.14025 30.7904 7.47081C30.7442 7.49442 30.6979 7.51804 30.6517 7.53693C30.4529 7.61248 30.2633 7.4779 30.2795 7.26067C30.291 7.11191 30.3234 6.96552 30.3488 6.81912C30.4529 6.2123 30.5592 5.60783 30.6656 5.00101C30.6841 4.89711 30.6563 4.80975 30.58 4.73655C30.0737 4.2407 29.5651 3.74721 29.0634 3.249C28.9871 3.18053 28.9362 3.08844 28.8738 3.00816C28.8738 2.97746 28.8738 2.94441 28.8738 2.91371C28.9246 2.73662 29.0587 2.68704 29.2229 2.66342C29.9281 2.56662 30.6332 2.46272 31.3407 2.36355C31.4424 2.34939 31.5141 2.29508 31.5603 2.20063C31.8701 1.56075 32.1799 0.918504 32.4921 0.280982C32.5267 0.212507 32.5614 0.13931 32.6146 0.0850029C32.6539 0.0425015 32.7209 0.0283343 32.7764 0.00236119C32.7926 0.00236119 32.8065 0.00236119 32.8227 0.00236119L32.8204 0Z" fill="black"/>
</g>
<g id="Calque 51">
<path id="Vector_5" d="M42.3628 0C42.5131 0.0306955 42.5848 0.144033 42.6495 0.27626C42.9501 0.909059 43.2599 1.53714 43.5628 2.16994C43.6206 2.29036 43.7084 2.34703 43.8356 2.36591C44.3581 2.43911 44.8806 2.51467 45.4031 2.59023C45.5742 2.61384 45.743 2.64454 45.9141 2.66106C46.0805 2.67759 46.21 2.73426 46.2632 2.91135V3.0058C46.2008 3.08844 46.1453 3.18053 46.0713 3.25372C45.5719 3.74957 45.0702 4.2407 44.5662 4.73183C44.4899 4.80739 44.4598 4.89239 44.4783 5.00101C44.6055 5.72825 44.7303 6.4555 44.8552 7.18275C44.8875 7.37164 44.8159 7.50623 44.661 7.54873C44.5754 7.57234 44.4991 7.54873 44.4251 7.50623C43.7824 7.1615 43.1374 6.81912 42.4969 6.47439C42.3883 6.41536 42.2912 6.41536 42.1848 6.47439C41.5675 6.80732 40.9502 7.14025 40.3329 7.47081C40.2867 7.49442 40.2404 7.51804 40.1942 7.53693C39.9954 7.61248 39.8058 7.4779 39.822 7.26067C39.8335 7.11191 39.8659 6.96552 39.8913 6.81912C39.9954 6.2123 40.1017 5.60783 40.2081 5.00101C40.2266 4.89711 40.1988 4.80975 40.1225 4.73655C39.6162 4.2407 39.1075 3.74721 38.6058 3.249C38.5295 3.18053 38.4787 3.08844 38.4163 3.00816C38.4163 2.97746 38.4163 2.94441 38.4163 2.91371C38.4671 2.73662 38.6012 2.68704 38.7654 2.66342C39.4705 2.56662 40.1757 2.46272 40.8832 2.36355C40.9849 2.34939 41.0566 2.29508 41.1028 2.20063C41.4126 1.56075 41.7224 0.918504 42.0345 0.280982C42.0692 0.212507 42.1039 0.13931 42.1571 0.0850029C42.1964 0.0425015 42.2634 0.0283343 42.3189 0.00236119C42.3351 0.00236119 42.349 0.00236119 42.3652 0.00236119L42.3628 0Z" fill="black"/>
</g>
</g>
</svg>
