<svg width="18" height="17" viewBox="0 0 18 17" fill="none" xmlns="http://www.w3.org/2000/svg">
<g id="Calque 52">
<path id="Vector" d="M9.05304 0C9.39776 0.0689452 9.56217 0.323512 9.71067 0.620507C10.4001 2.04184 11.1108 3.45256 11.8055 4.8739C11.9381 5.14437 12.1397 5.27166 12.4314 5.31408C13.6299 5.47849 14.8285 5.6482 16.0271 5.81791C16.4196 5.87095 16.8067 5.93989 17.1992 5.97702C17.581 6.01414 17.878 6.14143 18 6.53919V6.75133C17.8568 6.93695 17.7295 7.14378 17.5598 7.30819C16.4143 8.42192 15.2634 9.52505 14.1072 10.6282C13.9322 10.7979 13.8633 10.9888 13.9057 11.2328C14.1974 12.8662 14.4838 14.4997 14.7702 16.1332C14.8444 16.5575 14.68 16.8598 14.3247 16.9552C14.1285 17.0083 13.9534 16.9552 13.7837 16.8598C12.3094 16.0854 10.8297 15.3164 9.36064 14.5421C9.11137 14.4095 8.88863 14.4095 8.64467 14.5421C7.22864 15.2899 5.81261 16.0377 4.39658 16.7802C4.29051 16.8332 4.18444 16.8863 4.07837 16.9287C3.62227 17.0984 3.18739 16.7961 3.22451 16.3082C3.25103 15.9741 3.32528 15.6453 3.38362 15.3164C3.62227 13.9534 3.86624 12.5958 4.11019 11.2328C4.15262 10.9994 4.08898 10.8032 3.91397 10.6388C2.7525 9.52504 1.58574 8.41662 0.434885 7.29758C0.25987 7.14378 0.143194 6.93695 0 6.75663C0 6.68768 0 6.61344 0 6.54449C0.116676 6.14673 0.424278 6.03536 0.800825 5.98232C2.41839 5.76488 4.03595 5.53153 5.65881 5.30878C5.89216 5.27696 6.05657 5.15498 6.16264 4.94284C6.87331 3.5056 7.58397 2.06305 8.29994 0.631114C8.37949 0.477313 8.45905 0.312905 8.58103 0.190925C8.67119 0.0954626 8.82499 0.0636417 8.95227 0.00530348C8.98939 0.00530348 9.02121 0.00530348 9.05834 0.00530348L9.05304 0Z" fill="black"/>
</g>
</svg>
