<svg width="30" height="30" viewBox="0 0 30 30" fill="none" xmlns="http://www.w3.org/2000/svg">
<path d="M10.0713 13.0964C9.61984 12.1453 8.65 11.4844 7.52734 11.4844H3.77734C2.22391 11.4844 0.964844 12.7434 0.964844 14.2969V18.0469L2.83984 18.9844L3.30859 25.5469H8.46484" stroke="black" stroke-linecap="round" stroke-linejoin="round"/>
<path d="M5.65234 8.67188C7.20564 8.67188 8.46484 7.41268 8.46484 5.85938C8.46484 4.30607 7.20564 3.04688 5.65234 3.04688C4.09904 3.04688 2.83984 4.30607 2.83984 5.85938C2.83984 7.41268 4.09904 8.67188 5.65234 8.67188Z" stroke="black" stroke-linecap="round" stroke-linejoin="round"/>
<path d="M19.9844 13.0964C20.4358 12.1453 21.4056 11.4844 22.5283 11.4844H26.2783C27.8317 11.4844 29.0908 12.7434 29.0908 14.2969V18.0469L27.2158 18.9844L26.747 25.5469H21.5908" stroke="black" stroke-linecap="round" stroke-linejoin="round"/>
<path d="M24.4023 8.67188C25.9556 8.67188 27.2148 7.41268 27.2148 5.85938C27.2148 4.30607 25.9556 3.04688 24.4023 3.04688C22.849 3.04688 21.5898 4.30607 21.5898 5.85938C21.5898 7.41268 22.849 8.67188 24.4023 8.67188Z" stroke="black" stroke-linecap="round" stroke-linejoin="round"/>
<path d="M17.8398 29.2969H12.2148L11.7461 21.7969L9.40234 21.3281V15.2344C9.40234 13.1634 11.0814 11.4844 13.1523 11.4844H16.9023C18.9733 11.4844 20.6523 13.1634 20.6523 15.2344V21.3281L18.3086 21.7969L17.8398 29.2969Z" stroke="black" stroke-linecap="round" stroke-linejoin="round"/>
<path d="M15.0273 8.67188C17.0984 8.67188 18.7773 6.99294 18.7773 4.92188C18.7773 2.85081 17.0984 1.17188 15.0273 1.17188C12.9563 1.17188 11.2773 2.85081 11.2773 4.92188C11.2773 6.99294 12.9563 8.67188 15.0273 8.67188Z" stroke="black" stroke-linecap="round" stroke-linejoin="round"/>
</svg>
