<svg width="11" height="12" viewBox="0 0 11 12" fill="none" xmlns="http://www.w3.org/2000/svg">
<g id="Desktop / Tooltip">
<path id="Oval" opacity="0.190127" d="M10.398 6.09479C10.398 8.67706 8.24144 10.7941 5.55155 10.7941C2.86167 10.7941 0.705078 8.67706 0.705078 6.09479C0.705078 3.51251 2.86167 1.39551 5.55155 1.39551C8.24144 1.39551 10.398 3.51251 10.398 6.09479Z" stroke="white"/>
<path id="i" d="M5.44152 4.86954C5.28959 4.86954 5.15726 4.81711 5.04454 4.71226C4.93672 4.60264 4.88281 4.47396 4.88281 4.32622C4.88281 4.17847 4.93672 4.05217 5.04454 3.94732C5.15726 3.84247 5.28959 3.79004 5.44152 3.79004C5.59835 3.79004 5.73067 3.84247 5.83849 3.94732C5.94632 4.05217 6.00023 4.17847 6.00023 4.32622C6.00023 4.47396 5.94632 4.60264 5.83849 4.71226C5.73067 4.81711 5.59835 4.86954 5.44152 4.86954ZM5.91201 8.69426H4.97838V5.24129H5.91201V8.69426Z" fill="white"/>
</g>
</svg>
