<svg width="12" height="12" viewBox="0 0 12 12" fill="none" xmlns="http://www.w3.org/2000/svg">
<g id="Desktop / Tooltip">
<circle id="Oval" opacity="0.190127" cx="6.21777" cy="6.21045" r="5" stroke="black"/>
<path id="i" d="M6.10502 4.9144C5.94873 4.9144 5.81261 4.85894 5.69665 4.74802C5.58573 4.63207 5.53027 4.49594 5.53027 4.33965C5.53027 4.18336 5.58573 4.04975 5.69665 3.93884C5.81261 3.82792 5.94873 3.77246 6.10502 3.77246C6.26636 3.77246 6.40248 3.82792 6.5134 3.93884C6.62432 4.04975 6.67977 4.18336 6.67977 4.33965C6.67977 4.49594 6.62432 4.63207 6.5134 4.74802C6.40248 4.85894 6.26636 4.9144 6.10502 4.9144ZM6.58902 8.96034H5.62859V5.30765H6.58902V8.96034Z" fill="black"/>
</g>
</svg>
