<svg width="205" height="205" viewBox="0 0 205 205" fill="none" xmlns="http://www.w3.org/2000/svg">
<g clip-path="url(#clip0_243_3888)">
<path d="M189.752 140.175C170.537 185.396 119.352 210.73 74.9636 203.896C67.7404 202.784 47.9387 199.471 30.4074 183.843C-3.34213 153.762 -10.5596 94.195 16.6631 52.2162C36.4797 21.6635 71.9997 4.34403 105.751 5.20968C113.021 5.39595 140.882 6.54634 165.368 26.7261C168.968 29.6878 176.896 36.7343 184.045 47.9086C200.832 74.1479 202.275 110.702 189.752 140.175Z" fill="url(#paint0_linear_243_3888)"/>
<path d="M162.409 92.9556C179.768 92.9556 193.84 78.7923 193.84 61.3211C193.84 43.8498 179.768 29.6865 162.409 29.6865C145.051 29.6865 130.979 43.8498 130.979 61.3211C130.979 78.7923 145.051 92.9556 162.409 92.9556Z" fill="#FFBDE0"/>
<mask id="mask0_243_3888" style="mask-type:luminance" maskUnits="userSpaceOnUse" x="132" y="31" width="61" height="61">
<path d="M162.388 91.465C178.916 91.465 192.314 77.9797 192.314 61.3448C192.314 44.7099 178.916 31.2246 162.388 31.2246C145.86 31.2246 132.462 44.7099 132.462 61.3448C132.462 77.9797 145.86 91.465 162.388 91.465Z" fill="white"/>
</mask>
<g mask="url(#mask0_243_3888)">
<path d="M199.888 99.2573L127.423 101.638C127.212 101.644 127.007 101.567 126.853 101.422C126.7 101.277 126.609 101.076 126.601 100.864L123.994 20.3608C123.987 20.1488 124.064 19.9429 124.208 19.7881C124.352 19.6333 124.552 19.5424 124.762 19.5351L197.227 17.1537C197.438 17.1475 197.643 17.2254 197.796 17.3705C197.95 17.5156 198.041 17.7159 198.048 17.928L200.659 98.4316C200.665 98.6439 200.588 98.8501 200.443 99.0048C200.298 99.1596 200.099 99.2504 199.888 99.2573Z" fill="white"/>
<path d="M146.99 65.0481C146.99 65.0481 165.119 61.5512 179.632 64.9417L179.158 79.9362C179.158 79.9362 175.994 100.817 173.415 110.082C173.415 110.082 162.448 112.375 157.078 109.654C157.078 109.654 151.917 83.7313 149.394 79.949C149.398 79.9476 146.668 69.8909 146.99 65.0481Z" fill="#236FE0"/>
<path d="M159.222 51.4434L157.808 63.8608C157.808 63.8608 162.955 66.0396 166.428 63.4769L165.38 54.7818L159.222 51.4434Z" fill="#FDBAA0"/>
<path d="M166.777 43.1412C166.838 43.2433 168.135 49.4384 168.933 53.275C169.011 53.6487 169.009 54.0347 168.928 54.4078C168.848 54.7808 168.689 55.1324 168.464 55.4395C168.238 55.7466 167.951 56.0022 167.62 56.1895C167.29 56.3768 166.923 56.4916 166.546 56.5264L165.079 56.6619C163.779 56.7825 162.481 56.4103 161.439 55.6183C160.398 54.8263 159.687 53.6715 159.447 52.3801L158.158 45.4284C158.158 45.4284 165.308 40.6527 166.777 43.1412Z" fill="#FDBAA0"/>
<path d="M156.574 45.4929C155.988 44.8057 155.46 43.6817 156.62 42.4435C157.796 41.1896 159.184 41.4444 160.071 41.8255C160.464 41.9925 160.938 41.8968 161.206 41.5607C161.272 41.4754 161.359 41.409 161.459 41.368C161.558 41.3271 161.667 41.3131 161.773 41.3273C161.892 41.3401 162.013 41.3289 162.128 41.2942C162.243 41.2595 162.35 41.2022 162.443 41.1254C162.536 41.0487 162.612 40.9542 162.668 40.8473C162.724 40.7404 162.759 40.6234 162.769 40.5031C162.844 39.6232 163.275 38.5762 164.804 38.2265C167.609 37.5843 169.11 40.3818 169.125 42.3821C169.139 44.3825 166.059 44.9041 164.292 44.6301C162.995 44.4289 161.916 45.6057 161.436 46.2451C161.35 46.3593 161.291 46.4917 161.263 46.6324C161.236 46.773 161.241 46.9181 161.277 47.0565L161.787 48.9726C161.497 49.5828 161.213 50.2058 160.794 50.7325C160.493 51.1114 160.156 51.3262 159.796 51.424C159.238 50.4556 157.761 50.3364 157.076 50.3371C156.946 50.3374 156.819 50.3108 156.7 50.259C156.582 50.2072 156.475 50.1312 156.387 50.036C155.852 49.4572 155.001 48.1548 156.505 46.7982C156.683 46.6324 156.79 46.4034 156.802 46.1597C156.815 45.916 156.734 45.6769 156.574 45.4929Z" fill="#38516B"/>
<path d="M160.37 53.4746C160.37 53.4746 160.197 49.9905 158.784 49.7094C157.372 49.4282 155.892 50.4979 157.158 52.5454C158.735 55.0931 160.37 53.4746 160.37 53.4746Z" fill="#FDBAA0"/>
<path d="M146.99 65.0479C146.99 65.0479 119.698 96.8679 153.412 107.598L153.333 105.185C153.333 105.185 140.52 94.9761 149.641 80.1807C149.641 80.1807 147.996 66.4644 146.99 65.0479Z" fill="#236FE0"/>
<path d="M179.632 64.9414C179.632 64.9414 210.095 93.8976 177.15 106.818L177.072 104.405C177.072 104.405 189.197 93.3767 179.136 79.2129C179.135 79.2143 177.792 67.4178 179.632 64.9414Z" fill="#236FE0"/>
</g>
<path d="M93.0852 75.8013C110.444 75.8013 124.516 61.638 124.516 44.1668C124.516 26.6955 110.444 12.5322 93.0852 12.5322C75.7264 12.5322 61.6543 26.6955 61.6543 44.1668C61.6543 61.638 75.7264 75.8013 93.0852 75.8013Z" fill="#FFBDE0"/>
<mask id="mask1_243_3888" style="mask-type:luminance" maskUnits="userSpaceOnUse" x="63" y="14" width="60" height="61">
<path d="M93.065 74.3116C109.593 74.3116 122.991 60.8264 122.991 44.1915C122.991 27.5565 109.593 14.0713 93.065 14.0713C76.5371 14.0713 63.1387 27.5565 63.1387 44.1915C63.1387 60.8264 76.5371 74.3116 93.065 74.3116Z" fill="white"/>
</mask>
<g mask="url(#mask1_243_3888)">
<path d="M130.565 82.104L58.0995 84.4847C57.8893 84.4903 57.6855 84.4122 57.5322 84.2673C57.379 84.1225 57.2888 83.9226 57.2812 83.7111L54.6683 3.20751C54.6618 2.99553 54.7391 2.7896 54.8832 2.63483C55.0272 2.48007 55.2264 2.38909 55.437 2.38182L127.901 0.000382207C128.112 -0.00616319 128.317 0.0715812 128.47 0.216583C128.624 0.361584 128.715 0.562019 128.722 0.773975L131.333 81.2776C131.34 81.4896 131.262 81.6955 131.118 81.8503C130.974 82.0052 130.775 82.0964 130.565 82.104Z" fill="white"/>
<path d="M91.7722 30.6162C91.7722 30.6162 92.3536 31.6867 88.8813 33.5222C86.9449 34.5448 83.1628 36.0913 82.8026 40.2155C82.6169 42.3457 81.1172 44.1013 79.0298 44.4974C73.8296 45.4915 65.8697 48.5138 64.904 57.6962C64.1701 64.7107 67.7934 67.2263 71.5329 68.0113C74.2791 68.5822 76.1829 71.1863 75.7305 73.9724C75.2959 76.645 76.1928 79.6816 80.8463 81.946C91.2737 87.0129 100.847 68.3339 100.847 68.3339L101.807 36.2819L91.7722 30.6162Z" fill="#38516B"/>
<path d="M94.2253 76.5126C97.0006 62.4537 88.4395 54.8648 88.4395 54.8648C92.4945 50.6579 99.3851 48.1273 101.937 47.2952C102.245 47.1947 102.572 47.1704 102.891 47.2241C103.21 47.2779 103.511 47.4083 103.77 47.6042C106.045 49.3219 112.081 54.331 111.357 58.62C110.832 61.7094 105.621 77.2169 105.621 77.2169C105.621 77.2169 100.389 79.9438 94.2253 76.5126Z" fill="#1DD6C9"/>
<path d="M96.6597 37.9899L94.4276 50.0983C94.2106 51.1688 95.1636 50.9583 96.2194 50.7178C97.9487 50.3253 100.169 49.5645 100.87 48.1736C100.938 48.0299 100.979 47.8748 100.991 47.7162L101.836 39.343C101.869 39.0197 101.796 38.6946 101.629 38.4166C101.462 38.1385 101.21 37.9227 100.91 37.8015L98.672 36.8973C98.4695 36.8157 98.2516 36.78 98.0339 36.7925C97.8161 36.805 97.6038 36.8655 97.4118 36.9697C97.2199 37.0739 97.053 37.2193 96.923 37.3956C96.7931 37.5719 96.7032 37.7748 96.6597 37.9899Z" fill="#FDBAA0"/>
<path d="M101.362 26.8536C101.362 26.8536 104.26 28.6798 105.65 33.5455C107.039 38.4111 105.126 40.2431 103.097 40.2081C101.068 40.1731 98.1088 39.6479 95.4392 36.2174C92.7696 32.7869 97.5706 24.6313 101.362 26.8536Z" fill="#FDBAA0"/>
<path d="M97.9356 34.145C97.9356 34.145 96.6494 27.1477 102.491 28.0155L103.707 29.2023C103.707 29.2023 106.434 25.881 103.204 23.5602C99.9742 21.2394 95.6348 22.0195 93.3785 26.5368C91.1223 31.0542 90.3573 34.1986 92.4773 36.879C94.5974 39.5595 96.0354 37.1438 96.0354 37.1438C96.0354 37.1438 95.0236 34.7937 95.7567 33.744C96.4899 32.6942 97.5407 34.2749 97.5407 34.2749L97.9356 34.145Z" fill="#38516B"/>
<path d="M97.1636 34.7753C97.1636 34.7753 96.5255 31.1742 94.7238 32.2775C92.9221 33.3808 95.5037 35.6316 96.5354 36.3967L97.1636 34.7753Z" fill="#FDBAA0"/>
<path d="M88.4103 55.0713C88.4103 55.0713 83.0924 64.3587 82.204 71.2133C81.3155 78.0678 92.1364 80.5214 95.9447 76.405L95.2796 73.5861C95.2796 73.5861 89.1109 74.9421 88.4295 71.558C87.7481 68.1738 93.1447 61.1551 93.1447 61.1551C93.1447 61.1551 91.2713 56.1061 88.4103 55.0713Z" fill="#1DD6C9"/>
<path d="M72.6515 63.8925C72.4768 63.8852 72.3072 63.8313 72.1601 63.7362C69.7061 62.2489 68.3121 59.0504 68.7701 55.9574C69.0445 54.1019 69.8954 52.4834 71.1667 51.3901C72.0686 50.6172 73.1521 50.1269 74.1859 49.6909C75.9266 48.9558 77.7233 48.2993 79.5272 47.7383L79.971 47.6013C81.0247 47.2788 82.1145 46.9441 83.0909 46.4081C84.3402 45.7209 85.2336 44.756 85.6073 43.6913C85.8399 43.029 85.8909 42.3004 85.9342 41.5967C85.9916 40.7296 86.0512 39.8333 86.4546 39.0518C86.4584 39.0444 86.4637 39.0379 86.47 39.0325C86.4763 39.0271 86.4837 39.0231 86.4916 39.0205C86.4995 39.018 86.5078 39.0171 86.516 39.0178C86.5243 39.0185 86.5323 39.0209 86.5397 39.0247C86.5471 39.0286 86.5536 39.0338 86.5589 39.0402C86.5643 39.0466 86.5683 39.054 86.5708 39.0619C86.5733 39.0699 86.5742 39.0782 86.5735 39.0866C86.5728 39.0949 86.5705 39.103 86.5666 39.1104C86.1745 39.8683 86.1164 40.7517 86.0604 41.6081C86.0136 42.3218 85.9647 43.0575 85.7264 43.7369C85.3421 44.8302 84.4274 45.8201 83.1511 46.5201C82.1627 47.0632 81.0665 47.3994 80.0065 47.7248C79.859 47.7697 79.7108 47.8147 79.564 47.8611C77.7637 48.4206 75.9706 49.0743 74.2334 49.8093C73.2095 50.2375 72.1353 50.7271 71.2475 51.4878C69.9996 52.5583 69.1636 54.1519 68.8942 55.9745C68.4432 59.0182 69.816 62.1647 72.2268 63.6255C72.4005 63.7312 72.7288 63.8575 72.8578 63.6619C72.8625 63.655 72.8684 63.6491 72.8754 63.6445C72.8823 63.6398 72.8901 63.6366 72.8982 63.635C72.9064 63.6335 72.9148 63.6335 72.923 63.6352C72.9311 63.6369 72.9388 63.6401 72.9457 63.6448C72.9526 63.6495 72.9585 63.6555 72.9631 63.6625C72.9677 63.6695 72.9709 63.6773 72.9725 63.6855C72.974 63.6937 72.974 63.7022 72.9723 63.7104C72.9707 63.7186 72.9674 63.7264 72.9627 63.7333C72.9289 63.7846 72.8825 63.8262 72.8279 63.8541C72.7734 63.882 72.7126 63.8952 72.6515 63.8925Z" fill="#91B3FA"/>
<path d="M71.9413 61.0261C71.9312 61.0263 71.9212 61.0241 71.9121 61.0195C71.9031 61.0149 71.8953 61.008 71.8896 60.9997C70.9153 59.6437 70.3821 58.1979 70.3474 56.8255C70.307 55.2148 70.9962 53.6912 72.1477 52.8491C72.1611 52.8392 72.1779 52.8351 72.1944 52.8376C72.2109 52.8402 72.2257 52.8492 72.2356 52.8627C72.2455 52.8763 72.2496 52.8934 72.247 52.9101C72.2445 52.9267 72.2356 52.9418 72.2221 52.9519C71.1039 53.7697 70.4339 55.2527 70.4736 56.822C70.5076 58.1693 71.0323 59.5881 71.9917 60.9262C71.9966 60.9328 72.0001 60.9404 72.002 60.9485C72.004 60.9565 72.0043 60.9649 72.003 60.9731C72.0017 60.9812 71.9987 60.9891 71.9944 60.9961C71.99 61.0031 71.9842 61.0092 71.9775 61.0139C71.9672 61.0221 71.9544 61.0263 71.9413 61.0261Z" fill="#91B3FA"/>
</g>
<path d="M166.752 169.714C184.111 169.714 198.183 155.551 198.183 138.08C198.183 120.609 184.111 106.445 166.752 106.445C149.393 106.445 135.321 120.609 135.321 138.08C135.321 155.551 149.393 169.714 166.752 169.714Z" fill="#FFBDE0"/>
<mask id="mask2_243_3888" style="mask-type:luminance" maskUnits="userSpaceOnUse" x="136" y="107" width="61" height="62">
<path d="M166.731 168.225C183.259 168.225 196.657 154.739 196.657 138.105C196.657 121.47 183.259 107.984 166.731 107.984C150.203 107.984 136.805 121.47 136.805 138.105C136.805 154.739 150.203 168.225 166.731 168.225Z" fill="white"/>
</mask>
<g mask="url(#mask2_243_3888)">
<path d="M204.23 176.017L131.765 178.398C131.554 178.404 131.35 178.326 131.196 178.181C131.042 178.036 130.952 177.836 130.944 177.624L128.338 97.1206C128.332 96.9087 128.409 96.703 128.553 96.5483C128.697 96.3936 128.896 96.3025 129.107 96.2949L201.572 93.9134C201.783 93.9071 201.987 93.985 202.141 94.1301C202.295 94.2752 202.386 94.4757 202.393 94.6878L205.004 175.191C205.01 175.404 204.932 175.61 204.787 175.765C204.642 175.92 204.442 176.011 204.23 176.017Z" fill="white"/>
<path d="M161.469 122.275C161.41 122.387 157.711 125.13 157.711 125.13C157.711 125.13 158.528 131.015 161.847 133.336C165.496 135.891 170.65 131.232 170.65 131.232C170.65 131.232 174.751 132.213 176.932 123.621C177.428 121.65 174.544 121.48 171.057 121.846C166.561 122.315 161.469 122.275 161.469 122.275Z" fill="#38516B"/>
<path d="M154.551 142.352C155.997 141.349 157.602 140.598 159.296 140.131C159.934 139.956 163.376 140.963 165.503 140.916C168.424 140.844 171.397 139.511 173.804 140.114C176.196 140.714 178.153 141.497 179.283 142.307C182.666 144.728 184.652 149.243 185.862 153.716C183.571 156.084 180.686 157.136 180.686 157.136L180.154 178.875L167.382 185.452L152.801 178.084L153.323 156.839C153.323 156.839 148.693 154.669 148.354 153.88C148.014 153.091 150.466 145.179 154.551 142.352Z" fill="#1DD6C9"/>
<path d="M148.572 153.785C148.572 153.785 142.369 171.095 156.513 178.21C159.451 177.816 158.322 172.907 158.322 172.907C158.322 172.907 152.175 171.538 154.02 157.099C152.322 155.691 148.572 153.785 148.572 153.785Z" fill="#FDBAA0"/>
<path d="M185.564 153.785C185.564 153.785 189.832 171.855 177.622 178.21C174.686 177.816 175.815 172.907 175.815 172.907C175.815 172.907 180.769 170.452 180.115 157.099C181.814 155.691 185.564 153.785 185.564 153.785Z" fill="#FDBAA0"/>
<path d="M159.296 140.13C159.296 140.13 160.586 145.759 166.853 145.642C173.234 145.525 173.802 140.112 173.802 140.112L169.633 139.214L169.284 134.538L163.013 135.006L162.897 139.447L159.296 140.13Z" fill="#FDBAA0"/>
<path d="M163.896 121.292C163.896 121.292 156.71 135.303 165.234 138.705C171.248 141.102 175.019 129.4 173.893 126.23C172.155 121.33 171.01 121.911 171.01 121.911L163.896 121.292Z" fill="#FDBAA0"/>
<path d="M175.623 120.016C179.173 120.998 176.139 128.749 170.793 126.916C165.448 125.083 163.348 125.11 162.514 126.588C161.68 128.066 161.502 133.311 159.695 130.718C157.714 127.875 156.609 122.169 159.038 120.329C161.21 118.688 161.717 116.136 164.32 116.225C167.777 116.342 170.45 114.798 172.011 115.912C173.802 117.19 173.008 119.294 175.623 120.016Z" fill="#38516B"/>
<path d="M162.186 127.793C162.186 127.793 160.653 126.133 160.408 128.133C160.162 130.134 160.95 132.711 161.873 131.298C162.795 129.886 162.186 127.793 162.186 127.793Z" fill="#FDBAA0"/>
</g>
<path d="M162.7 75.4941C162.7 75.4941 148.984 78.5386 140.642 82.4165C138.99 83.1862 137.666 84.5256 136.911 86.1924C134.416 91.6925 126.951 105.487 112.475 112.069C114.559 114.852 117.917 120.647 119.379 130.384C128.073 123.871 135.58 112.993 139.183 95.1544C139.183 95.1544 141.927 96.653 145.352 94.9824C147.161 94.0982 149.252 92.8415 150.817 91.8581C152.382 90.8747 153.542 89.3474 153.994 87.5633C154.591 85.2083 154.239 83.1387 154.239 80.9143L161.289 78.7155C161.289 78.7155 163.407 77.9091 162.7 75.4941Z" fill="#FDBAA0"/>
<path d="M17.7767 186.393C19.468 182.154 21.5944 178.103 24.1213 174.308C19.8875 167.121 18.6339 157.303 26.147 144.519C31.6252 159.408 34.1955 181.129 34.7323 190.747C34.8329 192.55 34.2771 195.347 33.78 197.42C33.6945 197.775 33.6813 198.143 33.7411 198.503C33.801 198.863 33.9326 199.207 34.1281 199.514C34.3237 199.821 34.579 200.086 34.8788 200.291C35.1786 200.496 35.5166 200.638 35.8724 200.708C47.1506 202.906 58.0268 203.928 67.9698 202.214C68.6863 202.09 69.35 201.755 69.8773 201.251C70.4046 200.747 70.7717 200.097 70.9323 199.384C77.4321 170.503 77.3924 150.623 75.6886 137.9C82.4246 139.414 103.008 142.645 119.378 130.383C117.916 120.646 114.557 114.853 112.474 112.068C103.481 116.157 91.7834 117.464 76.8869 112.269C75.514 111.792 74.0825 111.508 72.6326 111.424C64.7025 110.956 38.5697 110.102 16.9464 117.292C14.7026 118.036 12.6399 119.248 10.8928 120.848C9.14572 122.448 7.75347 124.401 6.80691 126.58C0.956518 140.088 -8.51359 170.859 17.7767 186.393Z" fill="#FFBDE0"/>
<path d="M39.1929 93.6445C39.1929 93.6445 37.6954 109.578 36.3744 114.291C36.2772 114.638 36.2987 115.009 36.4353 115.342C36.572 115.676 36.8159 115.954 37.1281 116.132C39.3659 117.416 44.732 119.517 52.0729 115.896C52.6516 115.607 53.1344 115.155 53.4626 114.595C53.7907 114.035 53.9501 113.391 53.9214 112.742L53.2775 97.3412L39.1929 93.6445Z" fill="#FDBAA0"/>
<path d="M53.5999 73.2598C53.5999 73.2598 58.3888 84.332 58.7108 90.1439C59.0327 95.9559 60.2763 99.7261 53.5999 100.896C46.9235 102.067 41.2993 98.7191 38.2524 92.93C38.2524 92.93 33.4784 84.0094 34.5491 80.357C35.6197 76.7045 53.5999 73.2598 53.5999 73.2598Z" fill="#FDBAA0"/>
<path d="M40.5335 88.7687L40.9136 88.6003C41.0283 88.5498 41.1316 88.4761 41.217 88.3839C41.3024 88.2917 41.3681 88.1829 41.4101 88.0641C41.4521 87.9454 41.4695 87.8192 41.4611 87.6934C41.4528 87.5676 41.419 87.4449 41.3617 87.3328C40.4201 85.5023 38.585 81.3068 40.9561 80.3284C44.0114 79.0667 56.115 76.5824 58.7264 72.2599C61.2365 68.1058 59.01 62.7427 55.6704 61.2176C55.564 61.1668 55.4422 61.1589 55.3302 61.1957C55.2182 61.2325 55.1245 61.3111 55.0684 61.4153L54.7897 61.9448C54.7477 62.0255 54.6826 62.0916 54.6028 62.1346C54.5231 62.1777 54.4324 62.1958 54.3424 62.1865C54.2524 62.1772 54.1672 62.141 54.0978 62.0825C54.0284 62.0241 53.978 61.946 53.9531 61.8585C53.9295 61.7737 53.8819 61.6977 53.8162 61.6397C53.7504 61.5817 53.6693 61.5442 53.5828 61.5317C53.4962 61.5192 53.4079 61.5323 53.3286 61.5694C53.2494 61.6066 53.1825 61.6661 53.1362 61.7407C52.3336 63.0339 50.166 65.1306 44.3709 66.2067C36.1346 67.7368 30.6862 71.0916 30.5536 76.8201C30.5522 76.9018 30.5292 76.9817 30.4868 77.0515C30.4444 77.1212 30.3842 77.1783 30.3125 77.2167C30.2408 77.2552 30.1602 77.2736 30.079 77.2701C29.9979 77.2666 29.9191 77.2414 29.8509 77.1969C29.2433 76.8237 28.2697 76.6488 26.9693 77.7493C24.7075 79.664 25.6328 84.6295 30.5912 88.7144C30.6471 88.7582 30.6921 88.8146 30.7223 88.8791C30.7525 88.9436 30.7672 89.0143 30.7651 89.0856C30.763 89.1569 30.7443 89.2267 30.7103 89.2893C30.6764 89.3519 30.6283 89.4056 30.5699 89.4459C29.6708 90.0347 28.3307 91.4363 31.8037 93.3046C35.395 95.2365 38.0774 95.078 39.1069 94.9068C39.1676 94.8965 39.2256 94.8739 39.2774 94.8404C39.3291 94.8068 39.3735 94.7629 39.4078 94.7115C39.4421 94.66 39.4657 94.6021 39.477 94.5412C39.4882 94.4803 39.4871 94.4177 39.4735 94.3572L38.3709 89.3232C38.3563 89.2564 38.3567 89.1873 38.3722 89.1207C38.3876 89.0541 38.4177 88.9919 38.4603 88.9387C38.5028 88.8854 38.5566 88.8424 38.6179 88.8128C38.6791 88.7833 38.7462 88.768 38.8141 88.768L40.5335 88.7687Z" fill="#38516B"/>
<path d="M40.7407 89.8311C40.7407 89.8311 38.9134 82.7582 35.7631 84.7414C32.6128 86.7246 37.3982 92.6629 39.9309 92.9305L40.7407 89.8311Z" fill="#FDBAA0"/>
<path d="M40.5096 194.052L61.6777 194.315L54.2695 187.296C52.4259 185.552 49.6174 185.269 47.4916 186.654C46.0679 187.572 44.7976 188.711 43.728 190.029C43.728 190.029 30.5233 185.172 24.122 174.306C21.5951 178.101 19.4687 182.152 17.7773 186.391C23.5157 189.785 30.9544 192.451 40.5096 194.052Z" fill="#FDBAA0"/>
<path d="M42.7907 196.799C42.8319 196.799 42.8723 196.799 42.9141 196.799L96.6469 196.74C96.9594 196.74 97.2687 196.678 97.5573 196.557C97.8459 196.436 98.108 196.26 98.3288 196.037C98.5495 195.814 98.7245 195.55 98.8438 195.259C98.9631 194.969 99.0243 194.657 99.024 194.343C99.0237 194.028 98.9618 193.717 98.8419 193.426C98.722 193.136 98.5465 192.872 98.3253 192.65C98.1041 192.428 97.8416 192.252 97.5527 192.132C97.2639 192.011 96.9544 191.95 96.6419 191.95L42.9084 192.009C42.2777 191.993 41.6666 192.23 41.2096 192.668C40.7526 193.106 40.487 193.708 40.4714 194.343C40.4558 194.978 40.6914 195.593 41.1264 196.053C41.5613 196.513 42.16 196.78 42.7907 196.796V196.799Z" fill="#38516B"/>
<path d="M144.949 148.215H100.2C98.5885 148.211 97.0089 148.667 95.6439 149.528C94.2788 150.39 93.1841 151.624 92.4862 153.086L71.7988 196.77H127.41C128.446 196.773 129.459 196.463 130.318 195.881C131.177 195.299 131.844 194.472 132.231 193.505L148.273 153.082C149.2 150.746 147.471 148.215 144.949 148.215Z" fill="#38516B"/>
<path d="M120.122 172.791C121.103 169.795 120.401 166.869 118.553 166.256C116.706 165.643 114.413 167.576 113.432 170.572C112.451 173.569 113.153 176.495 115 177.108C116.848 177.72 119.14 175.788 120.122 172.791Z" fill="#1DD6C9"/>
</g>
<defs>
<linearGradient id="paint0_linear_243_3888" x1="214.681" y1="208.114" x2="65.6127" y2="78.5183" gradientUnits="userSpaceOnUse">
<stop stop-color="#FFE6F4"/>
<stop offset="1" stop-color="#FFE4F3"/>
</linearGradient>
<clipPath id="clip0_243_3888">
<rect width="205" height="205" fill="white"/>
</clipPath>
</defs>
</svg>
