<svg width="215" height="201" viewBox="0 0 215 201" fill="none" xmlns="http://www.w3.org/2000/svg">
<mask id="mask0_243_4288" style="mask-type:luminance" maskUnits="userSpaceOnUse" x="0" y="14" width="215" height="169">
<path d="M1.10277 95.1285C5.07837 137.208 -21.7362 169.747 68.6822 179.652C84.6875 181.404 106.807 182.66 125.472 182.297C140.596 182.008 157.229 180.66 171.928 176.857C196.202 170.564 214.286 157.783 214.846 132.888C215.423 107.414 190.131 90.7878 194.17 80.3254C206.7 47.9455 186.381 24.378 146.251 16.0085C95.4679 5.41894 74.9773 40.4953 54.2694 35.936C20.7105 28.5368 -2.94495 52.2882 1.10277 95.1285Z" fill="white"/>
</mask>
<g mask="url(#mask0_243_4288)">
<path d="M0.805898 95.1227C4.7815 137.203 -22.0331 169.741 68.3853 179.646C84.3906 181.398 106.51 182.654 125.176 182.291C140.299 182.002 156.932 180.654 171.631 176.851C195.905 170.559 213.989 157.777 214.55 132.882C215.127 107.408 189.834 90.782 193.873 80.3195C206.403 47.9396 186.084 24.3722 145.954 16.0026C95.1711 5.41308 74.6805 40.4894 53.9725 35.9302C20.4137 28.531 -3.24183 52.2823 0.805898 95.1227Z" fill="#FFE5F3"/>
<path d="M190.177 56.5233L110.094 27.2656L71.8748 132.096L151.958 161.353L190.177 56.5233Z" fill="#FFBDE0"/>
<path d="M138.622 60.7249C137.352 64.2248 134.889 67.1636 131.666 69.0232C131.483 69.1291 131.298 69.2311 131.111 69.3313C128.013 70.9626 124.464 71.5231 121.016 70.9256C117.567 70.328 114.413 68.6059 112.043 66.0273C110.138 63.9525 108.819 61.4074 108.221 58.6534C107.623 55.8995 107.768 53.0358 108.642 50.3566C109.515 47.6774 111.085 45.2791 113.19 43.408C115.295 41.5369 117.86 40.2604 120.621 39.7096C123.382 39.1587 126.24 39.3535 128.901 40.2737C131.562 41.194 133.93 42.8066 135.763 44.946C137.595 47.0854 138.826 49.6746 139.329 52.4475C139.831 55.2205 139.587 58.0774 138.622 60.7249Z" fill="white"/>
<path d="M133.645 51.4948C131.942 43.9262 126.047 43.1695 126.047 43.1695C124.212 42.9992 122.429 43.5286 120.97 44.371C119.51 45.2133 118.331 46.3531 117.211 47.5132C115.946 48.825 114.737 50.1766 113.584 51.568C113.36 51.8385 113.131 52.1292 113.111 52.4729C113.093 52.7858 113.254 53.0977 113.432 53.3865C115.021 55.9675 118.144 57.6493 121.256 58.7843C125.482 60.3229 129.944 61.1116 134.441 61.1149C134.547 57.9256 134.362 54.6881 133.645 51.4948Z" fill="#38516B"/>
<path d="M131.11 69.3322C128.013 70.9636 124.463 71.5241 121.015 70.9265C117.566 70.329 114.412 68.6069 112.043 66.0283C111.082 64.9821 110.266 63.8104 109.619 62.5453C110.965 61.9677 112.584 61.6154 114.356 61.521C115.732 61.4522 117.111 61.526 118.471 61.7415C119.218 61.8556 119.959 62.0085 120.69 62.1997C121.949 62.5259 123.177 62.9627 124.359 63.5051C125.593 64.0681 126.761 64.7668 127.841 65.5884C129.315 66.7234 130.441 68.0076 131.11 69.3322Z" fill="#FFCFBF"/>
<path d="M123.813 67.9606C125.34 68.1531 124.092 64.1214 124.092 64.1214L126.633 58.3193C127.375 56.6259 126.669 54.6563 125.055 53.9208C123.441 53.1853 122.607 53.1083 121.865 54.8017L118.349 61.9958C117.608 63.6892 121.659 67.6881 123.813 67.9606Z" fill="#FFCFBF"/>
<path d="M130.666 48.8494C130.666 48.8494 132.508 59.3427 127.877 60.7116C125.032 61.5501 122.491 59.2579 119.712 55.4313C117.319 52.1331 126.054 40.3643 130.666 48.8494Z" fill="#FDBAA0"/>
<path d="M122.371 59.2542C123.456 60.2612 124.647 60.9129 126.111 61.0592C126.422 61.09 126.465 60.5846 126.153 60.5528C124.772 60.4152 123.673 59.7827 122.653 58.8373C122.419 58.6217 122.141 59.0405 122.371 59.2542Z" fill="#FF9F89"/>
<path d="M131.461 50.0047C131.624 49.4049 131.452 48.7532 131.134 48.2189C130.815 47.6846 130.364 47.2475 129.913 46.8172C129.511 46.4322 129.099 46.0365 128.592 45.8016C128.085 45.5667 127.512 45.5061 126.951 45.4839C125.23 45.4175 123.463 45.7005 121.957 46.538C121.924 46.547 121.893 46.5634 121.867 46.5859C121.84 46.6084 121.819 46.6365 121.805 46.6681C121.791 46.6997 121.784 46.7341 121.785 46.7687C121.786 46.8034 121.795 46.8374 121.81 46.8682C122.139 48.0235 122.574 49.2442 122.248 50.4032C122.997 50.307 123.729 50.1067 124.473 49.9777C126.842 49.5728 129.277 49.909 131.448 50.9404L131.461 50.0047Z" fill="#38516B"/>
<path d="M124.104 48.7713L123.666 47.7778C122.109 47.7557 120.588 48.5374 119.585 49.7282C118.582 50.919 118.07 52.4834 118.023 54.042C118 54.8121 118.1 55.6189 118.559 56.2311C118.907 56.6932 119.425 56.9936 119.925 57.2814C119.971 57.324 120.026 57.3557 120.086 57.3742C120.146 57.3926 120.209 57.3974 120.271 57.3882C120.333 57.379 120.392 57.3559 120.444 57.3208C120.496 57.2856 120.539 57.2393 120.571 57.1851C122.672 54.9065 123.87 51.8615 124.104 48.7713Z" fill="#38516B"/>
<path d="M124.773 44.922C123.083 45.3436 121.823 46.5008 120.638 47.7137C119.065 49.3253 117.491 50.9339 115.885 52.5118C115.8 52.5955 115.916 52.7418 116.001 52.6571C117.47 51.2137 118.92 49.7524 120.353 48.2731C121.634 46.9503 122.956 45.5631 124.804 45.102C124.919 45.0731 124.891 44.8892 124.775 44.9181L124.773 44.922Z" fill="#4D6371"/>
<path d="M123.113 47.968C121.357 50.0956 119.698 52.5668 117.456 54.211C117.36 54.2823 117.475 54.4267 117.572 54.3564C119.83 52.7006 121.496 50.2169 123.262 48.0787C123.339 47.9825 123.189 47.8756 123.113 47.968Z" fill="#4D6371"/>
<path d="M131.11 69.3307C128.013 70.9621 124.463 71.5226 121.015 70.925C117.566 70.3275 114.412 68.6054 112.043 66.0268C111.082 64.9806 110.266 63.8089 109.619 62.5438C110.965 61.9662 112.584 61.6139 114.356 61.5195C115.581 62.7277 118.024 64.9322 120.682 66.177C121.963 66.7777 123.291 67.1551 124.558 67.0906C125.738 67.0309 126.866 66.59 127.842 65.5878C129.315 66.7219 130.441 68.0061 131.11 69.3307Z" fill="#384955"/>
<path d="M104.038 74.8814L126.204 82.7686C126.974 83.0411 127.438 81.8647 126.671 81.5913L104.504 73.705C103.735 73.4316 103.27 74.608 104.038 74.8814Z" fill="#D3F0F4"/>
<path d="M102.174 79.8772L118.098 85.5436L138.362 92.7531L145.938 95.4486C146.707 95.7211 147.171 94.5447 146.404 94.2713L130.481 88.6068L110.217 81.3963L102.641 78.7008C101.871 78.4284 101.407 79.6048 102.174 79.8772Z" fill="#D3F0F4"/>
<path d="M130.002 84.386L158.881 94.6617L165.427 96.9904C166.196 97.2629 166.661 96.0874 165.893 95.814L137.015 85.5383L130.469 83.2096C129.7 82.9372 129.235 84.1126 130.002 84.386Z" fill="white"/>
<path d="M150.19 97.0576L164.073 101.975C164.843 102.246 165.308 101.07 164.541 100.799L150.657 95.8812C149.887 95.6097 149.422 96.7861 150.19 97.0576Z" fill="white"/>
<path d="M99.9574 84.4216C106.963 86.7571 113.893 89.3037 120.747 92.0615C121.504 92.3657 121.969 91.1883 121.214 90.8851C114.363 88.1254 107.433 85.5784 100.425 83.2443C99.6555 82.9882 99.1852 84.1636 99.9574 84.4216Z" fill="#D3F0F4"/>
<path d="M124.701 93.4536L162.033 107.11C162.797 107.39 163.265 106.214 162.499 105.934L125.168 92.2772C124.404 91.997 123.936 93.1734 124.701 93.4536Z" fill="white"/>
<path d="M95.1545 94.1838L111.078 99.8492L131.342 107.059L138.918 109.754C139.687 110.027 140.153 108.85 139.385 108.577L123.462 102.912L103.198 95.701L95.6219 93.0055C94.8526 92.733 94.3871 93.9095 95.1545 94.1829V94.1838Z" fill="#D3F0F4"/>
<path d="M143.17 111.362L157.054 116.28C157.823 116.551 158.289 115.376 157.52 115.103L143.638 110.186C142.868 109.914 142.403 111.091 143.17 111.362Z" fill="white"/>
<path d="M92.9386 98.7266C99.9435 101.062 106.873 103.609 113.728 106.366C114.484 106.671 114.95 105.493 114.195 105.19C107.344 102.434 100.414 99.8876 93.405 97.5502C92.6357 97.2931 92.1654 98.4686 92.9386 98.7266Z" fill="#D3F0F4"/>
<path d="M117.683 107.758L155.014 121.416C155.779 121.695 156.246 120.519 155.482 120.238L118.15 106.582C117.381 106.302 116.918 107.478 117.683 107.758Z" fill="white"/>
<path d="M151.729 54.5183L177.367 63.5434C178.136 63.813 178.602 62.6366 177.833 62.3661L152.196 53.3419C151.427 53.0714 150.961 54.2478 151.729 54.5183Z" fill="white"/>
<path d="M150.358 58.2339L175.995 67.259C176.764 67.5286 177.231 66.3531 176.462 66.0826L150.825 57.0575C150.055 56.7879 149.59 57.9633 150.358 58.2339Z" fill="white"/>
<path d="M149.01 62.9446L174.039 71.8234C174.808 72.0949 175.273 70.9195 174.505 70.647L149.473 61.7682C148.703 61.4957 148.239 62.6721 149.006 62.9446H149.01Z" fill="white"/>
<path d="M147.309 68.0179L160.398 72.4837C161.168 72.7456 161.636 71.5692 160.865 71.3064L147.775 66.8405C147.006 66.5786 146.538 67.755 147.309 68.0179Z" fill="#D3F0F4"/>
<path d="M163.831 73.9759L173.039 77.3886C173.803 77.6716 174.27 76.4942 173.506 76.2112L164.298 72.7995C163.535 72.5164 163.068 73.6928 163.831 73.9759Z" fill="white"/>
<path d="M145.624 72.6415C154.049 75.7862 162.551 78.7128 171.131 81.4211C171.9 81.6647 172.374 80.4893 171.597 80.2438C163.022 77.5367 154.519 74.6105 146.091 71.4651C145.328 71.1763 144.861 72.3565 145.624 72.6415Z" fill="white"/>
<path d="M-3.80859 136.646L26.9143 155.39C46.3153 143.77 53.0538 139.762 53.0644 139.743C53.9078 138.77 57.8795 133.848 60.1251 132.427C57.9324 127.999 56.7967 125.711 55.8715 123.84C55.8715 123.816 56.737 88.6258 56.7217 88.6143C55.0676 90.5772 34.0019 118.176 23.9629 123.491C23.6003 123.684 23.7157 123.597 23.6657 123.679C23.1272 124.564 11.3206 129.589 -3.1258 135.528L-3.80859 136.646Z" fill="#FDBAA0"/>
<path d="M51.9833 96.3349C52.392 96.5544 61.7328 98.2921 60.7509 99.4993C56.9196 104.216 55.8665 111.477 57.461 114.058C60.5143 119.001 66.3989 116.99 67.0355 116.733L51.7198 131.092C47.5537 131.741 24.6157 132.657 24.6426 131.258C24.7513 125.52 50.9398 95.7756 51.9833 96.3349Z" fill="#FDBAA0"/>
<path d="M18.875 127.06C18.875 127.06 29.5901 120.576 34.486 112.374C41.2918 100.973 47.5466 87.0462 49.1036 85.4761C51.7732 82.7805 60.489 77.4492 62.8614 77.2028C65.2339 76.9563 72.9322 75.6625 74.4911 76.2718C76.0499 76.8812 71.3906 82.2857 65.5676 85.3904C59.7446 88.495 53.486 93.8745 53.486 93.8745L44.1576 122.931L18.875 127.06Z" fill="#FDBAA0"/>
<path d="M42.8477 104.171C42.8477 104.171 53.2338 84.3115 58.6356 81.8951C64.0374 79.4788 70.2864 77.7633 73.9264 79.8023C77.5663 81.8412 84.2722 87.9918 84.1039 89.1913C83.9356 90.3908 78.1126 90.5131 74.2139 88.9641C70.3153 87.4152 59.8214 92.0158 59.8214 92.0158L48.2966 104.768L42.8477 104.171Z" fill="#FDBAA0"/>
<path d="M43.8711 123.822C43.8711 123.822 54.0015 91.997 56.7201 88.619C59.4388 85.2409 71.6628 86.1564 75.473 86.863C79.2832 87.5697 86.7516 96.6372 86.7458 99.248C86.7391 102.45 80.1833 100.233 76.0384 97.2263C72.2311 94.4644 66.7159 95.9816 64.8262 95.9749C64.2751 95.9749 63.1913 96.7951 62.0373 98.0157C60.5303 99.6071 58.8993 101.875 58.1636 103.873C55.6729 110.633 63.2884 117.35 63.2884 117.35L43.8711 123.822Z" fill="#FDBAA0"/>
<path d="M143.062 177.645L55.25 158.649L80.0633 43.7012L154.79 59.8666L165.572 73.3711L143.062 177.645Z" fill="white"/>
<path d="M114.66 74.5167C113.961 77.7512 112.32 80.7056 109.943 83.0063C107.567 85.3071 104.563 86.8508 101.31 87.4424C98.0578 88.0339 94.703 87.6467 91.6703 86.3297C88.6375 85.0127 86.063 82.8251 84.2722 80.0434C82.4815 77.2617 81.5549 74.0109 81.6097 70.7021C81.6645 67.3933 82.6982 64.175 84.5801 61.4543C86.462 58.7336 89.1076 56.6326 92.1823 55.4169C95.257 54.2013 98.6227 53.9256 101.854 54.6248C104.005 55.0796 106.044 55.9565 107.854 57.2049C109.664 58.4532 111.209 60.0483 112.4 61.8979C113.591 63.7476 114.403 65.8151 114.791 67.981C115.179 70.1469 115.134 72.3682 114.66 74.5167Z" fill="#E9F4F6"/>
<path d="M96.6946 59.6671C95.5195 59.5853 94.2635 59.8857 93.448 60.8224C93.0693 61.259 92.8342 61.8019 92.7748 62.3771C92.7104 62.9778 92.7921 63.5776 92.8287 64.1764C92.8671 64.7934 92.8546 65.4278 92.5536 65.9872C92.2651 66.5128 91.7997 66.9498 91.6881 67.5602C91.5718 68.1936 91.8939 68.8223 91.7112 69.4499C91.615 69.7734 91.4323 70.0583 91.265 70.3452C91.0938 70.6323 90.9597 70.9399 90.8659 71.2607C90.663 71.9828 90.6735 72.7664 90.7495 73.5038C90.8091 74.0583 90.9563 74.6455 91.4371 74.9632C91.5333 75.0239 91.6083 74.867 91.5169 74.8073C91.0717 74.5185 90.9601 73.9254 90.913 73.42C90.8515 72.7587 90.8409 72.0723 90.9996 71.4215C91.0823 71.0906 91.2118 70.7733 91.3842 70.479C91.5461 70.2226 91.6888 69.9546 91.8112 69.6771C92.0353 69.0995 91.8632 68.5662 91.8333 67.978C91.8006 67.3272 92.1843 66.869 92.5229 66.3607C92.8258 65.9086 92.9945 65.3799 93.0095 64.8358C93.0576 63.694 92.6575 62.4791 93.2412 61.4135C93.9308 60.1552 95.3935 59.747 96.7033 59.8385C96.812 59.8462 96.7995 59.671 96.6946 59.6633V59.6671Z" fill="#384955"/>
<path d="M100.207 68.2038C100.497 66.6474 100.872 65.1077 101.328 63.5916L97.0301 59.6494C96.13 59.7582 95.1933 59.9729 94.5114 60.5919C93.4824 61.5238 93.3122 63.0949 93.4084 64.4936C93.5046 65.8924 93.7931 67.322 93.3978 68.6698C92.9814 70.1051 91.8447 71.2584 91.5244 72.7188C91.1734 74.3226 91.9207 76.0247 93.1276 77.0836C94.3345 78.1426 95.9289 78.6364 97.5119 78.8232C97.5907 78.8384 97.672 78.8351 97.7494 78.8136C97.8918 78.7625 97.9658 78.6047 98.0235 78.4612C99.3208 75.2102 99.5612 71.6473 100.207 68.2038Z" fill="#384955"/>
<path d="M108.592 84.1791C106.974 85.4397 105.139 86.3931 103.178 86.992C100.745 86.8852 97.7378 86.4857 94.5229 85.7916C92.2014 85.2979 89.913 84.6597 87.6709 83.8806C85.6913 82.242 84.1151 80.169 83.0645 77.8225C84.1944 76.8309 85.7264 76.0781 87.518 75.6083C88.8932 75.2605 90.3051 75.0786 91.7235 75.0663C92.6191 75.0545 93.5145 75.0989 94.4046 75.1992C95.1844 75.2886 95.9592 75.4172 96.7261 75.5842C97.2281 75.6927 97.7202 75.8159 98.2023 75.9539C98.3946 76.0085 98.5851 76.0659 98.7735 76.1262C98.9043 76.1667 99.0342 76.2081 99.164 76.2523C99.4111 76.3342 99.6544 76.4208 99.8958 76.5103L100.056 76.5719C101.606 77.1554 103.074 77.9375 104.422 78.8988C104.633 79.0518 104.839 79.2078 105.037 79.3666C106.833 80.8029 108.082 82.4703 108.592 84.1791Z" fill="#FDBAA0"/>
<path d="M108.594 84.1802C106.596 85.7397 104.27 86.8239 101.791 87.3507C99.3125 87.8775 96.7467 87.8332 94.2877 87.2211C91.8288 86.609 89.5411 85.4451 87.5977 83.8176C85.6544 82.19 84.1062 80.1413 83.0703 77.8265C84.2003 76.8349 85.7322 76.0821 87.5239 75.6123C87.5239 75.6123 93.6315 85.1015 104.265 78.9923C104.32 78.9615 104.374 78.9307 104.428 78.896C104.639 79.0491 104.845 79.205 105.043 79.3639C106.835 80.8041 108.084 82.4714 108.594 84.1802Z" fill="#1DD6C9"/>
<path d="M95.4671 77.7293C94.0967 77.248 94.2362 76.1592 94.5151 74.5727L95.622 68.2786C95.9326 66.5112 97.5232 65.2943 99.1744 65.5533C100.826 65.8122 100.928 66.1752 100.617 67.9417L99.4427 75.4689C99.1321 77.2403 96.9635 78.3733 95.4671 77.7293Z" fill="#FDBAA0"/>
<path d="M97.2002 60.4215C97.2002 60.4215 90.5761 67.1602 93.1611 70.5383C94.7508 72.611 97.7118 72.2365 101.617 70.8579C104.98 69.6709 104.763 56.5755 97.2002 60.4215Z" fill="#FDBAA0"/>
<path d="M105.491 68.681C105.699 67.7443 105.711 66.7777 105.722 65.8199C105.734 64.837 105.741 63.8271 105.405 62.9106C104.842 61.3771 103.425 60.3701 102.005 59.624L99.2578 60.3451C99.8348 60.5174 100.213 61.0546 100.151 61.5407C100.09 62.0269 99.9493 62.513 99.9935 63.0011C100.09 64.0196 100.931 64.7657 101.349 65.6909C101.63 66.3108 101.349 67.0386 101.217 67.7125C101.103 68.3094 101.2 68.8677 101.189 69.4742C101.189 69.7726 101.242 70.0749 101.174 70.3656C101.102 70.6718 100.9 70.9259 100.758 71.2051C100.526 71.6443 100.474 72.1566 100.612 72.6337C100.761 73.0987 101.148 73.4867 101.616 73.5772C102.424 73.7341 103.148 73.0429 103.658 72.3719C104.491 71.2677 105.191 70.0287 105.491 68.681Z" fill="#384955"/>
<path d="M109.409 77.8495C109.512 76.7838 109.237 75.7315 109.165 74.661C109.088 73.5174 109.246 72.3631 109.522 71.2474C109.828 70.018 110.074 68.7848 110.042 67.5199C109.99 65.4809 109.022 63.6306 107.167 60.912C104.823 57.4771 101.934 55.9657 98.8434 56.7426C95.7525 57.5195 96.4517 61.2412 96.5921 61.0795C99.0069 58.2993 102.257 62.3002 102.307 65.84L100.576 68.1966C100.66 69.0213 100.44 69.8481 99.9589 70.5225C99.6964 70.8864 99.354 71.2089 99.2194 71.6382C99.0348 72.2274 99.2858 72.8647 99.2079 73.4769C99.1059 74.2702 98.4731 74.8959 98.2673 75.6699C97.9904 76.7067 98.5703 77.835 99.4473 78.4049C100.324 78.9748 101.429 79.0701 102.466 78.9411C102.851 78.894 103.235 78.8179 103.62 78.8449C104.343 78.9026 104.977 79.3262 105.605 79.6949C106.233 80.0636 106.946 80.3967 107.66 80.2514C108.679 80.0463 109.307 78.9142 109.409 77.8495Z" fill="#384955"/>
<path d="M99.9752 67.9007C99.9752 67.9007 101.418 66.6425 101.995 67.2721C102.572 67.9017 101.887 69.5142 101.105 69.5825C100.323 69.6509 99.9108 68.3744 99.9454 68.1385L99.9752 67.9007Z" fill="#FCBFAF"/>
<path d="M100.484 69.3851C100.395 69.1993 100.414 69.3552 100.512 69.335C100.57 69.3372 100.627 69.3437 100.684 69.3542C100.886 69.3563 101.085 69.3059 101.261 69.2079C101.565 69.0394 101.761 68.7516 101.934 68.4378C102.031 68.2558 102.158 68.0739 102.127 67.8457C102.068 67.3952 101.646 67.3336 101.332 67.5059C101.088 67.6426 100.936 67.2229 101.179 67.0881C101.687 66.7993 102.309 67.0014 102.505 67.5945C102.697 68.1644 102.265 68.8517 101.897 69.2503C101.751 69.4142 101.573 69.5474 101.375 69.6421C101.177 69.7368 100.962 69.7911 100.743 69.8019C100.523 69.8086 100.205 69.7932 100.092 69.5574C99.9687 69.3003 100.364 69.1271 100.486 69.3822L100.484 69.3851Z" fill="#FDBAA0"/>
<path d="M99.0178 60.2376C99.6092 59.6599 100.576 59.6041 101.183 60.1644C101.47 60.4302 101.656 60.7869 101.71 61.1742C101.766 61.593 101.635 62.006 101.524 62.4055C101.419 62.7839 101.319 63.1805 101.398 63.5723C101.472 63.9391 101.703 64.2298 101.967 64.4743C102.246 64.7304 102.556 64.9489 102.811 65.232C103.083 65.5341 103.298 65.8831 103.445 66.262C103.602 66.6553 103.677 67.0764 103.665 67.4995C103.653 67.9226 103.555 68.3389 103.376 68.7226C103.196 69.1084 102.931 69.4479 102.6 69.7152C102.305 69.9501 101.956 70.1282 101.735 70.4449C101.213 71.1794 101.722 72.0603 101.958 72.7852C102.112 73.2569 102.124 73.719 101.894 74.1714C101.685 74.5835 101.356 74.9089 101.029 75.216C100.394 75.8032 99.5861 76.53 99.7294 77.5062C99.8506 78.3533 100.691 78.696 101.392 78.9319C101.496 78.9666 101.533 78.7942 101.429 78.7596C100.698 78.5122 99.7794 78.1059 99.8967 77.1461C100.011 76.2075 100.854 75.6569 101.457 75.0436C101.768 74.7479 102.009 74.386 102.162 73.9847C102.287 73.584 102.277 73.1537 102.135 72.7592C101.994 72.3173 101.767 71.9005 101.705 71.4336C101.665 71.2106 101.688 70.9808 101.772 70.7704C101.856 70.5601 101.997 70.3775 102.18 70.2437C102.5 69.9895 102.84 69.7874 103.108 69.4735C103.36 69.1719 103.553 68.8259 103.678 68.4531C103.931 67.6875 103.895 66.8554 103.576 66.1147C103.432 65.778 103.237 65.4651 102.999 65.1867C102.74 64.8806 102.422 64.6495 102.125 64.3838C101.806 64.095 101.548 63.7591 101.543 63.3027C101.535 62.8763 101.699 62.4652 101.801 62.057C101.908 61.6325 101.942 61.2031 101.794 60.7872C101.663 60.4174 101.419 60.0986 101.096 59.8765C100.423 59.4173 99.4803 59.5521 98.8966 60.1259C98.8168 60.2048 98.9428 60.3184 99.0216 60.2433L99.0178 60.2376Z" fill="#4D6371"/>
<path d="M99.4555 59.8613C100.753 58.7966 102.821 58.836 103.981 60.0683C104.294 60.4004 104.544 60.8326 104.589 61.3015C104.642 61.8444 104.346 62.2641 104.149 62.7455C103.78 63.6437 103.974 64.6555 104.391 65.4891C104.848 66.3998 105.558 67.1315 106.167 67.9315C106.744 68.6891 107.282 69.5738 107.301 70.5702C107.316 71.0345 107.205 71.4943 106.98 71.9006C106.742 72.3136 106.382 72.5687 105.96 72.7555C105.581 72.922 105.178 73.0568 104.858 73.3331C104.697 73.4753 104.567 73.6487 104.476 73.8428C104.384 74.0369 104.332 74.2477 104.325 74.4623C104.29 75.3229 104.986 75.8948 105.509 76.4541C105.842 76.7929 106.092 77.2041 106.24 77.6555C106.383 78.1234 106.478 78.8108 106.085 79.19C106.003 79.2783 105.896 79.3399 105.779 79.3668C105.661 79.3938 105.538 79.3848 105.426 79.3412C105.329 79.2959 105.245 79.4519 105.346 79.4971C105.704 79.6589 106.115 79.4875 106.333 79.1573C106.606 78.7337 106.557 78.1706 106.429 77.7085C106.305 77.2563 106.079 76.8387 105.768 76.4878C105.479 76.1489 105.13 75.8582 104.861 75.4991C104.573 75.114 104.411 74.6606 104.532 74.1745C104.667 73.6325 105.084 73.3225 105.56 73.1107C105.961 72.9326 106.383 72.7901 106.714 72.4898C107.038 72.1854 107.266 71.7929 107.37 71.3605C107.928 69.2244 106.014 67.6494 104.958 66.113C104.358 65.2388 103.889 64.1125 104.219 63.0256C104.374 62.5173 104.725 62.0899 104.756 61.5431C104.768 61.0988 104.635 60.6627 104.378 60.3003C103.417 58.8668 101.355 58.5674 99.8912 59.353C99.7012 59.4558 99.5218 59.577 99.3555 59.715C99.2699 59.7852 99.3555 59.9325 99.4517 59.8613H99.4555Z" fill="#4D6371"/>
<path d="M106.073 73.8789C105.698 73.8924 105.411 74.2303 105.382 74.6038C105.345 75.0736 105.637 75.4702 105.959 75.7677C106.333 76.1171 106.729 76.43 107.062 76.8266C107.419 77.2352 107.695 77.7088 107.873 78.2216C108.071 78.7971 108.091 79.4194 107.93 80.0064C107.898 80.1152 108.064 80.1508 108.096 80.043C108.434 78.8743 107.983 77.6767 107.254 76.7862C107.068 76.5616 106.867 76.3497 106.654 76.1518C106.422 75.9362 106.166 75.7456 105.947 75.5164C105.727 75.2873 105.562 75.0197 105.551 74.703C105.541 74.3862 105.757 74.0695 106.084 74.058C106.107 74.0568 106.129 74.0465 106.145 74.0292C106.16 74.012 106.169 73.9893 106.167 73.966C106.166 73.9428 106.156 73.921 106.139 73.9054C106.121 73.8897 106.099 73.8816 106.076 73.8828L106.073 73.8789Z" fill="#4D6371"/>
<path d="M102.434 71.4315C102.46 71.7232 102.538 72.008 102.663 72.2729C102.71 72.3739 102.855 72.2777 102.807 72.1766C102.696 71.9378 102.628 71.6814 102.605 71.419C102.603 71.3962 102.593 71.3751 102.576 71.3601C102.559 71.3451 102.536 71.3375 102.514 71.3391C102.491 71.3406 102.47 71.3511 102.455 71.3682C102.44 71.3854 102.432 71.4078 102.434 71.4305V71.4315Z" fill="#4D6371"/>
<path d="M106.416 66.5307C106.544 66.7386 106.674 66.9456 106.8 67.1535C106.859 67.2498 107.003 67.1535 106.944 67.0573L106.56 66.4334C106.501 66.3372 106.357 66.4334 106.417 66.5297L106.416 66.5307Z" fill="#4D6371"/>
<path d="M103.799 146.643C95.0124 144.743 89.4087 136.041 91.307 127.246C93.2054 118.451 101.899 112.841 110.686 114.741C119.473 116.641 125.076 125.344 123.177 134.143C121.279 142.942 112.585 148.545 103.799 146.643ZM110.156 117.195C102.721 115.586 95.3653 120.333 93.7584 127.777C92.1514 135.22 96.8934 142.582 104.328 144.19C111.763 145.799 119.119 141.052 120.726 133.61C122.333 126.167 117.591 118.804 110.156 117.2V117.195Z" fill="#38516B"/>
<path d="M96.6821 127.317L99.0402 132.997C99.4172 133.906 99.7945 134.814 100.172 135.722C100.411 136.3 100.637 136.885 100.971 137.41C101.35 137.986 101.87 138.456 102.48 138.776C103.091 139.096 103.773 139.256 104.462 139.239C106.311 139.185 107.583 137.883 108.863 136.72C109.566 136.082 110.261 135.434 110.954 134.784C114.681 131.286 118.343 127.721 122.05 124.203C123.631 122.702 125.208 121.19 126.859 119.762C127.488 119.217 127.8 118.038 127.756 117.249C127.71 116.424 127.291 115.449 126.647 114.908C125.958 114.331 125.06 113.919 124.136 114.011C123.191 114.107 122.512 114.502 121.799 115.12C115.4 120.667 109.616 126.897 103.299 132.536L102.908 132.883C102.696 133.075 102.459 133.122 103.252 132.594C102.954 132.795 103.053 132.765 103.551 132.503C105.317 132.278 106.429 132.791 106.888 134.044C106.901 133.983 106.708 133.609 106.695 133.589L106.317 132.68C106.098 132.151 105.878 131.621 105.658 131.091L103.205 125.188C102.856 124.349 102.36 123.647 101.534 123.211C100.779 122.816 99.6884 122.685 98.8767 122.991C97.2476 123.604 95.9445 125.55 96.6821 127.323V127.317Z" fill="#1DD6C9"/>
<path d="M81.2985 91.09L105.573 96.1268C106.364 96.2914 106.631 95.0678 105.839 94.8994L81.5629 89.8597C80.7724 89.6961 80.5051 90.9235 81.2985 91.0881V91.09Z" fill="#38516B"/>
<path d="M80.0716 96.5764L97.5108 100.195L119.703 104.801L127.999 106.522C128.79 106.687 129.057 105.463 128.263 105.294L110.825 101.676L88.6325 97.0703L80.3361 95.348C79.5465 95.1844 79.2782 96.407 80.0716 96.5755V96.5764Z" fill="#38516B"/>
<path d="M109.771 97.2729L124.154 100.257L141.449 103.846L148.566 105.323C149.355 105.487 149.623 104.264 148.83 104.095L134.447 101.111L117.152 97.5222L110.036 96.0455C109.245 95.8808 108.978 97.1044 109.77 97.2729H109.771Z" fill="#38516B"/>
<path d="M132.672 107.587L147.872 110.718C148.662 110.881 148.93 109.659 148.137 109.49L132.936 106.359C132.145 106.196 131.878 107.423 132.672 107.587Z" fill="#38516B"/>
<path d="M78.4123 101.638C86.0616 103.066 93.6624 104.725 101.215 106.616C101.999 106.809 102.263 105.584 101.48 105.389C93.931 103.498 86.3299 101.839 78.6768 100.411C77.8844 100.263 77.619 101.49 78.4123 101.638Z" fill="#38516B"/>
<path d="M105.545 107.499L137.466 114.419L146.482 116.374C147.271 116.545 147.54 115.315 146.747 115.145L114.825 108.225L105.812 106.271C105.024 106.1 104.755 107.33 105.548 107.499H105.545Z" fill="#38516B"/>
<path d="M126.501 70.6259L154.563 76.351C155.349 76.5117 155.62 75.292 154.827 75.1293L126.764 69.4052C125.978 69.2444 125.712 70.4641 126.501 70.6259Z" fill="#38516B"/>
<path d="M125.604 74.703L153.667 80.4252C154.452 80.5859 154.719 79.3662 153.93 79.2045L125.867 73.4794C125.082 73.3186 124.815 74.5384 125.604 74.7001V74.703Z" fill="#38516B"/>
<path d="M124.874 79.8147L152.282 85.4753C153.068 85.637 153.334 84.4163 152.545 84.2536L125.141 78.5959C124.354 78.4332 124.089 79.6549 124.878 79.8166L124.874 79.8147Z" fill="#38516B"/>
<path d="M123.83 85.3589L138.137 88.1334C138.924 88.2865 139.194 87.0658 138.4 86.9127L124.093 84.1382C123.305 83.9852 123.035 85.2059 123.83 85.3589Z" fill="#38516B"/>
<path d="M141.934 89.1867L152.038 91.4211C152.822 91.5944 153.087 90.3737 152.301 90.1994L142.198 87.965C141.414 87.7918 141.148 89.0124 141.934 89.1867Z" fill="#38516B"/>
<path d="M122.738 90.4263C131.987 92.4961 141.283 94.3252 150.627 95.9136C151.417 96.0484 151.685 94.8277 150.891 94.6929C141.548 93.1045 132.251 91.2754 123.002 89.2056C122.218 89.0304 121.954 90.2511 122.738 90.4263Z" fill="#38516B"/>
<path d="M154.791 59.8672L152.486 70.5405L165.573 73.3717L154.791 59.8672Z" fill="#AFD0D3"/>
<path d="M58.1578 103.87C58.5511 102.803 59.2003 101.656 59.9485 100.582C58.0799 99.4493 55.3516 97.804 53.1869 96.5391C50.4403 103.798 47.0321 114.087 45.1934 119.729L54.6861 120.219L63.2826 117.353C63.2826 117.353 55.667 110.63 58.1578 103.87Z" fill="#FDBAA0"/>
<path d="M49.6141 142.266C60.4215 140.313 72.8272 127.741 75.7199 123.619C81.1236 115.912 89.0941 112.188 89.0585 110.688C89.0229 109.188 85.6666 105.96 78.5358 109.156C71.7607 112.191 66.8032 117.783 62.5718 117.159C60.8956 116.913 50.5585 116.347 50.5585 116.347C50.5585 116.347 45.4866 143.012 49.6141 142.266Z" fill="#FDBAA0"/>
<path d="M25.14 162.397C25.14 162.397 39.1026 152.393 38.5179 151.187C37.9332 149.981 25.4391 129.026 23.9004 122.438C23.9004 122.438 23.9244 121.171 22.0732 121.682C20.2219 122.192 4.71094 127.875 4.71094 127.875L8.25859 148.562L25.14 162.397Z" fill="white"/>
<path d="M-22.4724 130.503L-31.2285 167.343L11.2163 177.451C23.0835 168.565 29.7268 163.186 29.7653 161.08C29.7749 160.616 29.6066 160.028 29.2969 159.34C28.9344 158.534 28.3795 157.586 27.689 156.534C24.1644 151.143 17.1538 142.977 14.6678 136.472C13.282 132.842 12.1674 129.919 10.9923 127.799C10.6523 127.171 10.2629 126.571 9.82766 126.005C8.42553 124.217 6.80317 123.471 4.48743 123.901C3.03529 124.171 -14.5847 127.524 -22.4724 130.503Z" fill="#38516B"/>
<path d="M34.8814 151.805C34.9681 151.595 34.9906 151.364 34.9461 151.141C34.9015 150.918 34.7919 150.713 34.6311 150.553C34.4703 150.392 34.2656 150.283 34.0428 150.239C33.82 150.195 33.5891 150.218 33.3794 150.305C33.1697 150.392 32.9905 150.54 32.8646 150.729C32.7386 150.918 32.6716 151.14 32.6719 151.368C32.6722 151.595 32.7398 151.817 32.8662 152.006C32.9927 152.195 33.1722 152.342 33.3822 152.429C33.5215 152.486 33.6709 152.516 33.8217 152.516C33.9725 152.516 34.1217 152.486 34.261 152.428C34.4002 152.37 34.5267 152.285 34.6332 152.178C34.7396 152.071 34.824 151.945 34.8814 151.805Z" fill="#1DD6C9"/>
</g>
</svg>
