<svg width="205" height="205" viewBox="0 0 205 205" fill="none" xmlns="http://www.w3.org/2000/svg">
<g clip-path="url(#clip0_243_4789)">
<path d="M181.886 86.8549C173.467 79.3993 163.318 34.4324 128.548 57.8524C110.585 69.9527 80.2952 47.4653 55.224 55.2317C32.2003 62.3649 29.9807 85.867 32.2089 93.5254C36.709 108.994 22.7045 111.3 9.71336 117.942C-10.6676 128.368 4.43725 165.396 23.6886 165.574C42.94 165.753 159.419 165.574 159.419 165.574C159.419 165.574 187.419 164.91 199.049 148.884C211.565 131.632 203.629 106.114 181.886 86.8549Z" fill="#FFE5F3"/>
<path d="M67.4131 161.42C67.4131 161.42 67.6565 165.503 68.417 165.562C68.5185 165.57 72.2763 165.57 72.2763 165.57L77.0732 165.541C77.0732 165.541 77.0422 164.341 75.64 164.087C74.2377 163.834 71.8909 162.81 71.0409 160.886C70.1479 158.861 67.4131 161.42 67.4131 161.42Z" fill="#236FE0"/>
<path d="M65.6842 113.768C65.6842 113.768 67.7738 114.325 69.1021 113.909C70.4303 113.492 72.7153 114.177 73.0852 114.679C73.4551 115.181 73.3183 115.382 72.6611 115.556C72.0038 115.73 69.6767 116.76 68.1463 116.163C66.6159 115.566 64.6191 115.545 64.6191 115.545L65.6842 113.768Z" fill="#FDBAA0"/>
<path d="M47.6221 94.921C47.6221 94.921 49.9698 112.249 53.8574 113.796C55.775 114.563 64.2522 116.297 66.7616 116.476C66.7616 116.476 67.3759 115.958 67.2262 113.853C67.2262 113.853 58.3446 110.466 57.0834 108.626C55.2055 105.886 58.2491 97.4318 55.8928 94.8585C53.5365 92.2852 49.5663 91.1749 47.6221 94.921Z" fill="#1DD6C9"/>
<path d="M47.9237 161.672V157.892H42.1959C42.1215 157.892 42.0503 157.861 41.9976 157.806C41.9449 157.752 41.9151 157.678 41.9146 157.601V156.999C41.9149 156.921 41.9446 156.847 41.9973 156.792C42.05 156.738 42.1214 156.707 42.1959 156.707H47.9237V135.204C47.9244 134.914 48.0359 134.635 48.2339 134.429C48.4318 134.224 48.7002 134.108 48.9801 134.107H50.1131C50.3931 134.108 50.6614 134.224 50.8594 134.429C51.0573 134.635 51.1689 134.914 51.1695 135.204V156.706H56.8973C56.9718 156.706 57.0433 156.737 57.096 156.791C57.1487 156.846 57.1784 156.92 57.1786 156.998V157.603C57.1782 157.681 57.1483 157.754 57.0957 157.809C57.043 157.864 56.9717 157.894 56.8973 157.894H51.1695V161.672C55.3135 161.997 58.6342 163.548 59.5659 165.547H39.5273C40.459 163.546 43.7797 162.001 47.9237 161.672Z" fill="#38516B"/>
<path d="M48.414 131.419C49.1022 132.608 49.8682 133.746 50.7066 134.826C53.2298 138.131 55.9767 140.861 56.455 143.438C56.5644 143.999 56.7127 144.55 56.899 145.088C57.0985 145.679 57.3454 146.299 57.631 146.941C58.7012 149.352 60.3031 152.061 61.9015 154.521C64.6656 158.773 67.2636 162.321 67.2636 162.321L72.0296 162.11C71.8386 161.614 69.7602 155.743 66.9797 148.569C65.8502 145.655 64.6501 142.559 63.4887 139.571C63.3347 139.171 63.1799 138.775 63.0276 138.381C62.6732 137.466 62.3247 136.566 61.9841 135.69L57.2947 123.593C57.2947 123.593 46.8586 119.484 45.7755 122.149C44.8834 124.337 45.6112 126.485 48.414 131.419Z" fill="#38516B"/>
<path d="M56.3762 149.756C56.3762 149.756 53.0616 151.967 53.3833 152.686C53.4263 152.781 55.2579 156.188 55.2579 156.188L57.6211 160.523C57.6211 160.523 58.6147 159.909 58.145 158.515C57.6753 157.12 57.3905 154.495 58.5949 152.785C59.8612 150.988 56.3762 149.756 56.3762 149.756Z" fill="#236FE0"/>
<path d="M60.8618 121.64C60.8618 121.64 73.9605 130.113 75.4229 135.804C76.8854 141.496 57.9979 153.642 57.9979 153.642C57.9979 153.642 55.9272 151.745 55.5616 150.354C55.5616 150.354 64.0982 139.734 65.9504 137.354C67.0877 135.892 49.1336 132.293 46.9381 128.75C44.7427 125.208 45.5299 122.23 45.5299 122.23L60.8618 121.64Z" fill="#38516B"/>
<path d="M62.9497 132.52H36.1407C35.6024 132.52 35.166 132.973 35.166 133.532V139.099C35.166 139.658 35.6024 140.111 36.1407 140.111H62.9497C63.488 140.111 63.9244 139.658 63.9244 139.099V133.532C63.9244 132.973 63.488 132.52 62.9497 132.52Z" fill="#236FE0"/>
<path d="M54.8049 91.9508C55.5753 92.4438 56.2518 93.0796 56.8008 93.8265C53.6625 94.6688 48.4561 91.6498 48.4561 91.6498C48.4561 91.6498 50.476 90.2412 51.2244 87.1444C51.2623 86.9884 51.2964 86.8282 51.3268 86.6639C51.4316 86.1045 51.4892 85.5366 51.4989 84.9668L52.9398 86.3066L55.3374 88.5396C55.3374 88.5396 55.2833 89.465 54.983 91.0558C54.9331 91.3354 54.8738 91.6337 54.8049 91.9508Z" fill="#FDBAA0"/>
<path d="M45.1524 107.321C45.6015 113.598 44.8453 123.14 45.3554 124.794C45.7959 126.223 50.9748 125.376 52.9758 124.9C53.7165 124.721 54.6104 124.472 55.5412 124.175C58.122 123.343 60.942 122.157 61.2448 121.275C61.2563 121.242 61.2655 121.209 61.2724 121.174C61.2978 121.052 61.2961 120.926 61.2672 120.805C61.1666 120.358 60.7777 119.87 60.7321 118.758C60.6814 117.517 60.6891 116.055 60.6461 114.483C60.6461 114.305 60.6409 114.113 60.6229 113.937V113.872V113.772C60.579 112.019 60.4912 110.175 60.3889 108.348C60.3235 107.199 60.2486 106.063 60.1618 104.973C59.9364 102.162 59.6327 99.6615 59.2301 98.0805C58.5737 95.5036 57.1241 93.8226 55.8053 92.5908L54.8512 91.7414C53.7871 91.9826 52.5285 91.8227 51.3903 91.2626C50.1584 90.6552 49.7326 90.2202 49.5183 90.3846C46.6674 92.6632 44.6216 99.6472 45.1524 107.321Z" fill="#1DD6C9"/>
<path d="M55.5264 124.188C58.1072 123.356 60.9281 122.17 61.2301 121.289C61.2422 121.256 61.2517 121.222 61.2584 121.188L61.2533 120.818C61.1518 120.371 60.7638 119.884 60.7182 118.772C60.6674 117.53 60.6752 116.069 60.6322 114.497C60.6322 114.318 60.6322 114.126 60.6089 113.95V113.886C60.6089 113.852 60.6089 113.819 60.6089 113.785L50.843 109.188C50.843 109.188 50.2769 117.358 55.5264 124.188Z" fill="#1DD6C9"/>
<path d="M55.3408 88.542C55.3408 88.542 55.2866 89.4673 54.9863 91.0581C52.6498 90.2766 51.5839 88.0784 51.2295 87.1503C51.1288 86.8877 51.085 86.7252 51.085 86.7252L51.3319 86.6698L52.9432 86.3125L55.3408 88.542Z" fill="#FDBAA0"/>
<path d="M56.2874 88.5164C56.2874 88.5164 51.1455 89.1193 50.8332 85.7885C50.5209 82.4577 49.6477 80.2917 52.9177 79.7665C56.1876 79.2413 56.9455 80.448 57.3103 81.5333C57.675 82.6185 57.6174 88.2743 56.2874 88.5164Z" fill="#FDBAA0"/>
<path d="M50.856 86.0179C50.856 86.0179 51.182 81.5965 55.8628 81.1383C59.0691 80.8248 57.2814 77.9594 56.9399 77.5029C56.9399 77.5029 54.4838 77.8522 51.9658 78.2845C46.6802 79.1911 50.3373 85.3292 50.856 86.0179Z" fill="#38516B"/>
<path d="M75.7453 118.112L76.1953 118.264L80.025 106.026L79.575 105.874L75.7453 118.112Z" fill="#38516B"/>
<path d="M63.1885 117.978L76.1904 118.266L76.207 117.458L63.2051 117.171L63.1885 117.978Z" fill="#38516B"/>
<path d="M64.6074 116.433C64.6074 116.433 66.6248 117.226 67.9892 116.969C69.3536 116.711 71.5542 117.648 71.8665 118.19C72.1788 118.733 72.0239 118.915 71.3503 119.012C70.6767 119.11 68.2533 119.868 66.7985 119.102C65.3438 118.335 63.3574 118.083 63.3574 118.083L64.6074 116.433Z" fill="#FDBAA0"/>
<path d="M48.6582 95.6346C48.6582 95.6346 49.152 113.123 52.8512 115.107C54.6767 116.089 62.9165 118.783 65.3915 119.243C65.3915 119.243 66.0565 118.796 66.1314 116.688C66.1314 116.688 57.6636 112.307 56.6055 110.333C55.0295 107.395 58.9523 99.3405 56.8842 96.5135C54.8161 93.6865 50.9878 92.1305 48.6582 95.6346Z" fill="#1DD6C9"/>
<path d="M95.7918 137.397H162.891C167.574 137.397 171.37 133.456 171.37 128.594V33.3386C171.37 28.4765 167.574 24.5351 162.891 24.5351L95.7918 24.5351C91.109 24.5351 87.3128 28.4765 87.3128 33.3386L87.3128 128.594C87.3128 133.456 91.109 137.397 95.7918 137.397Z" fill="#FFBDE0"/>
<path d="M95.5723 125.975L163.248 125.975V36.3652L95.5723 36.3652L95.5723 125.975Z" fill="white"/>
<path d="M153.651 122.041C152.704 122.041 151.796 121.651 151.126 120.955C150.456 120.26 150.08 119.317 150.08 118.334V67.076C150.08 66.0928 150.457 65.1499 151.126 64.4548C151.796 63.7596 152.704 63.3691 153.651 63.3691C154.598 63.3691 155.506 63.7596 156.176 64.4548C156.846 65.1499 157.222 66.0928 157.222 67.076V118.334C157.222 119.317 156.846 120.26 156.176 120.955C155.507 121.651 154.598 122.041 153.651 122.041Z" fill="#1DD6C9"/>
<path d="M141.952 122.04C141.483 122.04 141.019 121.944 140.586 121.758C140.152 121.572 139.759 121.299 139.427 120.954C139.096 120.61 138.833 120.201 138.653 119.751C138.474 119.301 138.382 118.819 138.382 118.333V50.7166C138.382 49.7335 138.758 48.7906 139.428 48.0955C140.097 47.4003 141.005 47.0098 141.952 47.0098C142.421 47.0096 142.885 47.1054 143.319 47.2917C143.752 47.4779 144.145 47.7509 144.477 48.0952C144.809 48.4394 145.072 48.848 145.251 49.2978C145.431 49.7476 145.523 50.2297 145.523 50.7166V118.333C145.523 118.819 145.431 119.302 145.251 119.752C145.072 120.201 144.809 120.61 144.477 120.955C144.146 121.299 143.752 121.572 143.319 121.758C142.885 121.945 142.421 122.04 141.952 122.04Z" fill="#1DD6C9"/>
<path d="M129.186 122.04C128.239 122.04 127.331 121.65 126.661 120.954C125.991 120.259 125.615 119.316 125.615 118.333V81.2644C125.615 80.2812 125.992 79.3384 126.661 78.6433C127.331 77.9481 128.239 77.5576 129.186 77.5576C130.133 77.5576 131.041 77.9482 131.711 78.6433C132.38 79.3385 132.756 80.2813 132.756 81.2644V118.333C132.757 118.819 132.664 119.302 132.485 119.751C132.306 120.201 132.043 120.61 131.711 120.954C131.38 121.299 130.986 121.572 130.553 121.758C130.119 121.944 129.655 122.04 129.186 122.04Z" fill="#1DD6C9"/>
<path d="M116.763 122.041C115.816 122.041 114.908 121.65 114.238 120.955C113.569 120.259 113.192 119.316 113.192 118.333V60.738C113.192 59.7546 113.569 58.8116 114.238 58.1162C114.908 57.4209 115.816 57.0303 116.763 57.0303C117.711 57.0303 118.619 57.4209 119.289 58.1162C119.958 58.8116 120.334 59.7546 120.334 60.738V118.333C120.334 119.316 119.958 120.259 119.289 120.955C118.619 121.65 117.711 122.041 116.763 122.041Z" fill="#1DD6C9"/>
<path d="M107.847 89.9704V118.332C107.847 118.819 107.755 119.302 107.576 119.751C107.396 120.201 107.133 120.61 106.802 120.954C106.47 121.299 106.076 121.572 105.643 121.758C105.21 121.944 104.745 122.04 104.276 122.04C103.807 122.04 103.343 121.944 102.91 121.758C102.477 121.572 102.083 121.298 101.751 120.954C101.42 120.61 101.157 120.201 100.978 119.751C100.798 119.301 100.706 118.819 100.706 118.332V89.9704C100.706 88.9872 101.082 88.0443 101.752 87.349C102.421 86.6537 103.329 86.2629 104.276 86.2627C105.223 86.2627 106.132 86.6533 106.801 87.3487C107.471 88.044 107.847 88.9871 107.847 89.9704Z" fill="#1DD6C9"/>
<path d="M113.532 52.4379H119.58C119.664 52.4347 119.748 52.4491 119.826 52.4803C119.905 52.5115 119.977 52.5589 120.037 52.6195C120.098 52.6802 120.146 52.7529 120.179 52.8334C120.212 52.9138 120.229 53.0003 120.229 53.0878C120.229 53.1752 120.212 53.2617 120.179 53.3422C120.146 53.4226 120.098 53.4953 120.037 53.556C119.977 53.6167 119.905 53.664 119.826 53.6952C119.748 53.7264 119.664 53.7408 119.58 53.7376H113.532C113.37 53.7313 113.216 53.6601 113.104 53.539C112.992 53.4178 112.929 53.256 112.929 53.0878C112.929 52.9195 112.992 52.7577 113.104 52.6366C113.216 52.5154 113.37 52.4442 113.532 52.4379Z" fill="#236FE0"/>
<path d="M118.203 54.8027H119.579C119.745 54.8027 119.904 54.8711 120.021 54.9929C120.139 55.1147 120.204 55.2799 120.204 55.4521C120.204 55.6243 120.139 55.7895 120.021 55.9113C119.904 56.033 119.745 56.1015 119.579 56.1015H118.203C118.037 56.1015 117.878 56.033 117.76 55.9113C117.643 55.7895 117.577 55.6243 117.577 55.4521C117.577 55.2799 117.643 55.1147 117.76 54.9929C117.878 54.8711 118.037 54.8027 118.203 54.8027Z" fill="#236FE0"/>
<path d="M138.453 42.4678H144.5C144.662 42.474 144.816 42.5452 144.928 42.6664C145.041 42.7876 145.104 42.9493 145.104 43.1176C145.104 43.2859 145.041 43.4476 144.928 43.5688C144.816 43.69 144.662 43.7612 144.5 43.7674H138.453C138.291 43.7612 138.137 43.69 138.025 43.5688C137.912 43.4476 137.85 43.2859 137.85 43.1176C137.85 42.9493 137.912 42.7876 138.025 42.6664C138.137 42.5452 138.291 42.474 138.453 42.4678Z" fill="#236FE0"/>
<path d="M143.123 44.833H144.5C144.666 44.8335 144.824 44.902 144.942 45.0237C145.059 45.1454 145.125 45.3103 145.125 45.4824C145.125 45.6544 145.059 45.8193 144.942 45.941C144.824 46.0627 144.666 46.1313 144.5 46.1317H143.123C142.958 46.1313 142.799 46.0627 142.682 45.941C142.565 45.8193 142.499 45.6544 142.498 45.4824C142.499 45.3103 142.565 45.1454 142.682 45.0237C142.799 44.902 142.958 44.8335 143.123 44.833Z" fill="#236FE0"/>
<path d="M150.549 58.8125H156.597C156.763 58.8125 156.922 58.8809 157.039 59.0027C157.157 59.1245 157.222 59.2896 157.222 59.4619C157.222 59.6341 157.157 59.7993 157.039 59.921C156.922 60.0428 156.763 60.1112 156.597 60.1112H150.549C150.383 60.1112 150.224 60.0428 150.107 59.921C149.99 59.7993 149.924 59.6341 149.924 59.4619C149.924 59.2896 149.99 59.1245 150.107 59.0027C150.224 58.8809 150.383 58.8125 150.549 58.8125Z" fill="#236FE0"/>
<path d="M155.219 61.1748H156.596C156.761 61.1753 156.92 61.2438 157.038 61.3655C157.155 61.4871 157.221 61.652 157.222 61.8242C157.221 61.9964 157.155 62.1614 157.038 62.2832C156.92 62.405 156.762 62.4737 156.596 62.4744H155.219C155.053 62.4737 154.895 62.405 154.777 62.2831C154.66 62.1613 154.594 61.9963 154.594 61.8242C154.594 61.6521 154.66 61.4872 154.777 61.3655C154.895 61.2438 155.053 61.1753 155.219 61.1748Z" fill="#236FE0"/>
<path d="M126.163 73.0068H132.21C132.372 73.0131 132.526 73.0843 132.638 73.2054C132.751 73.3266 132.814 73.4884 132.814 73.6566C132.814 73.8249 132.751 73.9867 132.638 74.1078C132.526 74.229 132.372 74.3002 132.21 74.3065H126.163C126.001 74.3002 125.847 74.229 125.735 74.1078C125.622 73.9867 125.56 73.8249 125.56 73.6566C125.56 73.4884 125.622 73.3266 125.735 73.2054C125.847 73.0843 126.001 73.0131 126.163 73.0068Z" fill="#236FE0"/>
<path d="M130.832 75.3711H132.209C132.375 75.3716 132.533 75.4401 132.651 75.5618C132.768 75.6835 132.834 75.8484 132.834 76.0205C132.834 76.1925 132.768 76.3574 132.651 76.4791C132.533 76.6008 132.375 76.6693 132.209 76.6698H130.832C130.667 76.6693 130.508 76.6008 130.391 76.4791C130.274 76.3574 130.207 76.1925 130.207 76.0205C130.207 75.8484 130.274 75.6835 130.391 75.5618C130.508 75.4401 130.667 75.3716 130.832 75.3711Z" fill="#236FE0"/>
<path d="M101.255 81.687H107.303C107.387 81.6837 107.471 81.6981 107.55 81.7293C107.629 81.7605 107.7 81.8079 107.761 81.8685C107.822 81.9292 107.87 82.0019 107.903 82.0824C107.936 82.1628 107.953 82.2494 107.953 82.3368C107.953 82.4242 107.936 82.5107 107.903 82.5912C107.87 82.6716 107.822 82.7444 107.761 82.805C107.7 82.8657 107.629 82.913 107.55 82.9442C107.471 82.9754 107.387 82.9898 107.303 82.9866H101.255C101.093 82.9804 100.94 82.9092 100.828 82.788C100.715 82.6668 100.652 82.5051 100.652 82.3368C100.652 82.1685 100.715 82.0068 100.828 81.8856C100.94 81.7644 101.093 81.6932 101.255 81.687Z" fill="#236FE0"/>
<path d="M105.923 84.0508H107.3C107.466 84.0508 107.625 84.1192 107.742 84.241C107.859 84.3628 107.925 84.5279 107.925 84.7001C107.925 84.8724 107.859 85.0375 107.742 85.1593C107.625 85.2811 107.466 85.3495 107.3 85.3495H105.923C105.757 85.3495 105.598 85.2811 105.481 85.1593C105.364 85.0375 105.298 84.8724 105.298 84.7001C105.298 84.5279 105.364 84.3628 105.481 84.241C105.598 84.1192 105.757 84.0508 105.923 84.0508Z" fill="#236FE0"/>
<path d="M104.276 79.8389C103.837 79.838 103.408 79.702 103.043 79.4479C102.678 79.1939 102.394 78.8332 102.227 78.4116C102.059 77.9899 102.016 77.5262 102.102 77.0789C102.188 76.6317 102.4 76.221 102.711 75.8988C103.022 75.5766 103.418 75.3573 103.849 75.2686C104.28 75.18 104.726 75.2259 105.132 75.4007C105.538 75.5754 105.885 75.8711 106.129 76.2504C106.373 76.6298 106.503 77.0756 106.503 77.5318C106.502 78.1442 106.267 78.7313 105.85 79.164C105.432 79.5966 104.866 79.8394 104.276 79.8389ZM104.276 76.1178C104.007 76.1187 103.744 76.2024 103.521 76.3583C103.298 76.5142 103.124 76.7353 103.021 76.9938C102.919 77.2522 102.893 77.5364 102.946 77.8103C102.999 78.0843 103.129 78.3359 103.319 78.5331C103.51 78.7304 103.753 78.8647 104.017 78.9189C104.281 78.9731 104.554 78.9448 104.803 78.8377C105.051 78.7305 105.264 78.5493 105.413 78.3168C105.563 78.0844 105.643 77.8112 105.643 77.5318C105.642 77.3458 105.607 77.1616 105.538 76.9899C105.469 76.8182 105.369 76.6622 105.242 76.5309C105.115 76.3996 104.964 76.2955 104.799 76.2246C104.633 76.1538 104.456 76.1175 104.276 76.1178Z" fill="#38516B"/>
<path d="M103.33 76.1177C103.216 76.1174 103.107 76.0702 103.027 75.9864L96.3516 69.0524H42.0893C41.9752 69.0524 41.8658 69.0053 41.7852 68.9216C41.7045 68.8378 41.6592 68.7242 41.6592 68.6058C41.6592 68.4873 41.7045 68.3737 41.7852 68.29C41.8658 68.2062 41.9752 68.1592 42.0893 68.1592H96.7043L103.635 75.3593C103.695 75.4218 103.736 75.5014 103.753 75.5882C103.769 75.6749 103.761 75.7648 103.728 75.8466C103.696 75.9283 103.64 75.9981 103.57 76.0471C103.499 76.0962 103.415 76.1223 103.33 76.1221V76.1177Z" fill="#38516B"/>
<path d="M117.056 128.495C116.616 128.495 116.186 128.36 115.821 128.106C115.455 127.852 115.17 127.492 115.002 127.07C114.834 126.648 114.79 126.184 114.876 125.736C114.962 125.289 115.173 124.877 115.484 124.555C115.795 124.232 116.192 124.012 116.623 123.923C117.054 123.834 117.501 123.88 117.907 124.055C118.313 124.23 118.661 124.526 118.905 124.905C119.149 125.285 119.279 125.731 119.279 126.188C119.278 126.8 119.044 127.386 118.627 127.819C118.21 128.251 117.645 128.495 117.056 128.495ZM117.056 124.773C116.786 124.773 116.523 124.856 116.299 125.011C116.075 125.167 115.9 125.388 115.797 125.646C115.694 125.905 115.667 126.189 115.719 126.464C115.772 126.738 115.902 126.99 116.092 127.188C116.283 127.386 116.526 127.521 116.79 127.576C117.054 127.63 117.328 127.602 117.577 127.495C117.826 127.388 118.039 127.207 118.189 126.974C118.339 126.741 118.419 126.468 118.419 126.188C118.418 125.813 118.275 125.453 118.019 125.188C117.764 124.922 117.417 124.773 117.056 124.773Z" fill="#38516B"/>
<path d="M178.384 135.561H124.63L117.7 128.366C117.66 128.324 117.628 128.275 117.606 128.221C117.584 128.166 117.573 128.108 117.573 128.05C117.573 127.991 117.584 127.933 117.606 127.879C117.627 127.824 117.659 127.775 117.699 127.734C117.739 127.692 117.786 127.659 117.839 127.637C117.891 127.614 117.947 127.603 118.003 127.603C118.06 127.602 118.116 127.614 118.168 127.636C118.22 127.659 118.268 127.692 118.308 127.733L124.986 134.668H178.384C178.498 134.668 178.607 134.715 178.688 134.799C178.769 134.883 178.814 134.996 178.814 135.115C178.814 135.233 178.769 135.347 178.688 135.43C178.607 135.514 178.498 135.561 178.384 135.561Z" fill="#38516B"/>
<path d="M141.641 40.6817C141.202 40.6817 140.772 40.5464 140.407 40.2929C140.041 40.0394 139.756 39.679 139.588 39.2575C139.42 38.8359 139.376 38.372 139.462 37.9244C139.547 37.4769 139.759 37.0658 140.07 36.7431C140.381 36.4205 140.776 36.2007 141.208 36.1117C141.639 36.0227 142.085 36.0684 142.491 36.243C142.897 36.4176 143.245 36.7133 143.489 37.0928C143.733 37.4722 143.863 37.9182 143.863 38.3745C143.862 38.9862 143.628 39.5726 143.212 40.0052C142.795 40.4377 142.23 40.681 141.641 40.6817ZM141.641 36.9606C141.372 36.9606 141.108 37.0435 140.884 37.1989C140.661 37.3543 140.486 37.5751 140.383 37.8334C140.28 38.0918 140.253 38.3761 140.305 38.6504C140.358 38.9247 140.488 39.1766 140.678 39.3744C140.869 39.5721 141.111 39.7068 141.375 39.7613C141.64 39.8159 141.913 39.7879 142.162 39.6809C142.411 39.5738 142.624 39.3926 142.773 39.1601C142.923 38.9276 143.003 38.6542 143.003 38.3745C143.002 37.9997 142.859 37.6403 142.604 37.3753C142.348 37.1102 142.002 36.9611 141.641 36.9606Z" fill="#38516B"/>
<path d="M140.693 36.9604C140.579 36.9602 140.47 36.913 140.39 36.8291L133.711 29.8952H79.4526C79.3385 29.8952 79.2291 29.8481 79.1484 29.7644C79.0678 29.6806 79.0225 29.567 79.0225 29.4486C79.0225 29.3301 79.0678 29.2165 79.1484 29.1328C79.2291 29.049 79.3385 29.002 79.4526 29.002H134.067L141 36.1976C141.06 36.2601 141.101 36.3398 141.118 36.4265C141.134 36.5132 141.126 36.6032 141.093 36.6849C141.061 36.7666 141.005 36.8364 140.935 36.8854C140.864 36.9345 140.78 36.9606 140.695 36.9604H140.693Z" fill="#38516B"/>
<path d="M78.3511 67.1258H42.7062C42.4171 67.1258 42.1399 67.0065 41.9355 66.7943C41.731 66.5821 41.6162 66.2942 41.6162 65.9941C41.6162 65.8455 41.6444 65.6984 41.6992 65.5611C41.754 65.4239 41.8343 65.2992 41.9355 65.1942C42.0367 65.0892 42.1569 65.0059 42.2891 64.9491C42.4214 64.8923 42.5631 64.8632 42.7062 64.8633H78.3511C78.4942 64.8632 78.6359 64.8923 78.7682 64.9491C78.9004 65.0059 79.0206 65.0892 79.1218 65.1942C79.223 65.2992 79.3033 65.4239 79.3581 65.5611C79.4129 65.6984 79.4411 65.8455 79.4411 65.9941C79.4411 66.2942 79.3262 66.5821 79.1218 66.7943C78.9174 67.0065 78.6402 67.1258 78.3511 67.1258Z" fill="#236FE0"/>
<path d="M78.3503 63.5525H56.4699C56.1808 63.5525 55.9035 63.4333 55.6991 63.2211C55.4947 63.0088 55.3799 62.721 55.3799 62.4208C55.3799 62.2723 55.4081 62.1252 55.4629 61.9879C55.5177 61.8506 55.598 61.7259 55.6992 61.6209C55.8004 61.5159 55.9206 61.4326 56.0528 61.3759C56.185 61.3191 56.3268 61.2899 56.4699 61.29H78.3503C78.4934 61.2899 78.6351 61.3191 78.7673 61.3759C78.8996 61.4326 79.0197 61.5159 79.1209 61.6209C79.2222 61.7259 79.3025 61.8506 79.3573 61.9879C79.412 62.1252 79.4402 62.2723 79.4402 62.4208C79.4402 62.721 79.3254 63.0088 79.121 63.2211C78.9166 63.4333 78.6393 63.5525 78.3503 63.5525Z" fill="#236FE0"/>
<path d="M78.3503 59.9803H56.4699C56.1808 59.9803 55.9035 59.861 55.6991 59.6488C55.4947 59.4366 55.3799 59.1487 55.3799 58.8486C55.3799 58.7 55.4081 58.5529 55.4629 58.4156C55.5177 58.2784 55.598 58.1537 55.6992 58.0487C55.8004 57.9436 55.9206 57.8604 56.0528 57.8036C56.185 57.7468 56.3268 57.7177 56.4699 57.7178H78.3503C78.4934 57.7177 78.6351 57.7468 78.7673 57.8036C78.8996 57.8604 79.0197 57.9436 79.1209 58.0487C79.2222 58.1537 79.3025 58.2784 79.3573 58.4156C79.412 58.5529 79.4402 58.7 79.4402 58.8486C79.4402 59.1487 79.3254 59.4366 79.121 59.6488C78.9166 59.861 78.6393 59.9803 78.3503 59.9803Z" fill="#236FE0"/>
<path d="M115.466 27.7371H79.8206C79.5317 27.7371 79.2547 27.618 79.0504 27.4059C78.8462 27.1938 78.7314 26.9062 78.7314 26.6063C78.7313 26.4577 78.7594 26.3106 78.8141 26.1733C78.8688 26.036 78.949 25.9112 79.0501 25.8061C79.1513 25.701 79.2714 25.6177 79.4036 25.5608C79.5358 25.5039 79.6775 25.4746 79.8206 25.4746H115.466C115.609 25.4746 115.751 25.5039 115.883 25.5608C116.016 25.6177 116.136 25.701 116.237 25.8061C116.338 25.9112 116.418 26.036 116.473 26.1733C116.527 26.3106 116.556 26.4577 116.555 26.6063C116.555 26.7548 116.527 26.9018 116.473 27.039C116.418 27.1762 116.338 27.3009 116.236 27.4059C116.135 27.5109 116.015 27.5942 115.883 27.651C115.751 27.7079 115.609 27.7371 115.466 27.7371Z" fill="#236FE0"/>
<path d="M147.336 152.433C150.366 149.288 150.366 144.189 147.336 141.043C144.307 137.898 139.395 137.898 136.366 141.043C133.337 144.189 133.337 149.288 136.366 152.433C139.395 155.579 144.307 155.579 147.336 152.433Z" fill="#236FE0"/>
<path d="M141.851 139.932C143.143 139.931 144.407 140.328 145.483 141.071C146.559 141.814 147.4 142.871 147.899 144.109C148.399 145.347 148.535 146.71 148.29 148.028C148.045 149.345 147.431 150.559 146.524 151.515L141.851 146.74L135.723 149.167C135.345 148.136 135.214 147.025 135.341 145.93C135.468 144.835 135.849 143.788 136.452 142.879C137.055 141.971 137.861 141.228 138.801 140.715C139.742 140.201 140.788 139.932 141.851 139.932Z" fill="white"/>
<path d="M142.807 143.283H145.598C145.651 143.283 145.701 143.305 145.739 143.344C145.776 143.383 145.797 143.436 145.797 143.49C145.797 143.545 145.776 143.598 145.739 143.637C145.701 143.676 145.651 143.698 145.598 143.698H142.807C142.754 143.698 142.703 143.676 142.666 143.637C142.628 143.598 142.607 143.545 142.607 143.49C142.608 143.436 142.629 143.383 142.666 143.344C142.704 143.305 142.754 143.283 142.807 143.283Z" fill="#236FE0"/>
<path d="M142.807 143.938H145.598C145.651 143.938 145.701 143.959 145.739 143.998C145.776 144.037 145.797 144.09 145.797 144.145C145.797 144.2 145.776 144.252 145.739 144.291C145.701 144.33 145.651 144.352 145.598 144.352H142.807C142.754 144.352 142.703 144.33 142.666 144.291C142.628 144.252 142.607 144.2 142.607 144.145C142.607 144.09 142.628 144.037 142.666 143.998C142.703 143.959 142.754 143.938 142.807 143.938Z" fill="#236FE0"/>
<path d="M144.447 144.594H145.599C145.652 144.594 145.703 144.616 145.741 144.654C145.778 144.693 145.799 144.746 145.799 144.801C145.799 144.856 145.778 144.909 145.741 144.948C145.703 144.986 145.652 145.008 145.599 145.008H144.447C144.394 145.008 144.343 144.986 144.306 144.948C144.268 144.909 144.247 144.856 144.247 144.801C144.247 144.746 144.268 144.693 144.306 144.654C144.343 144.616 144.394 144.594 144.447 144.594Z" fill="#236FE0"/>
<path d="M135.058 142.959L138.126 139.772H135.058V142.959Z" fill="#236FE0"/>
<path d="M175.807 147.152C176.021 142.71 172.725 138.928 168.446 138.706C164.168 138.484 160.526 141.906 160.312 146.349C160.098 150.791 163.393 154.572 167.672 154.794C171.951 155.016 175.593 151.595 175.807 147.152Z" fill="#236FE0"/>
<path d="M161.489 146.74C161.489 145.204 161.989 143.713 162.908 142.51C163.828 141.306 165.112 140.461 166.552 140.111C167.993 139.761 169.505 139.927 170.843 140.582C172.181 141.237 173.266 142.343 173.923 143.719C174.579 145.096 174.768 146.662 174.458 148.164C174.149 149.666 173.359 151.016 172.217 151.993C171.076 152.97 169.65 153.517 168.171 153.547C166.692 153.576 165.246 153.085 164.07 152.153L168.046 146.74L161.919 149.168C161.634 148.393 161.489 147.57 161.489 146.74Z" fill="white"/>
<path d="M169.059 143.283H171.85C171.903 143.283 171.953 143.305 171.991 143.344C172.028 143.383 172.049 143.436 172.049 143.49C172.049 143.545 172.028 143.598 171.991 143.637C171.953 143.676 171.903 143.698 171.85 143.698H169.059C169.006 143.698 168.955 143.676 168.918 143.637C168.88 143.598 168.859 143.545 168.859 143.49C168.86 143.436 168.881 143.383 168.918 143.344C168.955 143.305 169.006 143.283 169.059 143.283Z" fill="#236FE0"/>
<path d="M169.059 143.938H171.85C171.903 143.938 171.953 143.959 171.991 143.998C172.028 144.037 172.049 144.09 172.049 144.145C172.049 144.2 172.028 144.252 171.991 144.291C171.953 144.33 171.903 144.352 171.85 144.352H169.059C169.006 144.352 168.955 144.33 168.918 144.291C168.88 144.252 168.859 144.2 168.859 144.145C168.859 144.09 168.88 144.037 168.918 143.998C168.955 143.959 169.006 143.938 169.059 143.938Z" fill="#236FE0"/>
<path d="M170.696 144.594H171.848C171.901 144.594 171.952 144.616 171.99 144.654C172.027 144.693 172.048 144.746 172.048 144.801C172.048 144.856 172.027 144.909 171.99 144.948C171.952 144.986 171.901 145.008 171.848 145.008H170.696C170.643 145.008 170.592 144.986 170.555 144.948C170.517 144.909 170.496 144.856 170.496 144.801C170.496 144.746 170.517 144.693 170.555 144.654C170.592 144.616 170.643 144.594 170.696 144.594Z" fill="#236FE0"/>
<path d="M161.297 142.959L164.365 139.772H161.297V142.959Z" fill="#236FE0"/>
<path d="M196.444 165.841H17.1077C17.0392 165.841 16.9736 165.812 16.9252 165.762C16.8768 165.712 16.8496 165.644 16.8496 165.573C16.8496 165.502 16.8768 165.433 16.9252 165.383C16.9736 165.333 17.0392 165.305 17.1077 165.305H196.444C196.512 165.305 196.578 165.333 196.626 165.383C196.675 165.433 196.702 165.502 196.702 165.573C196.702 165.644 196.675 165.712 196.626 165.762C196.578 165.812 196.512 165.841 196.444 165.841Z" fill="#202F4E"/>
</g>
<defs>
<clipPath id="clip0_243_4789">
<rect width="205" height="205" fill="white"/>
</clipPath>
</defs>
</svg>
