<svg width="232" height="233" viewBox="0 0 232 233" fill="none" xmlns="http://www.w3.org/2000/svg">
<g clip-path="url(#clip0_243_4695)">
<path d="M232.004 188.429C232.004 100.622 160.94 93.8535 151.888 61.4246C142.836 28.9957 151.888 187.171 151.888 187.171L232.004 188.429Z" fill="#FFE5F3"/>
<path d="M151.888 61.4236C151.874 61.3608 151.856 61.301 151.841 61.2372C144.78 30.3294 91.5 36.7136 91.5 36.7136C77.8198 37.9621 67.6598 41.0224 60.1275 44.7496C48.2316 50.6363 40.3926 61.4155 38.862 73.5293C37.9685 80.6229 34.305 91.237 22.5104 95.0726C-0.456323 102.546 7.60448 119.609 9.85698 125.587C11.8183 130.794 22.9001 136.953 6.76025 150.425C-9.37961 163.897 8.44871 186.965 8.44871 186.965L151.888 187.168V61.4236Z" fill="#FFE5F3"/>
<path d="M150.752 111.262C150.604 110.788 152.68 110.413 152.792 109.935C152.905 109.457 150.174 109.408 150.077 108.986C149.899 108.21 153.071 108.834 153.01 108.472C152.949 108.109 149.707 107.285 150.059 106.665C150.411 106.045 153.34 107.907 153.43 107.486C153.521 107.064 150.566 106.024 150.622 105.098C150.652 104.604 155.468 107.585 156.029 107.318C156.589 107.052 155.436 104.72 155.882 104.38C156.328 104.039 157.591 109.115 157.899 109.285C158.206 109.456 164.712 113.612 167.026 114.278C167.31 113.417 169.349 108.851 169.6 108.036C170.898 109.07 172.407 109.3 173.748 110.242C172.766 112.947 169.401 119.6 168.722 119.938C166.654 120.965 158.693 113.582 157.103 112.317C155.513 111.053 154.598 111.457 153.521 111.055C152.444 110.652 150.899 111.737 150.752 111.262Z" fill="#FDBAA0"/>
<path d="M187.357 147.045L186.627 146.363C189.309 142.878 190.783 136.236 190.892 127.156C190.932 122.838 190.707 118.522 190.219 114.238L191.169 114.091C191.662 118.424 191.887 122.789 191.846 127.156C191.797 131.278 191.472 134.937 190.879 138.033C190.133 141.947 188.946 144.979 187.357 147.045Z" fill="#13375B"/>
<path d="M184.057 102.083C184.505 102.083 201.741 100.969 202.037 103.453C202.333 105.938 202.933 125.342 199.947 126.003C196.961 126.664 182.475 123.681 182.475 123.681L184.057 102.083Z" fill="#38516B"/>
<path d="M172.508 113.404C172.508 113.404 176.91 109.865 178.24 107.33C179.571 104.795 177.334 106.446 175.046 105.779C174.182 105.526 174.4 99.9476 172.764 101.761C170.081 104.736 167.89 110.645 167.89 110.645L172.508 113.404Z" fill="#1DD6C9"/>
<path d="M179.09 99.2015C179.09 99.2015 183.731 98.1881 185.844 100.14C187.957 102.092 185.388 119.394 185.393 122.265C185.399 125.136 186.847 133.241 186.847 133.241C186.847 133.241 172.782 135.949 170.547 131.641C170.547 131.641 169.909 115.231 170.006 113.168C170.104 111.105 172.187 102.664 172.763 101.761C173.338 100.858 179.09 99.2015 179.09 99.2015Z" fill="#1DD6C9"/>
<path d="M175.775 96.0683C175.973 97.1647 176.166 98.2339 176.308 99.0182C176.383 99.4235 174.835 103.294 175.669 103.453C178.487 103.987 181.285 99.6738 180.752 98.2328L179.729 95.4521L175.775 96.0683Z" fill="#FDBAA0"/>
<path d="M176.278 85.2752C176.278 85.2752 178.267 85.0219 179.515 86.7953C180.763 88.5687 182.106 94.0449 179.008 97.0232C175.911 100.002 173.466 96.706 173.012 93.1319C172.559 89.5577 171.766 85.1455 176.278 85.2752Z" fill="#FDBAA0"/>
<path d="M158.512 118.85L171.513 115.373C171.513 115.373 176.111 108.583 180.539 102.737C181.901 104.156 182.685 106.377 184.057 107.787L174.314 120.15C174.139 120.371 173.925 120.549 173.685 120.673C173.445 120.798 173.185 120.866 172.92 120.873L159.08 121.237L158.512 118.85Z" fill="#FDBAA0"/>
<path d="M179.068 114.909C179.068 114.909 185.249 109.311 186.58 106.776C187.911 104.242 186.924 99.9957 184.64 99.3279C182.355 98.6601 174.899 110.135 174.899 110.135L179.068 114.909Z" fill="#1DD6C9"/>
<path d="M149.669 120.292C149.532 120.06 149.875 119.669 150.131 119.374C150.415 119.049 152.139 118.23 152.428 118.132C152.718 118.033 155.228 118.423 156.189 118.768C157.149 119.114 157.78 118.971 157.78 118.971C158.032 118.914 158.411 118.838 158.705 118.768L159.306 121.232C157.053 121.2 154.697 121.385 154.484 121.379C153.807 121.359 152.567 120.58 152.278 120.466C151.988 120.353 151.408 120.442 151.016 120.645C150.625 120.848 149.484 121.327 149.292 121.215C149.101 121.104 149.669 120.292 149.669 120.292Z" fill="#F7A491"/>
<path d="M179.974 91.4621C179.798 92.3823 180.131 93.2416 180.72 93.3804C181.308 93.5193 181.927 92.8859 182.103 91.9617C182.279 91.0375 181.946 90.1822 181.358 90.0434C180.771 89.9046 180.15 90.542 179.974 91.4621Z" fill="#FDBAA0"/>
<path d="M162.226 172.738C162.226 172.738 166.495 178.37 166.523 178.861C166.552 179.351 166.354 184.7 165.846 185.189C165.339 185.678 163.847 186.027 164.327 186.578C164.692 186.995 167.477 186.906 169.324 186.794C169.864 186.762 170.541 182.031 170.755 181.33C171.065 180.317 171.819 178.042 171.537 177.337C171.4 176.994 170.742 176.289 169.815 175.63C168.841 174.938 165.112 169.23 165.112 169.23L162.226 172.738Z" fill="#F48C7F"/>
<path d="M169.76 175.597C169.76 175.597 166.893 184.478 165.77 184.907C165.473 185.02 164.043 185.312 163.773 186.005C163.692 186.214 163.773 186.917 163.773 186.917H169.749C169.749 186.917 170.504 183.004 170.803 181.285C170.803 181.285 172.385 177.084 172.209 176.702C172.034 176.32 169.76 175.597 169.76 175.597Z" fill="#466EB6"/>
<path d="M136.653 175.443C136.653 175.443 133.167 180.844 133.473 182.553C133.638 183.465 134.369 184.665 133.949 185.526C133.529 186.387 133.05 186.602 133.05 186.602L122.174 186.795C121.582 186.805 121.973 186.389 122.448 186C123.23 185.369 123.861 184.952 126.359 183.625C126.521 183.539 127.115 183.125 127.328 182.981C127.87 182.618 128.415 182.045 128.88 181.473C129.66 180.518 133.094 172.738 133.094 172.738L136.653 175.443Z" fill="#F7A491"/>
<path d="M127.333 182.979C130.209 183.79 132.335 183.239 133.525 182.712C133.831 183.667 134.238 184.864 134.022 185.554C133.758 186.401 133.383 186.591 133.05 186.601C130.423 186.677 123.427 186.78 121.423 186.804C121.361 186.805 121.3 186.787 121.247 186.751C121.194 186.715 121.151 186.662 121.124 186.6C121.097 186.537 121.087 186.468 121.095 186.399C121.104 186.33 121.129 186.266 121.17 186.213C121.666 185.567 127.118 183.123 127.333 182.979Z" fill="#466EB6"/>
<path d="M149.264 142.125C149.264 142.125 153.581 147.546 154.682 148.408C155.784 149.269 166.35 170.676 166.35 170.676L162.586 173.7C162.586 173.7 153.142 160.744 148.706 153.813C144.957 147.954 146.337 148.325 144.132 144.758C143.543 143.81 143.286 142.656 143.407 141.513C143.529 140.37 144.022 139.315 144.794 138.546C144.993 138.348 145.21 138.141 145.445 137.925C148.71 134.932 171.085 131.562 171.085 131.562L185.398 133.105C185.398 133.105 173.704 142.124 173.267 142.367C172.83 142.61 157.12 145.128 156.792 145.128C156.465 145.128 149.264 142.125 149.264 142.125Z" fill="#EAB054"/>
<path d="M186.851 133.24C186.851 133.24 189.305 141.347 185.623 145.125C181.942 148.903 160.068 148.486 152.864 148.486C152.864 148.486 149.918 157.37 149.591 158.811C149.263 160.252 134.97 178.859 134.97 178.859L131.046 176.098C131.046 176.098 146.43 143.204 147.63 141.764C148.83 140.324 165.957 134.561 170.215 133.24C174.472 131.92 186.851 133.24 186.851 133.24Z" fill="#F7CC7F"/>
<path d="M119.934 102.301H141.479C141.757 102.3 142.028 102.391 142.26 102.562C142.491 102.733 142.671 102.976 142.778 103.26L149.413 121.063H161.29C161.449 121.063 161.601 121.132 161.714 121.256C161.827 121.379 161.891 121.548 161.892 121.724C161.891 121.811 161.876 121.898 161.845 121.978C161.815 122.059 161.77 122.132 161.714 122.193C161.659 122.255 161.592 122.303 161.52 122.336C161.447 122.369 161.369 122.386 161.29 122.386H127.485C127.032 122.387 126.588 122.243 126.206 121.971C125.824 121.699 125.521 121.311 125.332 120.853L118.653 104.48C118.557 104.243 118.517 103.984 118.536 103.726C118.554 103.468 118.631 103.219 118.758 103.002C118.886 102.785 119.06 102.608 119.265 102.485C119.471 102.362 119.701 102.299 119.934 102.301Z" fill="#38516B"/>
<path d="M131.535 112.666C131.68 113.466 132.315 114.001 132.951 113.861C133.587 113.721 133.985 112.959 133.84 112.159C133.695 111.36 133.06 110.825 132.423 110.965C131.786 111.104 131.389 111.869 131.535 112.666Z" fill="white"/>
<path d="M68.4066 187.191H66.7646L70.2639 153.419H71.9058L68.4066 187.191Z" fill="#38516B"/>
<path d="M86.9406 187.191H88.5825L85.0833 153.419H83.4414L86.9406 187.191Z" fill="#38516B"/>
<path d="M40.5921 187.191H38.9502L42.4503 153.419H44.0922L40.5921 187.191Z" fill="#38516B"/>
<path d="M59.1272 187.191H60.7691L57.2698 153.419H55.6279L59.1272 187.191Z" fill="#38516B"/>
<path d="M67.1649 157.089H44.7695C42.1456 157.089 39.8 154.727 39.5307 151.813L35.8298 111.676C35.5615 108.762 37.4726 106.399 40.0957 106.399H62.4911C65.115 106.399 67.4615 108.762 67.7299 111.676L71.4308 151.813C71.6991 154.727 69.7898 157.089 67.1649 157.089Z" fill="#FFBDE0"/>
<path d="M73.3792 157.089H50.9875C48.3626 157.089 46.017 154.727 45.7487 151.813L42.0477 111.676C41.7785 108.762 43.6906 106.399 46.3136 106.399H68.7081C71.333 106.399 73.6785 108.762 73.9478 111.676L77.6478 151.813C77.917 154.727 76.0068 157.089 73.3792 157.089Z" fill="#FFBDE0"/>
<path d="M76.3841 158.939H44.6419C42.1823 158.939 39.9873 156.726 39.7326 153.995C39.4807 151.259 41.2705 149.05 43.7302 149.05H75.4723C77.9366 149.05 80.127 151.264 80.3816 153.995C80.6335 156.726 78.8438 158.939 76.3841 158.939Z" fill="#FFBDE0"/>
<path d="M84.3072 158.939H52.5696C50.1054 158.939 47.9149 156.726 47.6594 153.995C47.4075 151.259 49.1973 149.05 51.6569 149.05H83.4C85.8642 149.05 88.0547 151.264 88.3093 153.995C88.5566 156.726 86.7669 158.939 84.3072 158.939Z" fill="#FFBDE0"/>
<path d="M90.3777 118.355C90.5246 117.881 88.4483 117.507 88.336 117.028C88.2238 116.549 90.9554 116.501 91.0513 116.079C91.2338 115.303 88.0577 115.928 88.1188 115.565C88.18 115.201 91.4227 114.379 91.0695 113.758C90.7163 113.136 87.7839 115.001 87.6981 114.579C87.6123 114.156 90.5621 113.117 90.5064 112.191C90.4763 111.696 85.66 114.679 85.0997 114.411C84.5393 114.144 85.6929 111.814 85.2466 111.473C84.8003 111.131 83.5371 116.207 83.2296 116.377C82.922 116.547 76.4164 120.704 74.1028 121.37C73.818 120.509 71.78 115.943 71.529 115.128C70.2302 116.161 68.7216 116.391 67.3809 117.335C68.3629 120.039 71.727 126.693 72.4061 127.031C74.4742 128.058 82.4355 120.675 84.0254 119.41C85.6153 118.146 86.5307 118.549 87.6077 118.147C88.6847 117.744 90.2298 118.827 90.3777 118.355Z" fill="#FDBAA0"/>
<path d="M70.1714 96.815C70.2681 94.2359 69.9258 91.6903 68.8872 89.2897C67.9928 87.2244 65.7841 86.0469 63.7643 86.0469C57.3591 86.0378 56.5441 95.4347 52.4672 99.0586C51.2213 100.168 49.8332 101.07 48.6467 102.265C44.2932 106.675 46.2545 114.839 50.2512 118.705C53.0275 121.387 57.3874 122.914 60.8063 120.815C62.5906 119.72 63.946 117.9 64.9134 115.906C66.2824 113.075 67.1659 109.81 68.1406 106.795C69.1747 103.584 70.0436 100.242 70.1714 96.815Z" fill="#38516B"/>
<path d="M67.775 120.548C67.775 120.548 62.9908 115.102 61.7605 112.736C60.5302 110.37 62.5983 111.911 64.7121 111.288C65.5125 111.053 65.3099 105.844 66.8231 107.539C69.3056 110.316 72.4261 115.172 72.4261 115.172L67.775 120.548Z" fill="#236FE0"/>
<path d="M60.9741 105.148C60.9741 105.148 56.6845 104.207 54.7222 106.024C52.7599 107.841 55.142 123.998 55.1393 126.677C55.1366 129.355 53.7949 136.923 53.7949 136.923C53.7949 136.923 66.8061 139.451 68.8724 135.431C68.8724 135.431 69.4611 120.112 69.3735 118.186C69.2859 116.259 67.3555 108.381 66.8235 107.537C66.2914 106.693 60.9741 105.148 60.9741 105.148Z" fill="#236FE0"/>
<path d="M60.9462 97.7754C60.9462 97.7754 60.9243 97.9173 60.8832 98.1595C60.6888 99.3238 59.9386 103.183 59.432 104.24C58.8205 105.522 61.5312 109.611 64.1342 109.112C64.9099 108.964 63.4779 105.354 63.5473 104.972C63.6787 104.241 63.8576 103.243 64.0402 102.219C64.1433 101.641 64.2473 101.056 64.3459 100.505C64.6243 98.9418 64.8515 97.668 64.8515 97.668L60.9462 97.7754Z" fill="#FDBAA0"/>
<path d="M63.5761 87.9384C63.5761 87.9384 61.7352 87.7023 60.5816 89.3571C59.4279 91.0119 58.1839 96.1244 61.0507 98.9051C63.9174 101.686 66.7485 98.5382 67.1656 95.2012C67.5827 91.8642 67.7516 87.8178 63.5761 87.9384Z" fill="#FDBAA0"/>
<path d="M68.0164 95.1493C67.6742 95.887 67.1038 96.2944 66.7332 96.0613C66.3627 95.8282 66.3517 95.0479 66.6894 94.3061C67.0271 93.5644 67.6021 93.161 67.9726 93.3941C68.3432 93.6272 68.3596 94.4146 68.0164 95.1493Z" fill="#FDBAA0"/>
<path d="M63.7822 87.3916C63.7822 87.3916 61.318 92.2557 59.5638 92.4787C57.8096 92.7016 57.5732 95.2878 57.5732 95.2878C57.5732 95.2878 58.2021 89.3332 59.9462 88.185C61.6903 87.0369 63.7822 87.3916 63.7822 87.3916Z" fill="#38516B"/>
<path d="M60.0251 93.7016C60.1684 94.565 59.8809 95.3575 59.3862 95.47C58.8915 95.5825 58.3685 94.9754 58.2253 94.1121C58.082 93.2487 58.3704 92.4562 58.8641 92.3427C59.3579 92.2292 59.8827 92.8382 60.0251 93.7016Z" fill="#FDBAA0"/>
<path d="M76.5746 173.793C76.5746 173.793 72.6255 179.05 72.5999 179.508C72.5743 179.966 72.756 184.959 73.226 185.416C73.696 185.873 75.076 186.199 74.6324 186.713C74.2966 187.102 71.7173 187.017 70.0079 186.916C69.5086 186.886 68.8835 182.465 68.6854 181.816C68.3988 180.872 67.7006 178.746 67.9617 178.089C68.0885 177.768 68.6973 177.11 69.5543 176.495C70.456 175.848 73.9041 170.516 73.9041 170.516L76.5746 173.793Z" fill="#FDBAA0"/>
<path d="M69.6104 176.463C69.6104 176.463 72.2627 184.753 73.3004 185.154C73.5742 185.255 74.8985 185.53 75.1486 186.179C75.2234 186.375 75.1486 187.028 75.1486 187.028H69.6205C69.6205 187.028 68.9214 183.375 68.6448 181.77C68.6448 181.77 67.1845 177.848 67.3442 177.492C67.504 177.137 69.6104 176.463 69.6104 176.463Z" fill="#236FE0"/>
<path d="M100.231 176.32C100.231 176.32 103.457 181.362 103.173 182.956C103.022 183.81 102.345 184.928 102.733 185.731C103.121 186.535 103.565 186.737 103.565 186.737L113.626 186.916C114.174 186.926 113.809 186.535 113.37 186.175C112.647 185.585 112.063 185.196 109.753 183.958C109.602 183.877 109.053 183.491 108.855 183.357C108.353 183.018 107.851 182.483 107.416 181.947C106.693 181.057 103.517 173.795 103.517 173.795L100.231 176.32Z" fill="#F7A491"/>
<path d="M108.854 183.354C106.194 184.11 104.227 183.596 103.127 183.104C102.844 183.995 102.467 185.113 102.67 185.758C102.915 186.547 103.262 186.725 103.569 186.734C106 186.805 112.471 186.902 114.325 186.928C114.383 186.929 114.44 186.911 114.489 186.877C114.538 186.843 114.577 186.794 114.602 186.736C114.626 186.678 114.635 186.613 114.628 186.549C114.621 186.486 114.597 186.426 114.56 186.377C114.097 185.769 109.053 183.488 108.854 183.354Z" fill="#F7CC7F"/>
<path d="M88.5657 145.218C88.5657 145.218 84.5727 150.278 83.5542 151.08C82.5356 151.882 72.7599 171.868 72.7599 171.868L76.2427 174.69C76.2427 174.69 84.9789 162.596 89.0777 156.127C92.5459 150.654 91.2681 151.003 93.3098 147.673C93.8547 146.787 94.0927 145.712 93.98 144.646C93.8673 143.581 93.4114 142.596 92.6965 141.874C92.514 141.689 92.3135 141.496 92.095 141.295C89.075 138.5 68.3763 135.355 68.3763 135.355L55.1396 136.8C55.1396 136.8 65.9568 145.222 66.3656 145.446C66.7745 145.67 81.3035 148.023 81.6074 148.023C81.9113 148.023 88.5657 145.218 88.5657 145.218Z" fill="#38516B"/>
<path d="M53.7956 136.923C53.7956 136.923 51.5239 144.488 54.9309 148.017C58.338 151.547 78.5694 151.159 85.232 151.159C85.232 151.159 87.9572 159.451 88.2602 160.796C88.5633 162.141 101.784 179.512 101.784 179.512L105.419 176.934C105.419 176.934 91.1909 146.223 90.082 144.88C88.9731 143.537 73.1253 138.156 69.1889 136.923C65.2525 135.69 53.7956 136.923 53.7956 136.923Z" fill="#38516B"/>
<path d="M79.9631 120.654C80.1109 120.179 78.0337 119.805 77.9214 119.326C77.8091 118.846 80.5408 118.799 80.6375 118.378C80.8146 117.601 77.643 118.226 77.7051 117.863C77.7671 117.5 81.0081 116.677 80.6558 116.055C80.3035 115.434 77.3701 117.299 77.2789 116.876C77.1876 116.454 80.1429 115.415 80.0872 114.49C80.0571 113.994 75.2408 116.977 74.6805 116.71C74.1201 116.444 75.2746 114.112 74.8274 113.771C74.3802 113.431 73.1179 118.506 72.8113 118.677C72.5046 118.848 65.9981 123.003 63.6799 123.67C63.3961 122.807 61.3571 118.242 61.1061 117.427C59.8074 118.46 58.2987 118.691 56.958 119.634C57.9401 122.338 61.3051 128.992 61.9841 129.33C64.0514 130.357 72.0127 122.974 73.6026 121.709C75.1925 120.444 76.1079 120.849 77.1858 120.446C78.2636 120.044 79.8152 121.128 79.9631 120.654Z" fill="#FDBAA0"/>
<path d="M56.3409 120.357C56.3409 120.357 53.5235 113.423 53.0954 110.73C52.6674 108.038 54.7474 104.661 56.9287 104.879C59.11 105.097 62.3719 117.069 62.3719 117.069L56.3409 120.357Z" fill="#236FE0"/>
<path d="M100.356 186.975H166.089V123.303H100.356V186.975Z" fill="#F2F2F2"/>
<path d="M203.889 124.275H166.034V187.043H203.889V124.275Z" fill="white"/>
<g style="mix-blend-mode:multiply" opacity="0.5">
<path d="M162.394 187.041H166.034V124.274H162.394V187.041Z" fill="#38516B"/>
</g>
<path d="M95.7302 124.274L208.169 124.274V122.331L95.7302 122.331V124.274Z" fill="#1DD6C9"/>
<path d="M232 186.544H3.02441V188.429H232V186.544Z" fill="#38516B"/>
<path d="M180.406 90.589L180.266 90.6052C180.223 90.6105 180.181 90.6061 180.14 90.5924C180.099 90.5786 180.062 90.5557 180.029 90.5251C179.997 90.4945 179.971 90.4569 179.952 90.4145C179.933 90.3722 179.923 90.326 179.921 90.2789C179.889 89.5077 179.721 87.8022 178.858 87.9309C177.748 88.0981 173.771 89.5736 172.275 88.6646C170.837 87.791 170.586 85.6326 171.31 84.5097C171.333 84.4733 171.368 84.448 171.407 84.439C171.446 84.4299 171.487 84.4378 171.521 84.4611L171.692 84.5807C171.718 84.5989 171.748 84.608 171.779 84.6069C171.81 84.6058 171.84 84.5945 171.865 84.5745C171.89 84.5544 171.909 84.5265 171.919 84.4944C171.93 84.4623 171.931 84.4274 171.924 84.3942C171.916 84.3623 171.917 84.3287 171.927 84.2975C171.936 84.2662 171.954 84.2388 171.977 84.2184C172.001 84.1981 172.029 84.1858 172.058 84.183C172.088 84.1802 172.118 84.187 172.144 84.2027C172.6 84.4702 173.588 84.7418 175.473 84C178.153 82.9431 180.319 83.0049 181.324 84.8371C181.338 84.8642 181.359 84.8865 181.383 84.9017C181.408 84.9169 181.436 84.9244 181.464 84.9233C181.492 84.9223 181.52 84.9127 181.543 84.8958C181.567 84.8788 181.586 84.855 181.598 84.8269C181.714 84.5908 181.971 84.3507 182.538 84.4621C183.526 84.6567 184.09 86.4412 183.323 88.7C183.314 88.7248 183.311 88.7515 183.313 88.778C183.315 88.8046 183.322 88.8302 183.335 88.8529C183.348 88.8756 183.365 88.8946 183.385 88.9086C183.406 88.9225 183.429 88.9309 183.453 88.9331C183.818 88.9554 184.447 89.1571 183.741 90.4167C183.011 91.7209 182.196 92.1749 181.864 92.3137C181.844 92.3218 181.823 92.3253 181.802 92.3242C181.781 92.323 181.761 92.3171 181.742 92.3069C181.723 92.2966 181.707 92.2822 181.693 92.2646C181.679 92.247 181.669 92.2264 181.663 92.2043L181.138 90.364C181.132 90.3392 181.12 90.3164 181.105 90.2973C181.089 90.2782 181.07 90.2631 181.048 90.2534C181.027 90.2437 181.004 90.2394 180.981 90.241C180.957 90.2426 180.935 90.25 180.915 90.2627L180.406 90.589Z" fill="#38516B"/>
</g>
<defs>
<clipPath id="clip0_243_4695">
<rect width="232" height="233" fill="white"/>
</clipPath>
</defs>
</svg>
