<svg width="130" height="27" viewBox="0 0 130 27" fill="none" xmlns="http://www.w3.org/2000/svg">
<g id="Calque_1" clip-path="url(#clip0_2037_588)">
<g id="Group">
<g id="Group_2">
<path id="Vector" d="M96.2983 26.1159H80.2154C79.4666 26.1159 78.8132 25.7819 78.3864 25.2681C77.9596 24.7544 77.7593 24.0645 77.9146 23.3547L79.7006 15.1928L81.4865 7.03092C81.6026 6.50264 81.8984 6.05062 82.3065 5.7293C82.7146 5.40798 83.2313 5.21918 83.7873 5.21918H100.877L100.303 7.82786L99.7279 10.4366H88.43C88.0594 10.4366 87.6887 10.5691 87.3929 10.7905C87.0971 11.012 86.8743 11.3206 86.7976 11.6728L85.9889 15.3653L85.1801 19.0577C85.0772 19.5316 85.2344 19.9854 85.5433 20.3212C85.8522 20.6571 86.3127 20.8731 86.8126 20.8731H97.4422L96.8693 23.4945L96.2965 26.1159H96.2983Z" fill="black"/>
<path id="Vector_2" d="M71.0188 11.1954H74.1844H77.3482L75.7158 18.6547L74.0834 26.1159H70.9196H67.7539L69.3863 18.6547L71.0188 11.1954Z" fill="black"/>
<path id="Vector_3" d="M77.8217 9.0351L77.642 9.85746L77.4604 10.6816H74.2966H71.1328L71.3125 9.85746L71.4923 9.0351H74.6579H77.8217Z" fill="black"/>
<path id="Vector_4" d="M78.3512 6.61157L78.1734 7.42304L77.9956 8.23451H74.8318H71.668L71.8458 7.42304L72.0218 6.61157H75.1875H78.3512Z" fill="black"/>
<path id="Vector_5" d="M79.7986 0L79.2276 2.60869L78.6566 5.21737H75.4928H72.3271L72.8981 2.60869L73.4691 0H76.6348H79.7986Z" fill="black"/>
<path id="Vector_6" d="M70.3467 0L67.4881 13.058L64.6313 26.1159H61.4675H58.3037L61.1624 13.058L64.0191 0H67.1829H70.3467Z" fill="black"/>
<path id="Vector_7" d="M105.493 0L102.634 13.058L99.7754 26.1159H102.941H106.105L108.963 13.058L111.822 0H108.656H105.493Z" fill="black"/>
<path id="Vector_8" d="M110.07 13.5772L113.554 9.39637L117.038 5.21558H124.15L119.975 10.0463L115.8 14.877C115.6 15.1202 115.486 15.4089 115.462 15.7048C115.437 16.0007 115.501 16.3039 115.658 16.5743L118.425 21.3433L121.192 26.1123H114.471L112.082 21.9714L109.694 17.8306C109.302 17.1516 109.143 16.3892 109.207 15.6467C109.272 14.9042 109.561 14.1799 110.066 13.5735L110.07 13.5772Z" fill="black"/>
<path id="Vector_9" d="M58.3707 10.4366L58.9417 7.82786L59.5127 5.21918H42.4469C41.889 5.21918 41.3705 5.40798 40.9624 5.7293C40.5543 6.05062 40.2547 6.50446 40.1405 7.03273L39.212 11.2898L38.2834 15.5468C38.1281 16.2584 38.3302 16.9483 38.7589 17.4602C39.1876 17.9722 39.841 18.3062 40.5898 18.3062H48.7839C49.2088 18.3062 49.5551 18.4968 49.7723 18.7873C49.9895 19.0777 50.0775 19.4698 49.9895 19.8728C49.9239 20.1724 49.7798 20.4229 49.5739 20.599C49.3679 20.7751 49.1002 20.8749 48.7839 20.8749H37.1153L36.5405 23.4963L35.9658 26.1177H53.0241C53.5801 26.1177 54.1005 25.9289 54.5105 25.6076C54.9205 25.2863 55.22 24.8343 55.3361 24.306L56.2665 20.0635L57.1969 15.8209C57.3523 15.1093 57.1539 14.4195 56.7289 13.9057C56.3039 13.392 55.6525 13.0579 54.9036 13.0579H50.8955H46.8875C46.4625 13.0579 46.0694 12.8673 45.8054 12.5769C45.5414 12.2864 45.4067 11.8943 45.4965 11.4895C45.562 11.1899 45.753 10.9267 46.0057 10.7379C46.2584 10.5491 46.5729 10.4347 46.8893 10.4347H58.3745L58.3707 10.4366Z" fill="black"/>
</g>
</g>
<path id="Vector_10" d="M126.93 20.1651H126.829C126.104 20.1651 125.43 20.4102 124.899 20.8259C124.367 21.2416 123.979 21.8298 123.828 22.5142C123.624 23.4401 123.886 24.3405 124.442 25.0085C125 25.6766 125.851 26.1141 126.827 26.1141H126.928C127.289 26.1141 127.639 26.0524 127.963 25.9398C128.287 25.8273 128.588 25.6603 128.854 25.4533C129.12 25.2464 129.35 24.994 129.534 24.709C129.717 24.424 129.854 24.1045 129.929 23.7614C130.133 22.8355 129.871 21.9351 129.315 21.2689C128.757 20.6008 127.905 20.1651 126.93 20.1651Z" fill="#02EC8E"/>
<g id="Group_3">
<path id="Vector_11" d="M29.6944 5.60405C29.7674 5.27002 29.672 4.94689 29.4717 4.70726C29.2714 4.46763 28.9643 4.30969 28.6124 4.30969H18.2374C17.9772 4.30969 17.7338 4.39865 17.541 4.54932C17.3482 4.7 17.2096 4.9124 17.1553 5.15929L16.0059 10.4075L14.8564 15.6558H27.4929L28.5918 10.6308L29.6907 5.60587L29.6944 5.60405Z" fill="#02EC8E"/>
<path id="Vector_12" d="M0.0244192 25.7038C-0.0485914 26.0379 0.046884 26.361 0.247195 26.6006C0.447506 26.8403 0.754525 26.9982 1.10647 26.9982H6.29397H11.4815C11.7417 26.9982 11.985 26.9092 12.1779 26.7586C12.3707 26.6079 12.5092 26.3955 12.5635 26.1486L13.713 20.9004L14.8624 15.6521H8.54419H2.22597L1.12707 20.6771L0.0244192 25.7038Z" fill="#02EC8E"/>
</g>
</g>
<defs>
<clipPath id="clip0_2037_588">
<rect width="130" height="27" fill="white"/>
</clipPath>
</defs>
</svg>
