<svg width="62" height="9" viewBox="0 0 62 9" fill="none" xmlns="http://www.w3.org/2000/svg">
<g id="LOGO" clip-path="url(#clip0_2001_1144)">
<path id="Vector" d="M14.4703 0.375H16.8305L19.7832 8.37432H17.5975L17.1671 7.11049H14.0861L13.668 8.37432H11.5176L14.4703 0.375ZM16.5515 5.27938L15.6331 2.57774L14.7147 5.27938H16.5515Z" fill="black"/>
<path id="Vector_2" d="M42.0807 2.25349C43.2271 2.25349 44.1598 3.23166 44.1598 4.375C44.1598 5.51834 43.2271 6.49651 42.0807 6.49651H36.8302C35.6838 6.49651 34.7511 5.51834 34.7511 4.375C34.7511 3.23166 35.6838 2.25349 36.8302 2.25349H42.0807ZM42.0807 0.375H36.8302C34.6181 0.375 32.8247 2.1682 32.8247 4.375C32.8247 6.58113 34.6181 8.37432 36.8302 8.37432H42.0807C44.2928 8.37432 46.0869 6.58113 46.0869 4.375C46.0869 2.16887 44.2935 0.375 42.0807 0.375Z" fill="black"/>
<path id="Vector_3" d="M56.5573 5.68487L53.5347 0.375H55.8134L57.5802 3.60939L58.4986 1.94007C58.8475 1.26788 58.9752 0.791991 58.9636 0.375H61.0909C61.0909 1.0824 60.8703 1.58062 60.3585 2.49651L58.5448 5.68487V8.37432H56.5566V5.68487H56.5573Z" fill="black"/>
<path id="Vector_4" d="M5.84097 0.919931V0.375L0 2.67319V3.25738L5.35021 5.36197V7.89302H0V8.375H5.84097V5.02689L4.24107 4.40275V1.54406L5.84097 0.919931ZM3.75845 4.21254L0.567467 2.97307L3.75913 1.73361V4.21321L3.75845 4.21254Z" fill="black"/>
<path id="Vector_5" d="M7.00244 0.375H12.5094V2.25281H9.00215V4.02706H11.8544L11.2123 5.7661H9.00215V8.37432H7.00244V0.375Z" fill="black"/>
<path id="Vector_6" d="M46.922 0.375H50.5841C52.2233 0.375 53.4553 1.54609 53.4553 3.12267C53.4553 4.27075 52.7576 5.19815 51.7231 5.56911L51.9321 5.87035C52.2342 6.29952 52.653 6.49651 53.1879 6.49651H55.5643V8.37432H52.9666C51.5833 8.37432 50.618 7.85241 50.0485 6.79774L49.4553 5.7661H48.9204V8.37432H46.9207V0.375H46.922ZM48.921 2.25349V4.02706H50.5372C51.0368 4.02706 51.4088 3.64459 51.4088 3.13418C51.4088 2.62377 51.0368 2.25281 50.5372 2.25281H48.921V2.25349Z" fill="black"/>
<path id="Vector_7" d="M19.5349 4.375C19.5349 6.58383 21.3303 8.375 23.5459 8.375H27.5806V6.49651H23.5459C22.398 6.49651 21.464 5.51969 21.464 4.375C21.464 3.23031 22.398 2.25349 23.5459 2.25349H25.5571V0.375H23.5459C21.3303 0.375 19.5349 2.16549 19.5349 4.375Z" fill="black"/>
<path id="Vector_8" d="M26.5493 0.375V2.25349H28.5728V8.375H30.5718V2.25349H32.5946V0.375H26.5493Z" fill="black"/>
</g>
<defs>
<clipPath id="clip0_2001_1144">
<rect width="61.0909" height="8" fill="white" transform="translate(0 0.375)"/>
</clipPath>
</defs>
</svg>
