<?xml version="1.0" encoding="UTF-8"?><svg id="Layer_1" xmlns="http://www.w3.org/2000/svg" viewBox="0 0 841.43006 286.01732"><defs><style>.cls-1{fill:#01295f;}.cls-2{fill:#66c3ff;}.cls-3{fill:#3376af;}</style></defs><g><path class="cls-1" d="M269.05329,169.28091c-3.64062,0-7.04102-.65918-10.20215-1.97656-3.16211-1.31641-5.94043-3.14844-8.33496-5.49609-2.39551-2.34668-4.25195-5.08887-5.56836-8.22656-1.31836-3.13672-1.97559-6.52637-1.97559-10.16699,0-3.59277,.65723-6.94434,1.97559-10.05859,1.31641-3.11328,3.16113-5.83105,5.53223-8.15527,2.37109-2.32324,5.1377-4.13184,8.29883-5.4248s6.56152-1.94043,10.20312-1.94043c2.53809,0,5.0166,.35938,7.43555,1.07812s4.61035,1.72461,6.5752,3.01758c1.96289,1.29395,3.56738,2.77832,4.81348,4.45508l-5.0293,5.24512c-1.4375-1.38867-2.91016-2.53809-4.41895-3.44922-1.50879-.90918-3.05371-1.60449-4.63477-2.08301-1.58008-.47852-3.16113-.71875-4.74121-.71875-2.58691,0-4.9707,.45605-7.14941,1.36523-2.18066,.91016-4.0957,2.17969-5.74805,3.80762-1.65234,1.62891-2.93457,3.5332-3.84375,5.71191-.91113,2.18066-1.36523,4.5625-1.36523,7.14941,0,2.49121,.47754,4.84961,1.43652,7.07715,.95801,2.22754,2.28711,4.17969,3.98828,5.85547,1.69922,1.67773,3.66406,2.99414,5.8916,3.95215,2.22754,.95898,4.58594,1.43652,7.07715,1.43652,1.86816,0,3.63965-.27441,5.31641-.82617,1.67676-.5498,3.16211-1.3291,4.45508-2.33496s2.29883-2.16699,3.01758-3.48438,1.07812-2.71777,1.07812-4.20312v-1.4375l1.07715,1.00586h-15.37598v-7.6875h22.27344c.0957,.52734,.16797,1.04199,.21582,1.54492,.04688,.50293,.08301,.98242,.1084,1.43652,.02344,.45605,.03516,.89844,.03516,1.3291,0,3.30566-.57422,6.31152-1.72363,9.01758-1.15039,2.70703-2.74316,5.04199-4.77832,7.00488-2.03711,1.96484-4.4082,3.48535-7.11328,4.5625-2.70703,1.07812-5.64062,1.61719-8.80176,1.61719Z"/><path class="cls-1" d="M319.09626,169.28091c-3.87988,0-7.31738-.82617-10.31055-2.47949-2.99414-1.65234-5.3418-3.91504-7.04102-6.78906-1.70117-2.87402-2.55078-6.17969-2.55078-9.91602,0-2.96875,.47852-5.67578,1.43652-8.11914,.95801-2.44238,2.28711-4.5625,3.98828-6.3584,1.69922-1.7959,3.73633-3.18457,6.10742-4.16699,2.37109-.98145,4.94531-1.47266,7.72363-1.47266,2.44238,0,4.71777,.4668,6.8252,1.40039,2.10742,.93457,3.93945,2.2168,5.49707,3.84375,1.55566,1.62988,2.75391,3.55664,3.59277,5.78418,.83691,2.22754,1.23242,4.65918,1.18555,7.29297l-.07227,3.16113h-30.82324l-1.65332-5.8916h26.08203l-1.07812,1.22168v-1.72461c-.14355-1.58008-.6709-2.99316-1.58008-4.23926-.91113-1.24512-2.06055-2.22754-3.44922-2.94531-1.38965-.71875-2.89844-1.07812-4.52637-1.07812-2.58691,0-4.7666,.49219-6.53809,1.47266-1.77344,.98242-3.11426,2.41992-4.02441,4.31152-.91016,1.89258-1.36426,4.22754-1.36426,7.00488,0,2.63477,.5498,4.92188,1.65234,6.8623,1.10156,1.93945,2.6582,3.4375,4.66992,4.49023,2.01172,1.05469,4.33496,1.58105,6.96973,1.58105,1.86816,0,3.60352-.31152,5.20898-.93457,1.60449-.62207,3.34082-1.74805,5.20898-3.37695l3.73633,5.24512c-1.14941,1.14941-2.55078,2.15527-4.20312,3.01758s-3.40137,1.54492-5.24512,2.04785c-1.84473,.50293-3.65332,.75488-5.4248,.75488Z"/><path class="cls-1" d="M362.149,169.28091c-3.68945,0-6.98145-.85059-9.87988-2.55078s-5.18555-4.02344-6.86133-6.96973c-1.67676-2.94531-2.51465-6.31055-2.51465-10.09473,0-3.7832,.83789-7.14941,2.51465-10.09473,1.67578-2.94629,3.96289-5.26855,6.86133-6.96973,2.89844-1.69922,6.19043-2.55078,9.87988-2.55078,3.63965,0,6.90918,.85156,9.80762,2.55078,2.89746,1.70117,5.18457,4.02344,6.86133,6.96973,1.67676,2.94531,2.51465,6.31152,2.51465,10.09473,0,3.78418-.83789,7.14941-2.51465,10.09473-1.67676,2.94629-3.96387,5.26953-6.86133,6.96973-2.89844,1.7002-6.16797,2.55078-9.80762,2.55078Zm0-6.75391c2.25098,0,4.2627-.5625,6.03516-1.68848,1.77148-1.125,3.16113-2.65918,4.16699-4.59863,1.00684-1.94043,1.48438-4.13184,1.4375-6.57422,.04688-2.49023-.43066-4.70605-1.4375-6.64648-1.00586-1.93945-2.39551-3.45996-4.16699-4.5625-1.77246-1.10059-3.78418-1.65234-6.03516-1.65234-2.25195,0-4.27539,.56348-6.07129,1.68848-1.7959,1.12598-3.19727,2.6582-4.20312,4.59863-1.00586,1.93945-1.48535,4.13086-1.4375,6.57422-.04785,2.44238,.43164,4.63379,1.4375,6.57422,1.00586,1.93945,2.40723,3.47363,4.20312,4.59863,1.7959,1.12598,3.81934,1.68848,6.07129,1.68848Z"/><path class="cls-1" d="M392.16775,168.56216v-50.29492h20.47754c2.73047,0,5.20898,.68262,7.43652,2.04785s4.01074,3.22168,5.35254,5.56836c1.34082,2.34766,2.01172,4.95703,2.01172,7.83105s-.6709,5.48535-2.01172,7.83203c-1.3418,2.34766-3.125,4.22754-5.35254,5.64062s-4.70605,2.11914-7.43652,2.11914h-12.71777v19.25586h-7.75977Zm7.75977-26.72852h12.57422c1.29297,0,2.4668-.37012,3.52051-1.11328,1.05273-.74219,1.9043-1.72461,2.55078-2.94629,.64648-1.2207,.96973-2.57422,.96973-4.05957,0-1.4834-.32324-2.8252-.96973-4.02344-.64648-1.19629-1.49805-2.15527-2.55078-2.87402-1.05371-.71777-2.22754-1.07715-3.52051-1.07715h-12.57422v16.09375Z"/><path class="cls-1" d="M451.93591,169.28091c-3.68945,0-6.98145-.85059-9.87988-2.55078s-5.18555-4.02344-6.86133-6.96973c-1.67676-2.94531-2.51465-6.31055-2.51465-10.09473,0-3.7832,.83789-7.14941,2.51465-10.09473,1.67578-2.94629,3.96289-5.26855,6.86133-6.96973,2.89844-1.69922,6.19043-2.55078,9.87988-2.55078,3.63965,0,6.90918,.85156,9.80762,2.55078,2.89746,1.70117,5.18457,4.02344,6.86133,6.96973,1.67676,2.94531,2.51465,6.31152,2.51465,10.09473,0,3.78418-.83789,7.14941-2.51465,10.09473-1.67676,2.94629-3.96387,5.26953-6.86133,6.96973-2.89844,1.7002-6.16797,2.55078-9.80762,2.55078Zm0-6.75391c2.25098,0,4.2627-.5625,6.03516-1.68848,1.77148-1.125,3.16113-2.65918,4.16699-4.59863,1.00684-1.94043,1.48438-4.13184,1.4375-6.57422,.04688-2.49023-.43066-4.70605-1.4375-6.64648-1.00586-1.93945-2.39551-3.45996-4.16699-4.5625-1.77246-1.10059-3.78418-1.65234-6.03516-1.65234-2.25195,0-4.27539,.56348-6.07129,1.68848-1.7959,1.12598-3.19727,2.6582-4.20312,4.59863-1.00586,1.93945-1.48535,4.13086-1.4375,6.57422-.04785,2.44238,.43164,4.63379,1.4375,6.57422,1.00586,1.93945,2.40723,3.47363,4.20312,4.59863,1.7959,1.12598,3.81934,1.68848,6.07129,1.68848Z"/><path class="cls-1" d="M492.60915,169.28091c-3.16113,0-6.01172-.55176-8.5498-1.65234-2.54004-1.10156-4.64746-2.73047-6.32324-4.88672l5.0293-4.31055c1.4375,1.67773,3.00586,2.88672,4.70605,3.62891,1.7002,.74316,3.62891,1.11328,5.78418,1.11328,.8623,0,1.66406-.10742,2.40723-.32324,.74219-.21582,1.38867-.53906,1.93945-.96973,.55078-.43164,.9707-.94531,1.25781-1.54492,.28711-.59863,.43066-1.25781,.43066-1.97656,0-1.24414-.45508-2.25098-1.36523-3.01758-.47852-.33398-1.2334-.70605-2.2627-1.11328-1.03125-.40625-2.36035-.82617-3.98828-1.25781-2.77832-.71777-5.05371-1.53223-6.8252-2.44238-1.77246-.90918-3.1377-1.94043-4.0957-3.08984-.71875-.90918-1.24609-1.9043-1.58105-2.98145-.33496-1.07812-.50293-2.26367-.50293-3.55664,0-1.58105,.34766-3.0293,1.04199-4.34668s1.65234-2.4668,2.87402-3.44922c1.22168-.98145,2.65918-1.73535,4.31152-2.26367,1.65234-.52637,3.41211-.79004,5.28027-.79004,1.77246,0,3.53223,.24023,5.28125,.71875,1.74805,.47949,3.36426,1.17383,4.84961,2.08398,1.48438,.91016,2.73047,1.9873,3.73633,3.23242l-4.23926,4.6709c-.91016-.90918-1.90332-1.71191-2.98145-2.40723-1.07812-.69336-2.16797-1.23242-3.26953-1.61621-1.10156-.38281-2.1084-.5752-3.01758-.5752-1.00586,0-1.91602,.09668-2.73047,.28711-.81445,.19238-1.49707,.47949-2.04688,.8623-.55176,.38379-.9707,.8623-1.25781,1.4375-.28711,.57422-.43066,1.2207-.43066,1.93945,.04688,.62305,.20312,1.20996,.4668,1.76074,.2627,.55078,.63379,1.01758,1.11328,1.40039,.52637,.38477,1.31738,.79102,2.37109,1.22168,1.05371,.43164,2.39453,.83887,4.02344,1.22168,2.39453,.62305,4.37109,1.30566,5.92773,2.04785,1.55664,.74316,2.79004,1.59277,3.7002,2.55078,.95801,.91016,1.62793,1.96387,2.01172,3.16113,.38281,1.19824,.5752,2.53906,.5752,4.02344,0,2.15527-.61035,4.08398-1.83203,5.78418-1.22168,1.70117-2.86328,3.03027-4.92188,3.9873-2.05957,.95801-4.35938,1.4375-6.89746,1.4375Z"/><path class="cls-1" d="M513.22087,138.02603v-7.18555h23.99805v7.18555h-23.99805Zm7.83203,30.53613v-47.34961h7.40039v47.34961h-7.40039Z"/><path class="cls-1" d="M560.84196,169.28091c-3.49707,0-6.62207-.8623-9.37598-2.58691-2.75488-1.72461-4.93457-4.07031-6.53809-7.04102-1.60547-2.96973-2.40723-6.29785-2.40723-9.9873,0-3.68848,.80176-7.0166,2.40723-9.9873,1.60352-2.96973,3.7832-5.31641,6.53809-7.04102,2.75391-1.72461,5.87891-2.58691,9.37598-2.58691,3.35254,0,6.40625,.68262,9.16113,2.04785,2.75391,1.36523,4.84961,3.22168,6.28711,5.56836l-4.0957,5.0293c-.7666-1.10156-1.74902-2.10742-2.94531-3.01758-1.19824-.90918-2.46777-1.62793-3.80859-2.15527-1.3418-.52637-2.63477-.79004-3.87988-.79004-2.29883,0-4.34668,.56348-6.14258,1.68848-1.79688,1.12598-3.22266,2.66992-4.27539,4.63379-1.05469,1.96484-1.58105,4.16699-1.58105,6.61035,0,2.44238,.55078,4.63379,1.65234,6.57422,1.10156,1.93945,2.5625,3.48438,4.38379,4.63477,1.81934,1.14941,3.83105,1.72363,6.03516,1.72363,1.29297,0,2.55078-.21484,3.77148-.64648,1.22168-.43066,2.40723-1.07715,3.55664-1.93945,1.15039-.8623,2.22754-1.91602,3.2334-3.16211l4.0957,5.03027c-1.5332,2.15527-3.72461,3.92773-6.57422,5.31641-2.85059,1.38867-5.80859,2.08398-8.87402,2.08398Z"/><path class="cls-1" d="M601.41345,169.28091c-3.68945,0-6.98145-.85059-9.87988-2.55078s-5.18555-4.02344-6.86133-6.96973c-1.67676-2.94531-2.51465-6.31055-2.51465-10.09473,0-3.7832,.83789-7.14941,2.51465-10.09473,1.67578-2.94629,3.96289-5.26855,6.86133-6.96973,2.89844-1.69922,6.19043-2.55078,9.87988-2.55078,3.63965,0,6.90918,.85156,9.80762,2.55078,2.89746,1.70117,5.18457,4.02344,6.86133,6.96973,1.67676,2.94531,2.51465,6.31152,2.51465,10.09473,0,3.78418-.83789,7.14941-2.51465,10.09473-1.67676,2.94629-3.96387,5.26953-6.86133,6.96973-2.89844,1.7002-6.16797,2.55078-9.80762,2.55078Zm0-6.75391c2.25098,0,4.2627-.5625,6.03516-1.68848,1.77148-1.125,3.16113-2.65918,4.16699-4.59863,1.00684-1.94043,1.48438-4.13184,1.4375-6.57422,.04688-2.49023-.43066-4.70605-1.4375-6.64648-1.00586-1.93945-2.39551-3.45996-4.16699-4.5625-1.77246-1.10059-3.78418-1.65234-6.03516-1.65234-2.25195,0-4.27539,.56348-6.07129,1.68848-1.7959,1.12598-3.19727,2.6582-4.20312,4.59863-1.00586,1.93945-1.48535,4.13086-1.4375,6.57422-.04785,2.44238,.43164,4.63379,1.4375,6.57422,1.00586,1.93945,2.40723,3.47363,4.20312,4.59863,1.7959,1.12598,3.81934,1.68848,6.07129,1.68848Z"/><path class="cls-1" d="M645.674,169.28091c-3.44824,0-6.52734-.85059-9.23242-2.55078-2.70703-1.7002-4.84961-4.02344-6.43066-6.96973-1.58105-2.94531-2.37109-6.31055-2.37109-10.09473,0-3.7832,.77832-7.14941,2.33496-10.09473,1.55566-2.94629,3.67578-5.26855,6.3584-6.96973,2.68262-1.69922,5.72363-2.55078,9.125-2.55078,1.86816,0,3.67578,.2998,5.4248,.89844,1.74805,.59961,3.31641,1.41309,4.70605,2.44238,1.38867,1.03125,2.47949,2.15625,3.26953,3.37695,.79004,1.22168,1.18555,2.45605,1.18555,3.7002l-2.15527,.14453v-25.21973h7.40039v53.16895h-7.40039v-8.98145h1.43652c0,1.14941-.38379,2.28809-1.14941,3.41309-.7666,1.12598-1.78516,2.16797-3.05371,3.125-1.26953,.95898-2.73047,1.72461-4.38281,2.2998-1.65234,.57422-3.34082,.8623-5.06543,.8623Zm1.00586-6.39453c2.25098,0,4.23926-.5752,5.96387-1.72461s3.07715-2.71777,4.05957-4.70605c.98145-1.9873,1.47266-4.25098,1.47266-6.79004,0-2.53809-.49121-4.80176-1.47266-6.79004-.98242-1.9873-2.33496-3.55664-4.05957-4.70605s-3.71289-1.72461-5.96387-1.72461c-2.25195,0-4.23926,.5752-5.96289,1.72461-1.72461,1.14941-3.0791,2.71875-4.05957,4.70605-.98242,1.98828-1.47363,4.25195-1.47363,6.79004,0,2.53906,.49121,4.80273,1.47363,6.79004,.98047,1.98828,2.33496,3.55664,4.05957,4.70605,1.72363,1.14941,3.71094,1.72461,5.96289,1.72461Z"/><path class="cls-1" d="M694.39587,169.28091c-3.87988,0-7.31738-.82617-10.31055-2.47949-2.99414-1.65234-5.3418-3.91504-7.04102-6.78906-1.70117-2.87402-2.55078-6.17969-2.55078-9.91602,0-2.96875,.47852-5.67578,1.43652-8.11914,.95801-2.44238,2.28711-4.5625,3.98828-6.3584,1.69922-1.7959,3.73633-3.18457,6.10742-4.16699,2.37109-.98145,4.94531-1.47266,7.72363-1.47266,2.44238,0,4.71777,.4668,6.8252,1.40039,2.10742,.93457,3.93945,2.2168,5.49707,3.84375,1.55566,1.62988,2.75391,3.55664,3.59277,5.78418,.83691,2.22754,1.23242,4.65918,1.18555,7.29297l-.07227,3.16113h-30.82324l-1.65332-5.8916h26.08203l-1.07812,1.22168v-1.72461c-.14355-1.58008-.6709-2.99316-1.58008-4.23926-.91113-1.24512-2.06055-2.22754-3.44922-2.94531-1.38965-.71875-2.89844-1.07812-4.52637-1.07812-2.58691,0-4.7666,.49219-6.53809,1.47266-1.77344,.98242-3.11426,2.41992-4.02441,4.31152-.91016,1.89258-1.36426,4.22754-1.36426,7.00488,0,2.63477,.5498,4.92188,1.65234,6.8623,1.10156,1.93945,2.6582,3.4375,4.66992,4.49023,2.01172,1.05469,4.33496,1.58105,6.96973,1.58105,1.86816,0,3.60352-.31152,5.20898-.93457,1.60449-.62207,3.34082-1.74805,5.20898-3.37695l3.73633,5.24512c-1.14941,1.14941-2.55078,2.15527-4.20313,3.01758s-3.40137,1.54492-5.24512,2.04785c-1.84473,.50293-3.65332,.75488-5.4248,.75488Z"/><path class="cls-1" d="M732.45446,169.28091c-3.16113,0-6.01172-.55176-8.5498-1.65234-2.54004-1.10156-4.64746-2.73047-6.32324-4.88672l5.0293-4.31055c1.4375,1.67773,3.00586,2.88672,4.70605,3.62891,1.7002,.74316,3.62891,1.11328,5.78418,1.11328,.8623,0,1.66406-.10742,2.40723-.32324,.74219-.21582,1.38867-.53906,1.93945-.96973,.55078-.43164,.9707-.94531,1.25781-1.54492,.28711-.59863,.43066-1.25781,.43066-1.97656,0-1.24414-.45508-2.25098-1.36523-3.01758-.47852-.33398-1.2334-.70605-2.2627-1.11328-1.03125-.40625-2.36035-.82617-3.98828-1.25781-2.77832-.71777-5.05371-1.53223-6.8252-2.44238-1.77246-.90918-3.1377-1.94043-4.0957-3.08984-.71875-.90918-1.24609-1.9043-1.58105-2.98145-.33496-1.07812-.50293-2.26367-.50293-3.55664,0-1.58105,.34766-3.0293,1.04199-4.34668s1.65234-2.4668,2.87402-3.44922c1.22168-.98145,2.65918-1.73535,4.31152-2.26367,1.65234-.52637,3.41211-.79004,5.28027-.79004,1.77246,0,3.53223,.24023,5.28125,.71875,1.74805,.47949,3.36426,1.17383,4.84961,2.08398,1.48438,.91016,2.73047,1.9873,3.73633,3.23242l-4.23926,4.6709c-.91016-.90918-1.90332-1.71191-2.98145-2.40723-1.07812-.69336-2.16797-1.23242-3.26953-1.61621-1.10156-.38281-2.1084-.5752-3.01758-.5752-1.00586,0-1.91602,.09668-2.73047,.28711-.81445,.19238-1.49707,.47949-2.04688,.8623-.55176,.38379-.9707,.8623-1.25781,1.4375-.28711,.57422-.43066,1.2207-.43066,1.93945,.04688,.62305,.20312,1.20996,.4668,1.76074,.2627,.55078,.63379,1.01758,1.11328,1.40039,.52637,.38477,1.31738,.79102,2.37109,1.22168,1.05371,.43164,2.39453,.83887,4.02344,1.22168,2.39453,.62305,4.37109,1.30566,5.92773,2.04785,1.55664,.74316,2.79004,1.59277,3.7002,2.55078,.95801,.91016,1.62793,1.96387,2.01172,3.16113,.38281,1.19824,.5752,2.53906,.5752,4.02344,0,2.15527-.61035,4.08398-1.83203,5.78418-1.22168,1.70117-2.86328,3.03027-4.92188,3.9873-2.05957,.95801-4.35938,1.4375-6.89746,1.4375Z"/></g><g><path class="cls-1" d="M128.76306,95.63887c-18.19696,0-32.94855,14.75171-32.94855,32.94873,0,5.96094,1.5921,11.51343,4.32776,16.33105l24.21106,41.93066c.98077,1.6958,2.69794,2.54272,4.4093,2.54102,1.71136,.00171,3.42853-.84521,4.4093-2.54102l24.21112-41.93066c2.7356-4.81763,4.32764-10.37012,4.32855-16.33105,0-18.19702-14.75159-32.94873-32.94855-32.94873Zm.00244,42.26709c-6.2511,0-11.31866-5.06738-11.31866-11.31836s5.06757-11.3186,11.31866-11.3186,11.31842,5.06763,11.31842,11.3186-5.0675,11.31836-11.31842,11.31836Z"/><path class="cls-2" d="M198.01531,141.91059c-.04065-.04077-24.21106-41.93042-24.21106-41.93042-.98077-1.69604-2.69794-2.54297-4.4093-2.54126-1.71136-.00171-3.42853,.84521-4.4093,2.54126,0,0-24.17047,41.88965-24.21112,41.93042-2.7356,4.81763-4.32764,10.37036-4.32855,16.3313,0,18.19678,14.75159,32.94849,32.94855,32.94849s32.94855-14.75171,32.94855-32.94849c0-5.96094-1.5921-11.51367-4.32776-16.3313Zm-28.62061,29.64966c-6.25116,0-11.31873-5.06738-11.31873-11.31836s5.06757-11.3186,11.31873-11.3186,11.31836,5.06763,11.31836,11.3186-5.0675,11.31836-11.31836,11.31836Z"/><path class="cls-3" d="M161.7116,128.5876c0-5.75635-1.47961-11.16553-4.07391-15.87427-7.11505,12.32861-16.8374,29.17139-16.86316,29.19727-2.7356,4.81763-4.32764,10.37036-4.32855,16.3313,0,5.75781,1.48047,11.16821,4.07611,15.87793l16.86096-29.20117c2.7356-4.81763,4.32764-10.37012,4.32855-16.33105Z"/></g></svg>