<svg width="20" height="20" viewBox="0 0 20 20" fill="none" xmlns="http://www.w3.org/2000/svg">
<g id="repeat">
<g id="v2">
<path d="M13.75 6.8327V4.9999H6.25C3.48858 4.9999 1.25 7.23848 1.25 9.9999C1.25 10.7993 1.43713 11.5532 1.7694 12.2218C1.92301 12.5309 1.79696 12.906 1.48785 13.0596C1.17873 13.2132 0.803619 13.0872 0.650003 12.7781C0.233756 11.9405 0 10.9966 0 9.9999C0 6.54812 2.79822 3.7499 6.25 3.7499H13.75V1.9171C13.75 1.65215 14.059 1.50742 14.2626 1.67703L17.2119 4.13483C17.3618 4.25977 17.3618 4.49003 17.2119 4.61497L14.2626 7.07277C14.059 7.24239 13.75 7.09765 13.75 6.8327Z" fill="black"/>
<path d="M18.5122 6.94021C18.8213 6.78659 19.1964 6.91265 19.35 7.22176C19.7662 8.05935 20 9.00322 20 9.9999C20 13.4517 17.2018 16.2499 13.75 16.2499H6.25V18.0827C6.25 18.3476 5.94098 18.4924 5.73744 18.3228L2.78808 15.865C2.63816 15.74 2.63816 15.5098 2.78808 15.3848L5.73744 12.927C5.94098 12.7574 6.25 12.9022 6.25 13.1671V14.9999H13.75C16.5114 14.9999 18.75 12.7613 18.75 9.9999C18.75 9.20053 18.5629 8.44666 18.2306 7.77805C18.077 7.46894 18.203 7.09382 18.5122 6.94021Z" fill="black"/>
</g>
</g>
</svg>
