<svg width="24" height="24" viewBox="0 0 24 24" fill="none" xmlns="http://www.w3.org/2000/svg">
<circle cx="12" cy="12" r="12" fill="#2792E0"/>
<path d="M13.336 13.496H11.208L11.192 13.08C11.144 12.264 11.416 11.432 12.136 10.584C12.648 9.96 13.064 9.432 13.064 8.904C13.064 8.344 12.696 7.96 11.896 7.944C11.368 7.944 10.728 8.136 10.312 8.424L9.768 6.68C10.36 6.344 11.304 6.024 12.44 6.024C14.552 6.024 15.528 7.192 15.528 8.52C15.528 9.736 14.76 10.536 14.152 11.208C13.576 11.864 13.32 12.488 13.336 13.208V13.496ZM12.216 17.176C11.368 17.176 10.792 16.552 10.792 15.72C10.792 14.856 11.384 14.264 12.216 14.264C13.08 14.264 13.64 14.856 13.656 15.72C13.656 16.552 13.096 17.176 12.216 17.176Z" fill="white"/>
</svg>
