<svg width="89" height="52" viewBox="0 0 89 52" fill="none" xmlns="http://www.w3.org/2000/svg">
<g id="Frame" clip-path="url(#clip0_767_3189)">
<path id="Vector" d="M7.90239 51.5693C7.90239 51.5693 -2.83397 38.6511 2.41322 25.3515C5.83346 16.6825 18.6621 11.9324 25.9038 16.6825C28.9876 18.7057 38.8812 16.7507 44.1638 8.37478C54.4296 -7.90174 90.2575 1.98343 83.734 26.9736C80.5775 39.0669 93.3403 39.505 86.8373 51.5951L7.90239 51.5693Z" fill="#F3E7EC"/>
<path id="Vector_2" d="M29.316 51.4778H29.338C29.5177 51.4746 29.6572 51.3279 29.6394 51.1589L28.4407 39.1992L27.3945 39.2923L29.1158 51.3164C29.124 51.363 29.1488 51.4049 29.1856 51.4346C29.2224 51.4642 29.2687 51.4796 29.316 51.4778Z" fill="#9F2F5E"/>
<path id="Vector_3" d="M17.7702 51.4778H17.7482C17.5685 51.4746 17.429 51.3279 17.4469 51.1589L18.6456 39.1992L19.6917 39.2923L17.9704 51.3164C17.9622 51.363 17.9375 51.405 17.9006 51.4347C17.8638 51.4643 17.8175 51.4797 17.7702 51.4778Z" fill="#9F2F5E"/>
<path id="Vector_4" d="M37.773 51.4778H37.795C37.9748 51.4746 38.1143 51.3279 38.0964 51.1589L36.8977 39.1992L35.8516 39.2923L37.5732 51.3164C37.5813 51.363 37.606 51.405 37.6427 51.4346C37.6795 51.4643 37.7258 51.4796 37.773 51.4778Z" fill="#8CB4F4"/>
<path id="Vector_5" d="M18.1267 37.4583L15.9984 26.9609C15.7255 25.5397 16.9044 24.2403 18.4354 24.2751L22.5395 24.3688C23.2296 24.3842 23.8968 24.6192 24.4439 25.0396C24.991 25.4601 25.3894 26.0441 25.5811 26.7064L28.6949 37.4583H18.1267Z" fill="#9F2F5E"/>
<path id="Vector_6" d="M19.4139 37.4583L17.2855 26.9609C17.0126 25.5397 18.1915 24.2403 19.7225 24.2751L23.8266 24.3688C24.5165 24.3845 25.1835 24.6196 25.7303 25.04C26.2772 25.4605 26.6755 26.0443 26.8673 26.7064L29.9807 37.4583H19.4139Z" fill="#9F2F5E"/>
<path id="Vector_7" d="M34.9576 39.3721H18.7197C18.5624 39.3721 18.4115 39.3097 18.3003 39.1985C18.189 39.0874 18.1265 38.9367 18.1265 38.7796V37.456H34.9576C35.115 37.456 35.2658 37.5184 35.3771 37.6295C35.4883 37.7406 35.5508 37.8913 35.5508 38.0485V38.778C35.551 38.856 35.5358 38.9332 35.5061 39.0052C35.4764 39.0773 35.4327 39.1428 35.3776 39.198C35.3225 39.2532 35.2571 39.2969 35.185 39.3268C35.1129 39.3567 35.0357 39.3721 34.9576 39.3721Z" fill="#9F2F5E"/>
<path id="Vector_8" d="M26.341 39.3721H36.692C36.956 39.3721 37.1699 39.1584 37.1699 38.8947V37.9349C37.1699 37.6713 36.956 37.4576 36.692 37.4576H26.341C26.077 37.4576 25.8631 37.6713 25.8631 37.9349V38.8947C25.8631 39.1584 26.077 39.3721 26.341 39.3721Z" fill="#9F2F5E"/>
<path id="Vector_9" d="M32.2717 35.2608C31.3932 36.7878 30.2883 37.3774 30.2883 37.3774H25.6914C25.6914 37.3774 32.9418 34.0963 32.2717 35.2608Z" fill="#233862"/>
<path id="Vector_10" d="M37.9427 50.4335C37.8933 50.915 38.564 51.0394 39.3419 51.0865C40.1199 51.1337 39.8846 51.2903 40.9477 51.4947C42.0107 51.6991 42.4429 51.4121 42.5215 51.2689C42.5917 51.1414 42.0978 50.937 41.5718 50.7055C41.5057 50.6768 41.4393 50.6468 41.3729 50.6172C40.781 50.3493 40.4528 49.813 39.9944 49.314C39.5603 48.8414 39.1593 47.337 39.1593 47.337L37.7129 47.0137C37.7129 47.0137 38.1055 48.3666 38.2406 48.9438C38.3201 49.2834 38.1933 49.6606 38.081 49.9476C38.0209 50.1038 37.96 50.2636 37.9427 50.4335Z" fill="#FDBAA0"/>
<path id="Vector_11" d="M39.3411 51.0872C40.1191 51.1344 39.8838 51.291 40.9469 51.4954C42.0099 51.6998 42.4421 51.4128 42.5207 51.2696C42.5909 51.1421 42.097 50.9377 41.5709 50.7062L41.5626 50.7151C41.0341 50.8616 40.4756 50.8622 39.9467 50.717C39.2444 50.5181 38.5654 50.0895 38.0805 49.9482C38.0201 50.1045 37.9592 50.2642 37.9419 50.4342C37.8934 50.9157 38.5641 51.04 39.3411 51.0872Z" fill="#800639"/>
<path id="Vector_12" d="M35.751 33.6983C34.9727 33.1524 29.8251 32.1792 27.1978 31.8979L24.2928 29.3789C24.2928 29.3789 21.8214 33.0353 21.8028 35.8328C21.7936 37.1369 22.395 37.2676 22.3953 37.2676C22.3957 37.2676 31.7035 37.3365 32.1118 37.3786C32.7796 37.4472 33.6603 39.1091 33.8806 40.6228C34.1009 42.1364 37.9824 48.2928 37.9824 48.2928C37.9824 48.2928 38.7917 48.552 39.1661 48.53C39.5687 48.5064 39.7551 48.3706 39.7551 48.3706C39.7551 48.3706 37.5061 34.9278 35.751 33.6983Z" fill="#445D78"/>
<path id="Vector_13" d="M35.5345 50.4341C35.4847 50.9156 36.1558 51.04 36.9337 51.0872C37.7117 51.1344 37.4764 51.2909 38.5395 51.4953C39.6025 51.6997 40.0347 51.4127 40.1133 51.2696C40.1835 51.142 39.6896 50.9376 39.1635 50.7061C39.0975 50.6774 39.0311 50.6474 38.9647 50.6178C38.3728 50.3499 38.0446 49.8136 37.5862 49.3146C37.1521 48.842 36.7508 47.3376 36.7508 47.3376L35.3047 47.0127C35.3047 47.0127 35.6973 48.3656 35.8324 48.9428C35.9119 49.2824 35.7851 49.6596 35.6728 49.9466C35.6127 50.1044 35.5518 50.2642 35.5345 50.4341Z" fill="#FDBAA0"/>
<path id="Vector_14" d="M36.933 51.0872C37.711 51.1344 37.4757 51.291 38.5388 51.4954C39.6018 51.6998 40.034 51.4128 40.1126 51.2696C40.1828 51.1421 39.689 50.9377 39.1629 50.7062L39.1546 50.7151C38.626 50.8616 38.0676 50.8622 37.5386 50.717C36.8363 50.5181 36.1573 50.0895 35.6724 49.9482C35.6121 50.1045 35.5511 50.2642 35.5339 50.4342C35.4841 50.9157 36.1551 51.04 36.933 51.0872Z" fill="#800639"/>
<path id="Vector_15" d="M33.3236 33.6986C32.6478 33.2244 30.6143 32.8568 28.3695 32.5825C28.0663 32.5454 27.7815 32.4174 27.5527 32.2153C27.3238 32.0132 27.1617 31.7466 27.0878 31.4506L21.8671 29.3779C21.8671 29.3779 19.3953 33.0344 19.3771 35.8318C19.3678 37.1359 19.9696 37.2667 19.9696 37.2667C19.9696 37.2667 29.278 37.3355 29.686 37.3776C30.3538 37.4462 31.2346 39.1081 31.4548 40.6218C31.6751 42.1354 35.5566 48.2918 35.5566 48.2918C35.5566 48.2918 36.3662 48.551 36.7403 48.529C37.1429 48.5054 37.3293 48.3696 37.3293 48.3696C37.3293 48.3696 35.0787 34.9281 33.3236 33.6986Z" fill="#445D78"/>
<path id="Vector_16" d="M26.3376 14.1865C25.62 13.8102 24.5285 13.7592 24.351 13.7353C22.2288 13.4506 20.9515 16.5308 20.8762 17.466C20.738 19.1879 19.8266 19.4487 18.5458 20.5272C15.9741 22.6878 16.7284 25.1982 18.1343 26.1309C18.978 26.6905 20.4647 26.1309 20.4647 26.1309C20.4854 26.1456 24.5314 23.8717 26.5259 22.7748C29.5149 22.3466 28.1658 15.1453 26.3376 14.1865Z" fill="#445D78"/>
<path id="Vector_17" d="M25.8944 21.7126C25.9036 21.7173 24.9514 22.15 24.2641 21.9233C23.6173 21.7103 23.0478 20.7378 23.0567 20.7365C23.3373 20.6957 23.6227 20.4176 23.7025 18.7803L23.8267 18.8122L25.9167 19.3396C25.9167 19.3396 25.8341 20.0009 25.7999 20.6262C25.7712 21.1507 25.7769 21.6504 25.8944 21.7126Z" fill="#FDBAA0"/>
<path id="Vector_18" d="M26.3604 19.4229C26.3604 19.4229 23.5965 19.8722 23.3427 18.1475C23.0889 16.4227 22.5615 15.3214 24.3154 14.9617C26.0692 14.602 26.5094 15.2088 26.7342 15.7636C26.9589 16.3185 27.0726 19.2616 26.3604 19.4229Z" fill="#FDBAA0"/>
<path id="Vector_19" d="M26.3646 14.8899C26.3646 14.8899 25.1094 16.8688 23.9892 17.3375C22.869 17.8063 22.3184 17.5684 22.3184 17.5684C22.6543 17.0159 22.8729 16.4003 22.9607 15.7598C22.9792 15.6095 23.0376 15.467 23.1299 15.3469C23.2222 15.2268 23.345 15.1335 23.4855 15.0768C24.2896 14.756 25.8449 14.2477 26.3646 14.8899Z" fill="#445D78"/>
<path id="Vector_20" d="M25.2637 15.0814C25.2637 15.0814 25.9979 15.4596 26.3015 15.8103C26.5939 16.1509 26.9313 17.0756 26.908 17.4908C26.908 17.4908 27.2707 15.501 26.5151 14.8171C25.7128 14.0926 25.2637 15.0814 25.2637 15.0814Z" fill="#445D78"/>
<path id="Vector_21" d="M28.1051 25.9228C28.0211 31.5349 28.0821 30.3618 27.4666 30.8943C27.3185 31.0218 26.9022 31.0987 26.3544 31.135C24.6305 31.2492 21.6039 30.9657 21.4887 30.6478C21.0912 29.5474 21.3718 29.2055 21.0418 27.521C21.0073 27.3421 20.9645 27.1482 20.9141 26.9368C20.6376 25.78 20.3688 25.3865 21.3492 23.5278C22.2386 21.8442 23.2844 20.4766 23.3674 20.5257C25.7134 21.9169 25.7935 20.7508 25.7935 20.7508C25.7935 20.7508 28.1469 23.186 28.1051 25.9228Z" fill="white"/>
<path id="Vector_22" d="M25.793 20.751C25.793 20.751 28.1939 21.1575 28.4774 22.1958C28.7609 23.234 30.4292 29.3384 30.4292 29.3384C30.4292 29.3384 29.202 29.5584 28.6351 28.9921C28.0681 28.4258 26.6622 23.7381 26.6622 23.7381L25.793 20.751Z" fill="white"/>
<path id="Vector_23" d="M26.3537 31.1352C24.6298 31.2494 21.6032 30.9659 21.4879 30.648C21.0905 29.5476 21.3711 29.2058 21.041 27.5212L21.871 25.1846C21.871 25.1846 21.7337 27.7868 22.5021 28.4711C23.2705 29.1554 25.6478 29.7925 26.021 30.3645C26.2007 30.6378 26.3192 30.914 26.3537 31.1352Z" fill="white"/>
<path id="Vector_24" d="M24.3809 30.0411C24.3809 30.0411 26.0801 29.6632 26.3543 29.8137C26.6286 29.9642 27.2986 30.513 27.3826 30.704C27.4665 30.895 26.7722 30.5589 26.5462 30.4987C26.4 30.4594 26.015 30.5943 25.8244 30.6581C25.0225 30.925 24.5309 30.7879 24.5309 30.7879L24.3809 30.0411Z" fill="#FDBAA0"/>
<path id="Vector_25" d="M23.3667 20.5254C23.3667 20.5254 20.9613 20.666 20.1715 21.7664C19.0596 23.3155 16.8537 29.9176 18.1179 30.7967C19.5417 31.7884 24.5983 31.0563 24.5983 31.0563C24.5983 31.0563 24.7665 30.2706 24.5325 29.8908C24.2985 29.511 20.4943 28.8969 20.3187 28.7215C20.1431 28.5461 22.5134 25.3017 22.5134 24.7756C22.5134 24.2494 23.3667 20.5254 23.3667 20.5254Z" fill="white"/>
<path id="Vector_26" d="M26.4355 30.2861C26.4355 30.2861 26.7915 30.745 26.9083 30.7998C27.0252 30.8547 27.0999 30.8406 27.0999 30.8406L26.8598 30.4095L26.4355 30.2861Z" fill="#FFB27D"/>
<path id="Vector_27" d="M26.3555 29.8135L27.3907 30.3157C27.3907 30.3157 27.3467 30.3878 27.2193 30.382C27.0919 30.3763 26.7701 30.2586 26.7701 30.2586L26.3555 29.8135Z" fill="#FDBAA0"/>
<path id="Vector_28" d="M30.1676 31.0028H25.3594C25.3594 30.9013 25.3997 30.8039 25.4716 30.7322C25.5434 30.6604 25.6409 30.6201 25.7425 30.6201H30.1676V31.0028Z" fill="#800639"/>
<path id="Vector_29" d="M30.1553 25.7734H37.5893L35.806 31.0041H28.3242L30.1553 25.7734Z" fill="#800639"/>
<path id="Vector_30" d="M37.6986 25.7734L35.9154 31.0041H28.4336L30.2647 25.7734H37.6986Z" fill="#800639"/>
<path id="Vector_31" d="M33.6903 28.3395C33.644 28.5394 33.4445 28.7014 33.2434 28.7014C33.0422 28.7014 32.9187 28.5394 32.9647 28.3395C33.0106 28.1395 33.2105 27.9775 33.4116 27.9775C33.6127 27.9775 33.7363 28.1395 33.6903 28.3395Z" fill="white"/>
<path id="Vector_32" d="M56.2764 31.0029H23.6992C23.5622 31.0029 23.4512 31.1139 23.4512 31.2507V31.9318C23.4512 32.0686 23.5622 32.1795 23.6992 32.1795H56.2764C56.4134 32.1795 56.5244 32.0686 56.5244 31.9318V31.2507C56.5244 31.1139 56.4134 31.0029 56.2764 31.0029Z" fill="#445D78"/>
<path id="Vector_33" d="M57.0725 51.5652H57.0866C57.1258 51.5608 57.1638 51.5488 57.1983 51.5297C57.2329 51.5106 57.2633 51.4849 57.2878 51.454C57.3124 51.4231 57.3306 51.3876 57.3413 51.3497C57.3521 51.3118 57.3552 51.2721 57.3506 51.2329L54.4475 31.6045L53.3848 31.6364L56.8005 51.3707C56.8126 51.4316 56.8474 51.4856 56.898 51.5217C56.9485 51.5579 57.0109 51.5734 57.0725 51.5652Z" fill="#445D78"/>
<path id="Vector_34" d="M22.608 51.5652H22.5942C22.555 51.5608 22.517 51.5488 22.4825 51.5297C22.4479 51.5106 22.4175 51.4849 22.3929 51.454C22.3684 51.4231 22.3502 51.3876 22.3395 51.3497C22.3287 51.3118 22.3256 51.2721 22.3302 51.2329L25.2333 31.6045L26.296 31.6364L22.8803 51.3707C22.8683 51.4317 22.8334 51.4858 22.7828 51.522C22.7322 51.5581 22.6696 51.5736 22.608 51.5652Z" fill="#445D78"/>
<path id="Vector_35" d="M29.3289 51.5652H29.3149C29.2757 51.5608 29.2377 51.5487 29.2032 51.5296C29.1687 51.5105 29.1383 51.4848 29.1137 51.4539C29.0892 51.423 29.071 51.3876 29.0602 51.3497C29.0494 51.3117 29.0463 51.2721 29.0509 51.2329L31.954 31.6045L33.0167 31.6364L29.6009 51.3707C29.5889 51.4316 29.554 51.4856 29.5035 51.5217C29.453 51.5579 29.3905 51.5734 29.3289 51.5652Z" fill="#445D78"/>
<path id="Vector_36" d="M89.0343 51.3789H-1.18928C-1.25733 51.3789 -1.3125 51.434 -1.3125 51.502V51.6031C-1.3125 51.671 -1.25733 51.7262 -1.18928 51.7262H89.0343C89.1023 51.7262 89.1575 51.671 89.1575 51.6031V51.502C89.1575 51.434 89.1023 51.3789 89.0343 51.3789Z" fill="#2E3552"/>
<path id="Vector_37" d="M46.4551 51.5488H52.2156C52.4927 51.2111 52.3909 49.965 52.3487 49.5581C52.3401 49.4762 52.3344 49.4284 52.3344 49.4284C52.3344 49.4284 50.3669 47.8567 50.0969 49.0601C50.0886 49.098 50.0787 49.1347 50.0678 49.1714C49.7272 50.2969 48.2003 50.8084 47.3186 50.9509C46.7453 51.0453 46.5333 51.3412 46.4551 51.5488Z" fill="#800639"/>
<path id="Vector_38" d="M62.1714 32.8516C61.9636 32.8516 52.3036 34.6634 50.7059 36.6387C49.9078 37.6272 49.7891 49.0238 49.7891 49.0238C49.7891 49.0238 50.7768 50.247 52.9095 49.5369C52.9095 49.5369 54.4738 41.7384 54.3576 39.373C54.3256 38.719 60.9577 39.2773 62.1714 38.9645C63.3851 38.6517 66.3511 36.0134 65.6976 34.7284C65.0441 33.4434 62.1714 32.8516 62.1714 32.8516Z" fill="#445D78"/>
<path id="Vector_39" d="M50.7489 30.0596C50.7489 30.0596 48.8016 30.0857 48.3396 30.2828C47.8777 30.4798 46.944 30.9329 47.1942 31.0025C47.4445 31.072 48.6381 30.9738 48.8957 31.0133C49.1533 31.0528 49.4719 31.0021 49.63 31.0025H50.5238L50.7489 30.0596Z" fill="#FDBAA0"/>
<path id="Vector_40" d="M48.4715 25.3896C48.4715 25.3896 47.8071 24.9155 47.1626 24.8233C46.7945 24.771 46.437 24.7054 46.2209 24.6295C45.6255 24.42 44.4332 23.3502 44.5245 23.2245C44.8134 22.8225 46.204 23.6735 46.4466 23.5823C46.6892 23.4911 45.9802 22.9873 46.2269 22.81C46.3546 22.7175 46.657 23.1812 46.9034 23.2277C47.2367 23.2915 47.4972 23.7609 47.5977 23.7854C47.7928 23.8333 48.6483 24.4688 48.6483 24.4688L48.4715 25.3896Z" fill="#FDBAA0"/>
<path id="Vector_41" d="M61.2113 19.8525C61.2113 19.8525 59.7282 20.3117 58.2667 24.3313C56.8053 28.351 56.2505 28.5681 55.7193 28.7247C55.1881 28.8812 50.5254 29.8088 50.5254 29.8088V31.002H57.71C57.71 31.002 60.4037 28.4421 61.2113 26.719C62.019 24.9958 61.2113 19.8525 61.2113 19.8525Z" fill="#9F2F5E"/>
<path id="Vector_42" d="M43.9082 51.5488H49.6687C49.9458 51.2111 49.8437 49.965 49.8018 49.5581C49.7932 49.4762 49.7872 49.4284 49.7872 49.4284C49.7872 49.4284 47.8201 47.8567 47.55 49.0601C47.5417 49.098 47.5315 49.1347 47.5206 49.1714C47.1803 50.2969 45.6534 50.8084 44.7717 50.9509C44.1984 51.0453 43.9864 51.3412 43.9082 51.5488Z" fill="#800639"/>
<path id="Vector_43" d="M59.328 32.8516C59.1198 32.8516 49.4602 34.6634 47.8621 36.6387C47.0641 37.6272 46.9453 49.0238 46.9453 49.0238C46.9453 49.0238 47.933 50.247 50.0658 49.5369C50.0658 49.5369 51.63 41.7384 51.5138 39.373C51.4819 38.719 58.1139 39.2773 59.328 38.9645C60.542 38.6517 63.5073 36.0134 62.8539 34.7284C62.2004 33.4434 59.328 32.8516 59.328 32.8516Z" fill="#445D78"/>
<path id="Vector_44" d="M59.9304 21.1263C60.6254 21.0693 61.3539 20.884 61.9837 20.6799C62.7709 20.4248 63.4052 20.0521 62.9966 19.3334C62.6196 18.6711 62.0099 17.1915 62.0511 15.9658L60.5861 17.1456L59.5917 17.9469C59.5917 17.9469 59.5955 18.4189 59.7044 19.2463C59.7242 19.3971 59.7475 19.5601 59.7749 19.7342C59.7858 19.803 59.776 19.8734 59.747 19.9367C59.7179 20 59.6708 20.0534 59.6115 20.09L59.5888 20.1041C59.0944 20.413 59.3488 21.1745 59.9304 21.1263Z" fill="#FDBAA0"/>
<path id="Vector_45" d="M58.7709 17.8941C58.7709 17.8941 62.1832 18.46 62.5034 16.3316C62.8236 14.2032 63.4799 12.8439 61.3149 12.3923C59.1499 11.9408 58.6033 12.6889 58.3237 13.3732C58.044 14.0575 57.8918 17.6906 58.7709 17.8941Z" fill="#FDBAA0"/>
<path id="Vector_46" d="M57.8255 12.434C57.679 12.9464 58.071 13.5704 58.7293 13.7761C59.7065 14.0809 59.4903 15.2783 59.9302 15.262C60.3701 15.2457 60.5473 14.5739 60.94 15.1105C61.2752 15.5684 60.6613 16.1115 60.7034 16.3624C60.7759 16.7935 61.452 17.6755 62.0611 17.6312C62.6702 17.5869 63.8102 14.6951 63.5822 13.8003C63.3543 12.9056 62.4423 11.9624 61.5791 11.8323C60.7159 11.7022 59.5175 12.0743 59.2407 12.0743C58.9639 12.0743 57.9031 12.1572 57.8255 12.434Z" fill="#445D78"/>
<path id="Vector_47" d="M65.7465 22.8059C65.2533 20.8231 63.8908 18.7441 62.9686 18.7441C61.3979 18.747 59.1403 19.1612 58.2289 21.4073C57.5586 23.0616 56.6618 32.5772 57.6741 33.2541C59.9876 34.8013 65.3503 37.9593 66.3029 34.7388C67.176 31.788 66.6024 26.2471 65.7465 22.8059Z" fill="#9F2F5E"/>
<path id="Vector_48" d="M61.93 20.8326C61.8259 20.5618 61.6597 20.3191 61.4448 20.1239C61.2299 19.9287 60.9723 19.7866 60.6925 19.7087C60.4127 19.6309 60.1185 19.6196 59.8336 19.6757C59.5486 19.7319 59.2808 19.8539 59.0515 20.032C58.5184 20.4465 57.8656 21.0361 57.0774 21.8747C54.1465 24.9922 53.5508 24.9728 53.0005 24.9084C52.4501 24.844 47.7996 23.858 47.7996 23.858C47.6421 23.9823 47.5131 24.1389 47.4213 24.3172C47.2342 24.696 47.3284 24.9549 47.3284 24.9549C47.1461 24.8373 48.9769 26.0977 49.888 26.6003C51.0915 27.2642 52.9047 27.8863 53.6268 28.1225C53.8314 28.1894 54.0525 28.1861 54.2551 28.1133C55.327 27.7272 58.9267 26.321 61.8572 23.8807C62.6291 23.2372 62.3453 21.912 61.93 20.8326Z" fill="#9F2F5E"/>
<path id="Vector_49" d="M63.1258 18.7629L62.7702 17.9629C62.7702 17.9629 59.5874 18.2221 59.0527 20.0314C59.0527 20.0314 61.5198 18.8018 63.1258 18.7629Z" fill="white"/>
<path id="Vector_50" d="M70.8531 51.4778H70.8748C71.0545 51.4746 71.194 51.3279 71.1765 51.1589L69.9778 39.1992L68.9316 39.2923L70.6529 51.3164C70.6611 51.363 70.6859 51.405 70.7227 51.4347C70.7595 51.4643 70.8058 51.4797 70.8531 51.4778Z" fill="#800639"/>
<path id="Vector_51" d="M64.6812 51.4778H64.7032C64.883 51.4746 65.0225 51.3279 65.0049 51.1589L63.8059 39.1992L62.7598 39.2923L64.4814 51.3164C64.4895 51.363 64.5142 51.405 64.5509 51.4346C64.5877 51.4643 64.634 51.4796 64.6812 51.4778Z" fill="#800639"/>
<path id="Vector_52" d="M53.0967 51.4778H53.0746C52.8949 51.4746 52.7554 51.3279 52.773 51.1589L53.972 39.1992L55.0181 39.2923L53.2968 51.3164C53.2886 51.363 53.2638 51.4049 53.227 51.4346C53.1902 51.4642 53.1439 51.4796 53.0967 51.4778Z" fill="#800639"/>
<path id="Vector_53" d="M70.5123 37.5034L71.6504 27.5146C71.7995 26.0752 71.3171 24.6658 69.2376 24.5565L65.5789 24.3333C63.4107 24.244 62.4316 26.0465 62.1571 27.4346L59.9863 38.4147L70.5123 37.5034Z" fill="#800639"/>
<path id="Vector_54" d="M53.6634 37.459H70.4946V38.781C70.4946 38.9381 70.4321 39.0888 70.3208 39.1999C70.2096 39.311 70.0587 39.3735 69.9014 39.3735H53.6634C53.5061 39.3735 53.3553 39.311 53.244 39.1999C53.1328 39.0888 53.0703 38.9381 53.0703 38.781V38.0514C53.0703 37.8943 53.1328 37.7436 53.244 37.6325C53.3553 37.5214 53.5061 37.459 53.6634 37.459Z" fill="#800639"/>
<path id="Vector_55" d="M60.447 37.459H70.4954V38.9133C70.4956 38.9739 70.4839 39.0339 70.4608 39.0899C70.4377 39.1459 70.4038 39.1968 70.361 39.2397C70.3183 39.2826 70.2674 39.3166 70.2114 39.3399C70.1554 39.3631 70.0954 39.375 70.0348 39.375H60.447C60.3248 39.375 60.2076 39.3266 60.1213 39.2403C60.0349 39.154 59.9863 39.037 59.9863 38.9149V37.9207C59.9861 37.8601 59.9979 37.8001 60.0209 37.7441C60.044 37.6881 60.0779 37.6372 60.1207 37.5943C60.1635 37.5514 60.2143 37.5174 60.2703 37.4942C60.3263 37.4709 60.3864 37.459 60.447 37.459Z" fill="#800639"/>
</g>
<defs>
<clipPath id="clip0_767_3189">
<rect width="87.8091" height="51.317" fill="white" transform="translate(0.96875 0.40918)"/>
</clipPath>
</defs>
</svg>
