<svg width="83" height="78" viewBox="0 0 83 78" fill="none" xmlns="http://www.w3.org/2000/svg">
<g id="Frame" clip-path="url(#clip0_767_3249)">
<g id="Clip path group">
<mask id="mask0_767_3249" style="mask-type:luminance" maskUnits="userSpaceOnUse" x="0" y="6" width="83" height="65">
<g id="clip-path">
<path id="Vector" d="M1.20869 36.9277C2.71991 52.9233 -7.47301 65.2921 26.8974 69.0573C32.9814 69.7233 41.3897 70.2005 48.4848 70.0625C54.2336 69.9527 60.5564 69.4404 66.1436 67.9946C75.3711 65.6028 82.2451 60.7442 82.4582 51.281C82.6776 41.5978 73.0633 35.2776 74.5987 31.3006C79.3615 18.9922 71.6376 10.0336 56.3831 6.85206C37.0793 2.82671 29.2903 16.1601 21.4187 14.427C8.66211 11.6144 -0.329959 20.6429 1.20869 36.9277Z" fill="white"/>
</g>
</mask>
<g mask="url(#mask0_767_3249)">
<g id="Group">
<path id="Vector_2" d="M1.21064 36.9277C2.72187 52.9233 -7.47106 65.2921 26.8993 69.0573C32.9834 69.7233 41.3916 70.2005 48.4868 70.0625C54.2356 69.9527 60.5583 69.4404 66.1456 67.9946C75.373 65.6028 82.247 60.7442 82.4602 51.281C82.6795 41.5978 73.0653 35.2776 74.6006 31.3006C79.3635 18.9922 71.6396 10.0336 56.3851 6.85206C37.0813 2.82671 29.2923 16.1601 21.4207 14.427C8.66406 11.6144 -0.328006 20.6429 1.21064 36.9277Z" fill="#F3E7EC"/>
<path id="Vector_3" d="M73.0825 22.2524L42.6406 11.1309L28.1126 50.9795L58.5545 62.1011L73.0825 22.2524Z" fill="#800639"/>
<path id="Vector_4" d="M53.4848 23.849C53.0021 25.1794 52.0657 26.2965 50.8407 27.0034C50.7709 27.0437 50.7007 27.0825 50.6294 27.1205C49.4521 27.7406 48.1029 27.9537 46.792 27.7266C45.4812 27.4994 44.2821 26.8448 43.3814 25.8646C42.6572 25.0759 42.1557 24.1085 41.9285 23.0616C41.7013 22.0148 41.7565 20.9262 42.0884 19.9078C42.4204 18.8893 43.0171 17.9777 43.8174 17.2664C44.6176 16.5552 45.5926 16.0699 46.6421 15.8605C47.6916 15.6512 48.7779 15.7252 49.7894 16.075C50.8009 16.4248 51.7012 17.0378 52.3978 17.8511C53.0944 18.6643 53.5623 19.6485 53.7533 20.7026C53.9443 21.7567 53.8517 22.8426 53.4848 23.849Z" fill="white"/>
<path id="Vector_5" d="M51.5931 20.3408C50.946 17.4638 48.7051 17.1762 48.7051 17.1762C48.0076 17.1114 47.3299 17.3127 46.775 17.6329C46.22 17.9531 45.7719 18.3863 45.3463 18.8273C44.8653 19.326 44.4056 19.8397 43.9674 20.3686C43.8823 20.4715 43.7953 20.582 43.7876 20.7126C43.781 20.8316 43.8421 20.9501 43.9097 21.0599C44.5136 22.041 45.7009 22.6803 46.8839 23.1117C48.4903 23.6966 50.1864 23.9964 51.8957 23.9977C51.9359 22.7853 51.8658 21.5547 51.5931 20.3408Z" fill="#38516B"/>
<path id="Vector_6" d="M50.6301 27.1223C49.4528 27.7424 48.1036 27.9555 46.7928 27.7283C45.4819 27.5012 44.2828 26.8466 43.3821 25.8664C43.0168 25.4687 42.7069 25.0233 42.4609 24.5424C42.9727 24.3228 43.588 24.1889 44.2617 24.153C44.7846 24.1269 45.3088 24.1549 45.8259 24.2368C46.1099 24.2802 46.3914 24.3383 46.6693 24.411C47.1478 24.535 47.6145 24.701 48.0639 24.9072C48.5331 25.1212 48.9771 25.3868 49.3876 25.6991C49.948 26.1306 50.3757 26.6187 50.6301 27.1223Z" fill="#FFCFBF"/>
<path id="Vector_7" d="M47.8552 26.6006C48.4354 26.6738 47.9613 25.1413 47.9613 25.1413L48.9271 22.9357C49.2089 22.292 48.9406 21.5433 48.3272 21.2637C47.7138 20.9842 47.3965 20.9549 47.1146 21.5986L45.7781 24.3333C45.4963 24.9769 47.0364 26.4971 47.8552 26.6006Z" fill="#FFCFBF"/>
<path id="Vector_8" d="M50.4611 19.3351C50.4611 19.3351 51.1615 23.3238 49.401 23.8442C48.3197 24.1629 47.3539 23.2916 46.2974 21.837C45.3879 20.5833 48.7083 16.1097 50.4611 19.3351Z" fill="#FDBAA0"/>
<path id="Vector_9" d="M47.3081 23.2916C47.7204 23.6744 48.1734 23.9221 48.7298 23.9778C48.8478 23.9895 48.8643 23.7973 48.7458 23.7853C48.2205 23.7329 47.8031 23.4925 47.4152 23.1332C47.3264 23.0512 47.2207 23.2104 47.3081 23.2916Z" fill="#FF9F89"/>
<path id="Vector_10" d="M50.7639 19.7757C50.826 19.5477 50.7606 19.3 50.6396 19.0969C50.5186 18.8938 50.3471 18.7277 50.1757 18.5641C50.0229 18.4177 49.8661 18.2673 49.6734 18.178C49.4808 18.0887 49.2629 18.0657 49.0498 18.0572C48.3954 18.032 47.7239 18.1396 47.1514 18.458C47.1387 18.4614 47.1269 18.4676 47.1169 18.4761C47.1069 18.4847 47.099 18.4954 47.0936 18.5074C47.0883 18.5194 47.0856 18.5325 47.086 18.5456C47.0863 18.5588 47.0895 18.5717 47.0955 18.5835C47.2205 19.0226 47.3857 19.4866 47.2618 19.9272C47.5466 19.8906 47.8248 19.8145 48.1077 19.7655C49.0081 19.6116 49.934 19.7393 50.7591 20.1314L50.7639 19.7757Z" fill="#38516B"/>
<path id="Vector_11" d="M47.9653 19.3056L47.7986 18.9279C47.2068 18.9195 46.6288 19.2166 46.2475 19.6693C45.8663 20.122 45.6714 20.7166 45.6535 21.3091C45.6447 21.6018 45.6828 21.9085 45.8575 22.1412C45.9898 22.3169 46.1865 22.4311 46.3766 22.5405C46.3941 22.5567 46.415 22.5687 46.4378 22.5757C46.4605 22.5828 46.4846 22.5846 46.5082 22.5811C46.5317 22.5776 46.5542 22.5688 46.574 22.5554C46.5937 22.5421 46.6102 22.5245 46.6222 22.5039C47.421 21.6377 47.8761 20.4802 47.9653 19.3056Z" fill="#38516B"/>
<path id="Vector_12" d="M48.2198 17.8434C47.5775 18.0037 47.0987 18.4436 46.6479 18.9047C46.0502 19.5173 45.4518 20.1288 44.8413 20.7285C44.8091 20.7604 44.853 20.816 44.8855 20.7838C45.4436 20.2351 45.995 19.6796 46.5397 19.1173C47.0266 18.6145 47.5293 18.0872 48.2315 17.9119C48.2754 17.9009 48.2648 17.831 48.2206 17.842L48.2198 17.8434Z" fill="#4D6371"/>
<path id="Vector_13" d="M47.5898 19.0008C46.9222 19.8095 46.2916 20.7489 45.4395 21.3739C45.403 21.401 45.4468 21.4559 45.4838 21.4291C46.3421 20.7997 46.9752 19.8556 47.6464 19.0428C47.6757 19.0063 47.6186 18.9656 47.5898 19.0008Z" fill="#4D6371"/>
<path id="Vector_14" d="M50.6301 27.1206C49.4528 27.7407 48.1036 27.9538 46.7928 27.7266C45.4819 27.4995 44.2828 26.8449 43.3821 25.8647C43.0168 25.467 42.7069 25.0216 42.4609 24.5407C42.9727 24.3212 43.588 24.1872 44.2617 24.1514C44.727 24.6106 45.6559 25.4486 46.6663 25.9218C47.1533 26.1501 47.6581 26.2936 48.1396 26.2691C48.5881 26.2464 49.0169 26.0788 49.3879 25.6978C49.948 26.1289 50.3757 26.6171 50.6301 27.1206Z" fill="#384955"/>
<path id="Vector_15" d="M40.3389 29.2313L48.7651 32.2294C49.0575 32.333 49.2341 31.8858 48.9424 31.7819L40.5162 28.7841C40.2237 28.6802 40.0472 29.1274 40.3389 29.2313Z" fill="#D3F0F4"/>
<path id="Vector_16" d="M39.6299 31.1306L45.6828 33.2845L53.3856 36.0251L56.2655 37.0497C56.5579 37.1533 56.7345 36.7061 56.4428 36.6022L50.3898 34.449L42.6871 31.7081L39.8072 30.6834C39.5147 30.5799 39.3382 31.027 39.6299 31.1306Z" fill="#D3F0F4"/>
<path id="Vector_17" d="M50.208 32.8445L61.1854 36.7505L63.6738 37.6357C63.9663 37.7393 64.1428 37.2925 63.8511 37.1886L52.8737 33.2825L50.3853 32.3973C50.0929 32.2937 49.9163 32.7405 50.208 32.8445Z" fill="white"/>
<path id="Vector_18" d="M57.882 37.6608L63.1592 39.53C63.4517 39.6332 63.6286 39.186 63.3369 39.0828L58.0593 37.2136C57.7669 37.1104 57.5899 37.5576 57.882 37.6608Z" fill="white"/>
<path id="Vector_19" d="M38.7868 32.8578C41.4498 33.7456 44.0841 34.7136 46.6895 35.7619C46.9772 35.8776 47.1542 35.43 46.8672 35.3147C44.2627 34.2657 41.6285 33.2976 38.9645 32.4103C38.6721 32.3129 38.4933 32.7597 38.7868 32.8578Z" fill="#D3F0F4"/>
<path id="Vector_20" d="M48.1915 36.2906L62.3822 41.4818C62.6725 41.5883 62.8505 41.1411 62.5595 41.0347L48.3688 35.8434C48.0786 35.7369 47.9005 36.1841 48.1915 36.2906Z" fill="white"/>
<path id="Vector_21" d="M36.9618 36.5679L43.0148 38.7214L50.7175 41.462L53.5974 42.4866C53.8898 42.5901 54.0668 42.143 53.7751 42.039L47.7221 39.8855L40.0194 37.1446L37.1395 36.1199C36.847 36.0164 36.6701 36.4636 36.9618 36.5675V36.5679Z" fill="#D3F0F4"/>
<path id="Vector_22" d="M55.2118 43.0992L60.4894 44.9685C60.7819 45.0717 60.9588 44.6249 60.6667 44.5213L55.3895 42.6521C55.097 42.5489 54.9201 42.9961 55.2118 43.0992Z" fill="white"/>
<path id="Vector_23" d="M36.1172 38.296C38.7799 39.1838 41.4142 40.1518 44.0199 41.2001C44.3072 41.3158 44.4841 40.8682 44.1972 40.7529C41.5929 39.7054 38.9587 38.7373 36.2945 37.8488C36.002 37.7511 35.8233 38.1979 36.1172 38.296Z" fill="#D3F0F4"/>
<path id="Vector_24" d="M45.5258 41.7281L59.7165 46.9197C60.0071 47.0258 60.1848 46.5786 59.8942 46.4722L45.7035 41.2809C45.411 41.1744 45.2352 41.6216 45.5258 41.7281Z" fill="white"/>
<path id="Vector_25" d="M58.466 21.4907L68.2115 24.9214C68.5039 25.0239 68.6809 24.5767 68.3888 24.4739L58.6433 21.0436C58.3508 20.9407 58.1739 21.3879 58.466 21.4907Z" fill="white"/>
<path id="Vector_26" d="M57.9465 22.9037L67.6916 26.3344C67.984 26.4369 68.1613 25.9901 67.8692 25.8873L58.1238 22.4566C57.8313 22.3541 57.6544 22.8009 57.9465 22.9037Z" fill="white"/>
<path id="Vector_27" d="M57.4341 24.6931L66.9482 28.0682C67.2406 28.1714 67.4172 27.7246 67.1255 27.621L57.6099 24.2459C57.3175 24.1424 57.1409 24.5895 57.4326 24.6931H57.4341Z" fill="white"/>
<path id="Vector_28" d="M56.7868 26.6221L61.7624 28.3197C62.0549 28.4192 62.2329 27.972 61.9397 27.8721L56.9641 26.1745C56.6716 26.075 56.4936 26.5222 56.7868 26.6221Z" fill="#D3F0F4"/>
<path id="Vector_29" d="M63.068 28.8866L66.5683 30.1839C66.8586 30.2915 67.0362 29.8439 66.7456 29.7363L63.2457 28.4394C62.9555 28.3318 62.7778 28.779 63.068 28.8866Z" fill="white"/>
<path id="Vector_30" d="M56.1481 28.3794C59.3507 29.5748 62.5826 30.6873 65.8439 31.7168C66.1364 31.8093 66.3166 31.3625 66.0212 31.2692C62.7614 30.2402 59.5295 29.1279 56.3254 27.9322C56.0356 27.8224 55.8579 28.2711 56.1481 28.3794Z" fill="white"/>
<path id="Vector_31" d="M-0.65625 52.7104L11.0223 59.8353C18.3971 55.4184 20.9586 53.8946 20.9626 53.8876C21.2832 53.5177 22.793 51.6466 23.6466 51.1065C22.8131 49.4232 22.3814 48.5537 22.0297 47.8423C22.0297 47.8331 22.3587 34.4565 22.3529 34.4521C21.7241 35.1983 13.7165 45.6895 9.90041 47.7098C9.7626 47.783 9.80646 47.7501 9.78745 47.7812C9.58274 48.1175 5.09475 50.0277 -0.396702 52.2852L-0.65625 52.7104Z" fill="#FDBAA0"/>
<path id="Vector_32" d="M20.5511 37.3858C20.7065 37.4692 24.2572 38.1297 23.8839 38.5886C22.4275 40.3817 22.0272 43.1417 22.6333 44.1227C23.794 46.0019 26.0309 45.2374 26.2729 45.1397L20.4509 50.5977C18.8673 50.8447 10.148 51.1927 10.1582 50.661C10.1995 48.4796 20.1545 37.1732 20.5511 37.3858Z" fill="#FDBAA0"/>
<path id="Vector_33" d="M7.9668 49.0656C7.9668 49.0656 12.0399 46.601 13.9009 43.4832C16.488 39.1493 18.8656 33.8552 19.4575 33.2584C20.4723 32.2338 23.7853 30.2072 24.6872 30.1135C25.589 30.0198 28.5153 29.528 29.1079 29.7596C29.7005 29.9913 27.9293 32.0457 25.7159 33.2258C23.5024 34.406 21.1233 36.4509 21.1233 36.4509L17.5774 47.4961L7.9668 49.0656Z" fill="#FDBAA0"/>
<path id="Vector_34" d="M17.0801 40.3648C17.0801 40.3648 21.0281 32.8158 23.0815 31.8973C25.1348 30.9788 27.5103 30.3267 28.8939 31.1018C30.2775 31.8768 32.8266 34.2148 32.7626 34.6708C32.6987 35.1267 30.4852 35.1732 29.0032 34.5844C27.5212 33.9956 23.5322 35.7444 23.5322 35.7444L19.1513 40.5917L17.0801 40.3648Z" fill="#FDBAA0"/>
<path id="Vector_35" d="M17.4688 47.8354C17.4688 47.8354 21.3196 35.7378 22.353 34.4537C23.3864 33.1696 28.0331 33.5176 29.4814 33.7862C30.9298 34.0548 33.7687 37.5016 33.7665 38.494C33.764 39.7111 31.272 38.8684 29.6964 37.7255C28.2491 36.6757 26.1526 37.2524 25.4343 37.2498C25.2249 37.2498 24.8129 37.5616 24.3742 38.0256C23.8014 38.6305 23.1814 39.4927 22.9017 40.252C21.9549 42.8216 24.8498 45.3752 24.8498 45.3752L17.4688 47.8354Z" fill="#FDBAA0"/>
<path id="Vector_36" d="M55.1727 68.2945L21.793 61.0737L31.2252 17.3789L59.6307 23.5238L63.7294 28.6572L55.1727 68.2945Z" fill="white"/>
<path id="Vector_37" d="M44.3765 29.0917C44.1109 30.3212 43.487 31.4443 42.5837 32.3189C41.6805 33.1934 40.5385 33.7803 39.3021 34.0051C38.0657 34.23 36.7905 34.0828 35.6377 33.5822C34.4848 33.0815 33.5062 32.25 32.8255 31.1926C32.1448 30.1352 31.7925 28.8995 31.8134 27.6417C31.8342 26.3839 32.2271 25.1606 32.9425 24.1264C33.6579 23.0922 34.6635 22.2935 35.8323 21.8314C37.001 21.3693 38.2805 21.2645 39.5087 21.5303C40.3262 21.7032 41.1014 22.0365 41.7895 22.5111C42.4776 22.9856 43.0649 23.5919 43.5176 24.295C43.9702 24.9981 44.2791 25.784 44.4266 26.6073C44.574 27.4306 44.557 28.275 44.3765 29.0917Z" fill="#E9F4F6"/>
<path id="Vector_38" d="M37.5466 23.4473C37.0999 23.4162 36.6225 23.5303 36.3125 23.8864C36.1685 24.0524 36.0792 24.2587 36.0566 24.4774C36.0321 24.7057 36.0631 24.9337 36.077 25.1613C36.0917 25.3959 36.0869 25.6371 35.9725 25.8497C35.8628 26.0495 35.6859 26.2156 35.6435 26.4476C35.5993 26.6884 35.7217 26.9274 35.6523 27.166C35.6157 27.2889 35.5462 27.3972 35.4826 27.5063C35.4176 27.6154 35.3666 27.7323 35.3309 27.8543C35.2538 28.1287 35.2578 28.4266 35.2867 28.7069C35.3094 28.9177 35.3653 29.1409 35.5481 29.2617C35.5846 29.2848 35.6131 29.2251 35.5784 29.2024C35.4092 29.0926 35.3668 28.8672 35.3488 28.6751C35.3254 28.4237 35.3214 28.1628 35.3817 27.9154C35.4132 27.7896 35.4624 27.669 35.528 27.5571C35.5895 27.4597 35.6438 27.3578 35.6903 27.2523C35.7755 27.0328 35.71 26.83 35.6987 26.6064C35.6863 26.3591 35.8321 26.1849 35.9608 25.9917C36.0759 25.8198 36.1401 25.6188 36.1458 25.412C36.164 24.978 36.012 24.5162 36.2339 24.1111C36.496 23.6328 37.052 23.4776 37.5499 23.5124C37.5912 23.5153 37.5864 23.4487 37.5466 23.4458V23.4473Z" fill="#384955"/>
<path id="Vector_39" d="M38.8822 26.6932C38.9927 26.1015 39.1349 25.5162 39.3084 24.9399L37.6747 23.4414C37.3326 23.4828 36.9765 23.5644 36.7173 23.7997C36.3262 24.1539 36.2615 24.7511 36.298 25.2828C36.3346 25.8145 36.4442 26.358 36.294 26.8703C36.1357 27.4159 35.7036 27.8543 35.5819 28.4094C35.4485 29.0191 35.7325 29.6661 36.1913 30.0686C36.65 30.4711 37.2561 30.6589 37.8579 30.7299C37.8878 30.7356 37.9187 30.7344 37.9482 30.7262C38.0023 30.7068 38.0304 30.6468 38.0523 30.5923C38.5455 29.3565 38.6369 28.0021 38.8822 26.6932Z" fill="#384955"/>
<path id="Vector_40" d="M42.071 32.7655C41.4559 33.2447 40.7584 33.6071 40.0129 33.8348C39.088 33.7941 37.9449 33.6423 36.7228 33.3784C35.8404 33.1908 34.9705 32.9482 34.1182 32.652C33.3657 32.0291 32.7666 31.2412 32.3672 30.3492C32.7967 29.9723 33.3791 29.6861 34.0601 29.5075C34.5829 29.3753 35.1195 29.3061 35.6587 29.3015C35.9991 29.297 36.3395 29.3139 36.6779 29.352C36.9743 29.386 37.2688 29.4349 37.5603 29.4984C37.7512 29.5396 37.9382 29.5864 38.1215 29.6389C38.1946 29.6596 38.267 29.6815 38.3386 29.7044C38.3883 29.7198 38.4377 29.7355 38.487 29.7523C38.581 29.7834 38.6735 29.8164 38.7652 29.8504L38.8263 29.8738C39.4154 30.0956 39.9732 30.3929 40.4859 30.7583C40.566 30.8165 40.6442 30.8758 40.7195 30.9361C41.4024 31.4821 41.8769 32.1159 42.071 32.7655Z" fill="#FDBAA0"/>
<path id="Vector_41" d="M42.0695 32.7657C41.3099 33.3585 40.4256 33.7706 39.4834 33.9709C38.5413 34.1711 37.5659 34.1543 36.6312 33.9216C35.6965 33.6889 34.8269 33.2465 34.0882 32.6278C33.3495 32.0091 32.761 31.2304 32.3672 30.3505C32.7967 29.9735 33.3791 29.6874 34.0601 29.5088C34.0601 29.5088 36.3818 33.1159 40.4238 30.7936C40.4446 30.7819 40.4651 30.7702 40.4859 30.757C40.566 30.8152 40.6442 30.8745 40.7195 30.9349C41.4009 31.4823 41.8754 32.1161 42.0695 32.7657Z" fill="#445D78"/>
<path id="Vector_42" d="M37.0819 30.3145C36.561 30.1315 36.614 29.7176 36.72 29.1146L37.1407 26.722C37.2588 26.0502 37.8634 25.5876 38.4911 25.6861C39.1188 25.7845 39.1575 25.9225 39.0395 26.594L38.5931 29.4552C38.475 30.1286 37.6507 30.5593 37.0819 30.3145Z" fill="#FDBAA0"/>
<path id="Vector_43" d="M37.7375 23.7347C37.7375 23.7347 35.2195 26.2962 36.2022 27.5803C36.8064 28.3682 37.932 28.2258 39.4165 27.7018C40.6949 27.2506 40.6123 22.2727 37.7375 23.7347Z" fill="#FDBAA0"/>
<path id="Vector_44" d="M40.8911 26.8744C40.97 26.5184 40.9744 26.1509 40.9788 25.7868C40.9832 25.4132 40.9857 25.0293 40.8582 24.681C40.6443 24.098 40.1055 23.7152 39.5659 23.4316L38.5215 23.7057C38.7408 23.7712 38.8845 23.9754 38.8611 24.1602C38.8377 24.345 38.7843 24.5298 38.8011 24.7154C38.8377 25.1025 39.1576 25.3861 39.3166 25.7378C39.4233 25.9735 39.3166 26.2501 39.2661 26.5063C39.223 26.7332 39.2599 26.9454 39.2555 27.1759C39.2555 27.2894 39.2756 27.4043 39.25 27.5148C39.2226 27.6312 39.1459 27.7278 39.0918 27.8339C39.0036 28.0009 38.9837 28.1956 39.0362 28.377C39.0929 28.5537 39.2398 28.7012 39.4178 28.7356C39.7249 28.7952 40.0002 28.5325 40.1939 28.2774C40.5109 27.8577 40.777 27.3867 40.8911 26.8744Z" fill="#384955"/>
<path id="Vector_45" d="M42.3807 30.3589C42.4198 29.9538 42.3153 29.5538 42.2879 29.1469C42.2586 28.7122 42.3186 28.2734 42.4235 27.8493C42.5397 27.382 42.6333 26.9132 42.6213 26.4324C42.6015 25.6573 42.2334 24.954 41.5282 23.9205C40.6374 22.6149 39.5392 22.0403 38.3643 22.3357C37.1894 22.631 37.4552 24.0457 37.5085 23.9842C38.4265 22.9274 39.662 24.4482 39.6811 25.7938L39.023 26.6896C39.0548 27.0031 38.9714 27.3174 38.7884 27.5737C38.6886 27.7121 38.5584 27.8347 38.5072 27.9979C38.4371 28.2218 38.5325 28.4641 38.5029 28.6968C38.4641 28.9983 38.2236 29.2362 38.1453 29.5304C38.0401 29.9245 38.2605 30.3534 38.5939 30.5701C38.9273 30.7867 39.3473 30.8229 39.7414 30.7739C39.8876 30.756 40.0338 30.7271 40.18 30.7373C40.4549 30.7593 40.6959 30.9203 40.9346 31.0604C41.1733 31.2006 41.4442 31.3272 41.7158 31.2719C42.1033 31.194 42.3416 30.7636 42.3807 30.3589Z" fill="#384955"/>
<path id="Vector_46" d="M38.7953 26.5775C38.7953 26.5775 39.3436 26.0992 39.563 26.3385C39.7823 26.5779 39.522 27.1908 39.2248 27.2168C38.9276 27.2428 38.7708 26.7575 38.784 26.6679L38.7953 26.5775Z" fill="#FCBFAF"/>
<path id="Vector_47" d="M38.9881 27.1423C38.9542 27.0717 38.9615 27.131 38.9988 27.1233C39.0207 27.1241 39.0426 27.1266 39.0642 27.1306C39.1409 27.1314 39.2165 27.1122 39.2835 27.075C39.399 27.0109 39.4736 26.9015 39.5394 26.7822C39.576 26.7131 39.6242 26.6439 39.6125 26.5572C39.5902 26.3859 39.4297 26.3625 39.3106 26.428C39.2177 26.48 39.16 26.3204 39.2521 26.2692C39.4455 26.1594 39.6816 26.2362 39.7562 26.4617C39.8293 26.6783 39.6652 26.9396 39.5252 27.0911C39.4696 27.1534 39.4022 27.204 39.3269 27.24C39.2515 27.276 39.1698 27.2967 39.0865 27.3008C39.0028 27.3033 38.8821 27.2975 38.839 27.2078C38.7922 27.1101 38.9425 27.0442 38.9889 27.1412L38.9881 27.1423Z" fill="#FDBAA0"/>
<path id="Vector_48" d="M38.4288 23.665C38.6536 23.4454 39.021 23.4242 39.252 23.6372C39.361 23.7382 39.4317 23.8738 39.4524 24.021C39.4736 24.1802 39.4239 24.3372 39.3815 24.4891C39.3416 24.6329 39.3036 24.7837 39.3336 24.9326C39.3617 25.072 39.4494 25.1825 39.55 25.2755C39.656 25.3728 39.7737 25.4559 39.8706 25.5635C39.9739 25.6784 40.0557 25.811 40.1118 25.955C40.1713 26.1045 40.1997 26.2646 40.1952 26.4254C40.1907 26.5863 40.1533 26.7445 40.0855 26.8904C40.0172 27.037 39.9163 27.1661 39.7905 27.2677C39.6783 27.357 39.5456 27.4247 39.4615 27.5451C39.2634 27.8243 39.4568 28.1591 39.5463 28.4347C39.6048 28.614 39.6096 28.7896 39.5222 28.9616C39.4425 29.1182 39.3175 29.2419 39.1932 29.3587C38.9519 29.5819 38.6448 29.8582 38.6993 30.2292C38.7454 30.5513 39.0649 30.6815 39.3314 30.7712C39.3709 30.7844 39.3847 30.7189 39.3453 30.7057C39.0674 30.6116 38.7183 30.4572 38.7629 30.0924C38.8064 29.7356 39.1267 29.5263 39.3559 29.2932C39.4742 29.1807 39.5659 29.0432 39.6242 28.8906C39.6714 28.7383 39.6677 28.5748 39.6136 28.4248C39.5602 28.2568 39.4739 28.0984 39.4502 27.9209C39.4349 27.8361 39.4438 27.7488 39.4757 27.6688C39.5076 27.5888 39.5614 27.5195 39.6308 27.4686C39.7525 27.372 39.8815 27.2951 39.9835 27.1758C40.0793 27.0612 40.1528 26.9296 40.2003 26.7879C40.2966 26.4969 40.2828 26.1806 40.1616 25.8991C40.1067 25.771 40.0327 25.6521 39.9422 25.5463C39.8439 25.4299 39.7229 25.3421 39.6099 25.2411C39.4886 25.1313 39.3906 25.0036 39.3888 24.8301C39.3858 24.668 39.448 24.5118 39.4867 24.3566C39.5273 24.1952 39.5405 24.032 39.4842 23.8739C39.4345 23.7334 39.3416 23.6122 39.2188 23.5278C38.9629 23.3532 38.6046 23.4044 38.3827 23.6225C38.3524 23.6525 38.4003 23.6957 38.4303 23.6672L38.4288 23.665Z" fill="#4D6371"/>
<path id="Vector_49" d="M38.5944 23.5215C39.0875 23.1168 39.8738 23.1318 40.3147 23.6002C40.4335 23.7264 40.5285 23.8907 40.5457 24.0689C40.5658 24.2753 40.4532 24.4349 40.3783 24.6178C40.2383 24.9593 40.3118 25.3439 40.4704 25.6608C40.6441 26.007 40.9142 26.2851 41.1456 26.5892C41.3649 26.8772 41.5693 27.2135 41.5766 27.5922C41.5822 27.7687 41.5401 27.9435 41.4545 28.0979C41.3642 28.2549 41.2271 28.3519 41.067 28.4229C40.923 28.4862 40.7694 28.5374 40.6481 28.6425C40.587 28.6965 40.5375 28.7624 40.5026 28.8362C40.4677 28.91 40.4482 28.9901 40.4452 29.0717C40.432 29.3989 40.6967 29.6162 40.8956 29.8288C41.022 29.9577 41.1171 30.1139 41.1734 30.2855C41.2279 30.4634 41.2637 30.7247 41.1145 30.8689C41.0832 30.9024 41.0426 30.9258 40.9979 30.936C40.9532 30.9463 40.9065 30.9429 40.8638 30.9263C40.8272 30.9091 40.795 30.9684 40.8334 30.9856C40.9694 31.0471 41.1259 30.9819 41.2085 30.8564C41.3123 30.6954 41.2937 30.4813 41.245 30.3057C41.1979 30.1338 41.112 29.975 40.9939 29.8417C40.8842 29.7128 40.7515 29.6023 40.6492 29.4658C40.5395 29.3195 40.4781 29.1471 40.5242 28.9623C40.5753 28.7563 40.734 28.6384 40.9149 28.5579C41.0674 28.4902 41.2275 28.4361 41.3536 28.3219C41.4767 28.2062 41.5634 28.057 41.6029 27.8927C41.815 27.0806 41.0875 26.482 40.6861 25.8979C40.458 25.5656 40.2796 25.1375 40.405 24.7243C40.4638 24.5311 40.5973 24.3686 40.6093 24.1608C40.6137 23.9919 40.5633 23.8261 40.4657 23.6884C40.1001 23.1435 39.3163 23.0297 38.76 23.3283C38.6877 23.3673 38.6195 23.4134 38.5563 23.4659C38.5238 23.4926 38.5563 23.5486 38.5929 23.5215H38.5944Z" fill="#4D6371"/>
<path id="Vector_50" d="M41.1114 28.8496C40.9688 28.8547 40.8599 28.9832 40.8489 29.1252C40.8346 29.3037 40.9458 29.4545 41.0682 29.5676C41.2104 29.7004 41.3607 29.8194 41.4875 29.9701C41.6233 30.1254 41.728 30.3054 41.7957 30.5004C41.8711 30.7192 41.8786 30.9557 41.8173 31.1788C41.8052 31.2202 41.8684 31.2337 41.8805 31.1927C42.0088 30.7485 41.8374 30.2932 41.5603 29.9548C41.4897 29.8694 41.4135 29.7888 41.3322 29.7136C41.2441 29.6316 41.1468 29.5592 41.0635 29.4721C40.9801 29.385 40.9173 29.2832 40.9132 29.1629C40.9092 29.0425 40.9915 28.9221 41.1158 28.9177C41.1246 28.9172 41.1329 28.9133 41.1388 28.9068C41.1447 28.9002 41.1478 28.8916 41.1474 28.8827C41.1469 28.8739 41.143 28.8656 41.1365 28.8597C41.1299 28.8537 41.1213 28.8506 41.1125 28.8511L41.1114 28.8496Z" fill="#4D6371"/>
<path id="Vector_51" d="M39.7286 27.92C39.7386 28.0309 39.7681 28.1391 39.8156 28.2398C39.8335 28.2782 39.8887 28.2416 39.8704 28.2032C39.8283 28.1124 39.8023 28.015 39.7937 27.9152C39.7931 27.9066 39.7891 27.8985 39.7826 27.8928C39.7761 27.8871 39.7676 27.8843 39.7589 27.8848C39.7503 27.8854 39.7423 27.8894 39.7366 27.8959C39.7309 27.9025 39.728 27.911 39.7286 27.9196V27.92Z" fill="#4D6371"/>
<path id="Vector_52" d="M41.2413 26.057C41.2903 26.136 41.3397 26.2147 41.3876 26.2938C41.4099 26.3304 41.4647 26.2938 41.4424 26.2572L41.2962 26.02C41.2739 25.9834 41.219 26.02 41.2417 26.0566L41.2413 26.057Z" fill="#4D6371"/>
<path id="Vector_53" d="M40.2485 56.5097C36.9083 55.7873 34.7782 52.4796 35.4998 49.1364C36.2215 45.7931 39.5261 43.6604 42.8663 44.3828C46.2064 45.1052 48.3361 48.4133 47.6145 51.758C46.8929 55.1027 43.5882 57.2324 40.2485 56.5097ZM42.6648 45.3156C39.8387 44.7041 37.0425 46.5085 36.4317 49.338C35.8208 52.1675 37.6234 54.9658 40.4495 55.5773C43.2757 56.1888 46.0719 54.3843 46.6827 51.5552C47.2936 48.7261 45.491 45.9271 42.6648 45.3174V45.3156Z" fill="#38516B"/>
<path id="Vector_54" d="M37.5433 49.1636L38.4396 51.3226C38.5829 51.6681 38.7263 52.0134 38.8699 52.3586C38.9605 52.5782 39.0465 52.8006 39.1737 53.0001C39.3178 53.2191 39.5152 53.3978 39.7474 53.5195C39.9795 53.6411 40.2387 53.7016 40.5007 53.6954C41.2036 53.6749 41.6869 53.1798 42.1735 52.7377C42.4407 52.4951 42.705 52.2488 42.9686 52.0018C44.3851 50.6723 45.7772 49.3169 47.1864 47.9797C47.7874 47.4092 48.3865 46.8343 49.0142 46.2916C49.2533 46.0845 49.3721 45.6362 49.3553 45.3362C49.3377 45.0226 49.1783 44.6522 48.9338 44.4466C48.6717 44.227 48.3302 44.0704 47.9793 44.1055C47.62 44.1421 47.3619 44.2921 47.091 44.5271C44.6585 46.6356 42.4597 49.0036 40.0587 51.1473L39.9099 51.2791C39.8291 51.3522 39.7392 51.3702 40.0408 51.1693C39.9272 51.2459 39.9651 51.2344 40.1545 51.1349C40.8256 51.0492 41.2483 51.2444 41.4226 51.7204C41.4277 51.6973 41.3542 51.5553 41.3495 51.5477L41.2058 51.2022C41.1225 51.0009 41.0389 50.7996 40.955 50.598L40.0229 48.3541C39.8902 48.0354 39.7015 47.7686 39.3875 47.6028C39.1006 47.4524 38.686 47.4026 38.3775 47.519C37.7582 47.7521 37.2629 48.4917 37.5433 49.1658V49.1636Z" fill="#445D78"/>
<path id="Vector_55" d="M31.6935 35.3923L40.921 37.3069C41.2215 37.3695 41.3231 36.9044 41.0219 36.8403L31.794 34.9246C31.4935 34.8624 31.3919 35.329 31.6935 35.3916V35.3923Z" fill="#38516B"/>
<path id="Vector_56" d="M31.2285 37.4775L37.8576 38.8531L46.2933 40.6038L49.447 41.2581C49.7475 41.3207 49.8491 40.8555 49.5475 40.7915L42.9188 39.4159L34.4827 37.6653L31.3291 37.0106C31.0289 36.9484 30.9269 37.4131 31.2285 37.4772V37.4775Z" fill="#38516B"/>
<path id="Vector_57" d="M42.5178 37.7429L47.9851 38.8773L54.5593 40.2415L57.2645 40.8029C57.5646 40.8654 57.6666 40.4003 57.365 40.3363L51.8977 39.2019L45.3235 37.8376L42.6183 37.2763C42.3178 37.2137 42.2162 37.6788 42.5174 37.7429H42.5178Z" fill="#38516B"/>
<path id="Vector_58" d="M51.2228 41.663L57.0008 42.853C57.3013 42.9153 57.4029 42.4505 57.1017 42.3865L51.3233 41.1961C51.0228 41.1342 50.9212 41.6008 51.2228 41.663Z" fill="#38516B"/>
<path id="Vector_59" d="M30.598 39.402C33.5057 39.9445 36.3949 40.5753 39.2658 41.2942C39.5637 41.3674 39.6643 40.9019 39.3667 40.8277C36.4971 40.109 33.6077 39.4782 30.6985 38.9354C30.3973 38.879 30.2964 39.3456 30.598 39.402Z" fill="#38516B"/>
<path id="Vector_60" d="M40.9109 41.63L53.045 44.2608L56.4721 45.0036C56.7722 45.0688 56.8742 44.6011 56.573 44.5367L44.4386 41.9063L41.0125 41.1634C40.7128 41.0983 40.6104 41.566 40.912 41.63H40.9109Z" fill="#38516B"/>
<path id="Vector_61" d="M48.8779 27.6141L59.545 29.7903C59.844 29.8514 59.9471 29.3878 59.6455 29.326L48.9781 27.1501C48.6791 27.089 48.5782 27.5526 48.8779 27.6141Z" fill="#38516B"/>
<path id="Vector_62" d="M48.536 29.163L59.2035 31.3382C59.5021 31.3993 59.6034 30.9357 59.3036 30.8742L48.6362 28.6979C48.3375 28.6368 48.2363 29.1005 48.536 29.1619V29.163Z" fill="#38516B"/>
<path id="Vector_63" d="M48.2573 31.1066L58.6758 33.2584C58.9748 33.3198 59.0757 32.8558 58.776 32.794L48.359 30.6434C48.0599 30.5815 47.959 31.0459 48.2588 31.1074L48.2573 31.1066Z" fill="#38516B"/>
<path id="Vector_64" d="M47.8614 33.2142L53.2999 34.2688C53.5992 34.327 53.702 33.863 53.4 33.8048L47.9616 32.7502C47.6622 32.692 47.5595 33.156 47.8614 33.2142Z" fill="#38516B"/>
<path id="Vector_65" d="M54.7424 34.669L58.583 35.5184C58.8813 35.5842 58.9818 35.1202 58.6831 35.054L54.8425 34.2046C54.5446 34.1388 54.4437 34.6028 54.7424 34.669Z" fill="#38516B"/>
<path id="Vector_66" d="M47.4473 35.1405C50.9628 35.9272 54.4965 36.6225 58.0486 37.2263C58.3487 37.2776 58.4507 36.8135 58.1487 36.7623C54.5972 36.1585 51.0634 35.4632 47.5475 34.6764C47.2495 34.6098 47.149 35.0739 47.4473 35.1405Z" fill="#38516B"/>
<path id="Vector_67" d="M59.6317 23.5234L58.7559 27.5806L63.7304 28.6569L59.6317 23.5234Z" fill="#AFD0D3"/>
<path id="Vector_68" d="M22.8988 40.2505C23.0483 39.845 23.2951 39.4088 23.5795 39.0008C22.8692 38.5701 21.8321 37.9447 21.0092 37.4639C19.9652 40.2231 18.6697 44.1342 17.9707 46.279L21.5792 46.4653L24.8469 45.3759C24.8469 45.3759 21.952 42.8201 22.8988 40.2505Z" fill="#FDBAA0"/>
<path id="Vector_69" d="M19.6502 54.8453C23.7584 54.1028 28.4741 49.324 29.5737 47.7571C31.6278 44.8273 34.6576 43.4119 34.644 42.8417C34.6305 42.2716 33.3547 41.0446 30.6441 42.2592C28.0687 43.413 26.1842 45.5387 24.5758 45.3016C23.9386 45.2079 20.0092 44.9927 20.0092 44.9927C20.0092 44.9927 18.0812 55.1289 19.6502 54.8453Z" fill="#FDBAA0"/>
<path id="Vector_70" d="M10.3476 62.4978C10.3476 62.4978 15.6552 58.6949 15.433 58.2364C15.2107 57.7779 10.4613 49.8124 9.87643 47.3083C9.87643 47.3083 9.88557 46.8267 9.18186 47.0206C8.47816 47.2146 2.58203 49.3747 2.58203 49.3747L3.93058 57.2385L10.3476 62.4978Z" fill="white"/>
<path id="Vector_71" d="M-7.75165 50.374L-11.0801 64.3778L5.05431 68.2202C9.56533 64.8426 12.0906 62.7977 12.1052 61.9974C12.1089 61.821 12.0449 61.5974 11.9272 61.3358C11.7894 61.0295 11.5785 60.669 11.316 60.269C9.97622 58.2198 7.31128 55.1159 6.36631 52.6432C5.83953 51.2632 5.41585 50.1522 4.96913 49.3461C4.83992 49.1074 4.69189 48.8794 4.52644 48.6643C3.99345 47.9848 3.37675 47.7012 2.49648 47.8644C1.94448 47.9672 -4.75332 49.2418 -7.75165 50.374Z" fill="#38516B"/>
<path id="Vector_72" d="M14.0489 58.4728C14.0819 58.393 14.0904 58.3051 14.0735 58.2204C14.0565 58.1356 14.0149 58.0578 13.9537 57.9968C13.8926 57.9357 13.8148 57.8942 13.7301 57.8774C13.6454 57.8607 13.5577 57.8694 13.4779 57.9026C13.3982 57.9358 13.3301 57.9919 13.2822 58.0638C13.2344 58.1357 13.2089 58.2202 13.209 58.3066C13.2091 58.3931 13.2348 58.4775 13.2829 58.5493C13.3309 58.6211 13.3992 58.677 13.479 58.71C13.532 58.7319 13.5887 58.7432 13.646 58.7431C13.7034 58.7431 13.7601 58.7317 13.8131 58.7097C13.866 58.6877 13.9141 58.6554 13.9545 58.6148C13.995 58.5741 14.0271 58.5259 14.0489 58.4728Z" fill="#445D78"/>
</g>
</g>
</g>
</g>
<defs>
<clipPath id="clip0_767_3249">
<rect width="81.7271" height="76.4053" fill="white" transform="translate(0.791016 0.766602)"/>
</clipPath>
</defs>
</svg>
