<svg width="79" height="79" viewBox="0 0 79 79" fill="none" xmlns="http://www.w3.org/2000/svg">
<g id="Frame" clip-path="url(#clip0_767_3125)">
<path id="Vector" d="M69.304 33.3056C66.1038 30.4715 62.2457 13.3784 49.029 22.281C42.2006 26.8806 30.6867 18.3325 21.1565 21.2848C12.4046 23.9963 11.5609 32.93 12.4079 35.8412C14.1185 41.7212 8.79499 42.5979 3.85673 45.1226C-3.89059 49.0857 1.85115 63.161 9.1691 63.2289C16.4871 63.2968 60.7636 63.2289 60.7636 63.2289C60.7636 63.2289 71.4073 62.9763 75.8283 56.8844C80.5857 50.3266 77.569 40.6266 69.304 33.3056Z" fill="#800639" fill-opacity="0.1"/>
<path id="Vector_2" d="M25.793 61.6508C25.793 61.6508 25.8855 63.2028 26.1746 63.2252C26.2132 63.2282 27.6416 63.2282 27.6416 63.2282L29.465 63.217C29.465 63.217 29.4533 62.761 28.9202 62.6646C28.3872 62.5682 27.4951 62.1791 27.172 61.4477C26.8326 60.678 25.793 61.6508 25.793 61.6508Z" fill="#800639"/>
<path id="Vector_3" d="M25.1334 43.5361C25.1334 43.5361 25.9277 43.748 26.4326 43.5898C26.9375 43.4316 27.8061 43.6916 27.9467 43.8825C28.0873 44.0733 28.0353 44.1497 27.7855 44.2159C27.5356 44.2821 26.651 44.6736 26.0693 44.4468C25.4875 44.2199 24.7285 44.2118 24.7285 44.2118L25.1334 43.5361Z" fill="#FDBAA0"/>
<path id="Vector_4" d="M18.2676 36.3719C18.2676 36.3719 19.16 42.9589 20.6378 43.5469C21.3667 43.8382 24.5891 44.4976 25.543 44.5655C25.543 44.5655 25.7765 44.3686 25.7196 43.5683C25.7196 43.5683 22.3435 42.2811 21.8641 41.5814C21.1502 40.54 22.3072 37.3264 21.4115 36.3482C20.5158 35.37 19.0066 34.9479 18.2676 36.3719Z" fill="#445D78"/>
<path id="Vector_5" d="M18.3831 61.7446V60.3077H16.2058C16.1775 60.3076 16.1504 60.2959 16.1304 60.2752C16.1104 60.2544 16.099 60.2263 16.0989 60.197V59.9681C16.099 59.9387 16.1103 59.9105 16.1303 59.8897C16.1503 59.8689 16.1775 59.8572 16.2058 59.8571H18.3831V51.6835C18.3833 51.573 18.4257 51.4672 18.501 51.389C18.5762 51.3109 18.6782 51.2669 18.7847 51.2666H19.2153C19.3218 51.2669 19.4237 51.3109 19.499 51.389C19.5743 51.4672 19.6166 51.573 19.6169 51.6835V59.8568H21.7942C21.8225 59.8569 21.8497 59.8686 21.8697 59.8894C21.8897 59.9102 21.901 59.9384 21.9011 59.9678V60.198C21.9009 60.2274 21.8896 60.2555 21.8696 60.2762C21.8496 60.2969 21.8225 60.3086 21.7942 60.3087H19.6169V61.7446C21.1921 61.8681 22.4544 62.4576 22.8086 63.2178H15.1914C15.5456 62.4569 16.8078 61.8695 18.3831 61.7446Z" fill="#38516B"/>
<path id="Vector_6" d="M18.5693 50.2465C18.8309 50.6984 19.1221 51.131 19.4408 51.5415C20.3999 52.7977 21.4441 53.8353 21.6259 54.8152C21.6675 55.0282 21.7239 55.2378 21.7946 55.4423C21.8705 55.6668 21.9644 55.9028 22.0729 56.1465C22.4797 57.0633 23.0886 58.0931 23.6962 59.0281C24.7469 60.6443 25.7345 61.9929 25.7345 61.9929L27.5462 61.9128C27.4736 61.7244 26.6835 59.4926 25.6266 56.7655C25.1972 55.6579 24.7411 54.4808 24.2996 53.3451C24.2411 53.1933 24.1822 53.0425 24.1243 52.8928C23.9896 52.5451 23.8571 52.2029 23.7276 51.8698L21.9451 47.2715C21.9451 47.2715 17.978 45.7097 17.5663 46.7225C17.2272 47.5543 17.5039 48.3709 18.5693 50.2465Z" fill="#38516B"/>
<path id="Vector_7" d="M21.5953 57.2168C21.5953 57.2168 20.3353 58.0575 20.4576 58.3305C20.4739 58.3668 21.1701 59.6618 21.1701 59.6618L22.0685 61.3095C22.0685 61.3095 22.4462 61.0763 22.2676 60.5462C22.0891 60.0162 21.9808 59.0184 22.4386 58.3681C22.92 57.685 21.5953 57.2168 21.5953 57.2168Z" fill="#800639"/>
<path id="Vector_8" d="M23.3002 46.5283C23.3002 46.5283 28.2793 49.7491 28.8352 51.9126C29.3912 54.0761 22.2115 58.6934 22.2115 58.6934C22.2115 58.6934 21.4244 57.9722 21.2854 57.4433C21.2854 57.4433 24.5304 53.4066 25.2345 52.5017C25.6668 51.9459 18.842 50.5779 18.0074 49.2313C17.1729 47.8848 17.4721 46.7528 17.4721 46.7528L23.3002 46.5283Z" fill="#38516B"/>
<path id="Vector_9" d="M24.0945 50.6641H13.9037C13.6991 50.6641 13.5332 50.8363 13.5332 51.0488V53.1651C13.5332 53.3775 13.6991 53.5497 13.9037 53.5497H24.0945C24.2991 53.5497 24.465 53.3775 24.465 53.1651V51.0488C24.465 50.8363 24.2991 50.6641 24.0945 50.6641Z" fill="#800639"/>
<path id="Vector_10" d="M20.9993 35.2427C21.2921 35.4301 21.5493 35.6718 21.758 35.9557C20.565 36.2759 18.5859 35.1283 18.5859 35.1283C18.5859 35.1283 19.3538 34.5928 19.6383 33.4157C19.6527 33.3564 19.6656 33.2955 19.6772 33.233C19.717 33.0203 19.7389 32.8045 19.7426 32.5879L20.2903 33.0972L21.2017 33.946C21.2017 33.946 21.1811 34.2978 21.067 34.9025C21.048 35.0088 21.0255 35.1222 20.9993 35.2427Z" fill="#FDBAA0"/>
<path id="Vector_11" d="M17.3288 41.0859C17.4995 43.4722 17.2121 47.0994 17.406 47.7279C17.5734 48.2711 19.5421 47.9492 20.3027 47.7683C20.5843 47.7004 20.924 47.6056 21.2779 47.4926C22.2589 47.1765 23.3309 46.7256 23.446 46.3904C23.4503 46.3779 23.4538 46.3651 23.4564 46.3521C23.4661 46.3057 23.4654 46.2576 23.4545 46.2115C23.4162 46.0417 23.2684 45.8564 23.2511 45.4336C23.2318 44.9617 23.2347 44.4059 23.2184 43.8086C23.2184 43.7407 23.2164 43.6677 23.2095 43.6009V43.5764V43.538C23.1929 42.8719 23.1595 42.1711 23.1206 41.4764C23.0957 41.0398 23.0673 40.6079 23.0343 40.1936C22.9486 39.1248 22.8332 38.1744 22.6801 37.5735C22.4306 36.5939 21.8796 35.9549 21.3783 35.4867L21.0156 35.1638C20.6111 35.2555 20.1327 35.1947 19.7 34.9818C19.2317 34.7509 19.0699 34.5856 18.9884 34.6481C17.9047 35.5142 17.1271 38.169 17.3288 41.0859Z" fill="#445D78"/>
<path id="Vector_12" d="M21.2734 47.497C22.2544 47.1809 23.3267 46.73 23.4415 46.3949C23.4461 46.3824 23.4497 46.3696 23.4523 46.3565L23.4503 46.216C23.4117 46.0462 23.2642 45.8608 23.2469 45.4381C23.2276 44.9662 23.2306 44.4107 23.2142 43.8131C23.2142 43.7452 23.2142 43.6722 23.2054 43.6053V43.5809C23.2054 43.568 23.2054 43.5554 23.2054 43.5425L19.4931 41.7949C19.4931 41.7949 19.2779 44.9006 21.2734 47.497Z" fill="#445D78"/>
<path id="Vector_13" d="M21.2037 33.9461C21.2037 33.9461 21.1831 34.2979 21.069 34.9026C20.1808 34.6055 19.7756 33.7699 19.6409 33.4171C19.6026 33.3173 19.5859 33.2555 19.5859 33.2555L19.6798 33.2344L20.2923 33.0986L21.2037 33.9461Z" fill="#FDBAA0"/>
<path id="Vector_14" d="M21.563 33.9378C21.563 33.9378 19.6084 34.1669 19.4897 32.9008C19.371 31.6347 19.0391 30.8113 20.2821 30.6117C21.5251 30.4121 21.8132 30.8708 21.9518 31.2833C22.0905 31.6958 22.0686 33.8457 21.563 33.9378Z" fill="#FDBAA0"/>
<path id="Vector_15" d="M19.4993 32.9877C19.4993 32.9877 19.6233 31.3071 21.4026 31.1329C22.6214 31.0137 21.9418 29.9245 21.812 29.751C21.812 29.751 20.8784 29.8837 19.9212 30.0481C17.912 30.3927 19.3022 32.726 19.4993 32.9877Z" fill="#38516B"/>
<path id="Vector_16" d="M28.9579 45.1874L29.1289 45.2451L30.5847 40.5932L30.4136 40.5355L28.9579 45.1874Z" fill="#38516B"/>
<path id="Vector_17" d="M24.1846 45.1358L29.127 45.2451L29.1332 44.9383L24.1909 44.829L24.1846 45.1358Z" fill="#38516B"/>
<path id="Vector_18" d="M24.7252 44.5488C24.7252 44.5488 25.492 44.8503 26.0107 44.7525C26.5293 44.6548 27.3658 45.0109 27.4845 45.217C27.6032 45.4231 27.5444 45.4924 27.2883 45.5294C27.0322 45.5664 26.111 45.8547 25.5581 45.5633C25.0051 45.272 24.25 45.1763 24.25 45.1763L24.7252 44.5488Z" fill="#FDBAA0"/>
<path id="Vector_19" d="M18.6621 36.6436C18.6621 36.6436 18.8498 43.2913 20.256 44.0454C20.9499 44.4189 24.0821 45.4429 25.0229 45.6178C25.0229 45.6178 25.2757 45.448 25.3041 44.6467C25.3041 44.6467 22.0853 42.9813 21.6831 42.2309C21.084 41.1139 22.5752 38.0523 21.789 36.9777C21.0029 35.9031 19.5477 35.3116 18.6621 36.6436Z" fill="#445D78"/>
<path id="Vector_20" d="M36.5793 52.5186L62.0855 52.5186C63.8656 52.5186 65.3086 51.0203 65.3086 49.1721V12.9631C65.3086 11.1149 63.8656 9.61664 62.0855 9.61664L36.5793 9.61664C34.7993 9.61664 33.3562 11.1149 33.3562 12.9631V49.1721C33.3562 51.0203 34.7993 52.5186 36.5793 52.5186Z" fill="#800639"/>
<path id="Vector_21" d="M36.4934 48.1758H62.2188L62.2187 14.1129H36.4934V48.1758Z" fill="white"/>
<path id="Vector_22" d="M58.5723 46.6808C58.2123 46.6808 57.867 46.5323 57.6124 46.268C57.3579 46.0037 57.2148 45.6452 57.2148 45.2714V25.787C57.2149 25.4133 57.358 25.0549 57.6125 24.7906C57.8671 24.5264 58.2123 24.3779 58.5723 24.3779C58.9322 24.3779 59.2775 24.5264 59.532 24.7906C59.7866 25.0549 59.9296 25.4133 59.9297 25.787V45.2714C59.9297 45.6452 59.7867 46.0037 59.5321 46.268C59.2776 46.5323 58.9323 46.6808 58.5723 46.6808Z" fill="#445D78"/>
<path id="Vector_23" d="M54.1266 46.6812C53.9484 46.6812 53.7719 46.6447 53.6072 46.5739C53.4425 46.5031 53.2929 46.3992 53.1669 46.2684C53.0409 46.1375 52.9409 45.9821 52.8727 45.8111C52.8046 45.6401 52.7695 45.4569 52.7695 45.2718V19.5692C52.7695 19.1955 52.9125 18.8371 53.167 18.5729C53.4215 18.3086 53.7667 18.1602 54.1266 18.1602C54.3049 18.1601 54.4814 18.1965 54.6461 18.2673C54.8108 18.3381 54.9604 18.4419 55.0865 18.5727C55.2125 18.7036 55.3125 18.8589 55.3807 19.0299C55.449 19.2009 55.4841 19.3841 55.4841 19.5692V45.2718C55.4841 45.4569 55.449 45.6402 55.3808 45.8112C55.3126 45.9822 55.2127 46.1376 55.0866 46.2685C54.9605 46.3994 54.8109 46.5032 54.6462 46.574C54.4815 46.6448 54.3049 46.6812 54.1266 46.6812Z" fill="#445D78"/>
<path id="Vector_24" d="M49.2715 46.6805C48.9115 46.6805 48.5662 46.532 48.3116 46.2677C48.0571 46.0034 47.9141 45.6449 47.9141 45.2711V31.1805C47.9141 30.8068 48.0572 30.4484 48.3118 30.1842C48.5663 29.9199 48.9115 29.7715 49.2715 29.7715C49.6314 29.7715 49.9766 29.9199 50.2311 30.1842C50.4856 30.4484 50.6286 30.8068 50.6286 31.1805V45.2711C50.6287 45.4562 50.5936 45.6395 50.5254 45.8104C50.4572 45.9814 50.3573 46.1368 50.2312 46.2677C50.1052 46.3986 49.9556 46.5024 49.7909 46.5732C49.6263 46.6441 49.4498 46.6805 49.2715 46.6805Z" fill="#445D78"/>
<path id="Vector_25" d="M44.5508 46.6809C44.1908 46.6809 43.8455 46.5324 43.5909 46.2681C43.3364 46.0038 43.1934 45.6453 43.1934 45.2715V23.3781C43.1934 23.0044 43.3364 22.6459 43.5909 22.3816C43.8455 22.1172 44.1908 21.9688 44.5508 21.9688C44.9108 21.9688 45.2561 22.1172 45.5107 22.3816C45.7652 22.6459 45.9082 23.0044 45.9082 23.3781V45.2715C45.9082 45.6453 45.7652 46.0038 45.5107 46.2681C45.2561 46.5324 44.9108 46.6809 44.5508 46.6809Z" fill="#445D78"/>
<path id="Vector_26" d="M41.1618 34.4895V45.2706C41.1619 45.4557 41.1268 45.639 41.0586 45.81C40.9904 45.9811 40.8904 46.1364 40.7643 46.2673C40.6383 46.3982 40.4886 46.502 40.3239 46.5728C40.1592 46.6437 39.9827 46.6801 39.8044 46.68C39.6261 46.68 39.4496 46.6436 39.285 46.5727C39.1203 46.5019 38.9707 46.3981 38.8446 46.2672C38.7186 46.1363 38.6187 45.981 38.5505 45.81C38.4823 45.639 38.4472 45.4557 38.4473 45.2706V34.4895C38.4473 34.1157 38.5902 33.7573 38.8447 33.493C39.0992 33.2287 39.4444 33.0802 39.8044 33.0801C40.1644 33.0801 40.5097 33.2286 40.7642 33.4929C41.0188 33.7572 41.1618 34.1157 41.1618 34.4895Z" fill="#445D78"/>
<path id="Vector_27" d="M43.321 20.2228H45.62C45.6519 20.2216 45.6838 20.2271 45.7137 20.2389C45.7436 20.2508 45.7709 20.2688 45.794 20.2918C45.817 20.3149 45.8354 20.3425 45.8479 20.3731C45.8604 20.4037 45.8668 20.4366 45.8668 20.4698C45.8668 20.5031 45.8604 20.536 45.8479 20.5665C45.8354 20.5971 45.817 20.6248 45.794 20.6478C45.7709 20.6709 45.7436 20.6889 45.7137 20.7007C45.6838 20.7126 45.6519 20.7181 45.62 20.7168H43.321C43.2595 20.7145 43.2012 20.6874 43.1584 20.6413C43.1157 20.5953 43.0918 20.5338 43.0918 20.4698C43.0918 20.4059 43.1157 20.3444 43.1584 20.2983C43.2012 20.2523 43.2595 20.2252 43.321 20.2228Z" fill="#9F2F5E"/>
<path id="Vector_28" d="M45.0991 21.1211H45.6223C45.6853 21.1211 45.7458 21.1471 45.7904 21.1934C45.835 21.2397 45.86 21.3025 45.86 21.3679C45.86 21.4334 45.835 21.4962 45.7904 21.5425C45.7458 21.5888 45.6853 21.6148 45.6223 21.6148H45.0991C45.036 21.6148 44.9755 21.5888 44.931 21.5425C44.8864 21.4962 44.8613 21.4334 44.8613 21.3679C44.8613 21.3025 44.8864 21.2397 44.931 21.1934C44.9755 21.1471 45.036 21.1211 45.0991 21.1211Z" fill="#9F2F5E"/>
<path id="Vector_29" d="M52.7957 16.4336H55.0946C55.1561 16.436 55.2144 16.463 55.2572 16.5091C55.2999 16.5552 55.3238 16.6166 55.3238 16.6806C55.3238 16.7446 55.2999 16.8061 55.2572 16.8521C55.2144 16.8982 55.1561 16.9252 55.0946 16.9276H52.7957C52.7341 16.9252 52.6758 16.8982 52.633 16.8521C52.5903 16.8061 52.5664 16.7446 52.5664 16.6806C52.5664 16.6166 52.5903 16.5552 52.633 16.5091C52.6758 16.463 52.7341 16.436 52.7957 16.4336Z" fill="#9F2F5E"/>
<path id="Vector_30" d="M54.5717 17.332H55.095C55.1579 17.3322 55.2183 17.3583 55.2629 17.4045C55.3074 17.4508 55.3325 17.5135 55.3327 17.5789C55.3325 17.6443 55.3074 17.707 55.2629 17.7532C55.2183 17.7995 55.1579 17.8255 55.095 17.8257H54.5717C54.5087 17.8255 54.4484 17.7995 54.4038 17.7532C54.3593 17.707 54.3342 17.6443 54.334 17.5789C54.3342 17.5135 54.3593 17.4508 54.4038 17.4045C54.4484 17.3583 54.5087 17.3322 54.5717 17.332Z" fill="#9F2F5E"/>
<path id="Vector_31" d="M57.394 22.6465H59.6929C59.756 22.6465 59.8164 22.6725 59.861 22.7188C59.9056 22.7651 59.9306 22.8279 59.9306 22.8933C59.9306 22.9588 59.9056 23.0216 59.861 23.0679C59.8164 23.1142 59.756 23.1402 59.6929 23.1402H57.394C57.3309 23.1402 57.2705 23.1142 57.2259 23.0679C57.1813 23.0216 57.1562 22.9588 57.1562 22.8933C57.1562 22.8279 57.1813 22.7651 57.2259 22.7188C57.2705 22.6725 57.3309 22.6465 57.394 22.6465Z" fill="#9F2F5E"/>
<path id="Vector_32" d="M59.1694 23.5439H59.6926C59.7556 23.5441 59.816 23.5702 59.8606 23.6164C59.9052 23.6627 59.9304 23.7253 59.9307 23.7908C59.9304 23.8563 59.9053 23.919 59.8607 23.9653C59.8161 24.0116 59.7557 24.0377 59.6926 24.038H59.1694C59.1064 24.0377 59.046 24.0116 59.0014 23.9652C58.9569 23.9189 58.9318 23.8562 58.9316 23.7908C58.9318 23.7254 58.9569 23.6627 59.0015 23.6164C59.046 23.5702 59.1064 23.5441 59.1694 23.5439Z" fill="#9F2F5E"/>
<path id="Vector_33" d="M48.1238 28.041H50.4227C50.4843 28.0434 50.5426 28.0704 50.5853 28.1165C50.6281 28.1626 50.6519 28.2241 50.6519 28.288C50.6519 28.352 50.6281 28.4135 50.5853 28.4595C50.5426 28.5056 50.4843 28.5327 50.4227 28.535H48.1238C48.0622 28.5327 48.0039 28.5056 47.9612 28.4595C47.9184 28.4135 47.8945 28.352 47.8945 28.288C47.8945 28.2241 47.9184 28.1626 47.9612 28.1165C48.0039 28.0704 48.0622 28.0434 48.1238 28.041Z" fill="#9F2F5E"/>
<path id="Vector_34" d="M49.8979 28.9404H50.4211C50.4841 28.9406 50.5445 28.9667 50.589 29.0129C50.6336 29.0592 50.6587 29.1219 50.6589 29.1873C50.6587 29.2527 50.6336 29.3154 50.589 29.3616C50.5445 29.4079 50.4841 29.4339 50.4211 29.4341H49.8979C49.8349 29.4339 49.7745 29.4079 49.73 29.3616C49.6854 29.3154 49.6603 29.2527 49.6602 29.1873C49.6603 29.1219 49.6854 29.0592 49.73 29.0129C49.7745 28.9667 49.8349 28.9406 49.8979 28.9404Z" fill="#9F2F5E"/>
<path id="Vector_35" d="M38.657 31.342H40.9559C40.9879 31.3407 41.0198 31.3462 41.0497 31.3581C41.0796 31.3699 41.1069 31.3879 41.1299 31.411C41.153 31.434 41.1713 31.4617 41.1838 31.4923C41.1963 31.5229 41.2028 31.5557 41.2028 31.589C41.2028 31.6222 41.1963 31.6551 41.1838 31.6857C41.1713 31.7163 41.153 31.7439 41.1299 31.767C41.1069 31.79 41.0796 31.808 41.0497 31.8199C41.0198 31.8317 40.9879 31.8372 40.9559 31.836H38.657C38.5954 31.8336 38.5371 31.8066 38.4944 31.7605C38.4516 31.7144 38.4277 31.6529 38.4277 31.589C38.4277 31.525 38.4516 31.4635 38.4944 31.4175C38.5371 31.3714 38.5954 31.3443 38.657 31.342Z" fill="#9F2F5E"/>
<path id="Vector_36" d="M40.4311 32.2393H40.9543C41.0174 32.2393 41.0778 32.2653 41.1224 32.3116C41.167 32.3578 41.1921 32.4206 41.1921 32.4861C41.1921 32.5516 41.167 32.6143 41.1224 32.6606C41.0778 32.7069 41.0174 32.7329 40.9543 32.7329H40.4311C40.368 32.7329 40.3076 32.7069 40.263 32.6606C40.2184 32.6143 40.1934 32.5516 40.1934 32.4861C40.1934 32.4206 40.2184 32.3578 40.263 32.3116C40.3076 32.2653 40.368 32.2393 40.4311 32.2393Z" fill="#9F2F5E"/>
<path id="Vector_37" d="M39.804 30.6388C39.637 30.6385 39.4738 30.5867 39.3352 30.4902C39.1965 30.3936 39.0884 30.2565 39.0248 30.0962C38.9611 29.9359 38.9446 29.7597 38.9774 29.5896C39.0101 29.4196 39.0907 29.2635 39.2089 29.141C39.3271 29.0186 39.4776 28.9352 39.6414 28.9015C39.8052 28.8678 39.975 28.8853 40.1292 28.9517C40.2835 29.0181 40.4153 29.1305 40.5081 29.2747C40.6008 29.4189 40.6503 29.5884 40.6503 29.7618C40.65 29.9946 40.5607 30.2178 40.402 30.3822C40.2433 30.5467 40.0282 30.639 39.804 30.6388ZM39.804 29.2243C39.7017 29.2246 39.6017 29.2564 39.5168 29.3157C39.4319 29.375 39.3658 29.459 39.3269 29.5573C39.288 29.6555 39.2779 29.7635 39.2981 29.8677C39.3183 29.9718 39.3677 30.0674 39.4402 30.1424C39.5126 30.2174 39.6049 30.2684 39.7052 30.289C39.8056 30.3096 39.9096 30.2989 40.0041 30.2582C40.0986 30.2174 40.1793 30.1486 40.2362 30.0602C40.293 29.9719 40.3233 29.868 40.3233 29.7618C40.3232 29.6911 40.3097 29.6211 40.2835 29.5558C40.2574 29.4905 40.2191 29.4312 40.1709 29.3813C40.1227 29.3314 40.0654 29.2918 40.0025 29.2649C39.9395 29.238 39.8721 29.2242 39.804 29.2243Z" fill="#38516B"/>
<path id="Vector_38" d="M39.4447 29.2244C39.4014 29.2243 39.3599 29.2064 39.3293 29.1745L36.792 26.5388H16.1655C16.1221 26.5388 16.0805 26.5209 16.0498 26.489C16.0192 26.4572 16.002 26.414 16.002 26.369C16.002 26.324 16.0192 26.2808 16.0498 26.2489C16.0805 26.2171 16.1221 26.1992 16.1655 26.1992H36.926L39.5605 28.9362C39.5834 28.9599 39.599 28.9902 39.6054 29.0232C39.6117 29.0561 39.6084 29.0903 39.596 29.1214C39.5836 29.1524 39.5626 29.179 39.5357 29.1976C39.5088 29.2163 39.4771 29.2262 39.4447 29.2261V29.2244Z" fill="#38516B"/>
<path id="Vector_39" d="M44.6614 49.1336C44.4943 49.1336 44.3309 49.0821 44.1919 48.9857C44.0529 48.8893 43.9446 48.7523 43.8807 48.5919C43.8168 48.4316 43.8 48.2552 43.8327 48.085C43.8653 47.9148 43.9458 47.7584 44.064 47.6358C44.1822 47.5131 44.3328 47.4295 44.4968 47.3957C44.6607 47.3619 44.8306 47.3793 44.985 47.4458C45.1394 47.5122 45.2714 47.6247 45.3642 47.7691C45.457 47.9134 45.5065 48.0831 45.5064 48.2566C45.5062 48.4892 45.417 48.7121 45.2586 48.8766C45.1002 49.041 44.8854 49.1334 44.6614 49.1336ZM44.6614 47.7188C44.559 47.7188 44.4588 47.7503 44.3736 47.8094C44.2884 47.8685 44.2221 47.9525 44.1829 48.0508C44.1436 48.1491 44.1334 48.2572 44.1534 48.3615C44.1734 48.4658 44.2227 48.5617 44.2951 48.6369C44.3676 48.7121 44.4599 48.7633 44.5604 48.7841C44.6608 48.8048 44.765 48.7942 44.8596 48.7535C44.9543 48.7128 45.0352 48.6438 45.0921 48.5554C45.149 48.4669 45.1794 48.363 45.1794 48.2566C45.1793 48.114 45.1247 47.9772 45.0276 47.8764C44.9305 47.7756 44.7988 47.7189 44.6614 47.7188Z" fill="#38516B"/>
<path id="Vector_40" d="M67.9731 51.8212H47.5399L44.9054 49.086C44.8902 49.0702 44.8782 49.0515 44.8699 49.0309C44.8617 49.0103 44.8574 48.9882 44.8574 48.9659C44.8574 48.9436 44.8616 48.9215 44.8698 48.9009C44.878 48.8803 44.8901 48.8615 44.9053 48.8457C44.9204 48.8299 44.9385 48.8174 44.9583 48.8089C44.9781 48.8003 44.9994 48.7959 45.0209 48.7959C45.0424 48.7959 45.0637 48.8003 45.0835 48.8088C45.1034 48.8173 45.1214 48.8298 45.1366 48.8456L47.6752 51.4817H67.9731C68.0165 51.4817 68.058 51.4996 68.0887 51.5314C68.1194 51.5633 68.1366 51.6064 68.1366 51.6515C68.1366 51.6965 68.1194 51.7397 68.0887 51.7715C68.058 51.8033 68.0165 51.8212 67.9731 51.8212Z" fill="#38516B"/>
<path id="Vector_41" d="M54.0087 15.754C53.8417 15.754 53.6784 15.7026 53.5395 15.6062C53.4006 15.5099 53.2923 15.3729 53.2284 15.2126C53.1644 15.0524 53.1477 14.876 53.1803 14.7059C53.2129 14.5358 53.2933 14.3795 53.4115 14.2569C53.5296 14.1342 53.6801 14.0507 53.844 14.0169C54.0078 13.983 54.1776 14.0004 54.332 14.0668C54.4863 14.1331 54.6183 14.2455 54.7111 14.3898C54.8039 14.534 54.8534 14.7036 54.8534 14.877C54.8532 15.1095 54.7641 15.3324 54.6057 15.4969C54.4474 15.6613 54.2327 15.7538 54.0087 15.754ZM54.0087 14.3395C53.9064 14.3395 53.8063 14.3711 53.7211 14.4301C53.636 14.4892 53.5697 14.5731 53.5305 14.6713C53.4913 14.7695 53.4811 14.8776 53.501 14.9819C53.521 15.0861 53.5703 15.1819 53.6427 15.2571C53.7151 15.3322 53.8073 15.3834 53.9078 15.4042C54.0082 15.4249 54.1123 15.4143 54.2068 15.3736C54.3014 15.3329 54.3823 15.264 54.4392 15.1756C54.496 15.0872 54.5264 14.9833 54.5264 14.877C54.5262 14.7345 54.4716 14.5979 54.3746 14.4972C54.2776 14.3964 54.146 14.3397 54.0087 14.3395Z" fill="#38516B"/>
<path id="Vector_42" d="M53.6478 14.3387C53.6045 14.3386 53.563 14.3207 53.5324 14.2888L50.9935 11.653H30.3686C30.3252 11.653 30.2836 11.6351 30.253 11.6033C30.2223 11.5714 30.2051 11.5283 30.2051 11.4832C30.2051 11.4382 30.2223 11.395 30.253 11.3632C30.2836 11.3314 30.3252 11.3135 30.3686 11.3135H51.1288L53.7643 14.0487C53.7872 14.0725 53.8028 14.1028 53.8091 14.1357C53.8155 14.1687 53.8122 14.2029 53.7998 14.2339C53.7874 14.265 53.7664 14.2915 53.7395 14.3102C53.7125 14.3288 53.6809 14.3388 53.6485 14.3387H53.6478Z" fill="#38516B"/>
<path id="Vector_43" d="M29.9483 25.8063H16.3987C16.2888 25.8063 16.1834 25.761 16.1057 25.6803C16.028 25.5996 15.9844 25.4902 15.9844 25.3761C15.9844 25.3197 15.9951 25.2637 16.0159 25.2116C16.0367 25.1594 16.0673 25.112 16.1057 25.0721C16.1442 25.0321 16.1899 25.0005 16.2402 24.9789C16.2904 24.9573 16.3443 24.9462 16.3987 24.9463H29.9483C30.0027 24.9462 30.0565 24.9573 30.1068 24.9789C30.1571 25.0005 30.2027 25.0321 30.2412 25.0721C30.2797 25.112 30.3102 25.1594 30.331 25.2116C30.3519 25.2637 30.3626 25.3197 30.3626 25.3761C30.3626 25.4902 30.3189 25.5996 30.2412 25.6803C30.1635 25.761 30.0581 25.8063 29.9483 25.8063Z" fill="#9F2F5E"/>
<path id="Vector_44" d="M29.9484 24.4479H21.6311C21.5212 24.4479 21.4159 24.4026 21.3382 24.3219C21.2604 24.2413 21.2168 24.1318 21.2168 24.0177C21.2168 23.9613 21.2275 23.9053 21.2483 23.8532C21.2692 23.801 21.2997 23.7536 21.3382 23.7137C21.3766 23.6738 21.4223 23.6421 21.4726 23.6205C21.5229 23.5989 21.5767 23.5878 21.6311 23.5879H29.9484C30.0028 23.5878 30.0567 23.5989 30.107 23.6205C30.1572 23.6421 30.2029 23.6738 30.2414 23.7137C30.2799 23.7536 30.3104 23.801 30.3312 23.8532C30.352 23.9053 30.3628 23.9613 30.3628 24.0177C30.3628 24.1318 30.3191 24.2413 30.2414 24.3219C30.1637 24.4026 30.0583 24.4479 29.9484 24.4479Z" fill="#9F2F5E"/>
<path id="Vector_45" d="M29.9484 23.0895H21.6311C21.5212 23.0895 21.4159 23.0442 21.3382 22.9635C21.2604 22.8829 21.2168 22.7734 21.2168 22.6593C21.2168 22.6029 21.2275 22.5469 21.2483 22.4948C21.2692 22.4426 21.2997 22.3952 21.3382 22.3553C21.3766 22.3154 21.4223 22.2837 21.4726 22.2621C21.5229 22.2405 21.5767 22.2294 21.6311 22.2295H29.9484C30.0028 22.2294 30.0567 22.2405 30.107 22.2621C30.1572 22.2837 30.2029 22.3154 30.2414 22.3553C30.2799 22.3952 30.3104 22.4426 30.3312 22.4948C30.352 22.5469 30.3628 22.6029 30.3628 22.6593C30.3628 22.7734 30.3191 22.8829 30.2414 22.9635C30.1637 23.0442 30.0583 23.0895 29.9484 23.0895Z" fill="#9F2F5E"/>
<path id="Vector_46" d="M44.0557 10.8327H30.5058C30.396 10.8327 30.2907 10.7874 30.2131 10.7068C30.1354 10.6262 30.0918 10.5168 30.0918 10.4028C30.0918 10.3464 30.1024 10.2904 30.1232 10.2382C30.144 10.1861 30.1745 10.1386 30.2129 10.0987C30.2514 10.0587 30.297 10.027 30.3473 10.0054C30.3975 9.98379 30.4514 9.97266 30.5058 9.97266H44.0557C44.1101 9.97266 44.1639 9.98379 44.2142 10.0054C44.2644 10.027 44.3101 10.0587 44.3485 10.0987C44.387 10.1386 44.4175 10.1861 44.4383 10.2382C44.4591 10.2904 44.4697 10.3464 44.4697 10.4028C44.4697 10.4593 44.459 10.5152 44.4382 10.5673C44.4174 10.6195 44.3869 10.6669 44.3484 10.7068C44.31 10.7467 44.2643 10.7784 44.2141 10.8C44.1639 10.8216 44.1101 10.8327 44.0557 10.8327Z" fill="#9F2F5E"/>
<path id="Vector_47" d="M56.1731 58.2332C57.3246 57.0376 57.3246 55.0991 56.1731 53.9035C55.0216 52.7079 53.1546 52.7079 52.003 53.9035C50.8515 55.0991 50.8515 57.0376 52.003 58.2332C53.1546 59.4288 55.0216 59.4288 56.1731 58.2332Z" fill="#800639"/>
<path id="Vector_48" d="M54.0862 53.4814C54.5775 53.4813 55.0579 53.632 55.467 53.9145C55.8761 54.197 56.1956 54.5988 56.3854 55.0693C56.5752 55.5398 56.6269 56.0581 56.5338 56.559C56.4408 57.0598 56.2073 57.521 55.8626 57.8845L54.0862 56.0694L51.7569 56.9922C51.6132 56.6003 51.5634 56.178 51.6116 55.7616C51.6599 55.3453 51.8048 54.9473 52.0339 54.602C52.2631 54.2566 52.5696 53.9742 52.927 53.779C53.2845 53.5839 53.6823 53.4817 54.0862 53.4814Z" fill="white"/>
<path id="Vector_49" d="M54.4509 54.7559H55.5117C55.5318 54.7559 55.551 54.7643 55.5653 54.779C55.5795 54.7938 55.5875 54.8138 55.5876 54.8346C55.5876 54.8555 55.5796 54.8756 55.5653 54.8903C55.5511 54.9051 55.5318 54.9134 55.5117 54.9134H54.4509C54.4307 54.9134 54.4114 54.9051 54.3972 54.8903C54.383 54.8756 54.375 54.8555 54.375 54.8346C54.3751 54.8138 54.3831 54.7938 54.3973 54.779C54.4115 54.7643 54.4308 54.7559 54.4509 54.7559Z" fill="#800639"/>
<path id="Vector_50" d="M54.4509 55.0049H55.5117C55.5318 55.0049 55.5511 55.0132 55.5653 55.028C55.5796 55.0427 55.5876 55.0628 55.5876 55.0837C55.5876 55.1045 55.5796 55.1246 55.5653 55.1394C55.5511 55.1541 55.5318 55.1624 55.5117 55.1624H54.4509C54.4307 55.1624 54.4114 55.1541 54.3972 55.1394C54.383 55.1246 54.375 55.1045 54.375 55.0837C54.375 55.0628 54.383 55.0427 54.3972 55.028C54.4114 55.0132 54.4307 55.0049 54.4509 55.0049Z" fill="#800639"/>
<path id="Vector_51" d="M55.0739 55.2529H55.5121C55.5322 55.2529 55.5515 55.2612 55.5658 55.276C55.58 55.2908 55.588 55.3108 55.588 55.3317C55.588 55.3526 55.58 55.3726 55.5658 55.3874C55.5515 55.4022 55.5322 55.4105 55.5121 55.4105H55.0739C55.0538 55.4105 55.0345 55.4022 55.0203 55.3874C55.006 55.3726 54.998 55.3526 54.998 55.3317C54.998 55.3108 55.006 55.2908 55.0203 55.276C55.0345 55.2612 55.0538 55.2529 55.0739 55.2529Z" fill="#800639"/>
<path id="Vector_52" d="M51.5059 54.632L52.6723 53.4209H51.5059V54.632Z" fill="#800639"/>
<path id="Vector_53" d="M66.9962 56.2263C67.0774 54.5375 65.8248 53.1001 64.1983 53.0158C62.5718 52.9314 61.1874 54.232 61.1061 55.9208C61.0249 57.6095 62.2775 59.0469 63.904 59.1313C65.5305 59.2156 66.9149 57.915 66.9962 56.2263Z" fill="#800639"/>
<path id="Vector_54" d="M61.5527 56.0696C61.5527 55.4857 61.7428 54.919 62.0922 54.4615C62.4416 54.004 62.9297 53.6826 63.4773 53.5495C64.0248 53.4165 64.5997 53.4796 65.1083 53.7286C65.6169 53.9776 66.0295 54.3979 66.279 54.9212C66.5285 55.4445 66.6003 56.04 66.4826 56.6109C66.3649 57.1819 66.0647 57.6947 65.6308 58.0661C65.1969 58.4376 64.6548 58.6457 64.0925 58.6568C63.5303 58.6679 62.9809 58.4812 62.5338 58.1272L64.0452 56.0696L61.7162 56.9924C61.6079 56.6978 61.5525 56.385 61.5527 56.0696Z" fill="white"/>
<path id="Vector_55" d="M64.4294 54.7559H65.4902C65.5103 54.7559 65.5296 54.7643 65.5438 54.779C65.558 54.7938 65.566 54.8138 65.5661 54.8346C65.5661 54.8555 65.5581 54.8756 65.5439 54.8903C65.5296 54.9051 65.5103 54.9134 65.4902 54.9134H64.4294C64.4093 54.9134 64.39 54.9051 64.3757 54.8903C64.3615 54.8756 64.3535 54.8555 64.3535 54.8346C64.3536 54.8138 64.3616 54.7938 64.3758 54.779C64.39 54.7643 64.4093 54.7559 64.4294 54.7559Z" fill="#800639"/>
<path id="Vector_56" d="M64.4294 55.0049H65.4902C65.5103 55.0049 65.5296 55.0132 65.5439 55.028C65.5581 55.0427 65.5661 55.0628 65.5661 55.0837C65.5661 55.1045 65.5581 55.1246 65.5439 55.1394C65.5296 55.1541 65.5103 55.1624 65.4902 55.1624H64.4294C64.4093 55.1624 64.39 55.1541 64.3757 55.1394C64.3615 55.1246 64.3535 55.1045 64.3535 55.0837C64.3535 55.0628 64.3615 55.0427 64.3757 55.028C64.39 55.0132 64.4093 55.0049 64.4294 55.0049Z" fill="#800639"/>
<path id="Vector_57" d="M65.0524 55.2529H65.4906C65.5108 55.2529 65.53 55.2612 65.5443 55.276C65.5585 55.2908 65.5665 55.3108 65.5665 55.3317C65.5665 55.3526 65.5585 55.3726 65.5443 55.3874C65.53 55.4022 65.5108 55.4105 65.4906 55.4105H65.0524C65.0323 55.4105 65.013 55.4022 64.9988 55.3874C64.9846 55.3726 64.9766 55.3526 64.9766 55.3317C64.9766 55.3108 64.9846 55.2908 64.9988 55.276C65.013 55.2612 65.0323 55.2529 65.0524 55.2529Z" fill="#800639"/>
<path id="Vector_58" d="M61.4785 54.632L62.645 53.4209H61.4785V54.632Z" fill="#800639"/>
<path id="Vector_59" d="M74.8387 63.3297H6.66842C6.6424 63.3297 6.61744 63.319 6.59905 63.2999C6.58065 63.2808 6.57031 63.2549 6.57031 63.2278C6.57031 63.2008 6.58065 63.1749 6.59905 63.1558C6.61744 63.1367 6.6424 63.126 6.66842 63.126H74.8387C74.8647 63.126 74.8897 63.1367 74.9081 63.1558C74.9265 63.1749 74.9368 63.2008 74.9368 63.2278C74.9368 63.2549 74.9265 63.2808 74.9081 63.2999C74.8897 63.319 74.8647 63.3297 74.8387 63.3297Z" fill="#202F4E"/>
</g>
<defs>
<clipPath id="clip0_767_3125">
<rect width="77.9258" height="77.9258" fill="white" transform="translate(0.164062 0.290039)"/>
</clipPath>
</defs>
</svg>
