<svg width="79" height="79" viewBox="0 0 79 79" fill="none" xmlns="http://www.w3.org/2000/svg">
<g id="Frame" clip-path="url(#clip0_767_3005)">
<path id="Vector" d="M72.6668 53.5303C65.3626 70.7202 45.9058 80.3502 29.0327 77.7525C26.287 77.3298 18.7599 76.0706 12.0957 70.1296C-0.733322 58.6954 -3.47686 36.0522 6.87118 20.095C14.404 8.48115 27.9061 1.89756 40.7357 2.22662C43.4992 2.29742 54.0901 2.73472 63.3977 10.4056C64.7661 11.5314 67.78 14.2099 70.4974 18.4576C76.8785 28.4318 77.427 42.3271 72.6668 53.5303Z" fill="#F3E7EC"/>
<path id="Vector_2" d="M62.2719 35.5815C68.8705 35.5815 74.2196 30.1976 74.2196 23.5564C74.2196 16.9151 68.8705 11.5312 62.2719 11.5312C55.6734 11.5312 50.3242 16.9151 50.3242 23.5564C50.3242 30.1976 55.6734 35.5815 62.2719 35.5815Z" fill="#800639"/>
<g id="Clip path group">
<mask id="mask0_767_3005" style="mask-type:luminance" maskUnits="userSpaceOnUse" x="50" y="12" width="24" height="24">
<g id="clip-path">
<path id="Vector_3" d="M62.2664 35.0151C68.549 35.0151 73.6421 29.889 73.6421 23.5657C73.6421 17.2423 68.549 12.1162 62.2664 12.1162C55.9837 12.1162 50.8906 17.2423 50.8906 23.5657C50.8906 29.889 55.9837 35.0151 62.2664 35.0151Z" fill="white"/>
</g>
</mask>
<g mask="url(#mask0_767_3005)">
<g id="Group">
<path id="Vector_4" d="M76.5214 37.9764L48.9755 38.8814C48.8954 38.8838 48.8176 38.8543 48.7592 38.7992C48.7007 38.7441 48.6662 38.6679 48.6633 38.5874L47.672 7.98584C47.6695 7.90526 47.6989 7.82698 47.7537 7.76815C47.8084 7.70932 47.8841 7.67474 47.9642 7.67198L75.5101 6.76673C75.5902 6.76439 75.668 6.79402 75.7264 6.84916C75.7849 6.9043 75.8193 6.98047 75.8222 7.06106L76.8146 37.6626C76.8169 37.7433 76.7874 37.8217 76.7324 37.8805C76.6775 37.9393 76.6016 37.9738 76.5214 37.9764Z" fill="white"/>
<path id="Vector_5" d="M56.4124 24.9721C56.4124 24.9721 63.3037 23.6428 68.8202 24.9317L68.6402 30.6314C68.6402 30.6314 67.4375 38.5687 66.457 42.0907C66.457 42.0907 62.2882 42.9623 60.247 41.9279C60.247 41.9279 58.2851 32.0741 57.3261 30.6363C57.3275 30.6358 56.2898 26.813 56.4124 24.9721Z" fill="#9F2F5E"/>
<path id="Vector_6" d="M61.0631 19.8008L60.5254 24.521C60.5254 24.521 62.4822 25.3492 63.8021 24.375L63.404 21.0698L61.0631 19.8008Z" fill="#FDBAA0"/>
<path id="Vector_7" d="M63.9346 16.6451C63.9578 16.6839 64.4505 19.0389 64.754 20.4972C64.7836 20.6393 64.783 20.786 64.7522 20.9279C64.7215 21.0697 64.6613 21.2033 64.5756 21.32C64.4899 21.4368 64.3806 21.5339 64.2549 21.6051C64.1293 21.6763 63.9901 21.72 63.8465 21.7332L63.2888 21.7847C62.7947 21.8305 62.3013 21.6891 61.9054 21.388C61.5095 21.087 61.2394 20.648 61.1482 20.1571L60.6582 17.5146C60.6582 17.5146 63.3759 15.6992 63.9346 16.6451Z" fill="#FDBAA0"/>
<path id="Vector_8" d="M60.0572 17.5399C59.8343 17.2787 59.6335 16.8514 60.0747 16.3808C60.5216 15.9042 61.0491 16.001 61.3865 16.1459C61.5359 16.2093 61.7159 16.173 61.8178 16.0452C61.8429 16.0128 61.876 15.9875 61.9139 15.972C61.9517 15.9564 61.9929 15.9511 62.0334 15.9565C62.0788 15.9614 62.1247 15.9571 62.1684 15.9439C62.2121 15.9307 62.2528 15.9089 62.288 15.8798C62.3233 15.8506 62.3524 15.8147 62.3737 15.774C62.395 15.7334 62.4081 15.6889 62.4121 15.6432C62.4407 15.3087 62.6043 14.9107 63.1856 14.7778C64.2519 14.5337 64.8225 15.5971 64.8279 16.3575C64.8333 17.1178 63.6624 17.3161 62.991 17.212C62.4978 17.1355 62.0879 17.5828 61.9051 17.8259C61.8724 17.8693 61.85 17.9196 61.8396 17.9731C61.8292 18.0265 61.831 18.0817 61.845 18.1343L62.0385 18.8627C61.9283 19.0946 61.8205 19.3315 61.6612 19.5317C61.5469 19.6757 61.4186 19.7574 61.282 19.7945C61.0698 19.4264 60.5081 19.3811 60.2478 19.3814C60.1987 19.3815 60.1501 19.3714 60.105 19.3517C60.06 19.332 60.0195 19.3031 59.9861 19.2669C59.7826 19.0469 59.4591 18.5518 60.0308 18.0361C60.0984 17.9731 60.139 17.886 60.144 17.7934C60.1489 17.7008 60.1178 17.6099 60.0572 17.5399Z" fill="#38516B"/>
<path id="Vector_9" d="M61.4994 20.5741C61.4994 20.5741 61.4333 19.2497 60.8964 19.1428C60.3595 19.0359 59.797 19.4426 60.2784 20.2209C60.8776 21.1893 61.4994 20.5741 61.4994 20.5741Z" fill="#FDBAA0"/>
<path id="Vector_10" d="M56.4119 24.9727C56.4119 24.9727 46.0374 37.0683 58.8528 41.1472L58.8228 40.2297C58.8228 40.2297 53.9524 36.3491 57.4197 30.7251C57.4197 30.7251 56.7944 25.5111 56.4119 24.9727Z" fill="#9F2F5E"/>
<path id="Vector_11" d="M68.8207 24.9326C68.8207 24.9326 80.4004 35.9396 67.8773 40.8511L67.8477 39.9336C67.8477 39.9336 72.4566 35.7416 68.632 30.3576C68.6317 30.3581 68.1212 25.8739 68.8207 24.9326Z" fill="#9F2F5E"/>
</g>
</g>
</g>
<path id="Vector_12" d="M35.9204 29.061C42.5189 29.061 47.8681 23.6771 47.8681 17.0358C47.8681 10.3946 42.5189 5.01074 35.9204 5.01074C29.3218 5.01074 23.9727 10.3946 23.9727 17.0358C23.9727 23.6771 29.3218 29.061 35.9204 29.061Z" fill="#800639"/>
<g id="Clip path group_2">
<mask id="mask1_767_3005" style="mask-type:luminance" maskUnits="userSpaceOnUse" x="24" y="5" width="24" height="24">
<g id="clip-path-2">
<path id="Vector_13" d="M35.9148 28.4936C42.1975 28.4936 47.2906 23.3675 47.2906 17.0442C47.2906 10.7208 42.1975 5.59473 35.9148 5.59473C29.6322 5.59473 24.5391 10.7208 24.5391 17.0442C24.5391 23.3675 29.6322 28.4936 35.9148 28.4936Z" fill="white"/>
</g>
</mask>
<g mask="url(#mask1_767_3005)">
<g id="Group_2">
<path id="Vector_14" d="M50.1667 31.455L22.6208 32.36C22.5409 32.3621 22.4634 32.3324 22.4052 32.2773C22.3469 32.2222 22.3127 32.1463 22.3098 32.0659L21.3166 1.46438C21.3141 1.3838 21.3434 1.30552 21.3982 1.24669C21.453 1.18786 21.5287 1.15327 21.6087 1.15051L49.1544 0.245262C49.2344 0.242774 49.3122 0.272327 49.3706 0.327446C49.4291 0.382565 49.4635 0.458755 49.4662 0.539325L50.4589 31.1408C50.4613 31.2214 50.4319 31.2997 50.3772 31.3586C50.3224 31.4174 50.2468 31.4521 50.1667 31.455Z" fill="white"/>
<path id="Vector_15" d="M35.4214 11.8828C35.4214 11.8828 35.6424 12.2897 34.3226 12.9874C33.5865 13.3762 32.1488 13.964 32.0119 15.5317C31.9413 16.3415 31.3712 17.0088 30.5777 17.1594C28.601 17.5373 25.5752 18.6861 25.2081 22.1766C24.9292 24.843 26.3065 25.7993 27.728 26.0977C28.7719 26.3147 29.4955 27.3046 29.3236 28.3636C29.1584 29.3795 29.4993 30.5338 31.2682 31.3946C35.2319 33.3206 38.8709 26.2203 38.8709 26.2203L39.2361 14.0365L35.4214 11.8828Z" fill="#38516B"/>
<path id="Vector_16" d="M36.3537 29.3294C37.4086 23.9853 34.1543 21.1006 34.1543 21.1006C35.6957 19.5014 38.315 18.5394 39.2851 18.2231C39.402 18.1849 39.5264 18.1757 39.6477 18.1961C39.769 18.2166 39.8836 18.2661 39.9818 18.3406C40.8467 18.9936 43.1409 20.8976 42.8658 22.528C42.6663 23.7024 40.6853 29.5972 40.6853 29.5972C40.6853 29.5972 38.6967 30.6337 36.3537 29.3294Z" fill="#445D78"/>
<path id="Vector_17" d="M37.2802 14.6856L36.4317 19.2883C36.3493 19.6952 36.7115 19.6152 37.1128 19.5238C37.7702 19.3746 38.6141 19.0854 38.8807 18.5567C38.9064 18.502 38.9219 18.4431 38.9265 18.3828L39.2481 15.1999C39.2604 15.0771 39.2328 14.9535 39.1693 14.8478C39.1058 14.7421 39.0099 14.66 38.896 14.614L38.0451 14.2703C37.9682 14.2393 37.8854 14.2257 37.8026 14.2304C37.7198 14.2352 37.6391 14.2582 37.5661 14.2978C37.4932 14.3374 37.4297 14.3927 37.3803 14.4597C37.3309 14.5267 37.2967 14.6038 37.2802 14.6856Z" fill="#FDBAA0"/>
<path id="Vector_18" d="M39.0648 10.4523C39.0648 10.4523 40.1664 11.1465 40.6947 12.996C41.2229 14.8456 40.4957 15.542 39.7244 15.5287C38.953 15.5154 37.8282 15.3157 36.8134 14.0117C35.7987 12.7077 37.6236 9.60754 39.0648 10.4523Z" fill="#FDBAA0"/>
<path id="Vector_19" d="M37.7644 13.2245C37.7644 13.2245 37.2755 10.5647 39.4959 10.8945L39.9584 11.3457C39.9584 11.3457 40.9947 10.0832 39.767 9.20097C38.5393 8.31879 36.8898 8.61529 36.0321 10.3325C35.1745 12.0496 34.8837 13.2449 35.6896 14.2638C36.4954 15.2827 37.0421 14.3644 37.0421 14.3644C37.0421 14.3644 36.6574 13.4711 36.9361 13.0721C37.2148 12.673 37.6143 13.2739 37.6143 13.2739L37.7644 13.2245Z" fill="#38516B"/>
<path id="Vector_20" d="M37.4706 13.4639C37.4706 13.4639 37.228 12.095 36.5432 12.5144C35.8583 12.9338 36.8396 13.7894 37.2318 14.0802L37.4706 13.4639Z" fill="#FDBAA0"/>
<path id="Vector_21" d="M34.1425 21.1787C34.1425 21.1787 32.121 24.7091 31.7833 27.3147C31.4456 29.9203 35.5589 30.8529 37.0065 29.2882L36.7537 28.2167C36.7537 28.2167 34.4088 28.7321 34.1498 27.4457C33.8907 26.1593 35.9421 23.4913 35.9421 23.4913C35.9421 23.4913 35.23 21.5721 34.1425 21.1787Z" fill="#445D78"/>
<path id="Vector_22" d="M28.1528 24.5327C28.0864 24.53 28.0219 24.5095 27.966 24.4733C27.0332 23.908 26.5033 22.6921 26.6774 21.5164C26.7817 20.8111 27.1052 20.1958 27.5884 19.7803C27.9313 19.4865 28.3431 19.3001 28.7361 19.1343C29.3978 18.8549 30.0808 18.6054 30.7665 18.3921L30.9352 18.3401C31.3357 18.2174 31.75 18.0902 32.1211 17.8865C32.596 17.6252 32.9356 17.2585 33.0777 16.8537C33.1661 16.602 33.1855 16.325 33.2019 16.0575C33.2238 15.7279 33.2464 15.3872 33.3998 15.0902C33.4012 15.0874 33.4032 15.0849 33.4056 15.0828C33.408 15.0808 33.4108 15.0792 33.4138 15.0783C33.4168 15.0773 33.42 15.077 33.4231 15.0772C33.4262 15.0775 33.4293 15.0784 33.4321 15.0799C33.4349 15.0813 33.4374 15.0833 33.4394 15.0858C33.4414 15.0882 33.443 15.091 33.4439 15.094C33.4449 15.097 33.4452 15.1002 33.445 15.1034C33.4447 15.1065 33.4438 15.1096 33.4423 15.1124C33.2933 15.4005 33.2712 15.7364 33.2499 16.0619C33.2321 16.3332 33.2135 16.6128 33.123 16.8711C32.9769 17.2867 32.6292 17.6629 32.144 17.9291C31.7683 18.1355 31.3516 18.2633 30.9487 18.387C30.8926 18.4041 30.8363 18.4212 30.7805 18.4388C30.0961 18.6515 29.4145 18.9 28.7541 19.1794C28.3649 19.3421 27.9566 19.5282 27.6192 19.8174C27.1448 20.2243 26.827 20.8301 26.7246 21.5229C26.5532 22.6799 27.075 23.876 27.9914 24.4313C28.0574 24.4714 28.1822 24.5194 28.2313 24.4451C28.233 24.4425 28.2353 24.4402 28.2379 24.4385C28.2406 24.4367 28.2435 24.4355 28.2466 24.4349C28.2497 24.4343 28.2529 24.4343 28.256 24.4349C28.2591 24.4356 28.2621 24.4368 28.2647 24.4386C28.2673 24.4404 28.2695 24.4427 28.2713 24.4453C28.273 24.448 28.2742 24.4509 28.2748 24.4541C28.2754 24.4572 28.2754 24.4604 28.2748 24.4635C28.2742 24.4666 28.2729 24.4696 28.2711 24.4722C28.2583 24.4917 28.2406 24.5076 28.2199 24.5182C28.1992 24.5288 28.1761 24.5338 28.1528 24.5327Z" fill="#91B3FA"/>
<path id="Vector_23" d="M27.8839 23.442C27.88 23.4421 27.8762 23.4413 27.8728 23.4395C27.8694 23.4377 27.8664 23.4352 27.8642 23.432C27.4939 22.9166 27.2912 22.3669 27.278 21.8453C27.2626 21.233 27.5246 20.6538 27.9623 20.3337C27.9674 20.33 27.9738 20.3284 27.9801 20.3294C27.9863 20.3303 27.992 20.3338 27.9957 20.3389C27.9995 20.3441 28.0011 20.3506 28.0001 20.3569C27.9991 20.3632 27.9957 20.369 27.9906 20.3728C27.5656 20.6837 27.3109 21.2474 27.326 21.8439C27.3389 22.3561 27.5383 22.8954 27.903 23.404C27.9049 23.4066 27.9062 23.4094 27.907 23.4125C27.9077 23.4156 27.9078 23.4188 27.9073 23.4219C27.9068 23.425 27.9057 23.4279 27.904 23.4306C27.9024 23.4333 27.9002 23.4356 27.8976 23.4374C27.8937 23.4405 27.8889 23.4421 27.8839 23.442Z" fill="#91B3FA"/>
</g>
</g>
</g>
<path id="Vector_24" d="M63.9243 64.7592C70.5228 64.7592 75.872 59.3754 75.872 52.7341C75.872 46.0928 70.5228 40.709 63.9243 40.709C57.3257 40.709 51.9766 46.0928 51.9766 52.7341C51.9766 59.3754 57.3257 64.7592 63.9243 64.7592Z" fill="#800639"/>
<g id="Clip path group_3">
<mask id="mask2_767_3005" style="mask-type:luminance" maskUnits="userSpaceOnUse" x="52" y="41" width="24" height="24">
<g id="clip-path-3">
<path id="Vector_25" d="M63.9129 64.1919C70.1955 64.1919 75.2886 59.0658 75.2886 52.7424C75.2886 46.4191 70.1955 41.293 63.9129 41.293C57.6302 41.293 52.5371 46.4191 52.5371 52.7424C52.5371 59.0658 57.6302 64.1919 63.9129 64.1919Z" fill="white"/>
</g>
</mask>
<g mask="url(#mask2_767_3005)">
<g id="Group_3">
<path id="Vector_26" d="M78.169 67.1532L50.6231 68.0582C50.543 68.0606 50.4652 68.031 50.4068 67.9759C50.3483 67.9208 50.3138 67.8447 50.311 67.7641L49.3204 37.1626C49.3181 37.0821 49.3475 37.0039 49.4023 36.9451C49.457 36.8863 49.5326 36.8516 49.6126 36.8487L77.1585 35.9435C77.2386 35.9411 77.3164 35.9707 77.3749 36.0258C77.4334 36.081 77.4678 36.1572 77.4706 36.2378L78.463 66.8391C78.4654 66.92 78.4358 66.9985 78.3807 67.0574C78.3255 67.1164 78.2494 67.1508 78.169 67.1532Z" fill="white"/>
<path id="Vector_27" d="M61.9129 46.7238C61.8905 46.7664 60.4844 47.8089 60.4844 47.8089C60.4844 47.8089 60.7951 50.0461 62.0565 50.9285C63.4438 51.8997 65.4027 50.1286 65.4027 50.1286C65.4027 50.1286 66.9617 50.5016 67.7908 47.2354C67.9795 46.4861 66.883 46.4216 65.5577 46.5607C63.8484 46.739 61.9129 46.7238 61.9129 46.7238Z" fill="#38516B"/>
<path id="Vector_28" d="M59.2836 54.3565C59.8335 53.9749 60.4433 53.6894 61.0875 53.512C61.3301 53.4455 62.6384 53.8283 63.447 53.8104C64.5572 53.7833 65.6873 53.2762 66.6024 53.5057C67.5115 53.7336 68.2554 54.0315 68.685 54.3391C69.971 55.2595 70.7259 56.9759 71.186 58.676C70.3149 59.5761 69.2184 59.9759 69.2184 59.9759L69.016 68.2398L64.161 70.7399L58.6184 67.939L58.8168 59.8634C58.8168 59.8634 57.057 59.0384 56.9279 58.7384C56.7988 58.4383 57.7311 55.431 59.2836 54.3565Z" fill="#445D78"/>
<path id="Vector_29" d="M57.0128 58.7021C57.0128 58.7021 54.655 65.2822 60.0316 67.9866C61.1482 67.8371 60.7189 65.971 60.7189 65.971C60.7189 65.971 58.3823 65.4504 59.0839 59.9617C58.4384 59.4265 57.0128 58.7021 57.0128 58.7021Z" fill="#FDBAA0"/>
<path id="Vector_30" d="M71.0721 58.7021C71.0721 58.7021 72.6946 65.5708 68.0533 67.9866C66.937 67.8371 67.3663 65.971 67.3663 65.971C67.3663 65.971 69.2495 65.0375 69.001 59.9617C69.6465 59.4265 71.0721 58.7021 71.0721 58.7021Z" fill="#FDBAA0"/>
<path id="Vector_31" d="M61.0879 53.5115C61.0879 53.5115 61.5784 55.6513 63.9605 55.6068C66.3863 55.5623 66.6019 53.5044 66.6019 53.5044L65.0174 53.1631L64.8847 51.3857L62.501 51.5634L62.4568 53.2518L61.0879 53.5115Z" fill="#FDBAA0"/>
<path id="Vector_32" d="M62.838 46.3506C62.838 46.3506 60.1063 51.6765 63.3469 52.9697C65.6327 53.8809 67.0664 49.4325 66.6384 48.2278C65.9775 46.365 65.5422 46.5861 65.5422 46.5861L62.838 46.3506Z" fill="#FDBAA0"/>
<path id="Vector_33" d="M67.2949 45.866C68.6445 46.2392 67.4912 49.1853 65.4592 48.4887C63.4272 47.792 62.6291 47.8021 62.3122 48.3639C61.9952 48.9257 61.9275 50.9196 61.2405 49.9338C60.4874 48.8533 60.0675 46.6841 60.9909 45.9848C61.8162 45.3609 62.0089 44.391 62.9986 44.4247C64.3126 44.4692 65.3287 43.8821 65.922 44.3059C66.6031 44.7915 66.3012 45.5914 67.2949 45.866Z" fill="#38516B"/>
<path id="Vector_34" d="M62.1874 48.8219C62.1874 48.8219 61.6046 48.1909 61.5114 48.9513C61.4181 49.7117 61.7176 50.6912 62.0682 50.1544C62.4189 49.6175 62.1874 48.8219 62.1874 48.8219Z" fill="#FDBAA0"/>
</g>
</g>
</g>
<path id="Vector_35" d="M62.3848 28.9434C62.3848 28.9434 57.1713 30.1006 54 31.5747C53.3721 31.8673 52.869 32.3765 52.5818 33.0101C51.6336 35.1008 48.796 40.3443 43.293 42.8465C44.0854 43.9045 45.3616 46.1072 45.9174 49.8085C49.2223 47.3326 52.0759 43.1978 53.4456 36.4167C53.4456 36.4167 54.4887 36.9864 55.7905 36.3514C56.4781 36.0152 57.2729 35.5375 57.8678 35.1637C58.4626 34.7899 58.9038 34.2094 59.0755 33.5312C59.3025 32.636 59.1688 31.8493 59.1688 31.0037L61.8487 30.1679C61.8487 30.1679 62.6538 29.8614 62.3848 28.9434Z" fill="#FDBAA0"/>
<path id="Vector_36" d="M7.29598 71.0988C7.93889 69.4871 8.74719 67.9474 9.70773 66.5047C8.09837 63.7727 7.62184 60.0408 10.4778 55.1814C12.5602 60.8407 13.5372 69.0978 13.7412 72.7535C13.7795 73.4391 13.5682 74.5022 13.3793 75.2902C13.3468 75.425 13.3417 75.5651 13.3645 75.7019C13.3872 75.8387 13.4373 75.9695 13.5116 76.0863C13.5859 76.2031 13.683 76.3036 13.797 76.3816C13.9109 76.4596 14.0394 76.5136 14.1746 76.5403C18.4618 77.3758 22.5961 77.764 26.3757 77.1127C26.648 77.0654 26.9004 76.938 27.1008 76.7465C27.3012 76.555 27.4408 76.3081 27.5018 76.0368C29.9726 65.0585 29.9575 57.5013 29.3098 52.665C31.8703 53.2407 39.6948 54.469 45.9174 49.8077C45.3616 46.1064 44.0846 43.9045 43.293 42.8457C39.8745 44.4001 35.4278 44.8971 29.7653 42.9222C29.2434 42.7409 28.6993 42.6329 28.1481 42.601C25.1337 42.423 15.1999 42.0986 6.98036 44.8317C6.12746 45.1144 5.34337 45.575 4.67925 46.1833C4.01513 46.7916 3.4859 47.534 3.12609 48.3621C0.902201 53.497 -2.69763 65.1939 7.29598 71.0988Z" fill="#800639"/>
<path id="Vector_37" d="M15.434 35.8428C15.434 35.8428 14.8648 41.8995 14.3626 43.691C14.3257 43.8231 14.3338 43.9638 14.3858 44.0907C14.4377 44.2175 14.5305 44.3232 14.6491 44.3907C15.4998 44.879 17.5396 45.6776 20.33 44.3011C20.55 44.1913 20.7335 44.0195 20.8583 43.8067C20.983 43.5938 21.0436 43.349 21.0327 43.1021L20.788 37.248L15.434 35.8428Z" fill="#FDBAA0"/>
<path id="Vector_38" d="M20.9125 28.0938C20.9125 28.0938 22.7329 32.3026 22.8553 34.5119C22.9777 36.7211 23.4504 38.1543 20.9125 38.5992C18.3746 39.0441 16.2367 37.7715 15.0786 35.5709C15.0786 35.5709 13.2638 32.18 13.6708 30.7916C14.0778 29.4032 20.9125 28.0938 20.9125 28.0938Z" fill="#FDBAA0"/>
<path id="Vector_39" d="M15.946 33.9899L16.0905 33.9259C16.1341 33.9067 16.1733 33.8787 16.2058 33.8436C16.2383 33.8086 16.2632 33.7672 16.2792 33.7221C16.2952 33.6769 16.3018 33.629 16.2986 33.5812C16.2954 33.5333 16.2826 33.4867 16.2608 33.4441C15.9029 32.7483 15.2053 31.1534 16.1066 30.7815C17.268 30.3019 21.8689 29.3576 22.8616 27.7145C23.8157 26.1354 22.9694 24.0967 21.6999 23.517C21.6595 23.4977 21.6132 23.4947 21.5706 23.5087C21.528 23.5227 21.4924 23.5525 21.4711 23.5922L21.3652 23.7935C21.3492 23.8241 21.3244 23.8492 21.2941 23.8656C21.2638 23.882 21.2293 23.8888 21.1951 23.8853C21.1609 23.8818 21.1285 23.868 21.1021 23.8458C21.0758 23.8236 21.0566 23.7939 21.0471 23.7606C21.0381 23.7284 21.0201 23.6995 20.9951 23.6775C20.9701 23.6554 20.9393 23.6411 20.9064 23.6364C20.8735 23.6317 20.8399 23.6366 20.8098 23.6508C20.7796 23.6649 20.7542 23.6875 20.7366 23.7159C20.4315 24.2074 19.6076 25.0044 17.4047 25.4135C14.2738 25.9951 12.2028 27.2704 12.1524 29.4479C12.1519 29.479 12.1431 29.5094 12.127 29.5359C12.1108 29.5624 12.088 29.5841 12.0607 29.5987C12.0335 29.6133 12.0028 29.6203 11.972 29.619C11.9411 29.6177 11.9112 29.6081 11.8853 29.5912C11.6543 29.4493 11.2842 29.3828 10.7899 29.8011C9.9301 30.529 10.2818 32.4165 12.1667 33.9693C12.1879 33.9859 12.205 34.0073 12.2165 34.0319C12.228 34.0564 12.2336 34.0833 12.2328 34.1104C12.232 34.1375 12.2248 34.164 12.212 34.1878C12.1991 34.2116 12.1808 34.232 12.1586 34.2473C11.8168 34.4711 11.3074 35.0039 12.6276 35.7141C13.9927 36.4485 15.0123 36.3882 15.4037 36.3231C15.4268 36.3192 15.4488 36.3107 15.4685 36.2979C15.4882 36.2851 15.505 36.2685 15.5181 36.2489C15.5311 36.2294 15.5401 36.2073 15.5444 36.1842C15.5487 36.161 15.5482 36.1372 15.5431 36.1143L15.1239 34.2007C15.1184 34.1753 15.1185 34.149 15.1244 34.1237C15.1303 34.0984 15.1417 34.0748 15.1579 34.0545C15.1741 34.0342 15.1945 34.0179 15.2178 34.0067C15.2411 33.9954 15.2666 33.9896 15.2924 33.9896L15.946 33.9899Z" fill="#38516B"/>
<path id="Vector_40" d="M16.0232 34.3933C16.0232 34.3933 15.3286 31.7047 14.1311 32.4585C12.9336 33.2124 14.7526 35.4697 15.7154 35.5714L16.0232 34.3933Z" fill="#FDBAA0"/>
<path id="Vector_41" d="M15.9341 74.0098L23.9806 74.1099L21.1646 71.4419C20.4638 70.7789 19.3962 70.6715 18.5881 71.1978C18.0469 71.5468 17.5641 71.9799 17.1575 72.4809C17.1575 72.4809 12.138 70.6346 9.70472 66.5039C8.74418 67.9466 7.93588 69.4863 7.29297 71.098C9.47427 72.3879 12.3019 73.4014 15.9341 74.0098Z" fill="#FDBAA0"/>
<path id="Vector_42" d="M16.8038 75.054C16.8194 75.054 16.8348 75.054 16.8507 75.054L37.2759 75.0317C37.3947 75.0316 37.5123 75.0079 37.622 74.9621C37.7317 74.9162 37.8313 74.849 37.9152 74.7644C37.9991 74.6798 38.0657 74.5794 38.111 74.4689C38.1563 74.3584 38.1796 74.2399 38.1795 74.1204C38.1794 74.0008 38.1558 73.8825 38.1103 73.7721C38.0647 73.6617 37.998 73.5614 37.9139 73.4769C37.8298 73.3925 37.73 73.3255 37.6202 73.2799C37.5104 73.2342 37.3928 73.2108 37.274 73.2109L16.8485 73.2332C16.6088 73.2272 16.3765 73.3173 16.2027 73.4838C16.029 73.6502 15.9281 73.8792 15.9222 74.1205C15.9162 74.3618 16.0058 74.5956 16.1711 74.7705C16.3364 74.9453 16.564 75.0469 16.8038 75.0529V75.054Z" fill="#38516B"/>
<path id="Vector_43" d="M55.6364 56.5859H38.6261C38.0135 56.5845 37.4131 56.7577 36.8942 57.0853C36.3753 57.4129 35.9592 57.8817 35.6939 58.4374L27.8301 75.043H48.9693C49.363 75.0441 49.748 74.9264 50.0747 74.7052C50.4014 74.484 50.6547 74.1694 50.8021 73.8019L56.8999 58.436C57.2522 57.5482 56.5951 56.5859 55.6364 56.5859Z" fill="#38516B"/>
<path id="Vector_44" d="M46.1988 65.9285C46.5717 64.7894 46.3048 63.6772 45.6026 63.4443C44.9004 63.2114 44.0288 63.946 43.6558 65.085C43.2828 66.2241 43.5497 67.3363 44.252 67.5692C44.9542 67.8021 45.8258 67.0676 46.1988 65.9285Z" fill="#445D78"/>
</g>
<defs>
<clipPath id="clip0_767_3005">
<rect width="77.9258" height="77.9258" fill="white" transform="translate(0.537109 0.246094)"/>
</clipPath>
</defs>
</svg>
