<svg width="89" height="90" viewBox="0 0 89 90" fill="none" xmlns="http://www.w3.org/2000/svg">
<g id="Frame" clip-path="url(#clip0_767_3065)">
<g id="Group">
<g id="Layer 1">
<path id="Vector" d="M88.2917 72.5502C88.2917 39.1722 61.2788 36.5994 57.8379 24.2724C54.397 11.9453 57.8379 72.0717 57.8379 72.0717L88.2917 72.5502Z" fill="#F3E7EC"/>
<path id="Vector_2" d="M57.8383 24.2732C57.8328 24.2493 57.8258 24.2266 57.8203 24.2023C55.1361 12.4534 34.8831 14.8803 34.8831 14.8803C29.6829 15.3548 25.8208 16.5182 22.9576 17.935C18.4356 20.1726 15.4558 24.2701 14.874 28.8749C14.5344 31.5713 13.1418 35.606 8.65835 37.064C-0.0718976 39.9049 2.99222 46.3911 3.84846 48.6634C4.59402 50.6426 8.80649 52.9839 2.67131 58.1049C-3.46387 63.2258 3.31314 71.9947 3.31314 71.9947L57.8383 72.0718V24.2732Z" fill="#FFE5F3"/>
<path id="Vector_3" d="M57.8383 24.2087C57.8328 24.1848 57.8258 24.1621 57.8203 24.1378C55.1361 12.389 34.8831 14.8158 34.8831 14.8158C29.6829 15.2904 25.8208 16.4537 22.9576 17.8705C18.4356 20.1082 15.4558 24.2056 14.874 28.8104C14.5344 31.5069 13.1418 35.5416 8.65835 36.9996C-0.0718976 39.8405 2.99222 46.3266 3.84846 48.599C4.59402 50.5782 8.80649 52.9195 2.67131 58.0404C-3.46387 63.1614 3.31314 71.9303 3.31314 71.9303L57.8383 72.0073V24.2087Z" fill="#F3E7EC"/>
<path id="Vector_4" d="M57.4044 43.2183C57.3481 43.038 58.1374 42.8955 58.1801 42.7136C58.2228 42.5318 57.1847 42.5133 57.148 42.3531C57.0803 42.058 58.2859 42.2953 58.2627 42.1574C58.2394 42.0195 57.0071 41.7063 57.141 41.4706C57.2749 41.2348 58.3883 41.9428 58.4226 41.7826C58.4569 41.6223 57.3339 41.2271 57.3551 40.875C57.3665 40.6871 59.1973 41.8203 59.4103 41.719C59.6233 41.6177 59.1848 40.7314 59.3545 40.6019C59.5241 40.4725 60.0043 42.402 60.1212 42.4667C60.2381 42.5314 62.7111 44.1116 63.5905 44.3646C63.6988 44.0372 64.4735 42.3015 64.5692 41.9918C65.0626 42.3847 65.6361 42.4721 66.1457 42.8304C65.7724 43.8585 64.4936 46.3878 64.2355 46.516C63.4493 46.9066 60.423 44.1 59.8187 43.6193C59.2143 43.1385 58.8663 43.2922 58.4569 43.1393C58.0476 42.9864 57.4602 43.3985 57.4044 43.2183Z" fill="#FDBAA0"/>
<path id="Vector_5" d="M71.3205 56.8196L71.043 56.5603C72.0626 55.2356 72.6229 52.7109 72.6642 49.2595C72.6795 47.618 72.594 45.9774 72.4085 44.3488L72.7697 44.293C72.9567 45.9401 73.0426 47.5994 73.0267 49.2595C73.0084 50.8261 72.8848 52.2171 72.6593 53.3939C72.3755 54.882 71.9245 56.0345 71.3205 56.8196Z" fill="#13375B"/>
<path id="Vector_6" d="M70.0645 39.7286C70.2348 39.7286 76.7867 39.3048 76.8991 40.2494C77.0115 41.1939 77.2398 48.5699 76.1046 48.821C74.9694 49.0722 69.4629 47.9385 69.4629 47.9385L70.0645 39.7286Z" fill="#38516B"/>
<path id="Vector_7" d="M65.6774 44.032C65.6774 44.032 67.3506 42.6869 67.8565 41.7231C68.3623 40.7593 67.5119 41.3872 66.6422 41.1337C66.3136 41.0374 66.3966 38.9169 65.7749 39.6064C64.7549 40.737 63.9219 42.9831 63.9219 42.9831L65.6774 44.032Z" fill="#9F2F5E"/>
<path id="Vector_8" d="M68.1796 38.6322C68.1796 38.6322 69.9437 38.247 70.7469 38.9889C71.55 39.7308 70.5734 46.3079 70.5755 47.3992C70.5776 48.4904 71.1281 51.5713 71.1281 51.5713C71.1281 51.5713 65.7815 52.601 64.9322 50.9635C64.9322 50.9635 64.6894 44.7254 64.7265 43.9411C64.7636 43.1569 65.5553 39.9485 65.7743 39.6052C65.9932 39.262 68.1796 38.6322 68.1796 38.6322Z" fill="#9F2F5E"/>
<path id="Vector_9" d="M66.9175 37.4432C66.9928 37.86 67.066 38.2664 67.1201 38.5645C67.1486 38.7186 66.5602 40.1897 66.8773 40.2502C67.9483 40.4532 69.012 38.8138 68.8094 38.266L68.4205 37.209L66.9175 37.4432Z" fill="#FDBAA0"/>
<path id="Vector_10" d="M67.1082 33.3387C67.1082 33.3387 67.8645 33.2424 68.3388 33.9166C68.813 34.5907 69.3237 36.6723 68.1462 37.8045C66.9687 38.9366 66.0393 37.6839 65.8669 36.3253C65.6944 34.9666 65.3933 33.2894 67.1082 33.3387Z" fill="#FDBAA0"/>
<path id="Vector_11" d="M60.3555 46.1014L65.2975 44.7797C65.2975 44.7797 67.0454 42.1988 68.7287 39.9766C69.2463 40.5159 69.5444 41.3602 70.0658 41.8961L66.3623 46.5956C66.2959 46.6795 66.2145 46.7472 66.1233 46.7945C66.0321 46.8418 65.9331 46.8676 65.8325 46.8703L60.5716 47.0089L60.3555 46.1014Z" fill="#FDBAA0"/>
<path id="Vector_12" d="M68.1684 44.6045C68.1684 44.6045 70.5182 42.4763 71.024 41.5128C71.5299 40.5494 71.1548 38.9354 70.2865 38.6816C69.4181 38.4277 66.584 42.7898 66.584 42.7898L68.1684 44.6045Z" fill="#9F2F5E"/>
<path id="Vector_13" d="M56.9942 46.6504C56.9422 46.5622 57.0723 46.4135 57.1698 46.3014C57.2777 46.1777 57.933 45.8665 58.043 45.8291C58.153 45.7918 59.1074 45.9397 59.4724 46.071C59.8373 46.2024 60.0774 46.1481 60.0774 46.1481C60.1732 46.1265 60.3172 46.0976 60.4289 46.071L60.6575 47.0075C59.8009 46.9955 58.9055 47.0656 58.8243 47.0633C58.5669 47.056 58.0957 46.7598 57.9858 46.7166C57.8758 46.6735 57.6551 46.7074 57.5063 46.7844C57.3575 46.8615 56.9238 47.0437 56.8509 47.0013C56.7781 46.9589 56.9942 46.6504 56.9942 46.6504Z" fill="#F7A491"/>
<path id="Vector_14" d="M68.514 35.691C68.447 36.0408 68.5737 36.3675 68.7974 36.4202C69.0212 36.473 69.2564 36.2323 69.3234 35.8809C69.3904 35.5296 69.2637 35.2045 69.0403 35.1518C68.8169 35.099 68.581 35.3413 68.514 35.691Z" fill="#FDBAA0"/>
<path id="Vector_15" d="M61.7676 66.5861C61.7676 66.5861 63.3905 68.7271 63.4013 68.9136C63.412 69.1 63.3368 71.1331 63.1439 71.3192C62.951 71.5052 62.3837 71.6378 62.5662 71.8473C62.705 72.0056 63.7638 71.9717 64.466 71.9294C64.6711 71.917 64.9285 70.1189 65.0097 69.8523C65.1276 69.4671 65.4142 68.6023 65.307 68.3346C65.255 68.204 65.0048 67.9359 64.6527 67.6855C64.2822 67.4224 62.8649 65.2529 62.8649 65.2529L61.7676 66.5861Z" fill="#F48C7F"/>
<path id="Vector_16" d="M64.633 67.6729C64.633 67.6729 63.5433 71.0488 63.1166 71.2118C63.0035 71.2549 62.4598 71.3658 62.3575 71.6293C62.3266 71.7087 62.3575 71.976 62.3575 71.976H64.6288C64.6288 71.976 64.9161 70.4887 65.0296 69.835C65.0296 69.835 65.6308 68.2383 65.5642 68.0931C65.4976 67.9479 64.633 67.6729 64.633 67.6729Z" fill="#466EB6"/>
<path id="Vector_17" d="M52.0472 67.6141C52.0472 67.6141 50.7219 69.6672 50.8385 70.3167C50.9009 70.6634 51.1788 71.1195 51.0192 71.4469C50.8596 71.7743 50.6775 71.856 50.6775 71.856L46.5434 71.9292C46.3183 71.933 46.4671 71.7751 46.6475 71.6272C46.9448 71.3872 47.1846 71.2289 48.1341 70.7242C48.1959 70.6915 48.4214 70.5343 48.5026 70.4796C48.7086 70.3413 48.9158 70.1237 49.0924 69.906C49.389 69.5432 50.6945 66.5859 50.6945 66.5859L52.0472 67.6141Z" fill="#F7A491"/>
<path id="Vector_18" d="M48.5048 70.4796C49.598 70.7878 50.4064 70.5782 50.8584 70.3779C50.975 70.7408 51.1297 71.1961 51.0475 71.4584C50.9473 71.7801 50.8047 71.8525 50.678 71.8564C49.6796 71.8853 47.02 71.9242 46.2584 71.9334C46.2348 71.934 46.2115 71.927 46.1913 71.9132C46.1711 71.8994 46.155 71.8795 46.1448 71.8558C46.1346 71.832 46.1308 71.8055 46.1338 71.7795C46.1369 71.7534 46.1467 71.7289 46.162 71.7088C46.3507 71.4631 48.4233 70.5343 48.5048 70.4796Z" fill="#466EB6"/>
<path id="Vector_19" d="M56.8427 54.9486C56.8427 54.9486 58.4837 57.0095 58.9025 57.3369C59.3212 57.6643 63.3377 65.8015 63.3377 65.8015L61.9069 66.9513C61.9069 66.9513 58.3169 62.0261 56.6308 59.3916C55.2056 57.1643 55.7305 57.3053 54.8923 55.9494C54.6684 55.5892 54.5704 55.1507 54.6167 54.716C54.663 54.2814 54.8504 53.8804 55.1438 53.5881C55.2194 53.5128 55.3019 53.4342 55.3912 53.3523C56.6321 52.2144 65.1376 50.9336 65.1376 50.9336L70.5782 51.5199C70.5782 51.5199 66.1333 54.9482 65.9671 55.0407C65.8009 55.1331 59.8291 56.0904 59.7046 56.0904C59.58 56.0904 56.8427 54.9486 56.8427 54.9486Z" fill="#EAB054"/>
<path id="Vector_20" d="M71.1289 51.5727C71.1289 51.5727 72.0618 54.6544 70.6623 56.0904C69.2628 57.5265 60.9482 57.3681 58.2095 57.3681C58.2095 57.3681 57.0899 60.7449 56.9654 61.2926C56.8408 61.8404 51.4078 68.9136 51.4078 68.9136L49.916 67.8639C49.916 67.8639 55.7639 55.3601 56.2202 54.8127C56.6764 54.2653 63.1866 52.0746 64.805 51.5727C66.4235 51.0708 71.1289 51.5727 71.1289 51.5727Z" fill="#F7CC7F"/>
<path id="Vector_21" d="M45.6934 39.8106H53.8831C53.9887 39.8103 54.092 39.8448 54.1799 39.9098C54.2679 39.9747 54.3365 40.0671 54.3771 40.1754L56.899 46.9427H61.414C61.4743 46.9424 61.5322 46.9687 61.5751 47.0158C61.6179 47.0628 61.6422 47.1269 61.6426 47.1938C61.6425 47.227 61.6364 47.2599 61.6249 47.2905C61.6133 47.3211 61.5964 47.3488 61.5752 47.3722C61.554 47.3956 61.5288 47.414 61.5011 47.4266C61.4735 47.4392 61.4439 47.4455 61.414 47.4454H48.5639C48.3915 47.4458 48.2226 47.391 48.0774 47.2877C47.9323 47.1843 47.817 47.0367 47.7455 46.8626L45.2063 40.6388C45.1701 40.5489 45.1548 40.4504 45.1618 40.3523C45.1688 40.2542 45.1979 40.1596 45.2464 40.0771C45.2948 39.9947 45.3611 39.9271 45.4392 39.8806C45.5173 39.834 45.6047 39.8099 45.6934 39.8106Z" fill="#38516B"/>
<path id="Vector_22" d="M50.1013 43.7519C50.1565 44.0558 50.3976 44.2592 50.6394 44.206C50.8812 44.1529 51.0325 43.8632 50.9773 43.5593C50.9222 43.2554 50.6811 43.052 50.4389 43.1051C50.1967 43.1583 50.0458 43.4487 50.1013 43.7519Z" fill="white"/>
<path id="Vector_23" d="M26.1046 72.0796H25.4805L26.8106 59.2422H27.4347L26.1046 72.0796Z" fill="#38516B"/>
<path id="Vector_24" d="M33.1505 72.0796H33.7746L32.4444 59.2422H31.8203L33.1505 72.0796Z" fill="#38516B"/>
<path id="Vector_25" d="M15.5304 72.0796H14.9062L16.2367 59.2422H16.8609L15.5304 72.0796Z" fill="#38516B"/>
<path id="Vector_26" d="M22.5782 72.0796H23.2023L21.8722 59.2422H21.248L22.5782 72.0796Z" fill="#38516B"/>
<path id="Vector_27" d="M25.6337 60.6367H17.1207C16.1232 60.6367 15.2316 59.7388 15.1293 58.6309L13.7224 43.3739C13.6204 42.2661 14.3469 41.3682 15.344 41.3682H23.8571C24.8545 41.3682 25.7465 42.2661 25.8485 43.3739L27.2553 58.6309C27.3573 59.7388 26.6315 60.6367 25.6337 60.6367Z" fill="#800639"/>
<path id="Vector_28" d="M27.9957 60.6367H19.484C18.4862 60.6367 17.5946 59.7388 17.4926 58.6309L16.0858 43.3739C15.9834 42.2661 16.7103 41.3682 17.7074 41.3682H26.2201C27.2179 41.3682 28.1095 42.2661 28.2118 43.3739L29.6183 58.6309C29.7206 59.7388 28.9945 60.6367 27.9957 60.6367Z" fill="#800639"/>
<path id="Vector_29" d="M29.1384 61.3403H17.0724C16.1374 61.3403 15.303 60.499 15.2063 59.4609C15.1105 58.4208 15.7908 57.5811 16.7258 57.5811H28.7918C29.7286 57.5811 30.5612 58.4227 30.658 59.4609C30.7538 60.499 30.0734 61.3403 29.1384 61.3403Z" fill="#800639"/>
<path id="Vector_30" d="M32.1488 61.3403H20.0845C19.1478 61.3403 18.3151 60.499 18.218 59.4609C18.1222 58.4208 18.8026 57.5811 19.7375 57.5811H31.8039C32.7406 57.5811 33.5733 58.4227 33.6701 59.4609C33.7641 60.499 33.0837 61.3403 32.1488 61.3403Z" fill="#800639"/>
<path id="Vector_31" d="M34.4565 45.9136C34.5124 45.7333 33.7231 45.5912 33.6804 45.409C33.6378 45.2268 34.6761 45.2087 34.7126 45.0484C34.782 44.7534 33.5746 44.991 33.5979 44.8528C33.6211 44.7145 34.8538 44.4021 34.7195 44.1659C34.5853 43.9298 33.4706 44.6386 33.4379 44.4779C33.4053 44.3173 34.5266 43.9225 34.5055 43.5704C34.494 43.3824 32.6632 44.5161 32.4502 44.4144C32.2372 44.3127 32.6757 43.4271 32.5061 43.2973C32.3364 43.1675 31.8563 45.097 31.7394 45.1617C31.6224 45.2264 29.1495 46.8065 28.27 47.0596C28.1618 46.7322 27.3871 44.9964 27.2917 44.6867C26.798 45.0796 26.2245 45.1671 25.7148 45.5257C26.0881 46.5534 27.3669 49.0831 27.6251 49.2114C28.4112 49.602 31.4375 46.7954 32.0419 46.3146C32.6462 45.8339 32.9942 45.9872 33.4036 45.8343C33.813 45.6813 34.4003 46.0927 34.4565 45.9136Z" fill="#FDBAA0"/>
<path id="Vector_32" d="M26.7742 37.726C26.8109 36.7457 26.6808 35.778 26.286 34.8655C25.946 34.0804 25.1064 33.6328 24.3387 33.6328C21.9039 33.6293 21.5941 37.2014 20.0443 38.5789C19.5708 39.0007 19.0431 39.3435 18.5921 39.7977C16.9372 41.4741 17.6827 44.5774 19.202 46.0469C20.2573 47.0666 21.9146 47.6471 23.2143 46.8489C23.8925 46.4329 24.4077 45.7411 24.7755 44.983C25.2959 43.9071 25.6317 42.666 26.0022 41.5196C26.3953 40.2992 26.7256 39.0288 26.7742 37.726Z" fill="#38516B"/>
<path id="Vector_33" d="M25.864 46.7468C25.864 46.7468 24.0454 44.6767 23.5777 43.7772C23.11 42.8777 23.8962 43.4636 24.6997 43.2267C25.004 43.1374 24.9269 41.1574 25.5022 41.8015C26.4458 42.8573 27.632 44.7032 27.632 44.7032L25.864 46.7468Z" fill="#9F2F5E"/>
<path id="Vector_34" d="M23.2798 40.8933C23.2798 40.8933 21.6492 40.5358 20.9033 41.2265C20.1574 41.9171 21.0629 48.0589 21.0618 49.077C21.0608 50.0951 20.5508 52.9719 20.5508 52.9719C20.5508 52.9719 25.4967 53.933 26.2821 52.4048C26.2821 52.4048 26.5059 46.5816 26.4726 45.8494C26.4393 45.1171 25.7055 42.1225 25.5033 41.8016C25.301 41.4807 23.2798 40.8933 23.2798 40.8933Z" fill="#9F2F5E"/>
<path id="Vector_35" d="M23.2689 38.0906C23.2689 38.0906 23.2606 38.1446 23.245 38.2366C23.1711 38.6792 22.8859 40.1461 22.6933 40.5479C22.4609 41.0352 23.4913 42.5895 24.4807 42.4C24.7756 42.3437 24.2313 40.9716 24.2577 40.8264C24.3076 40.5483 24.3756 40.1688 24.445 39.7798C24.4842 39.5602 24.5238 39.3376 24.5612 39.1284C24.667 38.534 24.7534 38.0498 24.7534 38.0498L23.2689 38.0906Z" fill="#FDBAA0"/>
<path id="Vector_36" d="M24.268 34.3521C24.268 34.3521 23.5682 34.2623 23.1297 34.8914C22.6912 35.5204 22.2183 37.4638 23.308 38.5208C24.3978 39.5778 25.4739 38.3814 25.6325 37.1129C25.791 35.8444 25.8552 34.3062 24.268 34.3521Z" fill="#FDBAA0"/>
<path id="Vector_37" d="M25.9566 37.0927C25.8265 37.3731 25.6097 37.5279 25.4688 37.4393C25.328 37.3507 25.3238 37.0541 25.4522 36.7722C25.5805 36.4902 25.7991 36.3369 25.9399 36.4255C26.0808 36.5141 26.087 36.8134 25.9566 37.0927Z" fill="#FDBAA0"/>
<path id="Vector_38" d="M24.3485 34.1437C24.3485 34.1437 23.4118 35.9927 22.7449 36.0774C22.0781 36.1622 21.9883 37.1452 21.9883 37.1452C21.9883 37.1452 22.2273 34.8817 22.8903 34.4453C23.5533 34.0089 24.3485 34.1437 24.3485 34.1437Z" fill="#38516B"/>
<path id="Vector_39" d="M22.9169 36.5422C22.9714 36.8704 22.8621 37.1717 22.674 37.2144C22.486 37.2572 22.2872 37.0265 22.2327 36.6983C22.1783 36.3701 22.2879 36.0688 22.4756 36.0257C22.6633 35.9825 22.8628 36.214 22.9169 36.5422Z" fill="#FDBAA0"/>
<path id="Vector_40" d="M29.2099 66.987C29.2099 66.987 27.7087 68.9854 27.699 69.1595C27.6893 69.3337 27.7583 71.2316 27.937 71.4053C28.1157 71.579 28.6402 71.7027 28.4716 71.8984C28.3439 72.0463 27.3635 72.0139 26.7137 71.9754C26.5239 71.9639 26.2863 70.2836 26.211 70.0367C26.102 69.678 25.8366 68.8699 25.9359 68.6199C25.9841 68.4981 26.2155 68.2478 26.5413 68.0139C26.884 67.7682 28.1948 65.7412 28.1948 65.7412L29.2099 66.987Z" fill="#FDBAA0"/>
<path id="Vector_41" d="M26.5633 68.002C26.5633 68.002 27.5715 71.1533 27.966 71.3055C28.0701 71.344 28.5735 71.4484 28.6685 71.6953C28.697 71.7697 28.6685 72.0181 28.6685 72.0181H26.5672C26.5672 72.0181 26.3014 70.6295 26.1963 70.0193C26.1963 70.0193 25.6412 68.5285 25.7019 68.3933C25.7626 68.2581 26.5633 68.002 26.5633 68.002Z" fill="#800639"/>
<path id="Vector_42" d="M38.2012 67.9472C38.2012 67.9472 39.4272 69.8637 39.3193 70.4696C39.2617 70.7943 39.0047 71.2192 39.1521 71.5247C39.2996 71.8301 39.4682 71.9068 39.4682 71.9068L43.2928 71.975C43.5009 71.9788 43.3622 71.8301 43.1953 71.6934C42.9205 71.4692 42.6985 71.3213 41.8204 70.8506C41.7631 70.8197 41.5546 70.673 41.4794 70.6221C41.2885 70.4931 41.0977 70.2897 40.9322 70.0863C40.6575 69.7477 39.4501 66.9873 39.4501 66.9873L38.2012 67.9472Z" fill="#F7A491"/>
<path id="Vector_43" d="M41.4802 70.6211C40.4689 70.9085 39.7213 70.7132 39.3029 70.5264C39.1953 70.865 39.0521 71.2899 39.1294 71.5348C39.2224 71.8349 39.3546 71.9027 39.4711 71.9062C40.395 71.9332 42.8551 71.9697 43.5598 71.9798C43.5817 71.98 43.6033 71.9733 43.622 71.9603C43.6406 71.9474 43.6555 71.9288 43.6649 71.9067C43.6743 71.8847 43.6777 71.8601 43.6749 71.8359C43.6721 71.8117 43.6631 71.7889 43.6489 71.7702C43.473 71.5391 41.5559 70.672 41.4802 70.6211Z" fill="#F7CC7F"/>
<path id="Vector_44" d="M33.7667 56.1248C33.7667 56.1248 32.2488 58.0486 31.8616 58.3533C31.4745 58.658 27.7585 66.2554 27.7585 66.2554L29.0824 67.3282C29.0824 67.3282 32.4032 62.7308 33.9613 60.2716C35.2796 58.1915 34.7939 58.324 35.57 57.0582C35.7771 56.7214 35.8676 56.3127 35.8248 55.9077C35.7819 55.5026 35.6086 55.1284 35.3369 54.854C35.2675 54.7837 35.1913 54.7102 35.1082 54.6337C33.9602 53.5713 26.0921 52.376 26.0921 52.376L21.0605 52.9249C21.0605 52.9249 25.1724 56.1264 25.3278 56.2115C25.4833 56.2966 31.0061 57.1911 31.1216 57.1911C31.2372 57.1911 33.7667 56.1248 33.7667 56.1248Z" fill="#38516B"/>
<path id="Vector_45" d="M20.5496 52.972C20.5496 52.972 19.6861 55.8476 20.9812 57.1893C22.2763 58.531 29.9668 58.3834 32.4994 58.3834C32.4994 58.3834 33.5353 61.5356 33.6505 62.0468C33.7657 62.5579 38.7914 69.1612 38.7914 69.1612L40.1729 68.1812C40.1729 68.1812 34.7645 56.5071 34.343 55.9967C33.9215 55.4863 27.8973 53.4408 26.401 52.972C24.9046 52.5032 20.5496 52.972 20.5496 52.972Z" fill="#38516B"/>
<path id="Vector_46" d="M30.4987 46.7876C30.5549 46.6069 29.7653 46.4648 29.7226 46.2826C29.68 46.1004 30.7183 46.0823 30.7551 45.9224C30.8224 45.627 29.6168 45.8646 29.6404 45.7267C29.664 45.5888 30.896 45.2757 30.762 45.0395C30.6281 44.8034 29.5131 45.5122 29.4784 45.3515C29.4437 45.1909 30.5671 44.7961 30.5459 44.4444C30.5345 44.256 28.7037 45.3897 28.4907 45.2884C28.2777 45.1871 28.7165 44.3007 28.5465 44.1713C28.3765 44.0418 27.8967 45.971 27.7801 46.0361C27.6636 46.1012 25.1903 47.6805 24.3091 47.934C24.2012 47.6062 23.4261 45.8708 23.3307 45.5607C22.837 45.9536 22.2636 46.0415 21.7539 46.3997C22.1272 47.4278 23.4064 49.9571 23.6645 50.0854C24.4503 50.476 27.4766 47.6693 28.0809 47.1886C28.6853 46.7079 29.0333 46.8616 29.443 46.7086C29.8527 46.5557 30.4425 46.9679 30.4987 46.7876Z" fill="#FDBAA0"/>
<path id="Vector_47" d="M21.5188 46.6746C21.5188 46.6746 20.4478 44.0386 20.2851 43.0151C20.1224 41.9916 20.9131 40.7081 21.7422 40.7909C22.5714 40.8737 23.8113 45.4246 23.8113 45.4246L21.5188 46.6746Z" fill="#9F2F5E"/>
<path id="Vector_48" d="M38.2514 71.998H63.2383V47.7946H38.2514V71.998Z" fill="#F2F2F2"/>
<path id="Vector_49" d="M77.6043 48.1641H63.2148V72.0235H77.6043V48.1641Z" fill="white"/>
<g id="Vector_50" style="mix-blend-mode:multiply" opacity="0.5">
<path d="M61.8313 72.0225H63.2148V48.163H61.8313V72.0225Z" fill="#38516B"/>
</g>
<path id="Vector_51" d="M36.4915 48.1641L79.2324 48.1641V47.4252L36.4915 47.4252V48.1641Z" fill="#9F2F5E"/>
<path id="Vector_52" d="M88.2914 71.833H1.25195V72.5495H88.2914V71.833Z" fill="#38516B"/>
<path id="Vector_53" d="M68.6794 35.3593L68.6259 35.3654C68.6099 35.3674 68.5936 35.3658 68.5782 35.3605C68.5627 35.3553 68.5484 35.3466 68.5361 35.335C68.5238 35.3234 68.5138 35.309 68.5067 35.2929C68.4996 35.2768 68.4956 35.2593 68.4948 35.2414C68.4827 34.9482 68.4188 34.2999 68.091 34.3488C67.6687 34.4124 66.1572 34.9733 65.5885 34.6277C65.0418 34.2957 64.9464 33.4752 65.2218 33.0484C65.2305 33.0345 65.2437 33.0249 65.2586 33.0215C65.2735 33.018 65.289 33.0211 65.302 33.0299L65.3668 33.0754C65.3768 33.0823 65.3883 33.0857 65.4 33.0853C65.4117 33.0849 65.423 33.0806 65.4325 33.073C65.442 33.0654 65.4492 33.0548 65.4532 33.0426C65.4572 33.0303 65.4578 33.0171 65.455 33.0045C65.4521 32.9923 65.4525 32.9796 65.4561 32.9677C65.4597 32.9558 65.4664 32.9454 65.4753 32.9376C65.4842 32.9299 65.4949 32.9252 65.5061 32.9242C65.5174 32.9231 65.5286 32.9257 65.5386 32.9317C65.712 33.0334 66.0878 33.1366 66.8042 32.8546C67.8228 32.4529 68.6461 32.4764 69.0284 33.1728C69.0337 33.1831 69.0415 33.1916 69.0508 33.1974C69.0602 33.2031 69.0708 33.206 69.0815 33.2056C69.0922 33.2052 69.1026 33.2016 69.1115 33.1951C69.1205 33.1887 69.1278 33.1796 69.1325 33.169C69.1765 33.0792 69.274 32.9879 69.4898 33.0303C69.8652 33.1042 70.0796 33.7826 69.7882 34.6412C69.7848 34.6506 69.7834 34.6608 69.7842 34.6709C69.785 34.681 69.7879 34.6907 69.7927 34.6993C69.7975 34.7079 69.804 34.7152 69.8118 34.7205C69.8196 34.7258 69.8283 34.729 69.8374 34.7298C69.9762 34.7383 70.2152 34.815 69.9471 35.2938C69.6695 35.7895 69.3597 35.9621 69.2334 36.0149C69.226 36.0179 69.218 36.0193 69.2101 36.0188C69.2021 36.0184 69.1944 36.0162 69.1872 36.0123C69.1801 36.0084 69.1737 36.0029 69.1685 35.9962C69.1634 35.9895 69.1595 35.9817 69.1571 35.9733L68.9576 35.2737C68.9551 35.2643 68.9508 35.2557 68.9449 35.2484C68.939 35.2411 68.9317 35.2354 68.9235 35.2317C68.9153 35.228 68.9065 35.2264 68.8977 35.227C68.8889 35.2276 68.8803 35.2304 68.8726 35.2352L68.6794 35.3593Z" fill="#38516B"/>
</g>
</g>
</g>
<defs>
<clipPath id="clip0_767_3065">
<rect width="88.1892" height="88.5693" fill="white" transform="translate(0.101562 0.923828)"/>
</clipPath>
</defs>
</svg>
