<svg width="32" height="32" viewBox="0 0 32 32" fill="none" xmlns="http://www.w3.org/2000/svg">
<g id="Leaf">
<path fill="#FFFFFF"  id="Vector" d="M27.9313 5.00877C27.917 4.76413 27.8133 4.53325 27.6401 4.35997C27.4668 4.18668 27.2359 4.08306 26.9913 4.06877C17.475 3.51002 9.85251 6.37502 6.60251 11.75C5.47596 13.5887 4.92083 15.7204 5.00751 17.875C5.07876 19.865 5.65876 21.875 6.73126 23.8563L4.29251 26.2938C4.10487 26.4814 3.99945 26.7359 3.99945 27.0013C3.99945 27.2666 4.10487 27.5211 4.29251 27.7088C4.48015 27.8964 4.73464 28.0018 5.00001 28.0018C5.26537 28.0018 5.51987 27.8964 5.70751 27.7088L8.14501 25.27C10.125 26.3413 12.1363 26.9213 14.125 26.9925C14.2642 26.9975 14.4029 27 14.5413 27C16.5559 27.0054 18.5324 26.4506 20.25 25.3975C25.625 22.1475 28.4913 14.5263 27.9313 5.00877ZM19.2188 23.6875C16.375 25.41 13.0088 25.4375 9.63001 23.7838L20.7088 12.7063C20.8017 12.6134 20.8754 12.5031 20.9257 12.3817C20.9759 12.2603 21.0018 12.1302 21.0018 11.9988C21.0018 11.8674 20.9759 11.7373 20.9257 11.6159C20.8754 11.4945 20.8017 11.3842 20.7088 11.2913C20.6158 11.1984 20.5055 11.1247 20.3842 11.0744C20.2628 11.0241 20.1327 10.9982 20.0013 10.9982C19.8699 10.9982 19.7398 11.0241 19.6184 11.0744C19.497 11.1247 19.3867 11.1984 19.2938 11.2913L8.21626 22.375C6.56751 19 6.59126 15.625 8.31251 12.7863C11.0738 8.22752 17.6375 5.73127 25.9763 6.02877C26.275 14.3613 23.7775 20.9263 19.2188 23.6875Z"/>
</g>
</svg>
