<svg width="32" height="32" viewBox="0 0 32 32" fill="none" xmlns="http://www.w3.org/2000/svg">
<g id="UserGear">
<path fill="#FFFFFF"  id="Vector" d="M18 19.71C19.5676 18.7336 20.7746 17.2733 21.4383 15.5498C22.1021 13.8264 22.1864 11.9337 21.6787 10.1581C21.1709 8.38242 20.0987 6.82045 18.6242 5.70847C17.1496 4.59649 15.3531 3.995 13.5063 3.995C11.6594 3.995 9.86286 4.59649 8.38834 5.70847C6.91381 6.82045 5.84156 8.38242 5.33381 10.1581C4.82606 11.9337 4.91044 13.8264 5.57417 15.5498C6.2379 17.2733 7.44488 18.7336 9.0125 19.71C6.43125 20.555 4.10875 22.1337 2.24125 24.3562C2.15375 24.4563 2.08708 24.5728 2.04513 24.6989C2.00318 24.8251 1.98679 24.9583 1.99693 25.0908C2.00707 25.2233 2.04353 25.3525 2.10418 25.4708C2.16483 25.5891 2.24845 25.6941 2.35015 25.7797C2.45186 25.8653 2.5696 25.9297 2.6965 25.9692C2.8234 26.0088 2.95691 26.0226 3.08923 26.01C3.22155 25.9973 3.35001 25.9584 3.46712 25.8955C3.58422 25.8327 3.68762 25.7471 3.77125 25.6437C6.28125 22.6487 9.73875 21 13.5 21C17.2613 21 20.7188 22.6487 23.2338 25.6437C23.4045 25.847 23.649 25.974 23.9134 25.997C24.1778 26.02 24.4405 25.937 24.6438 25.7662C24.847 25.5955 24.974 25.351 24.997 25.0866C25.02 24.8222 24.937 24.5595 24.7663 24.3562C22.8975 22.1337 20.575 20.555 18 19.71ZM7 12.5C7 11.2144 7.38122 9.95771 8.09545 8.88879C8.80968 7.81987 9.82484 6.98675 11.0126 6.49478C12.2003 6.00281 13.5072 5.87409 14.7681 6.12489C16.029 6.37569 17.1872 6.99476 18.0962 7.9038C19.0052 8.81284 19.6243 9.97103 19.8751 11.2319C20.1259 12.4928 19.9972 13.7997 19.5052 14.9874C19.0132 16.1752 18.1801 17.1903 17.1112 17.9045C16.0423 18.6188 14.7856 19 13.5 19C11.7767 18.998 10.1246 18.3126 8.906 17.094C7.68744 15.8754 7.00199 14.2233 7 12.5ZM30.5313 17.8837L29.9488 17.5475C30.0171 17.1857 30.0171 16.8143 29.9488 16.4525L30.5313 16.1162C30.761 15.9836 30.9287 15.7652 30.9973 15.509C31.066 15.2528 31.0301 14.9797 30.8975 14.75C30.7649 14.5203 30.5465 14.3526 30.2902 14.2839C30.034 14.2152 29.761 14.2511 29.5313 14.3837L28.9475 14.7212C28.6681 14.4816 28.3469 14.2955 28 14.1725V13.5C28 13.2348 27.8946 12.9804 27.7071 12.7929C27.5196 12.6054 27.2652 12.5 27 12.5C26.7348 12.5 26.4804 12.6054 26.2929 12.7929C26.1054 12.9804 26 13.2348 26 13.5V14.1725C25.6531 14.2955 25.3319 14.4816 25.0525 14.7212L24.4688 14.3837C24.355 14.3181 24.2294 14.2755 24.0992 14.2583C23.969 14.2412 23.8366 14.2499 23.7098 14.2839C23.5829 14.3179 23.464 14.3766 23.3598 14.4566C23.2556 14.5365 23.1682 14.6362 23.1025 14.75C23.0368 14.8638 22.9942 14.9893 22.9771 15.1196C22.96 15.2498 22.9687 15.3821 23.0027 15.509C23.0367 15.6358 23.0953 15.7548 23.1753 15.859C23.2553 15.9632 23.355 16.0506 23.4688 16.1162L24.0513 16.4525C23.9829 16.8143 23.9829 17.1857 24.0513 17.5475L23.4688 17.8837C23.239 18.0164 23.0714 18.2348 23.0027 18.491C22.934 18.7472 22.9699 19.0203 23.1025 19.25C23.2351 19.4797 23.4536 19.6474 23.7098 19.7161C23.966 19.7848 24.239 19.7489 24.4688 19.6162L25.0525 19.2787C25.3319 19.5184 25.6531 19.7045 26 19.8275V20.5C26 20.7652 26.1054 21.0196 26.2929 21.2071C26.4804 21.3946 26.7348 21.5 27 21.5C27.2652 21.5 27.5196 21.3946 27.7071 21.2071C27.8946 21.0196 28 20.7652 28 20.5V19.8275C28.3469 19.7045 28.6681 19.5184 28.9475 19.2787L29.5313 19.6162C29.6831 19.7044 29.8557 19.7505 30.0313 19.75C30.2515 19.7501 30.4655 19.6775 30.6403 19.5435C30.815 19.4094 30.9406 19.2215 30.9976 19.0088C31.0546 18.7961 31.0397 18.5705 30.9554 18.3671C30.8711 18.1637 30.722 17.9938 30.5313 17.8837ZM26 17C26 16.8022 26.0586 16.6089 26.1685 16.4444C26.2784 16.28 26.4346 16.1518 26.6173 16.0761C26.8 16.0004 27.0011 15.9806 27.1951 16.0192C27.3891 16.0578 27.5673 16.153 27.7071 16.2929C27.847 16.4327 27.9422 16.6109 27.9808 16.8049C28.0194 16.9989 27.9996 17.2 27.9239 17.3827C27.8482 17.5654 27.72 17.7216 27.5556 17.8315C27.3911 17.9413 27.1978 18 27 18C26.7348 18 26.4804 17.8946 26.2929 17.7071C26.1054 17.5196 26 17.2652 26 17Z" />
</g>
</svg>
