<svg width="89" height="90" viewBox="0 0 89 90" fill="none" xmlns="http://www.w3.org/2000/svg">
<g id="Frame" clip-path="url(#clip0_766_2056)">
<g id="Group">
<g id="Layer 1">
<path id="Vector" d="M88.6193 72.4704C88.6193 39.1236 61.6316 36.5532 58.1939 24.2376C54.7562 11.9221 58.1939 71.9924 58.1939 71.9924L88.6193 72.4704Z" fill="#9FBCE7"/>
<path id="Vector_2" d="M58.1946 24.2388C58.1891 24.215 58.1822 24.1923 58.1766 24.168C55.4949 12.4301 35.2608 14.8547 35.2608 14.8547C30.0655 15.3288 26.207 16.4911 23.3464 17.9065C18.8287 20.1421 15.8517 24.2358 15.2704 28.8362C14.9311 31.5302 13.5398 35.5611 9.06053 37.0178C0.33842 39.856 3.39968 46.3361 4.25512 48.6063C4.99998 50.5837 9.20853 52.9228 3.07907 58.039C-3.05039 63.1552 3.7203 71.9159 3.7203 71.9159L58.1946 71.9928V24.2388Z" fill="#FFE5F3"/>
<path id="Vector_3" d="M58.1946 24.1744C58.1891 24.1505 58.1822 24.1278 58.1766 24.1036C55.4949 12.3657 35.2608 14.7902 35.2608 14.7902C30.0655 15.2644 26.207 16.4266 23.3464 17.8421C18.8287 20.0777 15.8517 24.1713 15.2704 28.7718C14.9311 31.4657 13.5398 35.4966 9.06053 36.9533C0.33842 39.7916 3.39968 46.2717 4.25512 48.5419C4.99998 50.5192 9.20853 52.8583 3.07907 57.9745C-3.05039 63.0907 3.7203 71.8514 3.7203 71.8514L58.1946 71.9284V24.1744Z" fill="#9FBCE7"/>
<path id="Vector_4" d="M57.7615 43.166C57.7054 42.9859 58.4939 42.8435 58.5365 42.6619C58.5792 42.4802 57.5421 42.4617 57.5054 42.3016C57.4378 42.0069 58.6423 42.2439 58.619 42.1061C58.5958 41.9684 57.3647 41.6555 57.4984 41.42C57.6322 41.1844 58.7445 41.8918 58.7788 41.7317C58.8131 41.5716 57.6912 41.1767 57.7123 40.825C57.7237 40.6372 59.5528 41.7694 59.7656 41.6682C59.9784 41.567 59.5403 40.6814 59.7098 40.5521C59.8793 40.4228 60.359 42.3505 60.4758 42.4152C60.5926 42.4798 63.0633 44.0585 63.9419 44.3113C64.0501 43.9842 64.8241 42.2501 64.9197 41.9407C65.4126 42.3332 65.9855 42.4206 66.4947 42.7785C66.1218 43.8056 64.8442 46.3326 64.5863 46.4607C63.8009 46.8509 60.7774 44.0469 60.1736 43.5666C59.5698 43.0864 59.2221 43.2399 58.8131 43.0871C58.4041 42.9343 57.8173 43.3461 57.7615 43.166Z" fill="#FDBAA0"/>
<path id="Vector_5" d="M71.664 56.7551L71.3867 56.4961C72.4054 55.1726 72.9652 52.6503 73.0064 49.2021C73.0217 47.5622 72.9363 45.9231 72.751 44.296L73.1118 44.2402C73.2987 45.8858 73.3845 47.5436 73.3686 49.2021C73.3503 50.7673 73.2269 52.157 73.0016 53.3327C72.718 54.8194 72.2675 55.9708 71.664 56.7551Z" fill="#13375B"/>
<path id="Vector_6" d="M70.4116 39.6796C70.5818 39.6796 77.1275 39.2563 77.2398 40.2C77.3521 41.1436 77.5802 48.5127 76.4461 48.7636C75.312 49.0145 69.8105 47.8819 69.8105 47.8819L70.4116 39.6796Z" fill="#38516B"/>
<path id="Vector_7" d="M66.0253 43.9799C66.0253 43.9799 67.697 42.636 68.2024 41.6732C68.7078 40.7103 67.8582 41.3376 66.9893 41.0843C66.661 40.9881 66.7439 38.8695 66.1227 39.5584C65.1037 40.6879 64.2715 42.932 64.2715 42.932L66.0253 43.9799Z" fill="#5596F8"/>
<path id="Vector_8" d="M68.524 38.5852C68.524 38.5852 70.2865 38.2004 71.0889 38.9416C71.8913 39.6828 70.9156 46.2537 70.9177 47.344C70.9198 48.4343 71.4698 51.5123 71.4698 51.5123C71.4698 51.5123 66.1282 52.541 65.2797 50.905C65.2797 50.905 65.0371 44.6728 65.0742 43.8892C65.1113 43.1057 65.9022 39.9003 66.1209 39.5574C66.3396 39.2145 68.524 38.5852 68.524 38.5852Z" fill="#5596F8"/>
<path id="Vector_9" d="M67.267 37.3961C67.3422 37.8125 67.4154 38.2185 67.4694 38.5164C67.4979 38.6703 66.91 40.1401 67.2268 40.2005C68.2968 40.4033 69.3595 38.7654 69.1571 38.2181L68.7685 37.1621L67.267 37.3961Z" fill="#FDBAA0"/>
<path id="Vector_10" d="M67.4565 33.2967C67.4565 33.2967 68.2121 33.2005 68.6859 33.874C69.1598 34.5475 69.67 36.6272 68.4936 37.7583C67.3172 38.8894 66.3886 37.6378 66.2163 36.2805C66.0441 34.9231 65.7432 33.2475 67.4565 33.2967Z" fill="#FDBAA0"/>
<path id="Vector_11" d="M60.709 46.0468L65.6464 44.7264C65.6464 44.7264 67.3927 42.1479 69.0744 39.9277C69.5916 40.4665 69.8893 41.3101 70.4103 41.8454L66.7102 46.5406C66.6438 46.6244 66.5625 46.6921 66.4714 46.7393C66.3803 46.7866 66.2814 46.8123 66.1809 46.815L60.9249 46.9535L60.709 46.0468Z" fill="#FDBAA0"/>
<path id="Vector_12" d="M68.5146 44.5502C68.5146 44.5502 70.8622 42.4239 71.3676 41.4614C71.8729 40.4989 71.4982 38.8863 70.6307 38.6327C69.7631 38.3791 66.9316 42.7371 66.9316 42.7371L68.5146 44.5502Z" fill="#5596F8"/>
<path id="Vector_13" d="M57.3515 46.5959C57.2995 46.5078 57.4295 46.3592 57.5269 46.2472C57.6347 46.1237 58.2894 45.8127 58.3993 45.7754C58.5092 45.7381 59.4627 45.8859 59.8273 46.0171C60.192 46.1483 60.4318 46.0941 60.4318 46.0941C60.5275 46.0725 60.6713 46.0436 60.7829 46.0171L61.0114 46.9527C60.1556 46.9407 59.261 47.0108 59.1799 47.0085C58.9227 47.0011 58.452 46.7052 58.3421 46.6621C58.2322 46.619 58.0118 46.6529 57.8631 46.7298C57.7144 46.8068 57.2811 46.9888 57.2083 46.9465C57.1356 46.9042 57.3515 46.5959 57.3515 46.5959Z" fill="#F7A491"/>
<path id="Vector_14" d="M68.8616 35.6456C68.7947 35.9951 68.9213 36.3214 69.1448 36.3741C69.3684 36.4269 69.6034 36.1863 69.6703 35.8353C69.7372 35.4844 69.6107 35.1595 69.3874 35.1068C69.1642 35.0541 68.9285 35.2962 68.8616 35.6456Z" fill="#FDBAA0"/>
<path id="Vector_15" d="M62.1211 66.5117C62.1211 66.5117 63.7425 68.6506 63.7533 68.8369C63.764 69.0232 63.6888 71.0544 63.4961 71.2403C63.3034 71.4262 62.7367 71.5586 62.919 71.7679C63.0576 71.9261 64.1155 71.8922 64.817 71.8499C65.0219 71.8376 65.2791 70.0411 65.3602 69.7748C65.478 69.3899 65.7643 68.526 65.6572 68.2585C65.6052 68.128 65.3553 67.8602 65.0035 67.61C64.6333 67.3472 63.2174 65.1797 63.2174 65.1797L62.1211 66.5117Z" fill="#F48C7F"/>
<path id="Vector_16" d="M64.9805 67.5986C64.9805 67.5986 63.8918 70.9715 63.4655 71.1342C63.3525 71.1773 62.8093 71.2882 62.7071 71.5514C62.6762 71.6307 62.7071 71.8978 62.7071 71.8978H64.9763C64.9763 71.8978 65.2633 70.4119 65.3767 69.7588C65.3767 69.7588 65.9773 68.1636 65.9108 68.0185C65.8442 67.8734 64.9805 67.5986 64.9805 67.5986Z" fill="#466EB6"/>
<path id="Vector_17" d="M52.4091 67.5399C52.4091 67.5399 51.0851 69.5911 51.2015 70.24C51.2639 70.5863 51.5416 71.042 51.3821 71.3691C51.2227 71.6962 51.0407 71.7778 51.0407 71.7778L46.9105 71.8509C46.6856 71.8548 46.8343 71.697 47.0145 71.5492C47.3115 71.3095 47.551 71.1513 48.4997 70.6471C48.5614 70.6144 48.7867 70.4574 48.8678 70.4027C49.0737 70.2646 49.2806 70.0471 49.4571 69.8297C49.7534 69.4672 51.0577 66.5127 51.0577 66.5127L52.4091 67.5399Z" fill="#F7A491"/>
<path id="Vector_18" d="M48.8698 70.4024C49.962 70.7103 50.7696 70.5009 51.2212 70.3008C51.3377 70.6633 51.4923 71.1182 51.4101 71.3803C51.31 71.7016 51.1675 71.774 51.041 71.7778C50.0434 71.8067 47.3863 71.8456 46.6255 71.8548C46.6019 71.8554 46.5786 71.8484 46.5584 71.8346C46.5383 71.8209 46.5221 71.8009 46.5119 71.7772C46.5018 71.7535 46.498 71.7271 46.501 71.701C46.5041 71.675 46.5139 71.6505 46.5292 71.6304C46.7177 71.3849 48.7884 70.457 48.8698 70.4024Z" fill="#466EB6"/>
<path id="Vector_19" d="M57.1981 54.8863C57.1981 54.8863 58.8375 56.9452 59.2559 57.2723C59.6743 57.5995 63.687 65.729 63.687 65.729L62.2575 66.8778C62.2575 66.8778 58.6708 61.9571 56.9863 59.3251C55.5624 57.0999 56.0868 57.2408 55.2494 55.8861C55.0257 55.5262 54.9278 55.0882 54.9741 54.6539C55.0204 54.2196 55.2076 53.819 55.5007 53.527C55.5763 53.4518 55.6587 53.3733 55.7479 53.2915C56.9877 52.1546 65.4852 50.875 65.4852 50.875L70.9207 51.4607C70.9207 51.4607 66.48 54.8859 66.3139 54.9783C66.1479 55.0706 60.1817 56.027 60.0573 56.027C59.9328 56.027 57.1981 54.8863 57.1981 54.8863Z" fill="#EAB054"/>
<path id="Vector_20" d="M71.4744 51.5119C71.4744 51.5119 72.4064 54.5907 71.0082 56.0254C69.61 57.4602 61.3031 57.302 58.567 57.302C58.567 57.302 57.4485 60.6756 57.324 61.2228C57.1996 61.7701 51.7717 68.8367 51.7717 68.8367L50.2812 67.788C50.2812 67.788 56.1237 55.2958 56.5795 54.7489C57.0353 54.202 63.5394 52.0134 65.1564 51.5119C66.7733 51.0105 71.4744 51.5119 71.4744 51.5119Z" fill="#F7CC7F"/>
<path id="Vector_21" d="M46.0581 39.7617H54.2402C54.3457 39.7615 54.4489 39.796 54.5368 39.8608C54.6246 39.9257 54.6932 40.018 54.7338 40.1262L57.2533 46.8872H61.764C61.8243 46.8869 61.8822 46.9132 61.925 46.9602C61.9678 47.0073 61.9921 47.0712 61.9925 47.1381C61.9923 47.1713 61.9863 47.2041 61.9748 47.2347C61.9632 47.2652 61.9463 47.293 61.9251 47.3163C61.9039 47.3397 61.8788 47.3581 61.8511 47.3707C61.8235 47.3832 61.7939 47.3896 61.764 47.3894H48.9259C48.7537 47.3898 48.585 47.3351 48.44 47.2319C48.295 47.1286 48.1798 46.9812 48.1083 46.8072L45.5715 40.5892C45.5353 40.4994 45.52 40.401 45.527 40.3029C45.534 40.2049 45.5631 40.1104 45.6115 40.0281C45.6599 39.9457 45.7262 39.8782 45.8042 39.8317C45.8822 39.7851 45.9695 39.7611 46.0581 39.7617Z" fill="#38516B"/>
<path id="Vector_22" d="M50.4646 43.6985C50.5197 44.0022 50.7606 44.2054 51.0022 44.1523C51.2438 44.0992 51.3949 43.8098 51.3398 43.5061C51.2847 43.2025 51.0438 42.9993 50.8019 43.0524C50.5599 43.1055 50.4091 43.3957 50.4646 43.6985Z" fill="white"/>
<path id="Vector_23" d="M26.4907 72.0013H25.8672L27.1961 59.1758H27.8196L26.4907 72.0013Z" fill="#38516B"/>
<path id="Vector_24" d="M33.5281 72.0013H34.1517L32.8228 59.1758H32.1992L33.5281 72.0013Z" fill="#38516B"/>
<path id="Vector_25" d="M15.9282 72.0013H15.3047L16.6339 59.1758H17.2575L15.9282 72.0013Z" fill="#38516B"/>
<path id="Vector_26" d="M22.9676 72.0013H23.5911L22.2622 59.1758H21.6387L22.9676 72.0013Z" fill="#38516B"/>
<path id="Vector_27" d="M26.0191 60.5689H17.514C16.5175 60.5689 15.6267 59.6718 15.5244 58.565L14.1189 43.3223C14.017 42.2154 14.7428 41.3184 15.739 41.3184H24.2441C25.2406 41.3184 26.1317 42.2154 26.2336 43.3223L27.6392 58.565C27.7411 59.6718 27.0159 60.5689 26.0191 60.5689Z" fill="#236FE0"/>
<path id="Vector_28" d="M28.3791 60.5689H19.8754C18.8785 60.5689 17.9877 59.6718 17.8858 58.565L16.4803 43.3223C16.3781 42.2154 17.1042 41.3184 18.1004 41.3184H26.6051C27.602 41.3184 28.4928 42.2154 28.595 43.3223L30.0002 58.565C30.1024 59.6718 29.377 60.5689 28.3791 60.5689Z" fill="#236FE0"/>
<path id="Vector_29" d="M29.52 61.2714H17.4652C16.5311 61.2714 15.6975 60.4309 15.6008 59.3937C15.5051 58.3546 16.1848 57.5156 17.1189 57.5156H29.1737C30.1095 57.5156 30.9414 58.3565 31.0381 59.3937C31.1338 60.4309 30.4541 61.2714 29.52 61.2714Z" fill="#236FE0"/>
<path id="Vector_30" d="M32.5283 61.2714H20.4753C19.5395 61.2714 18.7076 60.4309 18.6105 59.3937C18.5149 58.3546 19.1946 57.5156 20.1287 57.5156H32.1838C33.1197 57.5156 33.9515 58.3565 34.0482 59.3937C34.1422 60.4309 33.4625 61.2714 32.5283 61.2714Z" fill="#236FE0"/>
<path id="Vector_31" d="M34.8332 45.8594C34.889 45.6793 34.1004 45.5373 34.0578 45.3553C34.0152 45.1732 35.0526 45.1551 35.089 44.995C35.1583 44.7002 33.9521 44.9377 33.9753 44.7995C33.9985 44.6614 35.23 44.3493 35.0959 44.1134C34.9617 43.8774 33.8481 44.5856 33.8155 44.4251C33.7829 44.2646 34.9032 43.8701 34.882 43.5184C34.8706 43.3306 33.0415 44.4632 32.8287 44.3616C32.6159 44.26 33.054 43.3752 32.8845 43.2455C32.715 43.1158 32.2353 45.0435 32.1185 45.1082C32.0017 45.1728 29.5311 46.7515 28.6524 47.0043C28.5443 46.6772 27.7703 44.9431 27.675 44.6337C27.1817 45.0262 26.6088 45.1136 26.0996 45.4719C26.4726 46.4986 27.7502 49.026 28.008 49.1541C28.7935 49.5443 31.8169 46.7403 32.4207 46.26C33.0245 45.7797 33.3722 45.9329 33.7812 45.7801C34.1902 45.6273 34.777 46.0384 34.8332 45.8594Z" fill="#FDBAA0"/>
<path id="Vector_32" d="M27.1602 37.6793C27.1969 36.6998 27.0669 35.7331 26.6725 34.8214C26.3328 34.037 25.494 33.5898 24.727 33.5898C22.2945 33.5864 21.9849 37.1551 20.4366 38.5313C19.9635 38.9527 19.4363 39.2952 18.9857 39.749C17.3324 41.4238 18.0773 44.5242 19.5951 45.9924C20.6495 47.0111 22.3052 47.591 23.6036 46.7936C24.2812 46.378 24.796 45.6868 25.1634 44.9294C25.6833 43.8545 26.0188 42.6146 26.389 41.4692C26.7817 40.25 27.1117 38.9808 27.1602 37.6793Z" fill="#38516B"/>
<path id="Vector_33" d="M26.2504 46.6912C26.2504 46.6912 24.4335 44.6231 23.9663 43.7244C23.499 42.8258 24.2844 43.4112 25.0872 43.1745C25.3912 43.0852 25.3142 41.1071 25.8889 41.7506C26.8317 42.8054 28.0167 44.6496 28.0167 44.6496L26.2504 46.6912Z" fill="#5596F8"/>
<path id="Vector_34" d="M23.6678 40.8434C23.6678 40.8434 22.0388 40.4862 21.2936 41.1763C20.5484 41.8663 21.453 48.0023 21.452 49.0195C21.4509 50.0366 20.9414 52.9107 20.9414 52.9107C20.9414 52.9107 25.8827 53.8709 26.6674 52.3442C26.6674 52.3442 26.891 46.5264 26.8577 45.7948C26.8244 45.0632 26.0913 42.0714 25.8893 41.7508C25.6872 41.4303 23.6678 40.8434 23.6678 40.8434Z" fill="#5596F8"/>
<path id="Vector_35" d="M23.657 38.0437C23.657 38.0437 23.6487 38.0976 23.6331 38.1896C23.5593 38.6318 23.2744 40.0973 23.082 40.4987C22.8498 40.9855 23.8792 42.5384 24.8677 42.349C25.1623 42.2928 24.6185 40.922 24.6449 40.7769C24.6948 40.4991 24.7627 40.12 24.832 39.7313C24.8712 39.5119 24.9107 39.2895 24.9481 39.0805C25.0539 38.4867 25.1402 38.0029 25.1402 38.0029L23.657 38.0437Z" fill="#FDBAA0"/>
<path id="Vector_36" d="M24.6571 34.3091C24.6571 34.3091 23.958 34.2194 23.5199 34.8479C23.0818 35.4764 22.6093 37.4179 23.698 38.4739C24.7867 39.53 25.8619 38.3346 26.0203 37.0673C26.1787 35.8 26.2429 34.2633 24.6571 34.3091Z" fill="#FDBAA0"/>
<path id="Vector_37" d="M26.3428 37.0471C26.2128 37.3273 25.9962 37.482 25.8554 37.3934C25.7147 37.3049 25.7105 37.0086 25.8388 36.7269C25.967 36.4452 26.1854 36.292 26.3261 36.3805C26.4668 36.469 26.4731 36.7681 26.3428 37.0471Z" fill="#FDBAA0"/>
<path id="Vector_38" d="M24.7349 34.1007C24.7349 34.1007 23.7991 35.948 23.1329 36.0326C22.4667 36.1173 22.377 37.0994 22.377 37.0994C22.377 37.0994 22.6158 34.8381 23.2781 34.402C23.9405 33.966 24.7349 34.1007 24.7349 34.1007Z" fill="#38516B"/>
<path id="Vector_39" d="M23.3069 36.4959C23.3613 36.8238 23.2521 37.1247 23.0642 37.1674C22.8764 37.2101 22.6778 36.9796 22.6233 36.6517C22.5689 36.3238 22.6785 36.0229 22.866 35.9798C23.0535 35.9367 23.2528 36.168 23.3069 36.4959Z" fill="#FDBAA0"/>
<path id="Vector_40" d="M29.5916 66.9126C29.5916 66.9126 28.0918 68.9092 28.0821 69.0831C28.0724 69.2571 28.1414 71.1532 28.3199 71.3268C28.4984 71.5004 29.0224 71.6239 28.854 71.8194C28.7264 71.9672 27.7469 71.9349 27.0977 71.8964C26.9081 71.8848 26.6707 70.2061 26.5955 69.9594C26.4866 69.6011 26.2215 68.7937 26.3206 68.5439C26.3688 68.4223 26.6 68.1722 26.9254 67.9386C27.2679 67.693 28.5774 65.668 28.5774 65.668L29.5916 66.9126Z" fill="#FDBAA0"/>
<path id="Vector_41" d="M26.9473 67.9268C26.9473 67.9268 27.9546 71.0752 28.3486 71.2272C28.4526 71.2657 28.9556 71.37 29.0505 71.6167C29.079 71.691 29.0505 71.9392 29.0505 71.9392H26.9511C26.9511 71.9392 26.6856 70.5518 26.5806 69.9422C26.5806 69.9422 26.026 68.4528 26.0867 68.3178C26.1473 68.1827 26.9473 67.9268 26.9473 67.9268Z" fill="#236FE0"/>
<path id="Vector_42" d="M38.5762 67.8731C38.5762 67.8731 39.8011 69.7877 39.6933 70.3931C39.6358 70.7175 39.3789 71.142 39.5262 71.4472C39.6735 71.7524 39.842 71.829 39.842 71.829L43.663 71.8971C43.871 71.9009 43.7324 71.7524 43.5656 71.6158C43.2911 71.3918 43.0693 71.244 42.192 70.7737C42.1348 70.7429 41.9265 70.5963 41.8513 70.5455C41.6607 70.4166 41.47 70.2134 41.3047 70.0102C41.0302 69.6719 39.824 66.9141 39.824 66.9141L38.5762 67.8731Z" fill="#F7A491"/>
<path id="Vector_43" d="M41.853 70.5449C40.8427 70.832 40.0957 70.6368 39.6777 70.4502C39.5703 70.7885 39.4271 71.213 39.5044 71.4577C39.5973 71.7575 39.7293 71.8253 39.8458 71.8287C40.7688 71.8557 43.2266 71.8922 43.9306 71.9022C43.9526 71.9025 43.9741 71.8958 43.9927 71.8828C44.0114 71.8699 44.0262 71.8513 44.0356 71.8293C44.045 71.8072 44.0485 71.7827 44.0457 71.7585C44.0428 71.7343 44.0338 71.7115 44.0197 71.6929C43.844 71.462 41.9286 70.5957 41.853 70.5449Z" fill="#F7CC7F"/>
<path id="Vector_44" d="M34.1474 56.0608C34.1474 56.0608 32.631 57.9827 32.2441 58.2871C31.8573 58.5916 28.1448 66.1819 28.1448 66.1819L29.4675 67.2537C29.4675 67.2537 32.7852 62.6606 34.3418 60.2037C35.659 58.1255 35.1737 58.2579 35.9491 56.9933C36.156 56.6568 36.2464 56.2485 36.2036 55.8438C36.1608 55.4392 35.9877 55.0653 35.7161 54.7912C35.6468 54.7209 35.5707 54.6475 35.4877 54.571C34.3408 53.5096 26.48 52.3154 26.48 52.3154L21.4531 52.8638C21.4531 52.8638 25.5612 56.0623 25.7164 56.1474C25.8717 56.2324 31.3894 57.126 31.5048 57.126C31.6202 57.126 34.1474 56.0608 34.1474 56.0608Z" fill="#38516B"/>
<path id="Vector_45" d="M20.9419 52.9113C20.9419 52.9113 20.0792 55.7842 21.3731 57.1246C22.667 58.465 30.3503 58.3176 32.8805 58.3176C32.8805 58.3176 33.9155 61.4669 34.0306 61.9776C34.1457 62.4883 39.1667 69.0853 39.1667 69.0853L40.5469 68.1063C40.5469 68.1063 35.1436 56.443 34.7224 55.9331C34.3013 55.4232 28.2828 53.3796 26.7878 52.9113C25.2929 52.4429 20.9419 52.9113 20.9419 52.9113Z" fill="#38516B"/>
<path id="Vector_46" d="M30.8792 46.7324C30.9354 46.5519 30.1465 46.4099 30.1039 46.2279C30.0612 46.0459 31.0986 46.0278 31.1354 45.8681C31.2026 45.5729 29.9982 45.8103 30.0217 45.6726C30.0453 45.5348 31.2761 45.2219 31.1423 44.986C31.0085 44.7501 29.8945 45.4582 29.8599 45.2977C29.8252 45.1372 30.9475 44.7428 30.9264 44.3914C30.9149 44.2032 29.0859 45.3358 28.8731 45.2346C28.6602 45.1334 29.0987 44.2478 28.9289 44.1185C28.759 43.9892 28.2797 45.9165 28.1632 45.9816C28.0467 46.0466 25.5758 47.6245 24.6954 47.8777C24.5876 47.5502 23.8132 45.8165 23.7179 45.5067C23.2247 45.8992 22.6517 45.987 22.1426 46.3449C22.5155 47.372 23.7935 49.899 24.0514 50.0271C24.8364 50.4174 27.8599 47.6133 28.4637 47.1331C29.0675 46.6528 29.4152 46.8063 29.8245 46.6535C30.2339 46.5007 30.8231 46.9125 30.8792 46.7324Z" fill="#FDBAA0"/>
<path id="Vector_47" d="M21.9083 46.6203C21.9083 46.6203 20.8383 43.9868 20.6757 42.9642C20.5132 41.9417 21.3031 40.6593 22.1315 40.7421C22.9599 40.8248 24.1987 45.3714 24.1987 45.3714L21.9083 46.6203Z" fill="#5596F8"/>
<path id="Vector_48" d="M38.6243 71.9199H63.5879V47.7391H38.6243V71.9199Z" fill="#F2F2F2"/>
<path id="Vector_49" d="M77.9424 48.1074H63.5664V71.9446H77.9424V48.1074Z" fill="white"/>
<g id="Vector_50" style="mix-blend-mode:multiply" opacity="0.5">
<path d="M62.1841 71.9443H63.5664V48.1072H62.1841V71.9443Z" fill="#38516B"/>
</g>
<path id="Vector_51" d="M36.8673 48.1074L79.5684 48.1074V47.3693L36.8673 47.3693V48.1074Z" fill="#5596F8"/>
<path id="Vector_52" d="M88.6185 71.7549H1.66016V72.4707H88.6185V71.7549Z" fill="#38516B"/>
<path id="Vector_53" d="M69.0256 35.3137L68.9722 35.3199C68.9562 35.3219 68.94 35.3202 68.9245 35.315C68.9091 35.3098 68.8948 35.3011 68.8825 35.2895C68.8702 35.2778 68.8602 35.2635 68.8531 35.2475C68.846 35.2314 68.842 35.2138 68.8412 35.1959C68.8291 34.9031 68.7653 34.2554 68.4378 34.3042C68.0159 34.3677 66.5058 34.9281 65.9377 34.5829C65.3914 34.2511 65.2961 33.4314 65.5713 33.005C65.58 32.9912 65.5931 32.9815 65.608 32.9781C65.6229 32.9747 65.6384 32.9777 65.6514 32.9865L65.7162 33.0319C65.7261 33.0388 65.7376 33.0423 65.7493 33.0419C65.761 33.0415 65.7723 33.0372 65.7818 33.0296C65.7912 33.0219 65.7984 33.0114 65.8024 32.9992C65.8064 32.987 65.8071 32.9737 65.8042 32.9611C65.8014 32.949 65.8018 32.9362 65.8054 32.9244C65.809 32.9125 65.8156 32.9021 65.8245 32.8944C65.8334 32.8866 65.8441 32.8819 65.8553 32.8809C65.8666 32.8798 65.8778 32.8824 65.8878 32.8884C66.0611 32.99 66.4364 33.0931 67.1522 32.8114C68.1698 32.41 68.9923 32.4335 69.3743 33.1293C69.3796 33.1396 69.3874 33.1481 69.3967 33.1538C69.4061 33.1596 69.4167 33.1624 69.4273 33.1621C69.438 33.1617 69.4484 33.158 69.4574 33.1516C69.4664 33.1451 69.4736 33.1361 69.4783 33.1255C69.5223 33.0358 69.6197 32.9446 69.8353 32.9869C70.2103 33.0608 70.4245 33.7385 70.1334 34.5963C70.13 34.6057 70.1286 34.6159 70.1294 34.626C70.1302 34.636 70.1331 34.6458 70.1379 34.6544C70.1427 34.663 70.1492 34.6702 70.157 34.6755C70.1647 34.6808 70.1735 34.684 70.1826 34.6849C70.3212 34.6933 70.5601 34.7699 70.2921 35.2483C70.0148 35.7436 69.7053 35.916 69.5792 35.9687C69.5717 35.9718 69.5638 35.9731 69.5558 35.9727C69.5479 35.9722 69.5401 35.97 69.533 35.9661C69.5259 35.9622 69.5195 35.9568 69.5143 35.9501C69.5092 35.9434 69.5053 35.9356 69.5029 35.9272L69.3036 35.2283C69.3011 35.2189 69.2968 35.2102 69.2909 35.2029C69.285 35.1957 69.2777 35.19 69.2695 35.1863C69.2613 35.1826 69.2525 35.181 69.2437 35.1816C69.2349 35.1822 69.2264 35.185 69.2187 35.1898L69.0256 35.3137Z" fill="#38516B"/>
</g>
</g>
</g>
<defs>
<clipPath id="clip0_766_2056">
<rect width="88.107" height="88.4868" fill="white" transform="translate(0.513672 0.912109)"/>
</clipPath>
</defs>
</svg>
