<svg width="78" height="79" viewBox="0 0 78 79" fill="none" xmlns="http://www.w3.org/2000/svg">
<g id="Frame" clip-path="url(#clip0_766_1996)">
<path id="Vector" d="M72.1347 53.4629C64.8373 70.6368 45.3987 80.2578 28.5413 77.6625C25.7982 77.2402 18.278 75.9822 11.6201 70.0468C-1.19698 58.6232 -3.93796 36.0012 6.40043 20.0588C13.9262 8.45577 27.4157 1.87832 40.2334 2.20707C42.9943 2.27781 53.5753 2.7147 62.8743 10.3784C64.2414 11.5032 67.2525 14.1792 69.9673 18.4229C76.3425 28.3879 76.8905 42.2702 72.1347 53.4629Z" fill="#9FBCE7"/>
<path id="Vector_2" d="M61.751 35.5317C68.3434 35.5317 73.6876 30.1529 73.6876 23.5178C73.6876 16.8827 68.3434 11.5039 61.751 11.5039C55.1586 11.5039 49.8145 16.8827 49.8145 23.5178C49.8145 30.1529 55.1586 35.5317 61.751 35.5317Z" fill="#236FE0"/>
<g id="Clip path group">
<mask id="mask0_766_1996" style="mask-type:luminance" maskUnits="userSpaceOnUse" x="50" y="12" width="24" height="23">
<g id="clip-path">
<path id="Vector_3" d="M61.7421 34.9655C68.0189 34.9655 73.1073 29.8441 73.1073 23.5267C73.1073 17.2092 68.0189 12.0879 61.7421 12.0879C55.4653 12.0879 50.377 17.2092 50.377 23.5267C50.377 29.8441 55.4653 34.9655 61.7421 34.9655Z" fill="white"/>
</g>
</mask>
<g mask="url(#mask0_766_1996)">
<g id="Group">
<path id="Vector_4" d="M75.9828 37.9239L48.4625 38.828C48.3825 38.8305 48.3048 38.8009 48.2464 38.7459C48.188 38.6908 48.1536 38.6147 48.1507 38.5343L47.1603 7.96127C47.1578 7.88077 47.1872 7.80256 47.2419 7.74378C47.2966 7.68501 47.3722 7.65045 47.4522 7.6477L74.9724 6.74329C75.0525 6.74095 75.1301 6.77055 75.1886 6.82564C75.247 6.88073 75.2814 6.95683 75.2843 7.03735L76.2757 37.6103C76.2781 37.691 76.2485 37.7693 76.1936 37.828C76.1387 37.8868 76.0629 37.9213 75.9828 37.9239Z" fill="white"/>
<path id="Vector_5" d="M55.8929 24.9315C55.8929 24.9315 62.7778 23.6035 68.2891 24.8911L68.1092 30.5856C68.1092 30.5856 66.9077 38.5154 65.9281 42.0341C65.9281 42.0341 61.7631 42.9049 59.7239 41.8715C59.7239 41.8715 57.7638 32.0269 56.8057 30.5904C56.8071 30.5899 55.7704 26.7706 55.8929 24.9315Z" fill="#5596F8"/>
<path id="Vector_6" d="M60.5392 19.7656L60.002 24.4814C60.002 24.4814 61.9569 25.3089 63.2756 24.3356L62.8778 21.0335L60.5392 19.7656Z" fill="#FDBAA0"/>
<path id="Vector_7" d="M63.4081 16.6127C63.4313 16.6514 63.9235 19.0042 64.2267 20.4612C64.2563 20.6031 64.2557 20.7497 64.225 20.8914C64.1943 21.0331 64.1341 21.1666 64.0485 21.2832C63.9629 21.3998 63.8537 21.4969 63.7282 21.568C63.6026 21.6392 63.4635 21.6828 63.3201 21.696L62.7629 21.7474C62.2692 21.7932 61.7764 21.6519 61.3808 21.3511C60.9852 21.0503 60.7155 20.6118 60.6243 20.1213L60.1348 17.4813C60.1348 17.4813 62.8499 15.6676 63.4081 16.6127Z" fill="#FDBAA0"/>
<path id="Vector_8" d="M59.5335 17.5061C59.3108 17.2451 59.1102 16.8182 59.551 16.348C59.9974 15.8718 60.5244 15.9686 60.8615 16.1133C61.0107 16.1767 61.1906 16.1404 61.2924 16.0128C61.3175 15.9804 61.3506 15.9551 61.3884 15.9396C61.4262 15.924 61.4673 15.9187 61.5078 15.9241C61.5531 15.929 61.599 15.9247 61.6427 15.9115C61.6863 15.8984 61.727 15.8766 61.7622 15.8475C61.7974 15.8183 61.8265 15.7824 61.8478 15.7418C61.8691 15.7012 61.8821 15.6568 61.8861 15.6111C61.9147 15.2769 62.0781 14.8793 62.659 14.7465C63.7242 14.5026 64.2943 15.565 64.2997 16.3247C64.3051 17.0844 63.1353 17.2825 62.4646 17.1784C61.9718 17.102 61.5622 17.5489 61.3796 17.7917C61.347 17.8351 61.3246 17.8854 61.3142 17.9388C61.3037 17.9922 61.3056 18.0473 61.3196 18.0999L61.5129 18.8276C61.4028 19.0593 61.2951 19.2959 61.1359 19.4959C61.0218 19.6398 60.8936 19.7214 60.7571 19.7586C60.5451 19.3908 59.984 19.3455 59.7238 19.3458C59.6748 19.3459 59.6262 19.3358 59.5812 19.3161C59.5362 19.2964 59.4958 19.2676 59.4624 19.2314C59.2591 19.0116 58.9359 18.517 59.5071 18.0018C59.5746 17.9388 59.6152 17.8519 59.6201 17.7593C59.625 17.6668 59.594 17.5759 59.5335 17.5061Z" fill="#38516B"/>
<path id="Vector_9" d="M60.9746 20.5366C60.9746 20.5366 60.9086 19.2135 60.3722 19.1067C59.8358 18.9999 59.2739 19.4062 59.7548 20.1837C60.3534 21.1513 60.9746 20.5366 60.9746 20.5366Z" fill="#FDBAA0"/>
<path id="Vector_10" d="M55.8926 24.9326C55.8926 24.9326 45.5278 37.017 58.3312 41.0921L58.3013 40.1755C58.3013 40.1755 53.4354 36.2985 56.8994 30.6797C56.8994 30.6797 56.2747 25.4706 55.8926 24.9326Z" fill="#5596F8"/>
<path id="Vector_11" d="M68.2904 24.8916C68.2904 24.8916 79.8594 35.8883 67.348 40.7952L67.3184 39.8786C67.3184 39.8786 71.923 35.6905 68.102 30.3115C68.1017 30.3121 67.5917 25.8321 68.2904 24.8916Z" fill="#5596F8"/>
</g>
</g>
</g>
<path id="Vector_12" d="M35.4248 29.0161C42.0172 29.0161 47.3614 23.6373 47.3614 17.0022C47.3614 10.3671 42.0172 4.98828 35.4248 4.98828C28.8325 4.98828 23.4883 10.3671 23.4883 17.0022C23.4883 23.6373 28.8325 29.0161 35.4248 29.0161Z" fill="#236FE0"/>
<g id="Clip path group_2">
<mask id="mask1_766_1996" style="mask-type:luminance" maskUnits="userSpaceOnUse" x="24" y="5" width="23" height="24">
<g id="clip-path-2">
<path id="Vector_13" d="M35.414 28.4498C41.6908 28.4498 46.7791 23.3285 46.7791 17.011C46.7791 10.6936 41.6908 5.57227 35.414 5.57227C29.1372 5.57227 24.0488 10.6936 24.0488 17.011C24.0488 23.3285 29.1372 28.4498 35.414 28.4498Z" fill="white"/>
</g>
</mask>
<g mask="url(#mask1_766_1996)">
<g id="Group_2">
<path id="Vector_14" d="M49.6554 31.4083L22.1352 32.3124C22.0554 32.3146 21.978 32.2849 21.9198 32.2299C21.8616 32.1749 21.8273 32.0989 21.8245 32.0186L20.8322 1.44566C20.8297 1.36516 20.859 1.28695 20.9138 1.22817C20.9685 1.1694 21.0441 1.13485 21.1241 1.13209L48.644 0.227684C48.724 0.225198 48.8017 0.254724 48.8601 0.309791C48.9185 0.364858 48.9528 0.440978 48.9556 0.521473L49.9473 31.0945C49.9497 31.175 49.9204 31.2532 49.8657 31.312C49.811 31.3708 49.7354 31.4054 49.6554 31.4083Z" fill="white"/>
<path id="Vector_15" d="M34.9236 11.8555C34.9236 11.8555 35.1444 12.262 33.8257 12.9591C33.0903 13.3474 31.654 13.9348 31.5172 15.501C31.4467 16.31 30.8771 16.9767 30.0844 17.1271C28.1095 17.5047 25.0866 18.6524 24.7198 22.1397C24.4411 24.8036 25.8171 25.7589 27.2373 26.0571C28.2802 26.2739 29.0032 27.2628 28.8314 28.3209C28.6664 29.3359 29.007 30.4891 30.7743 31.349C34.7343 33.2733 38.3698 26.1796 38.3698 26.1796L38.7347 14.0071L34.9236 11.8555Z" fill="#38516B"/>
<path id="Vector_16" d="M35.8555 29.2849C36.9095 23.9457 33.6582 21.0637 33.6582 21.0637C35.1982 19.466 37.8151 18.5049 38.7842 18.1889C38.901 18.1508 39.0253 18.1415 39.1465 18.1619C39.2676 18.1824 39.3821 18.2319 39.4803 18.3063C40.3444 18.9586 42.6365 20.8609 42.3615 22.4898C42.1623 23.663 40.1831 29.5524 40.1831 29.5524C40.1831 29.5524 38.1963 30.5879 35.8555 29.2849Z" fill="#445D78"/>
<path id="Vector_17" d="M36.7794 14.6549L35.9317 19.2533C35.8493 19.6599 36.2112 19.5799 36.6122 19.4886C37.269 19.3395 38.1121 19.0506 38.3784 18.5224C38.4041 18.4678 38.4196 18.4089 38.4242 18.3487L38.7454 15.1687C38.7578 15.046 38.7301 14.9225 38.6667 14.8169C38.6033 14.7113 38.5075 14.6294 38.3937 14.5833L37.5436 14.24C37.4667 14.209 37.384 14.1954 37.3013 14.2001C37.2186 14.2049 37.138 14.2279 37.0651 14.2675C36.9922 14.307 36.9288 14.3623 36.8794 14.4292C36.8301 14.4962 36.7959 14.5732 36.7794 14.6549Z" fill="#FDBAA0"/>
<path id="Vector_18" d="M38.5644 10.4258C38.5644 10.4258 39.6649 11.1193 40.1927 12.9672C40.7205 14.815 39.994 15.5107 39.2233 15.4974C38.4526 15.4842 37.3289 15.2847 36.3151 13.9819C35.3013 12.6791 37.1246 9.58183 38.5644 10.4258Z" fill="#FDBAA0"/>
<path id="Vector_19" d="M37.262 13.1949C37.262 13.1949 36.7735 10.5376 38.9919 10.8671L39.4539 11.3178C39.4539 11.3178 40.4893 10.0565 39.2628 9.17513C38.0362 8.29377 36.3882 8.58999 35.5314 10.3056C34.6745 12.0211 34.384 13.2153 35.1891 14.2332C35.9943 15.2512 36.5404 14.3338 36.5404 14.3338C36.5404 14.3338 36.1561 13.4413 36.4345 13.0426C36.713 12.644 37.112 13.2443 37.112 13.2443L37.262 13.1949Z" fill="#38516B"/>
<path id="Vector_20" d="M36.9695 13.4346C36.9695 13.4346 36.7272 12.067 36.0429 12.486C35.3587 12.905 36.3391 13.7599 36.7309 14.0504L36.9695 13.4346Z" fill="#FDBAA0"/>
<path id="Vector_21" d="M33.6461 21.1426C33.6461 21.1426 31.6265 24.6697 31.2891 27.2728C30.9517 29.876 35.0612 30.8078 36.5075 29.2445L36.2549 28.174C36.2549 28.174 33.9122 28.6889 33.6534 27.4037C33.3946 26.1186 35.4441 23.453 35.4441 23.453C35.4441 23.453 34.7327 21.5356 33.6461 21.1426Z" fill="#445D78"/>
<path id="Vector_22" d="M27.6631 24.4927C27.5968 24.4899 27.5324 24.4694 27.4765 24.4333C26.5446 23.8685 26.0152 22.6538 26.1891 21.4792C26.2933 20.7745 26.6165 20.1598 27.0993 19.7446C27.4418 19.4511 27.8532 19.2649 28.2459 19.0993C28.9069 18.8202 29.5893 18.5708 30.2743 18.3578L30.4429 18.3058C30.843 18.1833 31.2569 18.0561 31.6277 17.8526C32.1022 17.5916 32.4415 17.2252 32.5834 16.8208C32.6717 16.5693 32.6911 16.2926 32.7075 16.0254C32.7293 15.6961 32.752 15.3557 32.9052 15.0589C32.9066 15.0561 32.9086 15.0536 32.911 15.0516C32.9134 15.0495 32.9162 15.048 32.9192 15.047C32.9222 15.0461 32.9254 15.0457 32.9285 15.046C32.9316 15.0463 32.9347 15.0472 32.9375 15.0486C32.9403 15.0501 32.9428 15.0521 32.9448 15.0545C32.9468 15.0569 32.9483 15.0597 32.9493 15.0627C32.9503 15.0658 32.9506 15.0689 32.9503 15.0721C32.9501 15.0753 32.9492 15.0783 32.9477 15.0811C32.7988 15.369 32.7767 15.7045 32.7555 16.0297C32.7377 16.3007 32.7191 16.5802 32.6286 16.8382C32.4827 17.2534 32.1353 17.6293 31.6506 17.8952C31.2752 18.1014 30.8589 18.2291 30.4564 18.3526C30.4004 18.3697 30.3441 18.3868 30.2883 18.4044C29.6046 18.6169 28.9236 18.8652 28.2639 19.1443C27.8751 19.3069 27.4671 19.4928 27.13 19.7817C26.656 20.1883 26.3386 20.7935 26.2362 21.4857C26.065 22.6416 26.5863 23.8365 27.5018 24.3913C27.5678 24.4314 27.6925 24.4794 27.7415 24.4051C27.7433 24.4025 27.7455 24.4002 27.7482 24.3985C27.7508 24.3967 27.7538 24.3955 27.7569 24.3949C27.76 24.3943 27.7631 24.3943 27.7662 24.395C27.7693 24.3956 27.7723 24.3968 27.7749 24.3986C27.7775 24.4004 27.7797 24.4027 27.7815 24.4053C27.7832 24.408 27.7844 24.411 27.785 24.4141C27.7856 24.4172 27.7856 24.4204 27.785 24.4235C27.7844 24.4266 27.7831 24.4296 27.7814 24.4322C27.7685 24.4517 27.7509 24.4675 27.7301 24.4781C27.7094 24.4887 27.6863 24.4937 27.6631 24.4927Z" fill="#91B3FA"/>
<path id="Vector_23" d="M27.3931 23.403C27.3892 23.4031 27.3854 23.4022 27.382 23.4005C27.3786 23.3987 27.3756 23.3961 27.3734 23.393C27.0034 22.878 26.8009 22.3289 26.7877 21.8077C26.7724 21.196 27.0341 20.6174 27.4714 20.2976C27.4766 20.2938 27.4829 20.2923 27.4892 20.2932C27.4955 20.2942 27.5011 20.2976 27.5048 20.3027C27.5086 20.3079 27.5101 20.3144 27.5092 20.3207C27.5082 20.3271 27.5048 20.3328 27.4997 20.3366C27.0751 20.6472 26.8206 21.2104 26.8357 21.8064C26.8486 22.3181 27.0479 22.8569 27.4122 23.365C27.4141 23.3676 27.4154 23.3704 27.4161 23.3735C27.4169 23.3766 27.417 23.3797 27.4165 23.3828C27.416 23.386 27.4149 23.3889 27.4132 23.3916C27.4116 23.3943 27.4094 23.3966 27.4068 23.3984C27.4029 23.4015 27.3981 23.4031 27.3931 23.403Z" fill="#91B3FA"/>
</g>
</g>
</g>
<path id="Vector_24" d="M63.4014 64.6821C69.9938 64.6821 75.338 59.3033 75.338 52.6682C75.338 46.0331 69.9938 40.6543 63.4014 40.6543C56.809 40.6543 51.4648 46.0331 51.4648 52.6682C51.4648 59.3033 56.809 64.6821 63.4014 64.6821Z" fill="#236FE0"/>
<g id="Clip path group_3">
<mask id="mask2_766_1996" style="mask-type:luminance" maskUnits="userSpaceOnUse" x="52" y="41" width="23" height="24">
<g id="clip-path-3">
<path id="Vector_25" d="M63.3925 64.1158C69.6693 64.1158 74.7577 58.9945 74.7577 52.6771C74.7577 46.3596 69.6693 41.2383 63.3925 41.2383C57.1157 41.2383 52.0273 46.3596 52.0273 52.6771C52.0273 58.9945 57.1157 64.1158 63.3925 64.1158Z" fill="white"/>
</g>
</mask>
<g mask="url(#mask2_766_1996)">
<g id="Group_3">
<path id="Vector_26" d="M77.6343 67.0753L50.114 67.9794C50.0341 67.9818 49.9564 67.9523 49.8979 67.8972C49.8395 67.8422 49.8051 67.7661 49.8022 67.6856L48.8126 37.1126C48.8103 37.0322 48.8397 36.9541 48.8944 36.8953C48.9491 36.8366 49.0246 36.802 49.1045 36.7991L76.6248 35.8947C76.7048 35.8923 76.7825 35.9218 76.841 35.9769C76.8994 36.032 76.9338 36.1082 76.9366 36.1887L77.9281 66.7614C77.9305 66.8423 77.9008 66.9207 77.8458 66.9796C77.7907 67.0385 77.7146 67.0729 77.6343 67.0753Z" fill="white"/>
<path id="Vector_27" d="M61.3959 46.665C61.3736 46.7075 59.9688 47.7491 59.9688 47.7491C59.9688 47.7491 60.2792 49.9842 61.5395 50.8658C62.9254 51.8361 64.8825 50.0666 64.8825 50.0666C64.8825 50.0666 66.44 50.4392 67.2683 47.1761C67.4568 46.4276 66.3614 46.363 65.0374 46.5021C63.3296 46.6801 61.3959 46.665 61.3959 46.665Z" fill="#38516B"/>
<path id="Vector_28" d="M58.7677 54.2902C59.3171 53.909 59.9264 53.6238 60.57 53.4465C60.8123 53.3801 62.1194 53.7625 62.9272 53.7446C64.0364 53.7175 65.1655 53.211 66.0797 53.4403C66.988 53.6679 67.7312 53.9655 68.1604 54.2728C69.4451 55.1924 70.1994 56.9072 70.659 58.6057C69.7887 59.5049 68.6933 59.9044 68.6933 59.9044L68.4911 68.1606L63.6406 70.6583L58.1031 67.86L58.3013 59.7919C58.3013 59.7919 56.5432 58.9678 56.4142 58.668C56.2852 58.3683 57.2167 55.3637 58.7677 54.2902Z" fill="#445D78"/>
<path id="Vector_29" d="M56.4967 58.6318C56.4967 58.6318 54.1411 65.2058 59.5126 67.9076C60.6283 67.7583 60.1993 65.8939 60.1993 65.8939C60.1993 65.8939 57.8649 65.3738 58.5659 59.8902C57.9209 59.3555 56.4967 58.6318 56.4967 58.6318Z" fill="#FDBAA0"/>
<path id="Vector_30" d="M70.5451 58.6318C70.5451 58.6318 72.1662 65.4941 67.5292 67.9076C66.4138 67.7583 66.8428 65.8939 66.8428 65.8939C66.8428 65.8939 68.7242 64.9613 68.476 59.8902C69.1209 59.3555 70.5451 58.6318 70.5451 58.6318Z" fill="#FDBAA0"/>
<path id="Vector_31" d="M60.5684 53.447C60.5684 53.447 61.0584 55.5848 63.4383 55.5404C65.8618 55.4959 66.0772 53.4399 66.0772 53.4399L64.4942 53.099L64.3617 51.3232L61.9802 51.5008L61.936 53.1876L60.5684 53.447Z" fill="#FDBAA0"/>
<path id="Vector_32" d="M62.3175 46.292C62.3175 46.292 59.5883 51.613 62.8259 52.9049C65.1096 53.8153 66.5419 49.3711 66.1143 48.1675C65.454 46.3064 65.0191 46.5272 65.0191 46.5272L62.3175 46.292Z" fill="#FDBAA0"/>
<path id="Vector_33" d="M66.769 45.8077C68.1173 46.1807 66.9651 49.124 64.935 48.428C62.9049 47.732 62.1076 47.742 61.7909 48.3033C61.4742 48.8646 61.4066 50.8566 60.7202 49.8717C59.9679 48.7922 59.5483 46.6251 60.4709 45.9264C61.2954 45.3031 61.488 44.3342 62.4767 44.3678C63.7895 44.4122 64.8047 43.8257 65.3973 44.2491C66.0778 44.7342 65.7762 45.5335 66.769 45.8077Z" fill="#38516B"/>
<path id="Vector_34" d="M61.6672 48.7611C61.6672 48.7611 61.085 48.1307 60.9918 48.8904C60.8987 49.6501 61.1978 50.6287 61.5482 50.0924C61.8985 49.556 61.6672 48.7611 61.6672 48.7611Z" fill="#FDBAA0"/>
</g>
</g>
</g>
<path id="Vector_35" d="M61.8612 28.8994C61.8612 28.8994 56.6525 30.0556 53.4842 31.5283C52.8568 31.8206 52.3542 32.3293 52.0672 32.9623C51.1199 35.0511 48.285 40.2897 42.7871 42.7896C43.5788 43.8466 44.8538 46.0473 45.4091 49.7451C48.711 47.2715 51.5618 43.1406 52.9303 36.3658C52.9303 36.3658 53.9724 36.935 55.273 36.3005C55.9599 35.9647 56.754 35.4874 57.3483 35.114C57.9426 34.7405 58.3834 34.1605 58.555 33.4829C58.7817 32.5886 58.6481 31.8026 58.6481 30.9578L61.3256 30.1228C61.3256 30.1228 62.1299 29.8166 61.8612 28.8994Z" fill="#FDBAA0"/>
<path id="Vector_36" d="M6.82492 71.0154C7.46723 69.4053 8.27477 67.8671 9.23442 66.4257C7.62656 63.6962 7.15047 59.9677 10.0037 55.1129C12.0842 60.767 13.0603 69.0164 13.2642 72.6687C13.3024 73.3536 13.0913 74.4157 12.9025 75.203C12.8701 75.3377 12.865 75.4776 12.8878 75.6143C12.9105 75.751 12.9605 75.8816 13.0347 75.9983C13.109 76.115 13.206 76.2154 13.3198 76.2933C13.4337 76.3713 13.562 76.4252 13.6972 76.4519C17.9803 77.2866 22.1108 77.6745 25.8868 77.0237C26.1589 76.9766 26.411 76.8493 26.6113 76.658C26.8115 76.4666 26.9509 76.2199 27.0119 75.9489C29.4804 64.9808 29.4653 57.4307 28.8182 52.5989C31.3764 53.174 39.1935 54.4012 45.4103 49.7442C44.8551 46.0464 43.5792 43.8465 42.7884 42.7887C39.3731 44.3417 34.9306 44.8382 29.2733 42.8651C28.7519 42.6841 28.2083 42.5761 27.6576 42.5442C24.646 42.3664 14.7215 42.0423 6.50959 44.7729C5.65749 45.0553 4.87413 45.5155 4.21063 46.1232C3.54713 46.7309 3.01839 47.4727 2.65891 48.2999C0.4371 53.4301 -3.15938 65.1161 6.82492 71.0154Z" fill="#236FE0"/>
<path id="Vector_37" d="M14.9584 35.793C14.9584 35.793 14.3897 41.8441 13.888 43.6339C13.8511 43.7659 13.8592 43.9065 13.9111 44.0332C13.963 44.1599 14.0557 44.2655 14.1743 44.3329C15.0241 44.8207 17.062 45.6186 19.8498 44.2435C20.0696 44.1337 20.253 43.9621 20.3776 43.7494C20.5022 43.5368 20.5628 43.2922 20.5518 43.0455L20.3073 37.1969L14.9584 35.793Z" fill="#FDBAA0"/>
<path id="Vector_38" d="M20.4292 28.0508C20.4292 28.0508 22.2479 32.2557 22.3701 34.4629C22.4924 36.6701 22.9647 38.1019 20.4292 38.5464C17.8936 38.9909 15.7577 37.7195 14.6006 35.521C14.6006 35.521 12.7876 32.1332 13.1942 30.7461C13.6008 29.359 20.4292 28.0508 20.4292 28.0508Z" fill="#FDBAA0"/>
<path id="Vector_39" d="M15.4681 33.941L15.6125 33.8771C15.656 33.8579 15.6953 33.83 15.7277 33.7949C15.7601 33.7599 15.7851 33.7186 15.801 33.6735C15.817 33.6284 15.8236 33.5805 15.8204 33.5327C15.8172 33.4849 15.8044 33.4383 15.7826 33.3957C15.425 32.7006 14.7281 31.1072 15.6286 30.7357C16.7889 30.2565 21.3855 29.3131 22.3773 27.6715C23.3305 26.0939 22.485 24.0571 21.2167 23.4779C21.1763 23.4586 21.13 23.4556 21.0875 23.4696C21.045 23.4836 21.0094 23.5134 20.9881 23.553L20.8822 23.7541C20.8663 23.7847 20.8415 23.8098 20.8113 23.8262C20.781 23.8426 20.7465 23.8494 20.7123 23.8459C20.6781 23.8424 20.6458 23.8286 20.6194 23.8064C20.5931 23.7842 20.5739 23.7546 20.5645 23.7213C20.5555 23.6891 20.5375 23.6603 20.5125 23.6382C20.4875 23.6162 20.4567 23.602 20.4239 23.5972C20.391 23.5925 20.3575 23.5975 20.3273 23.6116C20.2972 23.6256 20.2718 23.6482 20.2543 23.6766C19.9494 24.1677 19.1263 24.964 16.9255 25.3727C13.7975 25.9537 11.7284 27.2278 11.678 29.4033C11.6775 29.4344 11.6687 29.4647 11.6526 29.4912C11.6365 29.5177 11.6137 29.5393 11.5865 29.5539C11.5592 29.5686 11.5286 29.5756 11.4978 29.5742C11.467 29.5729 11.4371 29.5633 11.4112 29.5464C11.1804 29.4047 10.8107 29.3383 10.3168 29.7562C9.45783 30.4833 9.80924 32.3691 11.6923 33.9204C11.7136 33.9371 11.7306 33.9585 11.7421 33.983C11.7536 34.0075 11.7591 34.0343 11.7583 34.0614C11.7576 34.0885 11.7504 34.115 11.7376 34.1388C11.7247 34.1625 11.7064 34.1829 11.6842 34.1982C11.3428 34.4218 10.8338 34.9541 12.1528 35.6637C13.5167 36.3973 14.5353 36.3372 14.9263 36.2721C14.9494 36.2682 14.9714 36.2597 14.9911 36.2469C15.0107 36.2341 15.0276 36.2175 15.0406 36.198C15.0536 36.1784 15.0626 36.1564 15.0669 36.1333C15.0712 36.1101 15.0707 36.0864 15.0656 36.0634L14.6468 34.1516C14.6413 34.1263 14.6414 34.1 14.6473 34.0747C14.6532 34.0495 14.6646 34.0258 14.6808 34.0056C14.6969 33.9854 14.7174 33.969 14.7406 33.9578C14.7639 33.9466 14.7893 33.9408 14.8151 33.9408L15.4681 33.941Z" fill="#38516B"/>
<path id="Vector_40" d="M15.5445 34.3445C15.5445 34.3445 14.8506 31.6584 13.6542 32.4115C12.4578 33.1647 14.2751 35.4199 15.237 35.5215L15.5445 34.3445Z" fill="#FDBAA0"/>
<path id="Vector_41" d="M15.4573 73.9237L23.4963 74.0237L20.6829 71.3582C19.9828 70.6959 18.9162 70.5885 18.1089 71.1143C17.5682 71.463 17.0857 71.8957 16.6795 72.3962C16.6795 72.3962 11.6648 70.5517 9.23372 66.4248C8.27408 67.8662 7.46653 69.4044 6.82422 71.0146C9.00349 72.3033 11.8285 73.3158 15.4573 73.9237Z" fill="#FDBAA0"/>
<path id="Vector_42" d="M16.3225 74.9673C16.3381 74.9673 16.3535 74.9673 16.3693 74.9673L36.7755 74.9451C36.8942 74.945 37.0117 74.9213 37.1213 74.8755C37.2309 74.8297 37.3304 74.7626 37.4143 74.678C37.4981 74.5935 37.5645 74.4931 37.6098 74.3827C37.6551 74.2723 37.6784 74.154 37.6783 74.0346C37.6781 73.9151 37.6547 73.7969 37.6091 73.6866C37.5636 73.5763 37.4969 73.4761 37.4129 73.3917C37.3289 73.3073 37.2292 73.2404 37.1195 73.1949C37.0098 73.1493 36.8923 73.1259 36.7736 73.126L16.3672 73.1482C16.1277 73.1422 15.8956 73.2323 15.722 73.3985C15.5484 73.5648 15.4476 73.7936 15.4417 74.0347C15.4358 74.2758 15.5252 74.5094 15.6904 74.6841C15.8556 74.8588 16.083 74.9603 16.3225 74.9662V74.9673Z" fill="#38516B"/>
<path id="Vector_43" d="M55.1202 56.5166H38.1258C37.5138 56.5152 36.9139 56.6882 36.3955 57.0155C35.8771 57.3428 35.4613 57.8112 35.1963 58.3663L27.3398 74.9564H48.4593C48.8527 74.9575 49.2374 74.84 49.5637 74.619C49.8901 74.398 50.1432 74.0837 50.2904 73.7165L56.3826 58.365C56.7345 57.4779 56.078 56.5166 55.1202 56.5166Z" fill="#38516B"/>
<path id="Vector_44" d="M45.6899 65.8505C46.0625 64.7125 45.7959 63.6014 45.0943 63.3687C44.3927 63.136 43.5219 63.8698 43.1493 65.0078C42.7767 66.1458 43.0433 67.257 43.7449 67.4897C44.4465 67.7224 45.3173 66.9885 45.6899 65.8505Z" fill="#445D78"/>
</g>
<defs>
<clipPath id="clip0_766_1996">
<rect width="77.8532" height="77.8532" fill="white" transform="translate(0.0722656 0.229492)"/>
</clipPath>
</defs>
</svg>
