<svg width="25" height="20" viewBox="0 0 25 20" fill="none" xmlns="http://www.w3.org/2000/svg">
<path d="M23.3596 -4.20957e-05C24.3816 2.91996 24.8926 5.81563 24.8926 8.68696C24.8926 11.9963 24.0166 14.6486 22.2646 16.644C20.5126 18.688 17.9576 19.71 14.5996 19.71L14.5996 15.111C17.1789 15.111 18.4686 13.4563 18.4686 10.147L18.4686 9.05196L13.7966 9.05196L13.7966 -4.29317e-05L23.3596 -4.20957e-05ZM9.56258 -4.33019e-05C10.5359 2.96862 11.0226 5.86429 11.0226 8.68696C11.0226 11.9963 10.1709 14.6486 8.46758 16.644C6.71558 18.688 4.16058 19.71 0.802576 19.71L0.802576 15.111C3.33324 15.111 4.59858 13.4563 4.59858 10.147L4.59858 9.05196L-0.000420592 9.05196L-0.000419801 -4.41379e-05L9.56258 -4.33019e-05Z" fill="#38516B"/>
</svg>
