<svg width="25" height="20" viewBox="0 0 25 20" fill="none" xmlns="http://www.w3.org/2000/svg">
<path d="M1.533 19.71C0.511 16.79 0 13.8943 0 11.023C0 7.71367 0.876 5.06133 2.628 3.066C4.38 1.022 6.935 0 10.293 0V4.599C7.71367 4.599 6.424 6.25367 6.424 9.563V10.658H11.096V19.71H1.533ZM15.33 19.71C14.3567 16.7413 13.87 13.8457 13.87 11.023C13.87 7.71367 14.7217 5.06133 16.425 3.066C18.177 1.022 20.732 0 24.09 0V4.599C21.5593 4.599 20.294 6.25367 20.294 9.563V10.658H24.893V19.71H15.33Z" fill="#38516B"/>
</svg>
