<svg width="18" height="19" viewBox="0 0 18 19" fill="none" xmlns="http://www.w3.org/2000/svg">
<g id="add">
<path id="Vector (Stroke)" fill-rule="evenodd" clip-rule="evenodd" d="M9 0.975098C9.62132 0.975098 10.125 1.47878 10.125 2.1001V8.8501H16.875C17.4963 8.8501 18 9.35378 18 9.9751C18 10.5964 17.4963 11.1001 16.875 11.1001H10.125V17.8501C10.125 18.4714 9.62132 18.9751 9 18.9751C8.37868 18.9751 7.875 18.4714 7.875 17.8501V11.1001H1.125C0.50368 11.1001 0 10.5964 0 9.9751C0 9.35378 0.50368 8.8501 1.125 8.8501H7.875V2.1001C7.875 1.47878 8.37868 0.975098 9 0.975098Z" fill="#0C0C0C"/>
</g>
</svg>
