<svg width="18" height="19" viewBox="0 0 18 19" fill="none" xmlns="http://www.w3.org/2000/svg">
<g id="close">
<path id="Vector (Stroke)" fill-rule="evenodd" clip-rule="evenodd" d="M0.376577 1.35167C0.87868 0.849572 1.69275 0.849572 2.19485 1.35167L9 8.15682L15.8051 1.35167C16.3073 0.849572 17.1213 0.849572 17.6234 1.35167C18.1255 1.85378 18.1255 2.66785 17.6234 3.16995L10.8183 9.9751L17.6234 16.7802C18.1255 17.2823 18.1255 18.0964 17.6234 18.5985C17.1213 19.1006 16.3073 19.1006 15.8051 18.5985L9 11.7934L2.19485 18.5985C1.69275 19.1006 0.87868 19.1006 0.376577 18.5985C-0.125526 18.0964 -0.125526 17.2823 0.376577 16.7802L7.18173 9.9751L0.376577 3.16995C-0.125526 2.66785 -0.125526 1.85378 0.376577 1.35167Z" fill="#FD6318"/>
</g>
</svg>
