<svg width="24" height="24" viewBox="0 0 24 24" fill="none" xmlns="http://www.w3.org/2000/svg">
<g id="Group">
<path id="Union" fill-rule="evenodd" clip-rule="evenodd" d="M12.8485 0.351501C12.3799 -0.117126 11.6201 -0.117126 11.1515 0.351501L0.351506 11.1515C0.00830932 11.4947 -0.0943573 12.0108 0.0913794 12.4592C0.277116 12.9076 0.714678 13.2 1.20003 13.2H2.40003V20.4C2.40003 21.3547 2.77931 22.2704 3.45444 22.9455C4.12957 23.6207 5.04524 24 6.00002 24H8.3962C8.39745 24 8.3987 24 8.39995 24C8.4012 24 8.40245 24 8.40369 24H15.5962C15.5974 24 15.5987 24 15.5999 24C15.6012 24 15.6024 24 15.6037 24H18C18.9548 24 19.8704 23.6207 20.5456 22.9455C21.2207 22.2704 21.6 21.3547 21.6 20.4V13.2H22.8C23.2853 13.2 23.7229 12.9076 23.9086 12.4592C24.0944 12.0108 23.9917 11.4947 23.6485 11.1515L12.8485 0.351501ZM16.7999 21.6H18C18.3182 21.6 18.6235 21.4735 18.8485 21.2485C19.0736 21.0235 19.2 20.7182 19.2 20.4V12C19.2 11.4854 19.5239 11.0465 19.9789 10.876L12 2.89708L4.02112 10.876C4.47614 11.0465 4.80002 11.4854 4.80002 12V20.4C4.80002 20.7182 4.92645 21.0235 5.15149 21.2485C5.37654 21.4735 5.68176 21.6 6.00002 21.6H7.19995V15.6C7.19995 14.6452 7.57924 13.7295 8.25436 13.0544C8.92949 12.3793 9.84516 12 10.7999 12H13.1999C14.1547 12 15.0704 12.3793 15.7455 13.0544C16.4206 13.7295 16.7999 14.6452 16.7999 15.6V21.6ZM9.59994 21.6H14.3999V15.6C14.3999 15.2817 14.2735 14.9765 14.0485 14.7515C13.8234 14.5264 13.5182 14.4 13.1999 14.4H10.7999C10.4817 14.4 10.1765 14.5264 9.95142 14.7515C9.72637 14.9765 9.59994 15.2817 9.59994 15.6V21.6Z" fill="#1B4539"/>
</g>
</svg>
