<svg width="18" height="19" viewBox="0 0 18 19" fill="none" xmlns="http://www.w3.org/2000/svg">
<g id="Mail">
<path id="Vector (Stroke)" fill-rule="evenodd" clip-rule="evenodd" d="M2.7 4.0749C2.4613 4.0749 2.23239 4.16972 2.0636 4.33851C1.99774 4.40437 1.94313 4.4794 1.90103 4.56059L9 9.29324L16.099 4.56059C16.0569 4.4794 16.0023 4.40437 15.9364 4.33851C15.7676 4.16972 15.5387 4.0749 15.3 4.0749H2.7ZM16.2 6.65657L9.49923 11.1237C9.19692 11.3253 8.80308 11.3253 8.50077 11.1237L1.8 6.65657V13.9749C1.8 14.2136 1.89482 14.4425 2.0636 14.6113C2.23239 14.7801 2.46131 14.8749 2.7 14.8749H15.3C15.5387 14.8749 15.7676 14.7801 15.9364 14.6113C16.1052 14.4425 16.2 14.2136 16.2 13.9749V6.65657ZM0.790812 3.06571C1.29716 2.55937 1.98392 2.2749 2.7 2.2749H15.3C16.0161 2.2749 16.7028 2.55937 17.2092 3.06571C17.7155 3.57206 18 4.25882 18 4.9749V13.9749C18 14.691 17.7155 15.3777 17.2092 15.8841C16.7028 16.3904 16.0161 16.6749 15.3 16.6749H2.7C1.98392 16.6749 1.29716 16.3904 0.790812 15.8841C0.284463 15.3777 0 14.691 0 13.9749V4.9749C0 4.25882 0.284463 3.57206 0.790812 3.06571Z" fill="#1B4539"/>
</g>
</svg>
