<svg width="24" height="24" viewBox="0 0 24 24" fill="none" xmlns="http://www.w3.org/2000/svg">
<g id="Mail">
<path id="Vector (Stroke)" fill-rule="evenodd" clip-rule="evenodd" d="M3.6 4.79999C3.28174 4.79999 2.97652 4.92642 2.75147 5.15147C2.66365 5.23929 2.59084 5.33932 2.53471 5.44758L12 11.7578L21.4653 5.44758C21.4092 5.33932 21.3364 5.23929 21.2485 5.15147C21.0235 4.92642 20.7183 4.79999 20.4 4.79999H3.6ZM21.6 8.24222L12.6656 14.1985C12.2626 14.4672 11.7374 14.4672 11.3344 14.1985L2.4 8.24221V18C2.4 18.3183 2.52643 18.6235 2.75147 18.8485C2.97652 19.0736 3.28174 19.2 3.6 19.2H20.4C20.7183 19.2 21.0235 19.0736 21.2485 18.8485C21.4736 18.6235 21.6 18.3183 21.6 18V8.24222ZM1.05442 3.45441C1.72955 2.77928 2.64522 2.39999 3.6 2.39999H20.4C21.3548 2.39999 22.2705 2.77928 22.9456 3.45441C23.6207 4.12954 24 5.04521 24 5.99999V18C24 18.9548 23.6207 19.8704 22.9456 20.5456C22.2705 21.2207 21.3548 21.6 20.4 21.6H3.6C2.64522 21.6 1.72955 21.2207 1.05442 20.5456C0.379285 19.8704 0 18.9548 0 18V5.99999C0 5.04521 0.379284 4.12954 1.05442 3.45441Z" fill="black"/>
</g>
</svg>
