<svg width="24" height="24" viewBox="0 0 24 24" fill="none" xmlns="http://www.w3.org/2000/svg">
<g id="Phone" clip-path="url(#clip0_83_86483)">
<path id="Vector (Stroke)" fill-rule="evenodd" clip-rule="evenodd" d="M14.4 1.2C14.4 0.537258 14.9373 0 15.6 0C17.8278 0 19.9644 0.884998 21.5397 2.4603C23.115 4.03561 24 6.17218 24 8.4C24 9.06274 23.4627 9.6 22.8 9.6C22.1373 9.6 21.6 9.06274 21.6 8.4C21.6 6.8087 20.9679 5.28258 19.8426 4.15736C18.7174 3.03214 17.1913 2.4 15.6 2.4C14.9373 2.4 14.4 1.86274 14.4 1.2ZM3.6 3.6C3.28174 3.6 2.97652 3.72643 2.75147 3.95147C2.53369 4.16926 2.40826 4.46213 2.40039 4.76924C2.67638 9.14196 4.53791 13.2645 7.63672 16.3633C10.7355 19.4621 14.858 21.3236 19.2308 21.5996C19.5379 21.5917 19.8307 21.4663 20.0485 21.2485C20.2736 21.0235 20.4 20.7183 20.4 20.4V16.4124L16.1032 14.6937L14.829 16.8174C14.5077 17.3529 13.8293 17.5525 13.2692 17.2762C10.4265 15.8743 8.12575 13.5735 6.72377 10.7308C6.44753 10.1707 6.64708 9.49232 7.18261 9.17101L9.30628 7.8968L7.58756 3.6H3.6ZM1.05442 2.25442C1.72955 1.57928 2.64522 1.2 3.6 1.2H8.4C8.89069 1.2 9.33194 1.49874 9.51417 1.95433L11.9142 7.95433C12.1329 8.50119 11.9224 9.12596 11.4174 9.42899L9.4086 10.6343C10.3972 12.2466 11.7534 13.6028 13.3657 14.5914L14.571 12.5826C14.874 12.0776 15.4988 11.8671 16.0457 12.0858L22.0457 14.4858C22.5013 14.6681 22.8 15.1093 22.8 15.6V20.4C22.8 21.3548 22.4207 22.2705 21.7456 22.9456C21.0705 23.6207 20.1548 24 19.2 24C19.1757 24 19.1514 23.9993 19.1272 23.9978C14.1538 23.6956 9.46291 21.5836 5.93967 18.0603C2.41643 14.5371 0.304448 9.84623 0.00220971 4.87279C0.000736928 4.84856 0 4.82428 0 4.8C0 3.84522 0.379284 2.92955 1.05442 2.25442ZM14.4 6C14.4 5.33726 14.9373 4.8 15.6 4.8C16.5548 4.8 17.4705 5.17928 18.1456 5.85442C18.8207 6.52955 19.2 7.44522 19.2 8.4C19.2 9.06274 18.6627 9.6 18 9.6C17.3373 9.6 16.8 9.06274 16.8 8.4C16.8 8.08174 16.6736 7.77652 16.4485 7.55147C16.2235 7.32643 15.9183 7.2 15.6 7.2C14.9373 7.2 14.4 6.66274 14.4 6Z" fill="#1B4539"/>
</g>
<defs>
<clipPath id="clip0_83_86483">
<rect width="24" height="24" fill="white"/>
</clipPath>
</defs>
</svg>
