<svg width="19" height="19" viewBox="0 0 19 19" fill="none" xmlns="http://www.w3.org/2000/svg">
<g id="Phone" clip-path="url(#clip0_122_248)">
<path id="Vector (Stroke)" fill-rule="evenodd" clip-rule="evenodd" d="M11.3 1.3751C11.3 0.878041 11.7029 0.475098 12.2 0.475098C13.8709 0.475098 15.4733 1.13885 16.6548 2.32033C17.8363 3.5018 18.5 5.10423 18.5 6.7751C18.5 7.27215 18.0971 7.6751 17.6 7.6751C17.1029 7.6751 16.7 7.27215 16.7 6.7751C16.7 5.58162 16.2259 4.43703 15.382 3.59312C14.5381 2.7492 13.3935 2.2751 12.2 2.2751C11.7029 2.2751 11.3 1.87215 11.3 1.3751ZM3.2 3.1751C2.9613 3.1751 2.73239 3.26992 2.5636 3.4387C2.40027 3.60204 2.30619 3.82169 2.3003 4.05203C2.50729 7.33157 3.90343 10.4234 6.22754 12.7476C8.55165 15.0717 11.6435 16.4678 14.9231 16.6748C15.1534 16.6689 15.3731 16.5748 15.5364 16.4115C15.7052 16.2427 15.8 16.0138 15.8 15.7751V12.7844L12.5774 11.4954L11.6217 13.0881C11.3808 13.4898 10.872 13.6394 10.4519 13.4323C8.31987 12.3808 6.59431 10.6552 5.54283 8.52318C5.33565 8.1031 5.48531 7.59434 5.88695 7.35335L7.47971 6.3977L6.19067 3.1751H3.2ZM1.29081 2.16591C1.79716 1.65956 2.48392 1.3751 3.2 1.3751H6.8C7.16801 1.3751 7.49895 1.59915 7.63563 1.94085L9.43563 6.44085C9.59969 6.85099 9.44183 7.31957 9.06305 7.54684L7.55645 8.4508C8.29792 9.66006 9.31504 10.6772 10.5243 11.4187L11.4283 9.91205C11.6555 9.53326 12.1241 9.37541 12.5343 9.53947L17.0343 11.3395C17.3759 11.4761 17.6 11.8071 17.6 12.1751V15.7751C17.6 16.4912 17.3155 17.1779 16.8092 17.6843C16.3028 18.1906 15.6161 18.4751 14.9 18.4751C14.8818 18.4751 14.8636 18.4745 14.8454 18.4734C11.1153 18.2468 7.59718 16.6628 4.95475 14.0203C2.31232 11.3779 0.728336 7.85977 0.501657 4.12969C0.500553 4.11151 0.5 4.09331 0.5 4.0751C0.5 3.35901 0.784463 2.67226 1.29081 2.16591ZM11.3 4.9751C11.3 4.47804 11.7029 4.0751 12.2 4.0751C12.9161 4.0751 13.6028 4.35956 14.1092 4.86591C14.6155 5.37226 14.9 6.05901 14.9 6.7751C14.9 7.27215 14.4971 7.6751 14 7.6751C13.5029 7.6751 13.1 7.27215 13.1 6.7751C13.1 6.5364 13.0052 6.30748 12.8364 6.1387C12.6676 5.96992 12.4387 5.8751 12.2 5.8751C11.7029 5.8751 11.3 5.47215 11.3 4.9751Z" fill="#1B4539"/>
</g>
<defs>
<clipPath id="clip0_122_248">
<rect width="18" height="18" fill="white" transform="translate(0.5 0.475098)"/>
</clipPath>
</defs>
</svg>
