<svg width="68" height="69" viewBox="0 0 68 69" fill="none" xmlns="http://www.w3.org/2000/svg">
<path id="Star 1" d="M29.1405 2.32111C32.0666 0.30631 35.9336 0.30631 38.8597 2.32111C40.5677 3.49722 42.6448 4.01389 44.7048 3.77486C48.2178 3.36723 51.6426 5.2032 53.2917 8.3318C54.2617 10.1722 55.8738 11.6256 57.811 12.384C61.113 13.6767 63.2946 16.9044 63.3179 20.4503C63.3317 22.5388 64.0893 24.5837 65.4546 26.1642C67.79 28.8678 68.2491 32.7286 66.6252 35.9108C65.6749 37.7732 65.4188 39.9396 65.9002 41.9742C66.7196 45.437 65.3638 49.0874 62.4602 51.1445C60.7591 52.3497 59.5378 54.1546 59.031 56.1768C58.1711 59.6088 55.2844 62.2206 51.7757 62.6758C49.7165 62.9429 47.8133 63.9567 46.4351 65.5099C44.0844 68.1592 40.3254 69.1058 37.0102 67.859C35.0698 67.1293 32.9303 67.1293 30.9899 67.859C27.6747 69.1058 23.9158 68.1592 21.565 65.5099C20.1868 63.9567 18.2836 62.9429 16.2244 62.6758C12.7157 62.2206 9.82902 59.6088 8.96906 56.1768C8.46235 54.1546 7.24098 52.3497 5.53988 51.1445C2.63629 49.0874 1.28056 45.437 2.09989 41.9742C2.5813 39.9396 2.32525 37.7732 1.37491 35.9108C-0.248993 32.7286 0.210114 28.8678 2.54554 26.1642C3.9108 24.5837 4.66844 22.5388 4.68219 20.4503C4.70553 16.9044 6.88715 13.6767 10.1891 12.384C12.1263 11.6256 13.7384 10.1722 14.7085 8.3318C16.3575 5.2032 19.7823 3.36723 23.2953 3.77486C25.3553 4.01389 27.4324 3.49722 29.1405 2.32111Z" fill="#1B4539"/>
</svg>
