<svg width="24" height="25" viewBox="0 0 24 25" fill="none" xmlns="http://www.w3.org/2000/svg">
<g id="tabler-icon-thumb-up">
<path id="Vector" d="M7 11.4751V19.4751C7 19.7403 6.89464 19.9947 6.70711 20.1822C6.51957 20.3697 6.26522 20.4751 6 20.4751H4C3.73478 20.4751 3.48043 20.3697 3.29289 20.1822C3.10536 19.9947 3 19.7403 3 19.4751V12.4751C3 12.2099 3.10536 11.9555 3.29289 11.768C3.48043 11.5805 3.73478 11.4751 4 11.4751H7ZM7 11.4751C8.06087 11.4751 9.07828 11.0537 9.82843 10.3035C10.5786 9.55338 11 8.53596 11 7.4751V6.4751C11 5.94466 11.2107 5.43596 11.5858 5.06088C11.9609 4.68581 12.4696 4.4751 13 4.4751C13.5304 4.4751 14.0391 4.68581 14.4142 5.06088C14.7893 5.43596 15 5.94466 15 6.4751V11.4751H18C18.5304 11.4751 19.0391 11.6858 19.4142 12.0609C19.7893 12.436 20 12.9447 20 13.4751L19 18.4751C18.8562 19.0886 18.5834 19.6153 18.2227 19.9761C17.8619 20.3368 17.4328 20.5119 17 20.4751H10C9.20435 20.4751 8.44129 20.159 7.87868 19.5964C7.31607 19.0338 7 18.2707 7 17.4751" stroke="#43B97F" stroke-width="2" stroke-linecap="round" stroke-linejoin="round"/>
</g>
</svg>
