<svg width="24" height="25" viewBox="0 0 24 25" fill="none" xmlns="http://www.w3.org/2000/svg">
<g id="tabler-icon-credit-card">
<path id="Vector" d="M3 10.4751H21M7 15.4751H7.01M11 15.4751H13M3 8.4751C3 7.67945 3.31607 6.91639 3.87868 6.35378C4.44129 5.79117 5.20435 5.4751 6 5.4751H18C18.7956 5.4751 19.5587 5.79117 20.1213 6.35378C20.6839 6.91639 21 7.67945 21 8.4751V16.4751C21 17.2707 20.6839 18.0338 20.1213 18.5964C19.5587 19.159 18.7956 19.4751 18 19.4751H6C5.20435 19.4751 4.44129 19.159 3.87868 18.5964C3.31607 18.0338 3 17.2707 3 16.4751V8.4751Z" stroke="#43B97F" stroke-width="2" stroke-linecap="round" stroke-linejoin="round"/>
</g>
</svg>
