<svg width="24" height="25" viewBox="0 0 24 25" fill="none" xmlns="http://www.w3.org/2000/svg">
<g id="tabler-icon-user-shield">
<path id="Vector" d="M6 21.4751V19.4751C6 18.4142 6.42143 17.3968 7.17157 16.6467C7.92172 15.8965 8.93913 15.4751 10 15.4751H12M22 16.4751C22 20.4751 19.5 22.4751 18.5 22.4751C17.5 22.4751 15 20.4751 15 16.4751C16 16.4751 17.5 15.9751 18.5 14.9751C19.5 15.9751 21 16.4751 22 16.4751ZM8 7.4751C8 8.53596 8.42143 9.55338 9.17157 10.3035C9.92172 11.0537 10.9391 11.4751 12 11.4751C13.0609 11.4751 14.0783 11.0537 14.8284 10.3035C15.5786 9.55338 16 8.53596 16 7.4751C16 6.41423 15.5786 5.39682 14.8284 4.64667C14.0783 3.89652 13.0609 3.4751 12 3.4751C10.9391 3.4751 9.92172 3.89652 9.17157 4.64667C8.42143 5.39682 8 6.41423 8 7.4751Z" stroke="#43B97F" stroke-width="2" stroke-linecap="round" stroke-linejoin="round"/>
</g>
</svg>
