<svg width="24" height="25" viewBox="0 0 24 25" fill="none" xmlns="http://www.w3.org/2000/svg">
<g id="tabler-icon-home-shield">
<path id="Vector" d="M9 21.4751V15.4751C9 14.9447 9.21071 14.436 9.58579 14.0609C9.96086 13.6858 10.4696 13.4751 11 13.4751H12.341M19.682 11.1571L12 3.4751L3 12.4751H5V19.4751C5 20.0055 5.21071 20.5142 5.58579 20.8893C5.96086 21.2644 6.46957 21.4751 7 21.4751H12M22 16.4751C22 20.4751 19.5 22.4751 18.5 22.4751C17.5 22.4751 15 20.4751 15 16.4751C16 16.4751 17.5 15.9751 18.5 14.9751C19.5 15.9751 21 16.4751 22 16.4751Z" stroke="#43B97F" stroke-width="2" stroke-linecap="round" stroke-linejoin="round"/>
</g>
</svg>
