<svg width="104" height="324" viewBox="0 0 104 324" fill="none" xmlns="http://www.w3.org/2000/svg">
<path d="M103.487 15.2711L77.18 231.157C76.6316 235.677 71.5415 238.184 67.6339 235.796C60.2644 231.294 51.7981 228.292 42.6976 227.184C33.5971 226.092 24.6679 226.996 16.4243 229.605C12.054 231.004 7.71801 227.354 8.26644 222.835L34.574 6.94875C35.1053 2.61704 39.0814 -0.469732 43.4517 0.058941L96.5464 6.47124C100.917 6.99991 104.036 10.9394 103.505 15.2711H103.487Z" fill="#38516B"/>
<path d="M70.403 292.772C68.0591 312.136 50.4537 325.935 31.0947 323.58C11.7357 321.225 -2.08481 303.588 0.259112 284.224C0.415373 282.985 0.6063 281.816 0.849373 280.665C4.80799 263.185 21.4412 251.218 39.5675 253.416C57.6938 255.631 70.9934 271.245 70.6808 289.178C70.6461 290.365 70.5592 291.551 70.403 292.789V292.772Z" fill="#38516B"/>
</svg>
