<svg width="202" height="15" viewBox="0 0 202 15" fill="none" xmlns="http://www.w3.org/2000/svg">
<path id="Subtract" fill-rule="evenodd" clip-rule="evenodd" d="M29.3834 3.76325V10.7043C29.3834 12.9204 30.9458 14.243 33.1007 14.243H51.8269C53.9818 14.243 55.5442 12.9204 55.5442 10.7043V3.76325C55.5442 1.54815 53.9818 0.223389 51.8269 0.223389H33.1007C30.9458 0.223389 29.3834 1.54815 29.3834 3.76325ZM22.9575 0.224463H0V14.243H3.20437V10.1118H22.0876C24.6382 10.1118 26.1016 8.33108 26.1016 5.87942V4.25788C26.1016 2.32021 25.1522 0.224463 22.9575 0.224463ZM82.0598 0.224463H59.0045V14.243H62.2078V10.1118H78.5802C81.0114 10.1118 81.9211 12.1279 82.0598 14.243H85.204C85.0061 12.286 84.6104 10.2698 82.6728 9.36015C84.0169 9.00315 85.204 8.19345 85.204 6.67083V3.03205C85.204 1.31158 83.7007 0.224463 82.0598 0.224463ZM114.21 3.03205V0.224463L92.8966 0.225538C90.0482 0.225538 88.546 1.78686 88.546 4.57509C88.546 6.80955 89.8901 8.60851 92.2235 8.60851H110.278C111.169 8.60851 111.326 9.401 111.326 10.1505C111.326 10.8032 111.009 11.4355 110.278 11.4355H88.9815V14.243H110.831C113.362 14.243 114.666 12.5237 114.666 10.0913C114.666 7.18483 113.124 5.82029 110.277 5.82029H92.8956C92.0848 5.82029 91.6891 5.22672 91.6891 4.45573C91.6891 3.64496 92.045 3.03205 92.8956 3.03205H114.21ZM142.921 3.03205V0.224463L121.882 0.225538C119.154 0.225538 118.028 1.68901 118.028 4.33853V10.3483C118.028 12.6624 119.589 14.2441 121.882 14.2441H142.921V11.4365H121.882C121.468 11.4365 121.21 11.1613 121.21 10.7451V3.92239C121.21 3.50625 121.389 3.03205 121.882 3.03205H142.921ZM149.585 0.224463H146.361V14.243H149.585V8.48915H168.193V14.243H171.494V0.224463H168.193V5.68157H149.585V0.224463ZM201.174 0.224463H174.876V14.243H201.174V11.4355H178.078V8.52894H201.174V5.74178H178.078V3.03205H201.174V0.224463ZM50.7 11.4356H34.4459C33.4566 11.4356 32.6265 11.0011 32.6265 9.87317V4.59455C32.6265 3.46765 33.4373 3.03216 34.4459 3.03216H50.7C51.7087 3.03216 52.499 3.46765 52.499 4.59455V9.87317C52.499 11.0011 51.6882 11.4356 50.7 11.4356ZM3.20438 7.30322V3.03216L21.4747 3.03323C22.4037 3.03323 22.9575 3.58701 22.9575 4.51606V6.09674C22.9575 6.98708 22.2661 7.30322 21.4747 7.30322H3.20438ZM62.2078 7.30322V3.03216L80.7942 3.03108C81.7243 3.03108 82.0598 3.42679 82.0598 4.33648V6.23545C82.0598 6.76879 81.9018 7.30322 81.2695 7.30322H62.2078Z" fill="white"/>
</svg>
