<svg width="120" height="120" viewBox="0 0 120 120" fill="none" xmlns="http://www.w3.org/2000/svg">
<g clip-path="url(#clip0_942_802)">
<path d="M60 120C93.1371 120 120 93.1371 120 60C120 26.8629 93.1371 0 60 0C26.8629 0 0 26.8629 0 60C0 93.1371 26.8629 120 60 120Z" fill="#710FAA"/>
<g clip-path="url(#clip1_942_802)">
<path d="M59.5 93C77.4493 93 92 78.4493 92 60.5C92 42.5507 77.4493 28 59.5 28C41.5507 28 27 42.5507 27 60.5C27 78.4493 41.5507 93 59.5 93Z" fill="#3D055D"/>
<path d="M59.5 88.0825C74.7334 88.0825 87.0825 75.7334 87.0825 60.5C87.0825 45.2666 74.7334 32.9175 59.5 32.9175C44.2666 32.9175 31.9175 45.2666 31.9175 60.5C31.9175 75.7334 44.2666 88.0825 59.5 88.0825Z" fill="#9149BC"/>
<path d="M62.1655 55.1301H45.7814V59.0076H62.1655V55.1301Z" fill="white"/>
<path d="M62.1655 61.9934H45.7814V65.8709H62.1655V61.9934Z" fill="white"/>
<path d="M67.2161 70.8652C66.1433 71.3873 64.8392 71.6483 63.3048 71.6483C60.3353 71.6483 58.0915 70.8232 56.0463 68.6429C54.0001 66.4636 52.9775 63.7879 52.9775 60.6167C52.9775 57.4455 54.0001 54.692 56.0463 52.4728C58.0802 50.2413 60.3169 49.3896 63.2864 49.3896C64.4728 49.3896 65.6428 49.6056 66.7954 50.0345L68.5406 46.2051C66.7831 45.4589 65.4319 45.0833 63.5853 45.0833C58.8316 45.0833 55.2223 46.6658 52.2282 50.359C49.795 53.3736 48.579 56.8058 48.579 60.6556C48.579 64.9497 50.0325 68.6163 52.9396 71.6575C55.859 74.6721 59.1192 75.9158 63.2485 75.9158C65.2282 75.9158 67.1424 75.5299 68.9921 74.7632L68.0677 70.4404C67.7791 70.6021 67.4955 70.7444 67.2171 70.8652H67.2161Z" fill="white"/>
</g>
</g>
<defs>
<clipPath id="clip0_942_802">
<rect width="120" height="120" fill="white"/>
</clipPath>
<clipPath id="clip1_942_802">
<rect width="65" height="65" fill="white" transform="translate(27 28)"/>
</clipPath>
</defs>
</svg>
